<svg xmlns="http://www.w3.org/2000/svg" xmlns:xlink="http://www.w3.org/1999/xlink" width="382.348" height="896.858" viewBox="0 0 382.348 896.858"><defs><clipPath id="a"><path d="M12.909,0h871.04c7.13,0,12.909,6.415,12.909,14.329v353.69c0,7.913-5.78,14.329-12.909,14.329H12.909C5.78,382.348,0,375.932,0,368.019V14.329C0,6.415,5.78,0,12.909,0Z" transform="translate(-14098.684 -13307.311)" fill="#cbc232"/></clipPath><clipPath id="b"><path d="M427.694,0C663.9,0,855.388,155.789,855.388,347.964S663.9,695.928,427.694,695.928,0,540.139,0,347.964,191.485,0,427.694,0Z" transform="translate(0 0)" fill="#21c9b8"/></clipPath><clipPath id="c"><rect width="624.829" height="530.776" fill="#dee4f0"/></clipPath><clipPath id="d"><rect width="193.906" height="168.09" fill="#fff" stroke="#fff" stroke-width="1"/></clipPath></defs><g transform="translate(-6639.826 9676.429)"><g transform="translate(19947.137 -22878.254) rotate(-90)" opacity="0.61" clip-path="url(#a)"><path d="M0,0H2823.077V505.308H0Z" transform="translate(-15328.093 -13371.444)" fill="#f3f9ff"/><path d="M399.883,0C620.732,0,799.766,152.085,799.766,339.691S620.732,679.381,399.883,679.381,0,527.3,0,339.691,179.034,0,399.883,0Z" transform="translate(-13140.877 -13355.636)" fill="#dbe3fb" opacity="0.14"/><path d="M399.883,0C620.732,0,799.766,152.085,799.766,339.691S620.732,679.381,399.883,679.381,0,527.3,0,339.691,179.034,0,399.883,0Z" transform="translate(-14072.878 -12959.152)" fill="#dbe3fb" opacity="0.14"/><path d="M399.883,0C620.732,0,799.766,152.085,799.766,339.691S620.732,679.381,399.883,679.381,0,527.3,0,339.691,179.034,0,399.883,0Z" transform="translate(-13156.585 -13510.606)" fill="#dbe3fb" opacity="0"/><rect width="10.971" height="2.485" transform="translate(-12985.888 -12939.704)" fill="#dbe3fb"/><ellipse cx="399.351" cy="324.904" rx="399.351" ry="324.904" transform="translate(-14141.817 -13978.838)" fill="#94a6dd" opacity="0.13"/><path d="M409.073,0C635,0,818.146,149.006,818.146,332.814S635,665.628,409.073,665.628,0,516.622,0,332.814,183.148,0,409.073,0Z" transform="translate(-13559.14 -13164.039)" fill="#fff" opacity="0.25"/><path d="M533.582,0c294.689,0,533.582,202.933,533.582,453.264S828.271,906.528,533.582,906.528,0,703.595,0,453.264,238.893,0,533.582,0Z" transform="translate(-15328.093 -13116.137)" fill="#a5b9f6" opacity="0.23" style="mix-blend-mode:multiply;isolation:isolate"/><path d="M533.582,0c294.689,0,533.582,202.933,533.582,453.264S828.271,906.528,533.582,906.528,0,703.595,0,453.264,238.893,0,533.582,0Z" transform="translate(-15444.189 -13963.87)" fill="#a5b9f6" opacity="0.23" style="mix-blend-mode:multiply;isolation:isolate"/><path d="M533.582,0c294.689,0,533.582,202.933,533.582,453.264S828.271,906.528,533.582,906.528,0,703.595,0,453.264,238.893,0,533.582,0Z" transform="translate(-14525.082 -13878.895)" fill="#f6f8fe" opacity="0.51" style="mix-blend-mode:lighten;isolation:isolate"/><g transform="translate(-14616.327 -13748.186)"><g clip-path="url(#c)"><path d="M624.829,265.384A227.457,227.457,0,0,0,623.367,240H478.3l135.988-43.039a240.468,240.468,0,0,0-20.859-47.595L430.639,200.875,553.452,96.541a295.507,295.507,0,0,0-42.281-35.908l-102.6,87.161L468.881,35.715a339.563,339.563,0,0,0-54.369-21.142l-72.2,134.177V1.233C332.468.445,322.5,0,312.409,0s-20.049.445-29.9,1.233V124.478L231.858,8.96a344.934,344.934,0,0,0-56.039,17.719L236.46,164.959,113.647,60.633A296.6,296.6,0,0,0,71.367,96.541L173.972,183.7,42.044,132.474a247.537,247.537,0,0,0-24.888,46.185L175.108,240H1.452a222.84,222.84,0,0,0,0,50.791H146.536l-136,43.031A239.455,239.455,0,0,0,31.4,381.431l162.782-51.521L71.367,434.227a295.564,295.564,0,0,0,42.281,35.916l102.606-87.161-60.305,112.07a339.839,339.839,0,0,0,54.36,21.151l72.206-134.177V529.543c9.847.789,19.812,1.233,29.9,1.233s20.059-.445,29.906-1.233V406.3l50.656,115.527a347.412,347.412,0,0,0,56.039-17.711L388.359,365.826,511.171,470.144a294.482,294.482,0,0,0,42.281-35.916L450.846,347.066l131.929,51.244a248.369,248.369,0,0,0,24.9-46.185L449.721,290.788H623.367a227.527,227.527,0,0,0,1.462-25.4" fill="#dee4f0" opacity="0.12"/></g></g><path d="M727.914,309.167a265.019,265.019,0,0,0-1.7-29.576h-169l158.423-50.14A280.127,280.127,0,0,0,691.337,174l-189.65,60.012L644.762,112.468a344.27,344.27,0,0,0-49.256-41.832L475.983,172.177,546.237,41.607A395.588,395.588,0,0,0,482.9,16.977L398.791,173.291V1.437C387.319.518,375.71,0,363.951,0s-23.357.518-34.828,1.437V145.015L270.11,10.438a401.841,401.841,0,0,0-65.284,20.642l70.646,161.093L132.4,70.636a345.531,345.531,0,0,0-49.256,41.832L202.675,214.009,48.98,154.33a288.376,288.376,0,0,0-28.995,53.805L204,279.592H1.691a259.6,259.6,0,0,0,0,59.171h169.02L12.277,388.893a278.962,278.962,0,0,0,24.3,55.467l189.638-60.021L83.141,505.867A344.328,344.328,0,0,0,132.4,547.708L251.931,446.168,181.676,576.727A395.9,395.9,0,0,0,245,601.367l84.119-156.314V616.908c11.471.919,23.081,1.437,34.828,1.437s23.368-.518,34.84-1.437V473.329L457.8,607.916a404.72,404.72,0,0,0,65.284-20.633l-70.657-161.1L595.505,547.708a343.076,343.076,0,0,0,49.256-41.842L525.228,404.326l153.694,59.7a289.35,289.35,0,0,0,29.006-53.805L523.916,338.763H726.211a265.1,265.1,0,0,0,1.7-29.6" transform="translate(-14377.026 -12938.46)" fill="none" stroke="#fff" stroke-width="1"/><rect width="10.971" height="2.485" transform="translate(-12940.081 -12874.489)" fill="#e9dcbf"/><g transform="translate(-13273.111 -13286.881)" style="isolation:isolate"><g transform="translate(0 0)" clip-path="url(#d)" style="isolation:isolate"><path d="M22.852,0h0a3.646,3.646,0,0,0-3.74,2.829c-1.167,6.986-7.6,12.251-15.8,13.358A3.5,3.5,0,0,0,0,19.4a3.509,3.509,0,0,0,3.332,3.214c8.246,1.068,14.688,6.368,15.8,13.354a3.64,3.64,0,0,0,3.743,2.852,3.649,3.649,0,0,0,3.733-2.8c1.245-7.013,7.772-12.582,15.86-13.49a3.327,3.327,0,0,0,3.222-3.043v-.076a3.441,3.441,0,0,0-3.3-3.156C34.341,15.28,27.78,9.791,26.585,2.8A3.636,3.636,0,0,0,22.852,0" transform="translate(0 0)" fill="#fff" stroke="#fff" stroke-width="1"/><path d="M44.395,0h0a3.646,3.646,0,0,0-3.74,2.829c-1.167,6.986-7.6,12.251-15.8,13.358a3.5,3.5,0,0,0-3.307,3.21,3.509,3.509,0,0,0,3.332,3.214c8.246,1.068,14.688,6.368,15.8,13.354a3.886,3.886,0,0,0,7.476.056c1.245-7.013,7.772-12.582,15.86-13.49a3.328,3.328,0,0,0,3.222-3.043v-.076a3.442,3.442,0,0,0-3.3-3.156c-8.049-.976-14.61-6.466-15.8-13.457A3.64,3.64,0,0,0,44.395,0" transform="translate(27.86 0)" fill="#fff" stroke="#fff" stroke-width="1"/><path d="M65.938,0h0A3.646,3.646,0,0,0,62.2,2.829c-1.167,6.986-7.6,12.251-15.8,13.358a3.5,3.5,0,0,0-3.307,3.21,3.509,3.509,0,0,0,3.332,3.214c8.246,1.068,14.688,6.368,15.8,13.354a3.886,3.886,0,0,0,7.476.056c1.245-7.013,7.772-12.582,15.86-13.49a3.327,3.327,0,0,0,3.222-3.043v-.076a3.441,3.441,0,0,0-3.3-3.156c-8.049-.976-14.61-6.466-15.8-13.457A3.636,3.636,0,0,0,65.938,0" transform="translate(55.72 0)" fill="#fff" stroke="#fff" stroke-width="1"/><path d="M87.482,0h0a3.646,3.646,0,0,0-3.74,2.829c-1.167,6.986-7.6,12.251-15.8,13.358A3.5,3.5,0,0,0,64.63,19.4a3.509,3.509,0,0,0,3.332,3.214c8.246,1.068,14.688,6.368,15.8,13.354a3.886,3.886,0,0,0,7.476.056c1.245-7.013,7.772-12.582,15.86-13.49a3.328,3.328,0,0,0,3.222-3.043v-.076a3.442,3.442,0,0,0-3.3-3.156C98.971,15.28,92.41,9.791,91.215,2.8A3.636,3.636,0,0,0,87.482,0" transform="translate(83.581 0)" fill="#fff" stroke="#fff" stroke-width="1"/><path d="M22.852,22.12h0a3.648,3.648,0,0,0-3.74,2.83c-1.167,6.986-7.6,12.249-15.8,13.358A3.5,3.5,0,0,0,0,41.517a3.509,3.509,0,0,0,3.332,3.216C11.578,45.8,18.02,51.1,19.137,58.087a3.642,3.642,0,0,0,3.743,2.852,3.649,3.649,0,0,0,3.733-2.8c1.245-7.011,7.772-12.58,15.86-13.488a3.329,3.329,0,0,0,3.222-3.043v-.078a3.443,3.443,0,0,0-3.3-3.156c-8.049-.974-14.61-6.466-15.8-13.457a3.636,3.636,0,0,0-3.733-2.8" transform="translate(0 20.97)" fill="#fff" stroke="#fff" stroke-width="1"/><path d="M44.395,22.12h0a3.648,3.648,0,0,0-3.74,2.83c-1.167,6.986-7.6,12.249-15.8,13.358a3.5,3.5,0,0,0-3.307,3.208,3.509,3.509,0,0,0,3.332,3.216C33.121,45.8,39.563,51.1,40.68,58.087a3.886,3.886,0,0,0,7.476.055c1.245-7.011,7.772-12.58,15.86-13.488a3.329,3.329,0,0,0,3.222-3.043v-.078a3.443,3.443,0,0,0-3.3-3.156c-8.049-.974-14.61-6.466-15.8-13.457a3.64,3.64,0,0,0-3.736-2.8" transform="translate(27.86 20.97)" fill="#fff" stroke="#fff" stroke-width="1"/><path d="M65.938,22.12h0a3.648,3.648,0,0,0-3.74,2.83c-1.167,6.986-7.6,12.249-15.8,13.358a3.5,3.5,0,0,0-3.307,3.208,3.509,3.509,0,0,0,3.332,3.216c8.246,1.068,14.688,6.368,15.8,13.354a3.886,3.886,0,0,0,7.476.055c1.245-7.011,7.772-12.58,15.86-13.488a3.329,3.329,0,0,0,3.222-3.043v-.078a3.443,3.443,0,0,0-3.3-3.156c-8.049-.974-14.61-6.466-15.8-13.457a3.636,3.636,0,0,0-3.733-2.8" transform="translate(55.72 20.97)" fill="#fff" stroke="#fff" stroke-width="1"/><path d="M87.482,22.12h0a3.648,3.648,0,0,0-3.74,2.83c-1.167,6.986-7.6,12.249-15.8,13.358a3.5,3.5,0,0,0-3.307,3.208,3.509,3.509,0,0,0,3.332,3.216C76.208,45.8,82.65,51.1,83.767,58.087a3.886,3.886,0,0,0,7.476.055c1.245-7.011,7.772-12.58,15.86-13.488a3.329,3.329,0,0,0,3.222-3.043v-.078a3.443,3.443,0,0,0-3.3-3.156c-8.049-.974-14.61-6.466-15.8-13.457a3.636,3.636,0,0,0-3.733-2.8" transform="translate(83.581 20.97)" fill="#fff" stroke="#fff" stroke-width="1"/><path d="M22.852,44.241h0a3.646,3.646,0,0,0-3.74,2.829c-1.167,6.986-7.6,12.251-15.8,13.356a3.215,3.215,0,1,0,.025,6.427c8.246,1.068,14.688,6.368,15.8,13.354a3.64,3.64,0,0,0,3.743,2.852,3.651,3.651,0,0,0,3.733-2.8c1.245-7.013,7.772-12.582,15.86-13.49a3.329,3.329,0,0,0,3.222-3.043v-.076a3.441,3.441,0,0,0-3.3-3.156c-8.049-.976-14.61-6.466-15.8-13.457a3.636,3.636,0,0,0-3.733-2.8" transform="translate(0 41.942)" fill="#fff" stroke="#fff" stroke-width="1"/><path d="M44.395,44.241h0a3.646,3.646,0,0,0-3.74,2.829c-1.167,6.986-7.6,12.251-15.8,13.356a3.215,3.215,0,1,0,.025,6.427c8.246,1.068,14.688,6.368,15.8,13.354a3.886,3.886,0,0,0,7.476.056c1.245-7.013,7.772-12.582,15.86-13.49a3.329,3.329,0,0,0,3.222-3.043v-.076a3.442,3.442,0,0,0-3.3-3.156c-8.049-.976-14.61-6.466-15.8-13.457a3.64,3.64,0,0,0-3.736-2.8" transform="translate(27.86 41.942)" fill="#fff" stroke="#fff" stroke-width="1"/><path d="M65.938,44.241h0A3.646,3.646,0,0,0,62.2,47.07c-1.167,6.986-7.6,12.251-15.8,13.356a3.215,3.215,0,1,0,.025,6.427c8.246,1.068,14.688,6.368,15.8,13.354a3.886,3.886,0,0,0,7.476.056c1.245-7.013,7.772-12.582,15.86-13.49a3.329,3.329,0,0,0,3.222-3.043v-.076a3.441,3.441,0,0,0-3.3-3.156c-8.049-.976-14.61-6.466-15.8-13.457a3.636,3.636,0,0,0-3.733-2.8" transform="translate(55.72 41.942)" fill="#fff" stroke="#fff" stroke-width="1"/><path d="M87.482,44.241h0a3.646,3.646,0,0,0-3.74,2.829c-1.167,6.986-7.6,12.251-15.8,13.356a3.215,3.215,0,1,0,.025,6.427c8.246,1.068,14.688,6.368,15.8,13.354a3.886,3.886,0,0,0,7.476.056c1.245-7.013,7.772-12.582,15.86-13.49a3.329,3.329,0,0,0,3.222-3.043v-.076a3.442,3.442,0,0,0-3.3-3.156c-8.049-.976-14.61-6.466-15.8-13.457a3.636,3.636,0,0,0-3.733-2.8" transform="translate(83.581 41.942)" fill="#fff" stroke="#fff" stroke-width="1"/><path d="M22.852,66.361h0a3.646,3.646,0,0,0-3.74,2.829c-1.167,6.986-7.6,12.251-15.8,13.358a3.214,3.214,0,1,0,.025,6.425c8.246,1.067,14.688,6.368,15.8,13.354a3.64,3.64,0,0,0,3.743,2.852,3.649,3.649,0,0,0,3.733-2.8c1.245-7.013,7.772-12.582,15.86-13.49a3.327,3.327,0,0,0,3.222-3.043v-.076a3.441,3.441,0,0,0-3.3-3.156c-8.049-.976-14.61-6.466-15.8-13.457a3.636,3.636,0,0,0-3.733-2.8" transform="translate(0 62.912)" fill="#fff" stroke="#fff" stroke-width="1"/><path d="M44.395,66.361h0a3.646,3.646,0,0,0-3.74,2.829c-1.167,6.986-7.6,12.251-15.8,13.358a3.214,3.214,0,1,0,.025,6.425c8.246,1.067,14.688,6.368,15.8,13.354a3.886,3.886,0,0,0,7.476.056c1.245-7.013,7.772-12.582,15.86-13.49a3.328,3.328,0,0,0,3.222-3.043v-.076a3.441,3.441,0,0,0-3.3-3.156c-8.049-.976-14.61-6.466-15.8-13.457a3.64,3.64,0,0,0-3.736-2.8" transform="translate(27.86 62.912)" fill="#fff" stroke="#fff" stroke-width="1"/><path d="M65.938,66.361h0A3.646,3.646,0,0,0,62.2,69.19c-1.167,6.986-7.6,12.251-15.8,13.358a3.214,3.214,0,1,0,.025,6.425c8.246,1.067,14.688,6.368,15.8,13.354a3.886,3.886,0,0,0,7.476.056c1.245-7.013,7.772-12.582,15.86-13.49a3.327,3.327,0,0,0,3.222-3.043v-.076a3.441,3.441,0,0,0-3.3-3.156c-8.049-.976-14.61-6.466-15.8-13.457a3.636,3.636,0,0,0-3.733-2.8" transform="translate(55.72 62.912)" fill="#fff" stroke="#fff" stroke-width="1"/><path d="M87.482,66.361h0a3.646,3.646,0,0,0-3.74,2.829c-1.167,6.986-7.6,12.251-15.8,13.358a3.214,3.214,0,1,0,.025,6.425c8.246,1.067,14.688,6.368,15.8,13.354a3.886,3.886,0,0,0,7.476.056c1.245-7.013,7.772-12.582,15.86-13.49a3.328,3.328,0,0,0,3.222-3.043v-.076a3.441,3.441,0,0,0-3.3-3.156c-8.049-.976-14.61-6.466-15.8-13.457a3.636,3.636,0,0,0-3.733-2.8" transform="translate(83.581 62.912)" fill="#fff" stroke="#fff" stroke-width="1"/></g></g></g><g transform="translate(246.001 -162)"><circle cx="48.5" cy="48.5" r="48.5" transform="translate(6440.999 -9066)" fill="#dbe3fb"/><g transform="translate(6462.999 -9044)"><path d="M40.553,42.926l6.328-3.164V35.016H43.717Z" fill="#999"/><path d="M43.717,42.926l-5.59-3.164V35.016h5.59Z" fill="#b3b3b3"/><path d="M46.881,50.836H43.717L40.553,45.3l3.164-5.537h3.164Z" fill="#4f4f4f"/><rect width="5.59" height="11.074" transform="translate(38.127 39.762)" fill="#696969"/><path d="M50.045,26.895h-7.91l4.746,4.746h3.164Z" fill="#b3b3b3"/><rect width="42.926" height="4.746" transform="translate(3.955 26.895)" fill="#ccc"/><path d="M36.967,20.566v6.329h6.328V20.566Z" fill="#ccc"/><path d="M50.045,22.148H46.881L43.717,15.82l6.328,3.164Z" fill="#ebebeb"/><path d="M46.881,22.148H30.217V18.984L46.881,15.82Z" fill="#fff"/><path d="M46.881,18.984l-4.746-6.328,4.746-6.328h3.164V18.984Z" fill="#a8e5ff"/><path d="M30.217,18.984V6.328H46.881V18.984H42.873L38.127,15.82l-4.746,3.164Z" fill="#dbf4ff"/><path d="M33.381,15.82v3.164h3.164l3.164-3.164Z" fill="#ff8646"/><path d="M36.545,12.656v6.328h3.164l1.582-6.328Z" fill="#49c9ff"/><rect width="3.164" height="9.492" transform="translate(39.709 9.492)" fill="#ff8646"/><path d="M50.045,25.313l-3.164,1.582,3.164,1.582h3.164V25.313Z" fill="#353535"/><rect width="49.254" height="3.164" transform="translate(0.791 25.313)" fill="#4f4f4f"/><circle cx="1.582" cy="1.582" r="1.582" transform="translate(6.486 47.672)" fill="#4f4f4f"/><circle cx="1.582" cy="1.582" r="1.582" transform="translate(28.635 47.672)" fill="#353535"/><circle cx="1.582" cy="1.582" r="1.582" transform="translate(17.561 47.672)" fill="#4f4f4f"/><rect width="3.164" height="11.285" transform="translate(17.561 33.223)" fill="#ccc"/><path d="M19.143,3.164,17.561,17.4l4.219-1.582a2.116,2.116,0,0,0,2.109-2.109V7.91A4.746,4.746,0,0,0,19.143,3.164Z" fill="#c27749"/><path d="M19.143,3.164A4.746,4.746,0,0,0,14.4,7.91v5.8a2.116,2.116,0,0,0,2.109,2.109L17.561,17.4l1.055-1.582a2.116,2.116,0,0,0,2.109-2.109V7.91C20.725,5.289,20.016,3.164,19.143,3.164Z" fill="#e18f4e"/><path d="M21.779,15.82H18.615l-2.109,9.492h7.383V17.93A2.109,2.109,0,0,0,21.779,15.82Z" fill="#ffcb63"/><path d="M18.615,15.82H16.506A2.109,2.109,0,0,0,14.4,17.93v7.383h6.328V17.93A2.109,2.109,0,0,0,18.615,15.82Z" fill="#ffe2a8"/><path d="M23.889,20.566H20.725l3.164,17.4h3.164V23.73A3.173,3.173,0,0,0,23.889,20.566Z" fill="#1990c2"/><path d="M20.725,20.566H14.4a3.173,3.173,0,0,0-3.164,3.164V37.969H23.889V23.73A3.173,3.173,0,0,0,20.725,20.566Z" fill="#2dade3"/><path d="M46.881,34.225H38.127a.791.791,0,0,0-.791.791v15.82a.791.791,0,0,0,.791.791h8.754a.791.791,0,0,0,.791-.791V35.016A.791.791,0,0,0,46.881,34.225Zm-.791,1.582v3.164H38.918V35.807ZM38.918,50.045V40.553H46.09v9.492Z"/><circle cx="0.791" cy="0.791" r="0.791" transform="translate(41.713 46.881)"/><path d="M46.037,10.283h.844a.791.791,0,0,0,0-1.582h-.844a.791.791,0,0,0,0,1.582Z"/><path d="M46.037,13.447h.844a.791.791,0,0,0,0-1.582h-.844a.791.791,0,0,0,0,1.582Z"/><path d="M53.209,24.521H44.086V22.939h5.959a.791.791,0,0,0,.791-.791V6.328a.791.791,0,0,0-.791-.791H30.217a.791.791,0,0,0-.791.791v15.82a.791.791,0,0,0,.791.791h5.959v1.582H27.844V23.73a3.962,3.962,0,0,0-3.164-3.875V17.93a2.892,2.892,0,0,0-.913-2.109,2.892,2.892,0,0,0,.913-2.109V7.91a5.537,5.537,0,0,0-11.074,0v5.8a2.892,2.892,0,0,0,.913,2.109,2.892,2.892,0,0,0-.913,2.109v1.925a3.962,3.962,0,0,0-3.164,3.875v.791H.791A.791.791,0,0,0,0,25.313v3.164a.791.791,0,0,0,.791.791H3.164V50.836a.791.791,0,0,0,1.582,0v-18.4H7.277v3.955A2.376,2.376,0,0,0,9.65,38.76h3.428v4.957H11.232A2.376,2.376,0,0,0,8.859,46.09v.927a2.373,2.373,0,1,0,1.582,2.237V46.09a.792.792,0,0,1,.791-.791h7.119v1.718a2.373,2.373,0,1,0,1.582,0V45.3h7.119a.792.792,0,0,1,.791.791v3.164a2.374,2.374,0,1,0,1.582-2.237V46.09a2.376,2.376,0,0,0-2.373-2.373H25.207V38.76h3.428a2.376,2.376,0,0,0,2.373-2.373V32.432H49.254v18.4a.791.791,0,0,0,1.582,0V29.268h2.373A.791.791,0,0,0,54,28.477V25.313A.791.791,0,0,0,53.209,24.521ZM8.068,50.045a.791.791,0,1,1,.791-.791A.792.792,0,0,1,8.068,50.045Zm11.074,0a.791.791,0,1,1,.791-.791A.792.792,0,0,1,19.143,50.045Zm11.074-1.582a.791.791,0,1,1-.791.791A.792.792,0,0,1,30.217,48.463ZM49.254,7.119V18.193h-5.59v-8.7a.791.791,0,0,0-.791-.791H39.709a.791.791,0,0,0-.791.791v2.373H36.545a.791.791,0,0,0-.791.791v2.373H33.381a.791.791,0,0,0-.791.791v2.373H31.008V7.119ZM40.5,18.193v-7.91h1.582v7.91Zm-3.164,0V13.447h1.582v4.746Zm-3.164,0V16.611h1.582v1.582Zm-3.164,1.582H49.254v1.582H31.008Zm6.75,3.164H42.5v1.582H37.758Zm-22.57-9.229V7.91a3.955,3.955,0,0,1,7.91,0v5.8a1.32,1.32,0,0,1-1.318,1.318H16.506A1.32,1.32,0,0,1,15.188,13.711Zm6.592,2.9A1.32,1.32,0,0,1,23.1,17.93v1.846h-7.91V17.93a1.32,1.32,0,0,1,1.318-1.318ZM12.023,23.73A2.376,2.376,0,0,1,14.4,21.357h9.492a2.376,2.376,0,0,1,2.373,2.373V37.178H12.023Zm6.328,19.986V38.76h1.582v4.957ZM1.582,26.1h8.859v1.582H1.582Zm3.164,3.164h5.7V30.85h-5.7Zm4.113,7.119V32.432h1.582v4.746H9.65A.792.792,0,0,1,8.859,36.387Zm5.8,2.373H16.77v4.957H14.66Zm8.965,4.957H21.516V38.76h2.109Zm5.8-7.33a.792.792,0,0,1-.791.791h-.791V32.432h1.582Zm22.992-8.7h-22.2a.791.791,0,0,0,0,1.582H49.254V30.85H27.844V26.1H52.418Z"/></g></g><g transform="translate(490.001 -258)"><circle cx="48.5" cy="48.5" r="48.5" transform="translate(6372.999 -8975)" fill="#dbe3fb"/><g transform="translate(6394.999 -8947.498)"><path d="M53.2,40.058c-2.62,0-2.62,2.137-5.24,2.137s-2.62-2.137-5.24-2.137-2.62,2.137-5.24,2.137-2.619-2.137-5.239-2.137-2.62,2.137-5.24,2.137-2.619-2.137-5.239-2.137-2.619,2.137-5.239,2.137-2.62-2.137-5.239-2.137-2.62,2.137-5.24,2.137S3.422,40.058.8,40.058V26.493c2.62,0,2.62,2.137,5.239,2.137s2.62-2.137,5.24-2.137,2.619,2.137,5.239,2.137,2.62-2.137,5.239-2.137S24.38,28.629,27,28.629s2.62-2.137,5.24-2.137,2.619,2.137,5.239,2.137,2.62-2.137,5.24-2.137,2.62,2.137,5.24,2.137,2.62-2.137,5.24-2.137" fill="#89e5ff"/><path d="M49.08,37.511a3.639,3.639,0,0,1-1.123.161,3.422,3.422,0,0,1-1.549-.33c-1.232-.6-1.723-1.806-3.691-1.806-2.62,0-2.62,2.136-5.24,2.136s-2.619-2.136-5.239-2.136-2.62,2.136-5.24,2.136-2.619-2.136-5.239-2.136a4.041,4.041,0,0,0-.767.07l-.366-1.378a1.3,1.3,0,0,1-.637-2.4L17.319,21.76a1.3,1.3,0,0,1-.639-2.4L14.026,9.349a.915.915,0,0,1-.47-1.768h0L36.853,1.4,38.9.857,39.108.8l.007.026a.913.913,0,0,1,.456,1.716l2.685,10.121a1.3,1.3,0,0,1,.591,2.229l2.716,10.239a1.315,1.315,0,0,1,.609.324,1.3,1.3,0,0,1-.017,1.905l2.685,10.12h.027l.051,0a.58.58,0,0,1,.065.006.254.254,0,0,1,.039.007.548.548,0,0,1,.06.013Zm0,0" fill="#b3e59f"/><path d="M49.08,37.511a3.639,3.639,0,0,1-1.123.161,3.422,3.422,0,0,1-1.549-.33C45.761,34.9,36.907,1.479,36.853,1.4L38.9.857,39.108.8l.007.026a.913.913,0,0,1,.456,1.716l2.685,10.121a1.3,1.3,0,0,1,.591,2.229l2.716,10.239a1.318,1.318,0,0,1,.609.324,1.3,1.3,0,0,1-.017,1.905l2.685,10.12h.027l.051,0c.021,0,.044,0,.065.007a.254.254,0,0,1,.039.007.548.548,0,0,1,.06.013Zm0,0" fill="#95d6a5"/><path d="M39.45,21.247a8.518,8.518,0,1,1-8.759-6.318,8.6,8.6,0,0,1,8.759,6.318Zm0,0" fill="#ffe07e"/><path d="M39.45,21.247a8.517,8.517,0,0,0-9.364-6.256,8.515,8.515,0,0,1-.024,16.88A8.52,8.52,0,0,0,39.45,21.247Zm0,0" fill="#ffd064"/><path d="M32.653,18.209l-1.009,3.726a1.606,1.606,0,0,0-1.539.409l-2.723-2.737a.2.2,0,0,1,.007-.293A5.666,5.666,0,0,1,32.5,17.959a.2.2,0,0,1,.152.25Zm0,0" fill="#5d5360"/><path d="M30.812,25.011,29.8,28.737a.2.2,0,0,1-.254.141,5.655,5.655,0,0,1-3.733-3.75.2.2,0,0,1,.142-.256l3.731-.99a1.592,1.592,0,0,0,1.123,1.129Zm0,0" fill="#5d5360"/><path d="M36.749,22.228a5.654,5.654,0,0,1-1.383,5.108.2.2,0,0,1-.29,0L32.352,24.6a1.591,1.591,0,0,0,.416-1.538l3.731-.99a.2.2,0,0,1,.25.152Zm0,0" fill="#5d5360"/><path d="M33.449,22.884a2.3,2.3,0,1,1-2.733-1.648,2.32,2.32,0,0,1,2.733,1.648Zm0,0" fill="#fff5d7"/><path d="M32.768,23.065a1.592,1.592,0,1,1-1.947-1.131,1.606,1.606,0,0,1,1.947,1.131Zm0,0" fill="#5d5360"/><path d="M17.026,16.856a2.942,2.942,0,0,1-5.884.017c-.011-2.389,2.295-4.879,2.831-5.426a.155.155,0,0,1,.222,0c.536.546,2.831,3.026,2.831,5.409Zm0,0" fill="#857e87"/><path d="M14.2,11.447a.155.155,0,0,0-.221,0c-.106.108-.281.293-.494.536.861.988,2.338,2.961,2.338,4.873a2.943,2.943,0,0,1-2.34,2.88,3,3,0,0,0,.606.062,2.942,2.942,0,0,0,2.942-2.942c0-2.383-2.3-4.862-2.831-5.409Zm0,0" fill="#6f6571"/><path d="M17.026,30.684a2.942,2.942,0,0,1-5.884.017c-.011-2.389,2.295-4.879,2.831-5.425a.155.155,0,0,1,.222,0c.536.546,2.831,3.025,2.831,5.409Zm0,0" fill="#857e87"/><path d="M14.2,25.275a.154.154,0,0,0-.221,0c-.115.117-.311.323-.547.6.867,1.007,2.284,2.938,2.284,4.811a2.942,2.942,0,0,1-2.287,2.868,2.976,2.976,0,0,0,.66.074,2.942,2.942,0,0,0,2.942-2.942c0-2.383-2.3-4.863-2.832-5.409Zm0,0" fill="#6f6571"/><path d="M51.085,32.7a2.937,2.937,0,0,1,2.113-.887.8.8,0,0,0,0-1.6,4.5,4.5,0,0,0-3.127,1.249,3.005,3.005,0,0,1-1.875.879L47.418,29.4a5.093,5.093,0,0,0,.539.028,4.5,4.5,0,0,0,3.128-1.249,2.936,2.936,0,0,1,2.113-.888.8.8,0,0,0,0-1.6,4.493,4.493,0,0,0-3.127,1.249,2.937,2.937,0,0,1-2.113.888,2.782,2.782,0,0,1-1-.166l-.028-.1a2.105,2.105,0,0,0-.314-2.683,2.116,2.116,0,0,0-.489-.344l-2.5-9.442a2.1,2.1,0,0,0-.8-3.027L40.366,2.817A1.717,1.717,0,0,0,39.25.04.8.8,0,0,0,38.8.026l-.211.055L20.975,4.755a.8.8,0,1,0,.412,1.551L39,1.633l.011,0h.02a.113.113,0,0,1,.11.081.111.111,0,0,1-.054.127.8.8,0,0,0-.394.911l2.685,10.122a.8.8,0,0,0,.6.576.5.5,0,0,1,.227.856.8.8,0,0,0-.233.8L44.68,25.34a.8.8,0,0,0,.6.576.51.51,0,0,1,.237.125.488.488,0,0,1,.138.234.5.5,0,0,1-.147.5.8.8,0,0,0-.234.8L46.8,33.341l.009.033,0,.008.923,3.481a2.994,2.994,0,0,1-1.893-.881,4.538,4.538,0,0,0-6.254,0,2.958,2.958,0,0,1-4.225,0,4.538,4.538,0,0,0-6.254,0,2.957,2.957,0,0,1-4.225,0,4.492,4.492,0,0,0-3.127-1.249c-.094,0-.185,0-.274.007l-.19-.719a.8.8,0,0,0-.742-.6.5.5,0,0,1-.291-.109.49.49,0,0,1-.171-.262.5.5,0,0,1,.217-.552.8.8,0,0,0,.349-.886l-2.67-10.064a.8.8,0,0,0-.743-.6A.5.5,0,0,1,17,20.036a.8.8,0,0,0,.349-.885l-.085-.321a3.721,3.721,0,0,0,.564-1.973c0-2.151-1.549-4.269-2.514-5.378l-.62-2.335a.81.81,0,0,0-.563-.567.919.919,0,0,0-.4-.006c-.143.023-.227-.17-.071-.214l3.569-.947a.8.8,0,0,0-.412-1.551l-3.55.942-.02.005a1.717,1.717,0,0,0,.055,3.332l.18.678a.947.947,0,0,0-.077.07c-.721.735-3.073,3.34-3.061,5.991a3.744,3.744,0,0,0,4.822,3.565,2.121,2.121,0,0,0,.07.557,2.093,2.093,0,0,0,1.332,1.446L17.9,27.48a2.368,2.368,0,0,1-.869.311,13.53,13.53,0,0,0-2.263-3.077.963.963,0,0,0-.683-.287h0a.965.965,0,0,0-.683.287,14.238,14.238,0,0,0-.976,1.112,4.624,4.624,0,0,0-1.143-.135,4.493,4.493,0,0,0-3.127,1.25,2.957,2.957,0,0,1-4.225,0A4.493,4.493,0,0,0,.8,25.69a.8.8,0,0,0,0,1.6,2.936,2.936,0,0,1,2.113.888,4.537,4.537,0,0,0,6.254,0,2.936,2.936,0,0,1,2.113-.888l.129,0a7.284,7.284,0,0,0-1.052,3,4.785,4.785,0,0,0-2.2,1.163,2.958,2.958,0,0,1-4.225,0A4.494,4.494,0,0,0,.8,30.213a.8.8,0,0,0,0,1.6,2.936,2.936,0,0,1,2.113.887,4.539,4.539,0,0,0,6.254,0,3.435,3.435,0,0,1,1.375-.805,3.74,3.74,0,0,0,5.417,2.022,5.173,5.173,0,0,0,.56.031,4.193,4.193,0,0,0,2.024-.477,2.082,2.082,0,0,0,.725,1.1,2.1,2.1,0,0,0,.6.333l.054.206a6.042,6.042,0,0,0-1.292.866,2.957,2.957,0,0,1-4.225,0,4.538,4.538,0,0,0-6.254,0,2.958,2.958,0,0,1-4.225,0A4.493,4.493,0,0,0,.8,34.734a.8.8,0,1,0,0,1.6,2.938,2.938,0,0,1,2.113.888,4.537,4.537,0,0,0,6.253,0,2.958,2.958,0,0,1,4.225,0,4.538,4.538,0,0,0,6.254,0,2.958,2.958,0,0,1,4.225,0,4.538,4.538,0,0,0,6.254,0,2.957,2.957,0,0,1,4.225,0,4.538,4.538,0,0,0,6.254,0,2.958,2.958,0,0,1,4.226,0,4.6,4.6,0,0,0,4.433,1.067l.028-.009a5.146,5.146,0,0,0,1.792-1.058,2.938,2.938,0,0,1,2.113-.888.8.8,0,1,0,0-1.6,4.493,4.493,0,0,0-3.127,1.249,5.742,5.742,0,0,1-.76.555l-.7-2.628A4.65,4.65,0,0,0,51.085,32.7ZM11.945,16.869c-.007-1.418,1.065-3.131,2.139-4.36,1.07,1.225,2.14,2.933,2.14,4.347A2.142,2.142,0,0,1,14.084,19a2.117,2.117,0,0,1-2.139-2.127Zm6.376,12.2.579,2.182c-.091.071-.18.143-.267.214a3.983,3.983,0,0,1-1.119.724,3.725,3.725,0,0,0,.315-1.5,5.258,5.258,0,0,0-.2-1.38,3.942,3.942,0,0,0,.688-.238ZM11.945,30.7a6.443,6.443,0,0,1,1.416-3.451l.014-.019c.228-.315.468-.615.709-.89,1.07,1.225,2.14,2.933,2.14,4.347a2.142,2.142,0,0,1-2.14,2.14A2.117,2.117,0,0,1,11.945,30.7Zm0,0"/><path d="M20.286,20.278a.814.814,0,0,0,.206-.027l2.2-.585a9.308,9.308,0,0,0,2.982,11.259l-2.2.584a.8.8,0,0,0,.412,1.551l3.79-1.006a9.216,9.216,0,0,0,3.522.7,9.35,9.35,0,0,0,7.359-3.587l3.794-1.007a.8.8,0,1,0-.412-1.551l-2.2.584a9.325,9.325,0,0,0,.789-4.156.8.8,0,1,0-1.6.069A7.719,7.719,0,0,1,33.2,30.888a7.655,7.655,0,0,1-5.114-.409l-.013-.006a7.857,7.857,0,0,1-.725-.371,7.715,7.715,0,0,1,1.9-14.129,7.759,7.759,0,0,1,8.567,3.439.8.8,0,1,0,1.37-.835,9.331,9.331,0,0,0-2.424-2.64l2.2-.585a.8.8,0,1,0-.411-1.551l-3.792,1.005,0,0a9.311,9.311,0,0,0-10.871,2.886l-3.8,1.008a.8.8,0,0,0,.206,1.578Zm0,0"/><path d="M25.754,24.1a1,1,0,0,0-.7,1.266,6.456,6.456,0,0,0,4.26,4.281.989.989,0,0,0,.3.045,1,1,0,0,0,.97-.742l.836-3.086a2.4,2.4,0,0,0,.837-.222l2.256,2.267a1.01,1.01,0,0,0,.713.3h.016a1.008,1.008,0,0,0,.717-.318,6.458,6.458,0,0,0,1.579-5.832,1.006,1.006,0,0,0-1.238-.751l-3.09.82a2.415,2.415,0,0,0-.611-.614l.835-3.087a1.005,1.005,0,0,0-.744-1.242,6.469,6.469,0,0,0-5.838,1.549,1.006,1.006,0,0,0-.031,1.448l2.256,2.267a2.407,2.407,0,0,0-.226.835ZM29.2,27.887a4.853,4.853,0,0,1-2.4-2.41l2.45-.65a2.412,2.412,0,0,0,.61.613Zm1.926-5.2a.79.79,0,0,1,.235,1.56A.79.79,0,0,1,31.129,22.689ZM35.176,26.3l-1.788-1.8a2.42,2.42,0,0,0,.227-.836l2.45-.65a4.851,4.851,0,0,1-.889,3.283Zm-3.3-8.3h0v0Zm-1.895.78a4.814,4.814,0,0,1,1.722-.141l-.662,2.447a2.41,2.41,0,0,0-.838.222l-1.787-1.8a4.88,4.88,0,0,1,1.565-.733Zm0,0"/><path d="M53.2,39.255A4.5,4.5,0,0,0,50.071,40.5a2.958,2.958,0,0,1-4.226,0,4.538,4.538,0,0,0-6.254,0,2.958,2.958,0,0,1-4.225,0,4.538,4.538,0,0,0-6.254,0,2.957,2.957,0,0,1-4.225,0,4.538,4.538,0,0,0-6.254,0,2.958,2.958,0,0,1-4.225,0L14.4,40.5a.8.8,0,1,0-1.014,1.243l.009.007a4.537,4.537,0,0,0,6.253,0,2.958,2.958,0,0,1,4.225,0,4.538,4.538,0,0,0,6.254,0,2.958,2.958,0,0,1,4.225,0,4.538,4.538,0,0,0,6.254,0,2.958,2.958,0,0,1,4.226,0,4.538,4.538,0,0,0,6.254,0A2.937,2.937,0,0,1,53.2,40.86a.8.8,0,0,0,0-1.6Zm0,0"/><path d="M10,39.428A5.058,5.058,0,0,0,8.154,40.5a2.958,2.958,0,0,1-4.225,0A4.494,4.494,0,0,0,.8,39.255a.8.8,0,0,0,0,1.6,2.936,2.936,0,0,1,2.113.888,4.538,4.538,0,0,0,6.254,0,3.6,3.6,0,0,1,1.281-.78.8.8,0,0,0-.45-1.54Zm0,0"/></g></g><g transform="translate(230.001 -142)"><circle cx="48.5" cy="48.5" r="48.5" transform="translate(6632.999 -9419)" fill="#dbe3fb"/><g transform="translate(6650.78 -9401.219)"><circle cx="18.858" cy="18.858" r="18.858" transform="translate(4.759 4.641)" fill="#343434"/><path d="M23.617,42.778A19.28,19.28,0,1,1,42.9,23.5,19.3,19.3,0,0,1,23.617,42.778Zm0-37.716A18.436,18.436,0,1,0,42.052,23.5,18.455,18.455,0,0,0,23.617,5.062Z"/><circle cx="15.761" cy="15.761" r="15.761" transform="translate(7.855 7.737)" fill="#5cc1e6"/><path d="M23.617,39.682A16.183,16.183,0,1,1,39.8,23.5,16.2,16.2,0,0,1,23.617,39.682Zm0-31.522A15.339,15.339,0,1,0,38.947,23.5,15.363,15.363,0,0,0,23.617,8.159Z"/><path d="M31.927,32.442a2.185,2.185,0,1,1-2.185-2.185A2.186,2.186,0,0,1,31.927,32.442Z" fill="#e6e6e6"/><path d="M29.742,35.049a2.607,2.607,0,1,1,2.607-2.607A2.609,2.609,0,0,1,29.742,35.049Zm0-4.371a1.763,1.763,0,1,0,1.763,1.763A1.768,1.768,0,0,0,29.742,30.679Z"/><path d="M17.55,22.326a2.185,2.185,0,1,1-2.185-2.185A2.186,2.186,0,0,1,17.55,22.326Z" fill="#e6e6e6"/><path d="M15.365,24.924a2.607,2.607,0,1,1,2.607-2.607A2.609,2.609,0,0,1,15.365,24.924Zm0-4.362a1.763,1.763,0,1,0,1.763,1.763A1.768,1.768,0,0,0,15.365,20.562Z"/><path d="M27.911,19.769a1.451,1.451,0,1,1-1.451-1.451A1.451,1.451,0,0,1,27.911,19.769Z" fill="#e6e6e6"/><path d="M26.46,21.642a1.873,1.873,0,1,1,1.873-1.873,1.88,1.88,0,0,1-1.873,1.873Zm0-2.9a1.029,1.029,0,1,0,1.029,1.029A1.033,1.033,0,0,0,26.46,18.74Z"/><path d="M21.009,13.348A1.451,1.451,0,1,1,19.558,11.9a1.451,1.451,0,0,1,1.451,1.451Z" fill="#e6e6e6"/><path d="M19.558,15.221a1.873,1.873,0,1,1,1.873-1.873A1.88,1.88,0,0,1,19.558,15.221Zm0-2.9a1.029,1.029,0,1,0,1.029,1.029A1.033,1.033,0,0,0,19.558,12.319Z"/><path d="M19.912,32.442a1.4,1.4,0,1,1-1.4-1.4A1.4,1.4,0,0,1,19.912,32.442Z" fill="#e6e6e6"/><path d="M18.5,34.265a1.822,1.822,0,1,1,1.822-1.822A1.826,1.826,0,0,1,18.5,34.265Zm0-2.8a.979.979,0,1,0,.979.979A.969.969,0,0,0,18.5,31.463Z"/><path d="M35.674,22.326a1.4,1.4,0,1,1-1.4-1.4A1.4,1.4,0,0,1,35.674,22.326Z" fill="#e6e6e6"/><path d="M34.273,24.148A1.822,1.822,0,1,1,36.1,22.326,1.826,1.826,0,0,1,34.273,24.148Zm0-2.81a.979.979,0,1,0,.979.979A.979.979,0,0,0,34.273,21.338Z"/><path d="M24.511,37.184a.431.431,0,0,1-.413-.329,4.385,4.385,0,0,1,1.021-3.89.424.424,0,0,1,.624.574,3.573,3.573,0,0,0-.827,3.139.425.425,0,0,1-.321.506Z"/><path d="M32.282,28.1a.406.406,0,0,1-.354-.194.417.417,0,0,1,.135-.582,4.548,4.548,0,0,1,3.223-.607.42.42,0,0,1-.152.827,3.652,3.652,0,0,0-2.616.5.648.648,0,0,1-.236.059Z"/><path d="M24.553,28.325a.427.427,0,0,1-.4-.27,4.9,4.9,0,0,1-.287-2.2.424.424,0,0,1,.844.084,4.067,4.067,0,0,0,.236,1.822.412.412,0,0,1-.245.54.478.478,0,0,1-.152.025Z"/><path d="M20.056,22.072a.427.427,0,0,1-.4-.27,4.9,4.9,0,0,1-.287-2.2.424.424,0,0,1,.844.084,4.067,4.067,0,0,0,.236,1.822.412.412,0,0,1-.245.54.519.519,0,0,1-.152.025Z"/><path d="M30.645,18.8a.366.366,0,0,1-.16-.034.412.412,0,0,1-.228-.548,3.615,3.615,0,0,1,2.177-2.042.419.419,0,0,1,.532.27.413.413,0,0,1-.27.532,2.762,2.762,0,0,0-1.662,1.561.408.408,0,0,1-.388.262Z"/><path d="M23.962,15.221a.366.366,0,0,1-.16-.034.412.412,0,0,1-.228-.548A3.615,3.615,0,0,1,25.751,12.6a.422.422,0,0,1,.262.8,2.762,2.762,0,0,0-1.662,1.561.421.421,0,0,1-.388.262Z"/><path d="M14.015,29.531a.378.378,0,0,1-.169-.034l-.827-.363a.423.423,0,1,1,.337-.776l.827.363a.422.422,0,0,1-.169.81Z"/><path d="M14.015,17.179a.378.378,0,0,1-.169-.034l-.827-.363a.423.423,0,1,1,.337-.776l.827.363a.422.422,0,0,1-.169.81Z"/><path d="M57.8,29.5A12.994,12.994,0,1,1,44.8,16.5,12.994,12.994,0,0,1,57.8,29.5Z" fill="#ffe200"/><path d="M44.8,42.913A13.416,13.416,0,1,1,58.219,29.5,13.433,13.433,0,0,1,44.8,42.913Zm0-25.979A12.572,12.572,0,1,0,57.375,29.506,12.587,12.587,0,0,0,44.8,16.934Z"/><path d="M43.521,27.27A2.56,2.56,0,0,0,42.238,29.5H36.2a8.6,8.6,0,0,1,4.312-7.459Z" fill="#343434"/><path d="M53.426,29.5H47.385A2.57,2.57,0,0,0,46.1,27.27l3.021-5.231A8.644,8.644,0,0,1,53.426,29.5Z" fill="#343434"/><path d="M49.106,36.956a8.587,8.587,0,0,1-8.606,0l3.021-5.231a2.55,2.55,0,0,0,2.565,0Z" fill="#343434"/><path d="M47.368,29.5A2.565,2.565,0,1,1,44.8,26.932,2.564,2.564,0,0,1,47.368,29.5Z" fill="#343434"/><path d="M42.238,29.919H36.2a.418.418,0,0,1-.422-.422A9.054,9.054,0,0,1,40.3,21.676a.422.422,0,0,1,.321-.042.4.4,0,0,1,.253.194l3.021,5.231a.427.427,0,0,1,.042.321.382.382,0,0,1-.2.253,2.137,2.137,0,0,0-1.072,1.856A.42.42,0,0,1,42.238,29.919Zm-5.611-.844H41.85a2.973,2.973,0,0,1,1.114-1.932l-2.607-4.514a8.211,8.211,0,0,0-3.729,6.446Z"/><path d="M53.418,29.919H47.377a.418.418,0,0,1-.422-.422,2.154,2.154,0,0,0-1.072-1.865.416.416,0,0,1-.152-.574l3.021-5.231A.443.443,0,0,1,49,21.634a.392.392,0,0,1,.321.042A9.074,9.074,0,0,1,53.848,29.5.43.43,0,0,1,53.418,29.919Zm-5.653-.844h5.223a8.224,8.224,0,0,0-3.729-6.446l-2.607,4.514a3.014,3.014,0,0,1,1.114,1.932Z"/><path d="M44.8,38.534a9.006,9.006,0,0,1-4.514-1.215.416.416,0,0,1-.152-.574l3.021-5.231a.416.416,0,0,1,.574-.152,2.174,2.174,0,0,0,2.152,0,.416.416,0,0,1,.574.152l3.021,5.231a.416.416,0,0,1-.152.574A9.061,9.061,0,0,1,44.8,38.534ZM41.091,36.8a8.257,8.257,0,0,0,7.442,0l-2.607-4.514a2.99,2.99,0,0,1-2.227,0Z"/><path d="M44.8,32.484A2.987,2.987,0,1,1,47.79,29.5,2.992,2.992,0,0,1,44.8,32.484Zm0-5.13A2.143,2.143,0,1,0,46.946,29.5,2.146,2.146,0,0,0,44.8,27.354Z"/><path d="M43.934,57.8H8.227a3.582,3.582,0,0,1-3.1-5.383L22.984,21.7a3.579,3.579,0,0,1,6.193,0L47.031,52.414A3.58,3.58,0,0,1,43.934,57.8Z" fill="#ff003b"/><path d="M43.934,58.219H8.227A4,4,0,0,1,4.767,52.2L22.621,21.49a4,4,0,0,1,6.919,0L47.393,52.2a4,4,0,0,1-3.459,6.016ZM26.08,20.343a3.142,3.142,0,0,0-2.734,1.569L5.493,52.625a3.161,3.161,0,0,0,2.734,4.75H43.934a3.161,3.161,0,0,0,2.734-4.75L28.814,21.912a3.142,3.142,0,0,0-2.734-1.569Z"/><path d="M8.691,53.949,26.08,24.038,43.47,53.949Z" fill="#e6e6e6"/><path d="M43.47,54.371H8.691a.425.425,0,0,1-.363-.211.419.419,0,0,1,0-.422l17.39-29.911a.425.425,0,0,1,.363-.211.408.408,0,0,1,.363.211l17.39,29.911a.422.422,0,0,1-.363.633ZM9.425,53.527H42.736L26.08,24.874Z"/><path d="M23.6,34.374l1.088,12.007h2.793l1.08-12.007Z" fill="#ff003b"/><path d="M24.688,48.558h2.793v2.793H24.688Z" fill="#ff003b"/><path d="M27.481,46.8H24.688a.429.429,0,0,1-.422-.388l-1.08-12.007a.406.406,0,0,1,.11-.321.427.427,0,0,1,.312-.135h4.961a.42.42,0,0,1,.422.456L27.9,46.415A.429.429,0,0,1,27.481,46.8Zm-2.4-.844h2.017l1-11.163H24.064Z"/><path d="M27.481,51.772H24.688a.418.418,0,0,1-.422-.422V48.558a.418.418,0,0,1,.422-.422h2.793a.418.418,0,0,1,.422.422v2.793A.429.429,0,0,1,27.481,51.772Zm-2.371-.844h1.949V48.98H25.11Z"/></g></g><g transform="translate(314.001 -208)"><circle cx="48.5" cy="48.5" r="48.5" transform="translate(6372.999 -8863)" fill="#dbe3fb"/><g transform="translate(6394.128 -8841.871)"><path d="M40.065,12.194a1.747,1.747,0,0,0-1.742,1.742v-.871a2.609,2.609,0,0,0-2.613-2.613H31.355A1.755,1.755,0,0,1,29.613,8.71l-1.585.261a4.366,4.366,0,0,0-3.641,4.3v.662a1.747,1.747,0,0,0-1.742-1.742h-.714a1.614,1.614,0,0,0-.505.078l-.226-.793a7.409,7.409,0,0,1-.3-2.1,7.642,7.642,0,0,1,7.638-7.638h5.626A7.642,7.642,0,0,1,41.806,9.38a7.409,7.409,0,0,1-.3,2.1l-.226.793a1.614,1.614,0,0,0-.505-.078Z" fill="#656d78"/><path d="M34.839,50.516,31.355,54H29.613a1.747,1.747,0,0,0,1.742-1.742,1.755,1.755,0,0,0-1.742-1.742H27.871l2.613-13.935h1.742Z" fill="#ff826e"/><path d="M33.576,33.889l-1.35,2.691H30.484l-1.35-2.691,2.221-1.664Z" fill="#fc6e51"/><path d="M43.514,32.949l-.836-3.336L48.8,26.207,53.565,38.9A6.913,6.913,0,0,1,54,41.31a5.726,5.726,0,0,1-9.45,4.346l-4.485-3.85V54h-8.71l3.484-3.484L32.226,36.581l1.35-2.691,1.263.949L37.391,30.6Z" fill="#fcd770"/><path d="M29.134,33.889l-1.263.949-2.543-4.25L19.2,32.949l.836-3.336-6.123-3.405L10.016,36.581H18.29a.874.874,0,0,1,.871.871v7.342l3.484-2.987v8.71h5.226l2.613-13.935Z" fill="#fcd770"/><path d="M48.8,26.207l-6.123,3.405-1.742-6.968,5.226-2.613,3.745,3a1.627,1.627,0,0,1-.226,2.691Z" fill="#ffc729"/><path d="M21.774,22.645l-1.742,6.968-6.123-3.405-.88-.488a1.627,1.627,0,0,1-.226-2.691l3.745-3Z" fill="#ffc729"/><path d="M34.839,29.613l2.552.984-2.552,4.242-1.263-.949-2.221-1.664Z" fill="#ffc729"/><path d="M31.355,32.226l-2.221,1.664-1.263.949-2.543-4.25,2.543-.975Z" fill="#ffc729"/><path d="M33.95,26.059l.888,3.554-3.484,2.613-3.484-2.613.888-3.554a5.462,5.462,0,0,0,.854.07H33.1A5.462,5.462,0,0,0,33.95,26.059Z" fill="#f0d0b4"/><path d="M41.284,12.272a1.7,1.7,0,0,1,1.019.819l3.858,6.942-5.226,2.613h-.871A1.747,1.747,0,0,1,38.323,20.9V13.935a1.747,1.747,0,0,1,1.742-1.742h.714A1.614,1.614,0,0,1,41.284,12.272Z" fill="#f0d0b4"/><path d="M38.323,13.935V20.9a5.226,5.226,0,0,1-4.372,5.156,5.462,5.462,0,0,1-.854.07H29.613a5.462,5.462,0,0,1-.854-.07A5.226,5.226,0,0,1,24.387,20.9v-7.63a4.366,4.366,0,0,1,3.641-4.3l1.585-.261a1.755,1.755,0,0,0,1.742,1.742H35.71a2.609,2.609,0,0,1,2.613,2.613Z" fill="#f0d0b4"/><path d="M22.645,12.194a1.747,1.747,0,0,1,1.742,1.742V20.9a1.747,1.747,0,0,1-1.742,1.742h-.871l-5.226-2.613,3.858-6.942a1.7,1.7,0,0,1,1.019-.819,1.614,1.614,0,0,1,.505-.078Z" fill="#f0d0b4"/><path d="M33.1,19.161A1.747,1.747,0,0,1,34.839,20.9,1.755,1.755,0,0,1,33.1,22.645H29.613A1.747,1.747,0,0,1,27.871,20.9a1.755,1.755,0,0,1,1.742-1.742Z" fill="#ff826e"/><path d="M30.841,51.03a1.7,1.7,0,0,1,.514,1.228A1.747,1.747,0,0,1,29.613,54H19.161a1.747,1.747,0,0,1-1.742-1.742V50.516H29.613A1.7,1.7,0,0,1,30.841,51.03Z" fill="#969faa"/><path d="M17.419,52.258A1.747,1.747,0,0,0,19.161,54H3.484a1.747,1.747,0,0,1-1.742-1.742V50.516H17.419Z" fill="#aab2bd"/><path d="M19.161,44.794v5.722H1.742V37.452a.874.874,0,0,1,.871-.871H18.29a.874.874,0,0,1,.871.871Z" fill="#ccd1d9"/><circle cx="1.742" cy="1.742" r="1.742" transform="translate(8.71 41.806)" fill="#69d6f4"/><path d="M10.452,46.161a2.613,2.613,0,1,0-2.613-2.613A2.616,2.616,0,0,0,10.452,46.161Zm0-3.484a.871.871,0,1,1-.871.871A.872.872,0,0,1,10.452,42.677Z"/><path d="M27,20.9a2.616,2.616,0,0,0,2.613,2.613H33.1a2.613,2.613,0,1,0,0-5.226H29.613A2.616,2.616,0,0,0,27,20.9Zm6.968,0a.872.872,0,0,1-.871.871H29.613a.871.871,0,1,1,0-1.742H33.1A.872.872,0,0,1,33.968,20.9Z"/><path d="M27.616,17.164l2.358-2.358-2.358-2.358L26.384,13.68l1.126,1.126-1.126,1.126Z"/><path d="M36.325,15.933,35.2,14.806l1.126-1.126-1.232-1.232-2.358,2.358,2.358,2.358Z"/><path d="M54.378,38.593l-4.5-11.986.216-.12a2.5,2.5,0,0,0,.349-4.14l-3.609-2.887-3.774-6.793a2.573,2.573,0,0,0-.752-.82l.036-.126A8.508,8.508,0,0,0,34.167.871H28.543a8.511,8.511,0,0,0-8.184,10.85l.036.125a2.579,2.579,0,0,0-.751.82l-3.774,6.793-3.609,2.887a2.5,2.5,0,0,0,.348,4.138l.218.121-3.414,9.1h-6.8A1.744,1.744,0,0,0,.871,37.452V52.258a2.616,2.616,0,0,0,2.613,2.613H40.935V43.7l3.052,2.615a6.592,6.592,0,0,0,10.884-5A7.693,7.693,0,0,0,54.378,38.593ZM49.361,23.708a.758.758,0,0,1-.106,1.254L43.247,28.3l-1.3-5.188,4.1-2.051ZM32.193,51.931a2.607,2.607,0,0,0-2.58-2.285H28.92l2.286-12.194h.3l2.4,12.774ZM22.454,23.516h.191a2.585,2.585,0,0,0,1.306-.363A6.124,6.124,0,0,0,27.7,26.69l-.569,2.272-6.686,2.572Zm2.8-10.247A3.472,3.472,0,0,1,28.17,9.833l.769-.128a2.618,2.618,0,0,0,2.416,1.617H35.71a1.744,1.744,0,0,1,1.742,1.742V20.9A4.36,4.36,0,0,1,33.1,25.258H29.613A4.36,4.36,0,0,1,25.258,20.9Zm8.6,15.994-2.5,1.873-2.5-1.873.568-2.273c.064,0,.125.01.189.01H33.1c.064,0,.125-.008.188-.01Zm-5.733,4.3L26.6,31.033l1.131-.435,2.17,1.627Zm-8.089,11.63L21.774,43.7v5.945H20.032Zm2.7-9-.5,1.006a4.39,4.39,0,0,0-.459,1.947v2.261L20.032,42.9V37.452a1.738,1.738,0,0,0-.712-1.4l.614-2.454,5.02-1.931,2.668,4.446,1.2-.9.748,1.5L27.148,49.645H23.516v-10.5a2.618,2.618,0,0,1,.276-1.169l.5-1.006Zm8.951-.482h-.665l-.78-1.561,1.113-.834,1.113.834Zm1.118-3.484,2.17-1.627,1.131.435-1.517,2.529Zm2.768-3.264-.569-2.272a6.117,6.117,0,0,0,3.752-3.537,2.591,2.591,0,0,0,1.307.363h.191l2,8.018Zm9.385-9.3L40.73,21.774h-.665a.872.872,0,0,1-.871-.871V13.935a.872.872,0,0,1,.871-.871h.717a.871.871,0,0,1,.761.448ZM28.542,2.613h5.624a6.769,6.769,0,0,1,6.509,8.629l-.023.081h-.588a2.574,2.574,0,0,0-1.191.3A3.484,3.484,0,0,0,35.71,9.581H31.355a.871.871,0,0,1,0-1.742h.871V6.1h-.871a2.616,2.616,0,0,0-2.5,1.857l-.97.162A5.2,5.2,0,0,0,23.8,11.6a2.573,2.573,0,0,0-1.153-.28h-.588l-.024-.081a6.772,6.772,0,0,1,6.509-8.629Zm-7.375,10.9a.871.871,0,0,1,.761-.448h.717a.872.872,0,0,1,.871.871V20.9a.872.872,0,0,1-.871.871H21.98L17.751,19.66Zm-7.818,10.2,3.309-2.647,4.1,2.051-1.3,5.188-6.009-3.338a.757.757,0,0,1-.105-1.254Zm1.017,3.753,4.659,2.589L17.61,35.71H11.273Zm3.924,9.991V49.645H2.613V37.452ZM2.613,52.258v-.871H16.548v.871a2.584,2.584,0,0,0,.16.871H3.484A.872.872,0,0,1,2.613,52.258Zm16.548.871a.872.872,0,0,1-.871-.871v-.871H29.613a.871.871,0,1,1,0,1.742Zm29.116-6.968a4.854,4.854,0,0,1-3.157-1.169L40.935,41.4v-2.26a4.379,4.379,0,0,0-.46-1.947l-.5-1.006-1.558.78.5,1.006a2.615,2.615,0,0,1,.276,1.168V53.129H33.457l2.322-2.322-2.643-14.1.748-1.5,1.2.9,2.668-4.446,5.02,1.931,1.183,4.733a5.22,5.22,0,0,0,2.733,3.407l1.692.847.78-1.558-1.692-.847a3.477,3.477,0,0,1-1.821-2.271l-1.965-7.86,4.659-2.589,4.4,11.743a5.992,5.992,0,0,1,.381,2.107,4.856,4.856,0,0,1-4.851,4.85Z"/><path d="M2.881,19.1l5.284,4.228,1.089-1.36-3.426-2.74,2.71-1.806L2.225,13.211,1.259,14.66,5.4,17.419Z"/><path d="M13.119,14.242l1.632-.613L12.72,8.215l3.338.834L13.9,1.5l-1.674.477,1.327,4.647-3.63-.908Z"/><path d="M48.846,10.884l1.742,1.742L54.68,7.512,53.32,6.423l-2.876,3.6L48.7,8.277,44.61,13.391l1.36,1.089Z"/></g></g><g transform="translate(54.001 -78)"><circle cx="48.5" cy="48.5" r="48.5" transform="translate(6632.999 -9322)" fill="#dbe3fb"/><g transform="translate(6654.999 -9300)"><path d="M45.721,28.155,33.511,18.1a5.1,5.1,0,0,0-3.241-1.163H23.731A5.1,5.1,0,0,0,20.489,18.1L8.336,28.109a1.758,1.758,0,0,0-.658,1.576,1.691,1.691,0,0,0,2.634,1.169L21.9,22.886l1.46,9.348-7.834,17-2.591,1.151a.637.637,0,0,0-.026,1.152l3.172,1.586A.85.85,0,0,0,17.2,52.78L27,35.633,36.8,52.78a.85.85,0,0,0,1.118.339l3.172-1.586a.637.637,0,0,0-.026-1.152l-2.591-1.151-7.223-17,.85-9.348L43.63,30.813a1.732,1.732,0,0,0,2.425-.414,1.7,1.7,0,0,0-.334-2.244Z" fill="#f4aa73"/><path d="M22.984,20.578a2.56,2.56,0,0,0-2.527.207L7.678,29.571c0,.038-.006.076,0,.114a1.691,1.691,0,0,0,2.634,1.169L21.9,22.886l.85,9.348-7.223,17-2.591,1.151a.637.637,0,0,0-.026,1.152l1.747.873,1.906-.847a2.539,2.539,0,0,0,1.31-1.333l7.224-17A2.575,2.575,0,0,0,25.291,32l-.85-9.348a2.558,2.558,0,0,0-1.456-2.077Z" fill="#e29a6c"/><circle cx="2.549" cy="2.549" r="2.549" transform="translate(24.451 9.289)" fill="#f4aa73"/><path d="M40.6,2.921l-.6,7.316-3.05-1.522-.909,6.4L33.587,4.756l3.05,1.522L36.328.791Z" fill="#ffe077"/><path d="M33.511,18.1a5.1,5.1,0,0,0-3.241-1.163H23.731A5.1,5.1,0,0,0,20.49,18.1l-3.763,3.1,2.909,3.244L21.9,22.886l.85,9.348h8.5l.85-9.348,2.322,1.6,2.8-3.326Z" fill="#8ceea1"/><path d="M27,35.633l8.625,15.093,2.848-1.5-7.223-17H23.568l-8.04,17,2.836,1.517Z" fill="#7ad7ee"/><path d="M15.528,49.229l-2.591,1.151a.637.637,0,0,0-.026,1.152l3.172,1.586A.85.85,0,0,0,17.2,52.78l1.163-2.034h0Z" fill="#887f88"/><path d="M38.473,49.229l2.591,1.151a.637.637,0,0,1,.026,1.152l-3.172,1.586A.85.85,0,0,1,36.8,52.78l-1.163-2.034h0Z" fill="#887f88"/><path d="M13.409,2.921l.6,7.316,3.05-1.522.909,6.4L20.419,4.756l-3.05,1.522L17.678.791Z" fill="#ffe077"/><path d="M22.751,32.234l-7.223,17,2.241,1.2.009-.016a1.547,1.547,0,0,0,.1-.186l7.223-17a2.552,2.552,0,0,0,.192-.995v0Z" fill="#4bc3ef"/><path d="M17.92,22.53l1.716,1.913L21.9,22.886l.85,9.348H25.29a1.517,1.517,0,0,0,0-.221l-.851-9.356a2.55,2.55,0,0,0-3.983-1.87Z" fill="#4ce1a1"/><path d="M46.224,27.545,34.014,17.49a5.9,5.9,0,0,0-3.744-1.343H23.73a5.9,5.9,0,0,0-3.744,1.343L7.776,27.545a2.482,2.482,0,0,0,2.983,3.961l10.476-7.2.709,7.8-.772,1.816a.791.791,0,1,0,1.456.619l.645-1.518h7.451L37.389,48.7l-1.49.909L27.687,35.24a.791.791,0,0,0-1.374,0L18.1,49.613,16.61,48.7l4.7-11.062a.791.791,0,0,0-1.456-.619l-4.934,11.61-3.539,1.573a.791.791,0,0,0-.032,1.43l4.38,2.19a1.64,1.64,0,0,0,2.158-.654L27,37.227l9.112,15.946a1.642,1.642,0,0,0,2.159.654l4.38-2.19a.791.791,0,0,0-.032-1.43l-3.539-1.573L32.055,32.107l.709-7.8L35.9,26.459a.791.791,0,1,0,.9-1.3l-1.207-.83,1.735-2.06,7.895,6.5a.9.9,0,0,1,.3.912.9.9,0,0,1-1.382.523L39.63,27.1a.791.791,0,1,0-.9,1.3l4.506,3.1a2.482,2.482,0,0,0,2.983-3.96ZM16.437,52.411l-2.881-1.44,2.159-.96,1.6.975-.8,1.4a.059.059,0,0,1-.077.023Zm24.006-1.44-2.881,1.44a.059.059,0,0,1-.077-.023l-.8-1.4,1.6-.975ZM9.863,30.2a.9.9,0,0,1-1.382-.523.9.9,0,0,1,.3-.913l7.895-6.5,1.735,2.06Zm24.415-6.777-1.732-1.191a.791.791,0,0,0-1.236.58l-.784,8.628H23.473l-.784-8.628a.791.791,0,0,0-1.236-.58l-1.732,1.191L17.9,21.259l3.094-2.548a4.317,4.317,0,0,1,2.738-.982h6.539a4.318,4.318,0,0,1,2.738.982L36.1,21.259Z"/><path d="M23.66,11.838A3.34,3.34,0,1,0,27,8.5a3.344,3.344,0,0,0-3.34,3.34ZM27,10.08a1.758,1.758,0,1,1-1.758,1.758A1.76,1.76,0,0,1,27,10.08Z"/><path d="M13.2,10.3a.791.791,0,0,0,1.141.643l2.067-1.032.755,5.315a.791.791,0,0,0,.747.679h.036a.791.791,0,0,0,.769-.609L21.162,4.938a.791.791,0,0,0-1.123-.89l-1.83.913L18.442.836A.791.791,0,0,0,17.3.083L13.03,2.214a.791.791,0,0,0-.435.773Zm3.587-8.2-.233,4.126a.791.791,0,0,0,1.143.752l1.538-.768-1.1,4.638L17.819,8.6a.791.791,0,0,0-1.136-.6l-2,1L14.215,3.39Z"/><path d="M35.264,15.3a.791.791,0,0,0,.769.609h.036a.791.791,0,0,0,.747-.679l.755-5.315,2.067,1.032a.791.791,0,0,0,1.141-.643l.6-7.316a.791.791,0,0,0-.435-.773L36.681.083a.791.791,0,0,0-1.143.752l.233,4.126-1.83-.913a.791.791,0,0,0-1.123.89Zm1.019-8.314a.791.791,0,0,0,1.143-.752l-.233-4.126,2.57,1.282L39.3,9.008l-2-1a.791.791,0,0,0-1.136.6l-.32,2.252-1.1-4.638Z"/><path d="M23.7,6.99a.791.791,0,0,0,1.5-.5l-.85-2.549a.791.791,0,0,0-1.5.5Z"/><path d="M29.3,7.49a.79.79,0,0,0,1-.5l.85-2.549a.791.791,0,0,0-1.5-.5L28.8,6.49a.791.791,0,0,0,.5,1Z"/><path d="M38.162,17.231a.79.79,0,0,0,1.028.441l4.249-1.7a.791.791,0,0,0-.587-1.469L38.6,16.2A.791.791,0,0,0,38.162,17.231Z"/><path d="M41.446,18.7a.791.791,0,1,0,0,1.582h.85a.791.791,0,1,0,0-1.582Z"/><path d="M10.56,15.972l4.249,1.7A.791.791,0,0,0,15.4,16.2l-4.249-1.7a.791.791,0,1,0-.587,1.469Z"/><path d="M11.7,18.7a.791.791,0,1,0,0,1.582h.85a.791.791,0,1,0,0-1.582Z"/><path d="M12.928,43.064a.791.791,0,0,0,1.107-.158l2.549-3.4a.791.791,0,1,0-1.266-.949l-2.549,3.4A.791.791,0,0,0,12.928,43.064Z"/><path d="M15.1,35.574a.789.789,0,0,0,.353-.084l1.7-.85a.791.791,0,0,0-.707-1.415l-1.7.85a.791.791,0,0,0,.354,1.5Z"/><path d="M39.964,42.906a.791.791,0,1,0,1.266-.949l-2.549-3.4a.791.791,0,0,0-1.266.949Z"/><path d="M38.9,35.574a.791.791,0,0,0,.354-1.5l-1.7-.85a.791.791,0,1,0-.707,1.415l1.7.85a.788.788,0,0,0,.353.084Z"/></g></g><g transform="translate(422.001 -304)"><circle cx="48.5" cy="48.5" r="48.5" transform="translate(6440.999 -8771)" fill="#dbe3fb"/><g transform="translate(6461.2 -8750.799)"><path d="M11.7,37.8h0a9,9,0,0,0,9-9V17.1a3.6,3.6,0,0,0-3.6-3.6H13.5A10.8,10.8,0,0,0,2.7,24.3v4.5a9,9,0,0,0,9,9Z" fill="#327fb3"/><circle cx="2.7" cy="2.7" r="2.7" transform="translate(20.699 2.7)" fill="#636363"/><path d="M29.249,2.7h0A4.95,4.95,0,0,1,34.2,7.65V18H24.3V7.65A4.95,4.95,0,0,1,29.249,2.7Z" fill="#737373"/><path d="M47.7,39.6l3.6,11.7,3.6.9-8.1,2.7L42.3,45H28.8l-7.2,8.1L7.2,47.7,2.7,49.5l4.5-7.2L18,46.8l2.7-7.2Z" fill="#636363"/><path d="M29.7,8.1h4.5v3.6H29.7a1.8,1.8,0,0,1-1.8-1.8h0A1.8,1.8,0,0,1,29.7,8.1Z" fill="#f5c09a"/><path d="M49.5,18l-2.7,8.1L43,20.4A5.4,5.4,0,0,0,38.509,18H20.7l-7.213.555A4.86,4.86,0,0,0,9,23.4v3.15a2.25,2.25,0,0,0,2.25,2.25h0a2.25,2.25,0,0,0,2.25-2.25V23.4h7.2V39.6H36.9V23.4l4.75,6.786A5.19,5.19,0,0,0,45.9,32.4h0a5.189,5.189,0,0,0,4.86-3.369L54.9,18Z" fill="#a6a6a6"/><path d="M11.7,23.4a2.7,2.7,0,1,0,0,5.4h8.1V23.4Z" fill="#a6a6a6"/><rect width="16.199" height="1.8" transform="translate(20.699 27.899)" fill="#636363"/><rect width="16.199" height="1.8" transform="translate(20.699 31.499)" fill="#636363"/><rect width="16.199" height="1.8" transform="translate(20.699 35.099)" fill="#636363"/><path d="M43,20.4a5.452,5.452,0,0,0-.331-.436L37.8,24.029V18H36v2.7H20.7v1.8H36v1.8H20.7v1.8H36.9V23.4l1.645,2.351,5.157-4.3Z" fill="#636363"/><path d="M46.8,26.1,45.2,23.707l-5.109,4.257,1.034,1.48,4.77-3.975V32.4h0a5.145,5.145,0,0,0,1.8-.335v-6.94l3.893,1.692.63-1.687-4.457-1.938Z" fill="#636363"/><path d="M48.619,20.637l-.6,1.794,5.194.056.673-1.794Z" fill="#636363"/><rect width="1.8" height="5.4" transform="translate(17.999 23.399)" fill="#636363"/><rect width="1.8" height="5.4" transform="translate(12.6 23.399)" fill="#636363"/><path d="M10.62,19.806l2.88,3.773V23.4h2.124l-3.459-4.532A4.816,4.816,0,0,0,10.62,19.806Z" fill="#636363"/><rect width="4.5" height="5.4" transform="translate(19.799 23.399)" fill="#f5c09a"/><path d="M54.9,18H49.5l-.9,2.7h5.287Z" fill="#f5c09a"/><path d="M20.7,23.4H16.2l-2.7-9.9h3.6a3.6,3.6,0,0,1,3.6,3.6Z" fill="#4398d1"/><path d="M16.2,28.8l-.9,3.6h6.3l-.9-3.6Z" fill="#4398d1"/><path d="M55.117,51.325l-3.108-.777-3.45-11.214a.9.9,0,0,0-.86-.635H37.8V26.256L40.913,30.7A6.1,6.1,0,0,0,45.9,33.3a5.815,5.815,0,0,0,1.05-.09A6.083,6.083,0,0,0,51.6,29.352L55.74,18.32A.9.9,0,0,0,54.9,17.1H49.5a.9.9,0,0,0-.854.616l-2.116,6.35L43.751,19.9a6.277,6.277,0,0,0-5.241-2.8H35.1V7.65a5.843,5.843,0,0,0-9.172-4.809A3.6,3.6,0,1,0,23.4,9v8.1H21.6a4.505,4.505,0,0,0-4.5-4.5H13.5A11.713,11.713,0,0,0,1.8,24.3v4.5a9.892,9.892,0,0,0,18,5.677v4.959l-2.315,6.174-9.938-4.14a.9.9,0,0,0-1.11.354l-4.5,7.2a.9.9,0,0,0,1.1,1.313l4.176-1.671,14.073,5.278a.9.9,0,0,0,.99-.246l6.93-7.8H41.719l4.26,9.372a.9.9,0,0,0,1.1.481l8.1-2.7a.9.9,0,0,0-.066-1.726ZM50.147,18.9H53.6l-.675,1.8H49.547Zm-1.2,3.6h3.3l-.86,2.3-2.832-1.135ZM47.7,26.246l.287-.862,2.766,1.106-.836,2.227a4.239,4.239,0,0,1-1.568,2.014,4.336,4.336,0,0,1-.649.364Zm-1.8.126v5.119a4.308,4.308,0,0,1-3.51-1.82l-.563-.81,3.69-3.072ZM43,22.032l1.5,2.25-3.72,3.1-1.55-2.215ZM37.8,18.9h.711a4.478,4.478,0,0,1,3.47,1.643l-3.78,3.15-.4-.577ZM25.2,7.65a4.039,4.039,0,0,1,8.054-.45H29.7a2.7,2.7,0,0,0,0,5.4h3.6v4.5H25.2ZM33.3,9v1.8H29.7a.9.9,0,0,1,0-1.8ZM21.6,5.4a1.79,1.79,0,0,1,3.019-1.311,5.814,5.814,0,0,0-1.2,3.111H23.4A1.8,1.8,0,0,1,21.6,5.4Zm0,13.5H36v1.8H21.6Zm0,16.2V33.3H36v1.8ZM36,36.9v1.8H21.6V36.9ZM22.3,31.5l-.45-1.8H36v1.8Zm2.9-3.6V26.1H36v1.8Zm0-3.6v-.9a.9.9,0,0,0-.9-.9H36v1.8Zm-4.5,0h2.7v3.6H19.8V24.3Zm-3.6-9.9a2.7,2.7,0,0,1,2.7,2.7v5.4H16.887l-2.209-8.1Zm.9,9.9v3.6H14.4V24.3Zm-2.978-1.8h-.172L12.7,19.628a3.938,3.938,0,0,1,.866-.174l.616-.049ZM11.7,36.9a8.109,8.109,0,0,1-8.1-8.1V24.3a9.9,9.9,0,0,1,9.222-9.865l.874,3.2-.27.022A5.777,5.777,0,0,0,8.1,23.4v2.7a3.6,3.6,0,0,0,3.438,3.584h0c.055,0,.106.016.162.016h3.347l-.62,2.482A.9.9,0,0,0,15.3,33.3h3.114A8.082,8.082,0,0,1,11.7,36.9Zm0-14.4a3.556,3.556,0,0,0-1.759.479,3.943,3.943,0,0,1,1.2-2.43L12.6,22.5Zm.9,1.8v3.6h-.9a1.8,1.8,0,1,1,0-3.6Zm3.853,7.2.45-1.8H20l.45,1.8Zm30.83,22.289-4.165-9.163A.9.9,0,0,0,42.3,44.1H28.8a.9.9,0,0,0-.673.3l-6.789,7.637L7.516,46.855a.916.916,0,0,0-.651.007l-1.942.778L7.56,43.423l10.095,4.206a.9.9,0,0,0,1.19-.514L21.323,40.5h25.71l3.4,11.064a.9.9,0,0,0,.642.608l.6.151Z"/></g></g><g transform="translate(187.001 -629)"><circle cx="48.5" cy="48.5" r="48.5" transform="translate(6675.999 -8771)" fill="#dbe3fb"/><g transform="translate(6700.688 -8749)"><path d="M8.649,14.976h6.2c-.734-3.252-4.141-6.014-4.574-4.529-.169.579.246,1.872-.68,2.827a3.449,3.449,0,0,0-.945,1.7Zm0,0" fill="#ffc144" fill-rule="evenodd"/><path d="M10.274,10.447c.433-1.485,3.841,1.278,4.574,4.529h3.267a5.526,5.526,0,0,0-.171-4.219,12.418,12.418,0,0,0-2.571-3.547,5.143,5.143,0,0,1-.551-.672c-1.189-1.738-.773-3.566-1.074-4.6-.709-2.43-4.945.467-7.507,4.6A11.761,11.761,0,0,0,4.272,12.5a7.073,7.073,0,0,0,.45,2.478H8.649a3.453,3.453,0,0,1,.945-1.7c.925-.955.51-2.248.679-2.827Zm0,0" fill="#ff9346" fill-rule="evenodd"/><path d="M15.374,7.211a12.418,12.418,0,0,1,2.571,3.547H22.2v4.219H4.721a7.075,7.075,0,0,1-.45-2.478,11.765,11.765,0,0,1,1.97-5.959H1.108V52.945H17.861a7.136,7.136,0,0,1-.99-3.612c0-.2.009-.4.025-.606H5.326V44.508H18.2a17.562,17.562,0,0,1,3.071-4.219H5.326V36.07H22.2v3.355c1.912-1.614,3.708-2.156,4.147-.649a2.556,2.556,0,0,1,.071.335V6.539h-11.6a5.116,5.116,0,0,0,.551.672ZM5.326,19.195H22.2v4.219H5.326Zm0,8.437H22.2v4.219H5.326Zm0,0" fill="#e8eaf0" fill-rule="evenodd"/><path d="M22.2,10.757H17.944a5.528,5.528,0,0,1,.171,4.219H22.2Zm0,0" fill="#66e0f7" fill-rule="evenodd"/><path d="M5.326,19.195H22.2v4.219H5.326Zm0,0" fill="#66e0f7" fill-rule="evenodd"/><path d="M5.326,27.632H22.2v4.219H5.326Zm0,0" fill="#66e0f7" fill-rule="evenodd"/><path d="M22.2,36.07H5.326v4.219H21.269c.31-.314.623-.6.932-.864V36.07Zm0,0" fill="#66e0f7" fill-rule="evenodd"/><path d="M18.2,44.508H5.326v4.219H16.9a11.382,11.382,0,0,1,1.3-4.219Zm0,0" fill="#66e0f7" fill-rule="evenodd"/><path d="M18.2,44.508a11.384,11.384,0,0,0-1.3,4.219c-.016.2-.025.405-.025.606a7.136,7.136,0,0,0,.99,3.612H20.74a5.265,5.265,0,0,1,1.454-2.282c.925-.955.639-2.041.808-2.62.493-1.689,4.413,1.8,4.7,4.9H30.18a7.146,7.146,0,0,0,.364-.707,5.451,5.451,0,0,0,.376-3.512,10.466,10.466,0,0,0-2.945-4.681c-1.7-1.75-1.369-3.717-1.554-4.934h0a2.625,2.625,0,0,0-.071-.335c-.44-1.507-2.235-.965-4.147.649-.309.261-.622.55-.932.864A17.572,17.572,0,0,0,18.2,44.508Zm0,0" fill="#ff9346" fill-rule="evenodd"/><path d="M23,48.043c-.169.579.117,1.665-.808,2.62a5.273,5.273,0,0,0-1.454,2.282H27.7c-.283-3.1-4.2-6.591-4.7-4.9Zm0,0" fill="#ffc144" fill-rule="evenodd"/><path d="M30.919,48.726a5.451,5.451,0,0,1-.376,3.512,7.059,7.059,0,0,1-.364.707h8.9V48.726Zm0,0" fill="#66e0f7" fill-rule="evenodd"/><path d="M30.919,48.726h8.158v4.219H43.3V24.54a6.978,6.978,0,0,1-1.189.426,3.478,3.478,0,0,1-1.882.557,3.414,3.414,0,0,1-1.148-.2v2.3H30.639V23.414h5.076a7.311,7.311,0,0,1-1.872-2.526,5.8,5.8,0,0,1-.476-1.692H26.42V39.111c.185,1.217-.142,3.185,1.554,4.935a10.462,10.462,0,0,1,2.944,4.681Zm8.158-4.219H30.639V40.289h8.437Zm0-8.437H30.639V31.851h8.437Zm0,0" fill="#b6bccf" fill-rule="evenodd"/><path d="M30.639,40.289h8.437v4.219H30.639Zm0,0" fill="#66e0f7" fill-rule="evenodd"/><path d="M30.639,31.851h8.437V36.07H30.639Zm0,0" fill="#66e0f7" fill-rule="evenodd"/><path d="M30.639,27.632h8.437v-2.3a3.551,3.551,0,0,1-.965-.522,7.256,7.256,0,0,1-2.4-1.393H30.639Zm0,0" fill="#66e0f7" fill-rule="evenodd"/><path d="M36.671,21.942a3.616,3.616,0,0,0,1.44,2.865,3.551,3.551,0,0,0,.965.522,3.409,3.409,0,0,0,1.148.2,3.479,3.479,0,0,0,1.882-.557,3.654,3.654,0,0,0,1.363-1.58c.769-1.723-.363-3.129-1.278-4.073s-.639-2.041-.808-2.62c-.512-1.752-4.712,2.068-4.712,5.249Zm0,0" fill="#ffc144" fill-rule="evenodd"/><path d="M41.384,16.693c.169.579-.117,1.665.808,2.62s2.047,2.351,1.278,4.073a3.652,3.652,0,0,1-1.363,1.58A6.978,6.978,0,0,0,43.3,24.54a7.3,7.3,0,0,0,4.219-6.558c0-6.4-8.448-14.081-9.477-10.556-.34,1.165.236,3.348-1.625,5.269-1.53,1.58-3.363,3.8-3.045,6.5a5.8,5.8,0,0,0,.476,1.693,7.328,7.328,0,0,0,4.269,3.918,3.617,3.617,0,0,1-1.44-2.865c0-3.181,4.2-7,4.712-5.249Zm0,0" fill="#ff9346" fill-rule="evenodd"/><path d="M5.326,24.468H22.2a1.055,1.055,0,0,0,1.055-1.055V19.195A1.055,1.055,0,0,0,22.2,18.14H15.873a1.055,1.055,0,0,0,0,2.109h5.273v2.109H6.381V20.25a1.055,1.055,0,1,0,0-2.109H5.326a1.055,1.055,0,0,0-1.055,1.055v4.219A1.055,1.055,0,0,0,5.326,24.468Zm0,0"/><path d="M5.326,32.906H22.2a1.055,1.055,0,0,0,1.055-1.055V27.632A1.055,1.055,0,0,0,22.2,26.578H5.326a1.055,1.055,0,0,0-1.055,1.055v4.219A1.055,1.055,0,0,0,5.326,32.906Zm1.055-4.219H21.146V30.8H6.381Zm0,0"/><path d="M39.077,30.8H30.639a1.055,1.055,0,0,0-1.055,1.055V36.07a1.055,1.055,0,0,0,1.055,1.055h8.437a1.055,1.055,0,0,0,1.055-1.055V31.851A1.055,1.055,0,0,0,39.077,30.8Zm-1.055,4.219H31.694v-2.11h6.328Zm0,0"/><path d="M48.569,17.982a14.009,14.009,0,0,0-3.253-8.131C43.831,7.939,41.545,5.8,39.581,5.514a2.188,2.188,0,0,0-2.556,1.616,6.453,6.453,0,0,0-.185,1.447,4.664,4.664,0,0,1-1.185,3.384c-.973,1-3.15,3.252-3.359,6.179h-4.82V6.539A1.055,1.055,0,0,0,26.42,5.484h-11a5.907,5.907,0,0,1-.478-2.391,6.471,6.471,0,0,0-.185-1.447A2.188,2.188,0,0,0,12.205.03C10.241.311,7.955,2.455,6.47,4.367q-.428.551-.8,1.116H1.107A1.055,1.055,0,0,0,.053,6.539V52.945A1.055,1.055,0,0,0,1.107,54H43.3a1.055,1.055,0,0,0,1.055-1.055V48.726a1.055,1.055,0,0,0-2.109,0v3.164H40.131V48.726a1.055,1.055,0,0,0-1.055-1.055H31.7a9.364,9.364,0,0,0-1.085-2.111h8.458a1.055,1.055,0,0,0,1.055-1.055V40.289a1.055,1.055,0,0,0-1.055-1.055H30.639a1.055,1.055,0,0,0-1.055,1.055v3.939c-.324-.37-.622-.678-.853-.916a4.663,4.663,0,0,1-1.185-3.384c-.017-.307-.034-.6-.072-.888V20.25H32.5a7.135,7.135,0,0,0,.38,1.067,8.279,8.279,0,0,0,.559,1.042h-2.8a1.055,1.055,0,0,0-1.055,1.055v4.219a1.055,1.055,0,0,0,1.055,1.055h8.437a1.055,1.055,0,0,0,1.055-1.055V26.576l.08,0h.023a4.515,4.515,0,0,0,2.007-.473V39.234a1.055,1.055,0,0,0,2.109,0V25.178a8.391,8.391,0,0,0,4.219-7.2ZM31.694,41.344h6.328v2.109H31.694ZM19.372,11.812h1.775v2.109H19.453a6.415,6.415,0,0,0-.081-2.109ZM11.017,2.829c1-.693,1.545-.742,1.668-.716a.488.488,0,0,1,.051.124,5.261,5.261,0,0,1,.1.972,7.23,7.23,0,0,0,1.1,3.9l.021.032a6.189,6.189,0,0,0,.658.8,11.4,11.4,0,0,1,2.353,3.215l.014.03a4.583,4.583,0,0,1,.334,2.732H15.638c-.882-2.517-3.1-4.889-4.773-4.941a1.566,1.566,0,0,0-1.6,1.17,3.377,3.377,0,0,0-.089,1,1.825,1.825,0,0,1-.336,1.394,5.288,5.288,0,0,0-.958,1.381H5.5A5.959,5.959,0,0,1,5.326,12.5c0-3.734,3.305-8.015,5.691-9.669Zm2.345,11.092h-2.93a3.662,3.662,0,0,0,.85-2.578A7.3,7.3,0,0,1,13.362,13.921ZM2.162,7.593h2.3a11.619,11.619,0,0,0-1.247,4.9,8.111,8.111,0,0,0,.517,2.847,1.067,1.067,0,0,0,.988.686H22.2a1.055,1.055,0,0,0,1.055-1.055V10.757A1.055,1.055,0,0,0,22.2,9.7H18.6a11.89,11.89,0,0,0-1.446-2.109h8.21V36.842a2.757,2.757,0,0,0-.56.023,4.8,4.8,0,0,0-1.549.545V36.07A1.055,1.055,0,0,0,22.2,35.015H5.326A1.055,1.055,0,0,0,4.271,36.07v4.219a1.055,1.055,0,0,0,1.055,1.055H18.962a18.3,18.3,0,0,0-1.392,2.109H5.326a1.055,1.055,0,0,0-1.055,1.055v4.219a1.055,1.055,0,0,0,1.055,1.055h10.5a8.147,8.147,0,0,0,.4,2.109H2.162ZM15.977,47.672h-9.6V45.562h10.2A12.2,12.2,0,0,0,15.977,47.672Zm5.17-8.725q-.156.141-.308.287H6.381V37.125H21.146ZM22.5,51.891c.149-.178.3-.343.449-.494a3.751,3.751,0,0,0,1.023-2.54,7.391,7.391,0,0,1,2.383,3.033Zm15.519-2.109v2.109H31.8a6.418,6.418,0,0,0,.3-2.109Zm-8.441,2.027c-.012.028-.027.054-.04.082h-.97c-.7-2.612-3.157-5.173-4.82-5.334a1.61,1.61,0,0,0-1.761,1.191,3.646,3.646,0,0,0-.112.839,1.846,1.846,0,0,1-.44,1.343A7.361,7.361,0,0,0,20,51.891H18.5a6.063,6.063,0,0,1-.572-2.558c0-3.734,3.3-8.014,5.691-9.669,1-.693,1.545-.743,1.668-.716a.5.5,0,0,1,.051.124,5.271,5.271,0,0,1,.1.972,6.735,6.735,0,0,0,1.776,4.736c1.863,1.922,3.6,4.26,2.364,7.029Zm7.589-38.379a6.735,6.735,0,0,0,1.776-4.736,5.266,5.266,0,0,1,.1-.972A.493.493,0,0,1,39.1,7.6c.123-.026.669.024,1.668.716,2.386,1.654,5.691,5.935,5.691,9.669a6.193,6.193,0,0,1-1.684,4.2,5.62,5.62,0,0,0-1.826-3.606,1.841,1.841,0,0,1-.44-1.343A3.673,3.673,0,0,0,42.4,16.4a1.608,1.608,0,0,0-1.855-1.18c-1.824.26-4.828,3.517-4.92,6.581a6.228,6.228,0,0,1-.815-1.34c-1.236-2.769.5-5.107,2.364-7.029Zm.852,13.149H31.694V24.468h3.642a8.292,8.292,0,0,0,2.27,1.274,4.674,4.674,0,0,0,.416.263Zm2.206-2.109h-.012a2.445,2.445,0,0,1-1.732-.733,2.558,2.558,0,0,1-.758-1.794c0-1.8,1.737-3.8,2.685-4.435a3.751,3.751,0,0,0,1.023,2.54c1.153,1.19,1.463,2.033,1.072,2.91a2.545,2.545,0,0,1-2.279,1.512Zm0,0"/><path d="M43.3,42.925A1.055,1.055,0,1,0,44.35,43.98h0A1.055,1.055,0,0,0,43.3,42.925Zm0,0"/><path d="M11.127,20.25a1.055,1.055,0,1,0,0-2.109h0a1.055,1.055,0,0,0,0,2.109Zm0,0"/></g></g><rect width="141" height="41" rx="20.5" transform="translate(6841 -9458)" fill="#faf9ea"/><g transform="translate(18)"><g transform="translate(36.001 -26)"><circle cx="48.5" cy="48.5" r="48.5" transform="translate(6632.999 -9535)" fill="#dbe3fb"/><g transform="translate(6653.199 -9514.8)"><path d="M18.9,15.3h0a14.8,14.8,0,0,0-2.576,6.3H41.277A14.8,14.8,0,0,0,38.7,15.3h0l.4-1.065a6.045,6.045,0,0,0-4-7.935h0a6.512,6.512,0,0,0-5.825-3.6h-.95A6.512,6.512,0,0,0,22.5,6.3h0a6.045,6.045,0,0,0-4,7.935Z" fill="#f4c36e"/><path d="M39.6,39.6V31.5l-3.838-1.645A5.4,5.4,0,0,1,32.65,26.2l-.25-1v-.9l-7.2.107V25.2l-.25,1a5.4,5.4,0,0,1-3.112,3.654L18,31.5v8.1Z" fill="#ffcfde"/><path d="M39.6,31.5l-3.838-1.645a5.4,5.4,0,0,1-2.455-2.111l-2.2,1.835a3.6,3.6,0,0,1-4.609,0l-2.2-1.835a5.4,5.4,0,0,1-2.455,2.111L18,31.5v8.1H39.6Z" fill="#689cda"/><path d="M10.064,47.128a4.218,4.218,0,0,1,.206-4.139L19.8,27.9l-3.177-4.448a3.6,3.6,0,0,1-.218-3.841L19.8,13.5l.438.438a3.6,3.6,0,0,1,.985,3.252L20.7,19.8l3.981,4.645a3.6,3.6,0,0,1,.609,3.68L17.827,46.783a4.218,4.218,0,0,1-2.583,2.435l-.073.024a4.218,4.218,0,0,1-5.107-2.115Z" fill="#ffc7d3"/><path d="M47.536,47.128a4.218,4.218,0,0,0-.206-4.139L37.8,27.9l3.177-4.448a3.6,3.6,0,0,0,.218-3.841L37.8,13.5l-.438.438a3.6,3.6,0,0,0-.985,3.252L36.9,19.8l-3.981,4.645a3.6,3.6,0,0,0-.609,3.68l7.464,18.659a4.218,4.218,0,0,0,2.583,2.435l.073.024a4.218,4.218,0,0,0,5.107-2.115Z" fill="#ffc7d3"/><path d="M35.29,11.7A5.4,5.4,0,0,1,30.8,9.3L30.6,9l-9,2.7v6.138a9,9,0,0,0,4.975,8.05L28.8,27l2.225-1.112A9,9,0,0,0,36,17.838V11.7Z" fill="#fcd6e0"/><path d="M25.188,13.281h1.8V17.3h-1.8Z" transform="translate(0.743 31.802) rotate(-63.435)" fill="#eab0c3"/><path d="M29.473,14.393H33.5v1.8H29.473Z" transform="translate(-3.517 15.704) rotate(-26.565)" fill="#eab0c3"/><path d="M29.3,21.5a2.676,2.676,0,0,1-1.03-3.879l.684-1.026,1.5,1-.684,1.026a.877.877,0,0,0,.337,1.27Z" fill="#eab0c3"/><path d="M29.964,24.036a1.648,1.648,0,0,0-2.327,0l-1.273-1.273a3.45,3.45,0,0,1,4.873,0Z" fill="#eab0c3"/><rect width="30.6" height="21.6" rx="1.8" transform="translate(13.5 33.3)" fill="#dfdfdf"/><circle cx="3.6" cy="3.6" r="3.6" transform="translate(25.2 40.5)" fill="#f4f4f4"/><rect width="9" height="14.4" rx="1.8" transform="translate(2.7 17.1)" fill="#5791d6"/><path d="M6.3,27H8.1v1.8H6.3Z" fill="#abcdef"/><path d="M2.7,7.2V9a1.8,1.8,0,0,0,1.8,1.8H6.3l4.5,2.7V2.7L6.3,5.4H4.5A1.8,1.8,0,0,0,2.7,7.2Z" fill="#31c292"/><path d="M6.3,10.8V5.4H4.5A1.8,1.8,0,0,0,2.7,7.2V9a1.8,1.8,0,0,0,1.8,1.8Z" fill="#00b378"/><path d="M14.175,11.077,12.825,9.886a2.7,2.7,0,0,0,0-3.571l1.349-1.191a4.5,4.5,0,0,1,0,5.954Z" fill="#7fddbb"/><path d="M51.3,24.013V22.5a1.8,1.8,0,0,0-3.6,0v1.513a1.8,1.8,0,0,0,1.091,1.654l.709.3.709-.3A1.8,1.8,0,0,0,51.3,24.013Z" fill="#5791d6"/><path d="M54.323,29.842a3.6,3.6,0,0,0-2.133-2.717L49.5,25.971l-2.691,1.153a3.6,3.6,0,0,0-2.133,2.717L44.1,33.3H54.9Z" fill="#5791d6"/><path d="M44.728,3.277l1.18,1.18a1.8,1.8,0,0,1,.337,2.078l-1.22,2.44,3.6,3.6,2.44-1.22a1.8,1.8,0,0,1,2.078.337l1.18,1.18a1.8,1.8,0,0,1-.227,2.738l-.849.606a5.4,5.4,0,0,1-6.957-.576L41.96,11.309a5.4,5.4,0,0,1-.576-6.957L41.99,3.5a1.8,1.8,0,0,1,2.738-.227Z" fill="#31c292"/><path d="M52.225,8.974h-1.8a1.8,1.8,0,0,0-1.8-1.8v-1.8a3.6,3.6,0,0,1,3.6,3.6Z" fill="#7fddbb"/><path d="M53.776,7.457a5.38,5.38,0,0,0-3.633-3.633L50.657,2.1A7.174,7.174,0,0,1,55.5,6.943Z" fill="#bdecdc"/><path d="M1.8,54h54v1.8H1.8Z" fill="#bebebe"/><path d="M25.188,13.281h1.8V17.3h-1.8Z" transform="translate(0.743 31.802) rotate(-63.435)" fill="#040440"/><path d="M29.473,14.393H33.5v1.8H29.473Z" transform="translate(-3.517 15.704) rotate(-26.565)" fill="#040440"/><path d="M27.908,19.8A2.678,2.678,0,0,0,29.3,21.5l.805-1.61a.877.877,0,0,1-.337-1.27l.684-1.026-1.5-1-.684,1.026a2.678,2.678,0,0,0-.36,2.172Z" fill="#040440"/><path d="M26.364,22.764l1.273,1.273a1.648,1.648,0,0,1,2.327,0l1.273-1.273a3.45,3.45,0,0,0-4.873,0Z" fill="#040440"/><path d="M28.8,39.6a4.5,4.5,0,1,0,4.5,4.5A4.5,4.5,0,0,0,28.8,39.6Zm0,7.2a2.7,2.7,0,1,1,2.7-2.7,2.7,2.7,0,0,1-2.7,2.7Z" fill="#040440"/><path d="M4.5,32.4H9.9a2.7,2.7,0,0,0,2.7-2.7V18.9a2.7,2.7,0,0,0-2.7-2.7H4.5a2.7,2.7,0,0,0-2.7,2.7V29.7a2.7,2.7,0,0,0,2.7,2.7ZM3.6,18.9a.9.9,0,0,1,.9-.9H9.9a.9.9,0,0,1,.9.9V29.7a.9.9,0,0,1-.9.9H4.5a.9.9,0,0,1-.9-.9Z" fill="#040440"/><path d="M6.3,27H8.1v1.8H6.3Z" fill="#040440"/><path d="M4.5,11.7H6.051l4.286,2.572A.9.9,0,0,0,11.7,13.5V2.7a.9.9,0,0,0-1.363-.772L6.051,4.5H4.5A2.7,2.7,0,0,0,1.8,7.2V9a2.7,2.7,0,0,0,2.7,2.7Zm5.4.21L7.2,10.29V5.91L9.9,4.29ZM3.6,7.2a.9.9,0,0,1,.9-.9h.9V9.9H4.5A.9.9,0,0,1,3.6,9Z" fill="#040440"/><path d="M14.175,11.077a4.5,4.5,0,0,0,0-5.954L12.825,6.314a2.7,2.7,0,0,1,0,3.571Z" fill="#040440"/><path d="M43.789,29.694l1.775.3a2.689,2.689,0,0,1,1.6-2.038l2.336-1,2.336,1a2.688,2.688,0,0,1,1.6,2.038l.576,3.458,1.776-.3-.576-3.458a4.481,4.481,0,0,0-2.666-3.4l-1.059-.454a2.7,2.7,0,0,0,.714-1.83V22.5a2.7,2.7,0,0,0-5.4,0v1.513a2.7,2.7,0,0,0,.714,1.83l-1.059.454a4.481,4.481,0,0,0-2.666,3.4ZM48.6,22.5a.9.9,0,1,1,1.8,0v1.513a.9.9,0,0,1-.545.827l-.355.152-.355-.152a.9.9,0,0,1-.545-.827Z" fill="#040440"/><path d="M50.425,8.974h1.8a3.6,3.6,0,0,0-3.6-3.6v1.8A1.8,1.8,0,0,1,50.425,8.974Z" fill="#040440"/><path d="M53.776,7.457,55.5,6.943A7.174,7.174,0,0,0,50.657,2.1l-.514,1.725a5.38,5.38,0,0,1,3.633,3.633Z" fill="#040440"/><path d="M44.845,54A2.687,2.687,0,0,0,45,53.1V50.2a5.114,5.114,0,0,0,3.091-7.7L45,37.615V35.1a2.7,2.7,0,0,0-2.7-2.7h-.593l-2.823-4.469,2.826-3.956a4.521,4.521,0,0,0,.272-4.8l-2.253-4.055.213-.568a6.965,6.965,0,0,0,.208-4.223,6.334,6.334,0,0,0,1.174,1.617l4.331,4.331a6.28,6.28,0,0,0,8.117.672l.848-.606a2.7,2.7,0,0,0,.34-4.106l-1.18-1.18a2.7,2.7,0,0,0-3.117-.506l-1.859.93L46.121,8.8l.93-1.859a2.7,2.7,0,0,0-.506-3.117l-1.18-1.18a2.7,2.7,0,0,0-4.106.34l-.606.849a6.281,6.281,0,0,0-.985,5.214c-.009-.019-.017-.037-.026-.056a6.966,6.966,0,0,0-3.919-3.433A7.368,7.368,0,0,0,29.275,1.8h-.95a7.368,7.368,0,0,0-6.447,3.753,6.945,6.945,0,0,0-4.22,9l.213.568-2.253,4.055a4.521,4.521,0,0,0,.272,4.8l2.826,3.956L15.894,32.4H15.3a2.7,2.7,0,0,0-2.7,2.7v2.515L9.509,42.508A5.114,5.114,0,0,0,12.6,50.2v2.9a2.687,2.687,0,0,0,.155.9H1.8v1.8h54V54ZM42.117,4.875l.606-.849a.887.887,0,0,1,.658-.374q.039,0,.078,0a.885.885,0,0,1,.633.264l1.18,1.18a.9.9,0,0,1,.169,1.039l-1.22,2.44a.9.9,0,0,0,.169,1.039l3.6,3.6a.9.9,0,0,0,1.039.169l2.44-1.22a.9.9,0,0,1,1.039.169l1.18,1.18a.9.9,0,0,1-.113,1.369l-.848.606a4.486,4.486,0,0,1-5.8-.48L42.6,10.673a4.486,4.486,0,0,1-.48-5.8Zm4.452,38.594A3.313,3.313,0,0,1,45,48.317V40.985ZM40.245,22.928l-3.177,4.448a.9.9,0,0,0-.029,1L39.578,32.4H34.989l-1.844-4.61a2.691,2.691,0,0,1,.137-2.3,9.814,9.814,0,0,0,2.411-2.9l1.89-2.2a.9.9,0,0,0,.2-.762l-.522-2.611a2.7,2.7,0,0,1,.365-1.973l2.782,5.008a2.712,2.712,0,0,1-.163,2.881ZM22.5,17.838V12.37l7.728-2.318A6.285,6.285,0,0,0,35.1,12.6v5.241a8.1,8.1,0,0,1-.9,3.735l-1.959,2.286a4.539,4.539,0,0,0-.312.412,8.209,8.209,0,0,1-1.3.812l-1.822.911-1.822-.911a8.209,8.209,0,0,1-1.3-.812,4.54,4.54,0,0,0-.312-.412L23.4,21.573a8.1,8.1,0,0,1-.9-3.735ZM28.4,27.8a.9.9,0,0,0,.805,0l1.951-.975a4.5,4.5,0,0,0,.222,1.353l-.846.705a2.7,2.7,0,0,1-3.457,0l-.846-.705a4.5,4.5,0,0,0,.222-1.353Zm-2.867,2.142.389.324a4.5,4.5,0,0,0,5.762,0l.389-.324.981,2.453h-8.5ZM19.566,9.8a5.09,5.09,0,0,1,3.181-2.631.9.9,0,0,0,.558-.463,5.582,5.582,0,0,1,5.02-3.1h.95A5.582,5.582,0,0,1,34.3,6.7a.9.9,0,0,0,.558.463,5.148,5.148,0,0,1,3.663,5.791.9.9,0,0,0-1.352-.093l-.264.264V11.7a.9.9,0,0,0-.9-.9h-.71a4.491,4.491,0,0,1-3.744-2l-.2-.3a.9.9,0,0,0-1.008-.363l-9,2.7a.9.9,0,0,0-.641.862v1.427l-.264-.264a.9.9,0,0,0-1.352.093A5.084,5.084,0,0,1,19.566,9.8Zm.995,18.584a.9.9,0,0,0-.029-1l-3.177-4.448a2.712,2.712,0,0,1-.163-2.881l2.782-5.008a2.694,2.694,0,0,1,.365,1.973l-.522,2.611a.9.9,0,0,0,.2.762l1.89,2.2a9.815,9.815,0,0,0,2.411,2.9,2.691,2.691,0,0,1,.137,2.3L22.611,32.4H18.022ZM10.869,46.725a3.337,3.337,0,0,1,.162-3.256L12.6,40.985v7.332a3.337,3.337,0,0,1-1.731-1.592ZM15.3,54a.9.9,0,0,1-.9-.9v-18a.9.9,0,0,1,.9-.9h27a.9.9,0,0,1,.9.9v18a.9.9,0,0,1-.9.9Z" fill="#040440"/></g></g><rect width="141" height="41" rx="20.5" transform="translate(6647 -9458)" fill="#cbc232"/><text transform="translate(6718 -9431)" fill="#12263f" font-size="18" font-family="Roboto-Black, Roboto" font-weight="800"><tspan x="-44.13" y="0">Mecnicos</tspan></text></g><text transform="translate(6912 -9431)" fill="#12263f" font-size="18" font-family="Roboto-Black, Roboto" font-weight="800"><tspan x="-38.421" y="0">Qumicos</tspan></text><g transform="translate(695 -169)"><rect width="119" height="41" rx="20.5" transform="translate(6157 -8953)" fill="#cbc232"/><text transform="translate(6217 -8926)" fill="#12263f" font-size="18" font-family="Roboto-Black, Roboto" font-weight="800"><tspan x="-41.739" y="0">Ambiental</tspan></text></g><g transform="translate(508 -141)"><rect width="141" height="41" rx="20.5" transform="translate(6157 -8833)" fill="#eae7ad"/><text transform="translate(6228 -8806)" fill="#12263f" font-size="18" font-family="Roboto-Black, Roboto" font-weight="800"><tspan x="-56.246" y="0">Psicosociales</tspan></text></g><g transform="translate(21 -28)"><rect width="141" height="41" rx="20.5" transform="translate(6644 -9258)" fill="#cbc232"/><text transform="translate(6716 -9231)" fill="#12263f" font-size="18" font-family="Roboto-Black, Roboto" font-weight="800"><tspan x="-40.399" y="0">Elctricos</tspan></text></g><g transform="translate(195 -139)"><rect width="187" height="41" rx="20.5" transform="translate(6623 -9147)" fill="#faf9ea"/><text transform="translate(6716 -9121)" fill="#12263f" font-size="18" font-family="Roboto-Black, Roboto" font-weight="800"><tspan x="-71.068" y="0">Fisico - Quimicos</tspan></text></g><g transform="translate(451 -72)"><rect width="126" height="41" rx="20.5" transform="translate(6222 -9052)" fill="#eae7ad"/><text transform="translate(6285 -9025)" fill="#12263f" font-size="18" font-family="Roboto-Black, Roboto" font-weight="800"><tspan x="-48.762" y="0">Ergonmico</tspan></text></g><g transform="translate(633 -240)"><rect width="111" height="41" rx="20.5" transform="translate(6223 -8732)" fill="#cbc232"/><text transform="translate(6279 -8705)" fill="#12263f" font-size="18" font-family="Roboto-Black, Roboto" font-weight="800"><tspan x="-35.288" y="0">Publicos</tspan></text></g><g transform="translate(30 -9)"><g transform="translate(534 -528)"><rect width="209" height="42" rx="21" transform="translate(6177 -9101)" fill="#a5b9f6"/><text transform="translate(6281.999 -9073)" fill="#12263f" font-size="18" font-family="Roboto-Black, Roboto" font-weight="800"><tspan x="-79.835" y="0">Factores de riesgos</tspan></text></g><g transform="translate(111 -540)"><circle cx="31.5" cy="31.5" r="31.5" transform="translate(6558 -9101)" fill="#dbe3fb"/><g transform="translate(6572.854 -9086.711)"><path d="M13.807,12.423l8.039,2.68,4.321-1.92a3.974,3.974,0,0,1,1.613-.342h0a1.42,1.42,0,0,1,1.42,1.42h0a1.419,1.419,0,0,1-.74,1.244l-4.5,1.991a5.075,5.075,0,0,1-2.056.436h0a5.077,5.077,0,0,1-1.232-.152l-3.916-.98,2.263,5.091h6.788a2.928,2.928,0,0,1,1.968.761l4.82,4.9,1.478-.985a.869.869,0,0,1,.482-.146h0a.868.868,0,0,1,.868.868h0a2,2,0,0,1-.586,1.414L33.575,29.96a1.417,1.417,0,0,1-1,.416h0a1.419,1.419,0,0,1-.949-.364l-5.252-4.727L21.28,26.416l3.394,2.263L27.5,36.6h1.251a1.012,1.012,0,0,1,1.012,1.012h0a1.012,1.012,0,0,1-.636.94l-1.848.739a1.932,1.932,0,0,1-.717.138h0a1.93,1.93,0,0,1-1.8-1.237l-2.352-6.117L17.05,29.392A12.814,12.814,0,0,1,9.967,17.931h0l-.882.735A10.614,10.614,0,0,0,5.674,23.9h0a6.066,6.066,0,0,0-.233,1.664h0a1.414,1.414,0,0,1-1.414,1.414h0a1.414,1.414,0,0,1-1.414-1.414h0a9.435,9.435,0,0,1,.151-1.682h0A16.28,16.28,0,0,1,7.781,14.8l2.157-1.98Z" transform="translate(-2.047 -4.92)" fill="#fcd2d2"/><path d="M40.353,31.525a.869.869,0,0,0-.482.146l-1.478.986-4.82-4.9A2.928,2.928,0,0,0,31.6,27H24.816l-5.66,4.717A12.8,12.8,0,0,0,22.849,34.5l5.361,2.681L30.562,43.3a1.93,1.93,0,0,0,2.518,1.1l1.848-.739a1.012,1.012,0,0,0-.376-1.952H33.3l-2.828-7.92-3.394-2.263,5.091-1.131,5.252,4.727a1.418,1.418,0,0,0,1.951-.051l1.261-1.261a2,2,0,0,0,.586-1.415A.868.868,0,0,0,40.353,31.525Z" transform="translate(-7.846 -10.03)" fill="#70492a"/><path d="M18.648,16.8l1.773.443.348-3.13-5.07-1.69-3.868.4L9.674,14.8a16.254,16.254,0,0,0-1.661,1.775l2.146,2.86a10.512,10.512,0,0,1,.819-.767l.882-.735a12.809,12.809,0,0,0,3.391,8.676l5.66-4.717Z" transform="translate(-3.94 -4.92)" fill="#2a78e9"/><path d="M22.9,21.89,20.636,16.8l1.773.443.348-3.13-5.07-1.69-3.868.4-.134.123.719,6.177a9.516,9.516,0,0,0,3.883,6.614Z" transform="translate(-5.929 -4.92)" fill="#4b97f3"/><path d="M40.853,31.525a.869.869,0,0,0-.482.146l-1.478.986-4.82-4.9A2.928,2.928,0,0,0,32.1,27H25.317l-4.733,3.944a12.74,12.74,0,0,0,3.331,2.426l5.362,2.681,2.352,6.117a1.93,1.93,0,0,0,2.518,1.1l1.848-.739c.017-.007.029-.019.046-.027a1.012,1.012,0,0,0-.987-.794H33.8l-2.828-7.92-3.394-2.263,5.091-1.131,5.252,4.727a1.418,1.418,0,0,0,1.951-.051l1.261-1.261a2.161,2.161,0,0,0,.586-1.415A.868.868,0,0,0,40.853,31.525Z" transform="translate(-8.346 -10.03)" fill="#845d42"/><path d="M15.106,13.471l.182.908a1.18,1.18,0,0,0,1.157.949h0a1.182,1.182,0,0,0,1.056-.652h0a2.272,2.272,0,0,0,.239-1.015v-.6" transform="translate(-6.426 -5.145)" fill="#f4b3b3"/><path d="M15.329,14.5l.04.2a1.181,1.181,0,0,0,2.213.3,2.272,2.272,0,0,0,.236-1.015v-.016a4.292,4.292,0,0,1-1.388.486,4.522,4.522,0,0,1-1.1.053Z" transform="translate(-6.504 -5.458)" fill="#fcd2d2"/><path d="M10.452,5.853V4.57A2.828,2.828,0,0,1,13.28,1.742h2.828A1.131,1.131,0,0,1,17.24,2.873h0A1.131,1.131,0,0,1,18.371,4V5.853Z" transform="translate(-4.795 -1.176)" fill="#603813"/><path d="M18.982,4A1.131,1.131,0,0,0,17.85,2.873h0a1.131,1.131,0,0,0-1.131-1.131H13.891a2.8,2.8,0,0,0-.912.163,2.814,2.814,0,0,0-.785,1.948,1.283,1.283,0,0,0,1.283,1.283h5.505Z" transform="translate(-5.405 -1.176)" fill="#70492a"/><path d="M11.278,7.839h-.566A1.131,1.131,0,0,0,9.581,8.97h0A1.131,1.131,0,0,0,10.712,10.1H11.5" transform="translate(-4.49 -3.313)" fill="#db7f7f"/><path d="M20.776,7.839h.566A1.131,1.131,0,0,1,22.473,8.97h0A1.131,1.131,0,0,1,21.342,10.1h-.8" transform="translate(-8.331 -3.313)" fill="#db7f7f"/><path d="M17.85,6.357v1.7a2.828,2.828,0,0,1-2.828,2.828h0a2.828,2.828,0,0,1-2.828-2.828v-1.7h2.129a2.047,2.047,0,0,0,1.831-1.131h0Z" transform="translate(-5.405 -2.397)" fill="#f4b3b3"/><path d="M14.323,7.228H12.194V8.359a2.828,2.828,0,0,0,5.657,0V7.228L16.153,6.1A2.047,2.047,0,0,1,14.323,7.228Z" transform="translate(-5.405 -2.703)" fill="#fcd2d2"/><path d="M36.68,51.236a1.93,1.93,0,0,0,2.518,1.1l1.848-.739a1.012,1.012,0,0,0-.376-1.952H39.419l-2.81,1.405Z" transform="translate(-13.963 -17.967)" fill="#999"/><path d="M49.928,33.968a.869.869,0,0,0-.482.146l-1.478.986-1.495,1.992.524.472a1.418,1.418,0,0,0,1.951-.051l1.261-1.261a2.161,2.161,0,0,0,.586-1.415A.868.868,0,0,0,49.928,33.968Z" transform="translate(-17.421 -12.472)" fill="#999"/><path d="M39.54,51.342a1.931,1.931,0,0,0,.716-.138l1.848-.739c.017-.007.029-.019.046-.027a1.012,1.012,0,0,0-.987-.794H39.912l-1.9.948a1.927,1.927,0,0,0,1.524.749Z" transform="translate(-14.457 -17.967)" fill="#b3b3b3"/><path d="M1.742,21.518a1.98,1.98,0,0,0,3.96,0,5.472,5.472,0,0,1,.212-1.509,10,10,0,0,1,3.228-4.958l0,0a13.3,13.3,0,0,0,7.346,10.8l5.165,2.583,2.273,5.912a2.5,2.5,0,0,0,3.255,1.421l1.849-.739a1.578,1.578,0,0,0-.587-3.042H27.6L24.9,24.439a.566.566,0,0,0-.219-.283l-2.292-1.527,3.513-.781,5.035,4.532a2.031,2.031,0,0,0,2.729-.072l1.261-1.261a2.583,2.583,0,0,0,.753-1.812,1.434,1.434,0,0,0-2.229-1.193l-1.09.726L27.85,18.186a3.485,3.485,0,0,0-2.349-.911H19.08l-1.64-3.7,2.792.7a5.648,5.648,0,0,0,3.65-.313l4.544-2.012a1.986,1.986,0,0,0-.951-3.727,4.508,4.508,0,0,0-1.843.391l-4.12,1.832-6.689-2.23a1.686,1.686,0,0,0,1.061-2.945V3.7a1.7,1.7,0,0,0-1.2-1.625,1.7,1.7,0,0,0-1.624-1.2H10.227A3.4,3.4,0,0,0,6.833,4.265V5.272A1.691,1.691,0,0,0,7.964,8.225h.459a3.379,3.379,0,0,0,.384.534L7.093,10.33a16.932,16.932,0,0,0-5.19,9.4,9.976,9.976,0,0,0-.161,1.784Zm26.706,11.6a.446.446,0,0,1,.166.86l-1.848.739a1.4,1.4,0,0,1-1.629-.5l2.193-1.1Zm5.632-10.131a.313.313,0,0,1,.471.252,1.445,1.445,0,0,1-.42,1.015l-1.262,1.262a.874.874,0,0,1-1.172.03l-.14-.126,1.127-1.5ZM25.5,18.407A2.341,2.341,0,0,1,27.066,19l4.478,4.549-.831,1.109-4.269-3.842a.571.571,0,0,0-.5-.132l-5.091,1.131a.566.566,0,0,0-.191,1.023L23.9,25l2.6,7.27-1.8.905-2.057-5.349a.569.569,0,0,0-.275-.3L17,24.838a12.311,12.311,0,0,1-3.12-2.23l5.039-4.2ZM21.77,11.57l4.321-1.923a3.39,3.39,0,0,1,1.384-.291.857.857,0,0,1,.453,1.584l-4.5,1.991a4.521,4.521,0,0,1-2.918.251l-1.666-.417.216-1.943,2.306.769A.569.569,0,0,0,21.77,11.57ZM11.358,8.79A2.263,2.263,0,0,1,9.1,6.528V5.4h1.564a2.6,2.6,0,0,0,1.986-.914l.976.651V6.528A2.263,2.263,0,0,1,11.358,8.79Zm0,1.131a3.377,3.377,0,0,0,1.09-.183,1.7,1.7,0,0,1-.139.408.614.614,0,0,1-1.152-.154l-.016-.082C11.213,9.916,11.285,9.922,11.358,9.922Zm3.394-2.828H14.7a3.394,3.394,0,0,0,.051-.566V5.962a.566.566,0,0,1,0,1.131ZM7.964,4.265A2.263,2.263,0,0,1,10.227,2h2.828a.566.566,0,0,1,.566.566.566.566,0,0,0,.566.566.566.566,0,0,1,.566.566V4.831A.566.566,0,0,0,14.5,4.36L12.8,3.229a.566.566,0,0,0-.82.218,1.471,1.471,0,0,1-1.324.819H8.53a.566.566,0,0,0-.566.566Zm0,2.828a.566.566,0,1,1,0-1.131v.566a3.394,3.394,0,0,0,.051.566Zm-.106,4.073L9.693,9.484c.075.043.153.081.232.118l.123.615a1.746,1.746,0,0,0,3.274.438,2.849,2.849,0,0,0,.3-1.27V9.051l.033-.03,4.3,1.435-.226,2.032L16.586,12.2a.566.566,0,0,0-.654.778l2.089,4.7-4.917,4.1a12.189,12.189,0,0,1-2.877-7.9.566.566,0,0,0-.928-.434l-.882.735c-.135.113-.26.232-.389.35l-1.487-1.98a15.467,15.467,0,0,1,1.317-1.386ZM3.016,19.934a15.79,15.79,0,0,1,2.8-6.467l1.4,1.874A11.126,11.126,0,0,0,4.825,19.7a6.6,6.6,0,0,0-.255,1.822.849.849,0,1,1-1.7,0,8.879,8.879,0,0,1,.142-1.583Z" transform="translate(-1.742 -0.871)"/><rect width="12.445" height="1.131" transform="translate(6.788 32.809)"/><rect width="6.222" height="1.131" transform="translate(11.879 30.547)"/><rect width="6.788" height="1.131" transform="translate(8.485 28.284)"/><rect width="1.131" height="1.131" transform="translate(6.222 28.284)"/><path d="M45.868,47.638l3.394-2.828a.566.566,0,0,0-.453-.993l-3.155.526-2.072-1.552a.566.566,0,0,0-.888.589l.566,2.263,1.1-.274-.179-.717.988.741a.566.566,0,0,0,.433.105l1.336-.222-1.792,1.492Z" transform="translate(-16.091 -15.525)"/></g></g></g><g transform="translate(160 -170)"><circle cx="48.5" cy="48.5" r="48.5" transform="translate(6557.999 -8736)" fill="#dbe3fb"/><g transform="translate(6579.999 -8714)"><path d="M19.161,2.613V6.1H5.226V2.613A1.747,1.747,0,0,1,6.968.871H17.419A1.747,1.747,0,0,1,19.161,2.613Z" fill="#aab2bd"/><path d="M5.226,6.1H19.161V9.581H5.226Z" fill="#ccd1d9"/><path d="M37.095,11.836a4.205,4.205,0,0,1,0,5.94l-.514.514v9.581L20.9,13.065H.871L5.226,9.581H20.9l4-4a4.205,4.205,0,0,1,5.94,0Zm-5.74,6.454,3.484-3.484L27.871,7.839l-3.484,3.484Z" fill="#fcd770"/><path d="M20.9,13.065H.871V47.9a3.483,3.483,0,0,0,3.484,3.484h32.2l.023-23.516Z" fill="#ffeaa7"/><path d="M4.355,16.548H18.29v3.484H4.355Z" fill="#ff826e"/><path d="M27,30.484v20.9a1.747,1.747,0,0,0,1.742,1.742H47.9a1.747,1.747,0,0,0,1.742-1.742v-20.9Z" fill="#ccd1d9"/><path d="M42.677,30.484V46.161A1.755,1.755,0,0,1,40.935,47.9a1.747,1.747,0,0,1-1.742-1.742v-8.71a1.755,1.755,0,0,0-1.742-1.742,1.747,1.747,0,0,0-1.742,1.742v5.226a1.755,1.755,0,0,1-1.742,1.742,1.747,1.747,0,0,1-1.742-1.742V30.484H42.677Z" fill="#4fc1e9"/><path d="M30.484,25.258v5.226H27V47.9H6.1a1.747,1.747,0,0,1-1.742-1.742v-20.9A1.747,1.747,0,0,1,6.1,23.516H28.742A1.747,1.747,0,0,1,30.484,25.258ZM23.96,39.62A7.395,7.395,0,0,0,18.735,27H16.1A7.4,7.4,0,0,0,9.267,37.216a7.527,7.527,0,0,0,1.611,2.4l1.315,1.315v1.742a1.747,1.747,0,0,0,1.742,1.742H20.9a1.747,1.747,0,0,0,1.742-1.742V40.935Z" fill="#f0d0b4"/><path d="M19.161,44.419H13.935a1.747,1.747,0,0,1-1.742-1.742V40.935L10.878,39.62a7.527,7.527,0,0,1-1.611-2.4A7.4,7.4,0,0,1,16.1,27h2.63A7.39,7.39,0,0,1,23.96,39.62l-1.315,1.315v1.742A1.747,1.747,0,0,1,20.9,44.419Z" fill="#e6e9ed"/><circle cx="1.742" cy="1.742" r="1.742" transform="translate(19.161 32.226)" fill="#969faa"/><circle cx="1.742" cy="1.742" r="1.742" transform="translate(12.194 32.226)" fill="#969faa"/><path d="M50.516,31.355V29.613H37.452V18.651l.255-.255a5.076,5.076,0,0,0,0-7.179L31.46,4.971a5.076,5.076,0,0,0-7.179,0L20.543,8.71h-.51v-6.1A2.616,2.616,0,0,0,17.419,0H6.968A2.616,2.616,0,0,0,4.355,2.613V9.162L0,12.646V47.9a4.36,4.36,0,0,0,4.355,4.355H26.289A2.609,2.609,0,0,0,28.742,54H47.9a2.616,2.616,0,0,0,2.613-2.613V45.2A4.362,4.362,0,0,0,54,40.935V31.355ZM37.452,34.839a2.616,2.616,0,0,0-2.613,2.613v5.226a.871.871,0,0,1-1.742,0V31.355h8.71V46.161a.871.871,0,1,1-1.742,0v-8.71A2.616,2.616,0,0,0,37.452,34.839ZM22.645,31.355v.679a2.613,2.613,0,1,0,0,3.867v3.8l-.871.871v2.1a.871.871,0,0,1-.871.871h-.871V40.065H18.29v3.484H16.548V40.065H14.806v3.484h-.871a.871.871,0,0,1-.871-.871v-2.1L11.49,39A6.52,6.52,0,0,1,16.1,27.871h2.638A6.474,6.474,0,0,1,24.5,31.355Zm-.871,2.613A.871.871,0,1,1,20.9,33.1.871.871,0,0,1,21.774,33.968Zm2.613-.871h1.742V43.388a2.609,2.609,0,0,1-1.742-2.453Zm1.742-2.406a8.21,8.21,0,0,0-7.39-4.561H16.1a8.261,8.261,0,0,0-5.842,14.1L11.323,41.3v1.381a2.616,2.616,0,0,0,2.613,2.613H20.9a2.608,2.608,0,0,0,2.5-1.9A4.359,4.359,0,0,0,26.129,45.2v1.831H6.1a.871.871,0,0,1-.871-.871v-20.9a.872.872,0,0,1,.871-.871H28.742a.872.872,0,0,1,.871.871v4.355H26.129ZM21.264,10.452,25.513,6.2a3.335,3.335,0,0,1,4.715,0l6.247,6.247a3.335,3.335,0,0,1,0,4.715l-.766.766V25.85L21.249,12.194H3.354l2.177-1.742H21.264ZM18.29,6.968V8.71H16.548V6.968ZM14.806,8.71H13.065V6.968h1.742Zm-3.484,0H9.581V6.968h1.742Zm-3.484,0H6.1V6.968H7.839ZM6.968,1.742H17.419a.872.872,0,0,1,.871.871V5.226H6.1V2.613A.872.872,0,0,1,6.968,1.742ZM1.742,47.9V13.935H20.557L35.71,28.245v1.367H31.355V25.258a2.616,2.616,0,0,0-2.613-2.613H6.1a2.616,2.616,0,0,0-2.613,2.613v20.9A2.616,2.616,0,0,0,6.1,48.774H26.129v1.741H4.355A2.616,2.616,0,0,1,1.742,47.9Zm47.032,3.484a.871.871,0,0,1-.871.871H28.742a.871.871,0,0,1-.871-.871V31.355h3.484V42.677a2.613,2.613,0,1,0,5.226,0V37.452a.871.871,0,0,1,1.742,0v8.71a2.613,2.613,0,1,0,5.226,0V31.355h5.226Zm3.484-10.452a2.609,2.609,0,0,1-1.742,2.453V33.1h1.742Z"/><path d="M36.07,14.806l-8.2-8.2-4.715,4.715,8.2,8.2Zm-8.2-5.736,5.736,5.736-2.252,2.252-5.736-5.736Z"/><path d="M13.935,31.355a2.613,2.613,0,1,0,2.613,2.613A2.616,2.616,0,0,0,13.935,31.355Zm0,3.484a.871.871,0,1,1,.871-.871A.871.871,0,0,1,13.935,34.839Z"/><path d="M19.161,15.677H3.484V20.9H19.161Zm-1.742,3.484H5.226V17.419H17.419Z"/></g></g><g transform="translate(299 -253)"><rect width="130" height="41" rx="20.5" transform="translate(6504 -8625)" fill="#eae7ad"/><text transform="translate(6569 -8598)" fill="#12263f" font-size="18" font-family="Roboto-Black, Roboto" font-weight="800"><tspan x="-42.851" y="0">Biolgicos</tspan></text></g></g></svg>