<svg xmlns="http://www.w3.org/2000/svg" width="1226" height="798" viewBox="0 0 1226 798"><g transform="translate(-187.833 -482)"><rect width="1226" height="798" rx="31" transform="translate(187.833 482)" fill="#f6f8fe" opacity="0.55"/><g transform="translate(67 -2)"><rect width="249" height="42" rx="5" transform="translate(228.833 818)" fill="#a5b9f6"/><rect width="124" height="42" rx="5" transform="translate(581.833 529)" fill="#cbc232"/><rect width="104" height="42" rx="5" transform="translate(582 581)" fill="#cbc232"/><rect width="130" height="42" rx="5" transform="translate(810 536)" fill="#f6f1e5"/><rect width="113" height="42" rx="5" transform="translate(809.833 722)" fill="#f6f1e5"/><rect width="252" height="42" rx="5" transform="translate(843 849)" fill="#f6f1e5"/><rect width="295" height="42" rx="5" transform="translate(843.833 1065)" fill="#f6f1e5"/><rect width="104" height="42" rx="5" transform="translate(810 581)" fill="#f6f1e5"/><rect width="137" height="42" rx="5" transform="translate(809.833 767)" fill="#f6f1e5"/><rect width="189.5" height="42" rx="5" transform="translate(843 894)" fill="#f6f1e5"/><rect width="137" height="42" rx="5" transform="translate(843.833 1113)" fill="#f6f1e5"/><rect width="189.5" height="42" rx="5" transform="translate(843 939)" fill="#f6f1e5"/><rect width="137" height="42" rx="5" transform="translate(843.833 1158)" fill="#f6f1e5"/><rect width="189.5" height="42" rx="5" transform="translate(843 984)" fill="#f6f1e5"/><rect width="209" height="42" rx="5" transform="translate(843.833 1203)" fill="#f6f1e5"/><rect width="169" height="42" rx="5" transform="translate(810 626)" fill="#f6f1e5"/><text transform="translate(355.833 846)" fill="#12263f" font-size="18" font-family="Roboto-Black, Roboto" font-weight="800"><tspan x="-100.433" y="0">Reconocimiento clientes</tspan></text><text transform="translate(605.833 554)" fill="#12263f" font-size="16" font-family="Roboto-Regular, Roboto"><tspan x="0" y="0">Información</tspan></text><text transform="translate(877 563)" fill="#12263f" font-size="16" font-family="Roboto-Regular, Roboto"><tspan x="-45.641" y="0">Clasificación</tspan></text><text transform="translate(864 608)" fill="#12263f" font-size="16" font-family="Roboto-Regular, Roboto"><tspan x="-33.086" y="0">Tipología</tspan></text><text transform="translate(896 652)" fill="#12263f" font-size="16" font-family="Roboto-Regular, Roboto"><tspan x="-64.688" y="0">Manejo del cliente</tspan></text><text transform="translate(867.833 749)" fill="#12263f" font-size="16" font-family="Roboto-Regular, Roboto"><tspan x="-37.059" y="0">Normativa</tspan></text><text transform="translate(878.833 794)" fill="#12263f" font-size="16" font-family="Roboto-Regular, Roboto"><tspan x="-48.195" y="0">Discapacidad</tspan></text><text transform="translate(966 875)" fill="#12263f" font-size="16" font-family="Roboto-Regular, Roboto"><tspan x="-101.645" y="0">Prestación servicio al cliente</tspan></text><text transform="translate(940 919)" fill="#12263f" font-size="16" font-family="Roboto-Regular, Roboto"><tspan x="-75.598" y="0">Triángulo del servicio</tspan></text><text transform="translate(936 966)" fill="#12263f" font-size="16" font-family="Roboto-Regular, Roboto"><tspan x="-72.063" y="0">Canales de atención</tspan></text><text transform="translate(939 1010)" fill="#12263f" font-size="16" font-family="Roboto-Regular, Roboto"><tspan x="-75.34" y="0">Momentos de verdad</tspan></text><text transform="translate(994.833 1092)" fill="#12263f" font-size="16" font-family="Roboto-Regular, Roboto"><tspan x="-130.355" y="0">Seguridad y salud en el trabajo (SST)</tspan></text><text transform="translate(909.833 1138)" fill="#12263f" font-size="16" font-family="Roboto-Regular, Roboto"><tspan x="-44.652" y="0">Riesgos SST</tspan></text><text transform="translate(913.833 1185)" fill="#12263f" font-size="16" font-family="Roboto-Regular, Roboto"><tspan x="-47.242" y="0">Factores SST</tspan></text><text transform="translate(941.833 1230)" fill="#12263f" font-size="16" font-family="Roboto-Regular, Roboto"><tspan x="-75.363" y="0">Manejo y control SST</tspan></text><text transform="translate(606 608)" fill="#12263f" font-size="16" font-family="Roboto-Regular, Roboto"><tspan x="0" y="0">Cliente</tspan></text><line x2="61.667" y2="0.359" transform="translate(478 838.375)" fill="none" stroke="#12263f" stroke-width="2"/><line x2="43" transform="translate(539.333 550.5)" fill="none" stroke="#12263f" stroke-width="2"/><line x2="43" transform="translate(539.167 602)" fill="none" stroke="#12263f" stroke-width="2"/><line x2="43" transform="translate(767.167 557.5)" fill="none" stroke="#12263f" stroke-width="2"/><line y1="0.5" x2="123.834" transform="translate(686.333 602)" fill="none" stroke="#12263f" stroke-width="2"/><line x2="43" transform="translate(767.167 647)" fill="none" stroke="#12263f" stroke-width="2"/><line x2="43" transform="translate(800.334 1004.5)" fill="none" stroke="#12263f" stroke-width="2"/><line x2="43" transform="translate(800.333 1224.688)" fill="none" stroke="#12263f" stroke-width="2"/><line x2="43" transform="translate(800.334 959.5)" fill="none" stroke="#12263f" stroke-width="2"/><line x2="43" transform="translate(800.333 1179.688)" fill="none" stroke="#12263f" stroke-width="2"/><line x2="43" transform="translate(800.334 913.5)" fill="none" stroke="#12263f" stroke-width="2"/><line x2="43" transform="translate(800.333 1133.688)" fill="none" stroke="#12263f" stroke-width="2"/><line x2="43" transform="translate(800 1090.813)" fill="none" stroke="#12263f" stroke-width="2"/><line x2="43" transform="translate(800 869.5)" fill="none" stroke="#12263f" stroke-width="2"/><line x2="43" transform="translate(767 791.875)" fill="none" stroke="#12263f" stroke-width="2"/><line x2="43" transform="translate(767 743)" fill="none" stroke="#12263f" stroke-width="2"/><line y1="0.5" x2="261.333" transform="translate(539 936.5)" fill="none" stroke="#12263f" stroke-width="2"/><line x2="261.333" y2="0.5" transform="translate(539 1155)" fill="none" stroke="#12263f" stroke-width="2"/><line y1="604.5" transform="translate(539.333 550.5)" fill="none" stroke="#12263f" stroke-width="2"/><line x1="0.333" y1="90.75" transform="translate(767.167 556.75)" fill="none" stroke="#12263f" stroke-width="2"/><line x1="0.499" y1="134.375" transform="translate(800.001 870.625)" fill="none" stroke="#12263f" stroke-width="2"/><line x1="0.499" y1="134.375" transform="translate(800 1090.813)" fill="none" stroke="#12263f" stroke-width="2"/><line y1="48.875" transform="translate(767.333 743.5)" fill="none" stroke="#12263f" stroke-width="2"/><line y1="1" x2="228.333" transform="translate(539 767.5)" fill="none" stroke="#12263f" stroke-width="2"/><rect width="124" height="42" rx="5" transform="translate(581.833 747)" fill="#cbc232"/><text transform="translate(605.833 774)" fill="#12263f" font-size="16" font-family="Roboto-Regular, Roboto"><tspan x="0" y="0">Inclusión</tspan></text><rect width="163" height="42" rx="5" transform="translate(581.833 916)" fill="#cbc232"/><text transform="translate(605.833 943)" fill="#12263f" font-size="16" font-family="Roboto-Regular, Roboto"><tspan x="0" y="0">Servicio al cliente</tspan></text><rect width="173" height="65" rx="5" transform="translate(581.833 1123)" fill="#cbc232"/><text transform="translate(605.833 1150)" fill="#12263f" font-size="16" font-family="Roboto-Regular, Roboto"><tspan x="0" y="0">Seguridad y salud</tspan><tspan x="0" y="24">del trabajo</tspan></text></g></g></svg>