<svg xmlns="http://www.w3.org/2000/svg" width="77.572" height="78.667" viewBox="0 0 77.572 78.667"><g transform="translate(-3.562)"><g transform="translate(27.172 1.152)"><path d="M159.149,25.236h2.416V22.988a3.887,3.887,0,0,1,3.883-3.883h13.914a3.887,3.887,0,0,1,3.882,3.883v2.249h2.416a4.219,4.219,0,0,1,1.92.461V18.5a11,11,0,0,0-11-11h-8.36a11,11,0,0,0-11,11v7.2a4.218,4.218,0,0,1,1.92-.461Z" transform="translate(-157.229 -7.5)" fill="#a44f3e"/></g><g transform="translate(44.239 1.152)"><path d="M273.565,16.883v2.074a4.036,4.036,0,0,1,3.842,4.031v2.1h2.262a4.382,4.382,0,0,1,1.92.44V18.5a11,11,0,0,0-11-11H268.3A10.989,10.989,0,0,1,273.565,16.883Z" transform="translate(-268.304 -7.5)" fill="#883f2e"/></g><g transform="translate(21.186 36.723)"><path d="M280.382,239.013v2.937a4.825,4.825,0,0,1-1.3,3.3H296.7Z" transform="translate(-254.377 -239.013)" fill="#6cf5c2"/><path d="M134.586,239.013l-16.319,6.234h17.615a4.825,4.825,0,0,1-1.3-3.3Z" transform="translate(-118.267 -239.013)" fill="#6cf5c2"/></g><g transform="translate(37.505 35.963)"><path d="M233.05,234.155h-7.457a7.133,7.133,0,0,1-1.115-.088v3.7a4.825,4.825,0,0,0,1.3,3.3h7.094a4.825,4.825,0,0,0,1.3-3.3v-3.7A7.155,7.155,0,0,1,233.05,234.155Z" transform="translate(-224.478 -234.067)" fill="#ffb09e"/></g><g transform="translate(41.056 36.12)"><path d="M252.428,241.921a4.825,4.825,0,0,0,1.3-3.3v-3.541a7.31,7.31,0,0,1-1.115.085h-3.721v3.456a4.82,4.82,0,0,1-1.3,3.3Z" transform="translate(-247.588 -235.084)" fill="#f89580"/></g><g transform="translate(24.692 18.735)"><path d="M147.749,121.935h-2.262a4.4,4.4,0,0,0-4.4,4.4v1.37a4.4,4.4,0,0,0,4.4,4.4h2.262Z" transform="translate(-141.086 -121.935)" fill="#ffb09e"/><g transform="translate(28.488 0)"><path d="M328.924,121.936H326.5v10.171h2.424a4.4,4.4,0,0,0,4.4-4.4v-1.37A4.4,4.4,0,0,0,328.924,121.936Z" transform="translate(-326.5 -121.936)" fill="#f89580"/></g></g><g transform="translate(31.355 12.604)"><path d="M199.172,105.632h-7.457a7.265,7.265,0,0,1-7.265-7.265v-12.3a4.036,4.036,0,0,1,4.036-4.036H202.4a4.036,4.036,0,0,1,4.036,4.036v12.3A7.265,7.265,0,0,1,199.172,105.632Z" transform="translate(-184.45 -82.031)" fill="#ffcebf"/></g><g transform="translate(41.244 12.604)"><path d="M256.876,82.03h-4.832a4.036,4.036,0,0,1,4.036,4.036v12.3a7.265,7.265,0,0,1-7.265,7.265h4.832a7.265,7.265,0,0,0,7.265-7.265v-12.3A4.036,4.036,0,0,0,256.876,82.03Z" transform="translate(-248.815 -82.03)" fill="#ffb09e"/></g><path d="M103.1,305.7a2,2,0,0,1-2.019-1.921,1.954,1.954,0,0,1,1.411-1.91,1.953,1.953,0,0,1,0-3.753,1.953,1.953,0,0,1,0-3.753,1.954,1.954,0,0,1-1.411-1.91,2,2,0,0,1,2.019-1.921h2.6V280.2a1.614,1.614,0,0,0-1.615-1.615H40.631a1.614,1.614,0,0,0-1.615,1.615v10.333h2.6a2,2,0,0,1,2.019,1.921,1.954,1.954,0,0,1-1.411,1.91,1.953,1.953,0,0,1,0,3.753,1.953,1.953,0,0,1,0,3.753,1.954,1.954,0,0,1,1.411,1.91,2,2,0,0,1-2.019,1.921h-2.6v5.982a1.614,1.614,0,0,0,1.615,1.615h63.449a1.615,1.615,0,0,0,1.615-1.615V305.7Z" transform="translate(-30.007 -235.781)" fill="#d8ecfe"/><path d="M428.471,305.7a2,2,0,0,1-2.019-1.921,1.954,1.954,0,0,1,1.411-1.91,1.953,1.953,0,0,1,0-3.753,1.953,1.953,0,0,1,0-3.753,1.954,1.954,0,0,1-1.411-1.91,2,2,0,0,1,2.019-1.921h2.6V280.2a1.614,1.614,0,0,0-1.615-1.615H423.46a1.614,1.614,0,0,1,1.615,1.615v31.482a1.614,1.614,0,0,1-1.615,1.615h5.995a1.615,1.615,0,0,0,1.615-1.615V305.7Z" transform="translate(-355.382 -235.781)" fill="#c4e2ff"/><g transform="translate(4.715 54.75)"><g transform="translate(66.354 0)"><path d="M442.928,362.049a1.954,1.954,0,0,1,1.411-1.876,1.954,1.954,0,0,1-1.411-1.91,2,2,0,0,1,2.019-1.921H448.5a3.338,3.338,0,0,1,3.338,3.338v8.492a3.338,3.338,0,0,1-3.338,3.338h-3.556a2,2,0,0,1-2.019-1.921,1.954,1.954,0,0,1,1.411-1.91,1.953,1.953,0,0,1,0-3.753A1.955,1.955,0,0,1,442.928,362.049Z" transform="translate(-442.928 -356.342)" fill="#ffcebf"/></g><g transform="translate(70.605)"><path d="M471.917,356.341h-1.325a3.73,3.73,0,0,1,1.292,2.826v9.516a3.73,3.73,0,0,1-1.292,2.826h1.325a3.338,3.338,0,0,0,3.338-3.338v-8.492A3.338,3.338,0,0,0,471.917,356.341Z" transform="translate(-470.592 -356.341)" fill="#ffb09e"/></g><g transform="translate(0 0)"><path d="M19.976,362.049a1.954,1.954,0,0,0-1.411-1.876,1.954,1.954,0,0,0,1.411-1.91,2,2,0,0,0-2.019-1.921H14.4a3.338,3.338,0,0,0-3.338,3.338v8.492a3.338,3.338,0,0,0,3.338,3.338h3.556a2,2,0,0,0,2.019-1.921,1.954,1.954,0,0,0-1.411-1.91,1.953,1.953,0,0,0,0-3.753A1.955,1.955,0,0,0,19.976,362.049Z" transform="translate(-11.063 -356.342)" fill="#ffcebf"/></g><g transform="translate(3.812 0)"><path d="M40.975,365.8a1.954,1.954,0,0,0-1.411-1.876,1.953,1.953,0,0,0,0-3.753,1.954,1.954,0,0,0,1.411-1.91,2,2,0,0,0-2.019-1.921H35.875a3.564,3.564,0,0,1,1.709,3.045v9.076a3.565,3.565,0,0,1-1.709,3.046h3.081a2,2,0,0,0,2.019-1.921,1.954,1.954,0,0,0-1.411-1.91A1.954,1.954,0,0,0,40.975,365.8Z" transform="translate(-35.875 -356.342)" fill="#ffb09e"/></g></g><g transform="translate(39.337 48.655)"><path d="M262.558,321.032H237.211a.807.807,0,0,1-.807-.807V317.48a.807.807,0,0,1,.807-.807h25.347a.807.807,0,0,1,.807.807v2.745A.807.807,0,0,1,262.558,321.032Z" transform="translate(-236.404 -316.673)" fill="#60b7ff"/></g><g transform="translate(60.667 48.655)"><path d="M380.05,316.673h-4.825a.807.807,0,0,1,.807.807v2.745a.807.807,0,0,1-.807.807h4.825a.807.807,0,0,0,.807-.807V317.48A.807.807,0,0,0,380.05,316.673Z" transform="translate(-375.225 -316.673)" fill="#26a6fe"/></g><g transform="translate(52.358 57.277)"><path d="M333.474,386.725H322.762a1.614,1.614,0,0,1-1.615-1.615V374.4a1.614,1.614,0,0,1,1.615-1.615h10.712a1.614,1.614,0,0,1,1.615,1.615v10.712A1.614,1.614,0,0,1,333.474,386.725Z" transform="translate(-321.147 -372.784)" fill="#ffe177"/><g transform="translate(7.541 0)"><path d="M375.013,372.785h-4.786a1.614,1.614,0,0,1,1.615,1.615v10.712a1.614,1.614,0,0,1-1.615,1.615h4.786a1.614,1.614,0,0,0,1.615-1.615V374.4A1.614,1.614,0,0,0,375.013,372.785Z" transform="translate(-370.227 -372.785)" fill="#ffd15b"/></g></g><g transform="translate(3.562 0)"><path d="M215.078,118.246v-2.657a1.152,1.152,0,0,0-2.3,0v2.657a1.152,1.152,0,0,0,2.3,0Z" transform="translate(-180.629 -96.853)"/><path d="M285.379,119.4a1.152,1.152,0,0,0,1.152-1.152v-2.657a1.152,1.152,0,0,0-2.3,0v2.657A1.152,1.152,0,0,0,285.379,119.4Z" transform="translate(-241.104 -96.853)"/><path d="M238.269,137.433a1.152,1.152,0,0,0,1.685-1.572l-1.377-1.476,1.424-1.73a1.152,1.152,0,1,0-1.779-1.465l-1.81,2.2a1.618,1.618,0,0,0,.066,2.126Z" transform="translate(-200.326 -110.678)"/><path d="M233.5,187.062a1.152,1.152,0,0,0-1.63-1.63,4.168,4.168,0,0,1-5.9,0,1.152,1.152,0,1,0-1.63,1.63,6.473,6.473,0,0,0,9.159,0Z" transform="translate(-190.13 -156.656)"/><path d="M76.839,53.6V44.418a2.77,2.77,0,0,0-2.767-2.767H63.321L49.8,36.487a8.441,8.441,0,0,0,4.616-6.428H55.6a5.559,5.559,0,0,0,5.553-5.553v-1.37a5.552,5.552,0,0,0-2.48-4.622V12.148A12.162,12.162,0,0,0,46.528,0h-8.36A12.162,12.162,0,0,0,26.02,12.148v6.365a5.551,5.551,0,0,0-2.48,4.622v1.37a5.559,5.559,0,0,0,5.553,5.553h1.186a8.44,8.44,0,0,0,4.616,6.428L21.375,41.651H10.624a2.77,2.77,0,0,0-2.767,2.767V53.6a4.5,4.5,0,0,0-4.3,4.485v1.963a1.152,1.152,0,0,0,2.3,0V58.088A2.188,2.188,0,0,1,8.052,55.9h3.556a.851.851,0,0,1,.867.788.8.8,0,0,1-.579.784,1.152,1.152,0,0,0,0,2.214.8.8,0,0,1,0,1.539,1.152,1.152,0,0,0,0,2.214.8.8,0,0,1,0,1.539,1.152,1.152,0,0,0,0,2.214.8.8,0,0,1,.579.784.851.851,0,0,1-.867.788H8.052A2.188,2.188,0,0,1,5.867,66.58V65.429a1.152,1.152,0,0,0-2.3,0V66.58a4.5,4.5,0,0,0,4.3,4.485V75.9a2.77,2.77,0,0,0,2.767,2.767H74.073A2.77,2.77,0,0,0,76.839,75.9V71.066a4.5,4.5,0,0,0,4.295-4.485V58.088a4.5,4.5,0,0,0-4.3-4.485ZM56.862,41.651H48a5.976,5.976,0,0,0,.343-1.991V38.4Zm1.99-18.516v1.37A3.252,3.252,0,0,1,55.6,27.754h-1.11V19.887H55.6A3.252,3.252,0,0,1,58.852,23.135ZM30.2,27.754h-1.11a3.252,3.252,0,0,1-3.248-3.248v-1.37a3.252,3.252,0,0,1,3.248-3.248H30.2Zm2.3,1.186V16.64a2.887,2.887,0,0,1,2.884-2.884h.35a1.152,1.152,0,0,0,0-2.3h-.35A5.194,5.194,0,0,0,30.2,16.64v.943h-1.11a5.555,5.555,0,0,0-.768.054V12.148A9.855,9.855,0,0,1,38.168,2.3h8.36a9.855,9.855,0,0,1,9.843,9.844v5.489a5.579,5.579,0,0,0-.768-.054h-1.11V16.64a5.194,5.194,0,0,0-5.188-5.189H41.119a1.152,1.152,0,0,0,0,2.3h8.186a2.887,2.887,0,0,1,2.884,2.884v12.3a6.12,6.12,0,0,1-6.113,6.113H38.62A6.12,6.12,0,0,1,32.507,28.94Zm13.532,8.418v2.3a3.69,3.69,0,0,1-.584,1.991H39.241a3.69,3.69,0,0,1-.584-1.991v-2.3ZM36.352,38.4V39.66a5.976,5.976,0,0,0,.343,1.991H27.834ZM74.534,75.9a.463.463,0,0,1-.462.462H10.624a.463.463,0,0,1-.462-.462V71.07h1.446a3.155,3.155,0,0,0,3.172-3.054,3.1,3.1,0,0,0-.634-1.931,3.087,3.087,0,0,0,0-3.751,3.086,3.086,0,0,0,0-3.751,3.1,3.1,0,0,0,.634-1.931A3.155,3.155,0,0,0,11.608,53.6H10.162v-9.18a.463.463,0,0,1,.462-.462H74.072a.463.463,0,0,1,.462.462V53.6H73.089a3.155,3.155,0,0,0-3.172,3.054,3.1,3.1,0,0,0,.634,1.931,3.086,3.086,0,0,0,0,3.751,3.087,3.087,0,0,0,0,3.751,3.1,3.1,0,0,0-.634,1.931,3.155,3.155,0,0,0,3.172,3.054h1.446V75.9Zm4.3-9.32a2.188,2.188,0,0,1-2.185,2.185H73.089a.851.851,0,0,1-.867-.788.8.8,0,0,1,.579-.784,1.152,1.152,0,0,0,0-2.214.8.8,0,0,1,0-1.539,1.152,1.152,0,0,0,0-2.214.8.8,0,0,1,0-1.539,1.152,1.152,0,0,0,0-2.214.8.8,0,0,1-.579-.784.851.851,0,0,1,.867-.788h3.556a2.188,2.188,0,0,1,2.185,2.185Z" transform="translate(-3.562 0)"/><path d="M115.127,326.11h-1.4l-2.1-5.239a2.571,2.571,0,0,0-2.4-1.621h-6.784a.18.18,0,0,1-.18-.18v-3.165l.348.386a1.822,1.822,0,0,0,1.35.6h3.9a1.152,1.152,0,0,0,0-2.3H104.18l-1.915-2.122v-.747a4.112,4.112,0,1,0-2.3,0v2.094a8.125,8.125,0,1,0,8.5,11.512,1.152,1.152,0,0,0-2.083-.985,5.822,5.822,0,1,1-6.418-8.191v2.922a2.488,2.488,0,0,0,2.485,2.485h6.784a.277.277,0,0,1,.258.175l2.393,5.962a1.152,1.152,0,0,0,1.069.723h2.177a1.153,1.153,0,0,0,0-2.305ZM99.305,307.771a1.807,1.807,0,1,1,1.807,1.807A1.809,1.809,0,0,1,99.305,307.771Z" transform="translate(-79.247 -257.004)"/><path d="M256.211,309.173h-4.552a1.152,1.152,0,1,0,0,2.3h4.207v2.054H231.209v-2.054h15.072a1.152,1.152,0,0,0,0-2.3H230.864a1.962,1.962,0,0,0-1.96,1.96v2.745a1.962,1.962,0,0,0,1.96,1.96h25.347a1.962,1.962,0,0,0,1.96-1.96v-2.745a1.962,1.962,0,0,0-1.96-1.96Z" transform="translate(-194.281 -261.67)"/><path d="M327.126,365.285H316.414a2.77,2.77,0,0,0-2.767,2.767v10.712a2.77,2.77,0,0,0,2.767,2.767h10.712a2.77,2.77,0,0,0,2.767-2.767V368.052A2.77,2.77,0,0,0,327.126,365.285Zm.462,13.479a.463.463,0,0,1-.462.462H316.414a.463.463,0,0,1-.462-.462V368.052a.463.463,0,0,1,.462-.462h10.712a.463.463,0,0,1,.462.462Z" transform="translate(-266.004 -309.16)"/><path d="M346.066,391.128a1.152,1.152,0,0,0,1.152-1.152v-1.267a1.152,1.152,0,0,0-2.3,0v1.267A1.152,1.152,0,0,0,346.066,391.128Z" transform="translate(-292.467 -328.01)"/><path d="M374.268,391.128a1.152,1.152,0,0,0,1.152-1.152v-1.267a1.152,1.152,0,0,0-2.3,0v1.267A1.152,1.152,0,0,0,374.268,391.128Z" transform="translate(-316.336 -328.01)"/><path d="M347.486,415.442a1.152,1.152,0,0,0-1.152,1.152,1.66,1.66,0,0,1-3.321,0,1.152,1.152,0,0,0-2.3,0,3.965,3.965,0,0,0,7.93,0A1.152,1.152,0,0,0,347.486,415.442Z" transform="translate(-288.907 -351.611)"/><path d="M240.833,373.009H233.89a1.152,1.152,0,1,0,0,2.3h6.942a1.152,1.152,0,0,0,0-2.3Z" transform="translate(-197.526 -315.698)"/><path d="M240.833,403.481H233.89a1.152,1.152,0,0,0,0,2.3h6.942a1.152,1.152,0,0,0,0-2.3Z" transform="translate(-197.526 -341.488)"/></g></g></svg>