<svg xmlns="http://www.w3.org/2000/svg" width="124" height="124" viewBox="0 0 124 124"><g transform="translate(-397.68 -11006.826)"><circle cx="62" cy="62" r="62" transform="translate(397.68 11006.826)" fill="#fff"/><g transform="translate(422.113 11027.498)"><path d="M230.291,57.648H201.586a5.8,5.8,0,0,1-5.766-5.159l-1.94-17.41a10.091,10.091,0,0,1,8.707-11.119,101.191,101.191,0,0,1,26.7,0A10.091,10.091,0,0,1,238,35.079l-1.94,17.41A5.8,5.8,0,0,1,230.291,57.648Z" transform="translate(-168.384 -19.347)" fill="#365e7d"/><path d="M331.872,23.977a101.364,101.364,0,0,0-15.7-.854,101.708,101.708,0,0,1,11,.854A10.091,10.091,0,0,1,335.879,35.1l-1.94,17.41a5.8,5.8,0,0,1-5.766,5.159h4.7a5.8,5.8,0,0,0,5.766-5.159l1.94-17.41a10.091,10.091,0,0,0-8.707-11.119Z" transform="translate(-270.966 -19.364)" fill="#2b4d66"/><path d="M243.885,295.254l-4.35-2.024H219.091l-4.35,2.024a8.6,8.6,0,0,0-4.971,7.8v22.77a1.47,1.47,0,0,0,1.47,1.47h36.146a1.47,1.47,0,0,0,1.47-1.47v-22.77A8.6,8.6,0,0,0,243.885,295.254Z" transform="translate(-181.758 -245.847)" fill="#b3e59f"/><path d="M371.393,289.418l-4.35-2.024c-3.908-1.881-5.849-1.527-4.989,2.013l4.35,2.024a8.6,8.6,0,0,1,4.971,7.8v21.563a1.461,1.461,0,0,1-.16.665h3.679a1.47,1.47,0,0,0,1.47-1.47v-22.77a8.6,8.6,0,0,0-4.971-7.8Z" transform="translate(-309.267 -240.011)" fill="#95d6a4"/><path d="M304.122,301.466v3.612a4.3,4.3,0,0,0,8.594,0v-3.612C311.351,298.565,305.488,298.359,304.122,301.466Z" transform="translate(-260.864 -250.863)" fill="#ffcbbe"/><path d="M234.752,108.3a.56.56,0,0,0-.522.56v13.612a15.591,15.591,0,1,0,31.182,0v-13.6a.562.562,0,0,0-.547-.561c-8.143-.241-15.441-1.3-20.385-4.622a.558.558,0,0,0-.765.143c-2.067,2.895-5.109,4.218-8.963,4.467Z" transform="translate(-202.266 -86.859)" fill="#ffddce"/><path d="M264.864,108.314c-1.246-.037-2.526-.1-3.75-.179h0c-6.616-.448-12.464-1.638-16.635-4.444a.559.559,0,0,0-.766.144c-2.067,2.894-5.109,4.217-8.963,4.466a.56.56,0,0,0-.522.56V111.9a.56.56,0,0,1,.522-.56c3.852-.249,7.3-.967,9.363-3.858a.566.566,0,0,1,.769-.148c3.691,2.483,8.471,3.364,14.045,3.751a2.347,2.347,0,0,1,2.187,2.339v9.047a15.591,15.591,0,0,1-13.442,15.44,15.576,15.576,0,0,0,17.739-15.44v-13.6a.565.565,0,0,0-.547-.561Z" transform="translate(-202.265 -86.858)" fill="#ffcbbe"/><path d="M88.045,280.642a3.452,3.452,0,0,1-2.791-4.007L90.1,249.563l6.8,1.216-4.842,27.072a3.452,3.452,0,0,1-4.006,2.791Z" transform="translate(-77.317 -209.236)" fill="#e7a52e"/><path d="M116.092,250.78l-6.8-1.216-1.2,6.688a17.532,17.532,0,0,0,6.813,1.129Z" transform="translate(-96.517 -209.237)" fill="#e28424"/><path d="M58.3,70.988A17.425,17.425,0,0,1,44.211,50.767L47.389,33a1.426,1.426,0,0,1,1.655-1.153l31.5,5.634a1.426,1.426,0,0,1,1.153,1.655L78.517,56.9A17.425,17.425,0,0,1,58.3,70.988Z" transform="translate(-42.722 -26.682)" fill="#f9f6f6"/><path d="M132.7,83.758l3.178-17.767a1.426,1.426,0,0,0-1.153-1.655l-2.686-.48-3.345,18.7a17.425,17.425,0,0,1-20.132,14.1,17.436,17.436,0,0,0,24.138-12.9Z" transform="translate(-96.906 -53.538)" fill="#dddaec"/><g transform="translate(8.497 13.235)"><path d="M104.856,183.68a8.245,8.245,0,0,0,9.568-6.665,19.218,19.218,0,0,1-16.233-2.9A8.245,8.245,0,0,0,104.856,183.68Z" transform="translate(-96.598 -159.212)" fill="#365e7d"/><path d="M97.391,86.055c-.314,1.754-3.972,2.568-5.726,2.254A3.227,3.227,0,0,1,92.8,81.957C94.555,82.27,97.7,84.3,97.391,86.055Z" transform="translate(-89.006 -81.906)" fill="#365e7d"/><path d="M182.847,103.074c-.314,1.754,2.836,3.785,4.59,4.1a3.227,3.227,0,0,0,1.136-6.352C186.819,100.507,183.161,101.32,182.847,103.074Z" transform="translate(-167.665 -97.709)" fill="#365e7d"/></g><g transform="translate(0 0)"><path d="M288.568,189.238a1.212,1.212,0,0,0,1.212-1.212v-.578a1.212,1.212,0,1,0-2.424,0v.578A1.212,1.212,0,0,0,288.568,189.238Z" transform="translate(-246.807 -156.142)"/><path d="M360.282,189.238a1.212,1.212,0,0,0,1.212-1.212v-.578a1.212,1.212,0,1,0-2.424,0v.578A1.212,1.212,0,0,0,360.282,189.238Z" transform="translate(-306.933 -156.142)"/><path d="M307.463,241.879a3.965,3.965,0,0,1,4.439,0,1.212,1.212,0,0,0,1.244-2.08,6.409,6.409,0,0,0-6.927,0,1.212,1.212,0,0,0,1.244,2.08Z" transform="translate(-262.127 -200.198)"/><path d="M368.512,422.3a1.212,1.212,0,0,0-1.212-1.212h-7.018a1.212,1.212,0,0,0,0,2.424H367.3A1.212,1.212,0,0,0,368.512,422.3Z" transform="translate(-306.933 -353.043)"/><path d="M92.591,166.824a1.212,1.212,0,0,0-1.878.787,9.457,9.457,0,1,0,18.619,3.33,1.212,1.212,0,0,0-1.489-1.389A17.906,17.906,0,0,1,92.591,166.824Zm13.771,5.505a7.036,7.036,0,0,1-13.341-2.385A20.106,20.106,0,0,0,106.362,172.33Z" transform="translate(-81.816 -139.689)"/><path d="M90.332,76.229a8.959,8.959,0,0,0-3.609-1.752,4.439,4.439,0,0,0-1.563,8.739,6.023,6.023,0,0,0,1.049.084,9.84,9.84,0,0,0,2.944-.476c1.8-.589,2.917-1.6,3.139-2.841S91.818,77.406,90.332,76.229Zm-.426,3.326c-.035.194-.474.626-1.506.964a6.531,6.531,0,0,1-2.813.31,2.015,2.015,0,0,1,.354-4,2.022,2.022,0,0,1,.356.032,6.527,6.527,0,0,1,2.531,1.266C89.679,78.8,89.941,79.361,89.906,79.555Z" transform="translate(-74.217 -62.384)"/><path d="M181.72,102.153a4.439,4.439,0,0,0,.779-8.808,8.966,8.966,0,0,0-3.993.392c-1.8.589-2.917,1.6-3.139,2.841-.477,2.668,3.389,5.115,5.569,5.505A4.456,4.456,0,0,0,181.72,102.153Zm-3.967-5.148c.035-.194.474-.626,1.506-.964a6.531,6.531,0,0,1,2.813-.31,2.015,2.015,0,0,1-.709,3.967,6.529,6.529,0,0,1-2.531-1.266C177.98,97.757,177.718,97.2,177.753,97.005Z" transform="translate(-152.88 -78.191)"/><path d="M104.538,7.208a1.212,1.212,0,0,0-1.83,1.589,8.9,8.9,0,0,1,2.122,6.8l-1.94,17.41a4.613,4.613,0,0,1-2.129,3.376c.011-.255.018-.51.018-.767V22.02a1.766,1.766,0,0,0-1.723-1.772c-9.406-.279-15.68-1.682-19.744-4.416a1.761,1.761,0,0,0-2.428.445A9.083,9.083,0,0,1,75.7,17.632l.888-4.963a2.638,2.638,0,0,0-2.132-3.061L65.944,8.086a8.9,8.9,0,0,1,4.84-2.269,100.467,100.467,0,0,1,26.385,0,8.947,8.947,0,0,1,1.989.5,1.212,1.212,0,1,0,.859-2.267,11.363,11.363,0,0,0-2.529-.639,102.834,102.834,0,0,0-13.447-.891l.435-.592A1.212,1.212,0,1,0,82.522.5L81.477,1.92,79.871.348a1.212,1.212,0,0,0-1.7,1.732l.589.576q-4.16.211-8.3.758a11.328,11.328,0,0,0-7.353,4.165L42.957,3.974A2.642,2.642,0,0,0,39.9,6.106L37.747,18.12a1.212,1.212,0,0,0,2.386.427L42.281,6.533a.215.215,0,0,1,.249-.173l31.5,5.634a.214.214,0,0,1,.173.249L71.024,30.009a16.125,16.125,0,0,1-3.318,7.307,1.208,1.208,0,0,0-.111.137A16.218,16.218,0,0,1,39.1,24.3l.176-.983a1.212,1.212,0,0,0-2.386-.427l-.176.983A18.641,18.641,0,0,0,47.294,44.1l-1.4,7.826-1.288-.338a1.212,1.212,0,0,0-.614,2.345l1.475.387-2.3,12.867a4.664,4.664,0,1,0,9.183,1.642l2.29-12.8,1.2.16A1.2,1.2,0,0,0,56,56.2a1.212,1.212,0,0,0,.159-2.413l-1.092-.146,1.412-7.893A18.646,18.646,0,0,0,67.94,40.633a16.827,16.827,0,0,0,3.708,6.4L68.893,48.31a9.846,9.846,0,0,0-5.672,8.9v22.77A2.685,2.685,0,0,0,65.9,82.659H89.678a1.212,1.212,0,1,0,0-2.424H65.9a.259.259,0,0,1-.258-.259V57.206a7.414,7.414,0,0,1,4.271-6.7l3.652-1.7a16.772,16.772,0,0,0,4.9,2.68v2.728a5.509,5.509,0,0,0,11.018,0V51.493a16.789,16.789,0,0,0,4.893-2.688l3.659,1.7a7.413,7.413,0,0,1,4.271,6.7v22.77a.259.259,0,0,1-.258.259H94.523a1.212,1.212,0,1,0,0,2.424h7.526a2.685,2.685,0,0,0,2.682-2.682V57.206a9.846,9.846,0,0,0-5.672-8.9L96.3,47.027a16.777,16.777,0,0,0,4.092-7.823,7.059,7.059,0,0,0,4.906-5.925l1.94-17.41A11.332,11.332,0,0,0,104.538,7.208ZM49.962,68.4a2.241,2.241,0,1,1-4.411-.789L49.6,44.975a18.9,18.9,0,0,0,4.411.789ZM73.41,30.436l1.681-9.4a11.1,11.1,0,0,0,3.391-2.855c4.4,2.753,10.585,4.142,19.873,4.469V35.619A14.4,14.4,0,0,1,87.969,49.433c-.028.007-.055.015-.082.024a14.384,14.384,0,0,1-18-10.987,18.553,18.553,0,0,0,3.527-8.034ZM87.061,54.217a3.085,3.085,0,0,1-6.17,0V52.134a16.761,16.761,0,0,0,6.17,0Z" transform="translate(-36.421 -0.002)"/></g></g></g></svg>