<svg xmlns="http://www.w3.org/2000/svg" width="124" height="124" viewBox="0 0 124 124"><g transform="translate(-748.68 -11006.826)"><circle cx="62" cy="62" r="62" transform="translate(748.68 11006.826)" fill="#fff"/><g transform="translate(776.088 11027.498)"><path d="M337.5,7.5H316.233a4.08,4.08,0,0,0-4.08,4.08V32.849a4.08,4.08,0,0,0,4.08,4.08h3.816a2.012,2.012,0,0,1,2.012,2.012v3.441a.759.759,0,0,0,1.358.465l4.011-5.168a1.938,1.938,0,0,1,1.531-.75H337.5a4.08,4.08,0,0,0,4.08-4.08V11.58A4.08,4.08,0,0,0,337.5,7.5Z" transform="translate(-263.363 -6.288)" fill="#f7e365"/><path d="M446.155,7.5h-4.408a4.08,4.08,0,0,1,4.08,4.08V32.849a4.08,4.08,0,0,1-4.08,4.08h4.408a4.08,4.08,0,0,0,4.08-4.08V11.58a4.08,4.08,0,0,0-4.08-4.08Z" transform="translate(-372.016 -6.288)" fill="#f3d332"/><path d="M82.741,325.793H39.776l.591-8.115a10.7,10.7,0,0,1,9.021-9.8l3.4-.534a3.55,3.55,0,0,0,3-3.509V291.35H68.56v12.49a3.552,3.552,0,0,0,3,3.509l3.4.534a10.7,10.7,0,0,1,9.019,9.8l.458,6.283a1.708,1.708,0,0,1-1.7,1.832Z" transform="translate(-35 -244.27)" fill="#faa68e"/><path d="M52.859,315.106a1.29,1.29,0,0,1,1.248-.965H59.47a5.26,5.26,0,0,0,5.26-5.26V306.67a.938.938,0,0,1,.938-.938H69.1a3.537,3.537,0,0,1-.543-1.882v-3.716H57.284a.745.745,0,0,1-.61-1.172l2.26-3.229a2.745,2.745,0,0,0-.633-3.785l-.058-.042a2.834,2.834,0,0,0-2.448-.434V303.85a3.551,3.551,0,0,1-3,3.509l-3.4.534a10.683,10.683,0,0,0-5.9,2.993l-3.646,14.026-.065.892h10.3Z" transform="translate(-35 -244.281)" fill="#e09380"/><path d="M82.741,407.668H39.776l.591-8.115a10.7,10.7,0,0,1,9.021-9.8l3.4-.534a3.659,3.659,0,0,0,.7-.182,11.886,11.886,0,0,0,17.286-.037,3.558,3.558,0,0,0,.791.219l3.4.534a10.7,10.7,0,0,1,9.019,9.8l.458,6.283a1.709,1.709,0,0,1-1.7,1.832Z" transform="translate(-35 -326.145)" fill="#acd980"/><path d="M54.108,396.2h5.363a5.262,5.262,0,0,0,4.95-3.479,12.113,12.113,0,0,1-2.308.224,11.716,11.716,0,0,1-8.626-3.709c-2.056.763-6.33.051-10,3.709l-3.646,14.026-.065.891h10.3l2.781-10.7A1.289,1.289,0,0,1,54.108,396.2Z" transform="translate(-35.001 -326.336)" fill="#8cc951"/><path d="M239.265,405.836l-.458-6.283a10.678,10.678,0,0,0-2.8-6.472c-3.67-3.986-8.228-3.314-10.242-4.012l-.023-.009c-.05-.018-.1-.036-.148-.055a11.27,11.27,0,0,1-1.157,1.092l.927.145a10.7,10.7,0,0,1,9.019,9.8l.458,6.283a1.7,1.7,0,0,1-.514,1.347h3.236A1.708,1.708,0,0,0,239.265,405.836Z" transform="translate(-189.821 -326.145)" fill="#8cc951"/><path d="M52.317,40.894H46.9a16.934,16.934,0,0,0-14.723,8.555,9.24,9.24,0,0,0-6.884,9.2l.468,16.183h47.4V61.74A20.846,20.846,0,0,0,52.317,40.894Z" transform="translate(-22.854 -34.286)" fill="#655e67"/><g transform="translate(1.213 19.731)"><path d="M29.7,224.218H21.355a3.63,3.63,0,0,1-3.63-3.63V219.45a3.63,3.63,0,0,1,3.63-3.63H29.7Z" transform="translate(-17.725 -200.677)" fill="#faa68e"/><path d="M258.155,224.218H266.5a3.63,3.63,0,0,0,3.63-3.63V219.45a3.63,3.63,0,0,0-3.63-3.63h-8.349Z" transform="translate(-219.304 -200.677)" fill="#faa68e"/><path d="M97.91,140.063c0,11.965-12.071,18.833-19.123,18.833s-19.123-6.868-19.123-18.833c0-7.643,2.124-13.427,5.562-17.306a1.942,1.942,0,0,1,2.909.01,25.925,25.925,0,0,0,2.514,2.512,6.072,6.072,0,0,0,3.711,1.759,2.954,2.954,0,0,0,2.4-1.236,1.529,1.529,0,0,1,1.917-.494,39.2,39.2,0,0,0,14.294,3.632,4.475,4.475,0,0,1,4.115,3.441A34,34,0,0,1,97.91,140.063Z" transform="translate(-52.887 -122.106)" fill="#faa68e"/></g><path d="M117.836,169.01A4.461,4.461,0,0,0,114.9,165.8a35.457,35.457,0,0,1,.663,7.019c0,12.218-12.326,19.231-19.527,19.231-3.349,0-7.807-1.518-11.618-4.371,4.15,5.082,10.649,7.851,15.124,7.851,7.052,0,19.123-6.868,19.123-18.833a33.984,33.984,0,0,0-.823-7.682Z" transform="translate(-72.423 -139.005)" fill="#e09380"/><path d="M29.6,311.664l3.487-13.413a1.3,1.3,0,0,1,1.259-.973H39.7a5.26,5.26,0,0,0,5.26-5.26v-2.211a.938.938,0,0,1,.938-.938h5.229a2.845,2.845,0,0,0,2.871-2.774,2.8,2.8,0,0,0-2.8-2.823H37.509a.745.745,0,0,1-.61-1.172l2.26-3.229a2.744,2.744,0,0,0-.633-3.785l-.058-.042a2.827,2.827,0,0,0-3.96.625c-1.615,2.239-8.711,12.065-9.413,13.037l-5.59,21.5a1.162,1.162,0,0,0,1.125,1.454H29.6Z" transform="translate(-17.973 -230.141)" fill="#f9b1a0"/><g transform="translate(0)"><path d="M374.057,36.641a5.626,5.626,0,0,0-5.62,5.62,1.212,1.212,0,1,0,2.424,0,3.2,3.2,0,1,1,3.2,3.2h-.769a1.212,1.212,0,0,0-1.212,1.212v4.146a1.212,1.212,0,1,0,2.424,0V47.863a5.62,5.62,0,0,0-.443-11.222Z" transform="translate(-310.552 -30.72)"/><path d="M392.166,143.284a1.212,1.212,0,0,0-1.212,1.212v.355a1.212,1.212,0,1,0,2.424,0V144.5A1.212,1.212,0,0,0,392.166,143.284Z" transform="translate(-329.431 -120.131)"/><path d="M84.358,0H63.089A5.3,5.3,0,0,0,57.8,5.292v9.59A22.049,22.049,0,0,0,39.683,5.4H34.265a18.2,18.2,0,0,0-15.52,8.737,10.4,10.4,0,0,0-7.3,10.267l.306,10.575a4.829,4.829,0,0,0-1.533,3.531v1.138a4.848,4.848,0,0,0,4.843,4.841h3.249A19.4,19.4,0,0,0,21.9,50.178l-5.544,7.677a1.215,1.215,0,0,0-.19.4l-5.59,21.5a2.374,2.374,0,0,0,2.3,2.971H57.961A2.922,2.922,0,0,0,60.874,79.6l-.459-6.282A11.807,11.807,0,0,0,59.16,68.8,1.212,1.212,0,0,0,57,69.9a9.4,9.4,0,0,1,1,3.6l.459,6.281a.5.5,0,0,1-.5.534h-5.59V75.359a1.212,1.212,0,0,0-2.424,0v4.952H23.411l3.092-11.9a.089.089,0,0,1,.086-.066h5.355a6.431,6.431,0,0,0,3.011-.746,13.328,13.328,0,0,0,2.377.214,13,13,0,0,0,9.017-3.586h0c.237.049.057.013,3.647.578A9.413,9.413,0,0,1,53.666,66.2a1.212,1.212,0,1,0,1.312-2.038,11.82,11.82,0,0,0-4.6-1.749,33.978,33.978,0,0,1-3.893-.666,2.324,2.324,0,0,1-1.488-2.143,3.991,3.991,0,0,0,2.256-4.937,21.478,21.478,0,0,0,9.1-10.185h2.281a4.847,4.847,0,0,0,4.841-4.841V38.506a4.835,4.835,0,0,0-1.734-3.71V31.677a5.288,5.288,0,0,0,1.348.175h3.817a.8.8,0,0,1,.8.8v3.442a1.945,1.945,0,0,0,1.333,1.864,2.009,2.009,0,0,0,.65.109,1.943,1.943,0,0,0,1.544-.767l4.01-5.167a.724.724,0,0,1,.575-.282H84.36a5.3,5.3,0,0,0,5.292-5.292V5.292A5.3,5.3,0,0,0,84.358,0ZM12.644,39.643V38.506a2.422,2.422,0,0,1,2.419-2.419h1.967a19.893,19.893,0,0,0,.5,5.974H15.063A2.421,2.421,0,0,1,12.644,39.643Zm24.73,25.749a6.432,6.432,0,0,0,1.042-3.515V59.94h4.169a4.738,4.738,0,0,0,1.465,3.09A10.623,10.623,0,0,1,37.373,65.392Zm6-7.876H38.141a2.152,2.152,0,0,0-2.149,2.149v2.211a4.053,4.053,0,0,1-4.048,4.048H26.589a2.513,2.513,0,0,0-2.432,1.88L20.906,80.311H12.942l5.516-21.222c.427-.592,8.288-11.478,9.28-12.853a1.6,1.6,0,0,1,1.048-.646A1.622,1.622,0,0,1,30,45.882l.059.043a1.508,1.508,0,0,1,.625,1.2,1.49,1.49,0,0,1-.273.914l-2.259,3.228a1.956,1.956,0,0,0,1.6,3.08H43.441a1.586,1.586,0,0,1,1.587,1.6A1.628,1.628,0,0,1,43.37,57.516ZM61.052,39.643a2.42,2.42,0,0,1-2.417,2.417h-1.5a18.216,18.216,0,0,0,.53-4.373c0-.54-.011-1.075-.032-1.6h1a2.421,2.421,0,0,1,2.417,2.419Zm-2.417-5.98H57.462a32.376,32.376,0,0,0-.648-3.931,5.716,5.716,0,0,0-5.228-4.378,38.079,38.079,0,0,1-13.85-3.521,2.756,2.756,0,0,0-3.434.916,1.73,1.73,0,0,1-1.382.7,4.863,4.863,0,0,1-2.936-1.467,24.916,24.916,0,0,1-2.4-2.395,3.164,3.164,0,0,0-2.367-1.069h0a3.148,3.148,0,0,0-2.354,1.058,20.649,20.649,0,0,0-3.007,4.49,1.212,1.212,0,1,0,2.169,1.082,18.223,18.223,0,0,1,2.652-3.964.715.715,0,0,1,.54-.243.738.738,0,0,1,.554.251A27.308,27.308,0,0,0,28.4,23.822a7.287,7.287,0,0,0,4.486,2.052A4.15,4.15,0,0,0,36.312,24.1a.326.326,0,0,1,.4-.074A40.531,40.531,0,0,0,51.45,27.774a3.278,3.278,0,0,1,3,2.505,30.731,30.731,0,0,1,.693,4.686c.065.874.1,1.79.1,2.723a15.653,15.653,0,0,1-.871,5.184A18.915,18.915,0,0,1,45.82,52.7a3.982,3.982,0,0,0-2.379-.781H30.653L32.4,49.426a3.956,3.956,0,0,0-.912-5.462l-.059-.043a4.039,4.039,0,0,0-5.655.9l-2.413,3.343a16.673,16.673,0,0,1-3.067-5.289,18.389,18.389,0,0,1-.772-7.909,30.6,30.6,0,0,1,.719-4.788,1.212,1.212,0,1,0-2.359-.557,32.285,32.285,0,0,0-.676,4.045h-2.14a4.841,4.841,0,0,0-.92.089L13.87,24.33a7.985,7.985,0,0,1,5.981-7.994,1.212,1.212,0,0,0,.746-.572A15.774,15.774,0,0,1,34.265,7.819h5.418A19.657,19.657,0,0,1,59.318,27.454v6.257a4.867,4.867,0,0,0-.684-.049Zm28.594-7.1a2.871,2.871,0,0,1-2.868,2.868H75.818a3.133,3.133,0,0,0-2.489,1.219l-3.2,4.122V32.653a3.227,3.227,0,0,0-3.224-3.224H63.089a2.833,2.833,0,0,1-1.348-.337V27.454a21.947,21.947,0,0,0-1.52-8.049V5.292a2.871,2.871,0,0,1,2.868-2.868H84.358a2.872,2.872,0,0,1,2.87,2.868Z" transform="translate(-10.22)"/><path d="M133.818,221.061a1.212,1.212,0,0,0,1.212-1.212V218.5a1.212,1.212,0,0,0-2.424,0v1.353A1.212,1.212,0,0,0,133.818,221.061Z" transform="translate(-112.83 -182.173)"/><path d="M245.895,221.061a1.212,1.212,0,0,0,1.212-1.212V218.5a1.212,1.212,0,0,0-2.424,0v1.353A1.212,1.212,0,0,0,245.895,221.061Z" transform="translate(-206.796 -182.173)"/><path d="M173.751,261.285a4.418,4.418,0,0,1,4.844,0,1.212,1.212,0,1,0,1.221-2.094,6.885,6.885,0,0,0-7.286,0,1.212,1.212,0,1,0,1.221,2.094Z" transform="translate(-145.798 -216.434)"/></g></g></g></svg>