<svg xmlns="http://www.w3.org/2000/svg" width="124" height="124" viewBox="0 0 124 124"><g transform="translate(-1107.348 -11006.826)"><circle cx="62" cy="62" r="62" transform="translate(1107.348 11006.826)" fill="#fff"/><g transform="translate(1058.081 11027.498)"><path d="M145.312,33.138a4.407,4.407,0,0,0,1.921-4.452,4.114,4.114,0,0,0-3.207-3.47,4.57,4.57,0,0,0,.4-4.9,3.832,3.832,0,0,0-4.106-2.069A4.516,4.516,0,0,0,139.16,13.5a3.688,3.688,0,0,0-4.51-.419,4.275,4.275,0,0,0-2.589-4.033,3.741,3.741,0,0,0-4.37,1.282,3.838,3.838,0,0,0-7.406,0,3.741,3.741,0,0,0-4.37-1.282,4.276,4.276,0,0,0-2.589,4.033,3.688,3.688,0,0,0-4.51.419,4.516,4.516,0,0,0-1.163,4.751,3.832,3.832,0,0,0-4.106,2.069,4.57,4.57,0,0,0,.4,4.9,4.113,4.113,0,0,0-3.207,3.47,4.407,4.407,0,0,0,1.921,4.452,4.407,4.407,0,0,0-1.921,4.452,4.114,4.114,0,0,0,3.207,3.47,4.57,4.57,0,0,0-.4,4.9,3.832,3.832,0,0,0,4.106,2.069,4.516,4.516,0,0,0,1.163,4.751,3.688,3.688,0,0,0,4.51.419,4.275,4.275,0,0,0,2.589,4.033,3.741,3.741,0,0,0,4.37-1.282,3.838,3.838,0,0,0,7.406,0,3.741,3.741,0,0,0,4.37,1.282A4.276,4.276,0,0,0,134.65,53.2a3.688,3.688,0,0,0,4.51-.419,4.516,4.516,0,0,0,1.163-4.751,3.832,3.832,0,0,0,4.106-2.069,4.57,4.57,0,0,0-.4-4.9,4.113,4.113,0,0,0,3.207-3.47A4.407,4.407,0,0,0,145.312,33.138Z" transform="translate(-11.025 -6.377)" fill="#7a6d79"/><path d="M117.826,60.487a3.688,3.688,0,0,1-4.51-.419,4.516,4.516,0,0,1-1.163-4.751,3.832,3.832,0,0,1-4.106-2.069,4.57,4.57,0,0,1,.4-4.9,4.113,4.113,0,0,1-3.207-3.47,4.407,4.407,0,0,1,1.921-4.452,4.407,4.407,0,0,1-1.921-4.452,4.114,4.114,0,0,1,3.207-3.47,4.57,4.57,0,0,1-.4-4.9,3.832,3.832,0,0,1,4.106-2.069,4.516,4.516,0,0,1,1.163-4.751,3.688,3.688,0,0,1,4.51-.419,4.4,4.4,0,0,1,1.683-3.523,3.669,3.669,0,0,0-3.6-.51,4.276,4.276,0,0,0-2.589,4.033,3.688,3.688,0,0,0-4.51.419,4.516,4.516,0,0,0-1.163,4.751,3.832,3.832,0,0,0-4.106,2.069,4.57,4.57,0,0,0,.4,4.9,4.113,4.113,0,0,0-3.207,3.47,4.407,4.407,0,0,0,1.921,4.452,4.407,4.407,0,0,0-1.921,4.452,4.114,4.114,0,0,0,3.207,3.47,4.57,4.57,0,0,0-.4,4.9,3.832,3.832,0,0,0,4.106,2.069,4.516,4.516,0,0,0,1.163,4.751,3.688,3.688,0,0,0,4.51.419,4.276,4.276,0,0,0,2.589,4.033,3.669,3.669,0,0,0,3.6-.51,4.4,4.4,0,0,1-1.683-3.523Z" transform="translate(-11.023 -13.669)" fill="#685e68"/><path d="M136.474,273.165l-10.558-3.612V258.586H112.755v10.967L102.2,273.165a10.333,10.333,0,0,0-6.989,9.777v12.544h48.255V282.942A10.334,10.334,0,0,0,136.474,273.165Z" transform="translate(-6.372 -219.784)" fill="#d78878"/><path d="M216.649,269.014V258.585h-4.5v10.967l6.58,25.933,2.251-8.871-4.2-16.541A4.314,4.314,0,0,1,216.649,269.014Z" transform="translate(-105.764 -219.783)" fill="#ca6e59"/><path d="M152.342,331.673l6.58,25.933H142.609s2.846-12.679-.825-22.322Z" transform="translate(-45.959 -281.904)" fill="#57be92"/><path d="M95.207,365.518v12.544h7.5V365.518a10.315,10.315,0,0,1,.91-4.241,27.426,27.426,0,0,0-1.423-5.537A10.334,10.334,0,0,0,95.207,365.518Z" transform="translate(-6.371 -302.36)" fill="#ca6e59"/><path d="M141.784,335.285a27.428,27.428,0,0,1,1.423,5.537,10.331,10.331,0,0,1,6.079-5.537l3.655-1.25-.6-2.361Z" transform="translate(-45.959 -281.904)" fill="#22b27f"/><path d="M262.58,331.673,256,357.606h16.314s-2.846-12.679.825-22.322Z" transform="translate(-143.036 -281.904)" fill="#57be92"/><path d="M196.089,111.659a4.662,4.662,0,0,1-8.09,0c-1.432,3.465-2.744,4.672-7.246,4.672V129.21a11.291,11.291,0,1,0,22.583,0V116.331C198.624,116.174,196.621,113.848,196.089,111.659Z" transform="translate(-79.081 -94.904)" fill="#d78878"/><path d="M185.253,129.211V116.332c3.314,0,4.9-.654,6.077-2.382A4.664,4.664,0,0,1,188,111.66c-1.432,3.465-2.744,4.672-7.246,4.672v12.879a11.3,11.3,0,0,0,13.542,11.067A11.3,11.3,0,0,1,185.253,129.211Z" transform="translate(-79.079 -94.905)" fill="#ca6e59"/><path d="M152.3,166.672h-2.1a2.919,2.919,0,0,0-2.919,2.919v2.187A2.919,2.919,0,0,0,150.2,174.7h2.1Z" transform="translate(-50.632 -141.662)" fill="#bb5d4c"/><path d="M331.248,166.672h2.1a2.919,2.919,0,0,1,2.919,2.919v2.187a2.919,2.919,0,0,1-2.919,2.919h-2.1Z" transform="translate(-206.993 -141.662)" fill="#bb5d4c"/><g transform="translate(87.711 0)"><path d="M137.091,66.893a1.125,1.125,0,0,0,1.125-1.125V63.158a11.459,11.459,0,0,0-7.749-10.842l-6.7-2.29a5.6,5.6,0,0,0,.76-1.623,4.834,4.834,0,0,0,4.363-1.171,5.969,5.969,0,0,0,1.763-4.436,5.062,5.062,0,0,0,3.741-2.687,5.724,5.724,0,0,0,.236-4.83,5.4,5.4,0,0,0,2.686-3.887,5.953,5.953,0,0,0-1.31-4.632,5.673,5.673,0,0,0,1.31-4.631,5.377,5.377,0,0,0-2.684-3.888,5.7,5.7,0,0,0,.392-1.582,1.126,1.126,0,0,0-2.24-.225,3.326,3.326,0,0,1-.673,1.716,1.125,1.125,0,0,0,.684,1.8,2.993,2.993,0,0,1,2.3,2.543,3.282,3.282,0,0,1-1.4,3.314,1.125,1.125,0,0,0,0,1.912,3.226,3.226,0,0,1,1.449,2.75,3.278,3.278,0,0,1-2.348,3.109,1.125,1.125,0,0,0-.681,1.8,3.452,3.452,0,0,1,.3,3.678,2.721,2.721,0,0,1-2.894,1.492q-1.487-.007-1.283,1.466a3.465,3.465,0,0,1-.855,3.558,2.553,2.553,0,0,1-3.151.3,1.086,1.086,0,0,0-1.727.971,3.132,3.132,0,0,1-1,2.409l-.826-.283V44.037a12.4,12.4,0,0,0,4.711-9.73V34.16h.978a4.049,4.049,0,0,0,4.044-4.044V27.929a4.049,4.049,0,0,0-4.044-4.044h-.978V21.427a1.126,1.126,0,0,0-1.088-1.125c-3.372-.112-5.629-1.5-6.191-3.813a1.125,1.125,0,0,0-2.07-.294,3.536,3.536,0,0,1-6.138,0,1.125,1.125,0,0,0-2.016.131c-1.293,3.129-2.211,3.976-6.206,3.976a1.125,1.125,0,0,0-1.125,1.125v2.458h-.978a4.049,4.049,0,0,0-4.044,4.044v2.187a4.049,4.049,0,0,0,4.044,4.044h.978v.146a12.4,12.4,0,0,0,4.711,9.73v4.928l-.827.283a3.371,3.371,0,0,1-1.005-2.425c-.01-.98-.628-1.487-1.727-.955a2.682,2.682,0,0,1-3.151-.3,3.39,3.39,0,0,1-.856-3.559q.2-1.471-1.281-1.466a2.92,2.92,0,0,1-2.9-1.491,3.579,3.579,0,0,1,.3-3.678c.582-.843.22-1.454-.681-1.8a2.992,2.992,0,0,1-2.3-2.543,3.186,3.186,0,0,1,1.4-3.316c.811-.445.709-1.276,0-1.913a3.483,3.483,0,0,1-1.4-3.313,3.033,3.033,0,0,1,2.3-2.544c1.038-.215,1.129-.942.683-1.8a3.448,3.448,0,0,1-.3-3.679,2.817,2.817,0,0,1,2.9-1.493,1.091,1.091,0,0,0,1.282-1.466,3.623,3.623,0,0,1,.855-3.557,2.7,2.7,0,0,1,3.151-.3c.968.485,1.643.091,1.728-.951A3.4,3.4,0,0,1,105.3,3.719c1.1-.435,2.113.1,3.062.92.786.677,1.577.595,1.962-.33a2.958,2.958,0,0,1,2.635-2.057A3.044,3.044,0,0,1,115.6,4.307c.462,1.039,1.175,1.009,1.962.331a2.624,2.624,0,0,1,3.064-.919A3.259,3.259,0,0,1,122.5,6.7c.049,1.047.818,1.4,1.727.956a2.567,2.567,0,0,1,3.151.3,3.521,3.521,0,0,1,.855,3.557c-.283,1.018.29,1.47,1.281,1.467a2.51,2.51,0,0,1,1.62.225,1.125,1.125,0,1,0,1.009-2.012,4.839,4.839,0,0,0-1.487-.464,5.606,5.606,0,0,0-1.762-4.437,5.089,5.089,0,0,0-4.361-1.169,5.286,5.286,0,0,0-3.082-3.5,4.8,4.8,0,0,0-4.466.5A4.965,4.965,0,0,0,112.964,0a5.029,5.029,0,0,0-4.024,2.123,4.786,4.786,0,0,0-4.462-.5A5.292,5.292,0,0,0,101.4,5.12a4.837,4.837,0,0,0-4.364,1.172,5.975,5.975,0,0,0-1.762,4.435,5.066,5.066,0,0,0-3.742,2.688,5.716,5.716,0,0,0-.235,4.828,5.4,5.4,0,0,0-2.687,3.887,5.946,5.946,0,0,0,1.31,4.632,5.674,5.674,0,0,0-1.31,4.632,5.368,5.368,0,0,0,2.687,3.888,5.762,5.762,0,0,0,.234,4.826,5.069,5.069,0,0,0,3.743,2.687,5.613,5.613,0,0,0,1.762,4.438A5.089,5.089,0,0,0,101.4,48.4a5.607,5.607,0,0,0,.761,1.624l-6.7,2.29a11.459,11.459,0,0,0-7.749,10.842V75.7a1.125,1.125,0,0,0,1.125,1.125h48.255a1.125,1.125,0,0,0,1.125-1.125V70.671a1.125,1.125,0,1,0-2.251,0v3.906H130.2c-.518-2.854-1.878-12.107.569-19.707a9.21,9.21,0,0,1,5.193,8.288v2.609a1.125,1.125,0,0,0,1.125,1.125Zm-9.179,7.684h-13.5l5.924-23.348,8.328,2.849c-2.571,7.854-1.356,17.059-.751,20.5Zm-1.553-48.442a1.8,1.8,0,0,1,1.793,1.793v2.187a1.8,1.8,0,0,1-1.793,1.793h-.978V26.135Zm-26.79,5.774a1.8,1.8,0,0,1-1.793-1.793V27.929a1.8,1.8,0,0,1,1.793-1.793h.978v5.774h-.978Zm3.229,2.4V22.523c3.55-.194,5.151-1.367,6.4-3.7a5.778,5.778,0,0,0,7.482.044,6.7,6.7,0,0,0,1.707,1.879,9.4,9.4,0,0,0,4.744,1.725v11.83a10.166,10.166,0,1,1-20.332,0ZM89.962,63.158a9.209,9.209,0,0,1,5.193-8.287c2.447,7.6,1.086,16.853.569,19.707H89.962Zm8.053,11.419c.605-3.44,1.82-12.645-.751-20.5l8.329-2.849,1.1,4.33A1.125,1.125,0,0,0,108.873,55l-1.364-5.377V45.459a12.407,12.407,0,0,0,10.909,0V49.63l-5.454,21.5L110.079,59.76a1.125,1.125,0,1,0-2.182.554l3.619,14.263Z" transform="translate(-87.711 0)"/><path d="M229.691,239.44a3.948,3.948,0,0,0,7.9,0,1.125,1.125,0,1,0-2.251,0,1.7,1.7,0,0,1-3.394,0,1.125,1.125,0,1,0-2.251,0Z" transform="translate(-208.386 -202.555)"/><path d="M219.028,182.871a1.125,1.125,0,1,0-2.251,0v1.477a1.125,1.125,0,1,0,2.251,0Z" transform="translate(-197.41 -154.474)"/><path d="M282.521,181.746a1.125,1.125,0,0,0-1.125,1.125v1.477a1.125,1.125,0,1,0,2.251,0v-1.477A1.125,1.125,0,0,0,282.521,181.746Z" transform="translate(-252.333 -154.474)"/><path d="M210.137,157.564h2.331a1.125,1.125,0,1,0,0-2.251h-2.331a1.125,1.125,0,1,0,0,2.251Z" transform="translate(-190.81 -132.008)"/><path d="M273.582,157.564h2.331a1.125,1.125,0,0,0,0-2.251h-2.331a1.125,1.125,0,0,0,0,2.251Z" transform="translate(-244.735 -132.008)"/></g></g></g></svg>