<svg xmlns="http://www.w3.org/2000/svg" xmlns:xlink="http://www.w3.org/1999/xlink" width="103" height="103" viewBox="0 0 103 103"><defs><filter id="a" x="0" y="0" width="103" height="103" filterUnits="userSpaceOnUse"><feOffset dy="3" input="SourceAlpha"/><feGaussianBlur stdDeviation="3" result="b"/><feFlood flood-opacity="0.161"/><feComposite operator="in" in2="b"/><feComposite in="SourceGraphic"/></filter></defs><g transform="translate(-491.348 -4199.826)"><g transform="matrix(1, 0, 0, 1, 491.35, 4199.83)" filter="url(#a)"><circle cx="42.5" cy="42.5" r="42.5" transform="translate(9 6)" fill="#fff"/></g><g transform="translate(515.357 4220.826)"><path d="M49.317,10.44V46.508a1.127,1.127,0,0,1-1.127,1.127H18.068a1.127,1.127,0,0,1-1.128-1.127V10.44a1.128,1.128,0,0,1,1.128-1.128H48.19A1.127,1.127,0,0,1,49.317,10.44Zm0,0" transform="translate(-1.666 -0.916)" fill="#f44545"/><path d="M51.891,10.44V46.508a1.127,1.127,0,0,1-1.127,1.127H43.116V9.312h7.649a1.127,1.127,0,0,1,1.127,1.128Zm0,0" transform="translate(-4.241 -0.916)" fill="#c42d2d"/><path d="M38.912,39.557a2.4,2.4,0,0,0-1.051,3.229l.739,1.453a.7.7,0,0,1-.628,1.024H35.121l-6.744,0a1.6,1.6,0,1,0-.044,3.195c-3.151,0-2.972,0-2.985,0a1.673,1.673,0,0,0-1.125.5,1.625,1.625,0,0,0-.434,1.57,1.505,1.505,0,0,0,1.526,1.117H26.7a1.6,1.6,0,0,0,.032,3.193l4.979,0a1.594,1.594,0,0,0-1.6,1.6,1.6,1.6,0,0,0,1.6,1.6l11.167,0h.029a3.769,3.769,0,0,0,3.77-3.756l-.015-8.44a3.836,3.836,0,0,0-.044-.58h-2.13a2.552,2.552,0,0,1-2.275-1.4l-1.976-3.88a.985.985,0,0,0-1.326-.431Zm0,0" transform="translate(-2.335 -3.88)" fill="#f2bb88"/><path d="M47.371,54.3A3.77,3.77,0,0,1,43.6,57.936h-.029l-12.763,0a1.6,1.6,0,0,0,1.6,1.563l11.167,0H43.6a3.77,3.77,0,0,0,3.771-3.756Zm0,0" transform="translate(-3.031 -5.341)" fill="#e3a76f"/><path d="M51.092,58.7H56.82c1.179,0,2.15-.727,2.15-1.617V45.158a1.947,1.947,0,0,0-2.143-1.624H51.1c-1.179,0-2.144.728-2.145,1.617l0,11.929A1.946,1.946,0,0,0,51.092,58.7Zm0,0" transform="translate(-4.815 -4.282)" fill="#d2d2d7"/><path d="M53.295,58.7h3.952c1.179,0,2.15-.727,2.15-1.617V45.158a1.947,1.947,0,0,0-2.143-1.624H53.295Zm0,0" transform="translate(-5.242 -4.282)" fill="#5596fb"/><path d="M19.564,15.069A2.4,2.4,0,0,1,20.614,18.3l-.739,1.453a.7.7,0,0,0,.628,1.024h2.852l6.744,0a1.6,1.6,0,1,1,.044,3.195c2.521,0,2.969,0,2.985,0a1.672,1.672,0,0,1,1.125.5,1.63,1.63,0,0,1,.435,1.57,1.506,1.506,0,0,1-1.526,1.117H31.775a1.6,1.6,0,0,1-.032,3.193l-4.978,0a1.593,1.593,0,0,1,1.6,1.6,1.6,1.6,0,0,1-1.6,1.6l-11.167,0h-.029A3.77,3.77,0,0,1,11.8,29.8l.015-8.44a3.783,3.783,0,0,1,.044-.58h2.13a2.552,2.552,0,0,0,2.275-1.4l1.975-3.88a.986.986,0,0,1,1.326-.431Zm0,0" transform="translate(-1.161 -1.472)" fill="#f2bb88"/><path d="M11.8,29.812a3.768,3.768,0,0,0,3.768,3.636H15.6l12.763,0a1.6,1.6,0,0,1-1.6,1.563l-11.167,0h-.029a3.768,3.768,0,0,1-3.77-3.756Zm0,0" transform="translate(-1.161 -2.932)" fill="#e3a76f"/><path d="M10.936,32.225a1.946,1.946,0,0,1-2.142,1.623H3.066c-1.18,0-2.15-.728-2.15-1.618V20.3a1.946,1.946,0,0,1,2.143-1.624H8.787c1.179,0,2.144.727,2.145,1.617Zm0,0" transform="translate(-0.09 -1.837)" fill="#ebebf0"/><path d="M6.477,32.344l1.288,1.5h-4.7c-1.18,0-2.151-.727-2.151-1.618V20.3a1.947,1.947,0,0,1,2.143-1.624H7.765l-1.288,1.5a1.567,1.567,0,0,0,0,2.039l.423.493a1.567,1.567,0,0,1,0,2.039l-.423.493a1.565,1.565,0,0,0,0,2.037l.423.493a1.567,1.567,0,0,1,0,2.039l-.423.494a1.565,1.565,0,0,0,0,2.038Zm0,0" transform="translate(-0.09 -1.837)" fill="#ffa90b"/><path d="M52.022,38.1H48.436V9.61a1.944,1.944,0,0,0-1.942-1.942h-6.87V6.513A6.511,6.511,0,0,0,30.261.658,6.511,6.511,0,0,0,20.9,6.513V7.668H16.373A1.944,1.944,0,0,0,14.431,9.61v7.929a1.765,1.765,0,0,1-1.6,1.045H11.657v-.048A2.741,2.741,0,0,0,8.7,16.1H2.959A2.742,2.742,0,0,0,0,18.544V30.487a2.262,2.262,0,0,0,.958,1.794,3.344,3.344,0,0,0,2.006.639H8.7a3.326,3.326,0,0,0,2.007-.645,2.553,2.553,0,0,0,.535-.546A4.564,4.564,0,0,0,14.415,33h.016V45.679a1.944,1.944,0,0,0,1.942,1.941h4.61a2.278,2.278,0,0,0,1.158.85A2.414,2.414,0,0,0,24.373,51.8h2.7l0,.01A2.414,2.414,0,0,0,29.357,55l11.21,0a4.564,4.564,0,0,0,3.171-1.274,3.126,3.126,0,0,0,2.541,1.19h5.738a3.527,3.527,0,0,0,1.283-.24,3,3,0,0,0,.723-.4,2.286,2.286,0,0,0,.958-1.794V40.539a2.742,2.742,0,0,0-2.96-2.439ZM6.163,27.532l-.423.493a2.368,2.368,0,0,0,0,3.1l.145.169H2.965a1.738,1.738,0,0,1-1.028-.313.68.68,0,0,1-.308-.493V18.544c0-.383.569-.811,1.331-.812H5.885l-.144.168a2.366,2.366,0,0,0,0,3.1l.423.493a.747.747,0,0,1,0,.979l-.422.493a2.366,2.366,0,0,0,0,3.1l.423.493a.747.747,0,0,1,0,.978Zm3.869,2.949a.685.685,0,0,1-.307.5,2.75,2.75,0,0,1-1.7.314L6.976,30.063a.748.748,0,0,1,0-.979l.423-.493a2.367,2.367,0,0,0,0-3.1L6.976,25a.747.747,0,0,1,0-.979L7.4,23.53a2.366,2.366,0,0,0,0-3.1l-.423-.493a.747.747,0,0,1,0-.978L8.03,17.732H8.7c.762,0,1.331.425,1.332.805,0,.011,0,12.749,0,11.944ZM33.111,1.628A4.89,4.89,0,0,1,38,6.513V7.668h-4.07V6.513a6.493,6.493,0,0,0-2.041-4.728,4.87,4.87,0,0,1,1.227-.157Zm-2.85.921A4.88,4.88,0,0,1,32.3,6.513V7.668H28.226V6.513A4.881,4.881,0,0,1,30.262,2.549ZM22.528,6.513a4.885,4.885,0,0,1,6.112-4.728A6.493,6.493,0,0,0,26.6,6.513V7.668H22.528Zm-8.1,24.864h-.016a2.935,2.935,0,0,1-1.271-.287A2.976,2.976,0,0,1,11.661,29.5l0-9.287H12.83a3.353,3.353,0,0,0,3-1.842l1.947-3.824v0h0l0-.006h0l.01-.02v0l0-.006.01-.02-.006.013.011-.023a.175.175,0,0,1,.234-.076,1.592,1.592,0,0,1,.7,2.139L18,18a1.521,1.521,0,0,0,1.356,2.21l9.607,0a.824.824,0,0,1,.83.8.788.788,0,0,1-.784.774H23.533a.814.814,0,1,0,0,1.628h8.433a.861.861,0,0,1,.58.267.736.736,0,0,1-.518,1.3H23.475a.814.814,0,0,0,0,1.628h7.135a.785.785,0,0,1,0,1.569l-7.8,0a.814.814,0,0,0,0,1.628c3.008,0,3.057-.081,3.368.23a.785.785,0,0,1-.555,1.34h-.017l-11.176,0Zm6.145,14.614h-4.2a.314.314,0,0,1-.313-.313V33l9.566,0a2.415,2.415,0,0,0,2.285-3.189l0-.009,2.7,0a2.413,2.413,0,0,0,2.232-3.327,2.37,2.37,0,0,0,.856-3.952,2.944,2.944,0,0,0-2.41-.744,2.428,2.428,0,0,0-2.325-3.2l-9.431,0,.66-1.3a3.216,3.216,0,0,0-1.408-4.328,1.8,1.8,0,0,0-2.423.788l-.3.591V9.61a.314.314,0,0,1,.313-.313H20.9v3.016a.814.814,0,0,0,1.629,0V9.3H32.3v3.016a.814.814,0,0,0,1.629,0V9.3h4.107V35.074a1.8,1.8,0,0,0-1.833-.12,3.222,3.222,0,0,0-1.409,4.328l.66,1.3-9.43,0A2.46,2.46,0,0,0,23.7,42.2a2.357,2.357,0,0,0-.007,1.572h-.679a2.509,2.509,0,0,0-2.439,2.218Zm22.744,5.5a2.959,2.959,0,0,1-2.753,1.878l-11.209,0a.786.786,0,0,1-.556-1.339c.4-.4.77-.164,3.368-.23a.814.814,0,0,0,0-1.628H29.358c-5.409-.008-5.223.086-5.538-.232a.786.786,0,0,1,.536-1.341h7.15a.814.814,0,0,0,0-1.629H24.375c-1.14-.054-1.7.149-2.036-.254a.849.849,0,0,1,.679-1.313h8.431a.814.814,0,1,0,0-1.628H25.957a.781.781,0,0,1-.724-1.024.841.841,0,0,1,.786-.545l9.608,0A1.52,1.52,0,0,0,36.982,40l-.74-1.454a1.592,1.592,0,0,1,.7-2.138.173.173,0,0,1,.233.076l1.946,3.825h0l0,0,0,0v0l0,.009,0,.008,0,0,0,.007,0,.006h0l0,.006,0,0,0,.005v0h0l0,.005v0l0,0v0l0,.007,0,0,0,.006,0,.005h0a3.5,3.5,0,0,0,3.322,1.841h.854c0,1.707,0,9.8,0,9.287Zm-.037-33.142a.814.814,0,0,0-.814.814V40.579a1.871,1.871,0,0,1-1.87-.952l-.938-1.842V9.3h2.808v6.613a.814.814,0,1,0,1.628,0V9.3h2.4a.313.313,0,0,1,.314.313V38.1h-.523a3.272,3.272,0,0,0-2.187.8V19.166a.814.814,0,0,0-.814-.814Zm10.07,34.131a.713.713,0,0,1-.261.456,1.7,1.7,0,0,1-1.077.349H48.867V48.6a.814.814,0,0,0-1.629,0v4.69h-.959a1.722,1.722,0,0,1-1.023-.313.692.692,0,0,1-.308-.5v-.71c0-.011,0-11.216,0-11.233,0-.381.57-.806,1.333-.806h.953V45.34a.814.814,0,0,0,1.629,0V39.728h3.155c.762,0,1.332.429,1.332.811Zm0,0" transform="translate(0)"/><path d="M56.438,55.445a1.113,1.113,0,1,0,1.114,1.114A1.117,1.117,0,0,0,56.438,55.445Zm0,0" transform="translate(-5.442 -5.454)"/></g></g></svg>