<svg xmlns="http://www.w3.org/2000/svg" xmlns:xlink="http://www.w3.org/1999/xlink" width="103" height="103" viewBox="0 0 103 103"><defs><filter id="a" x="0" y="0" width="103" height="103" filterUnits="userSpaceOnUse"><feOffset dy="3" input="SourceAlpha"/><feGaussianBlur stdDeviation="3" result="b"/><feFlood flood-opacity="0.161"/><feComposite operator="in" in2="b"/><feComposite in="SourceGraphic"/></filter></defs><g transform="translate(-176.348 -4199.826)"><g transform="matrix(1, 0, 0, 1, 176.35, 4199.83)" filter="url(#a)"><circle cx="42.5" cy="42.5" r="42.5" transform="translate(9 6)" fill="#fff"/></g><g transform="translate(201.848 4221.87)"><g transform="translate(0.762 3.856)"><path d="M22.319,13.732l-.584,15.84a5.445,5.445,0,0,1-5.191,5.24,2.036,2.036,0,0,0-1.99,1.6l-.527,1.659-5.266.49-6.173-.49,1.74-6.346-.67-18Z" transform="translate(-1.144 -5.426)" fill="#ffcebf"/><path d="M17.685,38.172a2.036,2.036,0,0,0-1.99,1.6l-.527,1.659-4.843.49,1.424-5.15a.357.357,0,0,1,.582-.172c.679.61,2.275,1.624,5.354,1.57Z" transform="translate(-2.286 -8.786)" fill="#ffb09e"/><path d="M17.358,44.8v1.454l-6.007.53-8.763-.53V42.286H14.841A2.517,2.517,0,0,1,17.358,44.8Z" transform="translate(-1.144 -9.638)" fill="#fff9df"/><path d="M19.1,44.8v1.454l-2.206.4V44.8a2.517,2.517,0,0,0-2.518-2.517h2.206A2.517,2.517,0,0,1,19.1,44.8Z" transform="translate(-2.883 -9.638)" fill="#fff0ad"/><path d="M27.438,54.374c0,.637,0,1.153,0,1.153H2.588V46.945H20.009A7.429,7.429,0,0,1,27.438,54.374Z" transform="translate(-1.144 -10.326)" fill="#a274bf"/><path d="M29.879,54.374c0,.637,0,1.153,0,1.153H24.76l.763-.216a1.326,1.326,0,0,0,.948-1.478c-.56-3.65-3.632-6.888-7.338-6.888H22.45A7.429,7.429,0,0,1,29.879,54.374Z" transform="translate(-3.585 -10.326)" fill="#925cb4"/><path d="M26.509,11.705a5.063,5.063,0,0,1-4.884,5.059l-3.667.116-10.833.342v3.925H5.043a1.164,1.164,0,0,0-1.164,1.164v2.351a1.163,1.163,0,0,0,1.163,1.163H7.125v2.346a2.51,2.51,0,0,1-5.008.248L.922,16.318A5.8,5.8,0,0,1,6.237,9.962l4.949-.4a21.91,21.91,0,0,0,7.151-1.815L19.9,7.057l.356-.158a2.972,2.972,0,0,1,1.2-.255,5.061,5.061,0,0,1,5.051,5.062Z" transform="translate(-0.894 -4.38)" fill="#87523e"/><path d="M29.462,11.705a5.063,5.063,0,0,1-4.884,5.059l-3.667.116.113-.116a5.063,5.063,0,0,0,1.829-9.707l.356-.158a2.972,2.972,0,0,1,1.2-.255,5.061,5.061,0,0,1,5.051,5.062Z" transform="translate(-3.847 -4.38)" fill="#7c4b37"/><path d="M57.065,6.346V19.2a2.359,2.359,0,0,1-2.358,2.359l-3.041,0-3.386-.518-3.387.523h-3.04A2.358,2.358,0,0,1,39.5,19.2V6.346a2.358,2.358,0,0,1,2.358-2.358H54.707A2.359,2.359,0,0,1,57.065,6.346Z" transform="translate(-6.589 -3.988)" fill="#fff9df"/><path d="M59.19,6.346V19.2a2.359,2.359,0,0,1-2.358,2.359H53.893A2.359,2.359,0,0,0,56.252,19.2V6.346a2.359,2.359,0,0,0-2.358-2.358h2.938A2.359,2.359,0,0,1,59.19,6.346Z" transform="translate(-8.713 -3.988)" fill="#fff0ad"/><path d="M52.6,18.519V23.2H45.828V18.519a3.387,3.387,0,0,1,6.773,0Z" transform="translate(-7.523 -5.632)" fill="#a274bf"/><path d="M52.991,18.519V23.2H50.723V18.519a3.394,3.394,0,0,0-2.253-3.192,3.389,3.389,0,0,1,4.521,3.192Z" transform="translate(-7.913 -5.632)" fill="#925cb4"/><path d="M52.025,11.512a2.687,2.687,0,1,1-.787-1.9,2.683,2.683,0,0,1,.787,1.9Z" transform="translate(-7.644 -4.701)" fill="#ffcebf"/><path d="M52.314,11.512A2.69,2.69,0,0,1,48.609,14a2.689,2.689,0,0,0,0-4.982,2.688,2.688,0,0,1,3.7,2.49Z" transform="translate(-7.934 -4.701)" fill="#ffb09e"/><path d="M53.98,41.964v10.6A1.944,1.944,0,0,1,52.036,54.5H49.53l-2.792-.494-2.791.494H41.439A1.944,1.944,0,0,1,39.5,52.56v-10.6a1.944,1.944,0,0,1,1.944-1.945h10.6A1.944,1.944,0,0,1,53.98,41.964Z" transform="translate(-6.589 -9.304)" fill="#fff9df"/><path d="M55.667,41.964v10.6A1.944,1.944,0,0,1,53.723,54.5H50.931a1.944,1.944,0,0,0,1.944-1.945v-10.6a1.944,1.944,0,0,0-1.944-1.945h2.792A1.944,1.944,0,0,1,55.667,41.964Z" transform="translate(-8.277 -9.304)" fill="#fff0ad"/><path d="M50.3,52v3.861H44.716V52A2.792,2.792,0,1,1,50.3,52Z" transform="translate(-7.359 -10.66)" fill="#a274bf"/><path d="M50.591,52v3.861H48.373V52a2.791,2.791,0,0,0-1.683-2.562A2.792,2.792,0,0,1,50.591,52Z" transform="translate(-7.651 -10.66)" fill="#925cb4"/><path d="M49.824,46.223a2.218,2.218,0,1,1-3.131-2.02,2.182,2.182,0,0,1,.914-.2,2.217,2.217,0,0,1,2.217,2.218Z" transform="translate(-7.459 -9.892)" fill="#ffcebf"/><path d="M50.05,46.223a2.217,2.217,0,0,1-3.131,2.02,2.217,2.217,0,0,0,0-4.04,2.182,2.182,0,0,1,.914-.2,2.217,2.217,0,0,1,2.217,2.218Z" transform="translate(-7.684 -9.892)" fill="#ffb09e"/><path d="M59.007,30.038v3.216a1.439,1.439,0,0,1-1.439,1.439H54.352a1.439,1.439,0,0,1-1.44-1.439V30.038a1.439,1.439,0,0,1,1.44-1.439h3.216a1.439,1.439,0,0,1,1.439,1.439Z" transform="translate(-8.569 -7.619)" fill="#a274bf"/><path d="M59.413,30.038v3.216a1.439,1.439,0,0,1-1.439,1.439H55.66A1.439,1.439,0,0,0,57.1,33.254V30.038A1.439,1.439,0,0,0,55.66,28.6h2.314a1.439,1.439,0,0,1,1.439,1.439Z" transform="translate(-8.974 -7.619)" fill="#925cb4"/></g><g transform="translate(0 3.094)"><path d="M19.627,40.1H17.738v-.692a3.283,3.283,0,0,0-3.055-3.27c.263-.826.469-1.7,1.513-1.748a6.207,6.207,0,0,0,5.917-5.972l.411-11.152a5.824,5.824,0,0,0,2.891-9.832A5.538,5.538,0,0,0,20.4,5.863,16.545,16.545,0,0,0,17.9,6.921c-.2.088-.4.174-.6.256a.762.762,0,0,0,.574,1.411c.214-.087.431-.179.645-.274.627-.279,1.252-.607,1.9-.843a3.879,3.879,0,0,1,3.933,1.048,4.3,4.3,0,0,1-2.875,7.351l-14.5.459a.762.762,0,0,0-.738.761v3.163H4.911a1.928,1.928,0,0,0-1.926,1.925v2.352a1.928,1.928,0,0,0,1.926,1.925h1.32v1.585a1.751,1.751,0,0,1-1.749,1.749,1.771,1.771,0,0,1-1.74-1.576l-1.194-12.1A5.005,5.005,0,0,1,2.7,12.38c1.943-2.324,5.667-1.968,8.417-2.188A22.706,22.706,0,0,0,14.3,9.709a.762.762,0,1,0-.335-1.486,21.18,21.18,0,0,1-2.97.451c-3.27.261-7.151-.037-9.465,2.73a6.517,6.517,0,0,0-1.5,4.856l1.194,12.1a3.3,3.3,0,0,0,1.813,2.616L1.472,36.692a.771.771,0,0,0-.027.2V49.446a.762.762,0,0,0,.762.762H7.414a.762.762,0,0,0,0-1.523H2.968V41.626H19.627a6.675,6.675,0,0,1,6.668,6.668v.391H11a.762.762,0,1,0,0,1.523H27.057a.762.762,0,0,0,.762-.762V48.294A8.2,8.2,0,0,0,19.627,40.1ZM7.755,28.038V25.691a.762.762,0,0,0-.762-.762H4.911a.4.4,0,0,1-.4-.4V22.178a.4.4,0,0,1,.4-.4H6.993a.762.762,0,0,0,.762-.762V17.826L21,17.408l-.4,10.957a4.711,4.711,0,0,1-4.45,4.506h0a7.071,7.071,0,0,1-4.723-1.294.761.761,0,0,0-.962,1.181,7.25,7.25,0,0,0,3.324,1.448,8.629,8.629,0,0,0-.693,1.926H3.205l1.322-4.823A3.276,3.276,0,0,0,7.755,28.038ZM2.968,40.1V37.655H14.459a1.758,1.758,0,0,1,1.756,1.756V40.1H2.968Z" transform="translate(0 -3.484)"/><path d="M20.043,29.056a.762.762,0,0,0,1.467-.41L20.884,26.4a.762.762,0,1,0-1.467.41Z" transform="translate(-2.861 -6.451)"/><path d="M17.549,34.755q.115,0,.231-.008a3.317,3.317,0,0,0,1.05-.249.762.762,0,0,0-.588-1.405,1.8,1.8,0,0,1-2.075-.5.762.762,0,0,0-1.166.98,3.338,3.338,0,0,0,2.548,1.187Z" transform="translate(-2.187 -7.406)"/><path d="M55.789,9.648a.762.762,0,0,0,.762-.762V6.215a3.124,3.124,0,0,0-3.12-3.12H40.577a3.124,3.124,0,0,0-3.12,3.12V19.068c0,.009,0,.018,0,.028L31.111,24.55A.762.762,0,1,0,32.1,25.7l5.818-5a3.121,3.121,0,0,0,2.655,1.483H53.431a3.124,3.124,0,0,0,3.12-3.12V12.441a.762.762,0,1,0-1.523,0v6.627a1.6,1.6,0,0,1-1.6,1.6H51.152V16.743a4.147,4.147,0,0,0-1.885-3.474,3.452,3.452,0,1,0-4.527,0,4.147,4.147,0,0,0-1.885,3.474v3.922H40.577a1.6,1.6,0,0,1-1.6-1.6V6.215a1.6,1.6,0,0,1,1.6-1.6H53.431a1.6,1.6,0,0,1,1.6,1.6V8.886a.762.762,0,0,0,.762.762ZM45.076,10.667A1.928,1.928,0,1,1,47,12.6a1.93,1.93,0,0,1-1.928-1.928Zm-.7,6.076a2.625,2.625,0,0,1,5.25,0v3.922h-5.25V16.743Z" transform="translate(-4.551 -3.094)"/><path d="M50.76,39.046h-10.6a2.709,2.709,0,0,0-2.706,2.706v3.241l-5.271-6.144a.762.762,0,0,0-1.156.992l6.427,7.492v5.016a2.709,2.709,0,0,0,2.706,2.706h10.6a2.709,2.709,0,0,0,2.706-2.706v-10.6a2.709,2.709,0,0,0-2.706-2.706ZM43.431,53.531v-3.1a2.03,2.03,0,1,1,4.06,0v3.1Zm.574-8.109a1.456,1.456,0,1,1,1.456,1.456A1.458,1.458,0,0,1,44.005,45.422Zm7.937,6.926a1.184,1.184,0,0,1-1.183,1.183H49.015v-3.1a3.55,3.55,0,0,0-1.474-2.879,2.979,2.979,0,1,0-4.159,0,3.551,3.551,0,0,0-1.474,2.879v3.1H40.163a1.184,1.184,0,0,1-1.183-1.183v-10.6a1.184,1.184,0,0,1,1.183-1.183h10.6a1.184,1.184,0,0,1,1.183,1.183Z" transform="translate(-4.551 -8.33)"/><path d="M56.072,27.7H52.855a2.2,2.2,0,0,0-2.2,2.2v.846H43.533a.762.762,0,0,0,0,1.523h7.121v.847a2.2,2.2,0,0,0,2.2,2.2h3.216a2.2,2.2,0,0,0,2.2-2.2V29.906a2.2,2.2,0,0,0-2.2-2.2Zm.678,5.418a.679.679,0,0,1-.678.678H52.855a.679.679,0,0,1-.678-.678V29.906a.679.679,0,0,1,.678-.678h3.216a.679.679,0,0,1,.678.678Z" transform="translate(-6.31 -6.725)"/></g></g></g></svg>