<svg xmlns="http://www.w3.org/2000/svg" width="610" height="361.499" viewBox="0 0 610 361.499"><g transform="translate(-495 -7668.757)"><path d="M229.5,0,459,341H0Z" transform="translate(561 7668.757)" fill="#faf9ea"/><rect width="190" height="62" rx="31" transform="translate(700 7668.757)" fill="#cbc232"/><rect width="190" height="62" rx="31" transform="translate(495 7967.757)" fill="#21c9b8"/><rect width="190" height="62" rx="31" transform="translate(915 7967.757)" fill="#a5b9f6"/><text transform="translate(539 8004.757)" fill="#12263f" font-size="18" font-family="Roboto-Black, Roboto" font-weight="800"><tspan x="0" y="0">Empleados</tspan></text><text transform="translate(977 8004.757)" fill="#12263f" font-size="18" font-family="Roboto-Black, Roboto" font-weight="800"><tspan x="0" y="0">Clientes</tspan></text><text transform="translate(754 7705.757)" fill="#12263f" font-size="18" font-family="Roboto-Black, Roboto" font-weight="800"><tspan x="0" y="0">Compañía</tspan></text><path d="M-5085,11789h8v-71h-8l20.5-18,20.5,18h-7v71h7l-20.5,18Z" transform="translate(-1464.313 -4739.551) rotate(-34)" fill="#eae7ad"/><path d="M-5085,11789h8v-71h-8l20.5-18,20.5,18h-7v71h7l-20.5,18Z" transform="translate(-10953.5 2945.257) rotate(-90)" fill="#eae7ad"/><path d="M-5085,11789h8v-71h-8l20.5-18,20.5,18h-7v71h7l-20.5,18Z" transform="translate(11456.133 924.512) rotate(34)" fill="#eae7ad"/><g transform="translate(737 7838.757)"><path d="M6.19,1.582H43A4.608,4.608,0,0,1,47.608,6.19V36.6A4.608,4.608,0,0,1,43,41.212H33.97v6.822l-8.731-6.822H6.19A4.608,4.608,0,0,1,1.582,36.6V6.19A4.608,4.608,0,0,1,6.19,1.582Z" fill="#f4fbff"/><path d="M43.138,24.305a8.5,8.5,0,0,0-2.983,6.469v6.819a8.468,8.468,0,0,0,.809,3.619H43A4.608,4.608,0,0,0,47.608,36.6V6.19a4.644,4.644,0,0,0-.037-.556,21.2,21.2,0,0,0-4.433,12.994Z" fill="#dfeaef"/><path d="M46.553,41.641H93.835V71.046H46.553Z" fill="#934d36"/><path d="M77.652,63.376l17.693,4.718a14.916,14.916,0,0,1,11.073,14.412v23.912H33.97V82.506A14.916,14.916,0,0,1,45.043,68.094l17.693-4.718Z" fill="#d3effb"/><path d="M70.194,71.473l3.828,7.895a2.953,2.953,0,0,0,5.419-.242l5.253-13.871-7.042-1.878Z" fill="#f4fbff"/><path d="M70.194,71.473l-3.828,7.895a2.953,2.953,0,0,1-5.419-.242L55.694,65.254l7.042-1.878Z" fill="#f4fbff"/><path d="M96.26,68.373a14.9,14.9,0,0,1,3.552,9.659v28.387h6.606V82.506A14.914,14.914,0,0,0,96.26,68.373Z" fill="#b1e4f9"/><path d="M62.736,64.015v-9.8H77.652v9.8a7.458,7.458,0,1,1-14.916,0Z" fill="#fcd0a3"/><path d="M62.736,59.064a21.306,21.306,0,0,0,14.916,0V54.213H62.737v4.851Z" fill="#ffb983"/><path d="M53.148,21.4V39.1a17.046,17.046,0,0,0,34.093,0V21.4Z" fill="#fcd0a3"/><path d="M87.241,39.1V21.4H83.192v22.16a16.962,16.962,0,0,1-2.6,9.052A17.014,17.014,0,0,0,87.241,39.1Z" fill="#ffb983"/><path d="M47.608,22.89A21.308,21.308,0,0,1,68.916,1.582H75.1a6.392,6.392,0,0,1,6.392,6.392h2.77A8.523,8.523,0,0,1,92.781,16.5V34.183h-5.54L81.487,23.1l-3.044,3.044a8.523,8.523,0,0,1-6.027,2.5H65.956A17.046,17.046,0,0,0,55,32.629l-1.854,1.554h-5.54V22.89Z" fill="#aa593d"/><path d="M86.353,8.235a8.485,8.485,0,0,1,.888,3.788V33.97l-.108,0,.108.209,5.54-.213V16.5a8.526,8.526,0,0,0-6.428-8.263Z" fill="#934d36"/><path d="M91.5,41.854H87.241V26.513H91.5a4.262,4.262,0,0,1,4.262,4.262v6.819A4.262,4.262,0,0,1,91.5,41.854Z" fill="#e28086"/><path d="M48.886,41.854h4.262V26.513H48.886a4.262,4.262,0,0,0-4.262,4.262v6.819a4.262,4.262,0,0,0,4.262,4.262Z" fill="#e28086"/><path d="M50.591,97.895H1.582v-27.7a4.262,4.262,0,0,1,4.262-4.262H46.329a4.262,4.262,0,0,1,4.262,4.262Z" fill="#a0aab7"/><circle cx="4.262" cy="4.262" r="4.262" transform="translate(21.825 77.652)" fill="#f4fbff"/><path d="M1.582,97.895h53.27v4.262a4.262,4.262,0,0,1-4.262,4.262H5.844a4.262,4.262,0,0,1-4.262-4.262Z" fill="#808b95"/><path d="M50.591,97.895v4.262a4.262,4.262,0,0,1-4.262,4.262h4.262a4.262,4.262,0,0,0,4.262-4.262V97.895Z" fill="#5e6b75"/><circle cx="12.785" cy="12.785" r="12.785" transform="translate(11.914 8.612)" fill="#f6e266"/><path d="M106.418,87.667A1.582,1.582,0,0,0,108,86.085V82.506A16.517,16.517,0,0,0,95.753,66.565l-.336-.089V41.927a5.83,5.83,0,0,0,1.929-4.334V30.774a5.847,5.847,0,0,0-2.983-5.093V16.5A10.116,10.116,0,0,0,84.258,6.392H82.912A7.988,7.988,0,0,0,75.1,0H68.916A22.9,22.9,0,0,0,49.19,11.291v-5.1A6.2,6.2,0,0,0,43,0H16.084a1.582,1.582,0,1,0,0,3.164H43a3.031,3.031,0,0,1,3.027,3.027v19.49a5.847,5.847,0,0,0-2.983,5.093v6.819A5.818,5.818,0,0,0,43.4,39.6a3.1,3.1,0,0,1-.4.028H33.97a1.582,1.582,0,0,0-1.582,1.582V44.79l-6.176-4.826a1.583,1.583,0,0,0-.974-.335H6.191A3.029,3.029,0,0,1,3.164,36.6V6.191A3.031,3.031,0,0,1,6.191,3.164h2.5A1.582,1.582,0,0,0,8.694,0h-2.5A6.2,6.2,0,0,0,0,6.191V36.6a6.2,6.2,0,0,0,6.191,6.189h18.5L33,49.28a1.582,1.582,0,0,0,2.556-1.247V42.793H43a6.186,6.186,0,0,0,1.972-.323V64.35H5.844A5.85,5.85,0,0,0,0,70.194V81.682a1.582,1.582,0,1,0,3.164,0V70.194a2.682,2.682,0,0,1,2.68-2.68H46.329a2.682,2.682,0,0,1,2.68,2.68V96.313H3.164V89.068a1.582,1.582,0,0,0-3.164,0v13.088A5.85,5.85,0,0,0,5.844,108H106.418A1.582,1.582,0,0,0,108,106.418V93.475a1.582,1.582,0,0,0-3.164,0v11.36h-10.9V97.895a1.582,1.582,0,0,0-3.164,0v6.941H55.781a5.806,5.806,0,0,0,.653-2.68V97.895a1.582,1.582,0,0,0-1.582-1.582h-2.68V70.194a5.81,5.81,0,0,0-.45-2.246l3-.8,4.748,12.536a4.474,4.474,0,0,0,4.038,2.924c.072,0,.143,0,.215,0a4.469,4.469,0,0,0,4.069-2.557l2.4-4.959,2.4,4.958a4.468,4.468,0,0,0,4.069,2.557c.071,0,.143,0,.215,0a4.474,4.474,0,0,0,4.039-2.924L85.668,67.15l9.27,2.472a13.35,13.35,0,0,1,9.9,12.884v3.579a1.582,1.582,0,0,0,1.582,1.582ZM53.27,102.156a2.683,2.683,0,0,1-2.68,2.68H5.844a2.682,2.682,0,0,1-2.68-2.68v-2.68H53.27ZM92.254,65.632,79.234,62.16V55.387a18.767,18.767,0,0,0,6.207-5.593,3.717,3.717,0,0,0,3.382-3.7V43.436H91.5a5.847,5.847,0,0,0,.751-.05ZM70.194,69.891a5.882,5.882,0,0,1-5.876-5.876V56.782a18.64,18.64,0,0,0,11.751,0v7.233A5.882,5.882,0,0,1,70.194,69.891Zm-9.04-7.731-11.68,3.113a5.823,5.823,0,0,0-1.339-.636V43.386a5.885,5.885,0,0,0,.751.05h3.189a18.7,18.7,0,0,0,9.079,11.95ZM46.206,30.774a2.682,2.682,0,0,1,2.68-2.68h2.68V40.272h-2.68a2.682,2.682,0,0,1-2.68-2.68Zm34.872-5.025,4.58,8.82V39.1a15.367,15.367,0,0,1-1.971,7.543H72.932a3.164,3.164,0,1,0,0,3.164h8.405A15.453,15.453,0,0,1,54.73,39.1V34.921l1.288-1.08a15.489,15.489,0,0,1,9.938-3.616h6.461a10.04,10.04,0,0,0,7.146-2.96ZM91.5,28.095a2.682,2.682,0,0,1,2.68,2.68v6.819a2.682,2.682,0,0,1-2.68,2.68h-2.68V28.095Zm-.3-11.6v8.433H87.241a1.582,1.582,0,0,0-1.582,1.582V27.7L83.07,22.717V9.557h1.188A6.949,6.949,0,0,1,91.2,16.5ZM68.916,3.164H75.1a4.816,4.816,0,0,1,4.81,4.81V22.448l-2.58,2.58a6.9,6.9,0,0,1-4.909,2.033H65.956A18.66,18.66,0,0,0,54.73,30.827V26.513a1.582,1.582,0,0,0-1.582-1.582H49.19V22.89A19.748,19.748,0,0,1,68.916,3.164ZM64.943,78.677a1.371,1.371,0,0,1-2.516-.112L57.794,66.33l3.468-.924a9.065,9.065,0,0,0,6.561,7.331Zm13.019-.112a1.371,1.371,0,0,1-2.516.112l-2.88-5.94a9.065,9.065,0,0,0,6.561-7.331l3.468.925Z"/><path d="M31.93,81.914a5.844,5.844,0,1,0-5.844,5.844A5.85,5.85,0,0,0,31.93,81.914Zm-8.523,0a2.68,2.68,0,1,1,2.68,2.68A2.682,2.682,0,0,1,23.407,81.914Z"/><path d="M30.939,26.791A1.582,1.582,0,0,0,28.7,24.556a5.651,5.651,0,0,1-8,0,1.582,1.582,0,0,0-2.239,2.235,8.815,8.815,0,0,0,12.48,0Z"/><path d="M39.066,21.4A14.367,14.367,0,1,0,24.7,35.764,14.383,14.383,0,0,0,39.066,21.4Zm-25.57,0A11.2,11.2,0,1,1,24.7,32.6,11.216,11.216,0,0,1,13.5,21.4Z"/><circle cx="2.131" cy="2.131" r="2.131" transform="translate(17.665 16.07)"/><circle cx="2.131" cy="2.131" r="2.131" transform="translate(27.471 16.07)"/></g></g></svg>