<svg xmlns="http://www.w3.org/2000/svg" xmlns:xlink="http://www.w3.org/1999/xlink" width="1028.324" height="423.3" viewBox="0 0 1028.324 423.3"><defs><clipPath id="a"><path d="M14.8,0h998.72c8.175,0,14.8,7.1,14.8,15.863V407.437c0,8.761-6.627,15.863-14.8,15.863H14.8C6.627,423.3,0,416.2,0,407.437V15.863C0,7.1,6.627,0,14.8,0Z" transform="translate(-14498.084 -13325.311)" fill="#cbc232"/></clipPath><clipPath id="b"><path d="M385.125,0c212.7,0,385.125,165.141,385.125,368.852S597.824,737.7,385.125,737.7,0,572.564,0,368.852,172.427,0,385.125,0Z" transform="translate(0 0)" fill="#21c9b8"/></clipPath><clipPath id="c"><rect width="562.639" height="562.639" fill="#dee4f0"/></clipPath><clipPath id="d"><rect width="174.606" height="178.181" fill="#fff" stroke="#fff" stroke-width="1"/></clipPath></defs><g transform="translate(14498.084 13325.311)" opacity="0.61" clip-path="url(#a)"><path d="M0,0H1958.007V759.1H0Z" transform="translate(-14597.666 -13375.295)" fill="#f3f9ff"/><path d="M360.082,0C558.95,0,720.165,161.214,720.165,360.082S558.95,720.165,360.082,720.165,0,558.95,0,360.082,161.214,0,360.082,0Z" transform="translate(-13212.232 -13358.536)" fill="#dbe3fb" opacity="0.14"/><path d="M360.082,0C558.95,0,720.165,161.214,720.165,360.082S558.95,720.165,360.082,720.165,0,558.95,0,360.082,161.214,0,360.082,0Z" transform="translate(-14051.47 -12938.252)" fill="#dbe3fb" opacity="0.14"/><path d="M360.082,0C558.95,0,720.165,161.214,720.165,360.082S558.95,720.165,360.082,720.165,0,558.95,0,360.082,161.214,0,360.082,0Z" transform="translate(-13226.376 -13522.811)" fill="#dbe3fb" opacity="0"/><rect width="9.879" height="2.634" transform="translate(-13072.669 -12917.637)" fill="#dbe3fb"/><ellipse cx="359.603" cy="344.409" rx="359.603" ry="344.409" transform="translate(-14113.548 -14019.15)" fill="#94a6dd" opacity="0.13"/><path d="M368.357,0C571.8,0,736.715,157.951,736.715,352.793S571.8,705.586,368.357,705.586,0,547.635,0,352.793,164.919,0,368.357,0Z" transform="translate(-13635.472 -13212.226)" fill="#fff" opacity="0.25"/><path d="M480.474,0C745.832,0,960.947,215.115,960.947,480.474S745.832,960.947,480.474,960.947,0,745.832,0,480.474,215.115,0,480.474,0Z" transform="translate(-14850.658 -12864.773)" fill="#a5b9f6" opacity="0.23" style="mix-blend-mode:multiply;isolation:isolate"/><path d="M480.474,0C745.832,0,960.947,215.115,960.947,480.474S745.832,960.947,480.474,960.947,0,745.832,0,480.474,215.115,0,480.474,0Z" transform="translate(-15286.294 -14003.284)" fill="#a5b9f6" opacity="0.23" style="mix-blend-mode:multiply;isolation:isolate"/><path d="M480.474,0C745.832,0,960.947,215.115,960.947,480.474S745.832,960.947,480.474,960.947,0,745.832,0,480.474,215.115,0,480.474,0Z" transform="translate(-14458.665 -13913.207)" fill="#f6f8fe" opacity="0.51" style="mix-blend-mode:lighten;isolation:isolate"/><g transform="translate(-14540.83 -13774.651)"><g clip-path="url(#c)"><path d="M562.639,281.315c0-9.08-.471-18.045-1.316-26.911H430.7L553.15,208.781a279.921,279.921,0,0,0-18.783-50.452L387.777,212.934l110.589-110.6a283.049,283.049,0,0,0-38.073-38.064L367.91,156.666l54.3-118.806a279.884,279.884,0,0,0-48.958-22.411L308.244,157.679V1.307C299.377.471,290.4,0,281.315,0s-18.054.471-26.92,1.307V131.951L208.781,9.5A278.013,278.013,0,0,0,158.32,28.281l54.605,146.58L102.336,64.272a284.092,284.092,0,0,0-38.073,38.064l92.393,92.393-118.8-54.3a280.182,280.182,0,0,0-22.411,48.958L157.679,254.4H1.307C.471,263.27,0,272.235,0,281.315c0,9.1.471,18.062,1.307,26.929H131.951L9.489,353.858a278.764,278.764,0,0,0,18.783,50.47l146.58-54.614L64.263,460.294a283.114,283.114,0,0,0,38.073,38.073l92.393-92.393-54.3,118.8a280.127,280.127,0,0,0,48.949,22.42l65.019-142.232V561.331c8.867.836,17.84,1.307,26.92,1.307s18.062-.471,26.929-1.307V430.688L353.858,553.15a279.994,279.994,0,0,0,50.461-18.774L349.7,387.786l110.589,110.58a282.078,282.078,0,0,0,38.073-38.073L405.973,367.9l118.8,54.321a281.115,281.115,0,0,0,22.42-48.958L404.959,308.244H561.323c.845-8.867,1.316-17.831,1.316-26.929" fill="#dee4f0" opacity="0.12"/></g></g><path d="M655.464,327.727c0-10.578-.549-21.022-1.533-31.351H501.754l142.655-53.15a326.106,326.106,0,0,0-21.882-58.776L451.754,248.064,580.588,119.22a329.75,329.75,0,0,0-44.354-44.343L428.608,182.512,491.87,44.105A326.062,326.062,0,0,0,434.835,18L359.1,183.694V1.523C348.769.549,338.315,0,327.727,0s-21.032.549-31.362,1.523v152.2L243.226,11.065A323.88,323.88,0,0,0,184.44,32.947L248.054,203.71,119.22,74.876A330.96,330.96,0,0,0,74.866,119.22L182.5,226.856l-138.4-63.262A326.407,326.407,0,0,0,18,220.629l165.7,75.746H1.523C.549,306.705,0,317.149,0,327.727c0,10.6.549,21.042,1.523,31.372h152.2L11.055,412.238a324.755,324.755,0,0,0,21.882,58.8L203.7,407.41,74.866,536.234a329.827,329.827,0,0,0,44.354,44.354L226.856,472.951l-63.262,138.4a326.34,326.34,0,0,0,57.025,26.119l75.746-165.7V653.941c10.329.974,20.783,1.523,31.362,1.523s21.042-.549,31.372-1.523v-152.2l53.14,142.666a326.189,326.189,0,0,0,58.786-21.871L407.4,451.764,536.234,580.588a328.626,328.626,0,0,0,44.354-44.354L472.951,428.6l138.4,63.283a327.493,327.493,0,0,0,26.119-57.035L471.77,359.1H653.93c.984-10.329,1.533-20.773,1.533-31.372" transform="translate(-14325.346 -12916.318)" fill="none" stroke="#fff" stroke-width="1"/><rect width="9.879" height="2.634" transform="translate(-13031.422 -12848.507)" fill="#e9dcbf"/><g transform="translate(-13536.814 -13190.194)" style="isolation:isolate"><g transform="translate(0 0)" clip-path="url(#d)" style="isolation:isolate"><path d="M20.577,0h0A3.429,3.429,0,0,0,17.21,3,16.778,16.778,0,0,1,2.978,17.158,3.434,3.434,0,0,0,3,23.968,16.647,16.647,0,0,1,17.232,38.124a3.389,3.389,0,0,0,6.732.06,16.915,16.915,0,0,1,14.281-14.3,3.277,3.277,0,0,0,2.9-3.225v-.081a3.4,3.4,0,0,0-2.976-3.345A16.916,16.916,0,0,1,23.939,2.967,3.414,3.414,0,0,0,20.577,0" transform="translate(0 0)" fill="#fff" stroke="#fff" stroke-width="1"/><path d="M42.12,0h0a3.429,3.429,0,0,0-3.368,3,16.778,16.778,0,0,1-14.232,14.16,3.434,3.434,0,0,0,.023,6.81A16.647,16.647,0,0,1,38.775,38.124a3.389,3.389,0,0,0,6.732.06,16.915,16.915,0,0,1,14.281-14.3,3.277,3.277,0,0,0,2.9-3.225v-.081a3.4,3.4,0,0,0-2.976-3.345A16.912,16.912,0,0,1,45.484,2.967,3.418,3.418,0,0,0,42.12,0" transform="translate(22.943 0)" fill="#fff" stroke="#fff" stroke-width="1"/><path d="M63.663,0h0A3.429,3.429,0,0,0,60.3,3a16.778,16.778,0,0,1-14.232,14.16,3.434,3.434,0,0,0,.023,6.81A16.647,16.647,0,0,1,60.318,38.124a3.389,3.389,0,0,0,6.732.06,16.915,16.915,0,0,1,14.281-14.3,3.277,3.277,0,0,0,2.9-3.225v-.081a3.4,3.4,0,0,0-2.976-3.345A16.916,16.916,0,0,1,67.025,2.967,3.414,3.414,0,0,0,63.663,0" transform="translate(45.886 0)" fill="#fff" stroke="#fff" stroke-width="1"/><path d="M85.208,0h0A3.429,3.429,0,0,0,81.84,3a16.778,16.778,0,0,1-14.232,14.16,3.434,3.434,0,0,0,.023,6.81A16.647,16.647,0,0,1,81.862,38.124a3.389,3.389,0,0,0,6.732.06,16.915,16.915,0,0,1,14.281-14.3,3.277,3.277,0,0,0,2.9-3.225v-.081a3.4,3.4,0,0,0-2.976-3.345A16.916,16.916,0,0,1,88.569,2.967,3.414,3.414,0,0,0,85.208,0" transform="translate(68.829 0)" fill="#fff" stroke="#fff" stroke-width="1"/><path d="M20.577,22.12h0a3.431,3.431,0,0,0-3.368,3A16.78,16.78,0,0,1,2.978,39.28,3.434,3.434,0,0,0,3,46.09,16.647,16.647,0,0,1,17.232,60.246a3.389,3.389,0,0,0,6.732.058,16.915,16.915,0,0,1,14.281-14.3,3.278,3.278,0,0,0,2.9-3.225V42.7a3.4,3.4,0,0,0-2.976-3.345A16.914,16.914,0,0,1,23.939,25.087a3.414,3.414,0,0,0-3.362-2.967" transform="translate(0 23.557)" fill="#fff" stroke="#fff" stroke-width="1"/><path d="M42.12,22.12h0a3.431,3.431,0,0,0-3.368,3A16.78,16.78,0,0,1,24.521,39.28a3.434,3.434,0,0,0,.023,6.81A16.647,16.647,0,0,1,38.775,60.246a3.389,3.389,0,0,0,6.732.058,16.915,16.915,0,0,1,14.281-14.3,3.278,3.278,0,0,0,2.9-3.225V42.7a3.4,3.4,0,0,0-2.976-3.345,16.91,16.91,0,0,1-14.23-14.265A3.418,3.418,0,0,0,42.12,22.12" transform="translate(22.943 23.557)" fill="#fff" stroke="#fff" stroke-width="1"/><path d="M63.663,22.12h0a3.431,3.431,0,0,0-3.368,3A16.78,16.78,0,0,1,46.064,39.28a3.434,3.434,0,0,0,.023,6.81A16.647,16.647,0,0,1,60.318,60.246a3.389,3.389,0,0,0,6.732.058,16.915,16.915,0,0,1,14.281-14.3,3.278,3.278,0,0,0,2.9-3.225V42.7a3.4,3.4,0,0,0-2.976-3.345A16.914,16.914,0,0,1,67.025,25.087a3.414,3.414,0,0,0-3.362-2.967" transform="translate(45.886 23.557)" fill="#fff" stroke="#fff" stroke-width="1"/><path d="M85.208,22.12h0a3.431,3.431,0,0,0-3.368,3A16.78,16.78,0,0,1,67.608,39.28a3.434,3.434,0,0,0,.023,6.81A16.647,16.647,0,0,1,81.862,60.246a3.389,3.389,0,0,0,6.732.058,16.915,16.915,0,0,1,14.281-14.3,3.278,3.278,0,0,0,2.9-3.225V42.7a3.4,3.4,0,0,0-2.976-3.345A16.914,16.914,0,0,1,88.569,25.087a3.414,3.414,0,0,0-3.362-2.967" transform="translate(68.829 23.557)" fill="#fff" stroke="#fff" stroke-width="1"/><path d="M20.577,44.241h0a3.429,3.429,0,0,0-3.368,3A16.773,16.773,0,0,1,2.978,61.4,3.435,3.435,0,0,0,3,68.209,16.647,16.647,0,0,1,17.232,82.365a3.389,3.389,0,0,0,6.732.06,16.915,16.915,0,0,1,14.281-14.3,3.278,3.278,0,0,0,2.9-3.225v-.081a3.4,3.4,0,0,0-2.976-3.345A16.916,16.916,0,0,1,23.939,47.208a3.414,3.414,0,0,0-3.362-2.967" transform="translate(0 47.115)" fill="#fff" stroke="#fff" stroke-width="1"/><path d="M42.12,44.241h0a3.429,3.429,0,0,0-3.368,3A16.773,16.773,0,0,1,24.521,61.4a3.435,3.435,0,0,0,.023,6.812A16.647,16.647,0,0,1,38.775,82.365a3.389,3.389,0,0,0,6.732.06,16.915,16.915,0,0,1,14.281-14.3,3.278,3.278,0,0,0,2.9-3.225v-.081a3.4,3.4,0,0,0-2.976-3.345,16.912,16.912,0,0,1-14.23-14.265,3.418,3.418,0,0,0-3.364-2.967" transform="translate(22.943 47.115)" fill="#fff" stroke="#fff" stroke-width="1"/><path d="M63.663,44.241h0a3.429,3.429,0,0,0-3.368,3A16.773,16.773,0,0,1,46.064,61.4a3.435,3.435,0,0,0,.023,6.812A16.647,16.647,0,0,1,60.318,82.365a3.389,3.389,0,0,0,6.732.06,16.915,16.915,0,0,1,14.281-14.3,3.278,3.278,0,0,0,2.9-3.225v-.081a3.4,3.4,0,0,0-2.976-3.345A16.916,16.916,0,0,1,67.025,47.208a3.414,3.414,0,0,0-3.362-2.967" transform="translate(45.886 47.115)" fill="#fff" stroke="#fff" stroke-width="1"/><path d="M85.208,44.241h0a3.429,3.429,0,0,0-3.368,3A16.773,16.773,0,0,1,67.608,61.4a3.435,3.435,0,0,0,.023,6.812A16.647,16.647,0,0,1,81.862,82.365a3.389,3.389,0,0,0,6.732.06,16.915,16.915,0,0,1,14.281-14.3,3.278,3.278,0,0,0,2.9-3.225v-.081a3.4,3.4,0,0,0-2.976-3.345A16.916,16.916,0,0,1,88.569,47.208a3.414,3.414,0,0,0-3.362-2.967" transform="translate(68.829 47.115)" fill="#fff" stroke="#fff" stroke-width="1"/><path d="M20.577,66.361h0a3.429,3.429,0,0,0-3.368,3A16.778,16.778,0,0,1,2.978,83.519,3.434,3.434,0,0,0,3,90.329a16.647,16.647,0,0,1,14.232,14.155,3.389,3.389,0,0,0,6.732.06,16.915,16.915,0,0,1,14.281-14.3,3.277,3.277,0,0,0,2.9-3.225v-.081a3.4,3.4,0,0,0-2.976-3.345A16.916,16.916,0,0,1,23.939,69.328a3.414,3.414,0,0,0-3.362-2.967" transform="translate(0 70.672)" fill="#fff" stroke="#fff" stroke-width="1"/><path d="M42.12,66.361h0a3.429,3.429,0,0,0-3.368,3,16.778,16.778,0,0,1-14.232,14.16,3.434,3.434,0,0,0,.023,6.81,16.647,16.647,0,0,1,14.232,14.155,3.389,3.389,0,0,0,6.732.06,16.915,16.915,0,0,1,14.281-14.3,3.277,3.277,0,0,0,2.9-3.225v-.081a3.4,3.4,0,0,0-2.976-3.345,16.912,16.912,0,0,1-14.23-14.265,3.418,3.418,0,0,0-3.364-2.967" transform="translate(22.943 70.672)" fill="#fff" stroke="#fff" stroke-width="1"/><path d="M63.663,66.361h0a3.429,3.429,0,0,0-3.368,3,16.778,16.778,0,0,1-14.232,14.16,3.434,3.434,0,0,0,.023,6.81,16.647,16.647,0,0,1,14.232,14.155,3.389,3.389,0,0,0,6.732.06,16.915,16.915,0,0,1,14.281-14.3,3.277,3.277,0,0,0,2.9-3.225v-.081a3.4,3.4,0,0,0-2.976-3.345A16.916,16.916,0,0,1,67.025,69.328a3.414,3.414,0,0,0-3.362-2.967" transform="translate(45.886 70.672)" fill="#fff" stroke="#fff" stroke-width="1"/><path d="M85.208,66.361h0a3.429,3.429,0,0,0-3.368,3,16.778,16.778,0,0,1-14.232,14.16,3.434,3.434,0,0,0,.023,6.81,16.647,16.647,0,0,1,14.232,14.155,3.389,3.389,0,0,0,6.732.06,16.915,16.915,0,0,1,14.281-14.3,3.277,3.277,0,0,0,2.9-3.225v-.081a3.4,3.4,0,0,0-2.976-3.345A16.916,16.916,0,0,1,88.569,69.328a3.414,3.414,0,0,0-3.362-2.967" transform="translate(68.829 70.672)" fill="#fff" stroke="#fff" stroke-width="1"/></g></g></g></svg>