<svg xmlns="http://www.w3.org/2000/svg" width="1149.661" height="230.759" viewBox="0 0 1149.661 230.759"><g transform="translate(-210.348 -3899)"><path d="M22.426,14.016A1.2,1.2,0,0,0,21.957,13a6.148,6.148,0,0,0-1.687-.75,11.963,11.963,0,0,1-1.93-.777A3.153,3.153,0,0,1,16.4,8.648,2.747,2.747,0,0,1,16.922,7a3.389,3.389,0,0,1,1.492-1.129A5.616,5.616,0,0,1,20.6,5.469a5.112,5.112,0,0,1,2.172.441,3.458,3.458,0,0,1,1.48,1.246,3.261,3.261,0,0,1,.527,1.828H22.434a1.534,1.534,0,0,0-.492-1.215,2.023,2.023,0,0,0-1.383-.434,2.162,2.162,0,0,0-1.336.363,1.146,1.146,0,0,0-.477.957,1.1,1.1,0,0,0,.559.93,6.311,6.311,0,0,0,1.645.7,7.106,7.106,0,0,1,2.914,1.492A2.972,2.972,0,0,1,24.777,14a2.737,2.737,0,0,1-1.117,2.316,4.891,4.891,0,0,1-3.008.84,5.808,5.808,0,0,1-2.391-.48,3.783,3.783,0,0,1-1.645-1.316,3.371,3.371,0,0,1-.566-1.937H18.4q0,1.883,2.25,1.883a2.189,2.189,0,0,0,1.3-.34A1.106,1.106,0,0,0,22.426,14.016Zm3.438-1.32a5.013,5.013,0,0,1,.484-2.242A3.546,3.546,0,0,1,27.742,8.93a4.069,4.069,0,0,1,2.113-.539,3.849,3.849,0,0,1,2.793,1.047,4.2,4.2,0,0,1,1.207,2.844l.016.578a4.418,4.418,0,0,1-1.086,3.121,3.775,3.775,0,0,1-2.914,1.176,3.793,3.793,0,0,1-2.918-1.172,4.5,4.5,0,0,1-1.09-3.187Zm2.258.164a3.151,3.151,0,0,0,.453,1.84,1.629,1.629,0,0,0,2.578.008,3.448,3.448,0,0,0,.461-2.012,3.12,3.12,0,0,0-.461-1.828,1.5,1.5,0,0,0-1.3-.648,1.475,1.475,0,0,0-1.281.645A3.506,3.506,0,0,0,28.121,12.859ZM37.645,17H35.379V5h2.266Zm4.242,0H39.621V8.547h2.266Zm-2.4-10.641a1.112,1.112,0,0,1,.34-.836,1.465,1.465,0,0,1,1.848,0,1.105,1.105,0,0,1,.344.836,1.108,1.108,0,0,1-.348.844,1.448,1.448,0,0,1-1.836,0A1.108,1.108,0,0,1,39.488,6.359Zm7.773,8.977a1.481,1.481,0,0,0,1.016-.344,1.2,1.2,0,0,0,.406-.914H50.8a2.9,2.9,0,0,1-.469,1.574,3.093,3.093,0,0,1-1.262,1.109,3.949,3.949,0,0,1-1.77.395A3.67,3.67,0,0,1,44.441,16a4.56,4.56,0,0,1-1.047-3.184v-.148a4.508,4.508,0,0,1,1.039-3.117,3.627,3.627,0,0,1,2.852-1.164,3.555,3.555,0,0,1,2.543.9,3.2,3.2,0,0,1,.973,2.4H48.684a1.539,1.539,0,0,0-.406-1.066,1.513,1.513,0,0,0-2.223.164,3.324,3.324,0,0,0-.4,1.863v.234a3.366,3.366,0,0,0,.4,1.875A1.378,1.378,0,0,0,47.262,15.336ZM54.473,17H52.207V8.547h2.266Zm-2.4-10.641a1.112,1.112,0,0,1,.34-.836,1.465,1.465,0,0,1,1.848,0,1.105,1.105,0,0,1,.344.836,1.108,1.108,0,0,1-.348.844,1.448,1.448,0,0,1-1.836,0A1.108,1.108,0,0,1,52.074,6.359Zm6.961.109V8.547H60.48V10.2H59.035v4.219a1.007,1.007,0,0,0,.18.672.9.9,0,0,0,.688.2,3.6,3.6,0,0,0,.664-.055v1.711a4.648,4.648,0,0,1-1.367.2,2.156,2.156,0,0,1-2.422-2.4V10.2H55.543V8.547h1.234V6.469ZM66.8,16.141a2.831,2.831,0,0,1-2.312,1.016,2.67,2.67,0,0,1-2.074-.781,3.335,3.335,0,0,1-.73-2.289V8.547h2.258v5.461q0,1.32,1.2,1.32a1.631,1.631,0,0,0,1.578-.8V8.547h2.266V17H66.863Zm3.539-3.43a5.094,5.094,0,0,1,.887-3.148,2.877,2.877,0,0,1,2.426-1.172,2.589,2.589,0,0,1,2.039.922V5h2.266V17H75.918l-.109-.9a2.657,2.657,0,0,1-2.172,1.055,2.869,2.869,0,0,1-2.395-1.176A5.258,5.258,0,0,1,70.34,12.711Zm2.258.164a3.328,3.328,0,0,0,.414,1.82,1.349,1.349,0,0,0,1.2.633,1.511,1.511,0,0,0,1.477-.883V11.109a1.489,1.489,0,0,0-1.461-.883Q72.6,10.227,72.6,12.875Zm10.742-.164a5.094,5.094,0,0,1,.887-3.148,2.877,2.877,0,0,1,2.426-1.172,2.589,2.589,0,0,1,2.039.922V5h2.266V17H88.918l-.109-.9a2.657,2.657,0,0,1-2.172,1.055,2.869,2.869,0,0,1-2.395-1.176A5.258,5.258,0,0,1,83.34,12.711Zm2.258.164a3.328,3.328,0,0,0,.414,1.82,1.349,1.349,0,0,0,1.2.633,1.511,1.511,0,0,0,1.477-.883V11.109a1.489,1.489,0,0,0-1.461-.883Q85.6,10.227,85.6,12.875Zm11,4.281a4.15,4.15,0,0,1-3.027-1.141A4.054,4.054,0,0,1,92.4,12.977v-.219a5.106,5.106,0,0,1,.492-2.277,3.612,3.612,0,0,1,1.395-1.547,3.914,3.914,0,0,1,2.059-.543,3.508,3.508,0,0,1,2.73,1.094,4.444,4.444,0,0,1,1,3.1v.922H94.691a2.1,2.1,0,0,0,.66,1.328,2,2,0,0,0,1.395.5,2.437,2.437,0,0,0,2.039-.945l1.109,1.242a3.389,3.389,0,0,1-1.375,1.121A4.511,4.511,0,0,1,96.6,17.156Zm-.258-6.937a1.414,1.414,0,0,0-1.09.453,2.341,2.341,0,0,0-.535,1.3h3.141v-.18a1.669,1.669,0,0,0-.406-1.16A1.459,1.459,0,0,0,96.34,10.219ZM28.633,32.992V37H26.289V25.625h4.438a5.134,5.134,0,0,1,2.254.469,3.454,3.454,0,0,1,1.5,1.332A3.714,3.714,0,0,1,35,29.391a3.266,3.266,0,0,1-1.145,2.637,4.767,4.767,0,0,1-3.168.965Zm0-1.9h2.094a2.059,2.059,0,0,0,1.418-.437,1.591,1.591,0,0,0,.488-1.25,1.876,1.876,0,0,0-.492-1.352,1.839,1.839,0,0,0-1.359-.531H28.633Zm12.578-.43A6.134,6.134,0,0,0,40.4,30.6a1.654,1.654,0,0,0-1.68.867V37H36.461V28.547h2.133l.063,1.008a2.092,2.092,0,0,1,1.883-1.164,2.366,2.366,0,0,1,.7.1Zm.453,2.031a5.013,5.013,0,0,1,.484-2.242,3.546,3.546,0,0,1,1.395-1.523,4.069,4.069,0,0,1,2.113-.539,3.849,3.849,0,0,1,2.793,1.047,4.2,4.2,0,0,1,1.207,2.844l.016.578a4.418,4.418,0,0,1-1.086,3.121,4.209,4.209,0,0,1-5.832,0,4.5,4.5,0,0,1-1.09-3.187Zm2.258.164a3.151,3.151,0,0,0,.453,1.84,1.629,1.629,0,0,0,2.578.008,3.448,3.448,0,0,0,.461-2.012,3.12,3.12,0,0,0-.461-1.828,1.5,1.5,0,0,0-1.3-.648,1.475,1.475,0,0,0-1.281.645A3.506,3.506,0,0,0,43.922,32.859Zm6.789-.148a5.094,5.094,0,0,1,.887-3.148,2.877,2.877,0,0,1,2.426-1.172,2.589,2.589,0,0,1,2.039.922V25h2.266V37H56.289l-.109-.9a2.657,2.657,0,0,1-2.172,1.055,2.869,2.869,0,0,1-2.395-1.176A5.258,5.258,0,0,1,50.711,32.711Zm2.258.164a3.328,3.328,0,0,0,.414,1.82,1.349,1.349,0,0,0,1.2.633,1.511,1.511,0,0,0,1.477-.883V31.109a1.489,1.489,0,0,0-1.461-.883Q52.969,30.227,52.969,32.875Zm12.172,3.266a2.831,2.831,0,0,1-2.312,1.016,2.67,2.67,0,0,1-2.074-.781,3.335,3.335,0,0,1-.73-2.289V28.547h2.258v5.461q0,1.32,1.2,1.32a1.631,1.631,0,0,0,1.578-.8V28.547h2.266V37H65.2Zm7.406-.8a1.481,1.481,0,0,0,1.016-.344,1.2,1.2,0,0,0,.406-.914h2.117a2.9,2.9,0,0,1-.469,1.574,3.093,3.093,0,0,1-1.262,1.109,3.949,3.949,0,0,1-1.77.395A3.67,3.67,0,0,1,69.727,36,4.56,4.56,0,0,1,68.68,32.82v-.148a4.508,4.508,0,0,1,1.039-3.117,3.627,3.627,0,0,1,2.852-1.164,3.555,3.555,0,0,1,2.543.9,3.2,3.2,0,0,1,.973,2.4H73.969a1.539,1.539,0,0,0-.406-1.066,1.513,1.513,0,0,0-2.223.164,3.324,3.324,0,0,0-.4,1.863v.234a3.366,3.366,0,0,0,.4,1.875A1.378,1.378,0,0,0,72.547,35.336Zm7.531-8.867v2.078h1.445V30.2H80.078v4.219a1.007,1.007,0,0,0,.18.672.9.9,0,0,0,.688.2,3.6,3.6,0,0,0,.664-.055v1.711a4.648,4.648,0,0,1-1.367.2,2.156,2.156,0,0,1-2.422-2.4V30.2H76.586V28.547H77.82V26.469ZM82.2,32.7a5.013,5.013,0,0,1,.484-2.242,3.546,3.546,0,0,1,1.395-1.523,4.069,4.069,0,0,1,2.113-.539,3.849,3.849,0,0,1,2.793,1.047,4.2,4.2,0,0,1,1.207,2.844l.016.578a4.418,4.418,0,0,1-1.086,3.121,4.209,4.209,0,0,1-5.832,0A4.5,4.5,0,0,1,82.2,32.8Zm2.258.164a3.151,3.151,0,0,0,.453,1.84,1.629,1.629,0,0,0,2.578.008,3.448,3.448,0,0,0,.461-2.012,3.12,3.12,0,0,0-.461-1.828,1.5,1.5,0,0,0-1.3-.648,1.475,1.475,0,0,0-1.281.645A3.506,3.506,0,0,0,84.453,32.859Z" transform="translate(288 4071.759)" fill="#12263f"/><path d="M25.309,14.656H21.2L20.418,17H17.926L22.16,5.625h2.172L28.59,17H26.1Zm-3.477-1.9h2.844L23.246,8.5ZM33.02,15.336a1.481,1.481,0,0,0,1.016-.344,1.2,1.2,0,0,0,.406-.914h2.117a2.9,2.9,0,0,1-.469,1.574,3.093,3.093,0,0,1-1.262,1.109,3.949,3.949,0,0,1-1.77.395A3.67,3.67,0,0,1,30.2,16a4.56,4.56,0,0,1-1.047-3.184v-.148a4.508,4.508,0,0,1,1.039-3.117,3.627,3.627,0,0,1,2.852-1.164,3.555,3.555,0,0,1,2.543.9,3.2,3.2,0,0,1,.973,2.4H34.441a1.539,1.539,0,0,0-.406-1.066,1.513,1.513,0,0,0-2.223.164,3.324,3.324,0,0,0-.4,1.863v.234a3.366,3.366,0,0,0,.4,1.875A1.378,1.378,0,0,0,33.02,15.336Zm9.891.8A2.831,2.831,0,0,1,40.6,17.156a2.67,2.67,0,0,1-2.074-.781,3.335,3.335,0,0,1-.73-2.289V8.547h2.258v5.461q0,1.32,1.2,1.32a1.631,1.631,0,0,0,1.578-.8V8.547H45.1V17H42.973Zm7.781,1.016a4.15,4.15,0,0,1-3.027-1.141A4.054,4.054,0,0,1,46.5,12.977v-.219a5.106,5.106,0,0,1,.492-2.277,3.612,3.612,0,0,1,1.395-1.547,3.914,3.914,0,0,1,2.059-.543,3.508,3.508,0,0,1,2.73,1.094,4.444,4.444,0,0,1,1,3.1v.922H48.785a2.1,2.1,0,0,0,.66,1.328,2,2,0,0,0,1.395.5,2.437,2.437,0,0,0,2.039-.945l1.109,1.242a3.389,3.389,0,0,1-1.375,1.121A4.511,4.511,0,0,1,50.691,17.156Zm-.258-6.937a1.414,1.414,0,0,0-1.09.453,2.341,2.341,0,0,0-.535,1.3h3.141v-.18a1.669,1.669,0,0,0-.406-1.16A1.459,1.459,0,0,0,50.434,10.219Zm9.766.445a6.134,6.134,0,0,0-.812-.062,1.654,1.654,0,0,0-1.68.867V17H55.449V8.547h2.133l.063,1.008a2.092,2.092,0,0,1,1.883-1.164,2.366,2.366,0,0,1,.7.1Zm.734,2.047a5.094,5.094,0,0,1,.887-3.148,2.877,2.877,0,0,1,2.426-1.172,2.589,2.589,0,0,1,2.039.922V5h2.266V17H66.512l-.109-.9a2.657,2.657,0,0,1-2.172,1.055,2.869,2.869,0,0,1-2.395-1.176A5.258,5.258,0,0,1,60.934,12.711Zm2.258.164a3.328,3.328,0,0,0,.414,1.82,1.349,1.349,0,0,0,1.2.633,1.511,1.511,0,0,0,1.477-.883V11.109a1.489,1.489,0,0,0-1.461-.883Q63.191,10.227,63.191,12.875Zm6.758-.18a5.013,5.013,0,0,1,.484-2.242A3.546,3.546,0,0,1,71.828,8.93a4.069,4.069,0,0,1,2.113-.539,3.849,3.849,0,0,1,2.793,1.047,4.2,4.2,0,0,1,1.207,2.844l.016.578a4.418,4.418,0,0,1-1.086,3.121,4.209,4.209,0,0,1-5.832,0,4.5,4.5,0,0,1-1.09-3.187Zm2.258.164a3.151,3.151,0,0,0,.453,1.84,1.629,1.629,0,0,0,2.578.008A3.448,3.448,0,0,0,75.7,12.7a3.12,3.12,0,0,0-.461-1.828,1.5,1.5,0,0,0-1.3-.648,1.475,1.475,0,0,0-1.281.645A3.506,3.506,0,0,0,72.207,12.859Zm10.773-.148a5.094,5.094,0,0,1,.887-3.148,2.877,2.877,0,0,1,2.426-1.172,2.589,2.589,0,0,1,2.039.922V5H90.6V17H88.559l-.109-.9a2.657,2.657,0,0,1-2.172,1.055,2.869,2.869,0,0,1-2.395-1.176A5.258,5.258,0,0,1,82.98,12.711Zm2.258.164a3.328,3.328,0,0,0,.414,1.82,1.349,1.349,0,0,0,1.2.633,1.511,1.511,0,0,0,1.477-.883V11.109a1.489,1.489,0,0,0-1.461-.883Q85.238,10.227,85.238,12.875Zm11,4.281a4.15,4.15,0,0,1-3.027-1.141,4.054,4.054,0,0,1-1.168-3.039v-.219a5.106,5.106,0,0,1,.492-2.277A3.612,3.612,0,0,1,93.93,8.934a3.914,3.914,0,0,1,2.059-.543,3.508,3.508,0,0,1,2.73,1.094,4.444,4.444,0,0,1,1,3.1v.922H94.332a2.1,2.1,0,0,0,.66,1.328,2,2,0,0,0,1.395.5,2.437,2.437,0,0,0,2.039-.945l1.109,1.242a3.389,3.389,0,0,1-1.375,1.121A4.511,4.511,0,0,1,96.238,17.156Zm-.258-6.937a1.414,1.414,0,0,0-1.09.453,2.341,2.341,0,0,0-.535,1.3H97.5v-.18a1.669,1.669,0,0,0-.406-1.16A1.459,1.459,0,0,0,95.98,10.219ZM36.152,37.156a4.15,4.15,0,0,1-3.027-1.141,4.054,4.054,0,0,1-1.168-3.039v-.219a5.106,5.106,0,0,1,.492-2.277,3.612,3.612,0,0,1,1.395-1.547,3.914,3.914,0,0,1,2.059-.543,3.508,3.508,0,0,1,2.73,1.094,4.444,4.444,0,0,1,1,3.1v.922H34.246a2.1,2.1,0,0,0,.66,1.328,2,2,0,0,0,1.395.5,2.437,2.437,0,0,0,2.039-.945l1.109,1.242a3.389,3.389,0,0,1-1.375,1.121A4.511,4.511,0,0,1,36.152,37.156Zm-.258-6.937a1.414,1.414,0,0,0-1.09.453,2.341,2.341,0,0,0-.535,1.3H37.41v-.18A1.669,1.669,0,0,0,37,30.629,1.459,1.459,0,0,0,35.895,30.219Zm7.094-1.672.07.977a2.951,2.951,0,0,1,2.43-1.133,2.453,2.453,0,0,1,2,.789,3.682,3.682,0,0,1,.672,2.359V37H45.9V31.594a1.465,1.465,0,0,0-.312-1.043,1.4,1.4,0,0,0-1.039-.324,1.553,1.553,0,0,0-1.43.813V37H40.863V28.547Zm9.586-2.078v2.078H54.02V30.2H52.574v4.219a1.007,1.007,0,0,0,.18.672.9.9,0,0,0,.688.2,3.6,3.6,0,0,0,.664-.055v1.711a4.648,4.648,0,0,1-1.367.2,2.156,2.156,0,0,1-2.422-2.4V30.2H49.082V28.547h1.234V26.469Zm7.453,4.2a6.134,6.134,0,0,0-.812-.062,1.654,1.654,0,0,0-1.68.867V37H55.277V28.547H57.41l.063,1.008a2.092,2.092,0,0,1,1.883-1.164,2.366,2.366,0,0,1,.7.1ZM65,37.156a4.15,4.15,0,0,1-3.027-1.141,4.054,4.054,0,0,1-1.168-3.039v-.219A5.106,5.106,0,0,1,61.3,30.48,3.612,3.612,0,0,1,62.7,28.934a3.914,3.914,0,0,1,2.059-.543,3.508,3.508,0,0,1,2.73,1.094,4.444,4.444,0,0,1,1,3.1v.922H63.1a2.1,2.1,0,0,0,.66,1.328,2,2,0,0,0,1.395.5,2.437,2.437,0,0,0,2.039-.945L68.3,35.633a3.389,3.389,0,0,1-1.375,1.121A4.511,4.511,0,0,1,65,37.156Zm-.258-6.937a1.414,1.414,0,0,0-1.09.453,2.341,2.341,0,0,0-.535,1.3h3.141v-.18a1.669,1.669,0,0,0-.406-1.16A1.459,1.459,0,0,0,64.746,30.219Zm4.688,2.492a4.954,4.954,0,0,1,.926-3.133,3,3,0,0,1,2.5-1.187,2.631,2.631,0,0,1,2.164.953l.094-.8H77.16v8.172a3.613,3.613,0,0,1-.5,1.93,3.236,3.236,0,0,1-1.418,1.25,4.985,4.985,0,0,1-2.141.43,4.635,4.635,0,0,1-1.812-.371A3.217,3.217,0,0,1,69.949,39l1-1.375A2.645,2.645,0,0,0,73,38.57a1.936,1.936,0,0,0,1.4-.48,1.8,1.8,0,0,0,.5-1.363v-.453a2.612,2.612,0,0,1-2.055.883,2.992,2.992,0,0,1-2.465-1.191,4.953,4.953,0,0,1-.941-3.16Zm2.258.164a3.076,3.076,0,0,0,.461,1.8,1.467,1.467,0,0,0,1.266.652,1.568,1.568,0,0,0,1.477-.773V31a1.565,1.565,0,0,0-1.461-.773,1.476,1.476,0,0,0-1.277.664A3.467,3.467,0,0,0,71.691,32.875ZM83.793,37a2.507,2.507,0,0,1-.227-.758,2.732,2.732,0,0,1-2.133.914,3,3,0,0,1-2.059-.719,2.312,2.312,0,0,1-.816-1.812,2.389,2.389,0,0,1,1-2.062,4.915,4.915,0,0,1,2.879-.727h1.039v-.484a1.393,1.393,0,0,0-.3-.937,1.183,1.183,0,0,0-.949-.352,1.345,1.345,0,0,0-.895.273.929.929,0,0,0-.324.75H78.746a2.268,2.268,0,0,1,.453-1.359,3,3,0,0,1,1.281-.98,4.669,4.669,0,0,1,1.859-.355,3.689,3.689,0,0,1,2.48.785,2.747,2.747,0,0,1,.918,2.207v3.664a4.041,4.041,0,0,0,.336,1.82V37Zm-1.867-1.57a1.945,1.945,0,0,0,.922-.223,1.462,1.462,0,0,0,.625-.6V33.156h-.844q-1.7,0-1.8,1.172l-.008.133a.9.9,0,0,0,.3.7A1.153,1.153,0,0,0,81.926,35.43Z" transform="translate(442.339 4071.759)" fill="#12263f"/><path d="M22.7,12.992V17H20.356V5.625h4.438a5.134,5.134,0,0,1,2.254.469,3.454,3.454,0,0,1,1.5,1.332,3.714,3.714,0,0,1,.523,1.965,3.266,3.266,0,0,1-1.145,2.637,4.767,4.767,0,0,1-3.168.965Zm0-1.9h2.094a2.059,2.059,0,0,0,1.418-.437,1.591,1.591,0,0,0,.488-1.25,1.876,1.876,0,0,0-.492-1.352,1.839,1.839,0,0,0-1.359-.531H22.7ZM35.34,17a2.507,2.507,0,0,1-.227-.758,2.732,2.732,0,0,1-2.133.914,3,3,0,0,1-2.059-.719,2.312,2.312,0,0,1-.816-1.812,2.389,2.389,0,0,1,1-2.062,4.915,4.915,0,0,1,2.879-.727H35.02v-.484a1.393,1.393,0,0,0-.3-.937,1.183,1.183,0,0,0-.949-.352,1.345,1.345,0,0,0-.895.273.929.929,0,0,0-.324.75H30.293a2.268,2.268,0,0,1,.453-1.359,3,3,0,0,1,1.281-.98,4.669,4.669,0,0,1,1.859-.355,3.689,3.689,0,0,1,2.48.785,2.747,2.747,0,0,1,.918,2.207v3.664a4.041,4.041,0,0,0,.336,1.82V17Zm-1.867-1.57a1.945,1.945,0,0,0,.922-.223,1.462,1.462,0,0,0,.625-.6V13.156h-.844q-1.7,0-1.8,1.172l-.008.133a.9.9,0,0,0,.3.7A1.153,1.153,0,0,0,33.473,15.43Zm5.219-2.719a4.954,4.954,0,0,1,.926-3.133,3,3,0,0,1,2.5-1.187,2.631,2.631,0,0,1,2.164.953l.094-.8h2.047v8.172a3.613,3.613,0,0,1-.5,1.93A3.236,3.236,0,0,1,44.5,19.9a4.985,4.985,0,0,1-2.141.43,4.635,4.635,0,0,1-1.812-.371A3.217,3.217,0,0,1,39.208,19l1-1.375a2.645,2.645,0,0,0,2.047.945,1.936,1.936,0,0,0,1.4-.48,1.8,1.8,0,0,0,.5-1.363v-.453a2.612,2.612,0,0,1-2.055.883,2.992,2.992,0,0,1-2.465-1.191,4.953,4.953,0,0,1-.941-3.16Zm2.258.164a3.076,3.076,0,0,0,.461,1.8,1.467,1.467,0,0,0,1.266.652,1.568,1.568,0,0,0,1.477-.773V11a1.565,1.565,0,0,0-1.461-.773,1.476,1.476,0,0,0-1.277.664A3.467,3.467,0,0,0,40.95,12.875ZM47.8,12.7a5.013,5.013,0,0,1,.484-2.242A3.546,3.546,0,0,1,49.68,8.93a4.069,4.069,0,0,1,2.113-.539,3.849,3.849,0,0,1,2.793,1.047,4.2,4.2,0,0,1,1.207,2.844l.016.578a4.418,4.418,0,0,1-1.086,3.121,4.209,4.209,0,0,1-5.832,0A4.5,4.5,0,0,1,47.8,12.8Zm2.258.164a3.151,3.151,0,0,0,.453,1.84,1.629,1.629,0,0,0,2.578.008,3.448,3.448,0,0,0,.461-2.012,3.12,3.12,0,0,0-.461-1.828,1.5,1.5,0,0,0-1.3-.648,1.475,1.475,0,0,0-1.281.645A3.506,3.506,0,0,0,50.059,12.859Zm10.773-.148a5.094,5.094,0,0,1,.887-3.148,2.877,2.877,0,0,1,2.426-1.172,2.589,2.589,0,0,1,2.039.922V5H68.45V17H66.411l-.109-.9a2.657,2.657,0,0,1-2.172,1.055,2.869,2.869,0,0,1-2.395-1.176A5.258,5.258,0,0,1,60.833,12.711Zm2.258.164A3.328,3.328,0,0,0,63.5,14.7a1.349,1.349,0,0,0,1.2.633,1.511,1.511,0,0,0,1.477-.883V11.109a1.489,1.489,0,0,0-1.461-.883Q63.09,10.227,63.09,12.875Zm11,4.281a4.15,4.15,0,0,1-3.027-1.141A4.054,4.054,0,0,1,69.9,12.977v-.219a5.106,5.106,0,0,1,.492-2.277,3.612,3.612,0,0,1,1.395-1.547,3.914,3.914,0,0,1,2.059-.543,3.508,3.508,0,0,1,2.73,1.094,4.444,4.444,0,0,1,1,3.1v.922H72.184a2.1,2.1,0,0,0,.66,1.328,2,2,0,0,0,1.395.5,2.437,2.437,0,0,0,2.039-.945l1.109,1.242a3.389,3.389,0,0,1-1.375,1.121A4.511,4.511,0,0,1,74.09,17.156Zm-.258-6.937a1.414,1.414,0,0,0-1.09.453,2.341,2.341,0,0,0-.535,1.3h3.141v-.18a1.669,1.669,0,0,0-.406-1.16A1.459,1.459,0,0,0,73.833,10.219ZM19.293,32.992V37H16.95V25.625h4.438a5.134,5.134,0,0,1,2.254.469,3.454,3.454,0,0,1,1.5,1.332,3.714,3.714,0,0,1,.523,1.965,3.266,3.266,0,0,1-1.145,2.637,4.767,4.767,0,0,1-3.168.965Zm0-1.9h2.094a2.059,2.059,0,0,0,1.418-.437,1.591,1.591,0,0,0,.488-1.25,1.876,1.876,0,0,0-.492-1.352,1.839,1.839,0,0,0-1.359-.531H19.293Zm12.578-.43a6.134,6.134,0,0,0-.812-.062,1.654,1.654,0,0,0-1.68.867V37H27.122V28.547h2.133l.063,1.008A2.092,2.092,0,0,1,31.2,28.391a2.366,2.366,0,0,1,.7.1Zm.453,2.031a5.013,5.013,0,0,1,.484-2.242A3.546,3.546,0,0,1,34.2,28.93a4.069,4.069,0,0,1,2.113-.539,3.849,3.849,0,0,1,2.793,1.047,4.2,4.2,0,0,1,1.207,2.844l.016.578a4.418,4.418,0,0,1-1.086,3.121,4.209,4.209,0,0,1-5.832,0,4.5,4.5,0,0,1-1.09-3.187Zm2.258.164a3.151,3.151,0,0,0,.453,1.84,1.629,1.629,0,0,0,2.578.008,3.448,3.448,0,0,0,.461-2.012,3.12,3.12,0,0,0-.461-1.828,1.5,1.5,0,0,0-1.3-.648,1.475,1.475,0,0,0-1.281.645A3.506,3.506,0,0,0,34.583,32.859Zm6.789-.148a5.094,5.094,0,0,1,.887-3.148,2.877,2.877,0,0,1,2.426-1.172,2.589,2.589,0,0,1,2.039.922V25h2.266V37H46.95l-.109-.9a2.657,2.657,0,0,1-2.172,1.055,2.869,2.869,0,0,1-2.395-1.176A5.258,5.258,0,0,1,41.372,32.711Zm2.258.164a3.328,3.328,0,0,0,.414,1.82,1.349,1.349,0,0,0,1.2.633,1.511,1.511,0,0,0,1.477-.883V31.109a1.489,1.489,0,0,0-1.461-.883Q43.629,30.227,43.629,32.875ZM55.8,36.141a2.831,2.831,0,0,1-2.312,1.016,2.67,2.67,0,0,1-2.074-.781,3.335,3.335,0,0,1-.73-2.289V28.547h2.258v5.461q0,1.32,1.2,1.32a1.631,1.631,0,0,0,1.578-.8V28.547h2.266V37H55.864Zm7.406-.8a1.481,1.481,0,0,0,1.016-.344,1.2,1.2,0,0,0,.406-.914h2.117a2.9,2.9,0,0,1-.469,1.574,3.093,3.093,0,0,1-1.262,1.109,3.949,3.949,0,0,1-1.77.395A3.67,3.67,0,0,1,60.387,36,4.56,4.56,0,0,1,59.34,32.82v-.148a4.508,4.508,0,0,1,1.039-3.117,3.627,3.627,0,0,1,2.852-1.164,3.555,3.555,0,0,1,2.543.9,3.2,3.2,0,0,1,.973,2.4H64.629a1.539,1.539,0,0,0-.406-1.066A1.513,1.513,0,0,0,62,30.793a3.324,3.324,0,0,0-.4,1.863v.234a3.366,3.366,0,0,0,.4,1.875A1.378,1.378,0,0,0,63.208,35.336Zm7.531-8.867v2.078h1.445V30.2H70.739v4.219a1.007,1.007,0,0,0,.18.672.9.9,0,0,0,.688.2,3.6,3.6,0,0,0,.664-.055v1.711a4.648,4.648,0,0,1-1.367.2,2.156,2.156,0,0,1-2.422-2.4V30.2H67.247V28.547h1.234V26.469ZM72.856,32.7a5.013,5.013,0,0,1,.484-2.242,3.546,3.546,0,0,1,1.395-1.523,4.069,4.069,0,0,1,2.113-.539,3.849,3.849,0,0,1,2.793,1.047,4.2,4.2,0,0,1,1.207,2.844l.016.578a4.418,4.418,0,0,1-1.086,3.121,4.209,4.209,0,0,1-5.832,0,4.5,4.5,0,0,1-1.09-3.187Zm2.258.164a3.151,3.151,0,0,0,.453,1.84,1.629,1.629,0,0,0,2.578.008,3.448,3.448,0,0,0,.461-2.012,3.12,3.12,0,0,0-.461-1.828,1.5,1.5,0,0,0-1.3-.648,1.475,1.475,0,0,0-1.281.645A3.506,3.506,0,0,0,75.114,32.859Z" transform="translate(619 4071.759)" fill="#12263f"/><path d="M33.637,12.992V17H31.293V5.625H35.73a5.134,5.134,0,0,1,2.254.469,3.454,3.454,0,0,1,1.5,1.332A3.714,3.714,0,0,1,40,9.391a3.266,3.266,0,0,1-1.145,2.637,4.767,4.767,0,0,1-3.168.965Zm0-1.9H35.73a2.059,2.059,0,0,0,1.418-.437,1.591,1.591,0,0,0,.488-1.25,1.876,1.876,0,0,0-.492-1.352,1.839,1.839,0,0,0-1.359-.531H33.637Zm12.578-.43A6.134,6.134,0,0,0,45.4,10.6a1.654,1.654,0,0,0-1.68.867V17H41.465V8.547H43.6l.063,1.008a2.092,2.092,0,0,1,1.883-1.164,2.366,2.366,0,0,1,.7.1Zm.453,2.031a5.013,5.013,0,0,1,.484-2.242A3.546,3.546,0,0,1,48.547,8.93a4.069,4.069,0,0,1,2.113-.539,3.849,3.849,0,0,1,2.793,1.047,4.2,4.2,0,0,1,1.207,2.844l.016.578A4.418,4.418,0,0,1,53.59,15.98a4.209,4.209,0,0,1-5.832,0,4.5,4.5,0,0,1-1.09-3.187Zm2.258.164a3.151,3.151,0,0,0,.453,1.84,1.629,1.629,0,0,0,2.578.008,3.448,3.448,0,0,0,.461-2.012,3.12,3.12,0,0,0-.461-1.828,1.5,1.5,0,0,0-1.3-.648,1.475,1.475,0,0,0-1.281.645A3.506,3.506,0,0,0,48.926,12.859Zm6.789-.148A5.094,5.094,0,0,1,56.6,9.563a2.877,2.877,0,0,1,2.426-1.172,2.589,2.589,0,0,1,2.039.922V5h2.266V17H61.293l-.109-.9a2.657,2.657,0,0,1-2.172,1.055,2.869,2.869,0,0,1-2.395-1.176A5.258,5.258,0,0,1,55.715,12.711Zm2.258.164a3.328,3.328,0,0,0,.414,1.82,1.349,1.349,0,0,0,1.2.633,1.511,1.511,0,0,0,1.477-.883V11.109a1.489,1.489,0,0,0-1.461-.883Q57.973,10.227,57.973,12.875Zm12.172,3.266a2.831,2.831,0,0,1-2.312,1.016,2.67,2.67,0,0,1-2.074-.781,3.335,3.335,0,0,1-.73-2.289V8.547h2.258v5.461q0,1.32,1.2,1.32a1.631,1.631,0,0,0,1.578-.8V8.547h2.266V17H70.207Zm7.406-.8a1.481,1.481,0,0,0,1.016-.344,1.2,1.2,0,0,0,.406-.914H81.09a2.9,2.9,0,0,1-.469,1.574,3.093,3.093,0,0,1-1.262,1.109,3.949,3.949,0,0,1-1.77.395A3.67,3.67,0,0,1,74.73,16a4.56,4.56,0,0,1-1.047-3.184v-.148a4.508,4.508,0,0,1,1.039-3.117,3.627,3.627,0,0,1,2.852-1.164,3.555,3.555,0,0,1,2.543.9,3.2,3.2,0,0,1,.973,2.4H78.973a1.539,1.539,0,0,0-.406-1.066,1.513,1.513,0,0,0-2.223.164,3.324,3.324,0,0,0-.4,1.863v.234a3.366,3.366,0,0,0,.4,1.875A1.378,1.378,0,0,0,77.551,15.336Zm7.531-8.867V8.547h1.445V10.2H85.082v4.219a1.007,1.007,0,0,0,.18.672.9.9,0,0,0,.688.2,3.6,3.6,0,0,0,.664-.055v1.711a4.648,4.648,0,0,1-1.367.2,2.156,2.156,0,0,1-2.422-2.4V10.2H81.59V8.547h1.234V6.469ZM87.2,12.7a5.013,5.013,0,0,1,.484-2.242A3.546,3.546,0,0,1,89.078,8.93a4.069,4.069,0,0,1,2.113-.539,3.849,3.849,0,0,1,2.793,1.047,4.2,4.2,0,0,1,1.207,2.844l.016.578a4.418,4.418,0,0,1-1.086,3.121,4.209,4.209,0,0,1-5.832,0A4.5,4.5,0,0,1,87.2,12.8Zm2.258.164a3.151,3.151,0,0,0,.453,1.84,1.629,1.629,0,0,0,2.578.008,3.448,3.448,0,0,0,.461-2.012,3.12,3.12,0,0,0-.461-1.828,1.5,1.5,0,0,0-1.3-.648,1.475,1.475,0,0,0-1.281.645A3.506,3.506,0,0,0,89.457,12.859Zm13.2-4.312.07.977a2.951,2.951,0,0,1,2.43-1.133,2.453,2.453,0,0,1,2,.789,3.682,3.682,0,0,1,.672,2.359V17h-2.258V11.594a1.465,1.465,0,0,0-.312-1.043,1.4,1.4,0,0,0-1.039-.324,1.553,1.553,0,0,0-1.43.813V17h-2.258V8.547Zm6.531,4.148a5.013,5.013,0,0,1,.484-2.242A3.546,3.546,0,0,1,111.07,8.93a4.069,4.069,0,0,1,2.113-.539,3.849,3.849,0,0,1,2.793,1.047,4.2,4.2,0,0,1,1.207,2.844l.016.578a4.418,4.418,0,0,1-1.086,3.121,4.209,4.209,0,0,1-5.832,0,4.5,4.5,0,0,1-1.09-3.187Zm2.258.164a3.151,3.151,0,0,0,.453,1.84,1.629,1.629,0,0,0,2.578.008,3.448,3.448,0,0,0,.461-2.012,3.12,3.12,0,0,0-.461-1.828,1.5,1.5,0,0,0-1.3-.648,1.475,1.475,0,0,0-1.281.645A3.506,3.506,0,0,0,111.449,12.859ZM44.742,32.852a5.07,5.07,0,0,1-.887,3.129,2.843,2.843,0,0,1-2.395,1.176,2.633,2.633,0,0,1-2.07-.891V40.25H37.133v-11.7h2.094l.078.828a2.654,2.654,0,0,1,2.141-.984,2.862,2.862,0,0,1,2.43,1.156,5.207,5.207,0,0,1,.867,3.188Zm-2.258-.164a3.327,3.327,0,0,0-.418-1.82,1.361,1.361,0,0,0-1.215-.641,1.478,1.478,0,0,0-1.461.813V34.5a1.5,1.5,0,0,0,1.477.836Q42.484,35.336,42.484,32.688Zm8.406-2.023a6.134,6.134,0,0,0-.812-.062,1.654,1.654,0,0,0-1.68.867V37H46.141V28.547h2.133l.063,1.008a2.092,2.092,0,0,1,1.883-1.164,2.366,2.366,0,0,1,.7.1Zm.453,2.031a5.013,5.013,0,0,1,.484-2.242,3.546,3.546,0,0,1,1.395-1.523,4.069,4.069,0,0,1,2.113-.539,3.849,3.849,0,0,1,2.793,1.047,4.2,4.2,0,0,1,1.207,2.844l.016.578a4.418,4.418,0,0,1-1.086,3.121,4.209,4.209,0,0,1-5.832,0,4.5,4.5,0,0,1-1.09-3.187Zm2.258.164a3.151,3.151,0,0,0,.453,1.84,1.629,1.629,0,0,0,2.578.008,3.448,3.448,0,0,0,.461-2.012,3.12,3.12,0,0,0-.461-1.828,1.5,1.5,0,0,0-1.3-.648,1.475,1.475,0,0,0-1.281.645A3.506,3.506,0,0,0,53.6,32.859Zm10.656,2.477a1.481,1.481,0,0,0,1.016-.344,1.2,1.2,0,0,0,.406-.914H67.8a2.9,2.9,0,0,1-.469,1.574,3.093,3.093,0,0,1-1.262,1.109,3.949,3.949,0,0,1-1.77.395A3.67,3.67,0,0,1,61.438,36a4.56,4.56,0,0,1-1.047-3.184v-.148a4.508,4.508,0,0,1,1.039-3.117,3.627,3.627,0,0,1,2.852-1.164,3.555,3.555,0,0,1,2.543.9,3.2,3.2,0,0,1,.973,2.4H65.68a1.539,1.539,0,0,0-.406-1.066,1.513,1.513,0,0,0-2.223.164,3.324,3.324,0,0,0-.4,1.863v.234a3.366,3.366,0,0,0,.4,1.875A1.378,1.378,0,0,0,64.258,35.336Zm8.719,1.82a4.15,4.15,0,0,1-3.027-1.141,4.054,4.054,0,0,1-1.168-3.039v-.219a5.106,5.106,0,0,1,.492-2.277,3.612,3.612,0,0,1,1.395-1.547,3.914,3.914,0,0,1,2.059-.543,3.508,3.508,0,0,1,2.73,1.094,4.444,4.444,0,0,1,1,3.1v.922H71.07a2.1,2.1,0,0,0,.66,1.328,2,2,0,0,0,1.395.5,2.437,2.437,0,0,0,2.039-.945l1.109,1.242A3.389,3.389,0,0,1,74.9,36.754,4.511,4.511,0,0,1,72.977,37.156Zm-.258-6.937a1.414,1.414,0,0,0-1.09.453,2.341,2.341,0,0,0-.535,1.3h3.141v-.18a1.669,1.669,0,0,0-.406-1.16A1.459,1.459,0,0,0,72.719,30.219Zm9.594,4.445a.727.727,0,0,0-.41-.652,4.659,4.659,0,0,0-1.316-.426q-3.016-.633-3.016-2.562a2.323,2.323,0,0,1,.934-1.879,3.766,3.766,0,0,1,2.441-.754,4.053,4.053,0,0,1,2.574.758,2.388,2.388,0,0,1,.965,1.969H82.227a1.092,1.092,0,0,0-.312-.8A1.322,1.322,0,0,0,80.938,30a1.351,1.351,0,0,0-.883.258.814.814,0,0,0-.312.656.7.7,0,0,0,.355.605,3.657,3.657,0,0,0,1.2.4,9.8,9.8,0,0,1,1.422.379,2.336,2.336,0,0,1,1.789,2.273,2.2,2.2,0,0,1-.992,1.871,4.28,4.28,0,0,1-2.562.715,4.47,4.47,0,0,1-1.887-.379,3.166,3.166,0,0,1-1.293-1.039,2.414,2.414,0,0,1-.469-1.426h2.141a1.179,1.179,0,0,0,.445.922,1.766,1.766,0,0,0,1.109.32,1.635,1.635,0,0,0,.98-.246A.766.766,0,0,0,82.313,34.664ZM90.859,37a2.507,2.507,0,0,1-.227-.758,2.732,2.732,0,0,1-2.133.914,3,3,0,0,1-2.059-.719,2.312,2.312,0,0,1-.816-1.812,2.389,2.389,0,0,1,1-2.062,4.915,4.915,0,0,1,2.879-.727h1.039v-.484a1.393,1.393,0,0,0-.3-.937,1.183,1.183,0,0,0-.949-.352,1.345,1.345,0,0,0-.895.273.929.929,0,0,0-.324.75H85.813a2.268,2.268,0,0,1,.453-1.359,3,3,0,0,1,1.281-.98,4.669,4.669,0,0,1,1.859-.355,3.689,3.689,0,0,1,2.48.785,2.747,2.747,0,0,1,.918,2.207v3.664a4.041,4.041,0,0,0,.336,1.82V37Zm-1.867-1.57a1.945,1.945,0,0,0,.922-.223,1.462,1.462,0,0,0,.625-.6V33.156H89.7q-1.7,0-1.8,1.172l-.008.133a.9.9,0,0,0,.3.7A1.153,1.153,0,0,0,88.992,35.43Zm5.2-2.719a5.094,5.094,0,0,1,.887-3.148A2.877,2.877,0,0,1,97.5,28.391a2.589,2.589,0,0,1,2.039.922V25H101.8V37H99.766l-.109-.9a2.657,2.657,0,0,1-2.172,1.055A2.869,2.869,0,0,1,95.09,35.98,5.258,5.258,0,0,1,94.188,32.711Zm2.258.164a3.328,3.328,0,0,0,.414,1.82,1.349,1.349,0,0,0,1.2.633,1.511,1.511,0,0,0,1.477-.883V31.109a1.489,1.489,0,0,0-1.461-.883Q96.445,30.227,96.445,32.875Zm6.758-.18a5.013,5.013,0,0,1,.484-2.242,3.546,3.546,0,0,1,1.395-1.523,4.069,4.069,0,0,1,2.113-.539,3.849,3.849,0,0,1,2.793,1.047,4.2,4.2,0,0,1,1.207,2.844l.016.578a4.418,4.418,0,0,1-1.086,3.121,4.209,4.209,0,0,1-5.832,0A4.5,4.5,0,0,1,103.2,32.8Zm2.258.164a3.151,3.151,0,0,0,.453,1.84,1.629,1.629,0,0,0,2.578.008,3.448,3.448,0,0,0,.461-2.012,3.12,3.12,0,0,0-.461-1.828,1.5,1.5,0,0,0-1.3-.648,1.475,1.475,0,0,0-1.281.645A3.506,3.506,0,0,0,105.461,32.859Z" transform="translate(869 4071.892)" fill="#12263f"/><path d="M33.637,12.992V17H31.293V5.625H35.73a5.134,5.134,0,0,1,2.254.469,3.454,3.454,0,0,1,1.5,1.332A3.714,3.714,0,0,1,40,9.391a3.266,3.266,0,0,1-1.145,2.637,4.767,4.767,0,0,1-3.168.965Zm0-1.9H35.73a2.059,2.059,0,0,0,1.418-.437,1.591,1.591,0,0,0,.488-1.25,1.876,1.876,0,0,0-.492-1.352,1.839,1.839,0,0,0-1.359-.531H33.637Zm12.578-.43A6.134,6.134,0,0,0,45.4,10.6a1.654,1.654,0,0,0-1.68.867V17H41.465V8.547H43.6l.063,1.008a2.092,2.092,0,0,1,1.883-1.164,2.366,2.366,0,0,1,.7.1Zm.453,2.031a5.013,5.013,0,0,1,.484-2.242A3.546,3.546,0,0,1,48.547,8.93a4.069,4.069,0,0,1,2.113-.539,3.849,3.849,0,0,1,2.793,1.047,4.2,4.2,0,0,1,1.207,2.844l.016.578A4.418,4.418,0,0,1,53.59,15.98a4.209,4.209,0,0,1-5.832,0,4.5,4.5,0,0,1-1.09-3.187Zm2.258.164a3.151,3.151,0,0,0,.453,1.84,1.629,1.629,0,0,0,2.578.008,3.448,3.448,0,0,0,.461-2.012,3.12,3.12,0,0,0-.461-1.828,1.5,1.5,0,0,0-1.3-.648,1.475,1.475,0,0,0-1.281.645A3.506,3.506,0,0,0,48.926,12.859Zm6.789-.148A5.094,5.094,0,0,1,56.6,9.563a2.877,2.877,0,0,1,2.426-1.172,2.589,2.589,0,0,1,2.039.922V5h2.266V17H61.293l-.109-.9a2.657,2.657,0,0,1-2.172,1.055,2.869,2.869,0,0,1-2.395-1.176A5.258,5.258,0,0,1,55.715,12.711Zm2.258.164a3.328,3.328,0,0,0,.414,1.82,1.349,1.349,0,0,0,1.2.633,1.511,1.511,0,0,0,1.477-.883V11.109a1.489,1.489,0,0,0-1.461-.883Q57.973,10.227,57.973,12.875Zm12.172,3.266a2.831,2.831,0,0,1-2.312,1.016,2.67,2.67,0,0,1-2.074-.781,3.335,3.335,0,0,1-.73-2.289V8.547h2.258v5.461q0,1.32,1.2,1.32a1.631,1.631,0,0,0,1.578-.8V8.547h2.266V17H70.207Zm7.406-.8a1.481,1.481,0,0,0,1.016-.344,1.2,1.2,0,0,0,.406-.914H81.09a2.9,2.9,0,0,1-.469,1.574,3.093,3.093,0,0,1-1.262,1.109,3.949,3.949,0,0,1-1.77.395A3.67,3.67,0,0,1,74.73,16a4.56,4.56,0,0,1-1.047-3.184v-.148a4.508,4.508,0,0,1,1.039-3.117,3.627,3.627,0,0,1,2.852-1.164,3.555,3.555,0,0,1,2.543.9,3.2,3.2,0,0,1,.973,2.4H78.973a1.539,1.539,0,0,0-.406-1.066,1.513,1.513,0,0,0-2.223.164,3.324,3.324,0,0,0-.4,1.863v.234a3.366,3.366,0,0,0,.4,1.875A1.378,1.378,0,0,0,77.551,15.336Zm7.531-8.867V8.547h1.445V10.2H85.082v4.219a1.007,1.007,0,0,0,.18.672.9.9,0,0,0,.688.2,3.6,3.6,0,0,0,.664-.055v1.711a4.648,4.648,0,0,1-1.367.2,2.156,2.156,0,0,1-2.422-2.4V10.2H81.59V8.547h1.234V6.469ZM87.2,12.7a5.013,5.013,0,0,1,.484-2.242A3.546,3.546,0,0,1,89.078,8.93a4.069,4.069,0,0,1,2.113-.539,3.849,3.849,0,0,1,2.793,1.047,4.2,4.2,0,0,1,1.207,2.844l.016.578a4.418,4.418,0,0,1-1.086,3.121,4.209,4.209,0,0,1-5.832,0A4.5,4.5,0,0,1,87.2,12.8Zm2.258.164a3.151,3.151,0,0,0,.453,1.84,1.629,1.629,0,0,0,2.578.008,3.448,3.448,0,0,0,.461-2.012,3.12,3.12,0,0,0-.461-1.828,1.5,1.5,0,0,0-1.3-.648,1.475,1.475,0,0,0-1.281.645A3.506,3.506,0,0,0,89.457,12.859Zm13.2-4.312.07.977a2.951,2.951,0,0,1,2.43-1.133,2.453,2.453,0,0,1,2,.789,3.682,3.682,0,0,1,.672,2.359V17h-2.258V11.594a1.465,1.465,0,0,0-.312-1.043,1.4,1.4,0,0,0-1.039-.324,1.553,1.553,0,0,0-1.43.813V17h-2.258V8.547Zm6.531,4.148a5.013,5.013,0,0,1,.484-2.242A3.546,3.546,0,0,1,111.07,8.93a4.069,4.069,0,0,1,2.113-.539,3.849,3.849,0,0,1,2.793,1.047,4.2,4.2,0,0,1,1.207,2.844l.016.578a4.418,4.418,0,0,1-1.086,3.121,4.209,4.209,0,0,1-5.832,0,4.5,4.5,0,0,1-1.09-3.187Zm2.258.164a3.151,3.151,0,0,0,.453,1.84,1.629,1.629,0,0,0,2.578.008,3.448,3.448,0,0,0,.461-2.012,3.12,3.12,0,0,0-.461-1.828,1.5,1.5,0,0,0-1.3-.648,1.475,1.475,0,0,0-1.281.645A3.506,3.506,0,0,0,111.449,12.859ZM30.809,32.711a5.094,5.094,0,0,1,.887-3.148,2.877,2.877,0,0,1,2.426-1.172,2.589,2.589,0,0,1,2.039.922V25h2.266V37H36.387l-.109-.9a2.657,2.657,0,0,1-2.172,1.055,2.869,2.869,0,0,1-2.395-1.176A5.258,5.258,0,0,1,30.809,32.711Zm2.258.164a3.328,3.328,0,0,0,.414,1.82,1.349,1.349,0,0,0,1.2.633,1.511,1.511,0,0,0,1.477-.883V31.109a1.489,1.489,0,0,0-1.461-.883Q33.066,30.227,33.066,32.875Zm11,4.281a4.15,4.15,0,0,1-3.027-1.141,4.054,4.054,0,0,1-1.168-3.039v-.219a5.106,5.106,0,0,1,.492-2.277,3.612,3.612,0,0,1,1.395-1.547,3.914,3.914,0,0,1,2.059-.543,3.508,3.508,0,0,1,2.73,1.094,4.444,4.444,0,0,1,1,3.1v.922H42.16a2.1,2.1,0,0,0,.66,1.328,2,2,0,0,0,1.395.5,2.437,2.437,0,0,0,2.039-.945l1.109,1.242a3.389,3.389,0,0,1-1.375,1.121A4.511,4.511,0,0,1,44.066,37.156Zm-.258-6.937a1.414,1.414,0,0,0-1.09.453,2.341,2.341,0,0,0-.535,1.3h3.141v-.18a1.669,1.669,0,0,0-.406-1.16A1.459,1.459,0,0,0,43.809,30.219ZM53.4,34.664a.727.727,0,0,0-.41-.652,4.659,4.659,0,0,0-1.316-.426q-3.016-.633-3.016-2.562a2.323,2.323,0,0,1,.934-1.879,3.766,3.766,0,0,1,2.441-.754,4.053,4.053,0,0,1,2.574.758,2.388,2.388,0,0,1,.965,1.969H53.316a1.092,1.092,0,0,0-.312-.8A1.322,1.322,0,0,0,52.027,30a1.351,1.351,0,0,0-.883.258.814.814,0,0,0-.312.656.7.7,0,0,0,.355.605,3.657,3.657,0,0,0,1.2.4,9.8,9.8,0,0,1,1.422.379A2.336,2.336,0,0,1,55.6,34.57a2.205,2.205,0,0,1-.992,1.871,4.28,4.28,0,0,1-2.562.715,4.47,4.47,0,0,1-1.887-.379,3.166,3.166,0,0,1-1.293-1.039,2.414,2.414,0,0,1-.469-1.426h2.141a1.179,1.179,0,0,0,.445.922,1.766,1.766,0,0,0,1.109.32,1.635,1.635,0,0,0,.98-.246A.766.766,0,0,0,53.4,34.664ZM64.66,32.852a5.07,5.07,0,0,1-.887,3.129,2.843,2.843,0,0,1-2.395,1.176,2.633,2.633,0,0,1-2.07-.891V40.25H57.051v-11.7h2.094l.078.828a2.654,2.654,0,0,1,2.141-.984,2.862,2.862,0,0,1,2.43,1.156,5.207,5.207,0,0,1,.867,3.188ZM62.4,32.688a3.327,3.327,0,0,0-.418-1.82,1.361,1.361,0,0,0-1.215-.641,1.478,1.478,0,0,0-1.461.813V34.5a1.5,1.5,0,0,0,1.477.836Q62.4,35.336,62.4,32.688ZM70.957,37a2.507,2.507,0,0,1-.227-.758,2.732,2.732,0,0,1-2.133.914,3,3,0,0,1-2.059-.719,2.312,2.312,0,0,1-.816-1.812,2.389,2.389,0,0,1,1-2.062,4.915,4.915,0,0,1,2.879-.727h1.039v-.484a1.393,1.393,0,0,0-.3-.937,1.183,1.183,0,0,0-.949-.352,1.345,1.345,0,0,0-.895.273.929.929,0,0,0-.324.75H65.91a2.268,2.268,0,0,1,.453-1.359,3,3,0,0,1,1.281-.98,4.669,4.669,0,0,1,1.859-.355,3.689,3.689,0,0,1,2.48.785,2.747,2.747,0,0,1,.918,2.207v3.664a4.041,4.041,0,0,0,.336,1.82V37ZM69.09,35.43a1.945,1.945,0,0,0,.922-.223,1.462,1.462,0,0,0,.625-.6V33.156h-.844q-1.7,0-1.8,1.172l-.008.133a.9.9,0,0,0,.3.7A1.153,1.153,0,0,0,69.09,35.43Zm9.063-.094a1.481,1.481,0,0,0,1.016-.344,1.2,1.2,0,0,0,.406-.914h2.117a2.9,2.9,0,0,1-.469,1.574,3.093,3.093,0,0,1-1.262,1.109,3.949,3.949,0,0,1-1.77.395A3.67,3.67,0,0,1,75.332,36a4.56,4.56,0,0,1-1.047-3.184v-.148a4.508,4.508,0,0,1,1.039-3.117,3.627,3.627,0,0,1,2.852-1.164,3.555,3.555,0,0,1,2.543.9,3.2,3.2,0,0,1,.973,2.4H79.574a1.539,1.539,0,0,0-.406-1.066,1.513,1.513,0,0,0-2.223.164,3.324,3.324,0,0,0-.4,1.863v.234a3.366,3.366,0,0,0,.4,1.875A1.378,1.378,0,0,0,78.152,35.336Zm7.031-5.867a2.818,2.818,0,0,1,2.258-1.078q2.75,0,2.789,3.2V37H87.973V31.648a1.57,1.57,0,0,0-.312-1.074,1.34,1.34,0,0,0-1.039-.348,1.537,1.537,0,0,0-1.437.766V37H82.926V25h2.258ZM96.832,37a2.507,2.507,0,0,1-.227-.758,2.732,2.732,0,0,1-2.133.914,3,3,0,0,1-2.059-.719,2.312,2.312,0,0,1-.816-1.812,2.389,2.389,0,0,1,1-2.062,4.915,4.915,0,0,1,2.879-.727h1.039v-.484a1.393,1.393,0,0,0-.3-.937,1.183,1.183,0,0,0-.949-.352,1.345,1.345,0,0,0-.895.273.929.929,0,0,0-.324.75H91.785a2.268,2.268,0,0,1,.453-1.359,3,3,0,0,1,1.281-.98,4.669,4.669,0,0,1,1.859-.355,3.689,3.689,0,0,1,2.48.785,2.747,2.747,0,0,1,.918,2.207v3.664a4.041,4.041,0,0,0,.336,1.82V37Zm-1.867-1.57a1.945,1.945,0,0,0,.922-.223,1.462,1.462,0,0,0,.625-.6V33.156h-.844q-1.7,0-1.8,1.172l-.008.133a.9.9,0,0,0,.3.7A1.153,1.153,0,0,0,94.965,35.43Zm5.2-2.719a5.094,5.094,0,0,1,.887-3.148,2.877,2.877,0,0,1,2.426-1.172,2.589,2.589,0,0,1,2.039.922V25h2.266V37h-2.039l-.109-.9a2.657,2.657,0,0,1-2.172,1.055,2.869,2.869,0,0,1-2.395-1.176A5.258,5.258,0,0,1,100.16,32.711Zm2.258.164a3.328,3.328,0,0,0,.414,1.82,1.349,1.349,0,0,0,1.2.633,1.511,1.511,0,0,0,1.477-.883V31.109a1.489,1.489,0,0,0-1.461-.883Q102.418,30.227,102.418,32.875Zm6.758-.18a5.013,5.013,0,0,1,.484-2.242,3.546,3.546,0,0,1,1.395-1.523,4.069,4.069,0,0,1,2.113-.539,3.849,3.849,0,0,1,2.793,1.047,4.2,4.2,0,0,1,1.207,2.844l.016.578A4.418,4.418,0,0,1,116.1,35.98a4.209,4.209,0,0,1-5.832,0,4.5,4.5,0,0,1-1.09-3.187Zm2.258.164a3.151,3.151,0,0,0,.453,1.84,1.629,1.629,0,0,0,2.578.008,3.448,3.448,0,0,0,.461-2.012,3.12,3.12,0,0,0-.461-1.828,1.5,1.5,0,0,0-1.3-.648,1.475,1.475,0,0,0-1.281.645A3.506,3.506,0,0,0,111.434,32.859Z" transform="translate(1033.348 4071.892)" fill="#12263f"/><path d="M24.637,12.992V17H22.293V5.625H26.73a5.134,5.134,0,0,1,2.254.469,3.454,3.454,0,0,1,1.5,1.332A3.714,3.714,0,0,1,31,9.391a3.266,3.266,0,0,1-1.145,2.637,4.767,4.767,0,0,1-3.168.965Zm0-1.9H26.73a2.059,2.059,0,0,0,1.418-.437,1.591,1.591,0,0,0,.488-1.25,1.876,1.876,0,0,0-.492-1.352,1.839,1.839,0,0,0-1.359-.531H24.637Zm12.578-.43A6.134,6.134,0,0,0,36.4,10.6a1.654,1.654,0,0,0-1.68.867V17H32.465V8.547H34.6l.063,1.008a2.092,2.092,0,0,1,1.883-1.164,2.366,2.366,0,0,1,.7.1Zm.453,2.031a5.013,5.013,0,0,1,.484-2.242A3.546,3.546,0,0,1,39.547,8.93a4.069,4.069,0,0,1,2.113-.539,3.849,3.849,0,0,1,2.793,1.047,4.2,4.2,0,0,1,1.207,2.844l.016.578A4.418,4.418,0,0,1,44.59,15.98a4.209,4.209,0,0,1-5.832,0,4.5,4.5,0,0,1-1.09-3.187Zm2.258.164a3.151,3.151,0,0,0,.453,1.84,1.629,1.629,0,0,0,2.578.008,3.448,3.448,0,0,0,.461-2.012,3.12,3.12,0,0,0-.461-1.828,1.5,1.5,0,0,0-1.3-.648,1.475,1.475,0,0,0-1.281.645A3.506,3.506,0,0,0,39.926,12.859Zm6.789-.148A5.094,5.094,0,0,1,47.6,9.563a2.877,2.877,0,0,1,2.426-1.172,2.589,2.589,0,0,1,2.039.922V5h2.266V17H52.293l-.109-.9a2.657,2.657,0,0,1-2.172,1.055,2.869,2.869,0,0,1-2.395-1.176A5.258,5.258,0,0,1,46.715,12.711Zm2.258.164a3.328,3.328,0,0,0,.414,1.82,1.349,1.349,0,0,0,1.2.633,1.511,1.511,0,0,0,1.477-.883V11.109a1.489,1.489,0,0,0-1.461-.883Q48.973,10.227,48.973,12.875Zm12.172,3.266a2.831,2.831,0,0,1-2.312,1.016,2.67,2.67,0,0,1-2.074-.781,3.335,3.335,0,0,1-.73-2.289V8.547h2.258v5.461q0,1.32,1.2,1.32a1.631,1.631,0,0,0,1.578-.8V8.547h2.266V17H61.207Zm7.406-.8a1.481,1.481,0,0,0,1.016-.344,1.2,1.2,0,0,0,.406-.914H72.09a2.9,2.9,0,0,1-.469,1.574,3.093,3.093,0,0,1-1.262,1.109,3.949,3.949,0,0,1-1.77.395A3.67,3.67,0,0,1,65.73,16a4.56,4.56,0,0,1-1.047-3.184v-.148a4.508,4.508,0,0,1,1.039-3.117,3.627,3.627,0,0,1,2.852-1.164,3.555,3.555,0,0,1,2.543.9,3.2,3.2,0,0,1,.973,2.4H69.973a1.539,1.539,0,0,0-.406-1.066,1.513,1.513,0,0,0-2.223.164,3.324,3.324,0,0,0-.4,1.863v.234a3.366,3.366,0,0,0,.4,1.875A1.378,1.378,0,0,0,68.551,15.336Zm7.531-8.867V8.547h1.445V10.2H76.082v4.219a1.007,1.007,0,0,0,.18.672.9.9,0,0,0,.688.2,3.6,3.6,0,0,0,.664-.055v1.711a4.648,4.648,0,0,1-1.367.2,2.156,2.156,0,0,1-2.422-2.4V10.2H72.59V8.547h1.234V6.469ZM78.2,12.7a5.013,5.013,0,0,1,.484-2.242A3.546,3.546,0,0,1,80.078,8.93a4.069,4.069,0,0,1,2.113-.539,3.849,3.849,0,0,1,2.793,1.047,4.2,4.2,0,0,1,1.207,2.844l.016.578a4.418,4.418,0,0,1-1.086,3.121,4.209,4.209,0,0,1-5.832,0A4.5,4.5,0,0,1,78.2,12.8Zm2.258.164a3.151,3.151,0,0,0,.453,1.84,1.629,1.629,0,0,0,2.578.008,3.448,3.448,0,0,0,.461-2.012,3.12,3.12,0,0,0-.461-1.828,1.5,1.5,0,0,0-1.3-.648,1.475,1.475,0,0,0-1.281.645A3.506,3.506,0,0,0,80.457,12.859Zm13.2-4.312.07.977a2.951,2.951,0,0,1,2.43-1.133,2.453,2.453,0,0,1,2,.789,3.682,3.682,0,0,1,.672,2.359V17H96.574V11.594a1.465,1.465,0,0,0-.312-1.043,1.4,1.4,0,0,0-1.039-.324,1.553,1.553,0,0,0-1.43.813V17H91.535V8.547Zm6.531,4.148a5.013,5.013,0,0,1,.484-2.242A3.546,3.546,0,0,1,102.07,8.93a4.069,4.069,0,0,1,2.113-.539,3.849,3.849,0,0,1,2.793,1.047,4.2,4.2,0,0,1,1.207,2.844l.016.578a4.418,4.418,0,0,1-1.086,3.121,4.209,4.209,0,0,1-5.832,0,4.5,4.5,0,0,1-1.09-3.187Zm2.258.164a3.151,3.151,0,0,0,.453,1.84,1.629,1.629,0,0,0,2.578.008,3.448,3.448,0,0,0,.461-2.012,3.12,3.12,0,0,0-.461-1.828,1.5,1.5,0,0,0-1.3-.648,1.475,1.475,0,0,0-1.281.645A3.506,3.506,0,0,0,102.449,12.859Zm-69.328,24.3a4.15,4.15,0,0,1-3.027-1.141,4.054,4.054,0,0,1-1.168-3.039v-.219a5.106,5.106,0,0,1,.492-2.277,3.612,3.612,0,0,1,1.395-1.547,3.914,3.914,0,0,1,2.059-.543,3.508,3.508,0,0,1,2.73,1.094,4.444,4.444,0,0,1,1,3.1v.922H31.215a2.1,2.1,0,0,0,.66,1.328,2,2,0,0,0,1.395.5,2.437,2.437,0,0,0,2.039-.945l1.109,1.242a3.389,3.389,0,0,1-1.375,1.121A4.511,4.511,0,0,1,33.121,37.156Zm-.258-6.937a1.414,1.414,0,0,0-1.09.453,2.341,2.341,0,0,0-.535,1.3h3.141v-.18a1.669,1.669,0,0,0-.406-1.16A1.459,1.459,0,0,0,32.863,30.219Zm7.094-1.672.07.977a2.951,2.951,0,0,1,2.43-1.133,2.453,2.453,0,0,1,2,.789,3.682,3.682,0,0,1,.672,2.359V37H42.871V31.594a1.465,1.465,0,0,0-.312-1.043,1.4,1.4,0,0,0-1.039-.324,1.553,1.553,0,0,0-1.43.813V37H37.832V28.547Zm9.586-2.078v2.078h1.445V30.2H49.543v4.219a1.007,1.007,0,0,0,.18.672.9.9,0,0,0,.688.2,3.6,3.6,0,0,0,.664-.055v1.711a4.648,4.648,0,0,1-1.367.2,2.156,2.156,0,0,1-2.422-2.4V30.2H46.051V28.547h1.234V26.469ZM57,30.664a6.134,6.134,0,0,0-.812-.062,1.654,1.654,0,0,0-1.68.867V37H52.246V28.547h2.133l.063,1.008a2.092,2.092,0,0,1,1.883-1.164,2.366,2.366,0,0,1,.7.1Zm4.977,6.492a4.15,4.15,0,0,1-3.027-1.141,4.054,4.054,0,0,1-1.168-3.039v-.219a5.106,5.106,0,0,1,.492-2.277,3.612,3.612,0,0,1,1.395-1.547,3.914,3.914,0,0,1,2.059-.543,3.508,3.508,0,0,1,2.73,1.094,4.444,4.444,0,0,1,1,3.1v.922H60.066a2.1,2.1,0,0,0,.66,1.328,2,2,0,0,0,1.395.5,2.437,2.437,0,0,0,2.039-.945l1.109,1.242a3.389,3.389,0,0,1-1.375,1.121A4.511,4.511,0,0,1,61.973,37.156Zm-.258-6.937a1.414,1.414,0,0,0-1.09.453,2.341,2.341,0,0,0-.535,1.3H63.23v-.18a1.669,1.669,0,0,0-.406-1.16A1.459,1.459,0,0,0,61.715,30.219ZM66.4,32.711a4.954,4.954,0,0,1,.926-3.133,3,3,0,0,1,2.5-1.187,2.631,2.631,0,0,1,2.164.953l.094-.8h2.047v8.172a3.613,3.613,0,0,1-.5,1.93,3.236,3.236,0,0,1-1.418,1.25,4.985,4.985,0,0,1-2.141.43,4.635,4.635,0,0,1-1.812-.371A3.217,3.217,0,0,1,66.918,39l1-1.375a2.645,2.645,0,0,0,2.047.945,1.936,1.936,0,0,0,1.4-.48,1.8,1.8,0,0,0,.5-1.363v-.453a2.612,2.612,0,0,1-2.055.883,2.992,2.992,0,0,1-2.465-1.191A4.953,4.953,0,0,1,66.4,32.8Zm2.258.164a3.076,3.076,0,0,0,.461,1.8,1.467,1.467,0,0,0,1.266.652,1.568,1.568,0,0,0,1.477-.773V31a1.565,1.565,0,0,0-1.461-.773,1.476,1.476,0,0,0-1.277.664A3.467,3.467,0,0,0,68.66,32.875ZM80.762,37a2.507,2.507,0,0,1-.227-.758,2.732,2.732,0,0,1-2.133.914,3,3,0,0,1-2.059-.719,2.312,2.312,0,0,1-.816-1.812,2.389,2.389,0,0,1,1-2.062,4.915,4.915,0,0,1,2.879-.727h1.039v-.484a1.393,1.393,0,0,0-.3-.937,1.183,1.183,0,0,0-.949-.352,1.345,1.345,0,0,0-.895.273.929.929,0,0,0-.324.75H75.715a2.268,2.268,0,0,1,.453-1.359,3,3,0,0,1,1.281-.98,4.669,4.669,0,0,1,1.859-.355,3.689,3.689,0,0,1,2.48.785,2.747,2.747,0,0,1,.918,2.207v3.664a4.041,4.041,0,0,0,.336,1.82V37Zm-1.867-1.57a1.945,1.945,0,0,0,.922-.223,1.462,1.462,0,0,0,.625-.6V33.156H79.6q-1.7,0-1.8,1.172l-.008.133a.9.9,0,0,0,.3.7A1.153,1.153,0,0,0,78.895,35.43Zm5.2-2.719a5.094,5.094,0,0,1,.887-3.148A2.877,2.877,0,0,1,87.4,28.391a2.589,2.589,0,0,1,2.039.922V25h2.266V37H89.668l-.109-.9a2.657,2.657,0,0,1-2.172,1.055,2.869,2.869,0,0,1-2.395-1.176A5.258,5.258,0,0,1,84.09,32.711Zm2.258.164a3.328,3.328,0,0,0,.414,1.82,1.349,1.349,0,0,0,1.2.633,1.511,1.511,0,0,0,1.477-.883V31.109a1.489,1.489,0,0,0-1.461-.883Q86.348,30.227,86.348,32.875Zm6.758-.18a5.013,5.013,0,0,1,.484-2.242,3.546,3.546,0,0,1,1.395-1.523,4.069,4.069,0,0,1,2.113-.539,3.849,3.849,0,0,1,2.793,1.047,4.2,4.2,0,0,1,1.207,2.844l.016.578a4.418,4.418,0,0,1-1.086,3.121,4.209,4.209,0,0,1-5.832,0,4.5,4.5,0,0,1-1.09-3.187Zm2.258.164a3.151,3.151,0,0,0,.453,1.84,1.629,1.629,0,0,0,2.578.008,3.448,3.448,0,0,0,.461-2.012,3.12,3.12,0,0,0-.461-1.828,1.5,1.5,0,0,0-1.3-.648,1.475,1.475,0,0,0-1.281.645A3.506,3.506,0,0,0,95.363,32.859Z" transform="translate(1199 4071.892)" fill="#12263f"/><circle cx="52" cy="52" r="52" transform="translate(1210.652 3956)" fill="#bcefea" opacity="0.15"/><g transform="translate(228.339 3918)" fill="none" stroke="#a5b9f6" stroke-width="1"><rect width="532.661" height="211.759" rx="10" stroke="none"/><rect x="0.5" y="0.5" width="531.661" height="210.759" rx="9.5" fill="none"/></g><g transform="translate(827.348 3918)" fill="none" stroke="#21c9b8" stroke-width="1"><rect width="532.661" height="211.759" rx="10" stroke="none"/><rect x="0.5" y="0.5" width="531.661" height="210.759" rx="9.5" fill="none"/></g><g transform="translate(913 3973.416)"><g transform="translate(1.335 1.327)"><g transform="translate(25.631)"><path d="M58.479,43.388,32.26,17.169l4.052-4.052a2.679,2.679,0,0,1,3.789,0l22.43,22.43a2.679,2.679,0,0,1,0,3.789Z" transform="translate(-32.26 -3.355)" fill="#d1aee5"/><path d="M73.394,14.231A7.408,7.408,0,1,0,60.928,7.361a17.654,17.654,0,0,1-4.68,8.658l-4.11,4.11,4.88,4.88,4.045-4.045a17.108,17.108,0,0,1,8.6-4.717,7.375,7.375,0,0,0,3.735-2.017Z" transform="translate(-35.522 -1.592)" fill="#e0c9ed"/></g><path d="M36.67,31.358l-6.924-6.924,4.02-4.02L56.148,42.8l-4.02,4.02L45.2,39.891" transform="translate(-6.216 -4.681)" fill="#faf7f5"/><ellipse cx="18.038" cy="18.038" rx="18.038" ry="18.038" transform="translate(0 29.596)" fill="#ff7d97"/><ellipse cx="12.163" cy="12.163" rx="12.163" ry="12.163" transform="translate(3.396 56.69) rotate(-76.7)" fill="#faf7f5"/></g><g transform="translate(0 0)"><path d="M19.373,35.4A19.373,19.373,0,1,0,38.746,54.775,19.4,19.4,0,0,0,19.373,35.4Zm0,36.077a16.7,16.7,0,1,1,16.7-16.7A16.723,16.723,0,0,1,19.373,71.478Z" transform="translate(0 -5.813)"/><path d="M20.526,42.428a13.5,13.5,0,1,0,13.5,13.5A13.515,13.515,0,0,0,20.526,42.428Zm0,24.33a10.83,10.83,0,1,1,10.83-10.83A10.843,10.843,0,0,1,20.526,66.758Z" transform="translate(-1.153 -6.966)"/><path d="M72.959,8.529A8.676,8.676,0,0,0,70.1,2.265,8.745,8.745,0,0,0,55.688,6.808a16.322,16.322,0,0,1-4.321,8.007L48.2,17.981,40.37,10.15a4.014,4.014,0,0,0-5.677,0L30.641,14.2a1.335,1.335,0,0,0,0,1.888l.974.974L28.539,20.14a1.335,1.335,0,0,0,0,1.888l6.924,6.924a1.335,1.335,0,0,0,1.888-1.888l-5.981-5.981L33.5,18.951,54,39.446l-2.132,2.132L45.885,35.6A1.335,1.335,0,0,0,44,37.486l6.924,6.924a1.335,1.335,0,0,0,1.888,0l3.076-3.076.975.975a1.335,1.335,0,0,0,1.888,0L62.8,38.257a4.014,4.014,0,0,0,0-5.677l-7.831-7.831,3.1-3.1a15.719,15.719,0,0,1,7.922-4.353,8.746,8.746,0,0,0,6.967-8.764ZM61.306,35.418a1.336,1.336,0,0,1-.394.951L57.8,39.477,33.473,15.146l3.108-3.108a1.344,1.344,0,0,1,1.9,0l22.43,22.43a1.335,1.335,0,0,1,.394.951Zm7.207-22.392a6.045,6.045,0,0,1-3.06,1.653,18.381,18.381,0,0,0-9.27,5.08l-3.1,3.1-2.992-2.992L53.255,16.7a18.987,18.987,0,0,0,5.038-9.31,6.074,6.074,0,1,1,10.22,5.633Z" transform="translate(-4.619 -0.005)"/><path d="M41.783,39.111a1.334,1.334,0,1,0,.167-1.685A1.347,1.347,0,0,0,41.783,39.111Z" transform="translate(-6.82 -6.082)"/><path d="M26.383,53.6a1.335,1.335,0,0,0-1.888.006l-2.067,2.08L20.362,53.6a1.335,1.335,0,0,0-1.894,1.882l2.079,2.092-2.079,2.092a1.335,1.335,0,0,0,1.894,1.882l2.067-2.08,2.067,2.08a1.335,1.335,0,0,0,1.894-1.882L24.31,57.576l2.079-2.092a1.335,1.335,0,0,0-.006-1.888Z" transform="translate(-2.967 -8.736)"/></g></g><g transform="translate(1072.655 3973.416)"><path d="M14.608,55.4,12.16,53.126H4.087V63.8l4.065,2.277,2.687,2.277L28.67,78.176l16.408-4.19-.524-1.867A2.6,2.6,0,0,0,41.4,70.377L29.456,73.428,18.069,67.61a2.175,2.175,0,0,1-.877-3.1,2.4,2.4,0,0,1,3.2-.82L28,67.928a2.79,2.79,0,0,0,4.145-3.006,3.325,3.325,0,0,0-1.64-2.038L21.394,57.84l-3.279-1.81Z" transform="translate(-2.948 -10.989)" fill="#f2e6c7"/><path d="M45.078,73.986,28.67,78.176,10.839,68.35,8.152,66.072,4.087,63.8V53.126H5.225v7.253L9.29,62.656l2.687,2.277L29.809,74.76,44,71.139a2.277,2.277,0,0,1,.558.979Z" transform="translate(-2.948 -10.989)" fill="#efd59a"/><path d="M45.91,15.473l6.832,6.832L48.187,26.86l-6.832-6.832L34.523,26.86l-4.555-4.555L36.8,15.473,29.968,8.641l4.555-4.555,6.832,6.832,6.832-6.832,4.555,4.555Z" transform="translate(-7.195 -2.941)" fill="#ea4450"/><path d="M52.742,22.305,48.187,26.86l-6.832-6.832L34.523,26.86l-4.555-4.555L36.8,15.473,29.968,8.641l4.555-4.555.683.683A20.5,20.5,0,0,0,49.781,19.345Z" transform="translate(-7.195 -2.941)" fill="#ce293d"/><path d="M73.744,61.83,50.4,57.549l3.985-20.769,23.343,4.281Z" transform="translate(-10.548 -8.306)" fill="#f9d53d"/><path d="M74.86,56.011,73.744,61.83,50.4,57.549l3.985-20.769,6.832,1.253-2,10.453a4.555,4.555,0,0,0,3.712,5.374Z" transform="translate(-10.548 -8.306)" fill="#f7b43e"/><path d="M68.271,39.226l-3.188-.581-1.2,6.228,3.587-1.492,2.778,2.664,1.207-6.24Z" transform="translate(-12.761 -8.613)" fill="#fbb03b"/><path d="M62.8,57.939l-6.365-1.173.8-4.145L63.6,53.783Z" transform="translate(-11.539 -10.906)" fill="#f2e6c7"/><path d="M63.127,56.215l-.353,1.731-6.365-1.139.8-4.145,3.1.569a4.555,4.555,0,0,0,2.824,2.983Z" transform="translate(-11.534 -10.913)" fill="#efd59a"/><path d="M45.424,71.581a3.723,3.723,0,0,0-4.555-2.539l-11.5,2.949-11-5.614a1.139,1.139,0,0,1-.547-.66,1.013,1.013,0,0,1,.125-.808,1.309,1.309,0,0,1,1.674-.41l7.561,4.167a4.054,4.054,0,0,0,4.475-.364,3.712,3.712,0,0,0,1.3-4.019,4.464,4.464,0,0,0-2.186-2.744L18.335,54.706a1.138,1.138,0,0,0-.353-.125l-3.074-.547-2.2-2.015a1.139,1.139,0,0,0-.774-.3H3.863a1.139,1.139,0,0,0-1.139,1.139V63.531a1.139,1.139,0,0,0,.592,1l3.963,2.22,2.6,2.277.194.137,2.277,1.218a1.152,1.152,0,1,0,1.139-2l-2.118-1.139-2.6-2.277-.194-.137L5,62.893V54.034h6.49l2.118,1.947a1.264,1.264,0,0,0,.581.285l3.222.547,12.263,6.764a2.277,2.277,0,0,1,1.139,1.389,1.446,1.446,0,0,1-.569,1.594,1.765,1.765,0,0,1-1.97.148l-7.549-4.156a3.416,3.416,0,0,0-1.719-.444,3.518,3.518,0,0,0-3.017,1.674,3.3,3.3,0,0,0-.364,2.573,3.416,3.416,0,0,0,1.685,2.084L28.7,74.257a1.139,1.139,0,0,0,.8.091l11.945-3.1a1.48,1.48,0,0,1,1.776.945l.2.74-14.8,3.792L17.379,70.533a1.152,1.152,0,1,0-1.139,2l11.626,6.411a1.139,1.139,0,0,0,.547.137,1.218,1.218,0,0,0,.285,0l16.408-4.19a1.128,1.128,0,0,0,.808-1.412Z" transform="translate(-2.724 -10.759)"/><path d="M28.935,22.889l4.555,4.555a1.139,1.139,0,0,0,1.617,0l6.024-6.035,6.024,6.035a1.139,1.139,0,0,0,1.617,0l4.555-4.555a1.139,1.139,0,0,0,0-1.617L47.29,15.248l6.035-6.023a1.139,1.139,0,0,0,0-1.617L48.771,3.053a1.139,1.139,0,0,0-1.617,0L41.13,9.088,35.107,3.053a1.139,1.139,0,0,0-1.617,0L28.935,7.608a1.139,1.139,0,0,0,0,1.617l6.035,6.023-6.035,6.023a1.139,1.139,0,0,0,0,1.617Zm8.449-6.832a1.139,1.139,0,0,0,0-1.617L31.349,8.416,34.3,5.467,40.322,11.5a1.139,1.139,0,0,0,1.617,0l6.024-6.035,2.949,2.949L44.876,14.44a1.139,1.139,0,0,0,0,1.617l6.035,6.023-2.949,2.949-6.024-6.035a1.139,1.139,0,0,0-1.617,0L34.3,25.029,31.349,22.08Z" transform="translate(-6.97 -2.717)"/><path d="M78.447,40.2a1.139,1.139,0,0,0-.74-.478L67.812,37.9l-1.776-.319L62.847,37l-8.483-1.583a1.139,1.139,0,0,0-1.321.9L49.035,57.105a1.125,1.125,0,0,0,.911,1.332l23.365,4.3h.2a1.139,1.139,0,0,0,1.139-.922L78.64,41.107a1.139,1.139,0,0,0-.194-.911Zm-14.894-.763,4.122.763-.581,3.052-1.275-1.218a1.139,1.139,0,0,0-.786-.319.956.956,0,0,0-.433.091l-1.628.672Zm9.109,20.849L51.506,56.4l3.553-18.526,6.251,1.139-.979,5.1a1.132,1.132,0,0,0,1.537,1.3L64.76,44.2l2.277,2.152A1.107,1.107,0,0,0,68.95,45.8l.979-5.113,6.251,1.139Z" transform="translate(-10.321 -8.079)"/><path d="M63.579,52.449l-6.365-1.139a1.139,1.139,0,0,0-1.321.911l-.8,4.145a1.129,1.129,0,0,0,.911,1.344l6.365,1.139h.2a1.139,1.139,0,0,0,1.139-.922l.8-4.156a1.139,1.139,0,0,0-.911-1.332ZM61.667,56.4l-4.122-.763.364-1.913,4.133.752Z" transform="translate(-11.315 -10.688)"/><path d="M70.063,53.6a1.157,1.157,0,0,0-.41,2.277l4.247.74a.66.66,0,0,0,.2,0,1.143,1.143,0,1,0,.2-2.277Z" transform="translate(-13.551 -11.064)"/><path d="M73.345,59.357l-4.236-.786a1.157,1.157,0,1,0-.41,2.277l4.236.774h.216a1.14,1.14,0,0,0,.194-2.266Z" transform="translate(-13.395 -11.879)"/><path d="M43.856,42a1.139,1.139,0,0,0-1.139-1.139A11.387,11.387,0,0,0,31.331,52.253a1.139,1.139,0,0,0,2.277,0,9.109,9.109,0,0,1,9.109-9.109A1.139,1.139,0,0,0,43.856,42Z" transform="translate(-7.419 -8.977)"/><path d="M39.28,55.648a1.139,1.139,0,0,0,1.139-1.139,4.555,4.555,0,0,1,4.555-4.555,1.139,1.139,0,1,0,0-2.277,6.832,6.832,0,0,0-6.832,6.832A1.139,1.139,0,0,0,39.28,55.648Z" transform="translate(-8.536 -10.095)"/></g><rect width="248" height="38" rx="19" transform="translate(210.348 3899)" fill="#a5b9f6"/><rect width="248" height="38" rx="19" transform="translate(809 3899)" fill="#21c9b8"/><path d="M11.8,12.865a7.546,7.546,0,0,1-.694,3.313A5.132,5.132,0,0,1,9.136,18.4a5.494,5.494,0,0,1-2.914.778,5.572,5.572,0,0,1-2.9-.751,5.123,5.123,0,0,1-1.973-2.149,7.329,7.329,0,0,1-.743-3.208v-.721A7.58,7.58,0,0,1,1.3,9.029,5.119,5.119,0,0,1,3.274,6.81a5.533,5.533,0,0,1,2.931-.782,5.479,5.479,0,0,1,2.9.773A5.211,5.211,0,0,1,11.087,9a7.362,7.362,0,0,1,.716,3.274Zm-3.138-.536a5.381,5.381,0,0,0-.637-2.9,2.044,2.044,0,0,0-1.824-.989q-2.32,0-2.452,3.48l-.009.94a5.535,5.535,0,0,0,.624,2.892,2.041,2.041,0,0,0,1.854,1.011,2.016,2.016,0,0,0,1.8-.993,5.383,5.383,0,0,0,.642-2.856Zm-2.1-9.554H9.694L7.251,5.535H4.834Zm15.521,11.54a5.735,5.735,0,0,1-1,3.538A3.2,3.2,0,0,1,18.4,19.176a2.742,2.742,0,0,1-2.153-.958v4.438H13.28V9.49h2.769l.088.879a2.742,2.742,0,0,1,2.241-1.055,3.224,3.224,0,0,1,2.733,1.3,5.805,5.805,0,0,1,.976,3.564Zm-2.962-.185q0-2.531-1.477-2.531a1.394,1.394,0,0,0-1.406.756V16.1a1.439,1.439,0,0,0,1.424.791q1.415,0,1.459-2.443Zm7.717-7V9.49h1.564v2.057H26.842V15.9a1.111,1.111,0,0,0,.193.747,1.037,1.037,0,0,0,.765.211,4.345,4.345,0,0,0,.738-.053v2.118a5.466,5.466,0,0,1-1.67.255,3.1,3.1,0,0,1-2.259-.721,2.954,2.954,0,0,1-.729-2.188v-4.72H22.667V9.49H23.88V7.126ZM32.7,19H29.725V9.49H32.7ZM29.549,7.038A1.322,1.322,0,0,1,30.006,6a1.943,1.943,0,0,1,2.373,0,1.322,1.322,0,0,1,.457,1.037,1.322,1.322,0,0,1-.457,1.037,1.943,1.943,0,0,1-2.373,0A1.322,1.322,0,0,1,29.549,7.038Zm7.77,2.452.1,1.116a3.27,3.27,0,0,1,2.716-1.292,2.407,2.407,0,0,1,2.435,1.433A3.165,3.165,0,0,1,45.36,9.314q2.892,0,2.971,3.5V19H45.36V13a1.813,1.813,0,0,0-.246-1.063,1.048,1.048,0,0,0-.9-.334,1.4,1.4,0,0,0-1.31.782l.009.123V19H39.946V13.015a1.906,1.906,0,0,0-.237-1.081A1.045,1.045,0,0,0,38.8,11.6a1.42,1.42,0,0,0-1.3.782V19H34.541V9.49ZM55.38,19a3.344,3.344,0,0,1-.281-.853,2.754,2.754,0,0,1-2.285,1.028,3.374,3.374,0,0,1-2.285-.813,2.588,2.588,0,0,1-.94-2.043,2.66,2.66,0,0,1,1.143-2.338,5.821,5.821,0,0,1,3.322-.791h.914v-.5q0-1.31-1.134-1.31a.925.925,0,0,0-1.055,1.037H49.816a2.659,2.659,0,0,1,1.173-2.241,4.927,4.927,0,0,1,2.993-.861,4.323,4.323,0,0,1,2.874.888,3.086,3.086,0,0,1,1.081,2.435v4.21a4.311,4.311,0,0,0,.4,2V19Zm-1.854-1.934a1.652,1.652,0,0,0,.918-.237,1.487,1.487,0,0,0,.523-.536V14.772h-.861q-1.547,0-1.547,1.389a.848.848,0,0,0,.272.655A.986.986,0,0,0,53.525,17.066ZM69.416,19a3.344,3.344,0,0,1-.281-.853,2.754,2.754,0,0,1-2.285,1.028,3.374,3.374,0,0,1-2.285-.813,2.588,2.588,0,0,1-.94-2.043,2.66,2.66,0,0,1,1.143-2.338,5.821,5.821,0,0,1,3.322-.791H69v-.5q0-1.31-1.134-1.31a.925.925,0,0,0-1.055,1.037H63.853a2.659,2.659,0,0,1,1.173-2.241,4.927,4.927,0,0,1,2.993-.861,4.323,4.323,0,0,1,2.874.888,3.086,3.086,0,0,1,1.081,2.435v4.21a4.311,4.311,0,0,0,.4,2V19Zm-1.854-1.934a1.652,1.652,0,0,0,.918-.237A1.487,1.487,0,0,0,69,16.293V14.772h-.861q-1.547,0-1.547,1.389a.848.848,0,0,0,.272.655A.986.986,0,0,0,67.562,17.066Zm9.5-9.94V9.49h1.564v2.057H77.063V15.9a1.111,1.111,0,0,0,.193.747,1.037,1.037,0,0,0,.765.211,4.345,4.345,0,0,0,.738-.053v2.118a5.466,5.466,0,0,1-1.67.255,3.1,3.1,0,0,1-2.259-.721,2.954,2.954,0,0,1-.729-2.188v-4.72H72.888V9.49H74.1V7.126Zm7.33,12.05a4.889,4.889,0,0,1-3.542-1.305,4.507,4.507,0,0,1-1.354-3.4v-.246a5.84,5.84,0,0,1,.541-2.575,3.955,3.955,0,0,1,1.578-1.727,4.763,4.763,0,0,1,2.461-.611,4.117,4.117,0,0,1,3.164,1.244,4.887,4.887,0,0,1,1.16,3.467v1.151H82.512a2.135,2.135,0,0,0,.694,1.257,2.066,2.066,0,0,0,1.389.457,2.662,2.662,0,0,0,2.2-.984l1.354,1.6a3.784,3.784,0,0,1-1.569,1.217A5.3,5.3,0,0,1,84.393,19.176ZM84.059,11.6q-1.3,0-1.547,1.723H85.5v-.229a1.467,1.467,0,0,0-.36-1.1A1.434,1.434,0,0,0,84.059,11.6ZM92.312,9.49l.1,1.116a3.225,3.225,0,0,1,2.716-1.292,2.713,2.713,0,0,1,2.219.888,4.226,4.226,0,0,1,.76,2.672V19H95.133V13a1.6,1.6,0,0,0-.29-1.059,1.342,1.342,0,0,0-1.055-.338,1.413,1.413,0,0,0-1.292.686V19H89.534V9.49Zm11.452,7.4a1.317,1.317,0,0,0,.967-.338,1.241,1.241,0,0,0,.334-.945h2.777a3.288,3.288,0,0,1-1.121,2.566,4.168,4.168,0,0,1-2.887,1,4.22,4.22,0,0,1-3.27-1.3,5.125,5.125,0,0,1-1.2-3.6v-.123A5.792,5.792,0,0,1,99.9,11.6a3.872,3.872,0,0,1,1.534-1.7,4.573,4.573,0,0,1,2.373-.593,4.116,4.116,0,0,1,2.944,1.028,3.647,3.647,0,0,1,1.09,2.786h-2.777A1.626,1.626,0,0,0,104.7,12a1.244,1.244,0,0,0-.967-.4q-1.151,0-1.345,1.468a10.357,10.357,0,0,0-.062,1.283,4.068,4.068,0,0,0,.343,1.986A1.187,1.187,0,0,0,103.764,16.891ZM112.219,19h-2.971V9.49h2.971ZM109.072,7.038A1.322,1.322,0,0,1,109.529,6,1.943,1.943,0,0,1,111.9,6a1.322,1.322,0,0,1,.457,1.037,1.322,1.322,0,0,1-.457,1.037,1.943,1.943,0,0,1-2.373,0A1.322,1.322,0,0,1,109.072,7.038Zm4.6,7.119a5.613,5.613,0,0,1,.554-2.536,3.96,3.96,0,0,1,1.591-1.709,4.791,4.791,0,0,1,2.435-.6,4.373,4.373,0,0,1,3.366,1.323,5.076,5.076,0,0,1,1.23,3.6v.105a4.925,4.925,0,0,1-1.235,3.529,4.384,4.384,0,0,1-3.344,1.305A4.434,4.434,0,0,1,115,17.958a4.761,4.761,0,0,1-1.327-3.3Zm2.962.185a3.538,3.538,0,0,0,.413,1.934,1.376,1.376,0,0,0,1.222.615q1.582,0,1.617-2.435v-.3q0-2.558-1.635-2.558-1.485,0-1.608,2.206ZM118.652,5.5h3.129l-2.443,2.76h-2.417Zm8.218,3.99.1,1.116a3.225,3.225,0,0,1,2.716-1.292,2.713,2.713,0,0,1,2.219.888,4.226,4.226,0,0,1,.76,2.672V19h-2.971V13a1.6,1.6,0,0,0-.29-1.059,1.342,1.342,0,0,0-1.055-.338,1.413,1.413,0,0,0-1.292.686V19h-2.962V9.49ZM144.141,19a3.344,3.344,0,0,1-.281-.853,2.754,2.754,0,0,1-2.285,1.028,3.374,3.374,0,0,1-2.285-.813,2.588,2.588,0,0,1-.94-2.043,2.66,2.66,0,0,1,1.143-2.338,5.821,5.821,0,0,1,3.322-.791h.914v-.5q0-1.31-1.134-1.31a.925.925,0,0,0-1.055,1.037h-2.962a2.659,2.659,0,0,1,1.173-2.241,4.927,4.927,0,0,1,2.993-.861,4.323,4.323,0,0,1,2.874.888,3.086,3.086,0,0,1,1.081,2.435v4.21a4.311,4.311,0,0,0,.4,2V19Zm-1.854-1.934a1.652,1.652,0,0,0,.918-.237,1.487,1.487,0,0,0,.523-.536V14.772h-.861q-1.547,0-1.547,1.389a.848.848,0,0,0,.272.655A.986.986,0,0,0,142.286,17.066ZM151.462,19h-2.971V5.5h2.971Zm10.327-2.109a1.317,1.317,0,0,0,.967-.338,1.241,1.241,0,0,0,.334-.945h2.777a3.288,3.288,0,0,1-1.121,2.566,4.168,4.168,0,0,1-2.887,1,4.22,4.22,0,0,1-3.27-1.3,5.125,5.125,0,0,1-1.2-3.6v-.123a5.792,5.792,0,0,1,.532-2.544,3.872,3.872,0,0,1,1.534-1.7,4.573,4.573,0,0,1,2.373-.593,4.116,4.116,0,0,1,2.944,1.028,3.647,3.647,0,0,1,1.09,2.786H163.09a1.626,1.626,0,0,0-.36-1.134,1.244,1.244,0,0,0-.967-.4q-1.151,0-1.345,1.468a10.357,10.357,0,0,0-.062,1.283,4.068,4.068,0,0,0,.343,1.986A1.187,1.187,0,0,0,161.789,16.891ZM170.244,19h-2.971V5.5h2.971Zm4.948,0h-2.971V9.49h2.971ZM172.046,7.038A1.322,1.322,0,0,1,172.5,6a1.943,1.943,0,0,1,2.373,0,1.322,1.322,0,0,1,.457,1.037,1.322,1.322,0,0,1-.457,1.037,1.943,1.943,0,0,1-2.373,0A1.322,1.322,0,0,1,172.046,7.038Zm9.571,12.138a4.889,4.889,0,0,1-3.542-1.305,4.507,4.507,0,0,1-1.354-3.4v-.246a5.84,5.84,0,0,1,.541-2.575,3.955,3.955,0,0,1,1.578-1.727,4.763,4.763,0,0,1,2.461-.611,4.117,4.117,0,0,1,3.164,1.244,4.887,4.887,0,0,1,1.16,3.467v1.151h-5.889a2.135,2.135,0,0,0,.694,1.257,2.066,2.066,0,0,0,1.389.457,2.662,2.662,0,0,0,2.2-.984l1.354,1.6a3.784,3.784,0,0,1-1.569,1.217A5.3,5.3,0,0,1,181.617,19.176Zm-.334-7.576q-1.3,0-1.547,1.723h2.988v-.229a1.467,1.467,0,0,0-.36-1.1A1.434,1.434,0,0,0,181.283,11.6Zm8.253-2.109.1,1.116a3.225,3.225,0,0,1,2.716-1.292,2.713,2.713,0,0,1,2.219.888,4.226,4.226,0,0,1,.76,2.672V19h-2.971V13a1.6,1.6,0,0,0-.29-1.059,1.342,1.342,0,0,0-1.055-.338,1.413,1.413,0,0,0-1.292.686V19h-2.962V9.49Zm10.881-2.364V9.49h1.564v2.057h-1.564V15.9a1.111,1.111,0,0,0,.193.747,1.037,1.037,0,0,0,.765.211,4.345,4.345,0,0,0,.738-.053v2.118a5.466,5.466,0,0,1-1.67.255,3.1,3.1,0,0,1-2.259-.721,2.954,2.954,0,0,1-.729-2.188v-4.72h-1.213V9.49h1.213V7.126Zm7.33,12.05a4.889,4.889,0,0,1-3.542-1.305,4.507,4.507,0,0,1-1.354-3.4v-.246a5.84,5.84,0,0,1,.541-2.575,3.955,3.955,0,0,1,1.578-1.727,4.763,4.763,0,0,1,2.461-.611,4.117,4.117,0,0,1,3.164,1.244,4.887,4.887,0,0,1,1.16,3.467v1.151h-5.889a2.135,2.135,0,0,0,.694,1.257,2.066,2.066,0,0,0,1.389.457,2.662,2.662,0,0,0,2.2-.984l1.354,1.6a3.784,3.784,0,0,1-1.569,1.217A5.3,5.3,0,0,1,207.747,19.176Zm-.334-7.576q-1.3,0-1.547,1.723h2.988v-.229a1.467,1.467,0,0,0-.36-1.1A1.434,1.434,0,0,0,207.413,11.6Z" transform="translate(228.339 3907)" fill="#12263f"/><path d="M11.8,12.865a7.546,7.546,0,0,1-.694,3.313A5.132,5.132,0,0,1,9.136,18.4a5.494,5.494,0,0,1-2.914.778,5.572,5.572,0,0,1-2.9-.751,5.123,5.123,0,0,1-1.973-2.149,7.329,7.329,0,0,1-.743-3.208v-.721A7.58,7.58,0,0,1,1.3,9.029,5.119,5.119,0,0,1,3.274,6.81a5.533,5.533,0,0,1,2.931-.782,5.479,5.479,0,0,1,2.9.773A5.211,5.211,0,0,1,11.087,9a7.362,7.362,0,0,1,.716,3.274Zm-3.138-.536a5.381,5.381,0,0,0-.637-2.9,2.044,2.044,0,0,0-1.824-.989q-2.32,0-2.452,3.48l-.009.94a5.535,5.535,0,0,0,.624,2.892,2.041,2.041,0,0,0,1.854,1.011,2.016,2.016,0,0,0,1.8-.993,5.383,5.383,0,0,0,.642-2.856Zm-2.1-9.554H9.694L7.251,5.535H4.834Zm15.521,11.54a5.735,5.735,0,0,1-1,3.538A3.2,3.2,0,0,1,18.4,19.176a2.742,2.742,0,0,1-2.153-.958v4.438H13.28V9.49h2.769l.088.879a2.742,2.742,0,0,1,2.241-1.055,3.224,3.224,0,0,1,2.733,1.3,5.805,5.805,0,0,1,.976,3.564Zm-2.962-.185q0-2.531-1.477-2.531a1.394,1.394,0,0,0-1.406.756V16.1a1.439,1.439,0,0,0,1.424.791q1.415,0,1.459-2.443Zm7.717-7V9.49h1.564v2.057H26.842V15.9a1.111,1.111,0,0,0,.193.747,1.037,1.037,0,0,0,.765.211,4.345,4.345,0,0,0,.738-.053v2.118a5.466,5.466,0,0,1-1.67.255,3.1,3.1,0,0,1-2.259-.721,2.954,2.954,0,0,1-.729-2.188v-4.72H22.667V9.49H23.88V7.126ZM32.7,19H29.725V9.49H32.7ZM29.549,7.038A1.322,1.322,0,0,1,30.006,6a1.943,1.943,0,0,1,2.373,0,1.322,1.322,0,0,1,.457,1.037,1.322,1.322,0,0,1-.457,1.037,1.943,1.943,0,0,1-2.373,0A1.322,1.322,0,0,1,29.549,7.038Zm7.77,2.452.1,1.116a3.27,3.27,0,0,1,2.716-1.292,2.407,2.407,0,0,1,2.435,1.433A3.165,3.165,0,0,1,45.36,9.314q2.892,0,2.971,3.5V19H45.36V13a1.813,1.813,0,0,0-.246-1.063,1.048,1.048,0,0,0-.9-.334,1.4,1.4,0,0,0-1.31.782l.009.123V19H39.946V13.015a1.906,1.906,0,0,0-.237-1.081A1.045,1.045,0,0,0,38.8,11.6a1.42,1.42,0,0,0-1.3.782V19H34.541V9.49ZM55.38,19a3.344,3.344,0,0,1-.281-.853,2.754,2.754,0,0,1-2.285,1.028,3.374,3.374,0,0,1-2.285-.813,2.588,2.588,0,0,1-.94-2.043,2.66,2.66,0,0,1,1.143-2.338,5.821,5.821,0,0,1,3.322-.791h.914v-.5q0-1.31-1.134-1.31a.925.925,0,0,0-1.055,1.037H49.816a2.659,2.659,0,0,1,1.173-2.241,4.927,4.927,0,0,1,2.993-.861,4.323,4.323,0,0,1,2.874.888,3.086,3.086,0,0,1,1.081,2.435v4.21a4.311,4.311,0,0,0,.4,2V19Zm-1.854-1.934a1.652,1.652,0,0,0,.918-.237,1.487,1.487,0,0,0,.523-.536V14.772h-.861q-1.547,0-1.547,1.389a.848.848,0,0,0,.272.655A.986.986,0,0,0,53.525,17.066ZM69.416,19a3.344,3.344,0,0,1-.281-.853,2.754,2.754,0,0,1-2.285,1.028,3.374,3.374,0,0,1-2.285-.813,2.588,2.588,0,0,1-.94-2.043,2.66,2.66,0,0,1,1.143-2.338,5.821,5.821,0,0,1,3.322-.791H69v-.5q0-1.31-1.134-1.31a.925.925,0,0,0-1.055,1.037H63.853a2.659,2.659,0,0,1,1.173-2.241,4.927,4.927,0,0,1,2.993-.861,4.323,4.323,0,0,1,2.874.888,3.086,3.086,0,0,1,1.081,2.435v4.21a4.311,4.311,0,0,0,.4,2V19Zm-1.854-1.934a1.652,1.652,0,0,0,.918-.237A1.487,1.487,0,0,0,69,16.293V14.772h-.861q-1.547,0-1.547,1.389a.848.848,0,0,0,.272.655A.986.986,0,0,0,67.562,17.066Zm9.5-9.94V9.49h1.564v2.057H77.063V15.9a1.111,1.111,0,0,0,.193.747,1.037,1.037,0,0,0,.765.211,4.345,4.345,0,0,0,.738-.053v2.118a5.466,5.466,0,0,1-1.67.255,3.1,3.1,0,0,1-2.259-.721,2.954,2.954,0,0,1-.729-2.188v-4.72H72.888V9.49H74.1V7.126Zm7.33,12.05a4.889,4.889,0,0,1-3.542-1.305,4.507,4.507,0,0,1-1.354-3.4v-.246a5.84,5.84,0,0,1,.541-2.575,3.955,3.955,0,0,1,1.578-1.727,4.763,4.763,0,0,1,2.461-.611,4.117,4.117,0,0,1,3.164,1.244,4.887,4.887,0,0,1,1.16,3.467v1.151H82.512a2.135,2.135,0,0,0,.694,1.257,2.066,2.066,0,0,0,1.389.457,2.662,2.662,0,0,0,2.2-.984l1.354,1.6a3.784,3.784,0,0,1-1.569,1.217A5.3,5.3,0,0,1,84.393,19.176ZM84.059,11.6q-1.3,0-1.547,1.723H85.5v-.229a1.467,1.467,0,0,0-.36-1.1A1.434,1.434,0,0,0,84.059,11.6ZM92.312,9.49l.1,1.116a3.225,3.225,0,0,1,2.716-1.292,2.713,2.713,0,0,1,2.219.888,4.226,4.226,0,0,1,.76,2.672V19H95.133V13a1.6,1.6,0,0,0-.29-1.059,1.342,1.342,0,0,0-1.055-.338,1.413,1.413,0,0,0-1.292.686V19H89.534V9.49Zm11.452,7.4a1.317,1.317,0,0,0,.967-.338,1.241,1.241,0,0,0,.334-.945h2.777a3.288,3.288,0,0,1-1.121,2.566,4.168,4.168,0,0,1-2.887,1,4.22,4.22,0,0,1-3.27-1.3,5.125,5.125,0,0,1-1.2-3.6v-.123A5.792,5.792,0,0,1,99.9,11.6a3.872,3.872,0,0,1,1.534-1.7,4.573,4.573,0,0,1,2.373-.593,4.116,4.116,0,0,1,2.944,1.028,3.647,3.647,0,0,1,1.09,2.786h-2.777A1.626,1.626,0,0,0,104.7,12a1.244,1.244,0,0,0-.967-.4q-1.151,0-1.345,1.468a10.357,10.357,0,0,0-.062,1.283,4.068,4.068,0,0,0,.343,1.986A1.187,1.187,0,0,0,103.764,16.891ZM112.219,19h-2.971V9.49h2.971ZM109.072,7.038A1.322,1.322,0,0,1,109.529,6,1.943,1.943,0,0,1,111.9,6a1.322,1.322,0,0,1,.457,1.037,1.322,1.322,0,0,1-.457,1.037,1.943,1.943,0,0,1-2.373,0A1.322,1.322,0,0,1,109.072,7.038Zm4.6,7.119a5.613,5.613,0,0,1,.554-2.536,3.96,3.96,0,0,1,1.591-1.709,4.791,4.791,0,0,1,2.435-.6,4.373,4.373,0,0,1,3.366,1.323,5.076,5.076,0,0,1,1.23,3.6v.105a4.925,4.925,0,0,1-1.235,3.529,4.384,4.384,0,0,1-3.344,1.305A4.434,4.434,0,0,1,115,17.958a4.761,4.761,0,0,1-1.327-3.3Zm2.962.185a3.538,3.538,0,0,0,.413,1.934,1.376,1.376,0,0,0,1.222.615q1.582,0,1.617-2.435v-.3q0-2.558-1.635-2.558-1.485,0-1.608,2.206ZM118.652,5.5h3.129l-2.443,2.76h-2.417Zm8.218,3.99.1,1.116a3.225,3.225,0,0,1,2.716-1.292,2.713,2.713,0,0,1,2.219.888,4.226,4.226,0,0,1,.76,2.672V19h-2.971V13a1.6,1.6,0,0,0-.29-1.059,1.342,1.342,0,0,0-1.055-.338,1.413,1.413,0,0,0-1.292.686V19h-2.962V9.49ZM144.141,19a3.344,3.344,0,0,1-.281-.853,2.754,2.754,0,0,1-2.285,1.028,3.374,3.374,0,0,1-2.285-.813,2.588,2.588,0,0,1-.94-2.043,2.66,2.66,0,0,1,1.143-2.338,5.821,5.821,0,0,1,3.322-.791h.914v-.5q0-1.31-1.134-1.31a.925.925,0,0,0-1.055,1.037h-2.962a2.659,2.659,0,0,1,1.173-2.241,4.927,4.927,0,0,1,2.993-.861,4.323,4.323,0,0,1,2.874.888,3.086,3.086,0,0,1,1.081,2.435v4.21a4.311,4.311,0,0,0,.4,2V19Zm-1.854-1.934a1.652,1.652,0,0,0,.918-.237,1.487,1.487,0,0,0,.523-.536V14.772h-.861q-1.547,0-1.547,1.389a.848.848,0,0,0,.272.655A.986.986,0,0,0,142.286,17.066ZM151.462,19h-2.971V5.5h2.971Zm10.327-2.109a1.317,1.317,0,0,0,.967-.338,1.241,1.241,0,0,0,.334-.945h2.777a3.288,3.288,0,0,1-1.121,2.566,4.168,4.168,0,0,1-2.887,1,4.22,4.22,0,0,1-3.27-1.3,5.125,5.125,0,0,1-1.2-3.6v-.123a5.792,5.792,0,0,1,.532-2.544,3.872,3.872,0,0,1,1.534-1.7,4.573,4.573,0,0,1,2.373-.593,4.116,4.116,0,0,1,2.944,1.028,3.647,3.647,0,0,1,1.09,2.786H163.09a1.626,1.626,0,0,0-.36-1.134,1.244,1.244,0,0,0-.967-.4q-1.151,0-1.345,1.468a10.357,10.357,0,0,0-.062,1.283,4.068,4.068,0,0,0,.343,1.986A1.187,1.187,0,0,0,161.789,16.891ZM170.244,19h-2.971V5.5h2.971Zm4.948,0h-2.971V9.49h2.971ZM172.046,7.038A1.322,1.322,0,0,1,172.5,6a1.943,1.943,0,0,1,2.373,0,1.322,1.322,0,0,1,.457,1.037,1.322,1.322,0,0,1-.457,1.037,1.943,1.943,0,0,1-2.373,0A1.322,1.322,0,0,1,172.046,7.038Zm9.571,12.138a4.889,4.889,0,0,1-3.542-1.305,4.507,4.507,0,0,1-1.354-3.4v-.246a5.84,5.84,0,0,1,.541-2.575,3.955,3.955,0,0,1,1.578-1.727,4.763,4.763,0,0,1,2.461-.611,4.117,4.117,0,0,1,3.164,1.244,4.887,4.887,0,0,1,1.16,3.467v1.151h-5.889a2.135,2.135,0,0,0,.694,1.257,2.066,2.066,0,0,0,1.389.457,2.662,2.662,0,0,0,2.2-.984l1.354,1.6a3.784,3.784,0,0,1-1.569,1.217A5.3,5.3,0,0,1,181.617,19.176Zm-.334-7.576q-1.3,0-1.547,1.723h2.988v-.229a1.467,1.467,0,0,0-.36-1.1A1.434,1.434,0,0,0,181.283,11.6Zm8.253-2.109.1,1.116a3.225,3.225,0,0,1,2.716-1.292,2.713,2.713,0,0,1,2.219.888,4.226,4.226,0,0,1,.76,2.672V19h-2.971V13a1.6,1.6,0,0,0-.29-1.059,1.342,1.342,0,0,0-1.055-.338,1.413,1.413,0,0,0-1.292.686V19h-2.962V9.49Zm10.881-2.364V9.49h1.564v2.057h-1.564V15.9a1.111,1.111,0,0,0,.193.747,1.037,1.037,0,0,0,.765.211,4.345,4.345,0,0,0,.738-.053v2.118a5.466,5.466,0,0,1-1.67.255,3.1,3.1,0,0,1-2.259-.721,2.954,2.954,0,0,1-.729-2.188v-4.72h-1.213V9.49h1.213V7.126Zm7.33,12.05a4.889,4.889,0,0,1-3.542-1.305,4.507,4.507,0,0,1-1.354-3.4v-.246a5.84,5.84,0,0,1,.541-2.575,3.955,3.955,0,0,1,1.578-1.727,4.763,4.763,0,0,1,2.461-.611,4.117,4.117,0,0,1,3.164,1.244,4.887,4.887,0,0,1,1.16,3.467v1.151h-5.889a2.135,2.135,0,0,0,.694,1.257,2.066,2.066,0,0,0,1.389.457,2.662,2.662,0,0,0,2.2-.984l1.354,1.6a3.784,3.784,0,0,1-1.569,1.217A5.3,5.3,0,0,1,207.747,19.176Zm-.334-7.576q-1.3,0-1.547,1.723h2.988v-.229a1.467,1.467,0,0,0-.36-1.1A1.434,1.434,0,0,0,207.413,11.6Z" transform="translate(826.992 3907)" fill="#12263f"/><circle cx="52" cy="52" r="52" transform="translate(294 3960)" fill="#f6f8fe"/><circle cx="52" cy="52" r="52" transform="translate(892.652 3956)" fill="#bcefea" opacity="0.15"/><circle cx="52" cy="52" r="52" transform="translate(449.339 3957.259)" fill="#f6f8fe"/><circle cx="52" cy="52" r="52" transform="translate(1055.348 3956)" fill="#bcefea" opacity="0.15"/><circle cx="52" cy="52" r="52" transform="translate(612 3955.757)" fill="#f6f8fe"/><g transform="translate(313 3975.739)"><rect width="63.117" height="23.235" rx="3.88" transform="translate(1.017 40.899)" fill="#837683"/><g transform="translate(0 0)"><path d="M58.766,72.021H1.834a3.082,3.082,0,0,1-.506-.042,3.1,3.1,0,0,0,3.051,2.587H61.312A3.1,3.1,0,0,0,64.4,71.474V54.423a3.1,3.1,0,0,0-2.587-3.051,3.084,3.084,0,0,1,.042.506V68.929a3.1,3.1,0,0,1-3.092,3.092Z" transform="translate(-0.27 -10.431)" fill="#685e68" fill-rule="evenodd"/><path d="M38.006,31.781,50.5,38.994A1.253,1.253,0,0,1,51.14,40.1V54.53a1.253,1.253,0,0,1-.641,1.111L38.006,62.854a1.253,1.253,0,0,1-1.283,0L24.23,55.641a1.253,1.253,0,0,1-.641-1.111V40.1a1.253,1.253,0,0,1,.641-1.111l12.493-7.213a1.253,1.253,0,0,1,1.283,0Z" transform="translate(-4.789 -6.418)" fill="#f2d1a5" fill-rule="evenodd"/><path d="M54.482,41.462a1.278,1.278,0,0,1,.168.641v14.43a1.253,1.253,0,0,1-.641,1.108L41.515,64.855a1.278,1.278,0,0,1-.641.177V49.319Z" transform="translate(-8.298 -8.419)" fill="#e3a76f" fill-rule="evenodd"/><path d="M38.049,31.781l12.493,7.213a1.277,1.277,0,0,1,.474.467L37.407,47.317,23.8,39.461a1.279,1.279,0,0,1,.474-.467l12.493-7.213a1.253,1.253,0,0,1,1.283,0Z" transform="translate(-4.832 -6.418)" fill="#c48958" fill-rule="evenodd"/><path d="M29.725,42.857l3.995,2.306L47.5,37.21,43.5,34.9Z" transform="translate(-6.035 -7.088)" fill="#d1d1d6" fill-rule="evenodd"/><path d="M33.239,53.176l-3.193-1.844a.627.627,0,0,1-.321-.555V44.883l3.995,2.306V52.9a.321.321,0,0,1-.481.278Z" transform="translate(-6.035 -9.114)" fill="#eceff1" fill-rule="evenodd"/><path d="M10.485,1.525l1.832,4.826a.375.375,0,0,0,.338.246l5.157.251a.382.382,0,0,1,.221.679l-4.024,3.234a.375.375,0,0,0-.129.4l1.354,4.982a.382.382,0,0,1-.577.42l-4.319-2.828a.375.375,0,0,0-.418,0L5.6,16.561a.382.382,0,0,1-.577-.42L6.376,11.16a.375.375,0,0,0-.129-.4L2.223,7.528a.382.382,0,0,1,.221-.679L7.6,6.6a.375.375,0,0,0,.338-.246L9.77,1.525a.382.382,0,0,1,.714,0Zm45.74,0,1.832,4.826A.375.375,0,0,0,58.4,6.6l5.157.251a.382.382,0,0,1,.221.679l-4.024,3.234a.375.375,0,0,0-.129.4l1.354,4.982a.382.382,0,0,1-.577.42l-4.319-2.828a.375.375,0,0,0-.418,0l-4.319,2.827a.382.382,0,0,1-.577-.42l1.354-4.982a.375.375,0,0,0-.129-.4L47.963,7.528a.382.382,0,0,1,.221-.679L53.34,6.6a.375.375,0,0,0,.338-.246l1.832-4.826a.382.382,0,0,1,.714,0Zm-22.87,0,1.832,4.826a.375.375,0,0,0,.338.246l5.157.251a.382.382,0,0,1,.221.679l-4.024,3.234a.375.375,0,0,0-.129.4L38.1,16.141a.382.382,0,0,1-.577.42l-4.32-2.828a.375.375,0,0,0-.418,0l-4.32,2.827a.382.382,0,0,1-.577-.42l1.354-4.982a.375.375,0,0,0-.129-.4L25.093,7.528a.382.382,0,0,1,.221-.679L30.47,6.6a.375.375,0,0,0,.338-.246l1.832-4.826a.382.382,0,0,1,.714,0Z" transform="translate(-0.422 -0.261)" fill="#ffe177" fill-rule="evenodd"/><path d="M17.948,17.55l-1.354-4.982a.375.375,0,0,1,.129-.4l4.024-3.234a.382.382,0,0,0-.221-.679l-.83-.04a.388.388,0,0,1,.045.094.376.376,0,0,1-.124.415l-4.024,3.234a.375.375,0,0,0-.129.4l1.354,4.982a.378.378,0,0,1-.018.256l.57.373a.382.382,0,0,0,.577-.42ZM61.2,12.358l1.354,4.982a.378.378,0,0,1-.019.256l.57.373a.382.382,0,0,0,.577-.42l-1.354-4.981a.375.375,0,0,1,.129-.4l4.024-3.234a.382.382,0,0,0-.221-.679l-.83-.04a.4.4,0,0,1,.045.094.376.376,0,0,1-.124.415l-4.024,3.234a.375.375,0,0,0-.129.4ZM40.819,17.55l-1.355-4.982a.375.375,0,0,1,.129-.4l4.024-3.234a.382.382,0,0,0-.221-.679l-.83-.04a.393.393,0,0,1,.045.094.376.376,0,0,1-.124.415l-4.024,3.234a.375.375,0,0,0-.129.4l1.354,4.982a.379.379,0,0,1-.018.256l.57.373a.382.382,0,0,0,.577-.42Z" transform="translate(-3.137 -1.67)" fill="#ffd064" fill-rule="evenodd"/><path d="M63.116,61.044a2.076,2.076,0,0,1-2.071,2.074H4.11a2.076,2.076,0,0,1-2.074-2.074V43.994A2.076,2.076,0,0,1,4.11,41.92H17.783v6.935a1.016,1.016,0,0,0,.509.881l13.775,7.953a1.012,1.012,0,0,0,1.018,0l13.775-7.953a1.015,1.015,0,0,0,.509-.881V41.92H61.045a2.076,2.076,0,0,1,2.071,2.074ZM32.577,26.17l2.854,1.648L23.692,34.6l-2.854-1.648Zm1.018,15.319V55.044l11.739-6.777V34.711Zm-6.926-2.822L24.71,37.534v3.913l1.958,1.13ZM27.686,36.9l11.739-6.777-1.958-1.131-11.74,6.777L27.686,36.9Zm4.89,2.824,11.739-6.778L41.461,31.3,29.722,38.078ZM19.82,34.711V48.267l11.739,6.777V41.488L28.7,39.84v4.5a1.018,1.018,0,0,1-1.527.882l-3.994-2.307a1.013,1.013,0,0,1-.509-.88V36.359L19.82,34.711Zm41.225,5.173H47.37V32.948a1.016,1.016,0,0,0-.509-.882L33.086,24.113a1.018,1.018,0,0,0-1.018,0L18.293,32.066a1.018,1.018,0,0,0-.509.882v6.935H4.11A4.115,4.115,0,0,0,0,43.994v17.05a4.115,4.115,0,0,0,4.11,4.11H61.045a4.114,4.114,0,0,0,4.106-4.11V43.994a4.114,4.114,0,0,0-4.106-4.11ZM30.1,7.356a1.4,1.4,0,0,0,1.241-.9l1.238-3.259,1.239,3.259a1.4,1.4,0,0,0,1.239.9l3.483.169L35.819,9.71a1.4,1.4,0,0,0-.473,1.458l.914,3.365-2.918-1.91a1.4,1.4,0,0,0-1.532,0l-2.918,1.91.915-3.366a1.4,1.4,0,0,0-.474-1.457L26.616,7.525Zm-6.063.706,3.7,2.974-1.246,4.58a1.4,1.4,0,0,0,2.119,1.538l3.97-2.6,3.971,2.6a1.4,1.4,0,0,0,2.116-1.539l-1.244-4.58,3.7-2.974a1.4,1.4,0,0,0-.809-2.489l-4.74-.232L33.885.905a1.4,1.4,0,0,0-2.616,0L29.584,5.341l-4.74.232a1.4,1.4,0,0,0-.809,2.489Zm28.933-.706a1.4,1.4,0,0,0,1.242-.9l1.237-3.259,1.238,3.259a1.4,1.4,0,0,0,1.238.9l3.482.169L58.691,9.71a1.4,1.4,0,0,0-.474,1.458l.913,3.365-2.916-1.91a1.4,1.4,0,0,0-1.533,0l-2.918,1.91.915-3.366A1.4,1.4,0,0,0,52.2,9.71L49.486,7.525ZM46.9,8.062l3.7,2.974-1.245,4.58a1.4,1.4,0,0,0,2.117,1.539l3.97-2.6,3.971,2.6a1.4,1.4,0,0,0,2.119-1.539l-1.249-4.58,3.7-2.974a1.4,1.4,0,0,0-.8-2.489l-4.743-.232L56.758.905a1.4,1.4,0,0,0-2.62,0L52.454,5.341l-4.74.232A1.4,1.4,0,0,0,46.9,8.062ZM7.228,7.356a1.4,1.4,0,0,0,1.24-.9L9.707,3.194l1.237,3.259a1.4,1.4,0,0,0,1.241.9l3.483.169L12.949,9.71a1.4,1.4,0,0,0-.474,1.458l.915,3.365-2.918-1.91a1.4,1.4,0,0,0-1.533,0l-2.917,1.91.915-3.366A1.4,1.4,0,0,0,6.463,9.71L3.746,7.525Zm-6.064.706,3.7,2.974-1.246,4.58a1.4,1.4,0,0,0,2.117,1.539l3.971-2.6,3.97,2.6a1.4,1.4,0,0,0,2.118-1.539l-1.245-4.58,3.7-2.974a1.4,1.4,0,0,0-.809-2.489L12.7,5.341,11.015.905A1.4,1.4,0,0,0,8.4.905L6.714,5.341l-4.741.232a1.4,1.4,0,0,0-.808,2.489Z" transform="translate(0 -0.002)" fill-rule="evenodd"/></g></g><g transform="translate(476.641 3975.739)"><g transform="translate(1.051 1.051)"><g transform="translate(0 21.017)"><path d="M36.7,29.008H7.376a2.1,2.1,0,0,0-2.1,2.1V68.94a2.1,2.1,0,0,0,2.1,2.1H45.207a2.1,2.1,0,0,0,2.1-2.1V41.352" transform="translate(-5.274 -29.008)" fill="#a0815c"/><path d="M36.344,50.025l-6.305-4.2-6.305,4.2V29.008h12.61Z" transform="translate(-9.022 -29.008)" fill="#ffda44"/><path d="M9.23,67.246H19.738v8.407H9.23Z" transform="translate(-6.077 -36.771)" fill="#2488ff"/></g><ellipse cx="13.661" cy="13.661" rx="13.661" ry="13.661" transform="translate(31.526 6.305)" fill="#57565c"/><ellipse cx="10.509" cy="10.509" rx="10.509" ry="10.509" transform="translate(34.678 9.458)" fill="#e0e0e2"/><path d="M61.972,22.415v4.2l2.1,2.1" transform="translate(-16.785 -6.653)" fill="#e0e0e2"/><path d="M58.016,2.637h6.305V5.79H58.016Z" transform="translate(-15.982 -2.637)" fill="#ff9811"/><path d="M75.157,15.287l2.1-2.1" transform="translate(-19.462 -4.779)" fill="#e0e0e2"/></g><g transform="translate(0 0)"><path d="M19.471,65.927H8.962a1.051,1.051,0,0,0-1.051,1.051v8.407a1.051,1.051,0,0,0,1.051,1.051H19.471a1.051,1.051,0,0,0,1.051-1.051V66.978A1.051,1.051,0,0,0,19.471,65.927ZM18.42,74.334H10.013V68.029H18.42Z" transform="translate(-4.759 -14.436)"/><path d="M34.51,65.927H26.1a1.051,1.051,0,1,0,0,2.1H34.51a1.051,1.051,0,1,0,0-2.1Z" transform="translate(-8.239 -14.436)"/><path d="M30.307,69.883H26.1a1.051,1.051,0,1,0,0,2.1h4.2a1.051,1.051,0,1,0,0-2.1Z" transform="translate(-8.239 -15.239)"/><path d="M28.2,73.839H26.1a1.051,1.051,0,1,0,0,2.1h2.1a1.051,1.051,0,1,0,0-2.1Z" transform="translate(-8.239 -16.042)"/><path d="M59.027,13.185A11.559,11.559,0,1,0,70.587,24.745,11.559,11.559,0,0,0,59.027,13.185Zm0,21.017a9.458,9.458,0,1,1,9.458-9.458A9.458,9.458,0,0,1,59.027,34.2Z" transform="translate(-12.789 -3.728)"/><path d="M61.783,13.284l1.764-1.764a1.051,1.051,0,1,0-1.487-1.487l-1.689,1.689a14.663,14.663,0,0,0-9.127-4.06V6.573h2.1A1.051,1.051,0,0,0,54.4,5.522V2.369a1.051,1.051,0,0,0-1.051-1.051H47.041A1.051,1.051,0,0,0,45.99,2.369V5.522a1.051,1.051,0,0,0,1.051,1.051h2.1V7.662A14.73,14.73,0,0,0,35.481,22.336H7.108a3.157,3.157,0,0,0-3.153,3.153V63.319a3.157,3.157,0,0,0,3.153,3.153H44.939a3.157,3.157,0,0,0,3.153-3.153V36.9A14.7,14.7,0,0,0,61.783,13.284ZM48.092,4.471V3.42h4.2V4.471ZM20.769,24.437H31.278v18l-4.671-3.114a1.054,1.054,0,0,0-1.166,0L20.769,42.44ZM45.99,63.319a1.052,1.052,0,0,1-1.051,1.051H7.108a1.052,1.052,0,0,1-1.051-1.051V25.488a1.052,1.052,0,0,1,1.051-1.051H18.668V44.4a1.052,1.052,0,0,0,1.634.875l5.722-3.816,5.722,3.816A1.052,1.052,0,0,0,33.38,44.4V24.437h2.253a14.751,14.751,0,0,0,10.358,12Zm4.2-28.373A12.61,12.61,0,1,1,62.8,22.336,12.61,12.61,0,0,1,50.193,34.946Z" transform="translate(-3.956 -1.319)"/><path d="M62.755,25.916V22.148a1.051,1.051,0,0,0-2.1,0v4.2a1.051,1.051,0,0,0,.308.743l2.1,2.1a1.051,1.051,0,0,0,1.486-1.486Z" transform="translate(-15.466 -5.334)"/></g></g><g transform="translate(631.272 3978.992)"><g transform="translate(23.347 1.05)"><path d="M65.76,9.859V43.842a1.518,1.518,0,0,1-1.518,1.518H30.812a1.518,1.518,0,0,1-1.518-1.518V9.859A1.518,1.518,0,0,1,30.812,8.34h33.43A1.518,1.518,0,0,1,65.76,9.859Z" transform="translate(-29.294 -8.34)" fill="#fb9927"/><path d="M32.991,27.9a2.538,2.538,0,0,1,2.653-2.414l1,.048a10.849,10.849,0,0,0-6.082-1.865,10.539,10.539,0,0,0-1.272.075v-5.1q.628-.05,1.272-.051a15.918,15.918,0,0,1,9.743,3.328l.033-.717a2.536,2.536,0,0,1,5.066.239l-.332,7.021a2.534,2.534,0,0,1-2.443,2.414,1.994,1.994,0,0,1-.209,0" transform="translate(-29.294 -10.424)" fill="#f98824"/><path d="M73.345,9.859V43.841a1.519,1.519,0,0,1-1.518,1.518H66.653a1.519,1.519,0,0,0,1.518-1.518V9.859A1.519,1.519,0,0,0,66.653,8.34h5.173a1.519,1.519,0,0,1,1.518,1.518Z" transform="translate(-36.878 -8.34)" fill="#f98824"/><g transform="translate(18.233 23.509)"><path d="M64.252,46.571H53.69a1.518,1.518,0,0,1-1.518-1.518v-5.7a1.518,1.518,0,0,1,1.518-1.518H64.252a1.518,1.518,0,0,1,1.518,1.518v5.7A1.518,1.518,0,0,1,64.252,46.571Z" transform="translate(-52.172 -37.838)" fill="#68dbf9"/><path d="M67.825,39.356v5.7a1.518,1.518,0,0,1-1.518,1.518H62.29a1.518,1.518,0,0,0,1.518-1.518v-5.7a1.519,1.519,0,0,0-1.518-1.518h4.016A1.519,1.519,0,0,1,67.825,39.356Z" transform="translate(-54.226 -37.838)" fill="#24d1f8"/></g><g transform="translate(13.619 0)"><path d="M55.611,21.065V8.34H46.382V21.065A1.518,1.518,0,0,0,47.9,22.584h6.192a1.518,1.518,0,0,0,1.518-1.518Z" transform="translate(-46.382 -8.34)" fill="#f98824"/><path d="M55.611,17.877V8.34H46.382v9.536A1.518,1.518,0,0,0,47.9,19.395h6.192a1.518,1.518,0,0,0,1.518-1.518Z" transform="translate(-46.382 -8.34)" fill="#fee7c9"/></g></g><path d="M39.258,14.634a2.538,2.538,0,0,0-2.652,2.413l-.034.717A15.938,15.938,0,1,0,21.74,45.48a2.535,2.535,0,1,0,1.619-4.805,10.867,10.867,0,1,1,9.553-19.3l-1-.047a2.535,2.535,0,1,0-.238,5.065l7.021.33q.105,0,.209,0a2.536,2.536,0,0,0,2.443-2.415l.33-7.021a2.535,2.535,0,0,0-2.413-2.652Z" transform="translate(-2.211 -8.528)" fill="#27e19d"/><g transform="translate(1.051 25.252)"><g transform="translate(0 6.376)"><path d="M45.729,74.563H2.9a1.578,1.578,0,0,1-1.578-1.578v-24.7A1.578,1.578,0,0,1,2.9,46.708H45.729a1.578,1.578,0,0,1,1.578,1.578v24.7a1.578,1.578,0,0,1-1.578,1.578Z" transform="translate(-1.318 -46.708)" fill="#23f1a8"/><path d="M57.569,48.287v24.7a1.579,1.579,0,0,1-1.578,1.579h-4.13a1.579,1.579,0,0,0,1.578-1.579v-24.7a1.579,1.579,0,0,0-1.578-1.579h4.13a1.579,1.579,0,0,1,1.578,1.579Z" transform="translate(-11.579 -46.708)" fill="#26d192"/><path d="M43.78,53.6v9.944a.949.949,0,0,1-.954.946,6.916,6.916,0,0,0-1.855.271,4.952,4.952,0,0,0-3.362,3.162,6.745,6.745,0,0,0-.378,2.152.954.954,0,0,1-.947.964H8.206a.947.947,0,0,1-.947-.947V60.144A.944.944,0,0,1,8.2,59.2a5.868,5.868,0,0,0,3.992-1.564A5.731,5.731,0,0,0,13.544,55.4a6.536,6.536,0,0,0,.265-1.82.941.941,0,0,1,.946-.933H42.833a.947.947,0,0,1,.947.947Z" transform="translate(-2.524 -47.914)" fill="#17998c"/><path d="M50.353,53.6v9.944a.947.947,0,0,1-.953.946,6.912,6.912,0,0,0-1.856.272,4.946,4.946,0,0,0-3.362,3.162A6.725,6.725,0,0,0,43.8,70.07a.953.953,0,0,1-.947.963H39.637a.953.953,0,0,0,.946-.963,6.768,6.768,0,0,1,.378-2.151,4.949,4.949,0,0,1,3.362-3.162,6.913,6.913,0,0,1,1.856-.272.947.947,0,0,0,.953-.946V53.6a.947.947,0,0,0-.946-.947h3.22A.947.947,0,0,1,50.353,53.6Z" transform="translate(-9.098 -47.914)" fill="#138b80"/><ellipse cx="9.193" cy="9.193" rx="9.193" ry="9.193" transform="translate(13.801 4.735)" fill="#fcc16d"/><path d="M38.734,61.841A9.2,9.2,0,0,1,27.074,70.7a8.935,8.935,0,0,0,0-17.715,9.2,9.2,0,0,1,11.663,8.857Z" transform="translate(-6.547 -47.914)" fill="#fca62f"/></g><path d="M80.84,53.817A15.938,15.938,0,0,1,55.157,66.429l-.033.717a2.535,2.535,0,1,1-5.065-.239l.33-7.021a2.534,2.534,0,0,1,2.443-2.414q.1,0,.209,0l7.021.332a2.535,2.535,0,1,1-.238,5.065l-1.005-.048A10.868,10.868,0,1,0,69.975,44.2v-5.5l.014,0A15.926,15.926,0,0,1,80.84,53.817Z" transform="translate(-11.213 -38.707)" fill="#21c1f8"/><path d="M78.519,40.365a15.907,15.907,0,0,0-3.455-1.653l-.014,0v5.5A10.851,10.851,0,0,1,78.519,47.1V40.365Z" transform="translate(-16.287 -38.708)" fill="#1faaee"/></g><g transform="translate(0 0)"><path d="M57.864,33.4h8.849a1.051,1.051,0,0,0,0-2.1H57.864a1.051,1.051,0,1,0,0,2.1Z" transform="translate(-11.534 -11.952)"/><path d="M66.847,29.109h1.69a1.051,1.051,0,1,0,0-2.1h-1.69a1.051,1.051,0,0,0,0,2.1Z" transform="translate(-13.358 -11.08)"/><path d="M6.992,55.408a1.051,1.051,0,0,0,1.051-1.051v-.926h.926a1.051,1.051,0,1,0,0-2.1H6.992a1.051,1.051,0,0,0-1.051,1.051v1.977A1.051,1.051,0,0,0,6.992,55.408Z" transform="translate(-1.206 -16.018)"/><path d="M32.883,63.644a1.05,1.05,0,0,0-1.408.475,2.5,2.5,0,1,1-1.36-3.455l-1.684,1.9A1.051,1.051,0,0,0,30,63.96l2.486-2.808a1.051,1.051,0,0,0-.055-1.451,4.608,4.608,0,1,0,.923,5.351A1.051,1.051,0,0,0,32.883,63.644Z" transform="translate(-4.998 -17.454)"/><path d="M60.863,31.538V9.592a2.572,2.572,0,0,0-2.569-2.569H24.865A2.572,2.572,0,0,0,22.3,9.592V12.04A16.99,16.99,0,0,0,10.042,37.6H2.63A2.632,2.632,0,0,0,0,40.229v24.7a2.632,2.632,0,0,0,2.63,2.63H45.462a2.632,2.632,0,0,0,2.628-2.63V63.011A16.986,16.986,0,1,0,60.863,31.538ZM38.016,12.244V9.124h7.128v8.485a.469.469,0,0,1-.468.468H40.4l.105-2.248a3.592,3.592,0,0,0-2.494-3.585ZM24.4,9.592a.468.468,0,0,1,.468-.468H35.914v3.1a3.605,3.605,0,0,0-2.354,2.206,17.084,17.084,0,0,0-8.942-2.547l-.221,0V9.592ZM9.73,28.87A14.887,14.887,0,0,1,33.72,17.09a1.051,1.051,0,0,0,1.692-.782l.034-.717a1.484,1.484,0,1,1,2.965.14l-.329,7.021a1.493,1.493,0,0,1-1.423,1.415c-.046,0-.09,0-.131,0l-7.022-.33a1.486,1.486,0,0,1-1.414-1.553,1.491,1.491,0,0,1,1.553-1.414l1,.048A1.051,1.051,0,0,0,31.289,19,11.916,11.916,0,0,0,12.7,28.87a11.987,11.987,0,0,0,3.814,8.73H12.556A14.969,14.969,0,0,1,9.73,28.87ZM45.989,64.927a.528.528,0,0,1-.527.528H2.63a.529.529,0,0,1-.528-.528v-24.7A.528.528,0,0,1,2.63,39.7H30.166a1.051,1.051,0,1,0,0-2.1H24.4V32.11a1.051,1.051,0,0,0-2.1,0V37.6H20.131A9.815,9.815,0,0,1,22.3,19.334v7.589a1.051,1.051,0,0,0,2.1,0V19.059c.074,0,.147-.006.221-.006a9.8,9.8,0,0,1,2.828.415,3.585,3.585,0,0,0,1.961,6.465l7.028.331c.091,0,.181,0,.272,0h.016a3.606,3.606,0,0,0,3.457-3.416l.125-2.672h4.37a2.572,2.572,0,0,0,2.569-2.569V9.124H58.294a.468.468,0,0,1,.468.468V43.574a.468.468,0,0,1-.468.468H48.09V41.365h5.57A2.572,2.572,0,0,0,56.23,38.8V33.1a2.572,2.572,0,0,0-2.569-2.569H43.1A2.572,2.572,0,0,0,40.529,33.1v4.5H35.354a1.051,1.051,0,1,0,0,2.1H45.462a.528.528,0,0,1,.527.527v9.906l-2.632-.124V44.332a2,2,0,0,0-2-2H13.282a1.992,1.992,0,0,0-1.42.589,1.959,1.959,0,0,0-.578,1.4,5.522,5.522,0,0,1-.224,1.528,4.7,4.7,0,0,1-1.054,1.75,4.817,4.817,0,0,1-3.274,1.285h0a2,2,0,0,0-1.992,2v9.944a2,2,0,0,0,2,2H34.809a2.011,2.011,0,0,0,2-2.011,5.718,5.718,0,0,1,.322-1.818,3.87,3.87,0,0,1,1.887-2.185l-.17,3.617a3.586,3.586,0,0,0,6.95,1.4c.063.039.128.076.192.114ZM47.9,39.264A2.631,2.631,0,0,0,45.462,37.6H42.631V33.1a.468.468,0,0,1,.468-.468H53.66a.468.468,0,0,1,.468.468V38.8a.468.468,0,0,1-.468.468ZM39.177,53.4l-.052,1.105a5.99,5.99,0,0,0-3.986,3.809,7.85,7.85,0,0,0-.433,2.4H30.252a10.229,10.229,0,0,0,0-16.284h11v5.886A3.6,3.6,0,0,0,39.177,53.4ZM24.018,60.72a8.143,8.143,0,1,1,.054,0Zm-6.18,0h-11V50.984a6.912,6.912,0,0,0,4.595-1.841,6.726,6.726,0,0,0,1.65-2.716,7.67,7.67,0,0,0,.3-1.991h4.454a10.229,10.229,0,0,0,0,16.285Zm36.9,1.552a14.959,14.959,0,0,1-9.1-3.107,1.051,1.051,0,0,0-1.692.783l-.033.717a1.485,1.485,0,1,1-2.966-.141l.33-7.021a1.491,1.491,0,0,1,1.436-1.413c.04,0,.081,0,.116,0l7.022.332a1.485,1.485,0,0,1-.139,2.966l-1.006-.048a1.051,1.051,0,0,0-.639,1.92,11.9,11.9,0,0,0,11.957.8,1.051,1.051,0,1,0-.935-1.882,9.692,9.692,0,0,1-4.35,1.02,9.806,9.806,0,0,1-2.829-.415,3.584,3.584,0,0,0-1.961-6.464l-1.858-.088V46.143h10.2a2.572,2.572,0,0,0,2.569-2.569V39.708A9.807,9.807,0,0,1,62.68,53.144a1.051,1.051,0,1,0,1.7,1.237,11.907,11.907,0,0,0-3.516-17.222V33.816a14.887,14.887,0,0,1-6.124,28.456Z" transform="translate(0 -7.022)"/></g></g></g></svg>