<svg xmlns="http://www.w3.org/2000/svg" xmlns:xlink="http://www.w3.org/1999/xlink" width="382.348" height="727.063" viewBox="0 0 382.348 727.063"><defs><clipPath id="a"><path d="M10.465,0H716.6c5.78,0,10.465,6.415,10.465,14.329v353.69c0,7.913-4.686,14.329-10.465,14.329H10.465C4.685,382.348,0,375.932,0,368.019V14.329C0,6.415,4.685,0,10.465,0Z" transform="translate(-14063.889 -13307.311)" fill="#cbc232"/></clipPath><clipPath id="b"><path d="M363.315,0C563.969,0,726.631,155.789,726.631,347.964S563.969,695.928,363.315,695.928,0,540.139,0,347.964,162.662,0,363.315,0Z" transform="translate(0 0)" fill="#21c9b8"/></clipPath><clipPath id="c"><rect width="530.776" height="530.776" fill="#dee4f0"/></clipPath><clipPath id="d"><rect width="164.718" height="168.09" fill="#fff" stroke="#fff" stroke-width="1"/></clipPath></defs><g transform="translate(-198.652 -4169.938)"><g transform="translate(13505.963 -9166.888) rotate(-90)" opacity="0.61" clip-path="url(#a)"><path d="M0,0H2398.132V505.308H0Z" transform="translate(-15143.035 -13371.444)" fill="#f3f9ff"/><path d="M339.691,0C527.3,0,679.381,152.085,679.381,339.691S527.3,679.381,339.691,679.381,0,527.3,0,339.691,152.085,0,339.691,0Z" transform="translate(-13285.051 -13355.636)" fill="#dbe3fb" opacity="0.14"/><path d="M339.691,0C527.3,0,679.381,152.085,679.381,339.691S527.3,679.381,339.691,679.381,0,527.3,0,339.691,152.085,0,339.691,0Z" transform="translate(-14076.762 -12959.152)" fill="#dbe3fb" opacity="0.14"/><path d="M339.691,0C527.3,0,679.381,152.085,679.381,339.691S527.3,679.381,339.691,679.381,0,527.3,0,339.691,152.085,0,339.691,0Z" transform="translate(-13298.395 -13510.606)" fill="#dbe3fb" opacity="0"/><rect width="9.32" height="2.485" transform="translate(-13153.392 -12939.704)" fill="#dbe3fb"/><ellipse cx="339.238" cy="324.904" rx="339.238" ry="324.904" transform="translate(-14135.324 -13978.838)" fill="#94a6dd" opacity="0.13"/><path d="M347.5,0c191.917,0,347.5,149.006,347.5,332.814S539.414,665.628,347.5,665.628,0,516.622,0,332.814,155.58,0,347.5,0Z" transform="translate(-13640.354 -13164.039)" fill="#fff" opacity="0.25"/><path d="M453.264,0C703.595,0,906.528,202.933,906.528,453.264S703.595,906.528,453.264,906.528,0,703.595,0,453.264,202.933,0,453.264,0Z" transform="translate(-15143.035 -13116.137)" fill="#a5b9f6" opacity="0.23" style="mix-blend-mode:multiply;isolation:isolate"/><path d="M453.264,0C703.595,0,906.528,202.933,906.528,453.264S703.595,906.528,453.264,906.528,0,703.595,0,453.264,202.933,0,453.264,0Z" transform="translate(-15241.656 -13963.87)" fill="#a5b9f6" opacity="0.23" style="mix-blend-mode:multiply;isolation:isolate"/><path d="M453.264,0C703.595,0,906.528,202.933,906.528,453.264S703.595,906.528,453.264,906.528,0,703.595,0,453.264,202.933,0,453.264,0Z" transform="translate(-14460.897 -13878.895)" fill="#f6f8fe" opacity="0.51" style="mix-blend-mode:lighten;isolation:isolate"/><g transform="translate(-14538.409 -13748.186)"><g clip-path="url(#c)"><path d="M530.776,265.384c0-8.566-.445-17.023-1.242-25.387H406.306l115.518-43.039a264.075,264.075,0,0,0-17.719-47.595L365.817,200.875,470.144,96.541a267.021,267.021,0,0,0-35.916-35.908l-87.152,87.161L398.3,35.715a264.035,264.035,0,0,0-46.185-21.142L290.788,148.75V1.233C282.423.445,273.958,0,265.384,0s-17.031.445-25.4,1.233V124.478L196.957,8.96a262.269,262.269,0,0,0-47.6,17.719l51.513,138.279L96.541,60.633A268,268,0,0,0,60.624,96.541L147.785,183.7,35.715,132.474a264.315,264.315,0,0,0-21.142,46.185L148.75,240H1.233C.445,248.361,0,256.818,0,265.384c0,8.583.445,17.04,1.233,25.4H124.478L8.952,333.819a262.977,262.977,0,0,0,17.719,47.612L164.95,329.909,60.624,434.227a267.083,267.083,0,0,0,35.916,35.916L183.7,382.983l-51.228,112.07A264.266,264.266,0,0,0,178.651,516.2l61.337-134.177V529.543c8.365.789,16.83,1.233,25.4,1.233s17.04-.445,25.4-1.233V406.3l43.031,115.527a264.14,264.14,0,0,0,47.6-17.711L329.9,365.826,434.227,470.144a266.109,266.109,0,0,0,35.916-35.916l-87.161-87.161,112.07,51.244A265.2,265.2,0,0,0,516.2,352.125L382.026,290.788H529.534c.8-8.365,1.242-16.821,1.242-25.4" fill="#dee4f0" opacity="0.12"/></g></g><path d="M618.344,309.167c0-9.979-.518-19.831-1.447-29.576H473.339l134.577-50.14A307.632,307.632,0,0,0,587.273,174l-161.1,60.012L547.708,112.468a311.075,311.075,0,0,0-41.842-41.832L404.335,172.177,464.015,41.607a307.6,307.6,0,0,0-53.805-24.63L338.763,173.291V1.437C329.018.518,319.156,0,309.167,0s-19.841.518-29.586,1.437V145.015L229.452,10.438a305.538,305.538,0,0,0-55.457,20.642l60.012,161.093L112.468,70.636a312.219,312.219,0,0,0-41.842,41.832L172.167,214.009,41.607,154.33a307.922,307.922,0,0,0-24.63,53.805l156.314,71.457H1.437C.518,289.336,0,299.188,0,309.167c0,10,.518,19.851,1.437,29.6H145.015L10.429,388.893a306.364,306.364,0,0,0,20.642,55.467l161.093-60.021L70.626,505.867a311.149,311.149,0,0,0,41.842,41.842L214.009,446.168,154.33,576.727a307.863,307.863,0,0,0,53.8,24.64l71.457-156.314V616.908c9.745.919,19.606,1.437,29.586,1.437s19.851-.518,29.6-1.437V473.329l50.13,134.586a307.711,307.711,0,0,0,55.457-20.633l-60.021-161.1L505.867,547.708a310.013,310.013,0,0,0,41.842-41.842L446.168,404.326l130.559,59.7a308.948,308.948,0,0,0,24.64-53.805L445.053,338.763H616.9c.929-9.745,1.447-19.6,1.447-29.6" transform="translate(-14335.129 -12938.46)" fill="none" stroke="#fff" stroke-width="1"/><rect width="9.32" height="2.485" transform="translate(-13114.48 -12874.489)" fill="#e9dcbf"/><g transform="translate(-13397.381 -13286.881)" style="isolation:isolate"><g transform="translate(0 0)" clip-path="url(#d)" style="isolation:isolate"><path d="M19.412,0h0a3.235,3.235,0,0,0-3.177,2.829A15.828,15.828,0,0,1,2.809,16.186a3.24,3.24,0,0,0,.021,6.425A15.7,15.7,0,0,1,16.256,35.965a3.2,3.2,0,0,0,6.351.056A15.957,15.957,0,0,1,36.08,22.531a3.091,3.091,0,0,0,2.737-3.043v-.076a3.2,3.2,0,0,0-2.807-3.156A15.958,15.958,0,0,1,22.584,2.8,3.221,3.221,0,0,0,19.412,0" transform="translate(0 0)" fill="#fff" stroke="#fff" stroke-width="1"/><path d="M40.955,0h0a3.235,3.235,0,0,0-3.177,2.829A15.828,15.828,0,0,1,24.352,16.186a3.24,3.24,0,0,0,.021,6.425A15.7,15.7,0,0,1,37.8,35.965a3.2,3.2,0,0,0,6.351.056,15.957,15.957,0,0,1,13.473-13.49,3.091,3.091,0,0,0,2.737-3.043v-.076a3.2,3.2,0,0,0-2.807-3.156A15.954,15.954,0,0,1,44.129,2.8,3.224,3.224,0,0,0,40.955,0" transform="translate(20.424 0)" fill="#fff" stroke="#fff" stroke-width="1"/><path d="M62.5,0h0a3.235,3.235,0,0,0-3.177,2.829A15.828,15.828,0,0,1,45.9,16.186a3.24,3.24,0,0,0,.021,6.425A15.7,15.7,0,0,1,59.342,35.965a3.2,3.2,0,0,0,6.351.056,15.957,15.957,0,0,1,13.473-13.49A3.091,3.091,0,0,0,81.9,19.488v-.076A3.2,3.2,0,0,0,79.1,16.256,15.958,15.958,0,0,1,65.67,2.8,3.221,3.221,0,0,0,62.5,0" transform="translate(40.847 0)" fill="#fff" stroke="#fff" stroke-width="1"/><path d="M84.042,0h0a3.235,3.235,0,0,0-3.177,2.829A15.828,15.828,0,0,1,67.439,16.186a3.24,3.24,0,0,0,.021,6.425A15.7,15.7,0,0,1,80.886,35.965a3.2,3.2,0,0,0,6.351.056,15.957,15.957,0,0,1,13.473-13.49,3.091,3.091,0,0,0,2.737-3.043v-.076a3.2,3.2,0,0,0-2.807-3.156A15.958,15.958,0,0,1,87.214,2.8,3.221,3.221,0,0,0,84.042,0" transform="translate(61.271 0)" fill="#fff" stroke="#fff" stroke-width="1"/><path d="M19.412,22.12h0a3.237,3.237,0,0,0-3.177,2.83A15.83,15.83,0,0,1,2.809,38.308a3.24,3.24,0,0,0,.021,6.425A15.7,15.7,0,0,1,16.256,58.087a3.2,3.2,0,0,0,6.351.055A15.957,15.957,0,0,1,36.08,44.653a3.092,3.092,0,0,0,2.737-3.043v-.078a3.205,3.205,0,0,0-2.807-3.156A15.956,15.956,0,0,1,22.584,24.919a3.221,3.221,0,0,0-3.171-2.8" transform="translate(0 20.97)" fill="#fff" stroke="#fff" stroke-width="1"/><path d="M40.955,22.12h0a3.237,3.237,0,0,0-3.177,2.83A15.83,15.83,0,0,1,24.352,38.308a3.24,3.24,0,0,0,.021,6.425A15.7,15.7,0,0,1,37.8,58.087a3.2,3.2,0,0,0,6.351.055A15.957,15.957,0,0,1,57.623,44.653,3.092,3.092,0,0,0,60.36,41.61v-.078a3.205,3.205,0,0,0-2.807-3.156A15.952,15.952,0,0,1,44.129,24.919a3.224,3.224,0,0,0-3.173-2.8" transform="translate(20.424 20.97)" fill="#fff" stroke="#fff" stroke-width="1"/><path d="M62.5,22.12h0a3.237,3.237,0,0,0-3.177,2.83A15.83,15.83,0,0,1,45.9,38.308a3.24,3.24,0,0,0,.021,6.425A15.7,15.7,0,0,1,59.342,58.087a3.2,3.2,0,0,0,6.351.055A15.957,15.957,0,0,1,79.166,44.653,3.092,3.092,0,0,0,81.9,41.61v-.078A3.205,3.205,0,0,0,79.1,38.376,15.956,15.956,0,0,1,65.67,24.919a3.221,3.221,0,0,0-3.171-2.8" transform="translate(40.847 20.97)" fill="#fff" stroke="#fff" stroke-width="1"/><path d="M84.042,22.12h0a3.237,3.237,0,0,0-3.177,2.83A15.83,15.83,0,0,1,67.439,38.308a3.24,3.24,0,0,0,.021,6.425A15.7,15.7,0,0,1,80.886,58.087a3.2,3.2,0,0,0,6.351.055A15.957,15.957,0,0,1,100.71,44.653a3.092,3.092,0,0,0,2.737-3.043v-.078a3.205,3.205,0,0,0-2.807-3.156A15.956,15.956,0,0,1,87.214,24.919a3.221,3.221,0,0,0-3.171-2.8" transform="translate(61.271 20.97)" fill="#fff" stroke="#fff" stroke-width="1"/><path d="M19.412,44.241h0a3.235,3.235,0,0,0-3.177,2.829A15.823,15.823,0,0,1,2.809,60.425a3.241,3.241,0,0,0,.021,6.427A15.7,15.7,0,0,1,16.256,80.206a3.2,3.2,0,0,0,6.351.056A15.957,15.957,0,0,1,36.08,66.772a3.092,3.092,0,0,0,2.737-3.043v-.076A3.2,3.2,0,0,0,36.009,60.5,15.958,15.958,0,0,1,22.584,47.04a3.221,3.221,0,0,0-3.171-2.8" transform="translate(0 41.942)" fill="#fff" stroke="#fff" stroke-width="1"/><path d="M40.955,44.241h0a3.235,3.235,0,0,0-3.177,2.829A15.823,15.823,0,0,1,24.352,60.425a3.241,3.241,0,0,0,.021,6.427A15.7,15.7,0,0,1,37.8,80.206a3.2,3.2,0,0,0,6.351.056,15.957,15.957,0,0,1,13.473-13.49,3.092,3.092,0,0,0,2.737-3.043v-.076A3.2,3.2,0,0,0,57.552,60.5,15.954,15.954,0,0,1,44.129,47.04a3.224,3.224,0,0,0-3.173-2.8" transform="translate(20.424 41.942)" fill="#fff" stroke="#fff" stroke-width="1"/><path d="M62.5,44.241h0a3.235,3.235,0,0,0-3.177,2.829A15.823,15.823,0,0,1,45.9,60.425a3.241,3.241,0,0,0,.021,6.427A15.7,15.7,0,0,1,59.342,80.206a3.2,3.2,0,0,0,6.351.056,15.957,15.957,0,0,1,13.473-13.49A3.092,3.092,0,0,0,81.9,63.729v-.076A3.2,3.2,0,0,0,79.1,60.5,15.958,15.958,0,0,1,65.67,47.04a3.221,3.221,0,0,0-3.171-2.8" transform="translate(40.847 41.942)" fill="#fff" stroke="#fff" stroke-width="1"/><path d="M84.042,44.241h0a3.235,3.235,0,0,0-3.177,2.829A15.823,15.823,0,0,1,67.439,60.425a3.241,3.241,0,0,0,.021,6.427A15.7,15.7,0,0,1,80.886,80.206a3.2,3.2,0,0,0,6.351.056,15.957,15.957,0,0,1,13.473-13.49,3.092,3.092,0,0,0,2.737-3.043v-.076a3.2,3.2,0,0,0-2.807-3.156A15.958,15.958,0,0,1,87.214,47.04a3.221,3.221,0,0,0-3.171-2.8" transform="translate(61.271 41.942)" fill="#fff" stroke="#fff" stroke-width="1"/><path d="M19.412,66.361h0a3.235,3.235,0,0,0-3.177,2.829A15.828,15.828,0,0,1,2.809,82.547a3.24,3.24,0,0,0,.021,6.425,15.7,15.7,0,0,1,13.426,13.354,3.2,3.2,0,0,0,6.351.056A15.957,15.957,0,0,1,36.08,88.892a3.091,3.091,0,0,0,2.737-3.043v-.076a3.2,3.2,0,0,0-2.807-3.156A15.958,15.958,0,0,1,22.584,69.16a3.221,3.221,0,0,0-3.171-2.8" transform="translate(0 62.912)" fill="#fff" stroke="#fff" stroke-width="1"/><path d="M40.955,66.361h0a3.235,3.235,0,0,0-3.177,2.829A15.827,15.827,0,0,1,24.352,82.547a3.24,3.24,0,0,0,.021,6.425A15.7,15.7,0,0,1,37.8,102.326a3.2,3.2,0,0,0,6.351.056,15.957,15.957,0,0,1,13.473-13.49,3.091,3.091,0,0,0,2.737-3.043v-.076a3.2,3.2,0,0,0-2.807-3.156A15.954,15.954,0,0,1,44.129,69.16a3.224,3.224,0,0,0-3.173-2.8" transform="translate(20.424 62.912)" fill="#fff" stroke="#fff" stroke-width="1"/><path d="M62.5,66.361h0a3.235,3.235,0,0,0-3.177,2.829A15.827,15.827,0,0,1,45.9,82.547a3.24,3.24,0,0,0,.021,6.425,15.7,15.7,0,0,1,13.426,13.354,3.2,3.2,0,0,0,6.351.056,15.957,15.957,0,0,1,13.473-13.49A3.091,3.091,0,0,0,81.9,85.849v-.076A3.2,3.2,0,0,0,79.1,82.617,15.958,15.958,0,0,1,65.67,69.16a3.221,3.221,0,0,0-3.171-2.8" transform="translate(40.847 62.912)" fill="#fff" stroke="#fff" stroke-width="1"/><path d="M84.042,66.361h0a3.235,3.235,0,0,0-3.177,2.829A15.827,15.827,0,0,1,67.439,82.547a3.24,3.24,0,0,0,.021,6.425,15.7,15.7,0,0,1,13.426,13.354,3.2,3.2,0,0,0,6.351.056,15.957,15.957,0,0,1,13.473-13.49,3.091,3.091,0,0,0,2.737-3.043v-.076a3.2,3.2,0,0,0-2.807-3.156A15.958,15.958,0,0,1,87.214,69.16a3.221,3.221,0,0,0-3.171-2.8" transform="translate(61.271 62.912)" fill="#fff" stroke="#fff" stroke-width="1"/></g></g></g><g transform="translate(267.339 4223.107)" fill="none" stroke="#a5b9f6" stroke-width="1"><rect width="253.008" height="301.999" rx="10" stroke="none"/><rect x="0.5" y="0.5" width="252.008" height="300.999" rx="9.5" fill="none"/></g><path d="M6.914,14.016A1.2,1.2,0,0,0,6.445,13a6.148,6.148,0,0,0-1.687-.75,11.963,11.963,0,0,1-1.93-.777A3.153,3.153,0,0,1,.891,8.648,2.747,2.747,0,0,1,1.41,7,3.389,3.389,0,0,1,2.9,5.875a5.616,5.616,0,0,1,2.184-.406,5.112,5.112,0,0,1,2.172.441,3.458,3.458,0,0,1,1.48,1.246,3.261,3.261,0,0,1,.527,1.828H6.922A1.534,1.534,0,0,0,6.43,7.77a2.023,2.023,0,0,0-1.383-.434A2.162,2.162,0,0,0,3.711,7.7a1.146,1.146,0,0,0-.477.957,1.1,1.1,0,0,0,.559.93,6.311,6.311,0,0,0,1.645.7,7.106,7.106,0,0,1,2.914,1.492A2.972,2.972,0,0,1,9.266,14a2.737,2.737,0,0,1-1.117,2.316,4.891,4.891,0,0,1-3.008.84,5.808,5.808,0,0,1-2.391-.48,3.783,3.783,0,0,1-1.645-1.316,3.371,3.371,0,0,1-.566-1.937H2.891q0,1.883,2.25,1.883a2.189,2.189,0,0,0,1.3-.34A1.106,1.106,0,0,0,6.914,14.016Zm3.438-1.32a5.013,5.013,0,0,1,.484-2.242A3.546,3.546,0,0,1,12.23,8.93a4.069,4.069,0,0,1,2.113-.539,3.849,3.849,0,0,1,2.793,1.047,4.2,4.2,0,0,1,1.207,2.844l.016.578a4.418,4.418,0,0,1-1.086,3.121,3.775,3.775,0,0,1-2.914,1.176,3.793,3.793,0,0,1-2.918-1.172,4.5,4.5,0,0,1-1.09-3.187Zm2.258.164a3.151,3.151,0,0,0,.453,1.84,1.629,1.629,0,0,0,2.578.008A3.448,3.448,0,0,0,16.1,12.7a3.12,3.12,0,0,0-.461-1.828,1.5,1.5,0,0,0-1.3-.648,1.475,1.475,0,0,0-1.281.645A3.506,3.506,0,0,0,12.609,12.859ZM22.133,17H19.867V5h2.266Zm4.242,0H24.109V8.547h2.266Zm-2.4-10.641a1.112,1.112,0,0,1,.34-.836,1.465,1.465,0,0,1,1.848,0,1.105,1.105,0,0,1,.344.836,1.108,1.108,0,0,1-.348.844,1.448,1.448,0,0,1-1.836,0A1.108,1.108,0,0,1,23.977,6.359Zm7.773,8.977a1.481,1.481,0,0,0,1.016-.344,1.2,1.2,0,0,0,.406-.914h2.117a2.9,2.9,0,0,1-.469,1.574,3.093,3.093,0,0,1-1.262,1.109,3.949,3.949,0,0,1-1.77.395A3.67,3.67,0,0,1,28.93,16a4.56,4.56,0,0,1-1.047-3.184v-.148a4.508,4.508,0,0,1,1.039-3.117,3.627,3.627,0,0,1,2.852-1.164,3.555,3.555,0,0,1,2.543.9,3.2,3.2,0,0,1,.973,2.4H33.172a1.539,1.539,0,0,0-.406-1.066,1.513,1.513,0,0,0-2.223.164,3.324,3.324,0,0,0-.4,1.863v.234a3.366,3.366,0,0,0,.4,1.875A1.378,1.378,0,0,0,31.75,15.336ZM38.961,17H36.7V8.547h2.266Zm-2.4-10.641a1.112,1.112,0,0,1,.34-.836,1.465,1.465,0,0,1,1.848,0,1.105,1.105,0,0,1,.344.836,1.108,1.108,0,0,1-.348.844,1.448,1.448,0,0,1-1.836,0A1.108,1.108,0,0,1,36.563,6.359Zm6.961.109V8.547h1.445V10.2H43.523v4.219a1.007,1.007,0,0,0,.18.672.9.9,0,0,0,.688.2,3.6,3.6,0,0,0,.664-.055v1.711a4.648,4.648,0,0,1-1.367.2,2.156,2.156,0,0,1-2.422-2.4V10.2H40.031V8.547h1.234V6.469Zm7.766,9.672a2.831,2.831,0,0,1-2.312,1.016,2.67,2.67,0,0,1-2.074-.781,3.335,3.335,0,0,1-.73-2.289V8.547H48.43v5.461q0,1.32,1.2,1.32a1.631,1.631,0,0,0,1.578-.8V8.547h2.266V17H51.352Zm3.539-3.43a5.094,5.094,0,0,1,.887-3.148,2.877,2.877,0,0,1,2.426-1.172,2.589,2.589,0,0,1,2.039.922V5h2.266V17H60.406l-.109-.9a2.657,2.657,0,0,1-2.172,1.055A2.869,2.869,0,0,1,55.73,15.98,5.258,5.258,0,0,1,54.828,12.711Zm2.258.164A3.328,3.328,0,0,0,57.5,14.7a1.349,1.349,0,0,0,1.2.633,1.511,1.511,0,0,0,1.477-.883V11.109a1.489,1.489,0,0,0-1.461-.883Q57.086,10.227,57.086,12.875Zm10.742-.164a5.094,5.094,0,0,1,.887-3.148,2.877,2.877,0,0,1,2.426-1.172,2.589,2.589,0,0,1,2.039.922V5h2.266V17H73.406l-.109-.9a2.657,2.657,0,0,1-2.172,1.055A2.869,2.869,0,0,1,68.73,15.98,5.258,5.258,0,0,1,67.828,12.711Zm2.258.164A3.328,3.328,0,0,0,70.5,14.7a1.349,1.349,0,0,0,1.2.633,1.511,1.511,0,0,0,1.477-.883V11.109a1.489,1.489,0,0,0-1.461-.883Q70.086,10.227,70.086,12.875Zm11,4.281a4.15,4.15,0,0,1-3.027-1.141,4.054,4.054,0,0,1-1.168-3.039v-.219a5.106,5.106,0,0,1,.492-2.277,3.612,3.612,0,0,1,1.395-1.547,3.914,3.914,0,0,1,2.059-.543,3.508,3.508,0,0,1,2.73,1.094,4.444,4.444,0,0,1,1,3.1v.922H79.18a2.1,2.1,0,0,0,.66,1.328,2,2,0,0,0,1.395.5,2.437,2.437,0,0,0,2.039-.945l1.109,1.242a3.389,3.389,0,0,1-1.375,1.121A4.511,4.511,0,0,1,81.086,17.156Zm-.258-6.937a1.414,1.414,0,0,0-1.09.453,2.341,2.341,0,0,0-.535,1.3h3.141v-.18a1.669,1.669,0,0,0-.406-1.16A1.459,1.459,0,0,0,80.828,10.219ZM3.359,32.992V37H1.016V25.625H5.453a5.134,5.134,0,0,1,2.254.469,3.454,3.454,0,0,1,1.5,1.332,3.714,3.714,0,0,1,.523,1.965,3.266,3.266,0,0,1-1.145,2.637,4.767,4.767,0,0,1-3.168.965Zm0-1.9H5.453a2.059,2.059,0,0,0,1.418-.437,1.591,1.591,0,0,0,.488-1.25,1.876,1.876,0,0,0-.492-1.352,1.839,1.839,0,0,0-1.359-.531H3.359Zm12.578-.43a6.134,6.134,0,0,0-.812-.062,1.654,1.654,0,0,0-1.68.867V37H11.188V28.547H13.32l.063,1.008a2.092,2.092,0,0,1,1.883-1.164,2.366,2.366,0,0,1,.7.1Zm.453,2.031a5.013,5.013,0,0,1,.484-2.242A3.546,3.546,0,0,1,18.27,28.93a4.069,4.069,0,0,1,2.113-.539,3.849,3.849,0,0,1,2.793,1.047,4.2,4.2,0,0,1,1.207,2.844l.016.578a4.418,4.418,0,0,1-1.086,3.121A3.775,3.775,0,0,1,20.4,37.156a3.793,3.793,0,0,1-2.918-1.172,4.5,4.5,0,0,1-1.09-3.187Zm2.258.164A3.151,3.151,0,0,0,19.1,34.7a1.629,1.629,0,0,0,2.578.008,3.448,3.448,0,0,0,.461-2.012,3.12,3.12,0,0,0-.461-1.828,1.5,1.5,0,0,0-1.3-.648,1.475,1.475,0,0,0-1.281.645A3.506,3.506,0,0,0,18.648,32.859Zm6.789-.148a5.094,5.094,0,0,1,.887-3.148,2.877,2.877,0,0,1,2.426-1.172,2.589,2.589,0,0,1,2.039.922V25h2.266V37H31.016l-.109-.9a2.657,2.657,0,0,1-2.172,1.055A2.869,2.869,0,0,1,26.34,35.98,5.258,5.258,0,0,1,25.438,32.711Zm2.258.164a3.328,3.328,0,0,0,.414,1.82,1.349,1.349,0,0,0,1.2.633,1.511,1.511,0,0,0,1.477-.883V31.109a1.489,1.489,0,0,0-1.461-.883Q27.7,30.227,27.7,32.875Zm12.172,3.266a2.831,2.831,0,0,1-2.312,1.016,2.67,2.67,0,0,1-2.074-.781,3.335,3.335,0,0,1-.73-2.289V28.547h2.258v5.461q0,1.32,1.2,1.32a1.631,1.631,0,0,0,1.578-.8V28.547h2.266V37H39.93Zm7.406-.8a1.481,1.481,0,0,0,1.016-.344,1.2,1.2,0,0,0,.406-.914h2.117a2.9,2.9,0,0,1-.469,1.574,3.093,3.093,0,0,1-1.262,1.109,3.949,3.949,0,0,1-1.77.395A3.67,3.67,0,0,1,44.453,36a4.56,4.56,0,0,1-1.047-3.184v-.148a4.508,4.508,0,0,1,1.039-3.117A3.627,3.627,0,0,1,47.3,28.391a3.555,3.555,0,0,1,2.543.9,3.2,3.2,0,0,1,.973,2.4H48.7a1.539,1.539,0,0,0-.406-1.066,1.513,1.513,0,0,0-2.223.164,3.324,3.324,0,0,0-.4,1.863v.234a3.366,3.366,0,0,0,.4,1.875A1.378,1.378,0,0,0,47.273,35.336ZM54.8,26.469v2.078H56.25V30.2H54.8v4.219a1.007,1.007,0,0,0,.18.672.9.9,0,0,0,.688.2,3.6,3.6,0,0,0,.664-.055v1.711a4.648,4.648,0,0,1-1.367.2,2.156,2.156,0,0,1-2.422-2.4V30.2H51.313V28.547h1.234V26.469ZM56.922,32.7a5.013,5.013,0,0,1,.484-2.242A3.546,3.546,0,0,1,58.8,28.93a4.069,4.069,0,0,1,2.113-.539,3.849,3.849,0,0,1,2.793,1.047,4.2,4.2,0,0,1,1.207,2.844l.016.578a4.418,4.418,0,0,1-1.086,3.121,4.209,4.209,0,0,1-5.832,0,4.5,4.5,0,0,1-1.09-3.187Zm2.258.164a3.151,3.151,0,0,0,.453,1.84,1.629,1.629,0,0,0,2.578.008,3.448,3.448,0,0,0,.461-2.012,3.12,3.12,0,0,0-.461-1.828,1.5,1.5,0,0,0-1.3-.648,1.475,1.475,0,0,0-1.281.645A3.506,3.506,0,0,0,59.18,32.859Z" transform="translate(393 4282.607)" fill="#12263f"/><path d="M7.438,14.656H3.328L2.547,17H.055L4.289,5.625H6.461L10.719,17H8.227Zm-3.477-1.9H6.8L5.375,8.5Zm11.188,2.578a1.481,1.481,0,0,0,1.016-.344,1.2,1.2,0,0,0,.406-.914h2.117a2.9,2.9,0,0,1-.469,1.574,3.093,3.093,0,0,1-1.262,1.109,3.949,3.949,0,0,1-1.77.395A3.67,3.67,0,0,1,12.328,16a4.56,4.56,0,0,1-1.047-3.184v-.148A4.508,4.508,0,0,1,12.32,9.555a3.627,3.627,0,0,1,2.852-1.164,3.555,3.555,0,0,1,2.543.9,3.2,3.2,0,0,1,.973,2.4H16.57a1.539,1.539,0,0,0-.406-1.066,1.513,1.513,0,0,0-2.223.164,3.324,3.324,0,0,0-.4,1.863v.234a3.366,3.366,0,0,0,.4,1.875A1.378,1.378,0,0,0,15.148,15.336Zm9.891.8a2.831,2.831,0,0,1-2.312,1.016,2.67,2.67,0,0,1-2.074-.781,3.335,3.335,0,0,1-.73-2.289V8.547H22.18v5.461q0,1.32,1.2,1.32a1.631,1.631,0,0,0,1.578-.8V8.547h2.266V17H25.1Zm7.781,1.016a4.15,4.15,0,0,1-3.027-1.141,4.054,4.054,0,0,1-1.168-3.039v-.219a5.106,5.106,0,0,1,.492-2.277,3.612,3.612,0,0,1,1.395-1.547,3.914,3.914,0,0,1,2.059-.543A3.508,3.508,0,0,1,35.3,9.484a4.444,4.444,0,0,1,1,3.1v.922H30.914a2.1,2.1,0,0,0,.66,1.328,2,2,0,0,0,1.395.5,2.437,2.437,0,0,0,2.039-.945l1.109,1.242a3.389,3.389,0,0,1-1.375,1.121A4.511,4.511,0,0,1,32.82,17.156Zm-.258-6.937a1.414,1.414,0,0,0-1.09.453,2.341,2.341,0,0,0-.535,1.3h3.141v-.18a1.669,1.669,0,0,0-.406-1.16A1.459,1.459,0,0,0,32.563,10.219Zm9.766.445a6.134,6.134,0,0,0-.812-.062,1.654,1.654,0,0,0-1.68.867V17H37.578V8.547h2.133l.063,1.008a2.092,2.092,0,0,1,1.883-1.164,2.366,2.366,0,0,1,.7.1Zm.734,2.047a5.094,5.094,0,0,1,.887-3.148,2.877,2.877,0,0,1,2.426-1.172,2.589,2.589,0,0,1,2.039.922V5H50.68V17H48.641l-.109-.9a2.657,2.657,0,0,1-2.172,1.055,2.869,2.869,0,0,1-2.395-1.176A5.258,5.258,0,0,1,43.063,12.711Zm2.258.164a3.328,3.328,0,0,0,.414,1.82,1.349,1.349,0,0,0,1.2.633,1.511,1.511,0,0,0,1.477-.883V11.109a1.489,1.489,0,0,0-1.461-.883Q45.32,10.227,45.32,12.875Zm6.758-.18a5.013,5.013,0,0,1,.484-2.242A3.546,3.546,0,0,1,53.957,8.93a4.069,4.069,0,0,1,2.113-.539,3.849,3.849,0,0,1,2.793,1.047,4.2,4.2,0,0,1,1.207,2.844l.016.578A4.418,4.418,0,0,1,59,15.98a4.209,4.209,0,0,1-5.832,0,4.5,4.5,0,0,1-1.09-3.187Zm2.258.164a3.151,3.151,0,0,0,.453,1.84,1.629,1.629,0,0,0,2.578.008,3.448,3.448,0,0,0,.461-2.012,3.12,3.12,0,0,0-.461-1.828,1.5,1.5,0,0,0-1.3-.648,1.475,1.475,0,0,0-1.281.645A3.506,3.506,0,0,0,54.336,12.859Zm10.773-.148A5.094,5.094,0,0,1,66,9.563a2.877,2.877,0,0,1,2.426-1.172,2.589,2.589,0,0,1,2.039.922V5h2.266V17H70.688l-.109-.9a2.657,2.657,0,0,1-2.172,1.055,2.869,2.869,0,0,1-2.395-1.176A5.258,5.258,0,0,1,65.109,12.711Zm2.258.164a3.328,3.328,0,0,0,.414,1.82,1.349,1.349,0,0,0,1.2.633,1.511,1.511,0,0,0,1.477-.883V11.109A1.489,1.489,0,0,0,69,10.227Q67.367,10.227,67.367,12.875Zm11,4.281a4.15,4.15,0,0,1-3.027-1.141,4.054,4.054,0,0,1-1.168-3.039v-.219a5.106,5.106,0,0,1,.492-2.277,3.612,3.612,0,0,1,1.395-1.547,3.914,3.914,0,0,1,2.059-.543,3.508,3.508,0,0,1,2.73,1.094,4.444,4.444,0,0,1,1,3.1v.922H76.461a2.1,2.1,0,0,0,.66,1.328,2,2,0,0,0,1.395.5,2.437,2.437,0,0,0,2.039-.945l1.109,1.242a3.389,3.389,0,0,1-1.375,1.121A4.511,4.511,0,0,1,78.367,17.156Zm-.258-6.937a1.414,1.414,0,0,0-1.09.453,2.341,2.341,0,0,0-.535,1.3h3.141v-.18a1.669,1.669,0,0,0-.406-1.16A1.459,1.459,0,0,0,78.109,10.219ZM4.758,37.156A4.15,4.15,0,0,1,1.73,36.016,4.054,4.054,0,0,1,.563,32.977v-.219a5.106,5.106,0,0,1,.492-2.277,3.612,3.612,0,0,1,1.395-1.547,3.914,3.914,0,0,1,2.059-.543,3.508,3.508,0,0,1,2.73,1.094,4.444,4.444,0,0,1,1,3.1v.922H2.852a2.1,2.1,0,0,0,.66,1.328,2,2,0,0,0,1.395.5,2.437,2.437,0,0,0,2.039-.945l1.109,1.242A3.389,3.389,0,0,1,6.68,36.754,4.511,4.511,0,0,1,4.758,37.156ZM4.5,30.219a1.414,1.414,0,0,0-1.09.453,2.341,2.341,0,0,0-.535,1.3H6.016v-.18a1.669,1.669,0,0,0-.406-1.16A1.459,1.459,0,0,0,4.5,30.219Zm7.094-1.672.07.977a2.951,2.951,0,0,1,2.43-1.133,2.453,2.453,0,0,1,2,.789,3.682,3.682,0,0,1,.672,2.359V37H14.508V31.594a1.465,1.465,0,0,0-.312-1.043,1.4,1.4,0,0,0-1.039-.324,1.553,1.553,0,0,0-1.43.813V37H9.469V28.547Zm9.586-2.078v2.078h1.445V30.2H21.18v4.219a1.007,1.007,0,0,0,.18.672.9.9,0,0,0,.688.2,3.6,3.6,0,0,0,.664-.055v1.711a4.648,4.648,0,0,1-1.367.2,2.156,2.156,0,0,1-2.422-2.4V30.2H17.688V28.547h1.234V26.469Zm7.453,4.2a6.134,6.134,0,0,0-.812-.062,1.654,1.654,0,0,0-1.68.867V37H23.883V28.547h2.133l.063,1.008a2.092,2.092,0,0,1,1.883-1.164,2.366,2.366,0,0,1,.7.1Zm4.977,6.492a4.15,4.15,0,0,1-3.027-1.141,4.054,4.054,0,0,1-1.168-3.039v-.219a5.106,5.106,0,0,1,.492-2.277A3.612,3.612,0,0,1,31.3,28.934a3.914,3.914,0,0,1,2.059-.543,3.508,3.508,0,0,1,2.73,1.094,4.444,4.444,0,0,1,1,3.1v.922H31.7a2.1,2.1,0,0,0,.66,1.328,2,2,0,0,0,1.395.5,2.437,2.437,0,0,0,2.039-.945l1.109,1.242a3.389,3.389,0,0,1-1.375,1.121A4.511,4.511,0,0,1,33.609,37.156Zm-.258-6.937a1.414,1.414,0,0,0-1.09.453,2.341,2.341,0,0,0-.535,1.3h3.141v-.18a1.669,1.669,0,0,0-.406-1.16A1.459,1.459,0,0,0,33.352,30.219Zm4.688,2.492a4.954,4.954,0,0,1,.926-3.133,3,3,0,0,1,2.5-1.187,2.631,2.631,0,0,1,2.164.953l.094-.8h2.047v8.172a3.613,3.613,0,0,1-.5,1.93,3.236,3.236,0,0,1-1.418,1.25,4.985,4.985,0,0,1-2.141.43,4.635,4.635,0,0,1-1.812-.371A3.217,3.217,0,0,1,38.555,39l1-1.375a2.645,2.645,0,0,0,2.047.945,1.936,1.936,0,0,0,1.4-.48,1.8,1.8,0,0,0,.5-1.363v-.453a2.612,2.612,0,0,1-2.055.883,2.992,2.992,0,0,1-2.465-1.191,4.953,4.953,0,0,1-.941-3.16Zm2.258.164a3.076,3.076,0,0,0,.461,1.8,1.467,1.467,0,0,0,1.266.652,1.568,1.568,0,0,0,1.477-.773V31a1.565,1.565,0,0,0-1.461-.773,1.476,1.476,0,0,0-1.277.664A3.467,3.467,0,0,0,40.3,32.875ZM52.4,37a2.507,2.507,0,0,1-.227-.758,2.732,2.732,0,0,1-2.133.914,3,3,0,0,1-2.059-.719,2.312,2.312,0,0,1-.816-1.812,2.389,2.389,0,0,1,1-2.062,4.915,4.915,0,0,1,2.879-.727h1.039v-.484a1.393,1.393,0,0,0-.3-.937,1.183,1.183,0,0,0-.949-.352,1.345,1.345,0,0,0-.895.273.929.929,0,0,0-.324.75H47.352a2.268,2.268,0,0,1,.453-1.359,3,3,0,0,1,1.281-.98,4.669,4.669,0,0,1,1.859-.355,3.689,3.689,0,0,1,2.48.785,2.747,2.747,0,0,1,.918,2.207v3.664a4.041,4.041,0,0,0,.336,1.82V37Zm-1.867-1.57a1.945,1.945,0,0,0,.922-.223,1.462,1.462,0,0,0,.625-.6V33.156h-.844q-1.7,0-1.8,1.172l-.008.133a.9.9,0,0,0,.3.7A1.153,1.153,0,0,0,50.531,35.43Z" transform="translate(393 4370.107)" fill="#12263f"/><path d="M3.359,12.992V17H1.016V5.625H5.453a5.134,5.134,0,0,1,2.254.469A3.454,3.454,0,0,1,9.2,7.426a3.714,3.714,0,0,1,.523,1.965,3.266,3.266,0,0,1-1.145,2.637,4.767,4.767,0,0,1-3.168.965Zm0-1.9H5.453a2.059,2.059,0,0,0,1.418-.437,1.591,1.591,0,0,0,.488-1.25,1.876,1.876,0,0,0-.492-1.352,1.839,1.839,0,0,0-1.359-.531H3.359ZM16,17a2.507,2.507,0,0,1-.227-.758,2.732,2.732,0,0,1-2.133.914,3,3,0,0,1-2.059-.719,2.312,2.312,0,0,1-.816-1.812,2.389,2.389,0,0,1,1-2.062,4.915,4.915,0,0,1,2.879-.727H15.68v-.484a1.393,1.393,0,0,0-.3-.937,1.183,1.183,0,0,0-.949-.352,1.345,1.345,0,0,0-.895.273.929.929,0,0,0-.324.75H10.953a2.268,2.268,0,0,1,.453-1.359,3,3,0,0,1,1.281-.98,4.669,4.669,0,0,1,1.859-.355,3.689,3.689,0,0,1,2.48.785,2.747,2.747,0,0,1,.918,2.207v3.664a4.041,4.041,0,0,0,.336,1.82V17Zm-1.867-1.57a1.945,1.945,0,0,0,.922-.223,1.462,1.462,0,0,0,.625-.6V13.156h-.844q-1.7,0-1.8,1.172l-.008.133a.9.9,0,0,0,.3.7A1.153,1.153,0,0,0,14.133,15.43Zm5.219-2.719a4.954,4.954,0,0,1,.926-3.133,3,3,0,0,1,2.5-1.187,2.631,2.631,0,0,1,2.164.953l.094-.8h2.047v8.172a3.613,3.613,0,0,1-.5,1.93,3.236,3.236,0,0,1-1.418,1.25,4.985,4.985,0,0,1-2.141.43,4.635,4.635,0,0,1-1.812-.371A3.217,3.217,0,0,1,19.867,19l1-1.375a2.645,2.645,0,0,0,2.047.945,1.936,1.936,0,0,0,1.4-.48,1.8,1.8,0,0,0,.5-1.363v-.453a2.612,2.612,0,0,1-2.055.883,2.992,2.992,0,0,1-2.465-1.191,4.953,4.953,0,0,1-.941-3.16Zm2.258.164a3.076,3.076,0,0,0,.461,1.8,1.467,1.467,0,0,0,1.266.652,1.568,1.568,0,0,0,1.477-.773V11a1.565,1.565,0,0,0-1.461-.773,1.476,1.476,0,0,0-1.277.664A3.467,3.467,0,0,0,21.609,12.875Zm6.852-.18a5.013,5.013,0,0,1,.484-2.242A3.546,3.546,0,0,1,30.34,8.93a4.069,4.069,0,0,1,2.113-.539,3.849,3.849,0,0,1,2.793,1.047,4.2,4.2,0,0,1,1.207,2.844l.016.578a4.418,4.418,0,0,1-1.086,3.121,3.775,3.775,0,0,1-2.914,1.176,3.793,3.793,0,0,1-2.918-1.172,4.5,4.5,0,0,1-1.09-3.187Zm2.258.164a3.151,3.151,0,0,0,.453,1.84,1.629,1.629,0,0,0,2.578.008,3.448,3.448,0,0,0,.461-2.012,3.12,3.12,0,0,0-.461-1.828,1.5,1.5,0,0,0-1.3-.648,1.475,1.475,0,0,0-1.281.645A3.506,3.506,0,0,0,30.719,12.859Zm10.773-.148a5.094,5.094,0,0,1,.887-3.148A2.877,2.877,0,0,1,44.8,8.391a2.589,2.589,0,0,1,2.039.922V5h2.266V17H47.07l-.109-.9a2.657,2.657,0,0,1-2.172,1.055,2.869,2.869,0,0,1-2.395-1.176A5.258,5.258,0,0,1,41.492,12.711Zm2.258.164a3.328,3.328,0,0,0,.414,1.82,1.349,1.349,0,0,0,1.2.633,1.511,1.511,0,0,0,1.477-.883V11.109a1.489,1.489,0,0,0-1.461-.883Q43.75,10.227,43.75,12.875Zm11,4.281a4.15,4.15,0,0,1-3.027-1.141,4.054,4.054,0,0,1-1.168-3.039v-.219a5.106,5.106,0,0,1,.492-2.277,3.612,3.612,0,0,1,1.395-1.547A3.914,3.914,0,0,1,54.5,8.391a3.508,3.508,0,0,1,2.73,1.094,4.444,4.444,0,0,1,1,3.1v.922H52.844a2.1,2.1,0,0,0,.66,1.328,2,2,0,0,0,1.395.5,2.437,2.437,0,0,0,2.039-.945l1.109,1.242a3.389,3.389,0,0,1-1.375,1.121A4.511,4.511,0,0,1,54.75,17.156Zm-.258-6.937a1.414,1.414,0,0,0-1.09.453,2.341,2.341,0,0,0-.535,1.3h3.141v-.18a1.669,1.669,0,0,0-.406-1.16A1.459,1.459,0,0,0,54.492,10.219ZM3.359,32.992V37H1.016V25.625H5.453a5.134,5.134,0,0,1,2.254.469,3.454,3.454,0,0,1,1.5,1.332,3.714,3.714,0,0,1,.523,1.965,3.266,3.266,0,0,1-1.145,2.637,4.767,4.767,0,0,1-3.168.965Zm0-1.9H5.453a2.059,2.059,0,0,0,1.418-.437,1.591,1.591,0,0,0,.488-1.25,1.876,1.876,0,0,0-.492-1.352,1.839,1.839,0,0,0-1.359-.531H3.359Zm12.578-.43a6.134,6.134,0,0,0-.812-.062,1.654,1.654,0,0,0-1.68.867V37H11.188V28.547H13.32l.063,1.008a2.092,2.092,0,0,1,1.883-1.164,2.366,2.366,0,0,1,.7.1Zm.453,2.031a5.013,5.013,0,0,1,.484-2.242A3.546,3.546,0,0,1,18.27,28.93a4.069,4.069,0,0,1,2.113-.539,3.849,3.849,0,0,1,2.793,1.047,4.2,4.2,0,0,1,1.207,2.844l.016.578a4.418,4.418,0,0,1-1.086,3.121A3.775,3.775,0,0,1,20.4,37.156a3.793,3.793,0,0,1-2.918-1.172,4.5,4.5,0,0,1-1.09-3.187Zm2.258.164A3.151,3.151,0,0,0,19.1,34.7a1.629,1.629,0,0,0,2.578.008,3.448,3.448,0,0,0,.461-2.012,3.12,3.12,0,0,0-.461-1.828,1.5,1.5,0,0,0-1.3-.648,1.475,1.475,0,0,0-1.281.645A3.506,3.506,0,0,0,18.648,32.859Zm6.789-.148a5.094,5.094,0,0,1,.887-3.148,2.877,2.877,0,0,1,2.426-1.172,2.589,2.589,0,0,1,2.039.922V25h2.266V37H31.016l-.109-.9a2.657,2.657,0,0,1-2.172,1.055A2.869,2.869,0,0,1,26.34,35.98,5.258,5.258,0,0,1,25.438,32.711Zm2.258.164a3.328,3.328,0,0,0,.414,1.82,1.349,1.349,0,0,0,1.2.633,1.511,1.511,0,0,0,1.477-.883V31.109a1.489,1.489,0,0,0-1.461-.883Q27.7,30.227,27.7,32.875Zm12.172,3.266a2.831,2.831,0,0,1-2.312,1.016,2.67,2.67,0,0,1-2.074-.781,3.335,3.335,0,0,1-.73-2.289V28.547h2.258v5.461q0,1.32,1.2,1.32a1.631,1.631,0,0,0,1.578-.8V28.547h2.266V37H39.93Zm7.406-.8a1.481,1.481,0,0,0,1.016-.344,1.2,1.2,0,0,0,.406-.914h2.117a2.9,2.9,0,0,1-.469,1.574,3.093,3.093,0,0,1-1.262,1.109,3.949,3.949,0,0,1-1.77.395A3.67,3.67,0,0,1,44.453,36a4.56,4.56,0,0,1-1.047-3.184v-.148a4.508,4.508,0,0,1,1.039-3.117A3.627,3.627,0,0,1,47.3,28.391a3.555,3.555,0,0,1,2.543.9,3.2,3.2,0,0,1,.973,2.4H48.7a1.539,1.539,0,0,0-.406-1.066,1.513,1.513,0,0,0-2.223.164,3.324,3.324,0,0,0-.4,1.863v.234a3.366,3.366,0,0,0,.4,1.875A1.378,1.378,0,0,0,47.273,35.336ZM54.8,26.469v2.078H56.25V30.2H54.8v4.219a1.007,1.007,0,0,0,.18.672.9.9,0,0,0,.688.2,3.6,3.6,0,0,0,.664-.055v1.711a4.648,4.648,0,0,1-1.367.2,2.156,2.156,0,0,1-2.422-2.4V30.2H51.313V28.547h1.234V26.469ZM56.922,32.7a5.013,5.013,0,0,1,.484-2.242A3.546,3.546,0,0,1,58.8,28.93a4.069,4.069,0,0,1,2.113-.539,3.849,3.849,0,0,1,2.793,1.047,4.2,4.2,0,0,1,1.207,2.844l.016.578a4.418,4.418,0,0,1-1.086,3.121,4.209,4.209,0,0,1-5.832,0,4.5,4.5,0,0,1-1.09-3.187Zm2.258.164a3.151,3.151,0,0,0,.453,1.84,1.629,1.629,0,0,0,2.578.008,3.448,3.448,0,0,0,.461-2.012,3.12,3.12,0,0,0-.461-1.828,1.5,1.5,0,0,0-1.3-.648,1.475,1.475,0,0,0-1.281.645A3.506,3.506,0,0,0,59.18,32.859Z" transform="translate(393 4457.607)" fill="#12263f"/><rect width="248" height="38" rx="19" transform="translate(249.348 4204.107)" fill="#a5b9f6"/><path d="M11.8,12.865a7.546,7.546,0,0,1-.694,3.313A5.132,5.132,0,0,1,9.136,18.4a5.494,5.494,0,0,1-2.914.778,5.572,5.572,0,0,1-2.9-.751,5.123,5.123,0,0,1-1.973-2.149,7.329,7.329,0,0,1-.743-3.208v-.721A7.58,7.58,0,0,1,1.3,9.029,5.119,5.119,0,0,1,3.274,6.81a5.533,5.533,0,0,1,2.931-.782,5.479,5.479,0,0,1,2.9.773A5.211,5.211,0,0,1,11.087,9a7.362,7.362,0,0,1,.716,3.274Zm-3.138-.536a5.381,5.381,0,0,0-.637-2.9,2.044,2.044,0,0,0-1.824-.989q-2.32,0-2.452,3.48l-.009.94a5.535,5.535,0,0,0,.624,2.892,2.041,2.041,0,0,0,1.854,1.011,2.016,2.016,0,0,0,1.8-.993,5.383,5.383,0,0,0,.642-2.856Zm-2.1-9.554H9.694L7.251,5.535H4.834Zm15.521,11.54a5.735,5.735,0,0,1-1,3.538A3.2,3.2,0,0,1,18.4,19.176a2.742,2.742,0,0,1-2.153-.958v4.438H13.28V9.49h2.769l.088.879a2.742,2.742,0,0,1,2.241-1.055,3.224,3.224,0,0,1,2.733,1.3,5.805,5.805,0,0,1,.976,3.564Zm-2.962-.185q0-2.531-1.477-2.531a1.394,1.394,0,0,0-1.406.756V16.1a1.439,1.439,0,0,0,1.424.791q1.415,0,1.459-2.443Zm7.717-7V9.49h1.564v2.057H26.842V15.9a1.111,1.111,0,0,0,.193.747,1.037,1.037,0,0,0,.765.211,4.345,4.345,0,0,0,.738-.053v2.118a5.466,5.466,0,0,1-1.67.255,3.1,3.1,0,0,1-2.259-.721,2.954,2.954,0,0,1-.729-2.188v-4.72H22.667V9.49H23.88V7.126ZM32.7,19H29.725V9.49H32.7ZM29.549,7.038A1.322,1.322,0,0,1,30.006,6a1.943,1.943,0,0,1,2.373,0,1.322,1.322,0,0,1,.457,1.037,1.322,1.322,0,0,1-.457,1.037,1.943,1.943,0,0,1-2.373,0A1.322,1.322,0,0,1,29.549,7.038Zm7.77,2.452.1,1.116a3.27,3.27,0,0,1,2.716-1.292,2.407,2.407,0,0,1,2.435,1.433A3.165,3.165,0,0,1,45.36,9.314q2.892,0,2.971,3.5V19H45.36V13a1.813,1.813,0,0,0-.246-1.063,1.048,1.048,0,0,0-.9-.334,1.4,1.4,0,0,0-1.31.782l.009.123V19H39.946V13.015a1.906,1.906,0,0,0-.237-1.081A1.045,1.045,0,0,0,38.8,11.6a1.42,1.42,0,0,0-1.3.782V19H34.541V9.49ZM55.38,19a3.344,3.344,0,0,1-.281-.853,2.754,2.754,0,0,1-2.285,1.028,3.374,3.374,0,0,1-2.285-.813,2.588,2.588,0,0,1-.94-2.043,2.66,2.66,0,0,1,1.143-2.338,5.821,5.821,0,0,1,3.322-.791h.914v-.5q0-1.31-1.134-1.31a.925.925,0,0,0-1.055,1.037H49.816a2.659,2.659,0,0,1,1.173-2.241,4.927,4.927,0,0,1,2.993-.861,4.323,4.323,0,0,1,2.874.888,3.086,3.086,0,0,1,1.081,2.435v4.21a4.311,4.311,0,0,0,.4,2V19Zm-1.854-1.934a1.652,1.652,0,0,0,.918-.237,1.487,1.487,0,0,0,.523-.536V14.772h-.861q-1.547,0-1.547,1.389a.848.848,0,0,0,.272.655A.986.986,0,0,0,53.525,17.066ZM69.416,19a3.344,3.344,0,0,1-.281-.853,2.754,2.754,0,0,1-2.285,1.028,3.374,3.374,0,0,1-2.285-.813,2.588,2.588,0,0,1-.94-2.043,2.66,2.66,0,0,1,1.143-2.338,5.821,5.821,0,0,1,3.322-.791H69v-.5q0-1.31-1.134-1.31a.925.925,0,0,0-1.055,1.037H63.853a2.659,2.659,0,0,1,1.173-2.241,4.927,4.927,0,0,1,2.993-.861,4.323,4.323,0,0,1,2.874.888,3.086,3.086,0,0,1,1.081,2.435v4.21a4.311,4.311,0,0,0,.4,2V19Zm-1.854-1.934a1.652,1.652,0,0,0,.918-.237A1.487,1.487,0,0,0,69,16.293V14.772h-.861q-1.547,0-1.547,1.389a.848.848,0,0,0,.272.655A.986.986,0,0,0,67.562,17.066Zm9.5-9.94V9.49h1.564v2.057H77.063V15.9a1.111,1.111,0,0,0,.193.747,1.037,1.037,0,0,0,.765.211,4.345,4.345,0,0,0,.738-.053v2.118a5.466,5.466,0,0,1-1.67.255,3.1,3.1,0,0,1-2.259-.721,2.954,2.954,0,0,1-.729-2.188v-4.72H72.888V9.49H74.1V7.126Zm7.33,12.05a4.889,4.889,0,0,1-3.542-1.305,4.507,4.507,0,0,1-1.354-3.4v-.246a5.84,5.84,0,0,1,.541-2.575,3.955,3.955,0,0,1,1.578-1.727,4.763,4.763,0,0,1,2.461-.611,4.117,4.117,0,0,1,3.164,1.244,4.887,4.887,0,0,1,1.16,3.467v1.151H82.512a2.135,2.135,0,0,0,.694,1.257,2.066,2.066,0,0,0,1.389.457,2.662,2.662,0,0,0,2.2-.984l1.354,1.6a3.784,3.784,0,0,1-1.569,1.217A5.3,5.3,0,0,1,84.393,19.176ZM84.059,11.6q-1.3,0-1.547,1.723H85.5v-.229a1.467,1.467,0,0,0-.36-1.1A1.434,1.434,0,0,0,84.059,11.6ZM92.312,9.49l.1,1.116a3.225,3.225,0,0,1,2.716-1.292,2.713,2.713,0,0,1,2.219.888,4.226,4.226,0,0,1,.76,2.672V19H95.133V13a1.6,1.6,0,0,0-.29-1.059,1.342,1.342,0,0,0-1.055-.338,1.413,1.413,0,0,0-1.292.686V19H89.534V9.49Zm11.452,7.4a1.317,1.317,0,0,0,.967-.338,1.241,1.241,0,0,0,.334-.945h2.777a3.288,3.288,0,0,1-1.121,2.566,4.168,4.168,0,0,1-2.887,1,4.22,4.22,0,0,1-3.27-1.3,5.125,5.125,0,0,1-1.2-3.6v-.123A5.792,5.792,0,0,1,99.9,11.6a3.872,3.872,0,0,1,1.534-1.7,4.573,4.573,0,0,1,2.373-.593,4.116,4.116,0,0,1,2.944,1.028,3.647,3.647,0,0,1,1.09,2.786h-2.777A1.626,1.626,0,0,0,104.7,12a1.244,1.244,0,0,0-.967-.4q-1.151,0-1.345,1.468a10.357,10.357,0,0,0-.062,1.283,4.068,4.068,0,0,0,.343,1.986A1.187,1.187,0,0,0,103.764,16.891ZM112.219,19h-2.971V9.49h2.971ZM109.072,7.038A1.322,1.322,0,0,1,109.529,6,1.943,1.943,0,0,1,111.9,6a1.322,1.322,0,0,1,.457,1.037,1.322,1.322,0,0,1-.457,1.037,1.943,1.943,0,0,1-2.373,0A1.322,1.322,0,0,1,109.072,7.038Zm4.6,7.119a5.613,5.613,0,0,1,.554-2.536,3.96,3.96,0,0,1,1.591-1.709,4.791,4.791,0,0,1,2.435-.6,4.373,4.373,0,0,1,3.366,1.323,5.076,5.076,0,0,1,1.23,3.6v.105a4.925,4.925,0,0,1-1.235,3.529,4.384,4.384,0,0,1-3.344,1.305A4.434,4.434,0,0,1,115,17.958a4.761,4.761,0,0,1-1.327-3.3Zm2.962.185a3.538,3.538,0,0,0,.413,1.934,1.376,1.376,0,0,0,1.222.615q1.582,0,1.617-2.435v-.3q0-2.558-1.635-2.558-1.485,0-1.608,2.206ZM118.652,5.5h3.129l-2.443,2.76h-2.417Zm8.218,3.99.1,1.116a3.225,3.225,0,0,1,2.716-1.292,2.713,2.713,0,0,1,2.219.888,4.226,4.226,0,0,1,.76,2.672V19h-2.971V13a1.6,1.6,0,0,0-.29-1.059,1.342,1.342,0,0,0-1.055-.338,1.413,1.413,0,0,0-1.292.686V19h-2.962V9.49ZM144.141,19a3.344,3.344,0,0,1-.281-.853,2.754,2.754,0,0,1-2.285,1.028,3.374,3.374,0,0,1-2.285-.813,2.588,2.588,0,0,1-.94-2.043,2.66,2.66,0,0,1,1.143-2.338,5.821,5.821,0,0,1,3.322-.791h.914v-.5q0-1.31-1.134-1.31a.925.925,0,0,0-1.055,1.037h-2.962a2.659,2.659,0,0,1,1.173-2.241,4.927,4.927,0,0,1,2.993-.861,4.323,4.323,0,0,1,2.874.888,3.086,3.086,0,0,1,1.081,2.435v4.21a4.311,4.311,0,0,0,.4,2V19Zm-1.854-1.934a1.652,1.652,0,0,0,.918-.237,1.487,1.487,0,0,0,.523-.536V14.772h-.861q-1.547,0-1.547,1.389a.848.848,0,0,0,.272.655A.986.986,0,0,0,142.286,17.066ZM151.462,19h-2.971V5.5h2.971Zm10.327-2.109a1.317,1.317,0,0,0,.967-.338,1.241,1.241,0,0,0,.334-.945h2.777a3.288,3.288,0,0,1-1.121,2.566,4.168,4.168,0,0,1-2.887,1,4.22,4.22,0,0,1-3.27-1.3,5.125,5.125,0,0,1-1.2-3.6v-.123a5.792,5.792,0,0,1,.532-2.544,3.872,3.872,0,0,1,1.534-1.7,4.573,4.573,0,0,1,2.373-.593,4.116,4.116,0,0,1,2.944,1.028,3.647,3.647,0,0,1,1.09,2.786H163.09a1.626,1.626,0,0,0-.36-1.134,1.244,1.244,0,0,0-.967-.4q-1.151,0-1.345,1.468a10.357,10.357,0,0,0-.062,1.283,4.068,4.068,0,0,0,.343,1.986A1.187,1.187,0,0,0,161.789,16.891ZM170.244,19h-2.971V5.5h2.971Zm4.948,0h-2.971V9.49h2.971ZM172.046,7.038A1.322,1.322,0,0,1,172.5,6a1.943,1.943,0,0,1,2.373,0,1.322,1.322,0,0,1,.457,1.037,1.322,1.322,0,0,1-.457,1.037,1.943,1.943,0,0,1-2.373,0A1.322,1.322,0,0,1,172.046,7.038Zm9.571,12.138a4.889,4.889,0,0,1-3.542-1.305,4.507,4.507,0,0,1-1.354-3.4v-.246a5.84,5.84,0,0,1,.541-2.575,3.955,3.955,0,0,1,1.578-1.727,4.763,4.763,0,0,1,2.461-.611,4.117,4.117,0,0,1,3.164,1.244,4.887,4.887,0,0,1,1.16,3.467v1.151h-5.889a2.135,2.135,0,0,0,.694,1.257,2.066,2.066,0,0,0,1.389.457,2.662,2.662,0,0,0,2.2-.984l1.354,1.6a3.784,3.784,0,0,1-1.569,1.217A5.3,5.3,0,0,1,181.617,19.176Zm-.334-7.576q-1.3,0-1.547,1.723h2.988v-.229a1.467,1.467,0,0,0-.36-1.1A1.434,1.434,0,0,0,181.283,11.6Zm8.253-2.109.1,1.116a3.225,3.225,0,0,1,2.716-1.292,2.713,2.713,0,0,1,2.219.888,4.226,4.226,0,0,1,.76,2.672V19h-2.971V13a1.6,1.6,0,0,0-.29-1.059,1.342,1.342,0,0,0-1.055-.338,1.413,1.413,0,0,0-1.292.686V19h-2.962V9.49Zm10.881-2.364V9.49h1.564v2.057h-1.564V15.9a1.111,1.111,0,0,0,.193.747,1.037,1.037,0,0,0,.765.211,4.345,4.345,0,0,0,.738-.053v2.118a5.466,5.466,0,0,1-1.67.255,3.1,3.1,0,0,1-2.259-.721,2.954,2.954,0,0,1-.729-2.188v-4.72h-1.213V9.49h1.213V7.126Zm7.33,12.05a4.889,4.889,0,0,1-3.542-1.305,4.507,4.507,0,0,1-1.354-3.4v-.246a5.84,5.84,0,0,1,.541-2.575,3.955,3.955,0,0,1,1.578-1.727,4.763,4.763,0,0,1,2.461-.611,4.117,4.117,0,0,1,3.164,1.244,4.887,4.887,0,0,1,1.16,3.467v1.151h-5.889a2.135,2.135,0,0,0,.694,1.257,2.066,2.066,0,0,0,1.389.457,2.662,2.662,0,0,0,2.2-.984l1.354,1.6a3.784,3.784,0,0,1-1.569,1.217A5.3,5.3,0,0,1,207.747,19.176Zm-.334-7.576q-1.3,0-1.547,1.723h2.988v-.229a1.467,1.467,0,0,0-.36-1.1A1.434,1.434,0,0,0,207.413,11.6Z" transform="translate(267.339 4212.107)" fill="#12263f"/><g transform="translate(295 4265.107)"><circle cx="40.181" cy="40.181" r="40.181" transform="translate(0 0)" fill="#fff"/><g transform="translate(14.682 12.162)"><rect width="48.772" height="17.954" rx="3.88" transform="translate(0.786 31.604)" fill="#837683"/><g transform="translate(0 0)"><path d="M45.712,67.328H1.719a2.381,2.381,0,0,1-.391-.032,2.4,2.4,0,0,0,2.357,2H47.679a2.4,2.4,0,0,0,2.389-2.389V53.73a2.4,2.4,0,0,0-2-2.357,2.383,2.383,0,0,1,.032.391V64.938a2.4,2.4,0,0,1-2.39,2.39Z" transform="translate(-0.51 -19.736)" fill="#685e68" fill-rule="evenodd"/><path d="M34.729,31.741l9.654,5.573a.968.968,0,0,1,.5.858V49.32a.968.968,0,0,1-.5.858l-9.653,5.573a.968.968,0,0,1-.991,0l-9.654-5.573a.968.968,0,0,1-.5-.858V38.172a.968.968,0,0,1,.5-.858l9.654-5.573A.968.968,0,0,1,34.729,31.741Z" transform="translate(-9.062 -12.142)" fill="#f2d1a5" fill-rule="evenodd"/><path d="M51.389,41.462a.987.987,0,0,1,.13.5V53.108a.968.968,0,0,1-.5.857l-9.654,5.573a.988.988,0,0,1-.5.136V47.533Z" transform="translate(-15.702 -15.929)" fill="#e3a76f" fill-rule="evenodd"/><path d="M34.81,31.741l9.654,5.573a.987.987,0,0,1,.366.361L34.314,43.746,23.8,37.675a.988.988,0,0,1,.366-.361l9.654-5.573A.968.968,0,0,1,34.81,31.741Z" transform="translate(-9.143 -12.142)" fill="#c48958" fill-rule="evenodd"/><path d="M29.725,41.05l3.087,1.782,10.645-6.146L40.37,34.9Z" transform="translate(-11.419 -13.41)" fill="#d1d1d6" fill-rule="evenodd"/><path d="M32.44,51.291l-2.467-1.425a.484.484,0,0,1-.248-.429V44.883l3.087,1.782v4.411a.248.248,0,0,1-.372.215Z" transform="translate(-11.419 -17.243)" fill="#eceff1" fill-rule="evenodd"/><path d="M8.574,1.469,9.99,5.2a.29.29,0,0,0,.261.19l3.985.194a.295.295,0,0,1,.17.524L11.3,8.607a.29.29,0,0,0-.1.307l1.047,3.849a.295.295,0,0,1-.446.324L8.46,10.9a.29.29,0,0,0-.323,0L4.8,13.087a.295.295,0,0,1-.446-.324L5.4,8.914a.289.289,0,0,0-.1-.307L2.19,6.107a.295.295,0,0,1,.171-.524l3.984-.194a.289.289,0,0,0,.261-.19L8.022,1.469a.295.295,0,0,1,.552,0Zm35.344,0L45.335,5.2a.29.29,0,0,0,.261.19l3.985.194a.295.295,0,0,1,.17.524l-3.11,2.5a.29.29,0,0,0-.1.307l1.047,3.85a.295.295,0,0,1-.446.324L43.8,10.9a.29.29,0,0,0-.323,0l-3.338,2.184a.295.295,0,0,1-.446-.324l1.047-3.85a.289.289,0,0,0-.1-.307l-3.109-2.5a.295.295,0,0,1,.171-.524l3.985-.194a.289.289,0,0,0,.261-.19l1.416-3.729a.295.295,0,0,1,.552,0Zm-17.672,0L27.663,5.2a.289.289,0,0,0,.261.19l3.985.194a.295.295,0,0,1,.17.524l-3.109,2.5a.29.29,0,0,0-.1.307l1.047,3.849a.295.295,0,0,1-.446.324L26.132,10.9a.289.289,0,0,0-.323,0l-3.338,2.184a.295.295,0,0,1-.446-.324l1.047-3.85a.29.29,0,0,0-.1-.307l-3.109-2.5a.295.295,0,0,1,.17-.524l3.985-.194a.29.29,0,0,0,.261-.19L25.7,1.469a.295.295,0,0,1,.552,0Z" transform="translate(-0.799 -0.492)" fill="#ffe177" fill-rule="evenodd"/><path d="M17.38,15.429l-1.047-3.849a.29.29,0,0,1,.1-.307l3.109-2.5a.295.295,0,0,0-.17-.524l-.641-.031a.3.3,0,0,1,.035.072.29.29,0,0,1-.1.321l-3.109,2.5a.29.29,0,0,0-.1.307l1.047,3.849a.292.292,0,0,1-.014.2l.441.289a.295.295,0,0,0,.446-.324Zm33.425-4.012,1.047,3.85a.292.292,0,0,1-.014.2l.441.288a.295.295,0,0,0,.446-.324l-1.047-3.849a.29.29,0,0,1,.1-.307l3.109-2.5a.295.295,0,0,0-.17-.524l-.641-.031a.307.307,0,0,1,.035.072.29.29,0,0,1-.1.321l-3.109,2.5a.29.29,0,0,0-.1.307ZM35.053,15.429l-1.047-3.849a.29.29,0,0,1,.1-.307l3.109-2.5a.295.295,0,0,0-.17-.524L36.4,8.217a.3.3,0,0,1,.035.072.29.29,0,0,1-.1.321l-3.109,2.5a.29.29,0,0,0-.1.307l1.047,3.849a.293.293,0,0,1-.014.2l.441.289a.295.295,0,0,0,.446-.324Z" transform="translate(-5.935 -3.158)" fill="#ffd064" fill-rule="evenodd"/><path d="M48.771,47.17a1.6,1.6,0,0,1-1.6,1.6H3.176a1.6,1.6,0,0,1-1.6-1.6V34a1.6,1.6,0,0,1,1.6-1.6H13.741v5.359a.785.785,0,0,0,.393.68l10.645,6.146a.782.782,0,0,0,.787,0L36.21,38.432a.784.784,0,0,0,.393-.68V32.392H47.17a1.6,1.6,0,0,1,1.6,1.6Zm-23.6-26.948L27.378,21.5l-9.071,5.238L16.1,25.46Zm.787,11.837V42.534L35.03,37.3V26.822Zm-5.352-2.181L19.094,29v3.024l1.513.873Zm.787-1.363,9.071-5.237L28.952,22.4,19.88,27.641l1.513.874ZM25.173,30.7l9.071-5.237-2.206-1.273-9.071,5.237Zm-9.858-3.875V37.3l9.071,5.237V32.059l-2.205-1.273v3.478a.787.787,0,0,1-1.18.681l-3.086-1.783a.783.783,0,0,1-.393-.68V28.1l-2.205-1.273Zm31.855,4H36.6V25.46a.785.785,0,0,0-.393-.681L25.566,18.633a.787.787,0,0,0-.787,0L14.135,24.779a.787.787,0,0,0-.393.681v5.359H3.176A3.18,3.18,0,0,0,0,34V47.17a3.18,3.18,0,0,0,3.176,3.176H47.17a3.179,3.179,0,0,0,3.173-3.176V34a3.179,3.179,0,0,0-3.173-3.176ZM23.257,5.684a1.082,1.082,0,0,0,.959-.7l.957-2.518.957,2.518a1.08,1.08,0,0,0,.957.7l2.692.131L27.678,7.5a1.081,1.081,0,0,0-.366,1.127l.707,2.6L25.764,9.754a1.078,1.078,0,0,0-1.184,0L22.326,11.23l.707-2.6A1.08,1.08,0,0,0,22.667,7.5l-2.1-1.688Zm-4.685.546,2.859,2.3-.963,3.539A1.083,1.083,0,0,0,22.1,13.256l3.068-2.009,3.069,2.009a1.081,1.081,0,0,0,1.635-1.189l-.961-3.539,2.858-2.3a1.082,1.082,0,0,0-.625-1.923l-3.663-.179L26.183.7a1.081,1.081,0,0,0-2.022,0l-1.3,3.428L19.2,4.306a1.082,1.082,0,0,0-.625,1.923Zm22.357-.546a1.082,1.082,0,0,0,.96-.7l.956-2.518L43.8,4.987a1.083,1.083,0,0,0,.957.7l2.691.131L45.352,7.5a1.086,1.086,0,0,0-.366,1.127l.705,2.6L43.437,9.754a1.079,1.079,0,0,0-1.185,0L40,11.23l.707-2.6A1.079,1.079,0,0,0,40.339,7.5l-2.1-1.688Zm-4.685.546,2.859,2.3-.962,3.539a1.081,1.081,0,0,0,1.636,1.189l3.068-2.009,3.069,2.009a1.083,1.083,0,0,0,1.638-1.189l-.965-3.539,2.858-2.3a1.081,1.081,0,0,0-.622-1.923l-3.665-.179L43.858.7a1.083,1.083,0,0,0-2.025,0l-1.3,3.428-3.663.179a1.082,1.082,0,0,0-.625,1.923ZM5.585,5.684a1.08,1.08,0,0,0,.958-.7L7.5,2.469l.956,2.518a1.082,1.082,0,0,0,.959.7l2.691.131L10.006,7.5A1.082,1.082,0,0,0,9.64,8.63l.707,2.6L8.093,9.754a1.079,1.079,0,0,0-1.185,0L4.654,11.23l.707-2.6A1.082,1.082,0,0,0,4.994,7.5l-2.1-1.688ZM.9,6.23l2.859,2.3L2.8,12.067a1.081,1.081,0,0,0,1.636,1.189L7.5,11.247l3.068,2.009a1.082,1.082,0,0,0,1.637-1.189l-.962-3.539L14.1,6.23a1.082,1.082,0,0,0-.625-1.923L9.813,4.127,8.511.7A1.082,1.082,0,0,0,6.489.7l-1.3,3.428-3.664.179A1.082,1.082,0,0,0,.9,6.23Z" transform="translate(0 -0.002)" fill-rule="evenodd"/></g></g></g><g transform="translate(295 4354.943)"><circle cx="40.181" cy="40.181" r="40.181" transform="translate(0 0)" fill="#fff"/><g transform="translate(21.096 14.28)"><g transform="translate(0.812 0.812)"><g transform="translate(0 16.24)"><path d="M29.558,29.008H6.9a1.624,1.624,0,0,0-1.624,1.624V59.865A1.624,1.624,0,0,0,6.9,61.489H36.131a1.624,1.624,0,0,0,1.624-1.624V38.546" transform="translate(-5.274 -29.008)" fill="#a0815c"/><path d="M33.478,45.248,28.606,42l-4.872,3.248V29.008h9.744Z" transform="translate(-12.366 -29.008)" fill="#ffda44"/><path d="M9.23,67.246h8.12v6.5H9.23Z" transform="translate(-6.794 -43.698)" fill="#2488ff"/></g><ellipse cx="10.556" cy="10.556" rx="10.556" ry="10.556" transform="translate(24.361 4.872)" fill="#57565c"/><ellipse cx="8.12" cy="8.12" rx="8.12" ry="8.12" transform="translate(26.797 7.308)" fill="#e0e0e2"/><path d="M61.972,22.415v3.248L63.6,27.287" transform="translate(-27.055 -10.235)" fill="#e0e0e2"/><path d="M58.016,2.637h4.872V5.073H58.016Z" transform="translate(-25.535 -2.637)" fill="#ff9811"/><path d="M75.157,14.81l1.624-1.624" transform="translate(-32.12 -6.689)" fill="#e0e0e2"/></g><g transform="translate(0 0)"><path d="M16.843,65.927H8.723a.812.812,0,0,0-.812.812v6.5a.812.812,0,0,0,.812.812h8.12a.812.812,0,0,0,.812-.812v-6.5A.812.812,0,0,0,16.843,65.927Zm-.812,6.5h-6.5V67.551h6.5Z" transform="translate(-5.475 -26.139)"/><path d="M32.361,65.927h-6.5a.812.812,0,1,0,0,1.624h6.5a.812.812,0,1,0,0-1.624Z" transform="translate(-12.06 -26.139)"/><path d="M29.113,69.883H25.864a.812.812,0,1,0,0,1.624h3.248a.812.812,0,1,0,0-1.624Z" transform="translate(-12.06 -27.658)"/><path d="M27.488,73.839H25.864a.812.812,0,1,0,0,1.624h1.624a.812.812,0,1,0,0-1.624Z" transform="translate(-12.06 -29.178)"/><path d="M56.4,13.185a8.932,8.932,0,1,0,8.932,8.932A8.932,8.932,0,0,0,56.4,13.185Zm0,16.24a7.308,7.308,0,1,1,7.308-7.308A7.308,7.308,0,0,1,56.4,29.426Z" transform="translate(-20.671 -5.877)"/><path d="M48.64,10.564,50,9.2a.812.812,0,1,0-1.149-1.149L47.549,9.357A11.33,11.33,0,0,0,40.5,6.22V5.379H42.12a.812.812,0,0,0,.812-.812V2.131a.812.812,0,0,0-.812-.812H37.248a.812.812,0,0,0-.812.812V4.567a.812.812,0,0,0,.812.812h1.624V6.22A11.383,11.383,0,0,0,28.316,17.559H6.392a2.439,2.439,0,0,0-2.436,2.436V49.227a2.439,2.439,0,0,0,2.436,2.436H35.624a2.439,2.439,0,0,0,2.436-2.436V28.81A11.363,11.363,0,0,0,48.64,10.564ZM38.06,3.755V2.943h3.248v.812ZM16.948,19.183h8.12V33.094l-3.609-2.407a.815.815,0,0,0-.9,0l-3.609,2.407ZM36.436,49.227a.813.813,0,0,1-.812.812H6.392a.813.813,0,0,1-.812-.812V19.995a.813.813,0,0,1,.812-.812h8.932V34.611a.813.813,0,0,0,1.263.676l4.421-2.949,4.421,2.949a.813.813,0,0,0,1.263-.676V19.183h1.741a11.4,11.4,0,0,0,8,9.27ZM39.684,27.3a9.744,9.744,0,1,1,9.744-9.744A9.744,9.744,0,0,1,39.684,27.3Z" transform="translate(-3.956 -1.319)"/><path d="M62.277,24.821V21.909a.812.812,0,0,0-1.624,0v3.248a.812.812,0,0,0,.238.574l1.624,1.624a.812.812,0,1,0,1.148-1.148Z" transform="translate(-25.736 -8.917)"/></g></g></g><g transform="translate(297.318 4444.743)"><circle cx="40.181" cy="40.181" r="40.181" transform="translate(0 0)" fill="#fff"/><g transform="translate(14.892 17.954)"><g transform="translate(18.04 0.812)"><path d="M57.472,9.514V35.773A1.173,1.173,0,0,1,56.3,36.946H30.467a1.173,1.173,0,0,1-1.173-1.173V9.514A1.173,1.173,0,0,1,30.467,8.34H56.3A1.173,1.173,0,0,1,57.472,9.514Z" transform="translate(-29.294 -8.34)" fill="#fb9927"/><path d="M32.151,25.79a1.961,1.961,0,0,1,2.05-1.865l.776.037a8.383,8.383,0,0,0-4.7-1.441,8.143,8.143,0,0,0-.983.058V18.642q.485-.039.983-.039a12.3,12.3,0,0,1,7.529,2.572l.026-.554a1.96,1.96,0,0,1,3.915.185L41.49,26.23A1.958,1.958,0,0,1,39.6,28.095a1.539,1.539,0,0,1-.161,0" transform="translate(-29.294 -12.283)" fill="#f98824"/><path d="M71.824,9.514V35.773a1.174,1.174,0,0,1-1.173,1.173h-4a1.174,1.174,0,0,0,1.173-1.173V9.514A1.174,1.174,0,0,0,66.653,8.34h4a1.174,1.174,0,0,1,1.173,1.173Z" transform="translate(-43.646 -8.34)" fill="#f98824"/><g transform="translate(14.089 18.166)"><path d="M61.507,44.586H53.345a1.173,1.173,0,0,1-1.173-1.173v-4.4a1.173,1.173,0,0,1,1.173-1.173h8.162a1.173,1.173,0,0,1,1.173,1.173v4.4A1.173,1.173,0,0,1,61.507,44.586Z" transform="translate(-52.172 -37.838)" fill="#68dbf9"/><path d="M66.567,39.011v4.4a1.173,1.173,0,0,1-1.173,1.173h-3.1a1.173,1.173,0,0,0,1.173-1.173v-4.4a1.174,1.174,0,0,0-1.173-1.173h3.1A1.174,1.174,0,0,1,66.567,39.011Z" transform="translate(-56.059 -37.838)" fill="#24d1f8"/></g><g transform="translate(10.524 0)"><path d="M53.513,18.173V8.34H46.382v9.833a1.173,1.173,0,0,0,1.173,1.173H52.34a1.173,1.173,0,0,0,1.173-1.173Z" transform="translate(-46.382 -8.34)" fill="#f98824"/><path d="M53.513,15.709V8.34H46.382v7.369a1.173,1.173,0,0,0,1.173,1.173H52.34a1.173,1.173,0,0,0,1.173-1.173Z" transform="translate(-46.382 -8.34)" fill="#fee7c9"/></g></g><path d="M32.811,14.589a1.961,1.961,0,0,0-2.049,1.865l-.026.554A12.316,12.316,0,1,0,19.274,38.425a1.959,1.959,0,1,0,1.251-3.713A8.4,8.4,0,1,1,27.907,19.8l-.776-.036a1.959,1.959,0,1,0-.184,3.914l5.425.255q.081,0,.161,0a1.959,1.959,0,0,0,1.888-1.866l.255-5.425a1.959,1.959,0,0,0-1.865-2.05Z" transform="translate(-4.184 -9.871)" fill="#27e19d"/><g transform="translate(0.812 19.513)"><g transform="translate(0 4.927)"><path d="M35.635,68.232H2.538a1.22,1.22,0,0,1-1.22-1.22V47.927a1.22,1.22,0,0,1,1.22-1.22h33.1a1.22,1.22,0,0,1,1.22,1.22V67.013a1.22,1.22,0,0,1-1.22,1.219Z" transform="translate(-1.318 -46.708)" fill="#23f1a8"/><path d="M56.271,47.928V67.012a1.22,1.22,0,0,1-1.219,1.22H51.861a1.22,1.22,0,0,0,1.219-1.22V47.928a1.22,1.22,0,0,0-1.219-1.22h3.191a1.22,1.22,0,0,1,1.219,1.22Z" transform="translate(-20.735 -46.708)" fill="#26d192"/><path d="M35.479,53.38v7.684a.733.733,0,0,1-.737.731,5.344,5.344,0,0,0-1.434.21,3.827,3.827,0,0,0-2.6,2.444,5.212,5.212,0,0,0-.292,1.663.737.737,0,0,1-.732.745H7.991a.732.732,0,0,1-.732-.732V58.44a.729.729,0,0,1,.728-.731A4.535,4.535,0,0,0,11.071,56.5a4.429,4.429,0,0,0,1.045-1.725,5.051,5.051,0,0,0,.2-1.406.727.727,0,0,1,.731-.721h21.7a.732.732,0,0,1,.732.732Z" transform="translate(-3.601 -48.99)" fill="#17998c"/><path d="M47.917,53.38v7.684a.732.732,0,0,1-.737.731,5.341,5.341,0,0,0-1.434.21,3.822,3.822,0,0,0-2.6,2.444,5.2,5.2,0,0,0-.292,1.662.736.736,0,0,1-.732.744H39.637a.736.736,0,0,0,.731-.744,5.23,5.23,0,0,1,.292-1.662A3.824,3.824,0,0,1,43.258,62a5.342,5.342,0,0,1,1.434-.21.732.732,0,0,0,.737-.731V53.38a.731.731,0,0,0-.731-.732h2.488A.731.731,0,0,1,47.917,53.38Z" transform="translate(-16.039 -48.99)" fill="#138b80"/><ellipse cx="7.104" cy="7.104" rx="7.104" ry="7.104" transform="translate(10.665 3.659)" fill="#fcc16d"/><path d="M36.084,59.751a7.11,7.11,0,0,1-9.01,6.845,6.9,6.9,0,0,0,0-13.689,7.108,7.108,0,0,1,9.012,6.844Z" transform="translate(-11.212 -48.99)" fill="#fca62f"/></g><path d="M73.843,50.383A12.315,12.315,0,0,1,54,60.128l-.026.554a1.959,1.959,0,1,1-3.914-.185l.255-5.425A1.958,1.958,0,0,1,52.2,53.208q.081,0,.161,0l5.425.256a1.959,1.959,0,1,1-.184,3.914l-.777-.037a8.4,8.4,0,1,0,8.621-14.386V38.707l.011,0a12.307,12.307,0,0,1,8.384,11.672Z" transform="translate(-20.041 -38.707)" fill="#21c1f8"/><path d="M77.73,39.988a12.292,12.292,0,0,0-2.67-1.277l-.011,0v4.247a8.385,8.385,0,0,1,2.681,2.237v-5.2Z" transform="translate(-29.643 -38.708)" fill="#1faaee"/></g><g transform="translate(0 0)"><path d="M57.625,32.927h6.838a.812.812,0,1,0,0-1.624H57.625a.812.812,0,1,0,0,1.624Z" transform="translate(-21.825 -16.35)"/><path d="M66.608,28.631h1.306a.812.812,0,1,0,0-1.624H66.608a.812.812,0,1,0,0,1.624Z" transform="translate(-25.276 -14.7)"/><path d="M6.753,54.481a.812.812,0,0,0,.812-.812v-.716H8.28a.812.812,0,1,0,0-1.624H6.753a.812.812,0,0,0-.812.812v1.527A.812.812,0,0,0,6.753,54.481Z" transform="translate(-2.282 -24.044)"/><path d="M31,62.453a.812.812,0,0,0-1.088.367,1.935,1.935,0,1,1-1.051-2.67l-1.3,1.47A.812.812,0,0,0,28.78,62.7l1.921-2.17a.812.812,0,0,0-.043-1.121,3.561,3.561,0,1,0,.713,4.135A.812.812,0,0,0,31,62.453Z" transform="translate(-9.458 -26.76)"/><path d="M47.03,25.966V9.008a1.988,1.988,0,0,0-1.985-1.985H19.214a1.988,1.988,0,0,0-1.985,1.985V10.9A13.129,13.129,0,0,0,7.76,30.651H2.032A2.034,2.034,0,0,0,0,32.682V51.767A2.034,2.034,0,0,0,2.032,53.8h33.1a2.034,2.034,0,0,0,2.031-2.032V50.286a13.125,13.125,0,1,0,9.87-24.32ZM29.376,11.057V8.646h5.508V15.2a.362.362,0,0,1-.362.362h-3.3l.081-1.737a2.775,2.775,0,0,0-1.927-2.771ZM18.852,9.008a.362.362,0,0,1,.362-.362h8.538V11.04a2.786,2.786,0,0,0-1.819,1.7,13.2,13.2,0,0,0-6.91-1.968l-.171,0V9.008ZM7.518,23.9a11.5,11.5,0,0,1,18.538-9.1.812.812,0,0,0,1.307-.6l.026-.554a1.147,1.147,0,1,1,2.291.108l-.254,5.425a1.154,1.154,0,0,1-1.1,1.093c-.036,0-.07,0-.1,0L22.8,20.014a1.148,1.148,0,0,1-1.092-1.2,1.152,1.152,0,0,1,1.2-1.092l.776.037a.812.812,0,0,0,.493-1.483A9.208,9.208,0,0,0,9.813,23.9a9.262,9.262,0,0,0,2.947,6.746H9.7A11.567,11.567,0,0,1,7.518,23.9ZM35.536,51.767a.408.408,0,0,1-.407.408H2.032a.409.409,0,0,1-.408-.408V32.682a.408.408,0,0,1,.408-.407H23.31a.812.812,0,1,0,0-1.624H18.852V26.408a.812.812,0,0,0-1.624,0v4.242H15.555a7.584,7.584,0,0,1,1.673-14.115V22.4a.812.812,0,0,0,1.624,0V16.324c.057,0,.114,0,.171,0a7.572,7.572,0,0,1,2.186.321,2.77,2.77,0,0,0,1.515,5l5.431.256c.07,0,.14,0,.21,0h.012a2.786,2.786,0,0,0,2.671-2.64l.1-2.064h3.377A1.988,1.988,0,0,0,36.507,15.2V8.646h8.538a.362.362,0,0,1,.362.362V35.267a.362.362,0,0,1-.362.362H37.16V33.56h4.3a1.988,1.988,0,0,0,1.985-1.985v-4.4a1.988,1.988,0,0,0-1.985-1.985H33.3a1.988,1.988,0,0,0-1.985,1.985v3.477h-4a.812.812,0,1,0,0,1.624h7.81a.408.408,0,0,1,.407.407v7.655l-2.034-.1V35.852a1.545,1.545,0,0,0-1.544-1.544h-21.7a1.539,1.539,0,0,0-1.1.455,1.514,1.514,0,0,0-.446,1.08,4.267,4.267,0,0,1-.173,1.181,3.634,3.634,0,0,1-.815,1.352,3.722,3.722,0,0,1-2.53.993h0a1.543,1.543,0,0,0-1.539,1.544V48.6A1.545,1.545,0,0,0,5.2,50.139H26.9a1.554,1.554,0,0,0,1.544-1.554,4.419,4.419,0,0,1,.249-1.4,2.991,2.991,0,0,1,1.458-1.689l-.131,2.795a2.771,2.771,0,0,0,5.37,1.084c.049.03.1.059.149.088Zm1.48-19.831a2.033,2.033,0,0,0-1.887-1.285H32.941V27.174a.362.362,0,0,1,.362-.362h8.161a.362.362,0,0,1,.362.362v4.4a.362.362,0,0,1-.362.362ZM30.273,42.862l-.04.854a4.628,4.628,0,0,0-3.08,2.943,6.066,6.066,0,0,0-.335,1.856H23.377a7.9,7.9,0,0,0,0-12.583h8.5V40.48a2.785,2.785,0,0,0-1.606,2.382ZM18.559,48.516a6.292,6.292,0,1,1,.042,0Zm-4.775,0h-8.5V40.993a5.341,5.341,0,0,0,3.55-1.423,5.2,5.2,0,0,0,1.275-2.1,5.927,5.927,0,0,0,.235-1.539h3.442a7.9,7.9,0,0,0,0,12.583Zm28.514,1.2a11.559,11.559,0,0,1-7.033-2.4.812.812,0,0,0-1.307.6l-.026.554a1.147,1.147,0,1,1-2.292-.109l.255-5.425A1.152,1.152,0,0,1,33,41.847c.031,0,.063,0,.089,0l5.426.256a1.147,1.147,0,0,1-.107,2.292l-.777-.037a.812.812,0,0,0-.493,1.483,9.2,9.2,0,0,0,9.24.621.812.812,0,1,0-.722-1.454A7.49,7.49,0,0,1,42.3,45.8a7.577,7.577,0,0,1-2.186-.321A2.769,2.769,0,0,0,38.6,40.481l-1.436-.068V37.252h7.885a1.988,1.988,0,0,0,1.985-1.985V32.28a7.578,7.578,0,0,1,1.4,10.382.812.812,0,1,0,1.313.956A9.2,9.2,0,0,0,47.03,30.31V27.727A11.5,11.5,0,0,1,42.3,49.715Z" transform="translate(0 -7.022)"/></g></g></g><g transform="translate(267.339 4565.306)" fill="none" stroke="#21c9b8" stroke-width="1"><rect width="253.008" height="313.028" rx="10" stroke="none"/><rect x="0.5" y="0.5" width="252.008" height="312.028" rx="9.5" fill="none"/></g><path d="M3.359,12.992V17H1.016V5.625H5.453a5.134,5.134,0,0,1,2.254.469A3.454,3.454,0,0,1,9.2,7.426a3.714,3.714,0,0,1,.523,1.965,3.266,3.266,0,0,1-1.145,2.637,4.767,4.767,0,0,1-3.168.965Zm0-1.9H5.453a2.059,2.059,0,0,0,1.418-.437,1.591,1.591,0,0,0,.488-1.25,1.876,1.876,0,0,0-.492-1.352,1.839,1.839,0,0,0-1.359-.531H3.359Zm12.578-.43a6.134,6.134,0,0,0-.812-.062,1.654,1.654,0,0,0-1.68.867V17H11.188V8.547H13.32l.063,1.008a2.092,2.092,0,0,1,1.883-1.164,2.366,2.366,0,0,1,.7.1Zm.453,2.031a5.013,5.013,0,0,1,.484-2.242A3.546,3.546,0,0,1,18.27,8.93a4.069,4.069,0,0,1,2.113-.539,3.849,3.849,0,0,1,2.793,1.047,4.2,4.2,0,0,1,1.207,2.844l.016.578a4.418,4.418,0,0,1-1.086,3.121A3.775,3.775,0,0,1,20.4,17.156a3.793,3.793,0,0,1-2.918-1.172,4.5,4.5,0,0,1-1.09-3.187Zm2.258.164A3.151,3.151,0,0,0,19.1,14.7a1.629,1.629,0,0,0,2.578.008,3.448,3.448,0,0,0,.461-2.012,3.12,3.12,0,0,0-.461-1.828,1.5,1.5,0,0,0-1.3-.648,1.475,1.475,0,0,0-1.281.645A3.506,3.506,0,0,0,18.648,12.859Zm6.789-.148a5.094,5.094,0,0,1,.887-3.148A2.877,2.877,0,0,1,28.75,8.391a2.589,2.589,0,0,1,2.039.922V5h2.266V17H31.016l-.109-.9a2.657,2.657,0,0,1-2.172,1.055A2.869,2.869,0,0,1,26.34,15.98,5.258,5.258,0,0,1,25.438,12.711Zm2.258.164a3.328,3.328,0,0,0,.414,1.82,1.349,1.349,0,0,0,1.2.633,1.511,1.511,0,0,0,1.477-.883V11.109a1.489,1.489,0,0,0-1.461-.883Q27.7,10.227,27.7,12.875Zm12.172,3.266a2.831,2.831,0,0,1-2.312,1.016,2.67,2.67,0,0,1-2.074-.781,3.335,3.335,0,0,1-.73-2.289V8.547h2.258v5.461q0,1.32,1.2,1.32a1.631,1.631,0,0,0,1.578-.8V8.547h2.266V17H39.93Zm7.406-.8a1.481,1.481,0,0,0,1.016-.344,1.2,1.2,0,0,0,.406-.914h2.117a2.9,2.9,0,0,1-.469,1.574,3.093,3.093,0,0,1-1.262,1.109,3.949,3.949,0,0,1-1.77.395A3.67,3.67,0,0,1,44.453,16a4.56,4.56,0,0,1-1.047-3.184v-.148a4.508,4.508,0,0,1,1.039-3.117A3.627,3.627,0,0,1,47.3,8.391a3.555,3.555,0,0,1,2.543.9,3.2,3.2,0,0,1,.973,2.4H48.7a1.539,1.539,0,0,0-.406-1.066,1.513,1.513,0,0,0-2.223.164,3.324,3.324,0,0,0-.4,1.863v.234a3.366,3.366,0,0,0,.4,1.875A1.378,1.378,0,0,0,47.273,15.336ZM54.8,6.469V8.547H56.25V10.2H54.8v4.219a1.007,1.007,0,0,0,.18.672.9.9,0,0,0,.688.2,3.6,3.6,0,0,0,.664-.055v1.711a4.648,4.648,0,0,1-1.367.2,2.156,2.156,0,0,1-2.422-2.4V10.2H51.313V8.547h1.234V6.469ZM56.922,12.7a5.013,5.013,0,0,1,.484-2.242A3.546,3.546,0,0,1,58.8,8.93a4.069,4.069,0,0,1,2.113-.539,3.849,3.849,0,0,1,2.793,1.047,4.2,4.2,0,0,1,1.207,2.844l.016.578a4.418,4.418,0,0,1-1.086,3.121,4.209,4.209,0,0,1-5.832,0,4.5,4.5,0,0,1-1.09-3.187Zm2.258.164a3.151,3.151,0,0,0,.453,1.84,1.629,1.629,0,0,0,2.578.008,3.448,3.448,0,0,0,.461-2.012,3.12,3.12,0,0,0-.461-1.828,1.5,1.5,0,0,0-1.3-.648,1.475,1.475,0,0,0-1.281.645A3.506,3.506,0,0,0,59.18,12.859Zm13.2-4.312.07.977a2.951,2.951,0,0,1,2.43-1.133,2.453,2.453,0,0,1,2,.789,3.682,3.682,0,0,1,.672,2.359V17H75.3V11.594a1.465,1.465,0,0,0-.312-1.043,1.4,1.4,0,0,0-1.039-.324,1.553,1.553,0,0,0-1.43.813V17H70.258V8.547ZM78.914,12.7a5.013,5.013,0,0,1,.484-2.242A3.546,3.546,0,0,1,80.793,8.93a4.069,4.069,0,0,1,2.113-.539A3.849,3.849,0,0,1,85.7,9.438a4.2,4.2,0,0,1,1.207,2.844l.016.578a4.418,4.418,0,0,1-1.086,3.121,4.209,4.209,0,0,1-5.832,0,4.5,4.5,0,0,1-1.09-3.187Zm2.258.164a3.151,3.151,0,0,0,.453,1.84,1.629,1.629,0,0,0,2.578.008,3.448,3.448,0,0,0,.461-2.012,3.12,3.12,0,0,0-.461-1.828,1.5,1.5,0,0,0-1.3-.648,1.475,1.475,0,0,0-1.281.645A3.506,3.506,0,0,0,81.172,12.859ZM8.477,32.852A5.07,5.07,0,0,1,7.59,35.98,2.843,2.843,0,0,1,5.2,37.156a2.633,2.633,0,0,1-2.07-.891V40.25H.867v-11.7H2.961l.078.828a2.654,2.654,0,0,1,2.141-.984,2.862,2.862,0,0,1,2.43,1.156,5.207,5.207,0,0,1,.867,3.188Zm-2.258-.164a3.327,3.327,0,0,0-.418-1.82,1.361,1.361,0,0,0-1.215-.641,1.478,1.478,0,0,0-1.461.813V34.5a1.5,1.5,0,0,0,1.477.836Q6.219,35.336,6.219,32.688Zm8.406-2.023a6.134,6.134,0,0,0-.812-.062,1.654,1.654,0,0,0-1.68.867V37H9.875V28.547h2.133l.063,1.008a2.092,2.092,0,0,1,1.883-1.164,2.366,2.366,0,0,1,.7.1Zm.453,2.031a5.013,5.013,0,0,1,.484-2.242,3.546,3.546,0,0,1,1.395-1.523,4.069,4.069,0,0,1,2.113-.539,3.849,3.849,0,0,1,2.793,1.047,4.2,4.2,0,0,1,1.207,2.844l.016.578A4.418,4.418,0,0,1,22,35.98a3.775,3.775,0,0,1-2.914,1.176,3.793,3.793,0,0,1-2.918-1.172,4.5,4.5,0,0,1-1.09-3.187Zm2.258.164a3.151,3.151,0,0,0,.453,1.84,1.629,1.629,0,0,0,2.578.008,3.448,3.448,0,0,0,.461-2.012,3.12,3.12,0,0,0-.461-1.828,1.5,1.5,0,0,0-1.3-.648,1.475,1.475,0,0,0-1.281.645A3.506,3.506,0,0,0,17.336,32.859Zm10.656,2.477a1.481,1.481,0,0,0,1.016-.344,1.2,1.2,0,0,0,.406-.914h2.117a2.9,2.9,0,0,1-.469,1.574A3.093,3.093,0,0,1,29.8,36.762a3.949,3.949,0,0,1-1.77.395A3.67,3.67,0,0,1,25.172,36a4.56,4.56,0,0,1-1.047-3.184v-.148a4.508,4.508,0,0,1,1.039-3.117,3.627,3.627,0,0,1,2.852-1.164,3.555,3.555,0,0,1,2.543.9,3.2,3.2,0,0,1,.973,2.4H29.414a1.539,1.539,0,0,0-.406-1.066,1.513,1.513,0,0,0-2.223.164,3.324,3.324,0,0,0-.4,1.863v.234a3.366,3.366,0,0,0,.4,1.875A1.378,1.378,0,0,0,27.992,35.336Zm8.719,1.82a4.15,4.15,0,0,1-3.027-1.141,4.054,4.054,0,0,1-1.168-3.039v-.219a5.106,5.106,0,0,1,.492-2.277A3.612,3.612,0,0,1,34.4,28.934a3.914,3.914,0,0,1,2.059-.543,3.508,3.508,0,0,1,2.73,1.094,4.444,4.444,0,0,1,1,3.1v.922H34.8a2.1,2.1,0,0,0,.66,1.328,2,2,0,0,0,1.395.5,2.437,2.437,0,0,0,2.039-.945l1.109,1.242a3.389,3.389,0,0,1-1.375,1.121A4.511,4.511,0,0,1,36.711,37.156Zm-.258-6.937a1.414,1.414,0,0,0-1.09.453,2.341,2.341,0,0,0-.535,1.3h3.141v-.18a1.669,1.669,0,0,0-.406-1.16A1.459,1.459,0,0,0,36.453,30.219Zm9.594,4.445a.727.727,0,0,0-.41-.652,4.659,4.659,0,0,0-1.316-.426Q41.3,32.953,41.3,31.023a2.323,2.323,0,0,1,.934-1.879,3.766,3.766,0,0,1,2.441-.754,4.053,4.053,0,0,1,2.574.758,2.388,2.388,0,0,1,.965,1.969H45.961a1.092,1.092,0,0,0-.312-.8A1.322,1.322,0,0,0,44.672,30a1.351,1.351,0,0,0-.883.258.814.814,0,0,0-.312.656.7.7,0,0,0,.355.605,3.657,3.657,0,0,0,1.2.4,9.8,9.8,0,0,1,1.422.379,2.336,2.336,0,0,1,1.789,2.273,2.205,2.205,0,0,1-.992,1.871,4.28,4.28,0,0,1-2.562.715,4.47,4.47,0,0,1-1.887-.379,3.166,3.166,0,0,1-1.293-1.039,2.414,2.414,0,0,1-.469-1.426H43.18a1.179,1.179,0,0,0,.445.922,1.766,1.766,0,0,0,1.109.32,1.635,1.635,0,0,0,.98-.246A.766.766,0,0,0,46.047,34.664ZM54.594,37a2.507,2.507,0,0,1-.227-.758,2.732,2.732,0,0,1-2.133.914,3,3,0,0,1-2.059-.719,2.312,2.312,0,0,1-.816-1.812,2.389,2.389,0,0,1,1-2.062,4.915,4.915,0,0,1,2.879-.727h1.039v-.484a1.393,1.393,0,0,0-.3-.937,1.183,1.183,0,0,0-.949-.352,1.345,1.345,0,0,0-.895.273.929.929,0,0,0-.324.75H49.547A2.268,2.268,0,0,1,50,29.727a3,3,0,0,1,1.281-.98,4.669,4.669,0,0,1,1.859-.355,3.689,3.689,0,0,1,2.48.785,2.747,2.747,0,0,1,.918,2.207v3.664a4.041,4.041,0,0,0,.336,1.82V37Zm-1.867-1.57a1.945,1.945,0,0,0,.922-.223,1.462,1.462,0,0,0,.625-.6V33.156H53.43q-1.7,0-1.8,1.172l-.008.133a.9.9,0,0,0,.3.7A1.153,1.153,0,0,0,52.727,35.43Zm5.2-2.719a5.094,5.094,0,0,1,.887-3.148,2.877,2.877,0,0,1,2.426-1.172,2.589,2.589,0,0,1,2.039.922V25h2.266V37H63.5l-.109-.9a2.657,2.657,0,0,1-2.172,1.055,2.869,2.869,0,0,1-2.395-1.176A5.258,5.258,0,0,1,57.922,32.711Zm2.258.164a3.328,3.328,0,0,0,.414,1.82,1.349,1.349,0,0,0,1.2.633,1.511,1.511,0,0,0,1.477-.883V31.109a1.489,1.489,0,0,0-1.461-.883Q60.18,30.227,60.18,32.875Zm6.758-.18a5.013,5.013,0,0,1,.484-2.242,3.546,3.546,0,0,1,1.395-1.523,4.069,4.069,0,0,1,2.113-.539,3.849,3.849,0,0,1,2.793,1.047,4.2,4.2,0,0,1,1.207,2.844l.016.578a4.418,4.418,0,0,1-1.086,3.121,4.209,4.209,0,0,1-5.832,0,4.5,4.5,0,0,1-1.09-3.187Zm2.258.164a3.151,3.151,0,0,0,.453,1.84,1.629,1.629,0,0,0,2.578.008,3.448,3.448,0,0,0,.461-2.012,3.12,3.12,0,0,0-.461-1.828,1.5,1.5,0,0,0-1.3-.648,1.475,1.475,0,0,0-1.281.645A3.506,3.506,0,0,0,69.2,32.859Z" transform="translate(393 4617.289)" fill="#12263f"/><path d="M3.359,12.992V17H1.016V5.625H5.453a5.134,5.134,0,0,1,2.254.469A3.454,3.454,0,0,1,9.2,7.426a3.714,3.714,0,0,1,.523,1.965,3.266,3.266,0,0,1-1.145,2.637,4.767,4.767,0,0,1-3.168.965Zm0-1.9H5.453a2.059,2.059,0,0,0,1.418-.437,1.591,1.591,0,0,0,.488-1.25,1.876,1.876,0,0,0-.492-1.352,1.839,1.839,0,0,0-1.359-.531H3.359Zm12.578-.43a6.134,6.134,0,0,0-.812-.062,1.654,1.654,0,0,0-1.68.867V17H11.188V8.547H13.32l.063,1.008a2.092,2.092,0,0,1,1.883-1.164,2.366,2.366,0,0,1,.7.1Zm.453,2.031a5.013,5.013,0,0,1,.484-2.242A3.546,3.546,0,0,1,18.27,8.93a4.069,4.069,0,0,1,2.113-.539,3.849,3.849,0,0,1,2.793,1.047,4.2,4.2,0,0,1,1.207,2.844l.016.578a4.418,4.418,0,0,1-1.086,3.121A3.775,3.775,0,0,1,20.4,17.156a3.793,3.793,0,0,1-2.918-1.172,4.5,4.5,0,0,1-1.09-3.187Zm2.258.164A3.151,3.151,0,0,0,19.1,14.7a1.629,1.629,0,0,0,2.578.008,3.448,3.448,0,0,0,.461-2.012,3.12,3.12,0,0,0-.461-1.828,1.5,1.5,0,0,0-1.3-.648,1.475,1.475,0,0,0-1.281.645A3.506,3.506,0,0,0,18.648,12.859Zm6.789-.148a5.094,5.094,0,0,1,.887-3.148A2.877,2.877,0,0,1,28.75,8.391a2.589,2.589,0,0,1,2.039.922V5h2.266V17H31.016l-.109-.9a2.657,2.657,0,0,1-2.172,1.055A2.869,2.869,0,0,1,26.34,15.98,5.258,5.258,0,0,1,25.438,12.711Zm2.258.164a3.328,3.328,0,0,0,.414,1.82,1.349,1.349,0,0,0,1.2.633,1.511,1.511,0,0,0,1.477-.883V11.109a1.489,1.489,0,0,0-1.461-.883Q27.7,10.227,27.7,12.875Zm12.172,3.266a2.831,2.831,0,0,1-2.312,1.016,2.67,2.67,0,0,1-2.074-.781,3.335,3.335,0,0,1-.73-2.289V8.547h2.258v5.461q0,1.32,1.2,1.32a1.631,1.631,0,0,0,1.578-.8V8.547h2.266V17H39.93Zm7.406-.8a1.481,1.481,0,0,0,1.016-.344,1.2,1.2,0,0,0,.406-.914h2.117a2.9,2.9,0,0,1-.469,1.574,3.093,3.093,0,0,1-1.262,1.109,3.949,3.949,0,0,1-1.77.395A3.67,3.67,0,0,1,44.453,16a4.56,4.56,0,0,1-1.047-3.184v-.148a4.508,4.508,0,0,1,1.039-3.117A3.627,3.627,0,0,1,47.3,8.391a3.555,3.555,0,0,1,2.543.9,3.2,3.2,0,0,1,.973,2.4H48.7a1.539,1.539,0,0,0-.406-1.066,1.513,1.513,0,0,0-2.223.164,3.324,3.324,0,0,0-.4,1.863v.234a3.366,3.366,0,0,0,.4,1.875A1.378,1.378,0,0,0,47.273,15.336ZM54.8,6.469V8.547H56.25V10.2H54.8v4.219a1.007,1.007,0,0,0,.18.672.9.9,0,0,0,.688.2,3.6,3.6,0,0,0,.664-.055v1.711a4.648,4.648,0,0,1-1.367.2,2.156,2.156,0,0,1-2.422-2.4V10.2H51.313V8.547h1.234V6.469ZM56.922,12.7a5.013,5.013,0,0,1,.484-2.242A3.546,3.546,0,0,1,58.8,8.93a4.069,4.069,0,0,1,2.113-.539,3.849,3.849,0,0,1,2.793,1.047,4.2,4.2,0,0,1,1.207,2.844l.016.578a4.418,4.418,0,0,1-1.086,3.121,4.209,4.209,0,0,1-5.832,0,4.5,4.5,0,0,1-1.09-3.187Zm2.258.164a3.151,3.151,0,0,0,.453,1.84,1.629,1.629,0,0,0,2.578.008,3.448,3.448,0,0,0,.461-2.012,3.12,3.12,0,0,0-.461-1.828,1.5,1.5,0,0,0-1.3-.648,1.475,1.475,0,0,0-1.281.645A3.506,3.506,0,0,0,59.18,12.859Zm13.2-4.312.07.977a2.951,2.951,0,0,1,2.43-1.133,2.453,2.453,0,0,1,2,.789,3.682,3.682,0,0,1,.672,2.359V17H75.3V11.594a1.465,1.465,0,0,0-.312-1.043,1.4,1.4,0,0,0-1.039-.324,1.553,1.553,0,0,0-1.43.813V17H70.258V8.547ZM78.914,12.7a5.013,5.013,0,0,1,.484-2.242A3.546,3.546,0,0,1,80.793,8.93a4.069,4.069,0,0,1,2.113-.539A3.849,3.849,0,0,1,85.7,9.438a4.2,4.2,0,0,1,1.207,2.844l.016.578a4.418,4.418,0,0,1-1.086,3.121,4.209,4.209,0,0,1-5.832,0,4.5,4.5,0,0,1-1.09-3.187Zm2.258.164a3.151,3.151,0,0,0,.453,1.84,1.629,1.629,0,0,0,2.578.008,3.448,3.448,0,0,0,.461-2.012,3.12,3.12,0,0,0-.461-1.828,1.5,1.5,0,0,0-1.3-.648,1.475,1.475,0,0,0-1.281.645A3.506,3.506,0,0,0,81.172,12.859ZM.516,32.711A5.094,5.094,0,0,1,1.4,29.563a2.877,2.877,0,0,1,2.426-1.172,2.589,2.589,0,0,1,2.039.922V25H8.133V37H6.094l-.109-.9a2.657,2.657,0,0,1-2.172,1.055A2.869,2.869,0,0,1,1.418,35.98,5.258,5.258,0,0,1,.516,32.711Zm2.258.164a3.328,3.328,0,0,0,.414,1.82,1.349,1.349,0,0,0,1.2.633,1.511,1.511,0,0,0,1.477-.883V31.109a1.489,1.489,0,0,0-1.461-.883Q2.773,30.227,2.773,32.875Zm11,4.281a4.15,4.15,0,0,1-3.027-1.141,4.054,4.054,0,0,1-1.168-3.039v-.219a5.106,5.106,0,0,1,.492-2.277,3.612,3.612,0,0,1,1.395-1.547,3.914,3.914,0,0,1,2.059-.543,3.508,3.508,0,0,1,2.73,1.094,4.444,4.444,0,0,1,1,3.1v.922H11.867a2.1,2.1,0,0,0,.66,1.328,2,2,0,0,0,1.395.5,2.437,2.437,0,0,0,2.039-.945l1.109,1.242A3.389,3.389,0,0,1,15.7,36.754,4.511,4.511,0,0,1,13.773,37.156Zm-.258-6.937a1.414,1.414,0,0,0-1.09.453,2.341,2.341,0,0,0-.535,1.3h3.141v-.18a1.669,1.669,0,0,0-.406-1.16A1.459,1.459,0,0,0,13.516,30.219Zm9.594,4.445a.727.727,0,0,0-.41-.652,4.659,4.659,0,0,0-1.316-.426q-3.016-.633-3.016-2.562a2.323,2.323,0,0,1,.934-1.879,3.766,3.766,0,0,1,2.441-.754,4.053,4.053,0,0,1,2.574.758,2.388,2.388,0,0,1,.965,1.969H23.023a1.092,1.092,0,0,0-.312-.8A1.322,1.322,0,0,0,21.734,30a1.351,1.351,0,0,0-.883.258.814.814,0,0,0-.312.656.7.7,0,0,0,.355.605,3.657,3.657,0,0,0,1.2.4,9.8,9.8,0,0,1,1.422.379A2.336,2.336,0,0,1,25.3,34.57a2.2,2.2,0,0,1-.992,1.871,4.28,4.28,0,0,1-2.562.715,4.47,4.47,0,0,1-1.887-.379,3.166,3.166,0,0,1-1.293-1.039,2.414,2.414,0,0,1-.469-1.426h2.141a1.179,1.179,0,0,0,.445.922,1.766,1.766,0,0,0,1.109.32,1.635,1.635,0,0,0,.98-.246A.766.766,0,0,0,23.109,34.664Zm11.258-1.812a5.07,5.07,0,0,1-.887,3.129,2.843,2.843,0,0,1-2.395,1.176,2.633,2.633,0,0,1-2.07-.891V40.25H26.758v-11.7h2.094l.078.828a2.654,2.654,0,0,1,2.141-.984,2.862,2.862,0,0,1,2.43,1.156,5.207,5.207,0,0,1,.867,3.188Zm-2.258-.164a3.327,3.327,0,0,0-.418-1.82,1.361,1.361,0,0,0-1.215-.641,1.478,1.478,0,0,0-1.461.813V34.5a1.5,1.5,0,0,0,1.477.836Q32.109,35.336,32.109,32.688ZM40.664,37a2.507,2.507,0,0,1-.227-.758,2.732,2.732,0,0,1-2.133.914,3,3,0,0,1-2.059-.719,2.312,2.312,0,0,1-.816-1.812,2.389,2.389,0,0,1,1-2.062,4.915,4.915,0,0,1,2.879-.727h1.039v-.484a1.393,1.393,0,0,0-.3-.937,1.183,1.183,0,0,0-.949-.352,1.345,1.345,0,0,0-.895.273.929.929,0,0,0-.324.75H35.617a2.268,2.268,0,0,1,.453-1.359,3,3,0,0,1,1.281-.98,4.669,4.669,0,0,1,1.859-.355,3.689,3.689,0,0,1,2.48.785,2.747,2.747,0,0,1,.918,2.207v3.664a4.041,4.041,0,0,0,.336,1.82V37ZM38.8,35.43a1.945,1.945,0,0,0,.922-.223,1.462,1.462,0,0,0,.625-.6V33.156H39.5q-1.7,0-1.8,1.172l-.008.133a.9.9,0,0,0,.3.7A1.153,1.153,0,0,0,38.8,35.43Zm9.063-.094a1.481,1.481,0,0,0,1.016-.344,1.2,1.2,0,0,0,.406-.914H51.4a2.9,2.9,0,0,1-.469,1.574,3.093,3.093,0,0,1-1.262,1.109,3.949,3.949,0,0,1-1.77.395A3.67,3.67,0,0,1,45.039,36a4.56,4.56,0,0,1-1.047-3.184v-.148a4.508,4.508,0,0,1,1.039-3.117,3.627,3.627,0,0,1,2.852-1.164,3.555,3.555,0,0,1,2.543.9,3.2,3.2,0,0,1,.973,2.4H49.281a1.539,1.539,0,0,0-.406-1.066,1.513,1.513,0,0,0-2.223.164,3.324,3.324,0,0,0-.4,1.863v.234a3.366,3.366,0,0,0,.4,1.875A1.378,1.378,0,0,0,47.859,35.336Zm7.031-5.867a2.818,2.818,0,0,1,2.258-1.078q2.75,0,2.789,3.2V37H57.68V31.648a1.57,1.57,0,0,0-.312-1.074,1.34,1.34,0,0,0-1.039-.348,1.537,1.537,0,0,0-1.437.766V37H52.633V25h2.258ZM66.539,37a2.507,2.507,0,0,1-.227-.758,2.732,2.732,0,0,1-2.133.914,3,3,0,0,1-2.059-.719,2.312,2.312,0,0,1-.816-1.812,2.389,2.389,0,0,1,1-2.062,4.915,4.915,0,0,1,2.879-.727h1.039v-.484a1.393,1.393,0,0,0-.3-.937,1.183,1.183,0,0,0-.949-.352,1.345,1.345,0,0,0-.895.273.929.929,0,0,0-.324.75H61.492a2.268,2.268,0,0,1,.453-1.359,3,3,0,0,1,1.281-.98,4.669,4.669,0,0,1,1.859-.355,3.689,3.689,0,0,1,2.48.785,2.747,2.747,0,0,1,.918,2.207v3.664a4.041,4.041,0,0,0,.336,1.82V37Zm-1.867-1.57a1.945,1.945,0,0,0,.922-.223,1.462,1.462,0,0,0,.625-.6V33.156h-.844q-1.7,0-1.8,1.172l-.008.133a.9.9,0,0,0,.3.7A1.153,1.153,0,0,0,64.672,35.43Zm5.2-2.719a5.094,5.094,0,0,1,.887-3.148,2.877,2.877,0,0,1,2.426-1.172,2.589,2.589,0,0,1,2.039.922V25h2.266V37H75.445l-.109-.9a2.657,2.657,0,0,1-2.172,1.055A2.869,2.869,0,0,1,70.77,35.98,5.258,5.258,0,0,1,69.867,32.711Zm2.258.164a3.328,3.328,0,0,0,.414,1.82,1.349,1.349,0,0,0,1.2.633,1.511,1.511,0,0,0,1.477-.883V31.109a1.489,1.489,0,0,0-1.461-.883Q72.125,30.227,72.125,32.875Zm6.758-.18a5.013,5.013,0,0,1,.484-2.242,3.546,3.546,0,0,1,1.395-1.523,4.069,4.069,0,0,1,2.113-.539,3.849,3.849,0,0,1,2.793,1.047,4.2,4.2,0,0,1,1.207,2.844l.016.578A4.418,4.418,0,0,1,85.8,35.98a4.209,4.209,0,0,1-5.832,0,4.5,4.5,0,0,1-1.09-3.187Zm2.258.164a3.151,3.151,0,0,0,.453,1.84,1.629,1.629,0,0,0,2.578.008,3.448,3.448,0,0,0,.461-2.012,3.12,3.12,0,0,0-.461-1.828,1.5,1.5,0,0,0-1.3-.648,1.475,1.475,0,0,0-1.281.645A3.506,3.506,0,0,0,81.141,32.859Z" transform="translate(393 4700.198)" fill="#12263f"/><path d="M3.359,12.992V17H1.016V5.625H5.453a5.134,5.134,0,0,1,2.254.469A3.454,3.454,0,0,1,9.2,7.426a3.714,3.714,0,0,1,.523,1.965,3.266,3.266,0,0,1-1.145,2.637,4.767,4.767,0,0,1-3.168.965Zm0-1.9H5.453a2.059,2.059,0,0,0,1.418-.437,1.591,1.591,0,0,0,.488-1.25,1.876,1.876,0,0,0-.492-1.352,1.839,1.839,0,0,0-1.359-.531H3.359Zm12.578-.43a6.134,6.134,0,0,0-.812-.062,1.654,1.654,0,0,0-1.68.867V17H11.188V8.547H13.32l.063,1.008a2.092,2.092,0,0,1,1.883-1.164,2.366,2.366,0,0,1,.7.1Zm.453,2.031a5.013,5.013,0,0,1,.484-2.242A3.546,3.546,0,0,1,18.27,8.93a4.069,4.069,0,0,1,2.113-.539,3.849,3.849,0,0,1,2.793,1.047,4.2,4.2,0,0,1,1.207,2.844l.016.578a4.418,4.418,0,0,1-1.086,3.121A3.775,3.775,0,0,1,20.4,17.156a3.793,3.793,0,0,1-2.918-1.172,4.5,4.5,0,0,1-1.09-3.187Zm2.258.164A3.151,3.151,0,0,0,19.1,14.7a1.629,1.629,0,0,0,2.578.008,3.448,3.448,0,0,0,.461-2.012,3.12,3.12,0,0,0-.461-1.828,1.5,1.5,0,0,0-1.3-.648,1.475,1.475,0,0,0-1.281.645A3.506,3.506,0,0,0,18.648,12.859Zm6.789-.148a5.094,5.094,0,0,1,.887-3.148A2.877,2.877,0,0,1,28.75,8.391a2.589,2.589,0,0,1,2.039.922V5h2.266V17H31.016l-.109-.9a2.657,2.657,0,0,1-2.172,1.055A2.869,2.869,0,0,1,26.34,15.98,5.258,5.258,0,0,1,25.438,12.711Zm2.258.164a3.328,3.328,0,0,0,.414,1.82,1.349,1.349,0,0,0,1.2.633,1.511,1.511,0,0,0,1.477-.883V11.109a1.489,1.489,0,0,0-1.461-.883Q27.7,10.227,27.7,12.875Zm12.172,3.266a2.831,2.831,0,0,1-2.312,1.016,2.67,2.67,0,0,1-2.074-.781,3.335,3.335,0,0,1-.73-2.289V8.547h2.258v5.461q0,1.32,1.2,1.32a1.631,1.631,0,0,0,1.578-.8V8.547h2.266V17H39.93Zm7.406-.8a1.481,1.481,0,0,0,1.016-.344,1.2,1.2,0,0,0,.406-.914h2.117a2.9,2.9,0,0,1-.469,1.574,3.093,3.093,0,0,1-1.262,1.109,3.949,3.949,0,0,1-1.77.395A3.67,3.67,0,0,1,44.453,16a4.56,4.56,0,0,1-1.047-3.184v-.148a4.508,4.508,0,0,1,1.039-3.117A3.627,3.627,0,0,1,47.3,8.391a3.555,3.555,0,0,1,2.543.9,3.2,3.2,0,0,1,.973,2.4H48.7a1.539,1.539,0,0,0-.406-1.066,1.513,1.513,0,0,0-2.223.164,3.324,3.324,0,0,0-.4,1.863v.234a3.366,3.366,0,0,0,.4,1.875A1.378,1.378,0,0,0,47.273,15.336ZM54.8,6.469V8.547H56.25V10.2H54.8v4.219a1.007,1.007,0,0,0,.18.672.9.9,0,0,0,.688.2,3.6,3.6,0,0,0,.664-.055v1.711a4.648,4.648,0,0,1-1.367.2,2.156,2.156,0,0,1-2.422-2.4V10.2H51.313V8.547h1.234V6.469ZM56.922,12.7a5.013,5.013,0,0,1,.484-2.242A3.546,3.546,0,0,1,58.8,8.93a4.069,4.069,0,0,1,2.113-.539,3.849,3.849,0,0,1,2.793,1.047,4.2,4.2,0,0,1,1.207,2.844l.016.578a4.418,4.418,0,0,1-1.086,3.121,4.209,4.209,0,0,1-5.832,0,4.5,4.5,0,0,1-1.09-3.187Zm2.258.164a3.151,3.151,0,0,0,.453,1.84,1.629,1.629,0,0,0,2.578.008,3.448,3.448,0,0,0,.461-2.012,3.12,3.12,0,0,0-.461-1.828,1.5,1.5,0,0,0-1.3-.648,1.475,1.475,0,0,0-1.281.645A3.506,3.506,0,0,0,59.18,12.859Zm13.2-4.312.07.977a2.951,2.951,0,0,1,2.43-1.133,2.453,2.453,0,0,1,2,.789,3.682,3.682,0,0,1,.672,2.359V17H75.3V11.594a1.465,1.465,0,0,0-.312-1.043,1.4,1.4,0,0,0-1.039-.324,1.553,1.553,0,0,0-1.43.813V17H70.258V8.547ZM78.914,12.7a5.013,5.013,0,0,1,.484-2.242A3.546,3.546,0,0,1,80.793,8.93a4.069,4.069,0,0,1,2.113-.539A3.849,3.849,0,0,1,85.7,9.438a4.2,4.2,0,0,1,1.207,2.844l.016.578a4.418,4.418,0,0,1-1.086,3.121,4.209,4.209,0,0,1-5.832,0,4.5,4.5,0,0,1-1.09-3.187Zm2.258.164a3.151,3.151,0,0,0,.453,1.84,1.629,1.629,0,0,0,2.578.008,3.448,3.448,0,0,0,.461-2.012,3.12,3.12,0,0,0-.461-1.828,1.5,1.5,0,0,0-1.3-.648,1.475,1.475,0,0,0-1.281.645A3.506,3.506,0,0,0,81.172,12.859ZM4.758,37.156A4.15,4.15,0,0,1,1.73,36.016,4.054,4.054,0,0,1,.563,32.977v-.219a5.106,5.106,0,0,1,.492-2.277,3.612,3.612,0,0,1,1.395-1.547,3.914,3.914,0,0,1,2.059-.543,3.508,3.508,0,0,1,2.73,1.094,4.444,4.444,0,0,1,1,3.1v.922H2.852a2.1,2.1,0,0,0,.66,1.328,2,2,0,0,0,1.395.5,2.437,2.437,0,0,0,2.039-.945l1.109,1.242A3.389,3.389,0,0,1,6.68,36.754,4.511,4.511,0,0,1,4.758,37.156ZM4.5,30.219a1.414,1.414,0,0,0-1.09.453,2.341,2.341,0,0,0-.535,1.3H6.016v-.18a1.669,1.669,0,0,0-.406-1.16A1.459,1.459,0,0,0,4.5,30.219Zm7.094-1.672.07.977a2.951,2.951,0,0,1,2.43-1.133,2.453,2.453,0,0,1,2,.789,3.682,3.682,0,0,1,.672,2.359V37H14.508V31.594a1.465,1.465,0,0,0-.312-1.043,1.4,1.4,0,0,0-1.039-.324,1.553,1.553,0,0,0-1.43.813V37H9.469V28.547Zm9.586-2.078v2.078h1.445V30.2H21.18v4.219a1.007,1.007,0,0,0,.18.672.9.9,0,0,0,.688.2,3.6,3.6,0,0,0,.664-.055v1.711a4.648,4.648,0,0,1-1.367.2,2.156,2.156,0,0,1-2.422-2.4V30.2H17.688V28.547h1.234V26.469Zm7.453,4.2a6.134,6.134,0,0,0-.812-.062,1.654,1.654,0,0,0-1.68.867V37H23.883V28.547h2.133l.063,1.008a2.092,2.092,0,0,1,1.883-1.164,2.366,2.366,0,0,1,.7.1Zm4.977,6.492a4.15,4.15,0,0,1-3.027-1.141,4.054,4.054,0,0,1-1.168-3.039v-.219a5.106,5.106,0,0,1,.492-2.277A3.612,3.612,0,0,1,31.3,28.934a3.914,3.914,0,0,1,2.059-.543,3.508,3.508,0,0,1,2.73,1.094,4.444,4.444,0,0,1,1,3.1v.922H31.7a2.1,2.1,0,0,0,.66,1.328,2,2,0,0,0,1.395.5,2.437,2.437,0,0,0,2.039-.945l1.109,1.242a3.389,3.389,0,0,1-1.375,1.121A4.511,4.511,0,0,1,33.609,37.156Zm-.258-6.937a1.414,1.414,0,0,0-1.09.453,2.341,2.341,0,0,0-.535,1.3h3.141v-.18a1.669,1.669,0,0,0-.406-1.16A1.459,1.459,0,0,0,33.352,30.219Zm4.688,2.492a4.954,4.954,0,0,1,.926-3.133,3,3,0,0,1,2.5-1.187,2.631,2.631,0,0,1,2.164.953l.094-.8h2.047v8.172a3.613,3.613,0,0,1-.5,1.93,3.236,3.236,0,0,1-1.418,1.25,4.985,4.985,0,0,1-2.141.43,4.635,4.635,0,0,1-1.812-.371A3.217,3.217,0,0,1,38.555,39l1-1.375a2.645,2.645,0,0,0,2.047.945,1.936,1.936,0,0,0,1.4-.48,1.8,1.8,0,0,0,.5-1.363v-.453a2.612,2.612,0,0,1-2.055.883,2.992,2.992,0,0,1-2.465-1.191,4.953,4.953,0,0,1-.941-3.16Zm2.258.164a3.076,3.076,0,0,0,.461,1.8,1.467,1.467,0,0,0,1.266.652,1.568,1.568,0,0,0,1.477-.773V31a1.565,1.565,0,0,0-1.461-.773,1.476,1.476,0,0,0-1.277.664A3.467,3.467,0,0,0,40.3,32.875ZM52.4,37a2.507,2.507,0,0,1-.227-.758,2.732,2.732,0,0,1-2.133.914,3,3,0,0,1-2.059-.719,2.312,2.312,0,0,1-.816-1.812,2.389,2.389,0,0,1,1-2.062,4.915,4.915,0,0,1,2.879-.727h1.039v-.484a1.393,1.393,0,0,0-.3-.937,1.183,1.183,0,0,0-.949-.352,1.345,1.345,0,0,0-.895.273.929.929,0,0,0-.324.75H47.352a2.268,2.268,0,0,1,.453-1.359,3,3,0,0,1,1.281-.98,4.669,4.669,0,0,1,1.859-.355,3.689,3.689,0,0,1,2.48.785,2.747,2.747,0,0,1,.918,2.207v3.664a4.041,4.041,0,0,0,.336,1.82V37Zm-1.867-1.57a1.945,1.945,0,0,0,.922-.223,1.462,1.462,0,0,0,.625-.6V33.156h-.844q-1.7,0-1.8,1.172l-.008.133a.9.9,0,0,0,.3.7A1.153,1.153,0,0,0,50.531,35.43Zm5.2-2.719a5.094,5.094,0,0,1,.887-3.148,2.877,2.877,0,0,1,2.426-1.172,2.589,2.589,0,0,1,2.039.922V25h2.266V37H61.3l-.109-.9a2.657,2.657,0,0,1-2.172,1.055,2.869,2.869,0,0,1-2.395-1.176A5.258,5.258,0,0,1,55.727,32.711Zm2.258.164A3.328,3.328,0,0,0,58.4,34.7a1.349,1.349,0,0,0,1.2.633,1.511,1.511,0,0,0,1.477-.883V31.109a1.489,1.489,0,0,0-1.461-.883Q57.984,30.227,57.984,32.875Zm6.758-.18a5.013,5.013,0,0,1,.484-2.242,3.546,3.546,0,0,1,1.395-1.523,4.069,4.069,0,0,1,2.113-.539,3.849,3.849,0,0,1,2.793,1.047,4.2,4.2,0,0,1,1.207,2.844l.016.578a4.418,4.418,0,0,1-1.086,3.121,4.209,4.209,0,0,1-5.832,0,4.5,4.5,0,0,1-1.09-3.187ZM67,32.859a3.151,3.151,0,0,0,.453,1.84,1.629,1.629,0,0,0,2.578.008,3.448,3.448,0,0,0,.461-2.012,3.12,3.12,0,0,0-.461-1.828,1.5,1.5,0,0,0-1.3-.648,1.475,1.475,0,0,0-1.281.645A3.506,3.506,0,0,0,67,32.859Z" transform="translate(393 4793.289)" fill="#12263f"/><rect width="248" height="38" rx="19" transform="translate(248.992 4546.306)" fill="#21c9b8"/><path d="M11.8,12.865a7.546,7.546,0,0,1-.694,3.313A5.132,5.132,0,0,1,9.136,18.4a5.494,5.494,0,0,1-2.914.778,5.572,5.572,0,0,1-2.9-.751,5.123,5.123,0,0,1-1.973-2.149,7.329,7.329,0,0,1-.743-3.208v-.721A7.58,7.58,0,0,1,1.3,9.029,5.119,5.119,0,0,1,3.274,6.81a5.533,5.533,0,0,1,2.931-.782,5.479,5.479,0,0,1,2.9.773A5.211,5.211,0,0,1,11.087,9a7.362,7.362,0,0,1,.716,3.274Zm-3.138-.536a5.381,5.381,0,0,0-.637-2.9,2.044,2.044,0,0,0-1.824-.989q-2.32,0-2.452,3.48l-.009.94a5.535,5.535,0,0,0,.624,2.892,2.041,2.041,0,0,0,1.854,1.011,2.016,2.016,0,0,0,1.8-.993,5.383,5.383,0,0,0,.642-2.856Zm-2.1-9.554H9.694L7.251,5.535H4.834Zm15.521,11.54a5.735,5.735,0,0,1-1,3.538A3.2,3.2,0,0,1,18.4,19.176a2.742,2.742,0,0,1-2.153-.958v4.438H13.28V9.49h2.769l.088.879a2.742,2.742,0,0,1,2.241-1.055,3.224,3.224,0,0,1,2.733,1.3,5.805,5.805,0,0,1,.976,3.564Zm-2.962-.185q0-2.531-1.477-2.531a1.394,1.394,0,0,0-1.406.756V16.1a1.439,1.439,0,0,0,1.424.791q1.415,0,1.459-2.443Zm7.717-7V9.49h1.564v2.057H26.842V15.9a1.111,1.111,0,0,0,.193.747,1.037,1.037,0,0,0,.765.211,4.345,4.345,0,0,0,.738-.053v2.118a5.466,5.466,0,0,1-1.67.255,3.1,3.1,0,0,1-2.259-.721,2.954,2.954,0,0,1-.729-2.188v-4.72H22.667V9.49H23.88V7.126ZM32.7,19H29.725V9.49H32.7ZM29.549,7.038A1.322,1.322,0,0,1,30.006,6a1.943,1.943,0,0,1,2.373,0,1.322,1.322,0,0,1,.457,1.037,1.322,1.322,0,0,1-.457,1.037,1.943,1.943,0,0,1-2.373,0A1.322,1.322,0,0,1,29.549,7.038Zm7.77,2.452.1,1.116a3.27,3.27,0,0,1,2.716-1.292,2.407,2.407,0,0,1,2.435,1.433A3.165,3.165,0,0,1,45.36,9.314q2.892,0,2.971,3.5V19H45.36V13a1.813,1.813,0,0,0-.246-1.063,1.048,1.048,0,0,0-.9-.334,1.4,1.4,0,0,0-1.31.782l.009.123V19H39.946V13.015a1.906,1.906,0,0,0-.237-1.081A1.045,1.045,0,0,0,38.8,11.6a1.42,1.42,0,0,0-1.3.782V19H34.541V9.49ZM55.38,19a3.344,3.344,0,0,1-.281-.853,2.754,2.754,0,0,1-2.285,1.028,3.374,3.374,0,0,1-2.285-.813,2.588,2.588,0,0,1-.94-2.043,2.66,2.66,0,0,1,1.143-2.338,5.821,5.821,0,0,1,3.322-.791h.914v-.5q0-1.31-1.134-1.31a.925.925,0,0,0-1.055,1.037H49.816a2.659,2.659,0,0,1,1.173-2.241,4.927,4.927,0,0,1,2.993-.861,4.323,4.323,0,0,1,2.874.888,3.086,3.086,0,0,1,1.081,2.435v4.21a4.311,4.311,0,0,0,.4,2V19Zm-1.854-1.934a1.652,1.652,0,0,0,.918-.237,1.487,1.487,0,0,0,.523-.536V14.772h-.861q-1.547,0-1.547,1.389a.848.848,0,0,0,.272.655A.986.986,0,0,0,53.525,17.066ZM69.416,19a3.344,3.344,0,0,1-.281-.853,2.754,2.754,0,0,1-2.285,1.028,3.374,3.374,0,0,1-2.285-.813,2.588,2.588,0,0,1-.94-2.043,2.66,2.66,0,0,1,1.143-2.338,5.821,5.821,0,0,1,3.322-.791H69v-.5q0-1.31-1.134-1.31a.925.925,0,0,0-1.055,1.037H63.853a2.659,2.659,0,0,1,1.173-2.241,4.927,4.927,0,0,1,2.993-.861,4.323,4.323,0,0,1,2.874.888,3.086,3.086,0,0,1,1.081,2.435v4.21a4.311,4.311,0,0,0,.4,2V19Zm-1.854-1.934a1.652,1.652,0,0,0,.918-.237A1.487,1.487,0,0,0,69,16.293V14.772h-.861q-1.547,0-1.547,1.389a.848.848,0,0,0,.272.655A.986.986,0,0,0,67.562,17.066Zm9.5-9.94V9.49h1.564v2.057H77.063V15.9a1.111,1.111,0,0,0,.193.747,1.037,1.037,0,0,0,.765.211,4.345,4.345,0,0,0,.738-.053v2.118a5.466,5.466,0,0,1-1.67.255,3.1,3.1,0,0,1-2.259-.721,2.954,2.954,0,0,1-.729-2.188v-4.72H72.888V9.49H74.1V7.126Zm7.33,12.05a4.889,4.889,0,0,1-3.542-1.305,4.507,4.507,0,0,1-1.354-3.4v-.246a5.84,5.84,0,0,1,.541-2.575,3.955,3.955,0,0,1,1.578-1.727,4.763,4.763,0,0,1,2.461-.611,4.117,4.117,0,0,1,3.164,1.244,4.887,4.887,0,0,1,1.16,3.467v1.151H82.512a2.135,2.135,0,0,0,.694,1.257,2.066,2.066,0,0,0,1.389.457,2.662,2.662,0,0,0,2.2-.984l1.354,1.6a3.784,3.784,0,0,1-1.569,1.217A5.3,5.3,0,0,1,84.393,19.176ZM84.059,11.6q-1.3,0-1.547,1.723H85.5v-.229a1.467,1.467,0,0,0-.36-1.1A1.434,1.434,0,0,0,84.059,11.6ZM92.312,9.49l.1,1.116a3.225,3.225,0,0,1,2.716-1.292,2.713,2.713,0,0,1,2.219.888,4.226,4.226,0,0,1,.76,2.672V19H95.133V13a1.6,1.6,0,0,0-.29-1.059,1.342,1.342,0,0,0-1.055-.338,1.413,1.413,0,0,0-1.292.686V19H89.534V9.49Zm11.452,7.4a1.317,1.317,0,0,0,.967-.338,1.241,1.241,0,0,0,.334-.945h2.777a3.288,3.288,0,0,1-1.121,2.566,4.168,4.168,0,0,1-2.887,1,4.22,4.22,0,0,1-3.27-1.3,5.125,5.125,0,0,1-1.2-3.6v-.123A5.792,5.792,0,0,1,99.9,11.6a3.872,3.872,0,0,1,1.534-1.7,4.573,4.573,0,0,1,2.373-.593,4.116,4.116,0,0,1,2.944,1.028,3.647,3.647,0,0,1,1.09,2.786h-2.777A1.626,1.626,0,0,0,104.7,12a1.244,1.244,0,0,0-.967-.4q-1.151,0-1.345,1.468a10.357,10.357,0,0,0-.062,1.283,4.068,4.068,0,0,0,.343,1.986A1.187,1.187,0,0,0,103.764,16.891ZM112.219,19h-2.971V9.49h2.971ZM109.072,7.038A1.322,1.322,0,0,1,109.529,6,1.943,1.943,0,0,1,111.9,6a1.322,1.322,0,0,1,.457,1.037,1.322,1.322,0,0,1-.457,1.037,1.943,1.943,0,0,1-2.373,0A1.322,1.322,0,0,1,109.072,7.038Zm4.6,7.119a5.613,5.613,0,0,1,.554-2.536,3.96,3.96,0,0,1,1.591-1.709,4.791,4.791,0,0,1,2.435-.6,4.373,4.373,0,0,1,3.366,1.323,5.076,5.076,0,0,1,1.23,3.6v.105a4.925,4.925,0,0,1-1.235,3.529,4.384,4.384,0,0,1-3.344,1.305A4.434,4.434,0,0,1,115,17.958a4.761,4.761,0,0,1-1.327-3.3Zm2.962.185a3.538,3.538,0,0,0,.413,1.934,1.376,1.376,0,0,0,1.222.615q1.582,0,1.617-2.435v-.3q0-2.558-1.635-2.558-1.485,0-1.608,2.206ZM118.652,5.5h3.129l-2.443,2.76h-2.417Zm8.218,3.99.1,1.116a3.225,3.225,0,0,1,2.716-1.292,2.713,2.713,0,0,1,2.219.888,4.226,4.226,0,0,1,.76,2.672V19h-2.971V13a1.6,1.6,0,0,0-.29-1.059,1.342,1.342,0,0,0-1.055-.338,1.413,1.413,0,0,0-1.292.686V19h-2.962V9.49ZM144.141,19a3.344,3.344,0,0,1-.281-.853,2.754,2.754,0,0,1-2.285,1.028,3.374,3.374,0,0,1-2.285-.813,2.588,2.588,0,0,1-.94-2.043,2.66,2.66,0,0,1,1.143-2.338,5.821,5.821,0,0,1,3.322-.791h.914v-.5q0-1.31-1.134-1.31a.925.925,0,0,0-1.055,1.037h-2.962a2.659,2.659,0,0,1,1.173-2.241,4.927,4.927,0,0,1,2.993-.861,4.323,4.323,0,0,1,2.874.888,3.086,3.086,0,0,1,1.081,2.435v4.21a4.311,4.311,0,0,0,.4,2V19Zm-1.854-1.934a1.652,1.652,0,0,0,.918-.237,1.487,1.487,0,0,0,.523-.536V14.772h-.861q-1.547,0-1.547,1.389a.848.848,0,0,0,.272.655A.986.986,0,0,0,142.286,17.066ZM151.462,19h-2.971V5.5h2.971Zm10.327-2.109a1.317,1.317,0,0,0,.967-.338,1.241,1.241,0,0,0,.334-.945h2.777a3.288,3.288,0,0,1-1.121,2.566,4.168,4.168,0,0,1-2.887,1,4.22,4.22,0,0,1-3.27-1.3,5.125,5.125,0,0,1-1.2-3.6v-.123a5.792,5.792,0,0,1,.532-2.544,3.872,3.872,0,0,1,1.534-1.7,4.573,4.573,0,0,1,2.373-.593,4.116,4.116,0,0,1,2.944,1.028,3.647,3.647,0,0,1,1.09,2.786H163.09a1.626,1.626,0,0,0-.36-1.134,1.244,1.244,0,0,0-.967-.4q-1.151,0-1.345,1.468a10.357,10.357,0,0,0-.062,1.283,4.068,4.068,0,0,0,.343,1.986A1.187,1.187,0,0,0,161.789,16.891ZM170.244,19h-2.971V5.5h2.971Zm4.948,0h-2.971V9.49h2.971ZM172.046,7.038A1.322,1.322,0,0,1,172.5,6a1.943,1.943,0,0,1,2.373,0,1.322,1.322,0,0,1,.457,1.037,1.322,1.322,0,0,1-.457,1.037,1.943,1.943,0,0,1-2.373,0A1.322,1.322,0,0,1,172.046,7.038Zm9.571,12.138a4.889,4.889,0,0,1-3.542-1.305,4.507,4.507,0,0,1-1.354-3.4v-.246a5.84,5.84,0,0,1,.541-2.575,3.955,3.955,0,0,1,1.578-1.727,4.763,4.763,0,0,1,2.461-.611,4.117,4.117,0,0,1,3.164,1.244,4.887,4.887,0,0,1,1.16,3.467v1.151h-5.889a2.135,2.135,0,0,0,.694,1.257,2.066,2.066,0,0,0,1.389.457,2.662,2.662,0,0,0,2.2-.984l1.354,1.6a3.784,3.784,0,0,1-1.569,1.217A5.3,5.3,0,0,1,181.617,19.176Zm-.334-7.576q-1.3,0-1.547,1.723h2.988v-.229a1.467,1.467,0,0,0-.36-1.1A1.434,1.434,0,0,0,181.283,11.6Zm8.253-2.109.1,1.116a3.225,3.225,0,0,1,2.716-1.292,2.713,2.713,0,0,1,2.219.888,4.226,4.226,0,0,1,.76,2.672V19h-2.971V13a1.6,1.6,0,0,0-.29-1.059,1.342,1.342,0,0,0-1.055-.338,1.413,1.413,0,0,0-1.292.686V19h-2.962V9.49Zm10.881-2.364V9.49h1.564v2.057h-1.564V15.9a1.111,1.111,0,0,0,.193.747,1.037,1.037,0,0,0,.765.211,4.345,4.345,0,0,0,.738-.053v2.118a5.466,5.466,0,0,1-1.67.255,3.1,3.1,0,0,1-2.259-.721,2.954,2.954,0,0,1-.729-2.188v-4.72h-1.213V9.49h1.213V7.126Zm7.33,12.05a4.889,4.889,0,0,1-3.542-1.305,4.507,4.507,0,0,1-1.354-3.4v-.246a5.84,5.84,0,0,1,.541-2.575,3.955,3.955,0,0,1,1.578-1.727,4.763,4.763,0,0,1,2.461-.611,4.117,4.117,0,0,1,3.164,1.244,4.887,4.887,0,0,1,1.16,3.467v1.151h-5.889a2.135,2.135,0,0,0,.694,1.257,2.066,2.066,0,0,0,1.389.457,2.662,2.662,0,0,0,2.2-.984l1.354,1.6a3.784,3.784,0,0,1-1.569,1.217A5.3,5.3,0,0,1,207.747,19.176Zm-.334-7.576q-1.3,0-1.547,1.723h2.988v-.229a1.467,1.467,0,0,0-.36-1.1A1.434,1.434,0,0,0,207.413,11.6Z" transform="translate(266.983 4554.306)" fill="#12263f"/><g transform="translate(290.927 4682.783)"><ellipse cx="41.037" cy="41.037" rx="41.037" ry="41.037" transform="translate(0 0)" fill="#bcefea" opacity="0.15"/><g transform="translate(13.658 13.744)"><path d="M12.39,54.923l-1.932-1.8H4.087v8.42l3.208,1.8,2.121,1.8,14.072,7.755,12.949-3.307-.413-1.474a2.049,2.049,0,0,0-2.489-1.375l-9.426,2.408-8.986-4.592a1.716,1.716,0,0,1-.692-2.444,1.9,1.9,0,0,1,2.525-.647l6,3.343a2.2,2.2,0,0,0,3.271-2.372,2.624,2.624,0,0,0-1.294-1.608l-7.189-3.981-2.588-1.429Z" transform="translate(-3.188 -19.873)" fill="#f2e6c7"/><path d="M36.436,69.588,23.487,72.895,9.415,65.14l-2.121-1.8-3.208-1.8v-8.42h.9V58.85l3.208,1.8,2.121,1.8L24.386,70.2l11.2-2.858a1.8,1.8,0,0,1,.44.773Z" transform="translate(-3.188 -19.873)" fill="#efd59a"/><path d="M42.549,13.073l5.392,5.392-3.594,3.594-5.392-5.392-5.392,5.392-3.594-3.594,5.392-5.392L29.968,7.681l3.594-3.594,5.392,5.392,5.392-5.392L47.94,7.681Z" transform="translate(-11.997 -3.183)" fill="#ea4450"/><path d="M47.94,18.464l-3.594,3.594-5.392-5.392-5.392,5.392-3.594-3.594,5.392-5.392L29.968,7.681l3.594-3.594.539.539a16.175,16.175,0,0,0,11.5,11.5Z" transform="translate(-11.997 -3.183)" fill="#ce293d"/><path d="M68.823,56.548,50.4,53.17l3.145-16.39,18.421,3.379Z" transform="translate(-18.951 -14.309)" fill="#f9d53d"/><path d="M69.7,51.957l-.881,4.592L50.4,53.17l3.145-16.39,5.392.988-1.582,8.249a3.594,3.594,0,0,0,2.929,4.241Z" transform="translate(-18.951 -14.309)" fill="#f7b43e"/><path d="M67.347,39.1l-2.516-.458-.944,4.915,2.831-1.177,2.193,2.1.953-4.924Z" transform="translate(-23.54 -14.945)" fill="#fbb03b"/><path d="M61.459,56.818l-5.023-.926.629-3.271,5.023.917Z" transform="translate(-21.004 -19.701)" fill="#f2e6c7"/><path d="M61.71,55.466l-.279,1.366-5.023-.9.629-3.271,2.444.449A3.594,3.594,0,0,0,61.71,55.466Z" transform="translate(-20.995 -19.715)" fill="#efd59a"/><path d="M36.422,67.394a2.938,2.938,0,0,0-3.594-2l-9.076,2.327-8.68-4.43a.9.9,0,0,1-.431-.521.8.8,0,0,1,.1-.638A1.033,1.033,0,0,1,16.06,61.8l5.967,3.289a3.2,3.2,0,0,0,3.531-.288,2.929,2.929,0,0,0,1.024-3.172,3.523,3.523,0,0,0-1.725-2.166l-9.813-5.392a.9.9,0,0,0-.279-.1l-2.426-.431-1.734-1.591a.9.9,0,0,0-.611-.234H3.623a.9.9,0,0,0-.9.9v8.42a.9.9,0,0,0,.467.791l3.127,1.752,2.049,1.8.153.108,1.8.961a.909.909,0,1,0,.9-1.582l-1.671-.9L7.5,62.173l-.153-.108L4.522,60.538V53.547H9.644l1.671,1.537a1,1,0,0,0,.458.225l2.543.431,9.678,5.338a1.8,1.8,0,0,1,.9,1.1,1.141,1.141,0,0,1-.449,1.258,1.393,1.393,0,0,1-1.555.117l-5.958-3.28a2.7,2.7,0,0,0-1.357-.35,2.777,2.777,0,0,0-2.381,1.321,2.606,2.606,0,0,0-.288,2.031,2.7,2.7,0,0,0,1.33,1.644l8.986,4.592a.9.9,0,0,0,.629.072l9.426-2.444a1.168,1.168,0,0,1,1.4.746l.162.584L23.158,71.456l-8.869-4.888a.909.909,0,1,0-.9,1.582l9.175,5.059a.9.9,0,0,0,.431.108.961.961,0,0,0,.225,0L36.17,70.009a.89.89,0,0,0,.638-1.114Z" transform="translate(-2.724 -19.395)"/><path d="M28.864,18.636l3.594,3.594a.9.9,0,0,0,1.276,0l4.754-4.763,4.754,4.763a.9.9,0,0,0,1.276,0l3.594-3.594a.9.9,0,0,0,0-1.276l-4.763-4.754,4.763-4.754a.9.9,0,0,0,0-1.276L44.518,2.982a.9.9,0,0,0-1.276,0L38.488,7.745,33.735,2.982a.9.9,0,0,0-1.276,0L28.864,6.577a.9.9,0,0,0,0,1.276l4.763,4.754L28.864,17.36a.9.9,0,0,0,0,1.276Zm6.668-5.392a.9.9,0,0,0,0-1.276L30.769,7.215,33.1,4.887,37.85,9.65a.9.9,0,0,0,1.276,0L43.88,4.887l2.327,2.327-4.763,4.754a.9.9,0,0,0,0,1.276L46.207,18,43.88,20.325l-4.754-4.763a.9.9,0,0,0-1.276,0L33.1,20.325,30.769,18Z" transform="translate(-11.53 -2.717)"/><path d="M72.241,39.184a.9.9,0,0,0-.584-.377l-7.809-1.438-1.4-.252-2.516-.458L53.236,35.41a.9.9,0,0,0-1.042.71L49.03,52.528a.888.888,0,0,0,.719,1.051l18.439,3.4h.162a.9.9,0,0,0,.9-.728L72.394,39.9A.9.9,0,0,0,72.241,39.184Zm-11.754-.6,3.253.6-.458,2.408-1.006-.961a.9.9,0,0,0-.62-.252.755.755,0,0,0-.341.072l-1.285.53Zm7.189,16.453-16.7-3.064,2.8-14.62,4.933.9-.773,4.026A.893.893,0,0,0,59.158,43.3l2.282-.953,1.8,1.7a.873.873,0,0,0,1.51-.44l.773-4.035,4.933.9Z" transform="translate(-18.478 -13.838)"/><path d="M61.786,52.205l-5.023-.9a.9.9,0,0,0-1.042.719L55.092,55.3a.891.891,0,0,0,.719,1.06l5.023.9H61a.9.9,0,0,0,.9-.728l.629-3.28A.9.9,0,0,0,61.8,52.2Zm-1.51,3.118-3.253-.6.288-1.51,3.262.593Z" transform="translate(-20.541 -19.249)"/><path d="M69.776,53.6a.913.913,0,1,0-.323,1.8l3.352.584a.521.521,0,0,0,.162,0,.9.9,0,1,0,.162-1.8Z" transform="translate(-25.179 -20.028)"/><path d="M72.165,59.187l-3.343-.62a.913.913,0,1,0-.323,1.8l3.343.611h.171a.9.9,0,0,0,.153-1.788Z" transform="translate(-24.854 -21.72)"/><path d="M41.215,41.765a.9.9,0,0,0-.9-.9,8.986,8.986,0,0,0-8.986,8.986.9.9,0,0,0,1.8,0,7.189,7.189,0,0,1,7.189-7.189A.9.9,0,0,0,41.215,41.765Z" transform="translate(-12.46 -15.7)"/><path d="M39.04,53.967a.9.9,0,0,0,.9-.9,3.594,3.594,0,0,1,3.594-3.594.9.9,0,1,0,0-1.8,5.392,5.392,0,0,0-5.392,5.392A.9.9,0,0,0,39.04,53.967Z" transform="translate(-14.778 -18.018)"/></g></g><g transform="translate(289 4771.752)"><ellipse cx="41.037" cy="41.037" rx="41.037" ry="41.037" transform="translate(0 0)" fill="#bcefea" opacity="0.15"/><g transform="translate(19.173 13.743)"><path d="M25.226,10.878H54.768V43.706H25.226Z" transform="translate(-11.322 -3.702)" fill="#edba94"/><path d="M34.388,12.519a10.352,10.352,0,0,0-.13-1.641H25.226v11.9A10.336,10.336,0,0,0,34.388,12.519Z" transform="translate(-11.322 -3.702)" fill="#e5a87f"/><path d="M5.35,53.178h6.566V71.233H5.35Z" transform="translate(-4.557 -18.099)" fill="#9dc6fb"/><path d="M5.35,53.178H7.463V71.233H5.35Z" transform="translate(-4.557 -18.099)" fill="#80b4fb"/><path d="M25.226,10.878H27.34V43.706H25.226Z" transform="translate(-11.322 -3.702)" fill="#e5a87f"/><path d="M15.3,55.666h3.3V72.08H15.3Z" transform="translate(-7.944 -18.945)" fill="#f1f6f7"/><path d="M49.208,19.641l-3.286-1.507-3.286,1.507V10.878h6.572Z" transform="translate(-17.247 -3.702)" fill="#fd6930"/><path d="M38.99,37.739l-4.19-4.19-4.19,4.19h2.549v7.117h3.283V37.739Z" transform="translate(-13.154 -11.418)" fill="#f1f6f7"/><path d="M55.114,45.658H61.68v3.355H55.114Z" transform="translate(-21.494 -15.539)" fill="#e5a87f"/><path d="M20.279,57.728s3.148-3.2,9.508-3.2a9.848,9.848,0,0,1,3.55.662l2.518.973H40.84a2.11,2.11,0,0,1,2.11,2.11,4.045,4.045,0,0,1-.092.618h0l4.005-2.312,7.309-4.221a2.11,2.11,0,0,1,2.882.774,2.184,2.184,0,0,1-.771,2.882L42.923,66.461a5.253,5.253,0,0,1-3.238,1.116H20.279V57.728Z" transform="translate(-9.638 -17.725)" fill="#ffcebf"/><path d="M30.678,55.837q-.443-.04-.89-.04c-6.36,0-9.508,3.2-9.508,3.2v9.848h2.114V58.993S25.137,56.207,30.678,55.837Z" transform="translate(-9.638 -18.99)" fill="#ffb09e"/><path d="M9.978,61.026a.793.793,0,1,1,.793-.793A.793.793,0,0,1,9.978,61.026Z" transform="translate(-5.862 -20.23)"/><ellipse cx="8.207" cy="8.207" rx="8.207" ry="8.207" transform="translate(4.539 0.61)" fill="#ade194"/><path d="M13.142,9.132A8.208,8.208,0,0,1,20.292.992a8.207,8.207,0,1,0-1.057,16.347,8.284,8.284,0,0,0,1.057-.067A8.209,8.209,0,0,1,13.142,9.132Z" transform="translate(-6.49 -0.315)" fill="#7dce6f"/><g transform="translate(0 0)"><path d="M32.76,45.24h3.283a.793.793,0,0,0,.793-.793V38.123h1.756c.776,0,1.253-.7.561-1.353l-4.19-4.19a.793.793,0,0,0-1.121,0l-4.19,4.19c-.416.7-.215,1.2.561,1.353h1.756v6.324A.792.792,0,0,0,32.76,45.24ZM34.4,34.261l2.277,2.277h-.635a.793.793,0,0,0-.793.793v6.324h-1.7V37.33a.793.793,0,0,0-.793-.793h-.636Z" transform="translate(-12.755 -11.009)"/><path d="M61.271,44.457H54.705a.793.793,0,0,0-.793.793V48.6a.793.793,0,0,0,.793.793h6.566a.793.793,0,0,0,.793-.793V45.249A.793.793,0,0,0,61.271,44.457Zm-.793,3.355H55.5v-1.77h4.98Z" transform="translate(-21.085 -15.13)"/><path d="M61.271,39.535H54.705a.793.793,0,1,0,0,1.585h6.566a.793.793,0,1,0,0-1.585Z" transform="translate(-21.085 -13.455)"/><path d="M52.252,35.015A2.96,2.96,0,0,0,48.387,33.9V21.574a.793.793,0,0,0-1.585,0V34.809l-7.623,4.4H37.921A2.9,2.9,0,0,0,35.35,37.65H30.513A16.231,16.231,0,0,0,24.3,36.014a17.364,17.364,0,0,0-5.452.838V17.6a9.106,9.106,0,0,0,7.006-9.632h2.893v7.97a.793.793,0,0,0,1.123.72L32.823,15.3l2.956,1.356a.809.809,0,0,0,1.123-.72V7.969h9.9V18.12a.793.793,0,0,0,1.585,0V7.176a.793.793,0,0,0-.793-.793H25.555A9.171,9.171,0,0,0,18.787.018a.793.793,0,1,0-.332,1.55,7.414,7.414,0,1,1-3.123,0A.793.793,0,1,0,15,.018a9.137,9.137,0,0,0-7.107,8.8,9.135,9.135,0,0,0,9.366,8.99V37.473a13.329,13.329,0,0,0-1.664.911V36.721a.793.793,0,0,0-.793-.793H12.3v-.849a.793.793,0,0,0-.793-.793H4.941a.793.793,0,0,0-.793.793V53.135a.793.793,0,0,0,.793.793H14.8a.793.793,0,0,0,.793-.793v-2.49h8.47a.793.793,0,1,0,0-1.585H15.6V40.347A13.678,13.678,0,0,1,24.3,37.6c2.164,0,5.847,1.612,6.067,1.636H35.35c1.486,0,1.943,2.635.014,2.635H25.794a.793.793,0,1,0,0,1.585h9.571a2.884,2.884,0,0,0,2.663-1.749l11.052-6.382A1.319,1.319,0,0,1,50.4,37.607c-.032.018-13.453,10.5-13.453,10.5a4.48,4.48,0,0,1-2.75.948H27.521a.793.793,0,1,0,0,1.585H34.2a6.072,6.072,0,0,0,3.726-1.284L51.242,38.949a2.979,2.979,0,0,0,1.009-3.934ZM35.317,14.7l-2.163-.992a.792.792,0,0,0-.661,0L30.33,14.7V7.969h4.987ZM5.733,35.872h4.98v16.47H5.733ZM12.3,52.342V37.513h1.712V52.342H12.3Z" transform="translate(-4.148 0)"/><path d="M17.514,11.36a.793.793,0,0,0-1.207,1.028l2.466,2.9a.793.793,0,0,0,.6.279h.014a.793.793,0,0,0,.607-.3L24.871,9.13a.793.793,0,0,0-1.241-.986l-4.274,5.378Z" transform="translate(-8.222 -2.67)"/></g></g></g><g transform="translate(289 4597.752)"><ellipse cx="41.037" cy="41.037" rx="41.037" ry="41.037" transform="translate(0 0)" fill="#bcefea" opacity="0.15"/><g transform="translate(16.058 13.744)"><g transform="translate(1.053 1.047)"><g transform="translate(20.227)"><path d="M52.951,36.84,32.26,16.149l3.2-3.2a2.114,2.114,0,0,1,2.99,0l17.7,17.7a2.114,2.114,0,0,1,0,2.99Z" transform="translate(-32.26 -5.247)" fill="#d1aee5"/><path d="M68.912,11.566a5.846,5.846,0,1,0-9.838-5.421,13.932,13.932,0,0,1-3.693,6.833l-3.243,3.243,3.851,3.851,3.192-3.192a13.5,13.5,0,0,1,6.784-3.722,5.82,5.82,0,0,0,2.947-1.591Z" transform="translate(-39.025 -1.592)" fill="#e0c9ed"/></g><path d="M35.21,29.05l-5.465-5.465,3.173-3.173L50.582,38.076l-3.173,3.173-5.465-5.464" transform="translate(-11.177 -7.998)" fill="#faf7f5"/><ellipse cx="14.235" cy="14.235" rx="14.235" ry="14.235" transform="translate(0 23.356)" fill="#ff7d97"/><ellipse cx="9.599" cy="9.599" rx="9.599" ry="9.599" transform="translate(2.68 44.738) rotate(-76.7)" fill="#faf7f5"/></g><g transform="translate(0 0)"><path d="M15.289,35.4A15.289,15.289,0,1,0,30.577,50.69,15.306,15.306,0,0,0,15.289,35.4Zm0,28.47A13.182,13.182,0,1,1,28.471,50.69,13.2,13.2,0,0,1,15.289,63.872Z" transform="translate(0 -12.052)"/><path d="M17.68,42.428A10.654,10.654,0,1,0,28.334,53.081,10.666,10.666,0,0,0,17.68,42.428Zm0,19.2a8.547,8.547,0,1,1,8.547-8.547A8.557,8.557,0,0,1,17.68,61.628Z" transform="translate(-2.391 -14.443)"/><path d="M63.511,6.732a6.847,6.847,0,0,0-2.254-4.944A6.9,6.9,0,0,0,49.882,5.374a12.881,12.881,0,0,1-3.41,6.319l-2.5,2.5-6.18-6.18a3.168,3.168,0,0,0-4.48,0l-3.2,3.2a1.053,1.053,0,0,0,0,1.49l.769.769-2.428,2.428a1.054,1.054,0,0,0,0,1.49l5.465,5.465a1.053,1.053,0,0,0,1.49-1.49l-4.72-4.72,1.683-1.683L48.548,31.131l-1.683,1.683-4.72-4.72a1.053,1.053,0,1,0-1.49,1.49l5.465,5.465a1.053,1.053,0,0,0,1.49,0l2.428-2.428.769.769a1.053,1.053,0,0,0,1.49,0l3.2-3.2a3.168,3.168,0,0,0,0-4.48l-6.18-6.18,2.448-2.448a12.4,12.4,0,0,1,6.252-3.436,6.9,6.9,0,0,0,5.5-6.917Zm-9.2,21.22A1.054,1.054,0,0,1,54,28.7l-2.452,2.452-19.2-19.2L34.8,9.5a1.061,1.061,0,0,1,1.5,0L54,27.2a1.054,1.054,0,0,1,.311.75ZM60,10.281a4.77,4.77,0,0,1-2.415,1.3,14.506,14.506,0,0,0-7.316,4.009l-2.448,2.448-2.361-2.361,2.5-2.5a14.984,14.984,0,0,0,3.976-7.347A4.793,4.793,0,1,1,60,10.281Z" transform="translate(-9.58 -0.005)"/><path d="M41.736,38.674a1.053,1.053,0,1,0,.132-1.329A1.063,1.063,0,0,0,41.736,38.674Z" transform="translate(-14.145 -12.609)"/><path d="M24.632,53.515a1.053,1.053,0,0,0-1.49,0l-1.631,1.641L19.881,53.52A1.053,1.053,0,0,0,18.386,55l1.64,1.651-1.64,1.651a1.053,1.053,0,0,0,1.495,1.485l1.631-1.641,1.631,1.641a1.053,1.053,0,0,0,1.495-1.485L23,56.655,24.637,55A1.054,1.054,0,0,0,24.632,53.515Z" transform="translate(-6.153 -18.112)"/></g></g></g></g></svg>