<svg xmlns="http://www.w3.org/2000/svg" width="106.328" height="106.328" viewBox="0 0 106.328 106.328"><g transform="translate(1.715 1.715)"><g transform="translate(69.319 85.748)"><path d="M62.691,52.1A17.574,17.574,0,0,1,76,69.15H45.13V64.931a20.87,20.87,0,0,0-2.71-10.307l.635-.343A17.515,17.515,0,0,1,48.148,52.1l.412-.1,1.012,1.012a8.281,8.281,0,0,0,11.7,0L62.279,52Z" transform="translate(-42.42 -52)" fill="#b4dd7f"/></g><g transform="translate(30.869 81.169)"><path d="M61.159,66.84v4.219H20V66.84a20.83,20.83,0,0,1,2.675-10.256,17.666,17.666,0,0,1,1.595-2.452,21.233,21.233,0,0,1,5.025-4.8L32,55.624l8.575-5.145,8.575,5.145,2.71-6.294A21.207,21.207,0,0,1,57.386,54.8a15.145,15.145,0,0,1,1.063,1.732,20.87,20.87,0,0,1,2.71,10.307Z" transform="translate(-20 -49.33)" fill="#75b1f2"/></g><g transform="translate(51.449 78.889)"><path d="M43.284,50.281l-2.71,6.294L32,51.43,38.86,48A22,22,0,0,1,43.284,50.281Z" transform="translate(-32 -48)" fill="#5d9cec"/></g><g transform="translate(40.165 78.889)"><path d="M36.7,51.43,28.13,56.575l-2.71-6.294A22.006,22.006,0,0,1,29.845,48Z" transform="translate(-25.42 -48)" fill="#5d9cec"/></g><g transform="translate(20.58 85.748)"><path d="M26.965,54.675A20.83,20.83,0,0,0,24.29,64.931V69.15H14a17.128,17.128,0,0,0,6.517-10.29,17.493,17.493,0,0,0,.343-3.43V52l.412.1a17.58,17.58,0,0,1,5.677,2.555Z" transform="translate(-14 -52)" fill="#ff826e"/></g><g transform="translate(0 85.748)"><path d="M15.72,52v3.43a17.493,17.493,0,0,0,.343,3.43A17.128,17.128,0,0,0,22.58,69.15H2A17.6,17.6,0,0,1,15.308,52.1Z" transform="translate(-2 -52)" fill="#ff826e"/></g><g transform="translate(14.063 92.608)"><path d="M23.234,56a17.128,17.128,0,0,1-6.517,10.29A17.128,17.128,0,0,1,10.2,56Z" transform="translate(-10.2 -56)" fill="#e6e9ed"/></g><g transform="translate(34.299 41.159)"><path d="M56.145,36.376a10.891,10.891,0,0,1,.154,1.835,12.221,12.221,0,0,1-.36,2.967l-.926,3.7L55,44.9a5.023,5.023,0,0,0-3.842-1.749H49.439v-.069A5.065,5.065,0,0,0,44.363,38H33.936a5.065,5.065,0,0,0-5.076,5.076v.069H27.145A5.023,5.023,0,0,0,23.3,44.9l-.017-.017-1.08-4.339a5.094,5.094,0,0,1-.137-.737A5.682,5.682,0,0,1,22,38.862a6.86,6.86,0,0,1,1.046-3.636,6.977,6.977,0,0,1,2.8-2.572l3.018-1.509A7.527,7.527,0,0,1,31.6,27.423,7.421,7.421,0,0,1,35.994,26h8.095A12.193,12.193,0,0,1,56.145,36.376Z" transform="translate(-22 -26)" fill="#b27946"/></g><g transform="translate(67.295 44.589)"><path d="M64.255,29.938a4.5,4.5,0,0,1,.377-.429A5.133,5.133,0,0,1,68.268,28a8.549,8.549,0,0,1,8.575,8.575,11.933,11.933,0,0,1-3.516,8.489c-1.029,1.029-2.229,1.869-6.774,3.378l-1.715.137A11.954,11.954,0,0,1,54,41.72H52.833a6.858,6.858,0,0,0-6.86,6.86H44.258a5.042,5.042,0,0,0-2.212.5l.5-2.212a5.016,5.016,0,0,0-1.3-3.4l.017-.017.926-3.7a12.221,12.221,0,0,0,.36-2.967,10.89,10.89,0,0,0-.154-1.835h.017a9.118,9.118,0,0,1,3.567-1.8l.943-.943a14.337,14.337,0,0,1,17.338-2.264Z" transform="translate(-41.24 -28)" fill="#656d78"/></g><g transform="translate(3.43 48.019)"><path d="M34.1,70.388a17.58,17.58,0,0,0-5.677-2.555l-.412-.1-2.264-4.51a10.3,10.3,0,0,0,5.694-9.209V53.1a6.873,6.873,0,0,0-5.882-6.791A13.815,13.815,0,0,1,16,40.29a7.525,7.525,0,0,0-5.145,7.134V54.01a10.194,10.194,0,0,0,3.018,7.271l2.675,1.938-2.264,4.51-.412.1A17.388,17.388,0,0,0,8.339,70.3,17.55,17.55,0,0,1,4,58.743V47.15a17.148,17.148,0,0,1,30.938-10.2,5.1,5.1,0,0,0,.137.737l1.08,4.339.017.017a5.106,5.106,0,0,0,.206,7.031,4.866,4.866,0,0,0,1.921,1.2v8.472a17.661,17.661,0,0,1-2.607,9.209h.017A17.665,17.665,0,0,0,34.115,70.4Z" transform="translate(-4 -30)" fill="#656d78"/></g><g transform="translate(34.299 58.309)"><path d="M28.86,36V46.29H27.145a4.754,4.754,0,0,1-1.715-.309,4.866,4.866,0,0,1-1.921-1.2,5.106,5.106,0,0,1-.206-7.031A5.023,5.023,0,0,1,27.145,36Z" transform="translate(-22 -36)" fill="#f0d0b4"/></g><g transform="translate(61.739 58.309)"><path d="M39.715,36a5.189,5.189,0,0,1,5.145,5.145l-.5,2.212-1.012,1.423a5.093,5.093,0,0,1-3.636,1.509H38V36Z" transform="translate(-38 -36)" fill="#f0d0b4"/></g><g transform="translate(92.608 65.169)"><path d="M57.715,40a5.145,5.145,0,0,1,0,10.29H56V40Z" transform="translate(-56 -40)" fill="#f0d0b4"/></g><g transform="translate(65.169 65.169)"><path d="M46.86,40V50.29H45.145A5.153,5.153,0,0,1,40,45.145a5.042,5.042,0,0,1,.5-2.212,5.241,5.241,0,0,0,1.423-1.012L42.933,40.5a5.042,5.042,0,0,1,2.212-.5Z" transform="translate(-40 -40)" fill="#f0d0b4"/></g><g transform="translate(75.459 81.958)"><path d="M56.29,50.15a6.594,6.594,0,0,0,2.178-.36v.017L59.72,53.58l-1.012,1.012a8.281,8.281,0,0,1-11.7,0L46,53.58l1.252-3.773V49.79a6.521,6.521,0,0,0,2.178.36Z" transform="translate(-46 -49.79)" fill="#f0d0b4"/></g><g transform="translate(72.029 58.309)"><path d="M64.58,42.86V53.15a6.853,6.853,0,0,1-4.682,6.5,6.594,6.594,0,0,1-2.178.36H50.86a6.521,6.521,0,0,1-2.178-.36A6.853,6.853,0,0,1,44,53.15V42.86A6.858,6.858,0,0,1,50.86,36h1.166a11.954,11.954,0,0,0,10.839,6.86l1.715-.137v.137Z" transform="translate(-44 -36)" fill="#f0d0b4"/></g><g transform="translate(44.589 75.098)"><path d="M41.72,49.58l-6.86,3.43L28,49.58l1.252-3.773V45.79a6.521,6.521,0,0,0,2.178.36h6.86a6.521,6.521,0,0,0,2.178-.36v.017Z" transform="translate(-28 -45.79)" fill="#f0d0b4"/></g><g transform="translate(13.72 81.238)"><path d="M23.72,53.88v3.43a17.493,17.493,0,0,1-.343,3.43H10.343A17.493,17.493,0,0,1,10,57.31V53.88l2.264-4.51a10.316,10.316,0,0,0,9.192,0Z" transform="translate(-10 -49.37)" fill="#f0d0b4"/></g><g transform="translate(41.159 53.164)"><path d="M46.58,38.145v10.29a6.853,6.853,0,0,1-4.682,6.5,6.521,6.521,0,0,1-2.178.36H32.86a6.521,6.521,0,0,1-2.178-.36A6.853,6.853,0,0,1,26,48.435V38.076A5.065,5.065,0,0,1,31.076,33H41.5a5.065,5.065,0,0,1,5.076,5.076Z" transform="translate(-26 -33)" fill="#f0d0b4"/></g><g transform="translate(10.29 58.309)"><path d="M28.58,48.811v.909a10.295,10.295,0,0,1-14.886,9.209l-2.675-1.938A10.194,10.194,0,0,1,8,49.72V43.134A7.525,7.525,0,0,1,13.145,36,13.815,13.815,0,0,0,22.7,42.02a6.873,6.873,0,0,1,5.882,6.791Z" transform="translate(-8 -36)" fill="#f0d0b4"/></g><g transform="translate(82.318 17.15)"><path d="M70.58,12V32.58H50V12H70.58Z" transform="translate(-50 -12)" fill="#ffeaa7"/></g><g transform="translate(41.159)"><path d="M46.58,6.3V22.58H26V2H46.58Z" transform="translate(-26 -2)" fill="#ffeaa7"/></g><g transform="translate(0 20.58)"><path d="M22.58,14V34.58H2V14H22.58Z" transform="translate(-2 -14)" fill="#ffeaa7"/></g></g><g transform="translate(0 0)"><path d="M107.328,38.72a10.3,10.3,0,0,0-10.29-10.29,6.79,6.79,0,0,0-4.329,1.583,15.948,15.948,0,0,0-18.239,3.123l-.621.621a10.649,10.649,0,0,0-1.6.633A13.941,13.941,0,0,0,59.1,25H51.012a9.224,9.224,0,0,0-8.5,5.625l-2.425,1.212a8.6,8.6,0,0,0-4.263,4.821A18.833,18.833,0,0,0,4.43,50.725V62.313A19.268,19.268,0,0,0,8.049,73.549,19.248,19.248,0,0,0,1,88.454v1.715H107.328V88.454a19.261,19.261,0,0,0-14.1-18.578l-.49-1.471a8.57,8.57,0,0,0,4.13-5.677h.175a6.849,6.849,0,0,0,3.941-12.458,13.7,13.7,0,0,0,6.349-11.55ZM75.16,36.953l.461-.115L76.9,35.561a12.627,12.627,0,0,1,13.757-2.742,6.821,6.821,0,0,0,6.381,9.331V38.72a3.43,3.43,0,1,1,0-6.86,6.867,6.867,0,0,1,6.86,6.86,10.29,10.29,0,0,1-20.58,0h-3.43a13.671,13.671,0,0,0,.484,3.555A8.57,8.57,0,0,0,73.2,49.01h-.173a6.818,6.818,0,0,0-1.146-3.782l.729-2.917a13.928,13.928,0,0,0,.417-3.38c0-.333-.027-.657-.05-.984a7.291,7.291,0,0,1,2.181-.993Zm1.682,32.922a19.226,19.226,0,0,0-4.195,1.775A22.88,22.88,0,0,0,62.4,63.143l-.533-1.6a8.57,8.57,0,0,0,4.13-5.677h.175a6.867,6.867,0,0,0,6.86,6.86H73.2a8.574,8.574,0,0,0,4.13,5.677Zm-57.8,10h8.494a15.509,15.509,0,0,1-4.248,6.332A15.539,15.539,0,0,1,19.047,79.879Zm4.248-13.72a8.585,8.585,0,0,1-8.575-8.575V51a5.8,5.8,0,0,1,2.869-5.011,15.557,15.557,0,0,0,9.863,5.589,5.172,5.172,0,0,1,4.418,5.093v.911a8.585,8.585,0,0,1-8.575,8.575Zm0,3.43a11.97,11.97,0,0,0,3.776-.617l1.369,2.737v3.025a15.42,15.42,0,0,1-.1,1.715H18.253a15.018,15.018,0,0,1-.1-1.715V71.709l1.369-2.737A11.97,11.97,0,0,0,23.295,69.589Zm8.575,5.145V73.618a15.8,15.8,0,0,1,2.157.988,22.711,22.711,0,0,0-2.157,9.636v2.5H27.543A18.954,18.954,0,0,0,31.869,74.734Zm10.29-22.295a3.43,3.43,0,1,1,0-6.86Zm.173,3.43a8.574,8.574,0,0,0,4.13,5.677l-.533,1.6A22.532,22.532,0,0,0,41.9,65.351a19.131,19.131,0,0,0,.264-3.039V55.869Zm4.908,10.461L50.6,68.011l-4.215,2.53-1.35-3.126A19.167,19.167,0,0,1,47.241,66.331Zm13.847,0a19.167,19.167,0,0,1,2.2,1.084l-1.35,3.126-4.215-2.53Zm-2.161-2.756-4.762,2.382L49.4,63.576l.316-.948a8.653,8.653,0,0,0,1.017.1h6.86a8.3,8.3,0,0,0,1.017-.1ZM57.594,59.3h-6.86a5.151,5.151,0,0,1-5.145-5.145V43.791a3.36,3.36,0,0,1,3.356-3.356H59.384a3.36,3.36,0,0,1,3.354,3.356V54.154A5.151,5.151,0,0,1,57.594,59.3ZM35.3,84.242a19.511,19.511,0,0,1,6.879-14.8L44.792,75.5l9.372-5.623L63.536,75.5l2.614-6.054a19.511,19.511,0,0,1,6.879,14.8v2.5H35.3ZM66.169,45.58a3.43,3.43,0,1,1,0,6.86Zm6.86,6.86V59.3a3.433,3.433,0,0,1-3.43-3.43,3.388,3.388,0,0,1,.187-1.056,6.891,6.891,0,0,0,2.188-2.188,3.417,3.417,0,0,1,1.055-.185ZM41.619,34.906l3.658-1.83L45.5,32.4a5.8,5.8,0,0,1,5.51-3.972H59.1A10.5,10.5,0,0,1,69.285,41.477l-.321,1.281a6.8,6.8,0,0,0-2.8-.609h-.223A6.782,6.782,0,0,0,59.384,37H48.945a6.781,6.781,0,0,0-6.561,5.145h-.225a6.774,6.774,0,0,0-2.8.611l-.478-1.914a5.224,5.224,0,0,1,2.734-5.941ZM7.86,62.313V50.725A15.454,15.454,0,0,1,23.295,35.29a15.3,15.3,0,0,1,12.19,5.99c.027.132.041.268.074.4l.887,3.548a6.807,6.807,0,0,0,2.284,9.69v7.4a15.863,15.863,0,0,1-2.358,8.321l.024.015c-.237.319-.473.638-.693.969a19.308,19.308,0,0,0-4.365-1.782l-1.2-2.4A12,12,0,0,0,35.3,57.584v-.911a8.617,8.617,0,0,0-7.361-8.489,12.12,12.12,0,0,1-8.36-5.272l-.727-1.091-1.243.415A9.228,9.228,0,0,0,11.29,51v6.582a11.993,11.993,0,0,0,5.162,9.851l-1.2,2.4a19.385,19.385,0,0,0-4.375,1.78,15.856,15.856,0,0,1-3.017-9.3Zm6.86,11.333v1.089a18.954,18.954,0,0,0,4.327,12H4.523A15.8,15.8,0,0,1,14.72,73.645Zm89.086,13.094H76.459v-2.5a22.711,22.711,0,0,0-2.14-9.6,15.763,15.763,0,0,1,3.363-1.406l.285.285a10,10,0,0,0,14.135,0l.285-.285a15.808,15.808,0,0,1,11.42,13.5Zm-13.874-15.9-.256.256a6.724,6.724,0,0,1-9.285,0l-.256-.256.451-1.355a8.3,8.3,0,0,0,1.017.1h6.86a8.3,8.3,0,0,0,1.017-.1Zm3.677-9.827a5.151,5.151,0,0,1-5.145,5.145H81.6a5.151,5.151,0,0,1-5.145-5.145V50.725A5.151,5.151,0,0,1,81.6,45.58h.141a13.717,13.717,0,0,0,11.864,6.86Zm3.43-1.715v-6.86a3.43,3.43,0,0,1,0,6.86Z" transform="translate(-1 16.159)"/><path d="M92.945,18.15A61.643,61.643,0,0,0,66.169,5.627V1H42.159V5.636A61.3,61.3,0,0,0,11.5,21.58H1v24.01H25.01V21.58H16.591A57.8,57.8,0,0,1,42.159,9.139V25.01h24.01V9.129A58.132,58.132,0,0,1,87.2,18.15H83.318v24.01h24.01V18.15ZM4.43,42.159V25.01H19.515l-8.309,9.5L9.072,32.372,6.647,34.8l4.726,4.726L21.58,27.858v14.3ZM45.589,21.58V4.43H60.674l-8.309,9.5-2.133-2.133-2.425,2.425,4.726,4.726L62.739,7.279v14.3Zm41.159,17.15V21.58h15.085l-8.309,9.5-2.133-2.133-2.425,2.425,4.726,4.726L103.9,24.428v14.3Z" transform="translate(-1 -1)"/><path d="M31,19h3.43v3.43H31Z" transform="translate(20.449 11.869)"/><path d="M35,19h3.43v3.43H35Z" transform="translate(23.309 11.869)"/><path d="M27,19h3.43v3.43H27Z" transform="translate(17.589 11.869)"/></g></svg>