<svg xmlns="http://www.w3.org/2000/svg" width="106.328" height="106.328" viewBox="0 0 106.328 106.328"><g transform="translate(1.715 1.715)"><g transform="translate(58.309 82.559)"><path d="M60.25,50.14l7.271,7.271A44.386,44.386,0,0,1,36,70.48V60.19A34.192,34.192,0,0,0,60.25,50.14Z" transform="translate(-36 -50.14)" fill="#e6e9ed"/></g><g transform="translate(37.729 87.875)"><path d="M44.58,57.973v10.29a44.393,44.393,0,0,1-20.048-4.75L24,61.4a20.208,20.208,0,0,0,3.173-8.163h.017a34.17,34.17,0,0,0,17.39,4.733Z" transform="translate(-24 -53.24)" fill="#ff826e"/></g><g transform="translate(82.559 58.309)"><path d="M60.19,36H70.48A44.386,44.386,0,0,1,57.411,67.521L50.14,60.25A34.192,34.192,0,0,0,60.19,36Z" transform="translate(-50.14 -36)" fill="#69d6f4"/></g><g transform="translate(82.559 26.788)"><path d="M70.48,49.141H60.19a34.192,34.192,0,0,0-10.05-24.25l7.271-7.271A44.386,44.386,0,0,1,70.48,49.141Z" transform="translate(-50.14 -17.62)" fill="#fcd770"/></g><g transform="translate(43.372 13.72)"><path d="M42.227,20.29a34.309,34.309,0,0,0-14.166,3.053,5.74,5.74,0,0,0-.772-1.235,33.637,33.637,0,0,0,1.218-8.952V12.144A44.666,44.666,0,0,1,73.748,23.068L66.477,30.34a34.192,34.192,0,0,0-24.25-10.05Z" transform="translate(-27.29 -10)" fill="#b4dd7f"/></g><g transform="translate(3.43)"><path d="M26.295,15.72H17.72a6.858,6.858,0,0,0-6.86,6.86v3.43H9.145a5.122,5.122,0,0,0-3.927,1.818A33.637,33.637,0,0,1,4,18.875,16.863,16.863,0,0,1,20.875,2H41.729a3.44,3.44,0,0,1,3.43,3.43V18.875a33.637,33.637,0,0,1-1.218,8.952,5.122,5.122,0,0,0-3.927-1.818H38.3V22.58a3.44,3.44,0,0,0-3.43-3.43H33.154A8.591,8.591,0,0,1,26.295,15.72Z" transform="translate(-4 -2)" fill="#656d78"/></g><g transform="translate(20.683 51.449)"><path d="M20.714,34.007,19.1,38.86h-3.43L14.06,34.007,17.387,32Z" transform="translate(-14.06 -32)" fill="#ff826e"/></g><g transform="translate(24.01 49.237)"><path d="M29.72,43.212a3.44,3.44,0,0,0-3.43,3.43v-3.43a3.455,3.455,0,0,0-3.43-3.43,3.44,3.44,0,0,0-3.43,3.43A3.455,3.455,0,0,0,16,39.782h1.715l1.612-4.853,5.248,3.138L26.05,30.71A24.024,24.024,0,0,1,40.01,52.542v.96H33.15v-6.86a3.455,3.455,0,0,0-3.43-3.43Z" transform="translate(-16 -30.71)" fill="#fcd770"/></g><g transform="translate(0.446 48.774)"><path d="M15.534,33.115V55.273a1.857,1.857,0,0,1-3.687.309l-.5-3.018a6.835,6.835,0,0,0-2.332-4.1,6.76,6.76,0,0,0-4.425-1.629,2.733,2.733,0,0,0-2.315,1.252H2.26A24.111,24.111,0,0,1,16.82,30.44a3.417,3.417,0,0,0-1.286,2.675Z" transform="translate(-2.26 -30.44)" fill="#fcd770"/></g><g transform="translate(19.894 49.391)"><path d="M17.716,32.858l-3.327,2.007-.1.051V32.858A3.45,3.45,0,0,0,13.6,30.8Z" transform="translate(-13.6 -30.8)" fill="#ffc729"/></g><g transform="translate(24.01 48.019)"><path d="M26.05,31.2v.017l-1.475,7.357-5.248-3.138L16,33.43,22.86,30a25.408,25.408,0,0,1,3.19,1.2Z" transform="translate(-16 -30)" fill="#ffc729"/></g><g transform="translate(54.879 34.299)"><path d="M34,39.15V25.43A3.44,3.44,0,0,1,37.43,22H51.15A3.364,3.364,0,0,1,53.7,23.166a3.328,3.328,0,0,1,.875,2.264V39.15a3.44,3.44,0,0,1-3.43,3.43H37.43A3.44,3.44,0,0,1,34,39.15Z" transform="translate(-34 -22)" fill="#ff826e"/></g><g transform="translate(54.879 61.739)"><path d="M34,55.15V41.43A3.44,3.44,0,0,1,37.43,38H51.15A3.364,3.364,0,0,1,53.7,39.166a3.328,3.328,0,0,1,.875,2.264V55.15a3.44,3.44,0,0,1-3.43,3.43H37.43A3.44,3.44,0,0,1,34,55.15Z" transform="translate(-34 -38)" fill="#ff826e"/></g><g transform="translate(8.575 96.038)"><path d="M36.686,60.109l1.183,4.75H7L8.715,58H36.154Z" transform="translate(-7 -58)" fill="#b4dd7f"/></g><g transform="translate(0 48.019)"><path d="M36.3,47.15a3.44,3.44,0,0,1,3.43-3.43,3.455,3.455,0,0,1,3.43,3.43V66.683a19.631,19.631,0,0,1-.257,3.173,20.208,20.208,0,0,1-3.173,8.163H12.29L9,73.612a11.769,11.769,0,0,1-2.281-5.505l-.446-3.07a49.6,49.6,0,0,0-3.053-11.4L2.206,51.094A2.86,2.86,0,0,1,2,50.031v-.1A2.76,2.76,0,0,1,2.463,48.4,2.733,2.733,0,0,1,4.778,47.15,6.76,6.76,0,0,1,9.2,48.779a6.835,6.835,0,0,1,2.332,4.1l.5,3.018a1.857,1.857,0,0,0,3.687-.309V33.43a3.417,3.417,0,0,1,1.286-2.675A3.465,3.465,0,0,1,19.15,30a3.353,3.353,0,0,1,2.418,1.012c.12.12.223.24.326.36a3.45,3.45,0,0,1,.686,2.058V43.72a3.44,3.44,0,0,1,3.43-3.43,3.455,3.455,0,0,1,3.43,3.43,3.44,3.44,0,0,1,3.43-3.43,3.455,3.455,0,0,1,3.43,3.43Z" transform="translate(-2 -30)" fill="#f0d0b4"/></g><g transform="translate(37.729 24.01)"><path d="M30.414,19.053a5.032,5.032,0,0,1,.446,2.092,5.153,5.153,0,0,1-5.145,5.145H24V16h1.715a5.122,5.122,0,0,1,3.927,1.818,5.74,5.74,0,0,1,.772,1.235Z" transform="translate(-24 -16)" fill="#f0d0b4"/></g><g transform="translate(17.15 44.383)"><path d="M22.29,28.086a9.88,9.88,0,0,0,2.024-.206l1.406,3.636-6.86,3.43-4.116-2.058c-.1-.12-.206-.24-.326-.36A3.353,3.353,0,0,0,12,31.516l1.406-3.636a9.88,9.88,0,0,0,2.024.206Z" transform="translate(-12 -27.88)" fill="#f0d0b4"/></g><g transform="translate(10.29 13.72)"><path d="M35.439,20.29V30.58a10.272,10.272,0,0,1-8.266,10.084,9.88,9.88,0,0,1-2.024.206H18.29a9.88,9.88,0,0,1-2.024-.206A10.272,10.272,0,0,1,8,30.58V16.86A6.858,6.858,0,0,1,14.86,10h8.575a8.591,8.591,0,0,0,6.86,3.43H32.01a3.44,3.44,0,0,1,3.43,3.43Z" transform="translate(-8 -10)" fill="#f0d0b4"/></g><g transform="translate(3.43 24.01)"><path d="M10.86,16V26.29H9.145a5.145,5.145,0,1,1,0-10.29Z" transform="translate(-4 -16)" fill="#f0d0b4"/></g><g transform="translate(17.15 30.869)"><path d="M12,20H25.72A6.86,6.86,0,1,1,12,20Z" transform="translate(-12 -20)" fill="#ff826e"/></g></g><g transform="translate(0 0)"><circle cx="1.5" cy="1.5" r="1.5" transform="translate(17.328 24)"/><circle cx="1.5" cy="1.5" r="1.5" transform="translate(31.328 24)"/><path d="M28.15,20.715V19H11v1.715a8.575,8.575,0,1,0,17.15,0ZM14.723,22.43h9.7a5.145,5.145,0,0,1-9.7,0Z" transform="translate(6.15 11.869)"/><path d="M61.024,14.72a46.368,46.368,0,0,0-12,1.605V6.145A5.151,5.151,0,0,0,43.874,1H23.017A18.608,18.608,0,0,0,4.43,19.587a35.078,35.078,0,0,0,1.089,8.6A6.837,6.837,0,0,0,11.29,38.729h.137a12.022,12.022,0,0,0,7.578,9.484l-.379.974A5.1,5.1,0,0,0,16.869,50,25.676,25.676,0,0,0,1.532,68.619,4.651,4.651,0,0,0,1,70.76a4.553,4.553,0,0,0,.328,1.7l1.017,2.542A47.944,47.944,0,0,1,5.287,86.014l.439,3.075a13.746,13.746,0,0,0,2.607,6.292l2.809,3.747-2.049,8.2H44.356l-.863-3.451a45.842,45.842,0,0,0,17.53,3.451,46.3,46.3,0,1,0,0-92.608ZM38.53,63.116a5.139,5.139,0,0,0-1.717-2.636l1.2-5.972a22.177,22.177,0,0,1,11,18.518H45.589V67.882a5.125,5.125,0,0,0-7.059-4.766ZM33.71,52.59c.372.123.748.242,1.11.382L34.1,56.586,30.287,54.3Zm-7.464,6.719-.794-2.38,1.273-.765L28,56.927,27.2,59.309Zm4.764-.573,1.269.761a5.114,5.114,0,0,0-1.823.9Zm14.579,28.69V76.459h6.86V73.783A25.6,25.6,0,0,0,34.895,49.372l-.451-1.159a12.022,12.022,0,0,0,7.578-9.484h.137a6.867,6.867,0,0,0,6.86-6.86,6.957,6.957,0,0,0-.106-1.058A32.571,32.571,0,1,1,45.466,89.64a22.132,22.132,0,0,0,.123-2.214Zm-3.43-58.986a3.43,3.43,0,1,1,0,6.86Zm20.58,68.511a35.811,35.811,0,0,0,22.468-9.319l4.877,4.877a42.7,42.7,0,0,1-27.345,11.345ZM87.632,85.208a35.82,35.82,0,0,0,9.319-22.47h6.9A42.7,42.7,0,0,1,92.509,90.086Zm9.319-25.9a35.82,35.82,0,0,0-9.319-22.47l4.877-4.877a42.7,42.7,0,0,1,11.345,27.347ZM90.086,29.537l-4.877,4.877A35.889,35.889,0,0,0,48.122,27.4a35.114,35.114,0,0,0,.887-7.506,42.67,42.67,0,0,1,41.077,9.648ZM7.86,31.869a3.433,3.433,0,0,1,3.43-3.43V35.3A3.433,3.433,0,0,1,7.86,31.869Zm6.86,5.145V23.295a5.142,5.142,0,0,1,4.968-5.128,13.258,13.258,0,0,0,4.37,4.84l1.9-2.854a9.82,9.82,0,0,1-4.38-8.186V11.29H18.15v.677a13.316,13.316,0,0,0,.334,2.893,8.566,8.566,0,0,0-7.194,8.434V25.01a6.805,6.805,0,0,0-2.837.631,31.718,31.718,0,0,1-.593-6.054A15.175,15.175,0,0,1,23.017,4.43H43.874a1.718,1.718,0,0,1,1.715,1.715V19.587A31.718,31.718,0,0,1,45,25.641a6.805,6.805,0,0,0-2.837-.631V23.295a5.151,5.151,0,0,0-5.145-5.145H35.3a6.867,6.867,0,0,1-6.86-6.86H25.01A10.3,10.3,0,0,0,35.3,21.58h1.715a1.718,1.718,0,0,1,1.715,1.715v13.72a8.585,8.585,0,0,1-8.575,8.575h-6.86A8.585,8.585,0,0,1,14.72,37.014Zm8.575,12h6.86c.305,0,.605-.024.9-.046l.36.926-4.694,2.348L23.651,50.71a5.131,5.131,0,0,0-1.5-1.13l.237-.607C22.689,49,22.989,49.019,23.295,49.019ZM14.72,55.011V76.316c0,.147-.261.168-.283.026l-.5-3.018a8.519,8.519,0,0,0-8.151-7.129A22.184,22.184,0,0,1,14.72,55.011Zm-5.6,33.595-.439-3.077a51.383,51.383,0,0,0-3.152-11.8L4.514,71.189a1.285,1.285,0,0,1-.084-.53A1.061,1.061,0,0,1,5.49,69.6a5.117,5.117,0,0,1,5.063,4.287l.5,3.018a3.572,3.572,0,0,0,7.095-.588V54.164a1.715,1.715,0,1,1,3.43,0V76.459h3.43v-12a1.715,1.715,0,1,1,3.43,0v12h3.43v-12a1.715,1.715,0,1,1,3.43,0v12h3.43V67.884a1.715,1.715,0,0,1,3.43,0V87.426a18.625,18.625,0,0,1-2.672,9.612H13.862l-2.785-3.713a10.322,10.322,0,0,1-1.955-4.72ZM13.487,103.9l.857-3.43H39.1l.857,3.43Zm28.8-4.862a22.109,22.109,0,0,0,2.531-5.846,35.982,35.982,0,0,0,14.495,3.792v6.868a42.309,42.309,0,0,1-16.872-4.195Z" transform="translate(-1 -1)"/><path d="M38.718,29.791l-2.425,2.425,6.543,6.543,11.477-15.3L51.568,21.4l-9.1,12.139Z" transform="translate(24.233 13.585)"/><path d="M38.145,45.01h13.72a5.151,5.151,0,0,0,5.145-5.145V33H53.58v6.86a1.718,1.718,0,0,1-1.715,1.715H38.145a1.718,1.718,0,0,1-1.715-1.715V26.145a1.718,1.718,0,0,1,1.715-1.715H46.72V21H38.145A5.151,5.151,0,0,0,33,26.145v13.72A5.151,5.151,0,0,0,38.145,45.01Z" transform="translate(21.879 13.299)"/><path d="M42.465,49.539l-3.747-3.747-2.425,2.425,6.543,6.543,11.477-15.3L51.568,37.4Z" transform="translate(24.233 25.025)"/><path d="M51.865,61.01a5.151,5.151,0,0,0,5.145-5.145V49H53.58v6.86a1.717,1.717,0,0,1-1.715,1.715H38.145a1.717,1.717,0,0,1-1.715-1.715V42.145a1.717,1.717,0,0,1,1.715-1.715H46.72V37H38.145A5.151,5.151,0,0,0,33,42.145v13.72a5.151,5.151,0,0,0,5.145,5.145Z" transform="translate(21.879 24.739)"/></g></svg>