<svg xmlns="http://www.w3.org/2000/svg" width="121.964" height="128.823" viewBox="0 0 121.964 128.823"><g transform="translate(-14.566 -0.99)"><g transform="translate(16.589 3.013)"><path d="M91.372,126.92H71.695v-9.873a49.78,49.78,0,0,1-17.91-7.423L46.8,116.608,32.886,102.694l6.985-6.985A49.777,49.777,0,0,1,32.448,77.8H22.574V58.122h9.873a49.781,49.781,0,0,1,7.423-17.91l-6.985-6.985L46.8,19.313,53.785,26.3a49.775,49.775,0,0,1,17.91-7.423V9H91.372v9.873a49.78,49.78,0,0,1,17.91,7.423l6.984-6.984,13.914,13.915L123.2,40.211a49.776,49.776,0,0,1,7.423,17.911h9.873V77.8h-9.873A49.781,49.781,0,0,1,123.2,95.71l6.985,6.985-13.915,13.914-6.985-6.985a49.779,49.779,0,0,1-17.91,7.423v9.873Z" transform="translate(-22.574 -9.001)" fill="#8d9ca8" fill-rule="evenodd"/><circle cx="37.944" cy="37.944" r="37.944" transform="translate(21.016 21.015)" fill="#eff4f7"/><g transform="translate(45.507 27.311)"><path d="M229.645,200.058a13.453,13.453,0,0,0-26.905,0Z" transform="translate(-202.74 -169.056)" fill="#ffda2d" fill-rule="evenodd"/><circle cx="7.271" cy="7.271" r="7.271" transform="translate(3.161 10.281) rotate(-45)" fill="#ffd6bd"/></g><g transform="translate(26.975 37.05)"><path d="M156.277,230.925a13.453,13.453,0,0,0-26.905,0Z" transform="translate(-129.372 -201.866)" fill="#64b5f6" fill-rule="evenodd"/><circle cx="7.271" cy="7.271" r="7.271" transform="matrix(0.987, -0.16, 0.16, 0.987, 5.1, 2.327)" fill="#ffd6bd"/></g><g transform="translate(64.039 35.888)"><path d="M303.014,230.925a13.453,13.453,0,0,0-26.905,0Z" transform="translate(-276.109 -200.703)" fill="#64b5f6" fill-rule="evenodd"/><circle cx="7.271" cy="7.271" r="7.271" transform="translate(3.982 13.436) rotate(-67.486)" fill="#ffd6bd"/></g><g transform="translate(4.355 56.192)"><path d="M118.73,254.238l32.942,40.91a5.745,5.745,0,0,1-8.125,8.125,5.745,5.745,0,0,1-8.125,8.125l-4.432-4.432a5.745,5.745,0,0,1-8.125,8.125l-7.82-7.821a5.745,5.745,0,0,1-8.125,8.125L74.874,283.349l6.5-29.111Z" transform="translate(-66.019 -248.487)" fill="#ffd6bd" fill-rule="evenodd"/><path d="M246.43,264.024c-.277.106-10.98-26.931-11.253-26.829-10.28,3.841-18.161,5.242-28.752-3.5-3.351-2.765-7.868-3.071-11.2-.287L181.74,244.669a5.3,5.3,0,0,0-2.047,5.266l4.09,18.741c10.4-2.562,10.349-9.962,11.082-17.741.353-2.98,5.167-2.164,11.211,3.342l24.869,25.232Z" transform="translate(-144.276 -231.469)" fill="#eaab92" fill-rule="evenodd"/><g transform="translate(0 0.585)"><path d="M387.2,235.827l10.055-2a2.007,2.007,0,0,1,2.354,1.572l7.814,39.222a2.007,2.007,0,0,1-1.572,2.354l-10.055,2a2.007,2.007,0,0,1-2.354-1.572l-7.814-39.222A2.007,2.007,0,0,1,387.2,235.827Z" transform="translate(-298.256 -233.785)" fill="#64b5f6" fill-rule="evenodd"/><path d="M60.077,235.827l-10.055-2a2.007,2.007,0,0,0-2.354,1.572l-7.814,39.222a2.007,2.007,0,0,0,1.572,2.354l10.055,2a2.007,2.007,0,0,0,2.354-1.572l7.814-39.222A2.007,2.007,0,0,0,60.077,235.827Z" transform="translate(-39.817 -233.785)" fill="#64b5f6" fill-rule="evenodd"/></g></g></g><path d="M132.48,69.789h-6.457L124.272,61a4.019,4.019,0,0,0-4.729-3.158l-4.17.831a39.967,39.967,0,0,0-79.662,0l-4.17-.831A4.019,4.019,0,0,0,26.812,61l-1.751,8.785H18.6V54.153h7.851a2.031,2.031,0,0,0,1.989-1.626,47.647,47.647,0,0,1,7.112-17.184,2.023,2.023,0,0,0-.25-2.551l-5.552-5.554L40.81,16.18l5.552,5.557a2.025,2.025,0,0,0,2.549.252A47.5,47.5,0,0,1,66.1,14.867a2.021,2.021,0,0,0,1.62-1.983V5.031H83.363v7.853a2.021,2.021,0,0,0,1.62,1.983,47.627,47.627,0,0,1,17.19,7.12,2.02,2.02,0,0,0,2.549-.25l5.552-5.557L121.33,27.238l-5.552,5.555a2.022,2.022,0,0,0-.25,2.551,47.637,47.637,0,0,1,7.124,17.184,2.018,2.018,0,0,0,1.977,1.626h7.851Zm-14.379,33.2,10.019-2-7.8-39.183-10.019,2Zm-10.483,1.382,5.539-5.539-5.98-30C100.565,70.882,92,71.408,81.8,62.992c-2.7-2.225-6.171-2.346-8.625-.293L59.7,73.954a3.322,3.322,0,0,0-1.37,3.286l3.622,16.605c6.409-2.365,6.85-7.277,7.422-13.857q.072-.75.143-1.508v-.048a3.759,3.759,0,0,1,2.442-3.2c2.859-1.066,7.279.864,12.139,5.289a.506.506,0,0,0,.083.076Zm-2.454,8.186a3.756,3.756,0,0,0,.774-4.137l-24.6-24.955c-4.146-3.764-6.981-4.58-7.815-4.486-.036.455-.071.909-.119,1.362-.631,7.166-1.346,15.286-12.473,18.029a2.021,2.021,0,0,1-1.549-.248,1.985,1.985,0,0,1-.906-1.283L54.379,78.1a7.287,7.287,0,0,1,2.728-7.249l4.646-3.877H44.277L37.844,99.257l25.422,25.425a3.726,3.726,0,0,0,5.266,0,3.74,3.74,0,0,0,0-5.266l-6.79-6.792a2.022,2.022,0,1,1,2.859-2.859L79.218,124.38a3.725,3.725,0,1,0,5.266-5.269l-13.64-13.642A2.022,2.022,0,1,1,73.7,102.61l18.072,18.077a3.717,3.717,0,0,0,6.35-2.634,3.664,3.664,0,0,0-1.084-2.627v-.008L79.933,98.313a2.022,2.022,0,0,1,2.859-2.859L99.9,112.561v.005a3.733,3.733,0,0,0,5.265,0ZM94.073,57.69A11.465,11.465,0,0,0,85.948,61.1c7.446,5.509,13.652,5.582,18.894,4.193A11.435,11.435,0,0,0,94.085,57.69Zm0-4.041A5.251,5.251,0,1,0,88.819,48.4,5.262,5.262,0,0,0,94.073,53.649ZM70.295,40.6a5.251,5.251,0,0,0,5.242,5.251h.012A5.25,5.25,0,1,0,70.295,40.6Zm.3,18.994a10.354,10.354,0,0,1,12.08-.9,15.634,15.634,0,0,1,3.038-2.571,11.44,11.44,0,0,0-10.162-6.226h-.012a11.425,11.425,0,0,0-10.162,6.234,15.763,15.763,0,0,1,4.348,4.2Zm-13.581-1.9a11.405,11.405,0,0,0-9.6,5.244H66.59l.012-.01a11.492,11.492,0,0,0-9.59-5.234ZM51.758,48.4a5.253,5.253,0,1,0,5.253-5.251A5.262,5.262,0,0,0,51.758,48.4Zm57.73,11.452,1.894-.376a35.921,35.921,0,0,0-71.668,0l1.882.376A3.99,3.99,0,0,1,43.788,61.1a15.46,15.46,0,0,1,6.755-6.039A9.29,9.29,0,1,1,66.3,48.4c0,.182-.012.362-.012.541a15.106,15.106,0,0,1,2.788-1.67,9.3,9.3,0,1,1,12.925,0,15.589,15.589,0,0,1,2.8,1.67c-.012-.179-.024-.359-.024-.541a9.292,9.292,0,1,1,15.761,6.666A15.487,15.487,0,0,1,107.3,61.1,4,4,0,0,1,109.488,59.849Zm-76.5,43.144,7.8-39.186-10.019-2L22.964,101ZM134.505,50.113h-8.244A51.4,51.4,0,0,0,119.793,34.5l5.826-5.832a2.025,2.025,0,0,0,0-2.857L111.7,11.894a2.025,2.025,0,0,0-2.859,0l-5.825,5.832A51.426,51.426,0,0,0,87.4,11.255V3.01A2.023,2.023,0,0,0,85.376.99H65.708a2.023,2.023,0,0,0-2.025,2.02v8.245a51.482,51.482,0,0,0-15.618,6.471L42.24,11.894a2.025,2.025,0,0,0-2.859,0L25.466,25.809a2.025,2.025,0,0,0,0,2.857L31.3,34.5a51.493,51.493,0,0,0-6.481,15.615H16.579a2.019,2.019,0,0,0-2.013,2.02V71.809a2.019,2.019,0,0,0,2.013,2.021h7.672L19,100.225a3.977,3.977,0,0,0,.6,3.019,4.042,4.042,0,0,0,2.561,1.713l10.055,2a3.951,3.951,0,0,0,.786.078,4.042,4.042,0,0,0,3.9-3.021l23.516,23.526a7.776,7.776,0,0,0,10.984,0,7.625,7.625,0,0,0,1.966-3.309l3,3a7.783,7.783,0,0,0,10.984,0,7.851,7.851,0,0,0,1.966-3.327,7.754,7.754,0,0,0,12.854-5.857v-.371a7.742,7.742,0,0,0,5.861-2.263,7.842,7.842,0,0,0,1.954-7.681l4.134-4.135.036.2a4.026,4.026,0,0,0,3.943,3.236,3.972,3.972,0,0,0,.786-.078l10.055-2a4.017,4.017,0,0,0,3.157-4.731L126.833,73.83h7.672a2.029,2.029,0,0,0,2.025-2.021V52.133a2.029,2.029,0,0,0-2.025-2.021Z" fill-rule="evenodd"/></g></svg>