<svg xmlns="http://www.w3.org/2000/svg" width="109.828" height="109.833" viewBox="0 0 109.828 109.833"><g transform="translate(-8.008 -7.999)"><g transform="translate(9.777 9.768)"><path d="M77.642,171.891h0a21.25,21.25,0,0,1-27.307,0h0A8.387,8.387,0,0,1,56.9,168h3.543a3.543,3.543,0,1,0,7.086,0h3.543A8.387,8.387,0,0,1,77.642,171.891Z" transform="translate(-42.727 -134.339)" fill="#006df0"/><path d="M58.511,37.249a21.209,21.209,0,0,1-7.6,16.291,8.387,8.387,0,0,0-6.57-3.891H40.8a3.543,3.543,0,1,1-7.086,0H30.168A8.387,8.387,0,0,0,23.6,53.54,21.258,21.258,0,1,1,58.511,37.249Z" transform="translate(-15.995 -15.989)" fill="#ffda44"/><g transform="translate(12.402 5.317)"><path d="M89.469,46.986C78.977,52.152,72,50.407,72,50.407v-1.55A8.861,8.861,0,0,1,80.857,40a8.7,8.7,0,0,1,6.262,2.706,9.234,9.234,0,0,1,2.332,4.212C89.458,46.94,89.465,46.964,89.469,46.986Z" transform="translate(-72 -40)" fill="#3e3d42"/><path d="M89.715,73.643v6.864a8.857,8.857,0,1,1-17.715,0V74.971s6.977,1.745,17.469-3.421A8.988,8.988,0,0,1,89.715,73.643Z" transform="translate(-72 -64.564)" fill="#ffdaaa"/><path d="M151.074,71c-.082.042-.164.082-.246.122,0-.022-.011-.047-.018-.069Z" transform="translate(-133.359 -64.136)" fill="#787680"/><path d="M103.086,152v3.543a3.543,3.543,0,0,1-7.086,0V152Z" transform="translate(-90.686 -127.199)" fill="#ffdaaa"/></g><rect width="42.516" height="10.629" rx="5.314" transform="translate(31.888 47.832)" fill="#787680"/><path d="M240,208h7.086v5.314H240Z" transform="translate(-190.397 -165.482)" fill="#ffda44"/><path d="M240,280h7.086v5.314H240Z" transform="translate(-190.397 -221.539)" fill="#ffda44"/><path d="M77.642,171.891h0a21.25,21.25,0,0,1-27.307,0h0A8.387,8.387,0,0,1,56.9,168h3.543a3.543,3.543,0,1,0,7.086,0h3.543A8.387,8.387,0,0,1,77.642,171.891Z" transform="translate(-42.727 -134.339)" fill="#006df0"/><path d="M58.511,37.249a21.209,21.209,0,0,1-7.6,16.291,8.387,8.387,0,0,0-6.57-3.891H40.8a3.543,3.543,0,1,1-7.086,0H30.168A8.387,8.387,0,0,0,23.6,53.54,21.258,21.258,0,1,1,58.511,37.249Z" transform="translate(-15.995 -15.989)" fill="#ffda44"/><g transform="translate(12.402 5.317)"><path d="M89.469,46.986C78.977,52.152,72,50.407,72,50.407v-1.55A8.861,8.861,0,0,1,80.857,40a8.7,8.7,0,0,1,6.262,2.706,9.234,9.234,0,0,1,2.332,4.212C89.458,46.94,89.465,46.964,89.469,46.986Z" transform="translate(-72 -40)" fill="#3e3d42"/><path d="M89.715,73.643v6.864a8.857,8.857,0,1,1-17.715,0V74.971s6.977,1.745,17.469-3.421A8.988,8.988,0,0,1,89.715,73.643Z" transform="translate(-72 -64.564)" fill="#ffdaaa"/><path d="M151.074,71c-.082.042-.164.082-.246.122,0-.022-.011-.047-.018-.069Z" transform="translate(-133.359 -64.136)" fill="#787680"/><path d="M103.086,152v3.543a3.543,3.543,0,0,1-7.086,0V152Z" transform="translate(-90.686 -127.199)" fill="#ffdaaa"/></g><path d="M363.642,171.891h0a21.251,21.251,0,0,1-27.307,0h0A8.387,8.387,0,0,1,342.9,168h3.543a3.543,3.543,0,1,0,7.086,0h3.543A8.387,8.387,0,0,1,363.642,171.891Z" transform="translate(-265.397 -134.339)" fill="#006df0"/><path d="M344.511,37.249a21.209,21.209,0,0,1-7.6,16.291,8.387,8.387,0,0,0-6.57-3.891H326.8a3.543,3.543,0,1,1-7.086,0h-3.543a8.387,8.387,0,0,0-6.57,3.891,21.258,21.258,0,1,1,34.914-16.291Z" transform="translate(-238.664 -15.989)" fill="#ff5023"/><g transform="translate(75.732 5.317)"><path d="M375.469,46.986C364.977,52.152,358,50.407,358,50.407v-1.55A8.861,8.861,0,0,1,366.857,40a8.7,8.7,0,0,1,6.262,2.706,9.234,9.234,0,0,1,2.332,4.212C375.458,46.94,375.465,46.964,375.469,46.986Z" transform="translate(-358 -40)" fill="#3e3d42"/><path d="M375.715,73.643v6.864a8.857,8.857,0,1,1-17.715,0V74.971s6.977,1.745,17.469-3.421A8.987,8.987,0,0,1,375.715,73.643Z" transform="translate(-358 -64.564)" fill="#ffdaaa"/><path d="M437.074,71c-.082.042-.164.082-.246.122,0-.022-.011-.047-.018-.069Z" transform="translate(-419.359 -64.136)" fill="#787680"/><path d="M389.086,152v3.543a3.543,3.543,0,0,1-7.086,0V152Z" transform="translate(-376.686 -127.199)" fill="#ffdaaa"/></g><path d="M77.642,459.891h0a21.25,21.25,0,0,1-27.307,0h0A8.387,8.387,0,0,1,56.9,456h3.543a3.543,3.543,0,1,0,7.086,0h3.543A8.387,8.387,0,0,1,77.642,459.891Z" transform="translate(-42.727 -358.566)" fill="#006df0"/><path d="M58.511,325.249a21.209,21.209,0,0,1-7.6,16.291,8.387,8.387,0,0,0-6.57-3.891H40.8a3.543,3.543,0,0,1-7.086,0H30.168a8.387,8.387,0,0,0-6.57,3.891,21.258,21.258,0,1,1,34.914-16.291Z" transform="translate(-15.995 -240.216)" fill="#ffda44"/><g transform="translate(12.402 69.09)"><path d="M89.469,334.986C78.977,340.152,72,338.407,72,338.407v-1.55A8.861,8.861,0,0,1,80.857,328a8.7,8.7,0,0,1,6.262,2.706,9.234,9.234,0,0,1,2.332,4.212C89.458,334.94,89.465,334.964,89.469,334.986Z" transform="translate(-72 -328)" fill="#3e3d42"/><path d="M89.715,361.643v6.865a8.857,8.857,0,1,1-17.715,0v-5.536s6.977,1.745,17.469-3.421A8.987,8.987,0,0,1,89.715,361.643Z" transform="translate(-72 -352.564)" fill="#ffdaaa"/><path d="M151.074,359c-.082.042-.164.082-.246.122,0-.022-.011-.047-.018-.069Z" transform="translate(-133.359 -352.136)" fill="#787680"/><path d="M103.086,440v3.543a3.543,3.543,0,0,1-7.086,0V440Z" transform="translate(-90.686 -415.199)" fill="#ffdaaa"/></g><path d="M77.642,459.891h0a21.25,21.25,0,0,1-27.307,0h0A8.387,8.387,0,0,1,56.9,456h3.543a3.543,3.543,0,1,0,7.086,0h3.543A8.387,8.387,0,0,1,77.642,459.891Z" transform="translate(-42.727 -358.566)" fill="#006df0"/><path d="M58.511,325.249a21.209,21.209,0,0,1-7.6,16.291,8.387,8.387,0,0,0-6.57-3.891H40.8a3.543,3.543,0,0,1-7.086,0H30.168a8.387,8.387,0,0,0-6.57,3.891,21.258,21.258,0,1,1,34.914-16.291Z" transform="translate(-15.995 -240.216)" fill="#78b9eb"/><g transform="translate(12.402 69.09)"><path d="M89.469,334.986C78.977,340.152,72,338.407,72,338.407v-1.55A8.861,8.861,0,0,1,80.857,328a8.7,8.7,0,0,1,6.262,2.706,9.234,9.234,0,0,1,2.332,4.212C89.458,334.94,89.465,334.964,89.469,334.986Z" transform="translate(-72 -328)" fill="#3e3d42"/><path d="M89.715,361.643v6.865a8.857,8.857,0,1,1-17.715,0v-5.536s6.977,1.745,17.469-3.421A8.987,8.987,0,0,1,89.715,361.643Z" transform="translate(-72 -352.564)" fill="#ffdaaa"/><path d="M151.074,359c-.082.042-.164.082-.246.122,0-.022-.011-.047-.018-.069Z" transform="translate(-133.359 -352.136)" fill="#787680"/><path d="M103.086,440v3.543a3.543,3.543,0,0,1-7.086,0V440Z" transform="translate(-90.686 -415.199)" fill="#ffdaaa"/></g><path d="M363.642,459.891h0a21.25,21.25,0,0,1-27.307,0h0A8.387,8.387,0,0,1,342.9,456h3.543a3.543,3.543,0,0,0,7.086,0h3.543A8.387,8.387,0,0,1,363.642,459.891Z" transform="translate(-265.397 -358.566)" fill="#006df0"/><path d="M344.511,325.249a21.209,21.209,0,0,1-7.6,16.291,8.387,8.387,0,0,0-6.57-3.891H326.8a3.543,3.543,0,0,1-7.086,0h-3.543a8.387,8.387,0,0,0-6.57,3.891,21.258,21.258,0,1,1,34.914-16.291Z" transform="translate(-238.664 -240.216)" fill="#ff9811"/><g transform="translate(75.732 69.09)"><path d="M375.469,334.986C364.977,340.152,358,338.407,358,338.407v-1.55A8.861,8.861,0,0,1,366.857,328a8.7,8.7,0,0,1,6.262,2.706,9.234,9.234,0,0,1,2.332,4.212C375.458,334.94,375.465,334.964,375.469,334.986Z" transform="translate(-358 -328)" fill="#3e3d42"/><path d="M375.715,361.643v6.865a8.857,8.857,0,1,1-17.715,0v-5.536s6.977,1.745,17.469-3.421A8.987,8.987,0,0,1,375.715,361.643Z" transform="translate(-358 -352.564)" fill="#ffdaaa"/><path d="M437.074,359c-.082.042-.164.082-.246.122,0-.022-.011-.047-.018-.069Z" transform="translate(-419.359 -352.136)" fill="#787680"/><path d="M389.086,440v3.543a3.543,3.543,0,0,1-7.086,0V440Z" transform="translate(-376.686 -415.199)" fill="#ffdaaa"/></g></g><g transform="translate(8.008 7.999)"><path d="M94.809,71.772A23.062,23.062,0,0,0,71.846,93.03H64.694V75.315h1.771a1.771,1.771,0,0,0,1.771-1.771V70H81.523a4.433,4.433,0,0,0,4.429-4.429V60.258a4.433,4.433,0,0,0-4.429-4.429H68.237V52.286a1.771,1.771,0,0,0-1.771-1.771H64.694V32.8h7.152a23.029,23.029,0,1,0,0-3.543H54A23.029,23.029,0,1,0,54,32.8h7.152V50.514H59.379a1.771,1.771,0,0,0-1.771,1.771v3.543H44.322a4.433,4.433,0,0,0-4.429,4.429v5.314A4.433,4.433,0,0,0,44.322,70H57.608v3.543a1.771,1.771,0,0,0,1.771,1.771h1.771V93.03H54a23.029,23.029,0,1,0,0,3.543H71.846a23.029,23.029,0,1,0,22.963-24.8Zm0-21.258A19.369,19.369,0,0,1,83.717,47.04a5.867,5.867,0,0,1,4.006-1.84H89.8a5.312,5.312,0,0,0,10.018,0h2.077a5.867,5.867,0,0,1,4.006,1.84A19.369,19.369,0,0,1,94.809,50.514Zm-5.68-22.967a32.945,32.945,0,0,0,12.766-2.832v6.313a7.086,7.086,0,1,1-14.172,0V27.5C88.139,27.53,88.606,27.547,89.129,27.547Zm-1.406-3.6v-.009a7.093,7.093,0,0,1,7.086-7.086,7.179,7.179,0,0,1,6.424,4.283,31.882,31.882,0,0,1-10.343,2.795,20.454,20.454,0,0,1-3.167.018ZM96.58,41.507v1.922a1.771,1.771,0,0,1-3.543,0V41.507A10.5,10.5,0,0,0,96.58,41.507ZM94.809,11.542a19.477,19.477,0,0,1,13.818,33.213,9.482,9.482,0,0,0-6.732-3.1h-1.771v-1.43a10.632,10.632,0,0,0,5.314-9.2V23.942c0-.051,0-.1-.007-.151a10.892,10.892,0,0,0-3.085-7.232,10.419,10.419,0,0,0-7.538-3.246A10.64,10.64,0,0,0,84.18,23.942v7.086a10.632,10.632,0,0,0,5.314,9.2v1.43H87.723a9.482,9.482,0,0,0-6.732,3.1A19.477,19.477,0,0,1,94.809,11.542ZM31.036,50.514A19.369,19.369,0,0,1,19.944,47.04,5.867,5.867,0,0,1,23.95,45.2h2.077a5.312,5.312,0,0,0,10.018,0h2.077a5.867,5.867,0,0,1,4.006,1.84,19.369,19.369,0,0,1-11.092,3.474Zm-5.68-22.967a32.945,32.945,0,0,0,12.766-2.832v6.313a7.086,7.086,0,1,1-14.172,0V27.5C24.366,27.53,24.833,27.547,25.356,27.547Zm-1.406-3.6v-.009a7.093,7.093,0,0,1,7.086-7.086,7.179,7.179,0,0,1,6.424,4.283,31.882,31.882,0,0,1-10.343,2.795,20.454,20.454,0,0,1-3.167.018Zm8.857,17.555v1.922a1.771,1.771,0,0,1-3.543,0V41.507A10.5,10.5,0,0,0,32.807,41.507Zm12.046,3.248a9.482,9.482,0,0,0-6.732-3.1H36.35v-1.43a10.632,10.632,0,0,0,5.314-9.2V23.942c0-.051,0-.1-.007-.151a10.892,10.892,0,0,0-3.085-7.232,10.419,10.419,0,0,0-7.538-3.246A10.64,10.64,0,0,0,20.407,23.942v7.086a10.632,10.632,0,0,0,5.314,9.2v1.43H23.95a9.482,9.482,0,0,0-6.732,3.1,19.486,19.486,0,1,1,27.635,0ZM31.036,114.288a19.369,19.369,0,0,1-11.092-3.474,5.867,5.867,0,0,1,4.006-1.84h2.077a5.312,5.312,0,0,0,10.018,0h2.077a5.867,5.867,0,0,1,4.006,1.84,19.369,19.369,0,0,1-11.092,3.474Zm-5.68-22.967a32.945,32.945,0,0,0,12.766-2.832V94.8a7.086,7.086,0,0,1-14.172,0V91.276C24.366,91.3,24.833,91.321,25.356,91.321Zm-1.406-3.6v-.009a7.094,7.094,0,0,1,7.086-7.086,7.179,7.179,0,0,1,6.424,4.283,31.882,31.882,0,0,1-10.343,2.795,20.452,20.452,0,0,1-3.167.018Zm8.857,17.555V107.2a1.771,1.771,0,1,1-3.543,0V105.28a10.5,10.5,0,0,0,3.543,0Zm12.046,3.248a9.482,9.482,0,0,0-6.732-3.1H36.35V104a10.632,10.632,0,0,0,5.314-9.2V87.716c0-.051,0-.1-.007-.151a10.892,10.892,0,0,0-3.085-7.232,10.428,10.428,0,0,0-7.538-3.246A10.64,10.64,0,0,0,20.407,87.716V94.8a10.632,10.632,0,0,0,5.314,9.2v1.43H23.95a9.482,9.482,0,0,0-6.732,3.1,19.486,19.486,0,1,1,27.635,0Zm16.3-54.471h3.543v1.771H61.151Zm-16.829,12.4a.886.886,0,0,1-.886-.886V60.258a.886.886,0,0,1,.886-.886h37.2a.886.886,0,0,1,.886.886v5.314a.886.886,0,0,1-.886.886ZM61.151,70h3.543v1.771H61.151Zm33.658,44.287a19.369,19.369,0,0,1-11.092-3.474,5.867,5.867,0,0,1,4.006-1.84H89.8a5.312,5.312,0,0,0,10.018,0h2.077a5.867,5.867,0,0,1,4.006,1.84A19.369,19.369,0,0,1,94.809,114.288Zm-5.68-22.967a32.945,32.945,0,0,0,12.766-2.832V94.8a7.086,7.086,0,0,1-14.172,0V91.276C88.139,91.3,88.606,91.321,89.129,91.321Zm-1.406-3.6v-.009a7.094,7.094,0,0,1,7.086-7.086,7.179,7.179,0,0,1,6.424,4.283,31.882,31.882,0,0,1-10.343,2.795,20.452,20.452,0,0,1-3.167.018ZM96.58,105.28V107.2a1.771,1.771,0,1,1-3.543,0V105.28a10.5,10.5,0,0,0,3.543,0Zm12.046,3.248a9.482,9.482,0,0,0-6.732-3.1h-1.771V104a10.632,10.632,0,0,0,5.314-9.2V87.716c0-.051,0-.1-.007-.151a10.892,10.892,0,0,0-3.085-7.232,10.428,10.428,0,0,0-7.538-3.246A10.64,10.64,0,0,0,84.18,87.716V94.8a10.632,10.632,0,0,0,5.314,9.2v1.43H87.723a9.482,9.482,0,0,0-6.732,3.1,19.486,19.486,0,1,1,27.635,0Z" transform="translate(-8.008 -7.999)"/><circle cx="1.771" cy="1.771" r="1.771" transform="translate(37.199 53.145)"/><circle cx="1.771" cy="1.771" r="1.771" transform="translate(42.514 53.145)"/><circle cx="1.771" cy="1.771" r="1.771" transform="translate(47.828 53.145)"/><path d="M273.772,251.543H284.4a1.771,1.771,0,1,0,0-3.543H273.772a1.771,1.771,0,1,0,0,3.543Z" transform="translate(-213.543 -194.855)"/></g></g></svg>