<svg xmlns="http://www.w3.org/2000/svg" width="122" height="122" viewBox="0 0 122 122"><g transform="translate(1.787 1.787)"><path d="M12.706,7.5H54.287a5.206,5.206,0,0,1,5.205,5.205V47.061a5.206,5.206,0,0,1-5.205,5.205h-10.2v7.706l-9.863-7.706H12.706A5.206,5.206,0,0,1,7.5,47.061V12.705A5.206,5.206,0,0,1,12.706,7.5Z" transform="translate(-7.5 -7.5)" fill="#f4fbff"/><g transform="translate(43.573 4.578)"><path d="M193.734,47.8a9.607,9.607,0,0,0-3.37,7.308v7.7a9.566,9.566,0,0,0,.914,4.088h2.3a5.206,5.206,0,0,0,5.206-5.205V27.34a5.242,5.242,0,0,0-.041-.628,23.948,23.948,0,0,0-5.007,14.678Z" transform="translate(-190.364 -26.712)" fill="#dfeaef"/></g></g><g transform="translate(38.374 1.787)"><g transform="translate(14.213 45.252)"><path d="M220.695,197.411h53.412v33.217H220.695Z" transform="translate(-220.695 -197.411)" fill="#934d36"/></g><g transform="translate(0 69.804)"><path d="M210.389,300.447l19.987,5.33a16.849,16.849,0,0,1,12.508,16.28v27.012H161.045V322.057a16.849,16.849,0,0,1,12.508-16.28l19.987-5.33Z" transform="translate(-161.045 -300.447)" fill="#d3effb"/></g><g transform="translate(40.919 69.804)"><path d="M332.772,309.594l4.324,8.918a3.336,3.336,0,0,0,6.121-.274l5.934-15.669-7.955-2.121Z" transform="translate(-332.772 -300.448)" fill="#f4fbff"/></g><g transform="translate(24.54 69.804)"><path d="M280.411,309.594l-4.324,8.918a3.336,3.336,0,0,1-6.121-.274l-5.934-15.669,7.955-2.121Z" transform="translate(-264.031 -300.448)" fill="#f4fbff"/></g><g transform="translate(70.364 75.449)"><path d="M456.345,324.137a16.826,16.826,0,0,1,4.013,10.911v32.066h7.462V340.1A16.847,16.847,0,0,0,456.345,324.137Z" transform="translate(-456.345 -324.137)" fill="#b1e4f9"/></g><g transform="translate(32.495 59.454)"><path d="M297.417,268.082V257.01h16.849v11.072a8.425,8.425,0,1,1-16.849,0Z" transform="translate(-297.417 -257.01)" fill="#fcd0a3"/></g><g transform="translate(32.495 59.454)"><path d="M297.417,262.49a24.068,24.068,0,0,0,16.849,0v-5.48H297.417v5.48Z" transform="translate(-297.417 -257.01)" fill="#ffb983"/></g><g transform="translate(21.663 22.385)"><path d="M251.959,101.445v20a19.256,19.256,0,0,0,38.512,0v-20Z" transform="translate(-251.959 -101.445)" fill="#fcd0a3"/></g><g transform="translate(52.661 22.385)"><path d="M389.562,121.445v-20h-4.573v25.033a19.16,19.16,0,0,1-2.942,10.225A19.22,19.22,0,0,0,389.562,121.445Z" transform="translate(-382.047 -101.445)" fill="#ffb983"/></g><g transform="translate(15.405)"><path d="M225.7,31.57A24.07,24.07,0,0,1,249.765,7.5h6.98a7.221,7.221,0,0,1,7.221,7.221H267.1a9.628,9.628,0,0,1,9.628,9.628V44.328h-6.258l-6.5-12.516-3.438,3.438a9.628,9.628,0,0,1-6.808,2.82h-7.3a19.256,19.256,0,0,0-12.374,4.5l-2.094,1.756H225.7V31.57Z" transform="translate(-225.695 -7.5)" fill="#aa593d"/></g><g transform="translate(59.172 7.515)"><path d="M409.375,39.038a9.585,9.585,0,0,1,1,4.279V68.11l-.122,0,.122.236,6.258-.241V48.372a9.632,9.632,0,0,0-7.262-9.334Z" transform="translate(-409.375 -39.038)" fill="#934d36"/></g><g transform="translate(60.176 28.162)"><path d="M418.4,143.02h-4.814V125.689H418.4a4.814,4.814,0,0,1,4.814,4.814v7.7A4.814,4.814,0,0,1,418.4,143.02Z" transform="translate(-413.586 -125.689)" fill="#e28086"/></g><g transform="translate(12.035 28.162)"><path d="M216.367,143.02h4.814V125.689h-4.814a4.814,4.814,0,0,0-4.814,4.814v7.7A4.814,4.814,0,0,0,216.367,143.02Z" transform="translate(-211.553 -125.689)" fill="#e28086"/></g></g><g transform="translate(1.787 74.479)"><path d="M62.862,348.675H7.5V317.383a4.814,4.814,0,0,1,4.814-4.814H58.048a4.814,4.814,0,0,1,4.814,4.814Z" transform="translate(-7.5 -312.569)" fill="#a0aab7"/><g transform="translate(22.867 13.239)"><circle cx="4.814" cy="4.814" r="4.814" fill="#f4fbff"/></g><g transform="translate(0 36.106)"><path d="M7.5,464.094H67.676v4.814a4.814,4.814,0,0,1-4.814,4.814H12.314A4.814,4.814,0,0,1,7.5,468.908Z" transform="translate(-7.5 -464.094)" fill="#808b95"/></g><g transform="translate(50.548 36.106)"><path d="M224.448,464.094v4.814a4.814,4.814,0,0,1-4.814,4.814h4.814a4.814,4.814,0,0,0,4.814-4.814v-4.814Z" transform="translate(-219.634 -464.094)" fill="#5e6b75"/></g></g><g transform="translate(13.458 9.728)"><circle cx="14.442" cy="14.442" r="14.442" fill="#f6e266"/></g><g transform="translate(0 0)"><path d="M120.213,99.031A1.787,1.787,0,0,0,122,97.244V93.2a18.659,18.659,0,0,0-13.835-18.007l-.379-.1V47.362a6.585,6.585,0,0,0,2.179-4.9v-7.7a6.6,6.6,0,0,0-3.37-5.753V18.636A11.428,11.428,0,0,0,95.18,7.221H93.66A9.024,9.024,0,0,0,84.83,0h-6.98A25.87,25.87,0,0,0,55.566,12.754V6.994A7,7,0,0,0,48.572,0h-30.4a1.787,1.787,0,0,0,0,3.574h30.4a3.423,3.423,0,0,1,3.419,3.419V29.01a6.6,6.6,0,0,0-3.37,5.753v7.7a6.572,6.572,0,0,0,.4,2.269,3.5,3.5,0,0,1-.451.031h-10.2a1.787,1.787,0,0,0-1.787,1.787V50.6L29.61,45.145a1.788,1.788,0,0,0-1.1-.379H6.994a3.422,3.422,0,0,1-3.419-3.417V6.994A3.423,3.423,0,0,1,6.994,3.574H9.821A1.787,1.787,0,0,0,9.821,0H6.994A7,7,0,0,0,0,6.994V41.349A7,7,0,0,0,6.994,48.34h20.9l9.379,7.329a1.787,1.787,0,0,0,2.887-1.408V48.34h8.412a6.988,6.988,0,0,0,2.228-.365V72.692H6.6a6.609,6.609,0,0,0-6.6,6.6V92.27a1.787,1.787,0,0,0,3.574,0V79.293A3.03,3.03,0,0,1,6.6,76.266H52.335a3.03,3.03,0,0,1,3.027,3.027v29.5H3.574v-8.183a1.787,1.787,0,0,0-3.574,0V115.4A6.609,6.609,0,0,0,6.6,122H120.213A1.787,1.787,0,0,0,122,120.213v-14.62a1.787,1.787,0,0,0-3.574,0v12.833H106.114v-7.841a1.787,1.787,0,0,0-3.574,0v7.841H63.012a6.558,6.558,0,0,0,.738-3.027v-4.814a1.787,1.787,0,0,0-1.787-1.787H58.936v-29.5a6.563,6.563,0,0,0-.508-2.537l3.386-.9,5.363,14.161a5.054,5.054,0,0,0,4.562,3.3c.081,0,.162.005.243.005a5.049,5.049,0,0,0,4.6-2.888l2.716-5.6,2.716,5.6a5.048,5.048,0,0,0,4.6,2.888c.08,0,.162,0,.243-.005a5.054,5.054,0,0,0,4.562-3.3l5.363-14.16,10.472,2.792A15.081,15.081,0,0,1,118.426,93.2v4.043a1.787,1.787,0,0,0,1.787,1.787ZM60.176,115.4a3.03,3.03,0,0,1-3.027,3.027H6.6A3.03,3.03,0,0,1,3.574,115.4v-3.027h56.6ZM104.212,74.14,89.505,70.218V62.566a21.2,21.2,0,0,0,7.012-6.318,4.2,4.2,0,0,0,3.82-4.175V49.067h3.027a6.6,6.6,0,0,0,.849-.056ZM79.293,78.95a6.645,6.645,0,0,1-6.637-6.637v-8.17a21.057,21.057,0,0,0,13.275,0v8.17A6.645,6.645,0,0,1,79.293,78.95ZM69.082,70.218,55.888,73.734a6.578,6.578,0,0,0-1.513-.718V49.011a6.648,6.648,0,0,0,.849.056h3.6a21.122,21.122,0,0,0,10.256,13.5ZM52.2,34.764a3.03,3.03,0,0,1,3.027-3.027H58.25V45.493H55.223A3.03,3.03,0,0,1,52.2,42.466Zm39.393-5.677,5.174,9.964v5.122a17.359,17.359,0,0,1-2.227,8.521H82.386a3.574,3.574,0,1,0,0,3.574h9.495A17.456,17.456,0,0,1,61.825,44.173V39.448l1.455-1.22a17.5,17.5,0,0,1,11.226-4.084h7.3A11.342,11.342,0,0,0,89.877,30.8Zm11.775,2.649a3.03,3.03,0,0,1,3.027,3.027v7.7a3.03,3.03,0,0,1-3.027,3.027h-3.027V31.736Zm-.343-13.1v9.526H98.55a1.787,1.787,0,0,0-1.787,1.787v1.345l-2.925-5.633V10.8H95.18a7.85,7.85,0,0,1,7.841,7.841ZM77.849,3.574h6.98a5.44,5.44,0,0,1,5.434,5.434v16.35l-2.914,2.915a7.791,7.791,0,0,1-5.545,2.3h-7.3a21.079,21.079,0,0,0-12.681,4.254V29.95a1.787,1.787,0,0,0-1.787-1.787H55.566v-2.3A22.308,22.308,0,0,1,77.849,3.574Zm-4.488,85.3a1.549,1.549,0,0,1-2.842-.127l-5.234-13.82L69.2,73.885a10.24,10.24,0,0,0,7.412,8.281Zm14.706-.127a1.549,1.549,0,0,1-2.842.127l-3.253-6.71a10.24,10.24,0,0,0,7.412-8.281L93.3,74.929Z" transform="translate(0 0)"/><path d="M109.168,367.229a6.6,6.6,0,1,0-6.6,6.6A6.609,6.609,0,0,0,109.168,367.229Zm-9.628,0a3.027,3.027,0,1,1,3.027,3.027A3.03,3.03,0,0,1,99.54,367.229Z" transform="translate(-73.099 -274.697)"/><path d="M99.936,117.261a1.787,1.787,0,0,0-2.529-2.525,6.383,6.383,0,0,1-9.039,0,1.787,1.787,0,0,0-2.529,2.525,9.958,9.958,0,0,0,14.1,0Z" transform="translate(-64.987 -86.997)"/><path d="M81.439,49.557A16.229,16.229,0,1,0,65.21,65.786,16.247,16.247,0,0,0,81.439,49.557Zm-28.884,0A12.655,12.655,0,1,1,65.21,62.212,12.669,12.669,0,0,1,52.555,49.557Z" transform="translate(-37.31 -25.387)"/><circle cx="2.407" cy="2.407" r="2.407" transform="translate(19.955 18.153)"/><circle cx="2.407" cy="2.407" r="2.407" transform="translate(31.032 18.153)"/></g></svg>