<svg xmlns="http://www.w3.org/2000/svg" width="106.778" height="145.606" viewBox="0 0 106.778 145.606"><path d="M349.867,159.628h2.427a7.28,7.28,0,0,0,7.28-7.28h0a7.28,7.28,0,0,0-7.28-7.28h-2.427" transform="translate(-269.784 -103.812)" fill="#fedac6"/><path d="M137.707,159.628H135.28a7.28,7.28,0,0,1-7.28-7.28h0a7.28,7.28,0,0,1,7.28-7.28h2.427" transform="translate(-111.013 -103.812)" fill="#f5c4b0"/><path d="M162.133,92.613v19.414l.582,7.572a26.235,26.235,0,0,0,28.379,23.9q1.18-.1,2.344-.308A26.7,26.7,0,0,0,215.012,118.6l.51-6.576V92.613l-12.134-7.28Z" transform="translate(-135.439 -61.065)" fill="#fedac6"/><path d="M174.267,131.817V103.424l-12.134,2.135v19.414l.582,7.572a26.111,26.111,0,0,0,22.69,23.734l-4.854-6.31A29.481,29.481,0,0,1,174.267,131.817Z" transform="translate(-135.439 -74.012)" fill="#f5c4b0"/><path d="M178.962,13.387h0A8.765,8.765,0,0,0,171.1,8.533H128a9.707,9.707,0,0,0,9.707,9.707H128a9.707,9.707,0,0,0,9.707,9.707H128a9.707,9.707,0,0,0,9.707,9.707h9.707c11.648,0,23.952-4.417,31.548-7.28a26.368,26.368,0,0,0,12.134,7.28V25.521A12.135,12.135,0,0,0,178.962,13.387Z" transform="translate(-111.013 -6.106)" fill="#a15d30"/><path d="M128.427,80.64a9.705,9.705,0,0,0,9.586,8.615h9.707c8.105,0,24.607-5.023,31.548-7.28C161.844,82.387,136.581,82.314,128.427,80.64Z" transform="translate(-111.318 -57.707)" fill="#8f4f24"/><g transform="translate(26.694 41.255)"><path d="M173.053,162.054h0a10.9,10.9,0,0,1-10.92-10.872v-6.115h21.841v6.067a10.9,10.9,0,0,1-10.872,10.92Z" transform="translate(-162.133 -145.067)" fill="#ebebeb"/><path d="M283.987,162.054h0a10.9,10.9,0,0,1-10.92-10.872v-6.115h21.841v6.067a10.9,10.9,0,0,1-10.872,10.92Z" transform="translate(-241.519 -145.067)" fill="#ebebeb"/></g><path d="M202.506,315.575A22.061,22.061,0,0,0,222.794,302.2l1.092-2.427-4.975-.582a4.855,4.855,0,0,1-4.271-4.854V281.6H190.373v12.668a4.855,4.855,0,0,1-4.271,4.854l-4.854.582,1.092,2.427A22.062,22.062,0,0,0,202.506,315.575Z" transform="translate(-149.118 -201.517)" fill="#fedac6"/><path d="M161.883,346.678l-12.741-1.5-1.092,2.427a22.083,22.083,0,0,1-40.575,0l-1.092-2.427-12.741,1.5A19.415,19.415,0,0,0,76.8,365.922v26.695H178.725V365.922A19.415,19.415,0,0,0,161.883,346.678Z" transform="translate(-74.374 -247.01)" fill="#3cacde"/><path d="M76.8,375.876v26.695h9.707V359.083A19.414,19.414,0,0,0,76.8,375.876Z" transform="translate(-74.373 -256.964)" fill="#329ac7"/><rect width="19.414" height="12.134" transform="translate(2.427 133.472)" fill="#fedac6"/><g transform="translate(2.427 80.083)"><rect width="9.707" height="12.134" transform="translate(0 53.389)" fill="#f5c4b0"/><path d="M237.6,288.88V281.6H213.334v7.28C222.434,293.734,228.5,293.734,237.6,288.88Z" transform="translate(-174.506 -281.6)" fill="#f5c4b0"/></g><rect width="19.414" height="12.134" transform="translate(84.937 133.472)" fill="#fedac6"/><path d="M240.1,166.151h-7.28a2.428,2.428,0,0,1-2.41-2.728l2.427-19.414,4.815.6L235.572,161.3H240.1v4.854Z" transform="translate(-184.288 -103.055)"/><path d="M239.346,233.357h-.413V228.5h.413a14.077,14.077,0,0,0,10.006-4.145l3.431,3.434A18.9,18.9,0,0,1,239.346,233.357Z" transform="translate(-190.398 -160.553)"/><path d="M352.294,155.947h-2.427v-4.854h2.427a4.854,4.854,0,0,0,0-9.707h-2.427v-4.854h2.427a9.707,9.707,0,0,1,0,19.415Z" transform="translate(-269.784 -97.704)"/><path d="M131.6,155.948h-2.427a9.707,9.707,0,0,1,0-19.414H131.6v4.853h-2.427a4.854,4.854,0,0,0,0,9.707H131.6Z" transform="translate(-104.906 -97.706)"/><path d="M182.7,146.022a28.665,28.665,0,0,1-28.5-26.214l-.585-7.593-.007-19.6h4.854v19.414l.575,7.385a23.845,23.845,0,0,0,25.75,21.664c.716-.061,1.424-.155,2.131-.279a24.252,24.252,0,0,0,19.572-22.343l.512-6.615,0-26.505h4.854v26.694l-.517,6.763a29.1,29.1,0,0,1-23.532,26.777c-.886.158-1.742.272-2.6.345C184.356,145.986,183.526,146.022,182.7,146.022Z" transform="translate(-129.332 -61.066)"/><path d="M184.99,33.975a2.446,2.446,0,0,1-.646-.087,28.771,28.771,0,0,1-12.1-6.8c-9.425,3.495-20.319,6.89-30.939,6.89H131.6a12.148,12.148,0,0,1-12.134-12.134,2.428,2.428,0,0,1,2.427-2.427h0a12.085,12.085,0,0,1-2.432-7.28,2.428,2.428,0,0,1,2.427-2.427h0a12.085,12.085,0,0,1-2.432-7.28A2.428,2.428,0,0,1,121.894,0h43.128a11.105,11.105,0,0,1,9.265,4.924,14.582,14.582,0,0,1,13.129,14.49V31.548a2.429,2.429,0,0,1-2.426,2.427Zm-60.254-9.707a7.294,7.294,0,0,0,6.865,4.854h9.707c11.8,0,24.559-4.812,30.691-7.125a2.422,2.422,0,0,1,2.616.6,23.973,23.973,0,0,0,7.945,5.536V19.414a9.717,9.717,0,0,0-9.707-9.707,2.424,2.424,0,0,1-2.172-1.344A6.44,6.44,0,0,0,165,4.854H124.736A7.294,7.294,0,0,0,131.6,9.708a2.427,2.427,0,1,1,0,4.853h-6.865a7.294,7.294,0,0,0,6.865,4.854,2.427,2.427,0,1,1,0,4.853h-6.865Z" transform="translate(-104.906)"/><path d="M166.923,158.374A13.323,13.323,0,0,1,153.6,145.08v-6.12a2.428,2.428,0,0,1,2.427-2.427h21.841a2.428,2.428,0,0,1,2.427,2.427v6.067A13.323,13.323,0,0,1,167,158.374h-.077Zm-8.469-16.987v3.64a8.489,8.489,0,0,0,8.469,8.494H167a8.478,8.478,0,0,0,8.445-8.489v-3.645Z" transform="translate(-129.332 -97.705)"/><path d="M277.856,158.374a13.34,13.34,0,0,1-13.323-13.294v-6.12a2.426,2.426,0,0,1,2.427-2.427H288.8a2.426,2.426,0,0,1,2.427,2.427v6.067a13.323,13.323,0,0,1-13.294,13.347h-.077Zm-8.469-16.987v3.64a8.49,8.49,0,0,0,8.469,8.494h.075a8.468,8.468,0,0,0,8.445-8.486v-3.648Z" transform="translate(-208.718 -97.705)"/><rect width="9.707" height="4.854" transform="translate(48.535 38.828)"/><ellipse cx="4.854" cy="4.854" rx="4.854" ry="4.854" transform="translate(33.975 41.255)"/><ellipse cx="4.854" cy="4.854" rx="4.854" ry="4.854" transform="translate(63.096 41.255)"/><path d="M73.12,347.123H68.267V320.428a21.914,21.914,0,0,1,18.948-21.649l17.752-2.092a2.423,2.423,0,0,0,2.128-2.427V281.6h4.854v12.644a7.271,7.271,0,0,1-6.407,7.263l-17.723,2.087a17.033,17.033,0,0,0-14.7,16.835v26.694Z" transform="translate(-68.267 -201.517)"/><path d="M333.814,347.123H328.96V320.428a17.045,17.045,0,0,0-14.738-16.815l-17.677-2.082a7.279,7.279,0,0,1-6.414-7.283V281.6h4.854v12.668a2.426,2.426,0,0,0,2.135,2.444l17.708,2.087a21.925,21.925,0,0,1,18.985,21.627Z" transform="translate(-227.036 -201.517)"/><path d="M195.441,358.341h-.027a24.451,24.451,0,0,1-22.5-14.842l-1.553-3.613,4.46-1.915,1.553,3.616a19.611,19.611,0,0,0,18.045,11.9h.022a19.614,19.614,0,0,0,18.048-11.9l1.553-3.616,4.46,1.915-1.553,3.616A24.458,24.458,0,0,1,195.441,358.341Z" transform="translate(-142.04 -241.856)"/><rect width="4.854" height="19.414" transform="translate(19.414 126.192)"/><rect width="19.414" height="4.854" transform="translate(2.427 131.046)"/><rect width="4.854" height="19.414" transform="translate(82.51 126.192)"/><rect width="19.414" height="4.854" transform="translate(84.937 131.046)"/></svg>