<svg xmlns="http://www.w3.org/2000/svg" width="134.271" height="145.606" viewBox="0 0 134.271 145.606"><g transform="translate(2.132 2.133)"><path d="M324.54,194.955H288.065V119.726h20.517l15.958,20.517Z" transform="translate(-213.943 -87.81)" fill="#ada4ac"/><path d="M92.43,7.5H83.691c-10.259,0-30.966,9.878-33.245,29.066C49.1,47.9,44.7,49.247,42.277,57.226c-2.6,8.575-.365,13.864-2.565,21.609-2.185,7.694-6.554,9.974-6.364,23.082.22,15.2-8.549,18.617-5.129,28.686C30.771,138.117,40,142,40,142H92.43Z" transform="translate(-27.427 -7.5)" fill="#9b929b"/><path d="M167.368,313.3l-23.545-8.31a9.119,9.119,0,0,1-6.084-8.6V280.049H110.383v16.345a9.119,9.119,0,0,1-6.084,8.6L80.754,313.3a13.678,13.678,0,0,0-9.126,12.9v10.84H176.493V326.2a13.677,13.677,0,0,0-9.125-12.9Z" transform="translate(-59.058 -202.54)" fill="#f2c59a"/><path d="M192.594,280.048v16.345a9.119,9.119,0,0,1-6.084,8.6l2.275,6.45a15.985,15.985,0,0,0,10.649-15.051.881.881,0,0,1,.9-.876,1.066,1.066,0,0,1,.169.014,35.6,35.6,0,0,0,5.768.477,36.167,36.167,0,0,0,13.678-2.71V280.048H192.594Z" transform="translate(-141.269 -202.539)" fill="#e6b287"/><path d="M181.426,145.756A29.636,29.636,0,0,1,151.79,116.12V79.645h59.272V116.12a29.636,29.636,0,0,1-29.636,29.636Z" transform="translate(-116.423 -59.128)" fill="#f9d8af"/><path d="M151.79,116.12a29.567,29.567,0,0,0,39.8,27.81l-5.253-.813a27.179,27.179,0,0,1-23.145-27v-.758a6.856,6.856,0,0,1,.959-3.337,17.577,17.577,0,0,0,2.1-10.155c-.307-3.853.707-5.392.893-5.639l14.619-14,1.675-1.6-.977-.987H151.79Z" transform="translate(-116.423 -59.128)" fill="#f2c59a"/><path d="M60.694,105.969c6.127-.557,13.926-4.827,11.512-15.411-1.184-5.191-.9-10.043,1.114-12.131,3.342-3.466,13.219-5.949,12.44-15.721-.681-8.541,3.28-11.388,3.28-11.388L100.013,40.8,83.537,24.157c-8.4,4.688-16.4,12.82-17.763,24.329-1.347,11.333-5.747,12.681-8.169,20.66C55,77.72,57.24,83.009,55.041,90.755c-1.883,6.634-5.385,9.258-6.194,18.253Z" transform="translate(-42.755 -19.42)" fill="#ada4ac"/><path d="M259.261,130.6c3.419-10.069-5.35-13.485-5.129-28.686.19-13.108-4.18-15.388-6.364-23.082-2.2-7.746.038-13.035-2.565-21.609-2.422-7.979-6.822-9.327-8.169-20.66C234.754,17.378,214.047,7.5,203.788,7.5H186.311c-4.106,0-9.881,1.609-15.483,4.737l1.543,10.2s.99,9.284,11.141,8.788c11.077-.54,14.15,3.5,17.949,6.808,7.674,6.684,12.423,3.644,19.806,8.665,6.189,4.209,1.3,11.556,9.16,17.453,4.9,3.677,8.672,12.382,2.154,24.28a129.089,129.089,0,0,0-10.673,24.836l-1.78,5.934,13.86,22.8h13.5S256.709,138.117,259.261,130.6Z" transform="translate(-130.047 -7.5)" fill="#b5afb5"/><path d="M89.866,398.746h68.492l18.135-6.839v-10.84a13.677,13.677,0,0,0-9.126-12.9l-23.545-8.31a9.09,9.09,0,0,1-4.245-3.134,61.693,61.693,0,0,1-15.511,11.826,61.7,61.7,0,0,1-15.517-11.832,9.089,9.089,0,0,1-4.25,3.14l-23.545,8.31a13.678,13.678,0,0,0-9.126,12.9v10.84Z" transform="translate(-59.058 -257.406)" fill="#d8d5d8"/><path d="M78.468,381.067a6.851,6.851,0,0,1,4.563-6.45l23.545-8.311a15.9,15.9,0,0,0,6.976-4.944c-1.666-1.421-3.336-2.961-5-4.644a9.09,9.09,0,0,1-4.25,3.14l-23.545,8.31a13.678,13.678,0,0,0-9.126,12.9v10.84a6.839,6.839,0,0,0,6.839,6.839V381.067Z" transform="translate(-59.059 -257.405)" fill="#c7c2c6"/><g transform="translate(12.673 99.313)"><path d="M183.4,382.356a6.858,6.858,0,0,0,5.328,0c8.55-3.594,16.974-10.208,25.136-19.661l-8.042-2.838a9.091,9.091,0,0,1-4.245-3.134,61.7,61.7,0,0,1-15.511,11.826,61.7,61.7,0,0,1-15.517-11.832,9.089,9.089,0,0,1-4.25,3.14l-8.033,2.835c8.161,9.452,16.585,16.07,25.135,19.664Z" transform="translate(-133.728 -356.717)" fill="#e9e7e9"/><path d="M394.736,420.138a13.629,13.629,0,0,0-3.275-8.821l-11.69,10.059a9.118,9.118,0,0,0-3.171,6.912v9.529h18.135V420.138Z" transform="translate(-289.972 -395.789)" fill="#e9e7e9"/><path d="M71.988,420.138a13.629,13.629,0,0,1,3.275-8.821l11.69,10.059a9.118,9.118,0,0,1,3.171,6.912v9.529h-11.4Z" transform="translate(-71.988 -395.789)" fill="#e9e7e9"/></g><path d="M78.724,437.367V420.138a6.842,6.842,0,0,1,1.655-4.417l-5.118-4.4a13.63,13.63,0,0,0-3.275,8.821v17.679h6.737Z" transform="translate(-59.315 -296.477)" fill="#d8d5d8"/><path d="M170.548,356.718a9.091,9.091,0,0,1-4.25,3.14l-8.033,2.835c1.684,1.95,3.381,3.749,5.086,5.456l5.224-1.844a15.9,15.9,0,0,0,6.976-4.944C173.883,359.941,172.214,358.4,170.548,356.718Z" transform="translate(-121.056 -257.405)" fill="#d8d5d8"/></g><g transform="translate(0 0)"><path d="M233.424,247.03c3.384,0,6.5-1.082,8.337-2.894a2.133,2.133,0,1,0-3-3.036,9.4,9.4,0,0,1-10.682,0,2.133,2.133,0,0,0-3,3.036C226.924,245.948,230.04,247.03,233.424,247.03Z" transform="translate(-166.288 -172.094)"/><path d="M202.536,184.371A2.133,2.133,0,0,0,200.4,186.5v2.28a2.133,2.133,0,0,0,4.266,0V186.5A2.133,2.133,0,0,0,202.536,184.371Z" transform="translate(-149.079 -131.938)"/><path d="M298.73,184.371A2.133,2.133,0,0,0,296.6,186.5v2.28a2.133,2.133,0,0,0,4.266,0V186.5A2.133,2.133,0,0,0,298.73,184.371Z" transform="translate(-217.916 -131.938)"/><path d="M192.519,158.945a2.131,2.131,0,0,0,2.741,1.259l4.559-1.689a2.133,2.133,0,0,0-1.481-4l-4.559,1.689A2.133,2.133,0,0,0,192.519,158.945Z" transform="translate(-143.341 -110.478)"/><path d="M289.971,158.517l4.559,1.689a2.133,2.133,0,1,0,1.481-4l-4.559-1.689a2.133,2.133,0,1,0-1.481,4Z" transform="translate(-212.178 -110.479)"/><path d="M151.692,111.565c-1.647-3.795-3.513-8.1-3.413-14.984.135-9.307-1.945-13.542-3.956-17.638a34.292,34.292,0,0,1-2.488-6.057,34.021,34.021,0,0,1-1.045-9.5,39.888,39.888,0,0,0-1.531-12.141,32.613,32.613,0,0,0-3.718-7.886,26.847,26.847,0,0,1-4.374-12.406c-1.368-11.517-8.641-18.976-14.5-23.206C110.152,3.039,101.962,0,95.8,0H78.326C72.167,0,63.977,3.039,57.463,7.741c-5.86,4.23-13.132,11.689-14.5,23.206a26.847,26.847,0,0,1-4.374,12.406,32.623,32.623,0,0,0-3.718,7.886A39.889,39.889,0,0,0,33.34,63.38a34.019,34.019,0,0,1-1.045,9.5,34.352,34.352,0,0,1-2.488,6.057c-2.011,4.1-4.091,8.331-3.956,17.638.1,6.888-1.767,11.189-3.413,14.984-1.869,4.307-3.634,8.375-1.6,14.357,2.245,6.61,8.835,10.6,11.665,12.056v5.5a2.133,2.133,0,0,0,4.266,0V125.794a11.518,11.518,0,0,1,1.558-5.78L48.4,128.651a6.978,6.978,0,0,1,2.439,5.3v9.518a2.133,2.133,0,0,0,4.266,0v-9.518a11.24,11.24,0,0,0-3.929-8.543L41.1,116.78a11.5,11.5,0,0,1,3.364-1.872L58.372,110c8.176,9.193,16.7,15.619,25.336,19.1a8.972,8.972,0,0,0,6.713,0c8.639-3.485,17.16-9.913,25.336-19.106l13.905,4.908a11.5,11.5,0,0,1,3.47,1.956l-9.974,8.549a11.238,11.238,0,0,0-3.929,8.543v9.518a2.133,2.133,0,1,0,4.266,0v-9.518a6.978,6.978,0,0,1,2.439-5.3l9.94-8.52a11.517,11.517,0,0,1,1.49,5.663v17.679a2.133,2.133,0,0,0,4.266,0v-5.5c2.83-1.453,9.42-5.446,11.665-12.056,2.031-5.982.266-10.05-1.6-14.357ZM88.823,125.15a4.722,4.722,0,0,1-3.519,0c-7.621-3.074-15.2-8.684-22.572-16.688l5.28-1.864a11.211,11.211,0,0,0,3.8-2.269A56.627,56.627,0,0,0,86.1,115.181a2.134,2.134,0,0,0,1.925,0,56.628,56.628,0,0,0,14.289-10.853,11.207,11.207,0,0,0,3.8,2.269l5.28,1.864c-7.368,8-14.953,13.614-22.574,16.689Zm10.908-24.277a54.837,54.837,0,0,1-12.667,10,54.819,54.819,0,0,1-12.667-10,11.213,11.213,0,0,0,1.122-4.886V88.722a31.768,31.768,0,0,0,23.091,0v7.266a11.215,11.215,0,0,0,1.121,4.885Zm49.525,23.677c-1.352,3.98-4.99,6.867-7.626,8.515v-7.271a15.835,15.835,0,0,0-10.549-14.91l-23.545-8.31a7,7,0,0,1-4.661-6.588V86.673a31.789,31.789,0,0,0,15.958-27.547v-.742a16.14,16.14,0,0,0,2.327,2.111c6.818,5.113,7.737,10.9,2.889,18.215a2.182,2.182,0,0,0,.386,2.9,2.133,2.133,0,0,0,3.122-.471c6.158-9.237,4.831-17.555-3.837-24.056-3.472-2.6-3.958-5.483-4.473-8.532s-1.095-6.482-4.767-8.98a25.242,25.242,0,0,0-9.639-3.826c-3.308-.737-6.165-1.374-9.965-4.683-.387-.338-.767-.683-1.149-1.03-3.519-3.2-7.508-6.827-18.3-6.3-7.816.385-8.825-6.131-8.917-6.894a2.133,2.133,0,0,0-4.241.462c.012.113,1.339,11.279,13.365,10.693,9.031-.44,12.04,2.3,15.227,5.2.4.367.807.733,1.217,1.091,4.616,4.021,8.288,4.839,11.838,5.63a21.068,21.068,0,0,1,8.168,3.19,5.555,5.555,0,0,1,2.488,3.781c0,.009,0,.017,0,.025v11.87a27.5,27.5,0,1,1-55.006.351V58.9c3.85-2.607,8.2-6.516,7.631-13.646a13.84,13.84,0,0,1,2.286-9.374,2.243,2.243,0,0,0,.062-2.521,2.066,2.066,0,0,0-3.4-.114,18,18,0,0,0-3.2,12.349c.468,5.877-3.686,8.493-7.7,11.023a22.368,22.368,0,0,0-4.146,3.047C48.624,62.216,48,67.482,49.433,73.744c.8,3.487.393,6.365-1.2,8.554a11.677,11.677,0,0,1-8.385,4.255,2.174,2.174,0,0,0-1.984,2.16,2.134,2.134,0,0,0,2.13,2.1q.1,0,.2-.009c4.786-.435,9.083-2.678,11.495-6,2.311-3.183,2.969-7.335,1.9-12.009-1.215-5.326-.556-9.008.57-10.176a8.993,8.993,0,0,1,1.231-1.012A31.813,31.813,0,0,0,71.253,86.672v9.315a7,7,0,0,1-4.661,6.588l-23.545,8.31A15.835,15.835,0,0,0,32.5,125.795v7.271c-2.636-1.649-6.274-4.536-7.626-8.515-1.5-4.422-.317-7.153,1.477-11.287,1.728-3.982,3.879-8.938,3.766-16.744-.12-8.283,1.648-11.884,3.52-15.7A38.27,38.27,0,0,0,36.4,74.051,37.967,37.967,0,0,0,37.606,63.43a35.867,35.867,0,0,1,1.347-10.951,28.69,28.69,0,0,1,3.294-6.931A30.811,30.811,0,0,0,47.2,31.45C48.384,21.47,54.793,14.93,59.96,11.2,66.6,6.41,73.965,4.266,78.326,4.266H95.8c6.051,0,13.585,3.483,18.367,6.934,5.167,3.73,11.575,10.271,12.761,20.251a30.811,30.811,0,0,0,4.952,14.1,28.69,28.69,0,0,1,3.294,6.931,35.866,35.866,0,0,1,1.347,10.951,37.957,37.957,0,0,0,1.207,10.621,38.271,38.271,0,0,0,2.763,6.772c1.872,3.812,3.64,7.413,3.52,15.7-.113,7.806,2.037,12.762,3.766,16.744C149.573,117.4,150.758,120.128,149.256,124.55Z" transform="translate(-19.929 0)"/></g></svg>