<svg xmlns="http://www.w3.org/2000/svg" width="123.521" height="145.595" viewBox="0 0 123.521 145.595"><path d="M275.887,261.412V272.56l-12.479,9.4-12.479-9.4V261.412Z" transform="translate(-190.605 -187.07)" fill="#fed2a4"/><path d="M256.616,272.56V261.412h-5.688V272.56l12.479,9.4,2.844-2.141Z" transform="translate(-190.604 -187.07)" fill="#ffbd86"/><path d="M68.545,166.578H50.576a4.266,4.266,0,0,1-4.266-4.266v-27a4.266,4.266,0,0,1,4.266-4.266h17.97a4.266,4.266,0,0,1,4.266,4.266v13.5l8.834,8.935H72.811v4.568a4.266,4.266,0,0,1-4.266,4.266Z" transform="translate(-44.177 -93.775)" fill="#75cc77"/><path d="M69.606,314.426H78.44v-9.4a4.417,4.417,0,0,0-8.834,0Z" transform="translate(-60.848 -215.122)" fill="#fed2a4"/><path d="M76.159,301.162a4.418,4.418,0,0,0-6.553,3.867v9.4h4.266v-9.4A4.417,4.417,0,0,1,76.159,301.162Z" transform="translate(-60.848 -215.122)" fill="#ffbd86"/><path d="M70.826,340.927a4.266,4.266,0,0,0,4.266-4.266v-4.568l16.18-21a8.531,8.531,0,0,1,3.771-2.785l20.581-7.694,12.47,9.4,12.47-9.4,27.876,8.782a11.939,11.939,0,0,1,8.239,11.353v37.838H92.759V336.51L77.624,354.8a8.532,8.532,0,0,1-7.1,3.8h-.153a8.531,8.531,0,0,1-8.532-8.532v-9.136Z" transform="translate(-55.291 -215.122)" fill="#42a5f5"/><g transform="translate(6.55 85.49)"><path d="M307.653,310.008l10.793-8.133-4.011-1.264-9.626,7.253Z" transform="translate(-235.712 -300.612)" fill="#0593fc"/><path d="M170.559,411.017h5.688v26.574h-5.688Z" transform="translate(-139.641 -379.619)" fill="#0593fc"/><path d="M67.53,350.063v-9.136h8.985a4.266,4.266,0,0,0,4.266-4.266v-4.568l16.18-21a8.533,8.533,0,0,1,3.771-2.785l16.779-6.272-1.886-1.421-20.581,7.694a8.531,8.531,0,0,0-3.771,2.785l-16.18,21v4.568a4.266,4.266,0,0,1-4.266,4.266H61.842v9.136a8.532,8.532,0,0,0,8.532,8.532h.153a8.539,8.539,0,0,0,2.765-.46,8.54,8.54,0,0,1-5.762-8.071Z" transform="translate(-61.842 -300.612)" fill="#0593fc"/></g><path d="M170.559,411.017h66.253v17.751H170.559Z" transform="translate(-133.091 -294.129)" fill="#ffca28"/><path d="M170.559,411.017h5.688v17.751h-5.688Z" transform="translate(-133.091 -294.129)" fill="#f9b916"/><path d="M193.827,131.752h-4.283a5.943,5.943,0,0,0-5.943,5.943v4.453a5.943,5.943,0,0,0,5.943,5.943h4.283Z" transform="translate(-142.424 -94.283)" fill="#fed2a4"/><path d="M370.056,131.752h4.283a5.943,5.943,0,0,1,5.943,5.943v4.453a5.943,5.943,0,0,1-5.943,5.943h-4.283Z" transform="translate(-275.854 -94.283)" fill="#fed2a4"/><path d="M219.559,108.883v20.55A19.767,19.767,0,0,0,239.327,149.2h3.265a19.768,19.768,0,0,0,19.768-19.768V109.085l-21.4-9.008Z" transform="translate(-168.156 -71.616)" fill="#fff3de"/><path d="M225.247,129.433v-20.55l18.524-7.622-2.812-1.184-21.4,8.806v20.55A19.767,19.767,0,0,0,239.327,149.2h3.265c.407,0,.811-.016,1.211-.04A19.766,19.766,0,0,1,225.247,129.433Z" transform="translate(-168.156 -71.616)" fill="#ffe5c2"/><path d="M191.469,65.064h9.814a8.531,8.531,0,0,0,8.532-8.532V38.562h-5.549a12.8,12.8,0,0,0-12.8,12.8Z" transform="translate(-148.055 -27.595)" fill="#546e7a"/><path d="M209.814,38.565v0h-5.549a12.8,12.8,0,0,0-12.8,12.8v13.7h5.688v-13.7a12.8,12.8,0,0,1,12.658-12.794Z" transform="translate(-148.054 -27.595)" fill="#435860"/><path d="M278.989,7.5A17.512,17.512,0,0,1,296.5,25.015V42.837H264.511a8.531,8.531,0,0,1-8.532-8.532V16.034A8.531,8.531,0,0,1,264.511,7.5h14.478Z" transform="translate(-194.219 -5.369)" fill="#546e7a"/><path d="M261.667,34.3V16.033A8.532,8.532,0,0,1,270.2,7.5h-5.688a8.532,8.532,0,0,0-8.532,8.532V34.3a8.531,8.531,0,0,0,8.532,8.532H270.2a8.532,8.532,0,0,1-8.532-8.532Z" transform="translate(-194.219 -5.368)" fill="#435860"/><path d="M50.576,375.688h9.136a4.266,4.266,0,0,0,4.266-4.266v-17.97a4.266,4.266,0,0,0-4.266-4.266H50.576a4.266,4.266,0,0,0-4.266,4.266v17.97A4.266,4.266,0,0,0,50.576,375.688Z" transform="translate(-44.177 -249.883)" fill="#fff3de"/><path d="M52,371.422v-17.97a4.266,4.266,0,0,1,4.266-4.266H50.577a4.266,4.266,0,0,0-4.266,4.266v17.97a4.266,4.266,0,0,0,4.266,4.266h5.688A4.266,4.266,0,0,1,52,371.422Z" transform="translate(-44.178 -249.883)" fill="#ffe5c2"/><g transform="translate(0 0)"><path d="M321.824,158.662a2.133,2.133,0,0,0,2.133-2.133v-2.8a2.133,2.133,0,1,0-4.266,0v2.8A2.133,2.133,0,0,0,321.824,158.662Z" transform="translate(-239.812 -108.485)"/><path d="M257.206,158.662a2.133,2.133,0,0,0,2.133-2.133v-2.8a2.133,2.133,0,0,0-4.266,0v2.8A2.133,2.133,0,0,0,257.206,158.662Z" transform="translate(-193.571 -108.485)"/><path d="M275.982,211.838a7.491,7.491,0,0,0,7.482-7.482,2.133,2.133,0,1,0-4.266,0,3.216,3.216,0,1,1-6.432,0,2.133,2.133,0,0,0-4.266,0A7.491,7.491,0,0,0,275.982,211.838Z" transform="translate(-203.179 -144.713)"/><path d="M160.2,114.372a2.133,2.133,0,0,0,2.133-2.133v-6.615A14.046,14.046,0,0,0,152.6,92.237l-26.375-8.309V75.443a23,23,0,0,0,8.921-19.5c4.893.376,10.225-2.525,10.225-8.076V43.412a8.044,8.044,0,0,0-2.188-5.519c.028-.137.042-6.084.042-6.084a2.133,2.133,0,0,0-4.266,0v3.526H109.1a6.406,6.406,0,0,1-6.4-6.4V10.665a6.406,6.406,0,0,1,6.4-6.4H123.58a15.4,15.4,0,0,1,15.38,15.38v2.867a2.133,2.133,0,1,0,4.266,0V19.645A19.667,19.667,0,0,0,123.58,0H109.1A10.68,10.68,0,0,0,98.6,8.834H95.022a14.947,14.947,0,0,0-14.93,14.93s.012,13.934.03,14.046a8.047,8.047,0,0,0-2.267,5.6v4.453c0,5.465,5.307,8.495,10.226,8.076A22.675,22.675,0,0,0,97,75.443v8.57L77.812,91.185A10.673,10.673,0,0,0,73.1,94.667L60.743,110.709V103.57a6.384,6.384,0,0,0-2.209-4.83V89.906a6.55,6.55,0,1,0-13.1,0v7.264c-4.492,0-6.625,2.521-6.625,6.4v17.97a6.409,6.409,0,0,0,4.416,6.083v7.32c0,10.259,13.251,14.717,19.626,6.012L74.145,127.31v16.152a2.133,2.133,0,0,0,2.133,2.133H160.2a2.133,2.133,0,0,0,2.133-2.133V121.536a2.133,2.133,0,0,0-4.266,0v19.793h-13.4v-28.3a2.133,2.133,0,0,0-4.266,0v1.727H78.411v-2.2a2.133,2.133,0,0,0-4.266,0v8.065L59.5,138.314c-3.492,4.215-12.008,4.342-12.008-3.372v-7h6.776v2.284a2.133,2.133,0,1,0,4.266,0v-3.853a6.385,6.385,0,0,0,2.21-4.831V117.7L76.48,97.27a6.411,6.411,0,0,1,2.828-2.091L98.787,87.9l11.542,8.691a2.233,2.233,0,0,0,2.7-.1L124.5,87.855,151.3,96.3a9.785,9.785,0,0,1,6.767,9.325v6.615a2.133,2.133,0,0,0,2.133,2.133Zm-19.8,4.65v13.486H103.781a2.133,2.133,0,0,0,0,4.266H140.4v4.556H78.411v-4.556H94.487a2.133,2.133,0,0,0,0-4.266H78.411V119.022ZM49.7,89.907a2.284,2.284,0,1,1,4.568,0v7.264H49.7ZM43.076,103.57a2.135,2.135,0,0,1,2.133-2.133h9.136a2.135,2.135,0,0,1,2.133,2.133v2.435h-6.7a2.133,2.133,0,0,0,0,4.266h6.7v4.568h-6.7a2.133,2.133,0,1,0,0,4.266h6.7v2.435c0,1.422-.863,2.036-2.131,2.132H45.209a2.135,2.135,0,0,1-2.133-2.133Zm98.029-55.705a3.814,3.814,0,0,1-3.81,3.81h-2.15V39.6h2.15a3.814,3.814,0,0,1,3.81,3.81Zm-56.748-24.1A10.676,10.676,0,0,1,95.022,13.1h3.416V28.936h0a6.406,6.406,0,0,1-6.4,6.4H84.357Zm1.572,27.911a3.814,3.814,0,0,1-3.81-3.81V43.412a3.814,3.814,0,0,1,3.81-3.81h2.15V51.675h-2.15Zm6.416,6.142V39.594a10.654,10.654,0,0,0,8.225-4.266A10.655,10.655,0,0,0,109.1,39.6h21.778V57.816c0,23.437-38.534,23.41-38.534,0ZM121.958,77.9V84.42l-10.345,7.8-10.346-7.8V77.9c5.086,3.051,15.229,2.862,20.692,0Z" transform="translate(-38.81 0)"/><path d="M67.149,182.964a2.133,2.133,0,0,0,3.016,0L79,174.13a2.133,2.133,0,0,0-3.016-3.017l-7.325,7.326-2.909-2.909a2.133,2.133,0,1,0-3.016,3.017Z" transform="translate(-55.482 -122.004)"/><path d="M45.21,163.344h17.97a6.406,6.406,0,0,0,6.4-6.4V154.51h6.7c2.252-.018,3.248-1.736,1.517-3.632l-8.218-8.311V129.941a6.406,6.406,0,0,0-6.4-6.4H45.21a6.406,6.406,0,0,0-6.4,6.4v27a6.406,6.406,0,0,0,6.4,6.4Zm-2.133-33.4a2.135,2.135,0,0,1,2.133-2.133h17.97a2.135,2.135,0,0,1,2.133,2.133v13.5a2.132,2.132,0,0,0,.616,1.5l5.242,5.3H67.445a2.133,2.133,0,0,0-2.133,2.133v4.568a2.135,2.135,0,0,1-2.133,2.133H45.21a2.135,2.135,0,0,1-2.133-2.133Z" transform="translate(-38.811 -88.408)"/></g></svg>