<svg xmlns="http://www.w3.org/2000/svg" width="164.699" height="151.323" viewBox="0 0 164.699 151.323"><g transform="translate(2.412 2.409)"><path d="M93.874,28.279H76.11a19.489,19.489,0,1,0,0,38.978,3.784,3.784,0,0,1,3.316,1.96l2.25,4.09a3.784,3.784,0,0,0,6.632,0l2.25-4.09a3.784,3.784,0,0,1,3.316-1.96,19.489,19.489,0,1,0,0-38.978Z" transform="translate(-40.82 -28.279)" fill="#50e1cd"/><path d="M298.475,28.279h17.763a19.489,19.489,0,1,1,0,38.978,3.784,3.784,0,0,0-3.316,1.96l-2.25,4.09a3.784,3.784,0,0,1-6.632,0l-2.25-4.09a3.784,3.784,0,0,0-3.316-1.96,19.489,19.489,0,1,1,0-38.978Z" transform="translate(-191.654 -28.279)" fill="#50e1cd"/><path d="M299.229,440.28c0-12,10.106-20.6,10.106-20.6h25.53s10.106,8.6,10.106,20.6Z" transform="translate(-205.386 -293.774)" fill="#93bbe7"/><path d="M276.225,220.5a4.7,4.7,0,0,1-3.438-7.9,41.482,41.482,0,0,1,29.856-13.087c23.1-.226,42.005,18.926,42.005,42.027Z" transform="translate(-186.583 -144.429)" fill="#e8a882"/><path d="M84.986,212.6A41.482,41.482,0,0,0,55.13,199.512c-23.1-.226-42.005,18.926-42.005,42.027V259.02a18.212,18.212,0,0,0,18.212,18.211H41.711v-6.9L81.548,220.5a4.7,4.7,0,0,0,3.438-7.9Z" transform="translate(-11.316 -144.429)" fill="#6a647f"/><path d="M31.586,238.371c0-19.228,12.933-35.191,29.918-38.307a41.682,41.682,0,0,0-6.372-.551c-23.1-.225-42.005,18.926-42.005,42.027V259.02a18.212,18.212,0,0,0,18.212,18.212H41.712v-6.9l2.169-2.714a40.144,40.144,0,0,1-12.3-29.249Z" transform="translate(-11.316 -144.429)" fill="#5c586f"/><path d="M116.317,440.28c0-12-10.106-20.6-10.106-20.6H80.682s-10.106,8.6-10.106,20.6Z" transform="translate(-50.286 -293.774)" fill="#fdd89f"/><path d="M106.978,285.363A31.976,31.976,0,1,1,44.814,274.8,15.088,15.088,0,0,1,59.079,264.76h42.753C106.525,270.325,106.978,277.514,106.978,285.363Z" transform="translate(-31.599 -188.689)" fill="#da9d81"/><ellipse cx="10.879" cy="10.879" rx="10.879" ry="10.879" transform="translate(138.116 86.345)" fill="#ffcabd"/><path d="M309.281,199.99a40.855,40.855,0,0,0-6.638-.477A41.482,41.482,0,0,0,272.787,212.6a4.7,4.7,0,0,0,3.438,7.9l4.549,1.4A41.292,41.292,0,0,1,309.281,199.99Z" transform="translate(-186.583 -144.429)" fill="#e3986d"/><path d="M270.168,285.363A31.976,31.976,0,1,0,332.332,274.8a15.088,15.088,0,0,0-14.265-10.039H275.315C270.622,270.325,270.168,277.514,270.168,285.363Z" transform="translate(-185.673 -188.689)" fill="#ffdcce"/><path d="M27.77,283.426a41.232,41.232,0,0,1,3.846-17.494,15.035,15.035,0,0,0-10.9,9.661c-.057.161-.106.327-.16.489a8.868,8.868,0,0,0-2.176-.254,10.879,10.879,0,0,0,0,21.758,8.594,8.594,0,0,0,2.517-.346A31.9,31.9,0,0,0,47.171,317.92c-11.528-6.477-19.4-19.492-19.4-34.494Z" transform="translate(-7.5 -189.484)" fill="#c7856a"/><path d="M275.987,282.866a37.912,37.912,0,0,1,4.595-18.107h-5.267c-4.694,5.565-5.147,12.754-5.147,20.6a31.986,31.986,0,0,0,25.9,31.4C284.033,309.826,275.987,297.241,275.987,282.866Z" transform="translate(-185.673 -188.688)" fill="#ffcabd"/><path d="M66.818,44.429A23.57,23.57,0,0,1,72.3,29.443a19.49,19.49,0,0,0,3.808,38.6,3.784,3.784,0,0,1,3.316,1.96l2.25,4.09a3.785,3.785,0,0,0,6.632,0l1.719-3.124C77.418,67.034,66.818,55.876,66.818,44.429Z" transform="translate(-40.82 -29.069)" fill="#00d1b3"/></g><g transform="translate(0 0)"><path d="M100.444,313.522a2.413,2.413,0,0,0-2.413,2.413v3.3a2.413,2.413,0,1,0,4.825,0v-3.3A2.413,2.413,0,0,0,100.444,313.522Z" transform="translate(-66.497 -219.357)"/><path d="M207.139,313.522a2.413,2.413,0,0,0-2.413,2.413v3.3a2.413,2.413,0,0,0,4.825,0v-3.3A2.413,2.413,0,0,0,207.139,313.522Z" transform="translate(-138.87 -219.357)"/><path d="M150.361,324.062a2.412,2.412,0,0,0-3.4.234,3.584,3.584,0,0,1-5.411,0,2.412,2.412,0,0,0-3.638,3.17,8.409,8.409,0,0,0,12.686,0A2.413,2.413,0,0,0,150.361,324.062Z" transform="translate(-93.144 -226.103)"/><path d="M401.362,313.522a2.413,2.413,0,0,0-2.413,2.413v3.3a2.413,2.413,0,1,0,4.825,0v-3.3A2.413,2.413,0,0,0,401.362,313.522Z" transform="translate(-270.616 -219.357)"/><path d="M294.667,313.522a2.413,2.413,0,0,0-2.413,2.413v3.3a2.413,2.413,0,0,0,4.825,0v-3.3A2.413,2.413,0,0,0,294.667,313.522Z" transform="translate(-198.242 -219.357)"/><path d="M344.582,324.062a2.412,2.412,0,0,0-3.4.234,3.584,3.584,0,0,1-5.411,0,2.412,2.412,0,1,0-3.638,3.17,8.409,8.409,0,0,0,12.686,0A2.412,2.412,0,0,0,344.582,324.062Z" transform="translate(-224.888 -226.103)"/><path d="M139.67,81.291a2.439,2.439,0,1,0,2.439,2.439A2.439,2.439,0,0,0,139.67,81.291Z" transform="translate(-93.087 -61.829)"/><path d="M107.794,81.291a2.439,2.439,0,1,0,2.439,2.439A2.439,2.439,0,0,0,107.794,81.291Z" transform="translate(-71.465 -61.829)"/><path d="M171.546,81.291a2.439,2.439,0,1,0,2.439,2.439A2.439,2.439,0,0,0,171.546,81.291Z" transform="translate(-114.709 -61.829)"/><path d="M88.785,20.791H71.023a21.9,21.9,0,1,0,0,43.8,1.372,1.372,0,0,1,1.2.711l2.25,4.09a6.2,6.2,0,0,0,10.859,0l2.25-4.09a1.372,1.372,0,0,1,1.2-.711,21.9,21.9,0,0,0,0-43.8Zm0,38.977a6.2,6.2,0,0,0-5.43,3.21l-2.25,4.09a1.371,1.371,0,0,1-2.4,0l-2.25-4.09a6.2,6.2,0,0,0-5.43-3.21,17.076,17.076,0,1,1,0-34.152H88.785a17.076,17.076,0,1,1,0,34.152Z" transform="translate(-33.321 -20.791)"/><path d="M362.022,86.17a2.439,2.439,0,1,0-2.439-2.439A2.439,2.439,0,0,0,362.022,86.17Z" transform="translate(-243.913 -61.829)"/><path d="M393.9,86.17a2.439,2.439,0,1,0-2.439-2.439A2.439,2.439,0,0,0,393.9,86.17Z" transform="translate(-265.535 -61.829)"/><path d="M330.147,86.17a2.439,2.439,0,1,0-2.439-2.439A2.439,2.439,0,0,0,330.147,86.17Z" transform="translate(-222.292 -61.829)"/><path d="M293.375,64.593a1.372,1.372,0,0,1,1.2.711l2.25,4.09a6.2,6.2,0,0,0,10.859,0l2.25-4.09a1.372,1.372,0,0,1,1.2-.711,21.9,21.9,0,0,0,0-43.8H293.375a21.9,21.9,0,1,0,0,43.8Zm0-38.977h17.762a17.076,17.076,0,1,1,0,34.152,6.2,6.2,0,0,0-5.43,3.21l-2.25,4.09a1.371,1.371,0,0,1-2.4,0l-2.25-4.09a6.2,6.2,0,0,0-5.429-3.21,17.076,17.076,0,1,1,0-34.152Z" transform="translate(-184.147 -20.792)"/><path d="M22.434,274.56h.5a26.47,26.47,0,0,0-2.648,11.29,2.413,2.413,0,0,0,2.413,2.413H68.443a2.413,2.413,0,0,0,2.413-2.413c0-8.991-5.022-16.095-8.3-19.773A34.351,34.351,0,0,0,80.2,236.02c0-6.917-.321-13.607-3.7-19.309a7.11,7.11,0,0,0,1.329-10.847,43.675,43.675,0,0,0-52.56-8.653,2.412,2.412,0,0,0,2.289,4.247,38.85,38.85,0,0,1,46.759,7.714,2.223,2.223,0,0,1,.425,2.447,2.249,2.249,0,0,1-2.106,1.387c-2.04,0-42.691,0-42.782,0A17.546,17.546,0,0,0,13.9,223.294a13.539,13.539,0,0,0-5.283.831,40.125,40.125,0,0,1,11.393-17.361,2.412,2.412,0,1,0-3.211-3.6A44.834,44.834,0,0,0,2.468,228.874a13.239,13.239,0,0,0-.656,14.38v10.684A20.646,20.646,0,0,0,22.434,274.56Zm-10.1-46.4a34.675,34.675,0,0,0-.909,7.862,35.273,35.273,0,0,0,1.184,8.986,8.465,8.465,0,0,1-.275-16.848Zm10.1,41.577a15.816,15.816,0,0,1-15.8-15.8v-5.86a13.349,13.349,0,0,0,7.669,1.745A34.5,34.5,0,0,0,28.755,265.9a37.9,37.9,0,0,0-3.031,3.838Zm43.443,13.7H59.61v-5.009a2.413,2.413,0,1,0-4.825,0v5.009H36.36v-5.009a2.413,2.413,0,1,0-4.825,0v5.009H25.269c.934-7.369,5.88-13.131,8.065-15.355a34.658,34.658,0,0,0,24.613.134C60.184,270.514,64.964,276.183,65.877,283.438ZM33.788,263.046h0a29.616,29.616,0,0,1-15.881-36.791,12.675,12.675,0,0,1,11.987-8.423H71.472c3.593,4.923,3.906,11.413,3.906,18.189a29.563,29.563,0,0,1-41.589,27.026Z" transform="translate(-0.001 -136.939)"/><path d="M280.306,266.057c-3.278,3.679-8.3,10.783-8.3,19.773a2.413,2.413,0,0,0,2.413,2.413h45.739a2.413,2.413,0,0,0,2.413-2.413c0-9.147-5.228-16.362-8.465-19.953a34.354,34.354,0,0,0,14.437-16.08,13.3,13.3,0,0,0,11.851-20.943,44.744,44.744,0,0,0-15.076-26.364,2.413,2.413,0,0,0-3.131,3.672A40.031,40.031,0,0,1,334.25,224.1a13.5,13.5,0,0,0-5.286-.832,17.544,17.544,0,0,0-16-10.287H270.214a2.283,2.283,0,0,1-1.679-3.833,38.846,38.846,0,0,1,45.941-8.143,2.412,2.412,0,1,0,2.188-4.3,43.67,43.67,0,0,0-51.641,9.134,7.112,7.112,0,0,0,1.329,10.847c-3.374,5.7-3.7,12.392-3.7,19.309a34.367,34.367,0,0,0,17.648,30.057Zm31.019,17.361v-5.009a2.413,2.413,0,0,0-4.825,0v5.009H288.075v-5.009a2.413,2.413,0,0,0-4.825,0v5.009h-6.267c.913-7.255,5.693-12.923,7.93-15.221a34.647,34.647,0,0,0,24.617-.136c2.188,2.216,7.133,7.956,8.062,15.357ZM297.27,265.563A29.554,29.554,0,0,1,267.483,236c0-6.776.312-13.266,3.906-18.189,43.494.455,43.168-1.182,48.179,1.829a12.471,12.471,0,0,1,5.524,7.015A29.58,29.58,0,0,1,297.27,265.563Zm32.976-20.573a35.147,35.147,0,0,0,1.185-8.99,34.774,34.774,0,0,0-.909-7.862,8.466,8.466,0,0,1-.276,16.851Z" transform="translate(-178.167 -136.919)"/></g></svg>