<svg xmlns="http://www.w3.org/2000/svg" width="153.899" height="164.701" viewBox="0 0 153.899 164.701"><g transform="translate(2.413 2.413)"><path d="M238.844,398.039a16.935,16.935,0,0,0-16.67-13.952H127.361v38.734H243.278Z" transform="translate(-94.205 -262.947)" fill="#fe7ab6"/><path d="M354.61,384.088h9.66v38.734h-9.66Z" transform="translate(-248.353 -262.948)" fill="#fe5ca7"/><path d="M163.979,112H112.665a30.148,30.148,0,0,1-30.08-32.174l2.658-39.468A35.226,35.226,0,0,1,120.39,7.5h35.865A35.226,35.226,0,0,1,191.4,40.359l2.658,39.468A30.148,30.148,0,0,1,163.979,112Z" transform="translate(-63.786 -7.5)" fill="#ae6c6c"/><path d="M329.147,79.827l-2.658-39.468A35.226,35.226,0,0,0,291.342,7.5h-9.676a35.226,35.226,0,0,1,35.146,32.859l2.658,39.468A30.148,30.148,0,0,1,289.391,112h9.676A30.148,30.148,0,0,0,329.147,79.827Z" transform="translate(-198.874 -7.5)" fill="#9b5e5e"/><path d="M144.108,94.45V149.6a21.38,21.38,0,0,0,21.38,21.38V187.62L180.1,199.1l14.614-11.483V170.98A21.38,21.38,0,0,0,216.1,149.6V94.45Z" transform="translate(-105.565 -66.48)" fill="#fed2a4"/><path d="M272.168,94.45V149.6a21.384,21.384,0,0,1-18.387,21.172,3.452,3.452,0,0,0-2.993,3.409V185.4a4.579,4.579,0,0,1-1.75,3.6L241,195.311l4.826,3.792,14.614-11.483V170.979a21.38,21.38,0,0,0,21.38-21.38V94.45Z" transform="translate(-171.289 -66.48)" fill="#ffbd86"/><path d="M24.29,422.822H57.446V384.088H45.394a16.935,16.935,0,0,0-16.67,13.952Z" transform="translate(-24.29 -262.948)" fill="#fe5ca7"/><path d="M413.362,398.039a16.935,16.935,0,0,0-16.67-13.952H384.64v.01a16.932,16.932,0,0,1,16.242,13.943l4.434,24.782H417.8Z" transform="translate(-268.723 -262.947)" fill="#fe5ca7"/><path d="M173.792,88.3s-9.409,28.029-35.994,28.029l-2.992-30.947Z" transform="translate(-99.255 -60.326)" fill="#ae6c6c"/><path d="M256,88.3s9.409,28.029,35.994,28.029l2.51-30.947Z" transform="translate(-181.464 -60.326)" fill="#ae6c6c"/><path d="M256,395.571l14.614-11.483h8.6s-4.515,20.438-14.3,20.443C256,404.536,256,395.571,256,395.571Z" transform="translate(-181.464 -262.948)" fill="#fcc8e2"/><path d="M207.049,395.571l-14.614-11.483h-8.6s4.515,20.438,14.3,20.443C207.049,404.536,207.049,395.571,207.049,395.571Z" transform="translate(-132.512 -262.948)" fill="#ffdbeb"/><path d="M237.174,223.17a8.929,8.929,0,0,0-8.929,8.928v2.69a8.929,8.929,0,1,0,17.857,0V232.1A8.929,8.929,0,0,0,237.174,223.17Z" transform="translate(-162.637 -153.794)" fill="#fe7ab6"/></g><g transform="translate(0 0)"><path d="M316.394,207.425a2.413,2.413,0,0,0,2.413-2.413v-5.02a2.413,2.413,0,1,0-4.825,0v5.02A2.413,2.413,0,0,0,316.394,207.425Z" transform="translate(-218.38 -134.023)"/><path d="M185.434,207.425a2.413,2.413,0,0,0,2.413-2.413v-5.02a2.413,2.413,0,0,0-4.825,0v5.02A2.413,2.413,0,0,0,185.434,207.425Z" transform="translate(-129.548 -134.023)"/><path d="M379.554,443.506a2.413,2.413,0,0,0-2.413,2.413v17.208a2.413,2.413,0,1,0,4.825,0V445.919A2.413,2.413,0,0,0,379.554,443.506Z" transform="translate(-261.223 -300.84)"/><path d="M170.649,161.862l-4.434-24.782a19.329,19.329,0,0,0-19.045-15.94H110.764V109.326h8.631a32.561,32.561,0,0,0,32.487-34.749l-2.66-39.466A37.637,37.637,0,0,0,111.672,0H75.8A37.637,37.637,0,0,0,38.254,35.11l-2.66,39.467a32.561,32.561,0,0,0,32.487,34.749h8.631V121.14H40.306a19.329,19.329,0,0,0-19.045,15.94l-4.434,24.782a2.413,2.413,0,1,0,4.75.85l4.434-24.782a14.508,14.508,0,0,1,14.3-11.965h9.639v36.321a2.413,2.413,0,0,0,2.413,2.413h0a2.413,2.413,0,0,0,2.413-2.413V125.966H68.647a58.98,58.98,0,0,0,3.166,8.815c3.55,7.713,7.928,11.625,13.013,11.627a11.006,11.006,0,0,0,8.912-4.123,10.971,10.971,0,0,0,8.912,4.123c5.084,0,9.463-3.915,13.013-11.627a59.015,59.015,0,0,0,3.166-8.815h13.877v7.808a2.413,2.413,0,0,0,4.825,0v-7.809h9.639a14.508,14.508,0,0,1,14.3,11.965l4.434,24.782a2.413,2.413,0,1,0,4.75-.85ZM47.822,95.708A27.467,27.467,0,0,1,40.408,74.9l2.66-39.467A32.812,32.812,0,0,1,75.8,4.825h35.867a32.812,32.812,0,0,1,32.736,30.609l2.66,39.466a27.75,27.75,0,0,1-24.082,29.373,23.761,23.761,0,0,0,9.158-18.742V43.906a2.413,2.413,0,0,0-4.825,0V55.912c-9.183-.641-17.108-4.976-23.583-12.916a48.543,48.543,0,0,1-7.711-13.383,2.423,2.423,0,0,0-4.573,0A48.544,48.544,0,0,1,83.74,43c-6.476,7.94-14.4,12.275-23.583,12.916V43.907a2.413,2.413,0,1,0-4.825,0v14.5a2.413,2.413,0,0,0,2.413,2.413c11.623,0,21.941-5.155,29.841-14.909a54.429,54.429,0,0,0,6.153-9.525,54.429,54.429,0,0,0,6.153,9.525c7.348,9.073,16.791,14.164,27.428,14.831V85.532A18.989,18.989,0,0,1,108.352,104.5a2.413,2.413,0,0,0-2.413,2.413V122.38l-12.2,9.587-12.2-9.587V106.912a2.413,2.413,0,0,0-2.413-2.413A18.989,18.989,0,0,1,60.158,85.532V69.691a2.413,2.413,0,1,0-4.825,0V85.532a23.762,23.762,0,0,0,9.158,18.742,27.42,27.42,0,0,1-16.668-8.567ZM90.4,138.563a5.911,5.911,0,0,1-5.575,3.02c-5.361,0-9.382-9.662-11.17-15.618h4.633l12.915,10.148A8.51,8.51,0,0,1,90.4,138.563Zm12.245,3.021a6.013,6.013,0,0,1-6.377-5.469l7.484-5.881,5.431-4.267h4.633C112.029,131.923,108.008,141.58,102.648,141.584Z" transform="translate(-16.789 0)"/><path d="M232.086,241.043A11.354,11.354,0,0,0,243.427,229.7v-2.69a11.341,11.341,0,1,0-22.682,0v2.69A11.353,11.353,0,0,0,232.086,241.043Zm-6.516-14.031a6.516,6.516,0,1,1,13.032,0v2.69a6.516,6.516,0,1,1-13.032,0Z" transform="translate(-155.137 -146.294)"/><path d="M302.088,117.534l.105.093a2.362,2.362,0,0,0,3.206-.1,6.218,6.218,0,0,1,7.067-1.478,2.413,2.413,0,0,0,1.7-4.515A10.976,10.976,0,0,0,302,114.094,2.341,2.341,0,0,0,302.088,117.534Z" transform="translate(-209.772 -75.084)"/><path d="M169.09,116.04c4.3-1.62,6.8.921,7.066,1.216l.23.2a2.414,2.414,0,1,0,3.129-3.677c-2.5-2.062-6.47-4.351-12.054-2.281a2.461,2.461,0,0,0-1.564,2.867A2.413,2.413,0,0,0,169.09,116.04Z" transform="translate(-117.885 -75.079)"/></g></svg>