<svg xmlns="http://www.w3.org/2000/svg" width="124" height="124" viewBox="0 0 124 124"><g transform="translate(4622.668 648.845)"><circle cx="62" cy="62" r="62" transform="translate(-4622.668 -648.845)" fill="#fff"/><g transform="translate(-4592.52 -631.174)"><g transform="translate(0.301)"><path d="M198.09,284.54h18.715v33.433H198.09Z" transform="translate(-175.627 -238.561)" fill="#ffd18d" fill-rule="evenodd"/><path d="M216.814,290.165v2.354a18.805,18.805,0,0,1-14.606,1.748,1.33,1.33,0,0,0-1.708,1.283v5.108h-2.4v-10.5a16.779,16.779,0,0,0,18.714,0Z" transform="translate(-175.636 -243.273)" fill="#e6bc7f" fill-rule="evenodd"/><path d="M118.067,330.065a6.784,6.784,0,0,1,4.654,6.509V351.31c0,1.5-1.223,3.161-2.721,3.161H61.8c-1.5,0-2.721-1.663-2.721-3.161V336.574a6.784,6.784,0,0,1,4.654-6.509l17.242-5.922a.567.567,0,0,1,.734.362c2.844,8.933,15.542,8.933,18.391,0a.565.565,0,0,1,.734-.362Z" transform="translate(-59.08 -271.736)" fill="#195c85" fill-rule="evenodd"/><path d="M150.681,0h4.392a17.734,17.734,0,0,1,17.681,17.681v7.585a10.126,10.126,0,0,1-10.091,10.1H143.091A10.123,10.123,0,0,1,133,25.266V17.681A17.733,17.733,0,0,1,150.681,0Z" transform="translate(-121.055)" fill="#4e3d4d" fill-rule="evenodd"/><path d="M124.532,97.9h1.4a2.506,2.506,0,0,0,2.4-2.4V91.759a1.439,1.439,0,0,1,1.887-1.374c4.439,1.443,11.667,1.965,17.736-5.24a1.431,1.431,0,0,1,2.112-.1,19.828,19.828,0,0,0,6.409,4.067,1.424,1.424,0,0,1,.976,1.365V95.5a2.4,2.4,0,0,0,2.4,2.4h1.4a3.44,3.44,0,1,1,0,6.881h-1.508a16.88,16.88,0,0,1-33.7,0H124.53a3.441,3.441,0,1,1,0-6.882Z" transform="translate(-111.07 -70.952)" fill="#ffd18d" fill-rule="evenodd"/><path d="M230.973,412.78a4.823,4.823,0,0,1,1.205,9.5.565.565,0,0,0-.427.549v4.242a1.7,1.7,0,0,1-1.7,1.7h-2.2a1.705,1.705,0,0,1-1.7-1.7V417.6a4.822,4.822,0,0,1,4.823-4.824Z" transform="translate(-199.153 -346.078)" fill="#32b1cc" fill-rule="evenodd"/><path d="M130.031,135.309V119.817a1.435,1.435,0,0,0-1.681,1.425v3.738a2.5,2.5,0,0,1-2.4,2.4h-1.4a3.392,3.392,0,0,0-1.328.27,3.438,3.438,0,0,0,1.328,6.611h1.508a16.921,16.921,0,0,0,16.852,15.917h.073a13.051,13.051,0,0,1-12.95-13.008v-1.86Z" transform="translate(-111.087 -100.437)" fill="#e6bc7f" fill-rule="evenodd"/><path d="M135.918,45.7a2.506,2.506,0,0,0,2.4-2.4V39.562A1.436,1.436,0,0,1,140,38.136V22.37a17.68,17.68,0,0,0-7,14.067v7.585a10.2,10.2,0,0,0,.187,1.947,3.364,3.364,0,0,1,1.328-.27Z" transform="translate(-121.055 -18.755)" fill="#463745" fill-rule="evenodd"/><g transform="translate(0.002 52.372)"><path d="M62.826,350.822a6.784,6.784,0,0,1,4.654-6.509l8.538-2.936-1.685-2.015a1.318,1.318,0,0,1-.238-.422L63.744,342.5a6.784,6.784,0,0,0-4.654,6.509v14.736c0,1.5,1.223,3.161,2.721,3.161h1.323a3.281,3.281,0,0,1-.307-1.346V350.822Z" transform="translate(-59.09 -336.543)" fill="#175378" fill-rule="evenodd"/><path d="M168.1,325.607l2.007,2.4,2.839-.976,1.131-.389a9.9,9.9,0,0,1-.966-2.148.577.577,0,0,0-.165-.252.565.565,0,0,0-.569-.11Z" transform="translate(-150.485 -324.103)" fill="#175378" fill-rule="evenodd"/></g></g><path d="M116.078,56.576h0l-11.234-3.86c-.021-.008-.042-.016-.065-.023L99.7,50.948V47.393a18.121,18.121,0,0,0,1.768-1.472,17.6,17.6,0,0,0,5.379-10.568h.281a4.625,4.625,0,0,0,2.7-8.382,11.046,11.046,0,0,0,.068-1.2V18.421A18.442,18.442,0,0,0,91.473,0h-4.26A18.442,18.442,0,0,0,68.792,18.421v7.352a11.044,11.044,0,0,0,.068,1.2,4.625,4.625,0,0,0,2.7,8.382h.281a17.578,17.578,0,0,0,5.4,10.589,17.847,17.847,0,0,0,1.745,1.449v3.555L62.6,56.576a7.87,7.87,0,0,0-5.381,7.53V78.38c0,2.055,1.679,4.353,3.928,4.353h56.382c2.251,0,3.932-2.3,3.932-4.353V64.106a7.872,7.872,0,0,0-5.384-7.53ZM88.8,75.641V79.75a.361.361,0,0,1-.356.355H86.313a.361.361,0,0,1-.355-.355V70.585a3.363,3.363,0,0,1,.751-2.12l.034-.042a3.38,3.38,0,1,1,3.444,5.434A1.845,1.845,0,0,0,88.8,75.641Zm4.048-9.88a5.948,5.948,0,0,0-7.021,0L76.469,54.547l2.985-1.026A10.451,10.451,0,0,0,89.336,60.2h0a10.459,10.459,0,0,0,9.888-6.675l2.986,1.026ZM71.379,25.772V18.421A15.85,15.85,0,0,1,87.211,2.589h4.26A15.85,15.85,0,0,1,107.3,18.421v7.352c0,.11,0,.221-.008.331-.057,0-.111,0-.168,0h-1.361a1.029,1.029,0,0,1-1.028-1.028V20.2a2.657,2.657,0,0,0-1.818-2.543A17.906,17.906,0,0,1,97.2,14.023a2.681,2.681,0,0,0-3.944.184c-5.644,6.7-12.316,5.811-15.787,4.685a2.683,2.683,0,0,0-3.526,2.553v3.549A1.151,1.151,0,0,1,72.912,26.1H71.556c-.057,0-.113,0-.168,0-.006-.113-.01-.223-.01-.334Zm2.93,8.214a1.294,1.294,0,0,0-1.293-1.22H71.555a2.038,2.038,0,0,1-.808-3.909.258.258,0,0,0,.037-.016,2.034,2.034,0,0,1,.769-.152h1.356a3.707,3.707,0,0,0,3.613-3.477,1.336,1.336,0,0,0,.008-.139V21.445a.1.1,0,0,1,.039-.084.1.1,0,0,1,.094-.01c4.095,1.33,11.951,2.387,18.572-5.478a.1.1,0,0,1,.071-.039.084.084,0,0,1,.076.034,20.575,20.575,0,0,0,6.693,4.24.09.09,0,0,1,.071.1v4.869a3.621,3.621,0,0,0,3.616,3.616h1.361a2.027,2.027,0,0,1,.769.152l.037.016a2.038,2.038,0,0,1-.808,3.909H105.66a1.3,1.3,0,0,0-1.293,1.22,15.039,15.039,0,0,1-6.556,11.581,1.223,1.223,0,0,0-.263.179,15.034,15.034,0,0,1-16.411.01,1.263,1.263,0,0,0-.3-.2,15.054,15.054,0,0,1-6.53-11.568ZM89.341,50.775a17.509,17.509,0,0,0,7.771-1.813v2.82a1.559,1.559,0,0,0-.094.236,7.845,7.845,0,0,1-7.679,5.589h0a7.838,7.838,0,0,1-7.674-5.594,1.873,1.873,0,0,0-.094-.228V48.962A17.519,17.519,0,0,0,89.341,50.775ZM59.809,78.38V64.106a5.249,5.249,0,0,1,3.634-5.084l10.406-3.576L84.1,67.726a5.931,5.931,0,0,0-.73,2.859V79.75a2.907,2.907,0,0,0,.031.4H61.148c-.627,0-1.34-.94-1.34-1.766Zm59.065,0c0,.826-.716,1.766-1.344,1.766H91.361a2.907,2.907,0,0,0,.031-.4V76.19a5.97,5.97,0,0,0,3.19-8.461l10.253-12.281,10.4,3.574a5.314,5.314,0,0,1,3.639,5.084V78.38Zm-33.4-40.075c2.817,1.826,5.253,1.841,7.668.047a1.294,1.294,0,1,1,1.543,2.076A8.585,8.585,0,0,1,89.5,42.282a10.011,10.011,0,0,1-5.438-1.807,1.293,1.293,0,1,1,1.407-2.17Zm-2.181-9.922v1.663a1.294,1.294,0,1,1-2.589,0V28.384a1.294,1.294,0,0,1,2.589,0Zm14.685,0v1.663a1.294,1.294,0,1,1-2.589,0V28.384a1.294,1.294,0,0,1,2.589,0Zm-4.219-3.765a1.294,1.294,0,0,1,1.294-1.294h3.261a1.294,1.294,0,0,1,0,2.589H95.053A1.294,1.294,0,0,1,93.759,24.618Zm-10.13,1.294H80.368a1.294,1.294,0,0,1,0-2.589h3.261a1.294,1.294,0,0,1,0,2.589Zm30.009,48.78a1.294,1.294,0,0,1-1.294,1.294H102.23a1.294,1.294,0,0,1,0-2.589h10.114A1.3,1.3,0,0,1,113.638,74.692Z" transform="translate(-57.22)"/></g></g></svg>