<svg xmlns="http://www.w3.org/2000/svg" width="124" height="124" viewBox="0 0 124 124"><g transform="translate(4264 648.845)"><circle cx="62" cy="62" r="62" transform="translate(-4264 -648.845)" fill="#fff"/><g transform="translate(-4237.521 -631.135)"><g transform="translate(9.089 1.212)"><g transform="translate(4.919 69.049)"><path d="M165.61,444.867a12.359,12.359,0,0,0-3.726-4.414l-7.674-5.646h-4.091l-9.3.234-6.783-.234-7.674,5.646a12.359,12.359,0,0,0-3.726,4.414.851.851,0,0,0,.764,1.228h41.448A.851.851,0,0,0,165.61,444.867Z" transform="translate(-122.543 -434.806)" fill="#fef0ae"/></g><path d="M139.626,435l-5.592-.193-7.674,5.646a12.359,12.359,0,0,0-3.726,4.414.851.851,0,0,0,.764,1.228h5.439a12.356,12.356,0,0,1,3.4-3.8l7.392-5.438V435Z" transform="translate(-117.625 -365.757)" fill="#fee97d"/><path d="M212.183,360.545l1.645,1.21c-6.648,4.634-13.375,4.528-20.176,0l1.645-1.21,2.359-5.375,2.48-7.495h7.39l2.3,7.495Z" transform="translate(-177.243 -292.707)" fill="#ffdfcf"/><path d="M96.378,65.9a6.748,6.748,0,0,1-1.921-10.8,6.048,6.048,0,0,1,2.128-10.63c-.009-.169-.014-.34-.014-.511a9.475,9.475,0,0,1,12.8-8.866l21.878,12.557-13.9,27.609Z" transform="translate(-92.103 -30.128)" fill="#e1d3ce"/><g transform="translate(31.862 19.301)"><path d="M307.256,130.692a8.813,8.813,0,0,1,1.226,10.095l-1.537,2.85-2.794,5.45-14.87,1.676,2.209-23.817,15.723,3.7Z" transform="translate(-289.282 -126.946)" fill="#e1d3ce"/></g><path d="M107.206,237.87h6.738v-9.428h-6.738a4.121,4.121,0,0,0-4.121,4.121v1.185A4.121,4.121,0,0,0,107.206,237.87Z" transform="translate(-101.31 -192.74)" fill="#ffcebf"/><path d="M352.75,237.87h-6.092v-9.428h6.092a4.121,4.121,0,0,1,4.121,4.121v1.185A4.121,4.121,0,0,1,352.75,237.87Z" transform="translate(-305.524 -192.74)" fill="#ffcebf"/><g transform="translate(7.948)"><path d="M209.824,355.17l-.594-1.939-1.7-5.556h-7.39l-2.48,7.495-2.359,5.375-1.645,1.21a22.069,22.069,0,0,0,4.953,2.514l1.555-3.543a1.717,1.717,0,0,1,1.937-1.147,9.707,9.707,0,0,0,1.706.152,9.821,9.821,0,0,0,4.194-.947s2.758-1.388,2.779-1.445Z" transform="translate(-185.19 -292.706)" fill="#ffcebf"/><path d="M178.513,102.154a22.333,22.333,0,0,1-12.737,20.166l-2.724,1.3a7.335,7.335,0,0,1-6.3,0l-3.655-1.739a20.7,20.7,0,0,1-11.806-18.692V87.167a13.37,13.37,0,0,1,4.9-10.341l2-1.643,9.141-5.39,21.185,10.541Z" transform="translate(-141.287 -59.727)" fill="#ffdfcf"/><path d="M185.275,87.739a10.658,10.658,0,0,0,3.336-.533,1.566,1.566,0,0,1,1.539.325,12.111,12.111,0,0,0,11.219,2.675V80.334L180.184,69.793l-9.141,5.39-2,1.643c-.168.137-.33.279-.49.423a10.687,10.687,0,0,0,6.4,4.252,1.522,1.522,0,0,1,1,.743,10.676,10.676,0,0,0,9.326,5.495Z" transform="translate(-164.143 -59.727)" fill="#ffcebf"/><path d="M206.007,17.506a7.2,7.2,0,0,0-7.118-8.256,7.16,7.16,0,0,0-3.831,1.106A5.588,5.588,0,0,0,184.825,11.5a7.429,7.429,0,1,0-1.018,14.787c.249,0,.5-.013.738-.037A7.427,7.427,0,0,0,196.888,30.3a8.869,8.869,0,1,0,9.119-12.794Z" transform="translate(-170.708 -7.5)" fill="#cdbfba"/><g transform="translate(38.648 69.283)"><path d="M380.456,436.253h0Z" transform="translate(-380.456 -436.253)" fill="#a6e7f0"/></g></g></g><g transform="translate(0 0)"><path d="M128.082,51.916a1.212,1.212,0,1,0,2.23.951,23.485,23.485,0,0,0,1.559-5.313h1.168a5.339,5.339,0,0,0,5.333-5.333V41.035a5.317,5.317,0,0,0-1.647-3.848l1.217-2.258a10.043,10.043,0,0,0-.87-10.853,10.067,10.067,0,0,0-.2-8.587,1.212,1.212,0,0,0-2.166,1.087A7.571,7.571,0,0,1,135.511,20a7.657,7.657,0,0,1-14.489,3.46,1.212,1.212,0,0,0-1.9-.34,6.215,6.215,0,0,1-10.329-3.384,1.214,1.214,0,0,0-1.31-.978c-.208.021-.416.031-.619.031a6.217,6.217,0,0,1,0-12.435,6.317,6.317,0,0,1,.853.06,1.213,1.213,0,0,0,1.327-.858,4.376,4.376,0,0,1,8.014-.9,1.212,1.212,0,0,0,1.7.431,5.983,5.983,0,0,1,9.169,5.065,6.072,6.072,0,0,1-.065.883,1.212,1.212,0,0,0,1.035,1.378,7.576,7.576,0,0,1,2.73.924,1.212,1.212,0,1,0,1.2-2.108,10.028,10.028,0,0,0-2.473-1c0-.026,0-.053,0-.079a8.408,8.408,0,0,0-11.856-7.668,6.8,6.8,0,0,0-11.424,1.447l-.21,0a8.585,8.585,0,0,0-3.884.926,10.685,10.685,0,0,0-13.9,9.832,7.262,7.262,0,0,0-2.573,11.6,7.91,7.91,0,0,0-1.461,4.6,8.011,8.011,0,0,0,3.033,6.248,5.318,5.318,0,0,0-1.7,3.9v1.185a5.339,5.339,0,0,0,5.333,5.333h1.033a21.891,21.891,0,0,0,11.906,16.7l-1.759,4.008L93.83,74.93a13.546,13.546,0,0,0-4.678,6.2,1.212,1.212,0,1,0,2.271.847,11.128,11.128,0,0,1,3.843-5.09l7.005-5.153a19.139,19.139,0,0,0,10.158,3.184,18.131,18.131,0,0,0,9.937-3.172l2.025,1.49a1.212,1.212,0,0,0,1.436-1.952l-4.095-3.013-1.75-3.988a23.631,23.631,0,0,0,7.62-6.665,1.212,1.212,0,1,0-1.951-1.438,21.188,21.188,0,0,1-7.922,6.537l-2.723,1.3a6.1,6.1,0,0,1-5.263,0l-3.655-1.739a19.489,19.489,0,0,1-11.114-17.6V28.652a12.115,12.115,0,0,1,4.452-9.4l1.05-.861a8.62,8.62,0,0,0,6.193,2.826A8.642,8.642,0,0,0,119.607,25.8a10.082,10.082,0,0,0,1.464,1.663,1.21,1.21,0,0,0-.024,1.87l4.973,4.2a1.212,1.212,0,1,0,1.565-1.851L125.3,29.759a10.106,10.106,0,0,0,4.475.14v13.74a20.986,20.986,0,0,1-1.692,8.278ZM112.374,67.029a8.542,8.542,0,0,0,3.673-.833l1.762-.839,1.834,4.18a1.211,1.211,0,0,0,.392.489l.224.165c-5.216,3.069-10.435,3.062-15.869-.021l.2-.144a1.211,1.211,0,0,0,.392-.489l1.856-4.229,1.867.888a8.542,8.542,0,0,0,3.673.833ZM92.549,45.13h-.84A2.913,2.913,0,0,1,88.8,42.221V41.035a2.913,2.913,0,0,1,2.909-2.909h.84v7Zm5.339-27.757a14.53,14.53,0,0,0-5.339,11.279V35.7h-.84a5.322,5.322,0,0,0-1.19.136,5.569,5.569,0,0,1-3.054-4.948,5.506,5.506,0,0,1,1.571-3.861,1.212,1.212,0,0,0-.127-1.8,4.836,4.836,0,0,1,1.7-8.5,1.212,1.212,0,0,0,.9-1.235c-.008-.157-.012-.3-.012-.447A8.267,8.267,0,0,1,99.75,6.785c.226,0,.451.012.674.031A8.618,8.618,0,0,0,99.1,16.377Zm38.06,24.847a2.913,2.913,0,0,1-2.909,2.909h-.84v-7h.84a2.913,2.913,0,0,1,2.909,2.909v1.185Zm-.266-15.874a7.614,7.614,0,0,1,.127,7.433l-1.169,2.169a5.315,5.315,0,0,0-1.6-.246h-.84V29.1a10.141,10.141,0,0,0,3.483-2.753Z" transform="translate(-76.724 0)"/><path d="M205.087,319.621l1.187-.982,1.759,1.234a2.011,2.011,0,0,0,2.515-.174l.994-.926.994.926a2.011,2.011,0,0,0,2.515.174l1.759-1.234,1.187.982a1.212,1.212,0,1,0,1.545-1.867l-1.435-1.188a2.008,2.008,0,0,0-2.426-.1l-1.743,1.223-1.031-.961a2.009,2.009,0,0,0-2.73,0l-1.031.961-1.743-1.223a2.007,2.007,0,0,0-2.426.1l-1.435,1.187a1.212,1.212,0,0,0,1.545,1.868Z" transform="translate(-176.077 -265.027)"/><path d="M229.307,264.092l.871.713a5.06,5.06,0,0,0,6.21.156l1.128-.832a1.212,1.212,0,0,0-1.438-1.951l-1.128.832a2.637,2.637,0,0,1-3.237-.082l-.871-.712a1.212,1.212,0,1,0-1.535,1.876Z" transform="translate(-197.674 -219.615)"/><path d="M181.942,211.819a1.211,1.211,0,0,0,1.681.336l1.63-1.087,1.568,1.223a1.212,1.212,0,0,0,1.491-1.911l-.934-.728.961-.641A1.212,1.212,0,1,0,187,206.995l-1.63,1.087-1.568-1.223a1.212,1.212,0,0,0-1.491,1.911l.934.728-.961.641A1.212,1.212,0,0,0,181.942,211.819Z" transform="translate(-158.165 -173.217)"/><path d="M166.007,168.761a1.212,1.212,0,0,0-1.708-.143l-4.973,4.2a1.212,1.212,0,0,0,1.565,1.851l4.973-4.2A1.212,1.212,0,0,0,166.007,168.761Z" transform="translate(-139.014 -141.13)"/><path d="M291.492,212.155a1.212,1.212,0,1,0,1.344-2.017l-.961-.641.934-.728a1.212,1.212,0,0,0-1.491-1.911l-1.568,1.223-1.63-1.087a1.212,1.212,0,1,0-1.344,2.017l.961.641-.934.728a1.212,1.212,0,1,0,1.491,1.911l1.568-1.223Z" transform="translate(-245.776 -173.217)"/><path d="M440.432,88.523l-1.07-2.2a.383.383,0,0,1,0-.329l1.065-2.311A2.815,2.815,0,0,0,440,80.673l-1.857-2.157a.386.386,0,0,1-.071-.38l1.05-2.955a2.8,2.8,0,0,0-.94-3.171L435.8,70.188a1.212,1.212,0,0,0-1.473,1.925l2.382,1.822a.384.384,0,0,1,.129.434l-1.05,2.954a2.815,2.815,0,0,0,.518,2.772l1.857,2.158a.385.385,0,0,1,.058.412l-1.065,2.31a2.8,2.8,0,0,0,.024,2.4l1.07,2.2a.385.385,0,0,1-.031.389l-1.8,2.567a1.212,1.212,0,1,0,1.984,1.393l1.8-2.567a2.809,2.809,0,0,0,.228-2.841Z" transform="translate(-369.541 -58.638)"/><path d="M40.26,80.1a2.814,2.814,0,0,0,.518-2.772l-1.05-2.954a.384.384,0,0,1,.128-.434l2.382-1.822a1.212,1.212,0,0,0-1.473-1.925l-2.382,1.823a2.8,2.8,0,0,0-.94,3.171l1.05,2.954a.386.386,0,0,1-.071.38l-1.857,2.158a2.815,2.815,0,0,0-.422,3.008l1.065,2.311a.383.383,0,0,1,0,.329l-1.07,2.2a2.809,2.809,0,0,0,.228,2.841l1.8,2.567a1.212,1.212,0,1,0,1.984-1.393l-1.8-2.567a.385.385,0,0,1-.031-.389l1.07-2.2a2.8,2.8,0,0,0,.024-2.4l-1.065-2.31a.386.386,0,0,1,.058-.412Z" transform="translate(-35.854 -58.638)"/><path d="M78.382,423.137l.559-1.9,2.462-.468a1.212,1.212,0,0,0-.453-2.381l-2.561.488a2.25,2.25,0,0,0-1.745,1.582l-.563,1.913-2.457.826a2.272,2.272,0,0,0-1.521,1.855l-.152,1.187-1.653.725a2.27,2.27,0,0,0-1.334,1.782l-.3,2.355a1.212,1.212,0,0,0,1.048,1.356,1.234,1.234,0,0,0,.155.01,1.212,1.212,0,0,0,1.2-1.058l.29-2.263,1.653-.725a2.271,2.271,0,0,0,1.334-1.782l.151-1.177,2.441-.82A2.261,2.261,0,0,0,78.382,423.137Z" transform="translate(-63.353 -350.762)"/><path d="M371.933,428.746a2.271,2.271,0,0,0-1.334-1.782l-1.653-.725-.152-1.187a2.273,2.273,0,0,0-1.521-1.855l-2.457-.826-.563-1.914a2.25,2.25,0,0,0-1.745-1.582l-2.561-.488a1.212,1.212,0,0,0-.453,2.381l2.462.468.559,1.9a2.261,2.261,0,0,0,1.448,1.5l2.441.82.151,1.177a2.271,2.271,0,0,0,1.334,1.782l1.653.725.29,2.263a1.212,1.212,0,0,0,1.2,1.058,1.234,1.234,0,0,0,.155-.01,1.212,1.212,0,0,0,1.048-1.356Z" transform="translate(-306.37 -350.763)"/><path d="M356.293,459.427l-.8-.587a1.212,1.212,0,0,0-1.436,1.953l.8.587a11.131,11.131,0,0,1,3.843,5.09,1.212,1.212,0,1,0,2.271-.847A13.551,13.551,0,0,0,356.293,459.427Z" transform="translate(-302.226 -384.498)"/></g></g></g></svg>