<svg xmlns="http://www.w3.org/2000/svg" xmlns:xlink="http://www.w3.org/1999/xlink" width="382.348" height="323.644" viewBox="0 0 382.348 323.644"><defs><clipPath id="a"><path d="M4.659,0H318.985c2.573,0,4.659,6.415,4.659,14.329v353.69c0,7.913-2.086,14.329-4.659,14.329H4.659C2.086,382.348,0,375.932,0,368.019V14.329C0,6.415,2.086,0,4.659,0Z" transform="translate(-13660.469 -13307.311)" fill="#cbc232"/></clipPath><clipPath id="b"><path d="M363.315,0C563.969,0,726.631,155.789,726.631,347.964S563.969,695.928,363.315,695.928,0,540.139,0,347.964,162.662,0,363.315,0Z" transform="translate(0 0)" fill="#21c9b8"/></clipPath><clipPath id="c"><rect width="530.776" height="530.776" fill="#dee4f0"/></clipPath><clipPath id="d"><rect width="164.718" height="168.09" fill="#fff" stroke="#fff" stroke-width="1"/></clipPath></defs><g transform="translate(-2257.201 9535.405)"><g transform="translate(-2088 24.239)"><g transform="translate(17652.512 -22896.469) rotate(-90)" opacity="0.61" clip-path="url(#a)"><path d="M0,0H2398.132V505.308H0Z" transform="translate(-15143.035 -13371.444)" fill="#f3f9ff"/><path d="M339.691,0C527.3,0,679.381,152.085,679.381,339.691S527.3,679.381,339.691,679.381,0,527.3,0,339.691,152.085,0,339.691,0Z" transform="translate(-13285.051 -13355.636)" fill="#dbe3fb" opacity="0.14"/><path d="M339.691,0C527.3,0,679.381,152.085,679.381,339.691S527.3,679.381,339.691,679.381,0,527.3,0,339.691,152.085,0,339.691,0Z" transform="translate(-14076.762 -12959.152)" fill="#dbe3fb" opacity="0.14"/><path d="M339.691,0C527.3,0,679.381,152.085,679.381,339.691S527.3,679.381,339.691,679.381,0,527.3,0,339.691,152.085,0,339.691,0Z" transform="translate(-13298.395 -13510.606)" fill="#dbe3fb" opacity="0"/><rect width="9.32" height="2.485" transform="translate(-13153.392 -12939.704)" fill="#dbe3fb"/><ellipse cx="339.238" cy="324.904" rx="339.238" ry="324.904" transform="translate(-14135.324 -13978.838)" fill="#94a6dd" opacity="0.13"/><path d="M347.5,0c191.917,0,347.5,149.006,347.5,332.814S539.414,665.628,347.5,665.628,0,516.622,0,332.814,155.58,0,347.5,0Z" transform="translate(-13640.354 -13164.039)" fill="#fff" opacity="0.25"/><path d="M453.264,0C703.595,0,906.528,202.933,906.528,453.264S703.595,906.528,453.264,906.528,0,703.595,0,453.264,202.933,0,453.264,0Z" transform="translate(-15143.035 -13116.137)" fill="#a5b9f6" opacity="0.23" style="mix-blend-mode:multiply;isolation:isolate"/><path d="M453.264,0C703.595,0,906.528,202.933,906.528,453.264S703.595,906.528,453.264,906.528,0,703.595,0,453.264,202.933,0,453.264,0Z" transform="translate(-15241.656 -13963.87)" fill="#a5b9f6" opacity="0.23" style="mix-blend-mode:multiply;isolation:isolate"/><path d="M453.264,0C703.595,0,906.528,202.933,906.528,453.264S703.595,906.528,453.264,906.528,0,703.595,0,453.264,202.933,0,453.264,0Z" transform="translate(-14460.897 -13878.895)" fill="#f6f8fe" opacity="0.51" style="mix-blend-mode:lighten;isolation:isolate"/><g transform="translate(-14538.409 -13748.186)"><g clip-path="url(#c)"><path d="M530.776,265.384c0-8.566-.445-17.023-1.242-25.387H406.306l115.518-43.039a264.075,264.075,0,0,0-17.719-47.595L365.817,200.875,470.144,96.541a267.021,267.021,0,0,0-35.916-35.908l-87.152,87.161L398.3,35.715a264.035,264.035,0,0,0-46.185-21.142L290.788,148.75V1.233C282.423.445,273.958,0,265.384,0s-17.031.445-25.4,1.233V124.478L196.957,8.96a262.269,262.269,0,0,0-47.6,17.719l51.513,138.279L96.541,60.633A268,268,0,0,0,60.624,96.541L147.785,183.7,35.715,132.474a264.315,264.315,0,0,0-21.142,46.185L148.75,240H1.233C.445,248.361,0,256.818,0,265.384c0,8.583.445,17.04,1.233,25.4H124.478L8.952,333.819a262.977,262.977,0,0,0,17.719,47.612L164.95,329.909,60.624,434.227a267.083,267.083,0,0,0,35.916,35.916L183.7,382.983l-51.228,112.07A264.266,264.266,0,0,0,178.651,516.2l61.337-134.177V529.543c8.365.789,16.83,1.233,25.4,1.233s17.04-.445,25.4-1.233V406.3l43.031,115.527a264.14,264.14,0,0,0,47.6-17.711L329.9,365.826,434.227,470.144a266.109,266.109,0,0,0,35.916-35.916l-87.161-87.161,112.07,51.244A265.2,265.2,0,0,0,516.2,352.125L382.026,290.788H529.534c.8-8.365,1.242-16.821,1.242-25.4" fill="#dee4f0" opacity="0.12"/></g></g><path d="M618.344,309.167c0-9.979-.518-19.831-1.447-29.576H473.339l134.577-50.14A307.632,307.632,0,0,0,587.273,174l-161.1,60.012L547.708,112.468a311.075,311.075,0,0,0-41.842-41.832L404.335,172.177,464.015,41.607a307.6,307.6,0,0,0-53.805-24.63L338.763,173.291V1.437C329.018.518,319.156,0,309.167,0s-19.841.518-29.586,1.437V145.015L229.452,10.438a305.538,305.538,0,0,0-55.457,20.642l60.012,161.093L112.468,70.636a312.219,312.219,0,0,0-41.842,41.832L172.167,214.009,41.607,154.33a307.922,307.922,0,0,0-24.63,53.805l156.314,71.457H1.437C.518,289.336,0,299.188,0,309.167c0,10,.518,19.851,1.437,29.6H145.015L10.429,388.893a306.364,306.364,0,0,0,20.642,55.467l161.093-60.021L70.626,505.867a311.149,311.149,0,0,0,41.842,41.842L214.009,446.168,154.33,576.727a307.863,307.863,0,0,0,53.8,24.64l71.457-156.314V616.908c9.745.919,19.606,1.437,29.586,1.437s19.851-.518,29.6-1.437V473.329l50.13,134.586a307.711,307.711,0,0,0,55.457-20.633l-60.021-161.1L505.867,547.708a310.013,310.013,0,0,0,41.842-41.842L446.168,404.326l130.559,59.7a308.948,308.948,0,0,0,24.64-53.805L445.053,338.763H616.9c.929-9.745,1.447-19.6,1.447-29.6" transform="translate(-14335.129 -12938.46)" fill="none" stroke="#fff" stroke-width="1"/><rect width="9.32" height="2.485" transform="translate(-13114.48 -12874.489)" fill="#e9dcbf"/><g transform="translate(-13397.381 -13286.881)" style="isolation:isolate"><g transform="translate(0 0)" clip-path="url(#d)" style="isolation:isolate"><path d="M19.412,0h0a3.235,3.235,0,0,0-3.177,2.829A15.828,15.828,0,0,1,2.809,16.186a3.24,3.24,0,0,0,.021,6.425A15.7,15.7,0,0,1,16.256,35.965a3.2,3.2,0,0,0,6.351.056A15.957,15.957,0,0,1,36.08,22.531a3.091,3.091,0,0,0,2.737-3.043v-.076a3.2,3.2,0,0,0-2.807-3.156A15.958,15.958,0,0,1,22.584,2.8,3.221,3.221,0,0,0,19.412,0" transform="translate(0 0)" fill="#fff" stroke="#fff" stroke-width="1"/><path d="M40.955,0h0a3.235,3.235,0,0,0-3.177,2.829A15.828,15.828,0,0,1,24.352,16.186a3.24,3.24,0,0,0,.021,6.425A15.7,15.7,0,0,1,37.8,35.965a3.2,3.2,0,0,0,6.351.056,15.957,15.957,0,0,1,13.473-13.49,3.091,3.091,0,0,0,2.737-3.043v-.076a3.2,3.2,0,0,0-2.807-3.156A15.954,15.954,0,0,1,44.129,2.8,3.224,3.224,0,0,0,40.955,0" transform="translate(20.424 0)" fill="#fff" stroke="#fff" stroke-width="1"/><path d="M62.5,0h0a3.235,3.235,0,0,0-3.177,2.829A15.828,15.828,0,0,1,45.9,16.186a3.24,3.24,0,0,0,.021,6.425A15.7,15.7,0,0,1,59.342,35.965a3.2,3.2,0,0,0,6.351.056,15.957,15.957,0,0,1,13.473-13.49A3.091,3.091,0,0,0,81.9,19.488v-.076A3.2,3.2,0,0,0,79.1,16.256,15.958,15.958,0,0,1,65.67,2.8,3.221,3.221,0,0,0,62.5,0" transform="translate(40.847 0)" fill="#fff" stroke="#fff" stroke-width="1"/><path d="M84.042,0h0a3.235,3.235,0,0,0-3.177,2.829A15.828,15.828,0,0,1,67.439,16.186a3.24,3.24,0,0,0,.021,6.425A15.7,15.7,0,0,1,80.886,35.965a3.2,3.2,0,0,0,6.351.056,15.957,15.957,0,0,1,13.473-13.49,3.091,3.091,0,0,0,2.737-3.043v-.076a3.2,3.2,0,0,0-2.807-3.156A15.958,15.958,0,0,1,87.214,2.8,3.221,3.221,0,0,0,84.042,0" transform="translate(61.271 0)" fill="#fff" stroke="#fff" stroke-width="1"/><path d="M19.412,22.12h0a3.237,3.237,0,0,0-3.177,2.83A15.83,15.83,0,0,1,2.809,38.308a3.24,3.24,0,0,0,.021,6.425A15.7,15.7,0,0,1,16.256,58.087a3.2,3.2,0,0,0,6.351.055A15.957,15.957,0,0,1,36.08,44.653a3.092,3.092,0,0,0,2.737-3.043v-.078a3.205,3.205,0,0,0-2.807-3.156A15.956,15.956,0,0,1,22.584,24.919a3.221,3.221,0,0,0-3.171-2.8" transform="translate(0 20.97)" fill="#fff" stroke="#fff" stroke-width="1"/><path d="M40.955,22.12h0a3.237,3.237,0,0,0-3.177,2.83A15.83,15.83,0,0,1,24.352,38.308a3.24,3.24,0,0,0,.021,6.425A15.7,15.7,0,0,1,37.8,58.087a3.2,3.2,0,0,0,6.351.055A15.957,15.957,0,0,1,57.623,44.653,3.092,3.092,0,0,0,60.36,41.61v-.078a3.205,3.205,0,0,0-2.807-3.156A15.952,15.952,0,0,1,44.129,24.919a3.224,3.224,0,0,0-3.173-2.8" transform="translate(20.424 20.97)" fill="#fff" stroke="#fff" stroke-width="1"/><path d="M62.5,22.12h0a3.237,3.237,0,0,0-3.177,2.83A15.83,15.83,0,0,1,45.9,38.308a3.24,3.24,0,0,0,.021,6.425A15.7,15.7,0,0,1,59.342,58.087a3.2,3.2,0,0,0,6.351.055A15.957,15.957,0,0,1,79.166,44.653,3.092,3.092,0,0,0,81.9,41.61v-.078A3.205,3.205,0,0,0,79.1,38.376,15.956,15.956,0,0,1,65.67,24.919a3.221,3.221,0,0,0-3.171-2.8" transform="translate(40.847 20.97)" fill="#fff" stroke="#fff" stroke-width="1"/><path d="M84.042,22.12h0a3.237,3.237,0,0,0-3.177,2.83A15.83,15.83,0,0,1,67.439,38.308a3.24,3.24,0,0,0,.021,6.425A15.7,15.7,0,0,1,80.886,58.087a3.2,3.2,0,0,0,6.351.055A15.957,15.957,0,0,1,100.71,44.653a3.092,3.092,0,0,0,2.737-3.043v-.078a3.205,3.205,0,0,0-2.807-3.156A15.956,15.956,0,0,1,87.214,24.919a3.221,3.221,0,0,0-3.171-2.8" transform="translate(61.271 20.97)" fill="#fff" stroke="#fff" stroke-width="1"/><path d="M19.412,44.241h0a3.235,3.235,0,0,0-3.177,2.829A15.823,15.823,0,0,1,2.809,60.425a3.241,3.241,0,0,0,.021,6.427A15.7,15.7,0,0,1,16.256,80.206a3.2,3.2,0,0,0,6.351.056A15.957,15.957,0,0,1,36.08,66.772a3.092,3.092,0,0,0,2.737-3.043v-.076A3.2,3.2,0,0,0,36.009,60.5,15.958,15.958,0,0,1,22.584,47.04a3.221,3.221,0,0,0-3.171-2.8" transform="translate(0 41.942)" fill="#fff" stroke="#fff" stroke-width="1"/><path d="M40.955,44.241h0a3.235,3.235,0,0,0-3.177,2.829A15.823,15.823,0,0,1,24.352,60.425a3.241,3.241,0,0,0,.021,6.427A15.7,15.7,0,0,1,37.8,80.206a3.2,3.2,0,0,0,6.351.056,15.957,15.957,0,0,1,13.473-13.49,3.092,3.092,0,0,0,2.737-3.043v-.076A3.2,3.2,0,0,0,57.552,60.5,15.954,15.954,0,0,1,44.129,47.04a3.224,3.224,0,0,0-3.173-2.8" transform="translate(20.424 41.942)" fill="#fff" stroke="#fff" stroke-width="1"/><path d="M62.5,44.241h0a3.235,3.235,0,0,0-3.177,2.829A15.823,15.823,0,0,1,45.9,60.425a3.241,3.241,0,0,0,.021,6.427A15.7,15.7,0,0,1,59.342,80.206a3.2,3.2,0,0,0,6.351.056,15.957,15.957,0,0,1,13.473-13.49A3.092,3.092,0,0,0,81.9,63.729v-.076A3.2,3.2,0,0,0,79.1,60.5,15.958,15.958,0,0,1,65.67,47.04a3.221,3.221,0,0,0-3.171-2.8" transform="translate(40.847 41.942)" fill="#fff" stroke="#fff" stroke-width="1"/><path d="M84.042,44.241h0a3.235,3.235,0,0,0-3.177,2.829A15.823,15.823,0,0,1,67.439,60.425a3.241,3.241,0,0,0,.021,6.427A15.7,15.7,0,0,1,80.886,80.206a3.2,3.2,0,0,0,6.351.056,15.957,15.957,0,0,1,13.473-13.49,3.092,3.092,0,0,0,2.737-3.043v-.076a3.2,3.2,0,0,0-2.807-3.156A15.958,15.958,0,0,1,87.214,47.04a3.221,3.221,0,0,0-3.171-2.8" transform="translate(61.271 41.942)" fill="#fff" stroke="#fff" stroke-width="1"/><path d="M19.412,66.361h0a3.235,3.235,0,0,0-3.177,2.829A15.828,15.828,0,0,1,2.809,82.547a3.24,3.24,0,0,0,.021,6.425,15.7,15.7,0,0,1,13.426,13.354,3.2,3.2,0,0,0,6.351.056A15.957,15.957,0,0,1,36.08,88.892a3.091,3.091,0,0,0,2.737-3.043v-.076a3.2,3.2,0,0,0-2.807-3.156A15.958,15.958,0,0,1,22.584,69.16a3.221,3.221,0,0,0-3.171-2.8" transform="translate(0 62.912)" fill="#fff" stroke="#fff" stroke-width="1"/><path d="M40.955,66.361h0a3.235,3.235,0,0,0-3.177,2.829A15.827,15.827,0,0,1,24.352,82.547a3.24,3.24,0,0,0,.021,6.425A15.7,15.7,0,0,1,37.8,102.326a3.2,3.2,0,0,0,6.351.056,15.957,15.957,0,0,1,13.473-13.49,3.091,3.091,0,0,0,2.737-3.043v-.076a3.2,3.2,0,0,0-2.807-3.156A15.954,15.954,0,0,1,44.129,69.16a3.224,3.224,0,0,0-3.173-2.8" transform="translate(20.424 62.912)" fill="#fff" stroke="#fff" stroke-width="1"/><path d="M62.5,66.361h0a3.235,3.235,0,0,0-3.177,2.829A15.827,15.827,0,0,1,45.9,82.547a3.24,3.24,0,0,0,.021,6.425,15.7,15.7,0,0,1,13.426,13.354,3.2,3.2,0,0,0,6.351.056,15.957,15.957,0,0,1,13.473-13.49A3.091,3.091,0,0,0,81.9,85.849v-.076A3.2,3.2,0,0,0,79.1,82.617,15.958,15.958,0,0,1,65.67,69.16a3.221,3.221,0,0,0-3.171-2.8" transform="translate(40.847 62.912)" fill="#fff" stroke="#fff" stroke-width="1"/><path d="M84.042,66.361h0a3.235,3.235,0,0,0-3.177,2.829A15.827,15.827,0,0,1,67.439,82.547a3.24,3.24,0,0,0,.021,6.425,15.7,15.7,0,0,1,13.426,13.354,3.2,3.2,0,0,0,6.351.056,15.957,15.957,0,0,1,13.473-13.49,3.091,3.091,0,0,0,2.737-3.043v-.076a3.2,3.2,0,0,0-2.807-3.156A15.958,15.958,0,0,1,87.214,69.16a3.221,3.221,0,0,0-3.171-2.8" transform="translate(61.271 62.912)" fill="#fff" stroke="#fff" stroke-width="1"/></g></g></g><path d="M0,0V35.642H58.378" transform="translate(4549.77 -9470.907) rotate(180)" fill="none" stroke="#e9dcbf" stroke-width="3"/><rect width="114.298" height="46.703" rx="23.351" transform="translate(4403.574 -9526.699)" fill="#e9dcbf"/><rect width="245.803" height="26.424" rx="13.212" transform="translate(4417.037 -9311.75)" fill="#a5b9f6"/><g transform="translate(4413.35 -9518.906)"><g transform="translate(180.665 0)"><g transform="translate(0)"><path d="M462.22,87.408h30.2a2.381,2.381,0,0,1,2.381,2.381V109.8a2.381,2.381,0,0,1-2.381,2.381h-15.9l-7.559,7.559V112.18H462.22a1.765,1.765,0,0,1-1.765-1.765V89.173A1.765,1.765,0,0,1,462.22,87.408Z" transform="translate(-460.455 -87.408)" fill="#ffe4b3"/><g transform="translate(8.231 11.029)"><path d="M482.721,114.257a1.777,1.777,0,1,1-1.777-1.777A1.777,1.777,0,0,1,482.721,114.257Z" transform="translate(-479.167 -112.48)" fill="#fafafa"/></g><g transform="translate(15.259 11.029)"><path d="M498.7,114.257a1.777,1.777,0,1,1-1.777-1.777A1.777,1.777,0,0,1,498.7,114.257Z" transform="translate(-495.145 -112.48)" fill="#fafafa"/></g><g transform="translate(22.288 11.029)"><path d="M514.677,114.257a1.777,1.777,0,1,1-1.777-1.777A1.777,1.777,0,0,1,514.677,114.257Z" transform="translate(-511.123 -112.48)" fill="#fafafa"/></g></g></g><g transform="translate(0 45.742)"><g transform="translate(9.308)"><rect width="230.279" height="152.281" rx="14.567" fill="#455a64"/></g><g transform="translate(0 141.019)"><path d="M0,0H249.49a0,0,0,0,1,0,0V0a13.324,13.324,0,0,1-13.324,13.324H13.324A13.324,13.324,0,0,1,0,0V0A0,0,0,0,1,0,0Z" fill="#455a64"/></g><g transform="translate(15.811 6.05)"><rect width="217.273" height="128.599" fill="#f5f5f5"/></g><g transform="translate(102.068 140.869)"><path d="M338.114,432.248s.077,0,.24-.007l.73-.008,2.838-.016,10.527-.043,35.2-.076h.26l-.132.225-1.4,2.393c-.5.859-1,1.713-1.478,2.531l-.043.074h-.086l-43.564-.082h-.038l-.019-.032-2.281-3.71-.574-.94c-.127-.209-.184-.311-.184-.311s.078.113.217.326l.609.942,2.327,3.62-.057-.031,43.564-.082-.128.074,1.477-2.531,1.4-2.394.129.224-35.056-.076-10.577-.042-2.881-.016-.755-.007C338.208,432.253,338.114,432.248,338.114,432.248Z" transform="translate(-338.114 -432.098)" fill="#263238"/></g><g transform="translate(23.894 13.618)"><g transform="translate(68.489 11.915)"><path d="M323.887,232.176a7.426,7.426,0,0,1,1.38-1.409l-.328-1.8,2.783-1.187,1.072,1.482a7.419,7.419,0,0,1,1.973-.021l1.04-1.5,2.808,1.128-.29,1.8a7.415,7.415,0,0,1,1.409,1.381l1.8-.328,1.188,2.783-1.483,1.072a7.389,7.389,0,0,1,.022,1.972l1.5,1.04-1.128,2.808-1.805-.29a7.427,7.427,0,0,1-1.38,1.409l.328,1.8L332,245.5l-1.072-1.482a7.415,7.415,0,0,1-1.972.021l-1.04,1.5-2.808-1.128.29-1.8a7.4,7.4,0,0,1-1.41-1.381l-1.8.328L321,238.778l1.483-1.072a7.44,7.44,0,0,1-.022-1.972l-1.5-1.04,1.128-2.808,1.805.29ZM326.9,235.3a3.246,3.246,0,1,0,4.222-1.8A3.246,3.246,0,0,0,326.9,235.3Z" transform="translate(-320.953 -227.736)" fill="#e0e0e0" fill-rule="evenodd"/></g><g transform="translate(51.642 61.854)"><path d="M299.6,329.089a21.467,21.467,0,0,1,4-4.084l-.952-5.214,8.065-3.442,3.106,4.294a21.469,21.469,0,0,1,5.716-.063l3.013-4.358,8.137,3.269-.84,5.23a21.492,21.492,0,0,1,4.084,4l5.214-.952,3.442,8.065-4.294,3.106a21.494,21.494,0,0,1,.063,5.716l4.358,3.013-3.269,8.137-5.231-.84a21.474,21.474,0,0,1-4,4.084l.952,5.214-8.065,3.442-3.106-4.295a21.494,21.494,0,0,1-5.716.063l-3.013,4.358-8.137-3.269.84-5.23a21.456,21.456,0,0,1-4.084-4l-5.214.952-3.442-8.065,4.294-3.106a21.515,21.515,0,0,1-.063-5.716l-4.358-3.013,3.269-8.136,5.232.84Zm8.725,9.062a9.406,9.406,0,1,0,12.235-5.222A9.406,9.406,0,0,0,308.326,338.151Z" transform="translate(-291.101 -316.223)" fill="#f5f5f5" fill-rule="evenodd"/></g><g transform="translate(14.591 78.325)"><g transform="translate(0.093 0.14)"><path d="M230.319,352.773a11.877,11.877,0,0,1,2.213-2.259l-.527-2.885,4.462-1.9,1.719,2.375a11.878,11.878,0,0,1,3.162-.034l1.667-2.411,4.5,1.809-.464,2.894a11.847,11.847,0,0,1,2.259,2.213l2.884-.527,1.9,4.461-2.376,1.719a11.858,11.858,0,0,1,.034,3.163l2.412,1.667-1.809,4.5-2.894-.465a11.886,11.886,0,0,1-2.213,2.26l.527,2.884-4.462,1.9-1.719-2.376a11.877,11.877,0,0,1-3.162.035l-1.667,2.411-4.5-1.809.464-2.893a11.882,11.882,0,0,1-2.259-2.213l-2.885.527-1.9-4.461,2.376-1.719a11.9,11.9,0,0,1-.034-3.162l-2.412-1.667,1.809-4.5,2.894.465Zm4.827,5.014a5.2,5.2,0,1,0,6.769-2.889A5.2,5.2,0,0,0,235.146,357.787Z" transform="translate(-225.616 -345.655)" fill="none"/></g><g transform="translate(9.179 8.892)"><path d="M242.159,364.542a3.925,3.925,0,0,1,.578-1.152,5.178,5.178,0,0,1,2.843-2.022,5.248,5.248,0,0,1,2.447-.109,5.325,5.325,0,0,1,2.52,1.246,5.332,5.332,0,0,1,1.618,2.649,5.31,5.31,0,0,1-2.357,5.869,5.336,5.336,0,0,1-3,.793,5.326,5.326,0,0,1-2.682-.844,5.247,5.247,0,0,1-1.691-1.771,5.184,5.184,0,0,1-.655-3.427,3.935,3.935,0,0,1,.38-1.231c.035.011-.163.435-.265,1.247a5.191,5.191,0,0,0,.721,3.3,5.08,5.08,0,0,0,4.2,2.449,5.078,5.078,0,0,0,2.838-.766,5.043,5.043,0,0,0,2.229-5.548,5.088,5.088,0,0,0-1.519-2.517,5.084,5.084,0,0,0-4.727-1.139,5.19,5.19,0,0,0-2.806,1.886C242.343,364.116,242.193,364.558,242.159,364.542Z" transform="translate(-241.715 -361.163)" fill="#263238"/></g><path d="M230.247,352.665a1.073,1.073,0,0,1-.182-.019l-.55-.076-2.169-.323.051-.029-1.782,4.512-.027-.09,2.418,1.657.043.029-.006.053a11.862,11.862,0,0,0,.045,3.137l.008.059-.048.035-2.371,1.725.035-.128c.6,1.4,1.243,2.893,1.914,4.457l-.129-.07,2.883-.532.073-.014.046.059a11.823,11.823,0,0,0,2.239,2.186l.062.047-.012.077-.461,2.895-.081-.144,4.5,1.8-.166.05,1.664-2.413.049-.071.085.01a11.79,11.79,0,0,0,3.124-.037l.086-.012.051.071,1.72,2.375-.176-.049,4.461-1.906-.087.163-.528-2.885-.016-.089.071-.055a11.8,11.8,0,0,0,2.184-2.229l0,0,.055-.072.089.014,2.894.465-.162.092,1.81-4.5.053.177L251.6,361.4l-.073-.05.011-.088a11.733,11.733,0,0,0-.032-3.124l-.012-.086.071-.051,2.377-1.717-.047.171L252,351.99l.151.081-2.885.523-.08.014-.05-.064a11.774,11.774,0,0,0-2.231-2.192l-.063-.047.012-.077c.161-.992.317-1.953.47-2.892l.077.135-4.5-1.818.137-.041-1.672,2.406-.037.054-.064-.008a11.842,11.842,0,0,0-3.135.025l-.059.008-.034-.048-1.71-2.382.106.029-4.47,1.884.039-.073.508,2.888.005.029-.023.018a12.327,12.327,0,0,0-1.734,1.625l-.381.449a1.219,1.219,0,0,1-.128.148,1.5,1.5,0,0,1,.108-.163c.077-.1.194-.263.363-.466a11.519,11.519,0,0,1,1.712-1.669l-.017.047-.546-2.881-.01-.052.05-.021,4.453-1.923.064-.028.042.057,1.726,2.37-.094-.039a12,12,0,0,1,3.189-.044l-.1.046,1.66-2.415.051-.075.085.034,4.5,1.8.092.037-.015.1c-.15.94-.3,1.9-.46,2.894l-.05-.124a12.005,12.005,0,0,1,2.287,2.234l-.129-.049,2.883-.53.108-.02.043.1,1.909,4.46.045.1-.092.067-2.375,1.72.058-.138a12.021,12.021,0,0,1,.037,3.2l-.062-.138,2.412,1.666.1.067-.043.11-1.808,4.5-.044.111-.118-.019-2.894-.465.143-.058,0,0a12.055,12.055,0,0,1-2.239,2.285l.055-.144.526,2.884.021.117-.109.046-4.462,1.9-.108.046-.068-.095-1.717-2.377.138.058a12.073,12.073,0,0,1-3.2.033l.134-.06-1.669,2.409-.063.091-.1-.042-4.5-1.814-.1-.04.017-.1c.163-1.007.324-2,.469-2.893l.05.124a12.039,12.039,0,0,1-2.279-2.241l.119.045-2.886.521-.093.017-.037-.086-1.893-4.466-.033-.078.069-.05,2.381-1.712-.04.093a11.986,11.986,0,0,1-.024-3.187l.037.083-2.4-1.676-.05-.035.023-.056c.747-1.829,1.365-3.341,1.835-4.491l.014-.036.037.007,2.143.37.554.1A1.381,1.381,0,0,1,230.247,352.665Z" transform="translate(-225.452 -345.407)" fill="#263238"/></g><path d="M207.964,232.649a29.61,29.61,0,0,1,3.681-6.969l-3.308-6.517,9.306-7.719,5.793,4.455a29.6,29.6,0,0,1,7.53-2.33l2.268-6.944,12.039,1.122.946,7.243a29.611,29.611,0,0,1,6.971,3.683l6.517-3.308,7.719,9.306-4.455,5.794a29.609,29.609,0,0,1,2.33,7.53l6.945,2.268L271.125,252.3l-7.243.946a29.618,29.618,0,0,1-3.683,6.97l3.308,6.517-9.306,7.719L248.408,270a29.621,29.621,0,0,1-7.53,2.33l-2.269,6.945-12.039-1.122-.946-7.243a29.65,29.65,0,0,1-6.97-3.682l-6.517,3.308-7.719-9.306,4.455-5.794a29.616,29.616,0,0,1-2.33-7.53l-6.945-2.268L200.72,233.6l7.244-.946Zm15.095,8.548a12.971,12.971,0,1,0,14.118-11.711A12.97,12.97,0,0,0,223.059,241.2Z" transform="translate(-199.598 -206.624)" fill="#e0e0e0" fill-rule="evenodd"/></g><g transform="translate(9.308 140.878)"><g transform="translate(0 0.14)"><line x2="230.279" fill="#263238"/></g><g transform="translate(0)"><path d="M404.032,432.255c0,.077-51.554.14-115.134.14-63.6,0-115.145-.063-115.145-.14s51.543-.14,115.145-.14C352.478,432.115,404.032,432.178,404.032,432.255Z" transform="translate(-173.753 -432.115)" fill="#263238"/></g></g></g><g transform="translate(54.669 5.389)"><g transform="translate(39.166)"><g transform="translate(0 8.353)"><path d="M345.422,125.794c-3.551,1.558-5.618,5.385-6.393,9.185s-.52,7.727-.857,11.59-1.4,7.9-4.215,10.564c-2.628,2.481-6.5,3.491-8.737,6.328a7.96,7.96,0,0,0,4.538,12.7c-1.77,2.8-.884,6.72,1.381,9.143s5.593,3.577,8.873,4.076a24.116,24.116,0,0,0,16.791-3.3,18.005,18.005,0,0,0,8.27-14.619" transform="translate(-323.526 -125.794)" fill="#263238"/><g transform="translate(5.526 27.506)"><path d="M334.307,204.353a4.65,4.65,0,0,1-.625-1.257,7.569,7.569,0,0,1-.227-3.809,10.477,10.477,0,0,1,.814-2.53,14,14,0,0,1,1.63-2.574,47.106,47.106,0,0,1,4.882-4.941,51.206,51.206,0,0,0,4.747-5.024,23.477,23.477,0,0,0,3.037-4.731A16.582,16.582,0,0,0,349.8,175.9c.106-.437.137-.786.186-1.018a1.791,1.791,0,0,1,.077-.355,1.729,1.729,0,0,1-.021.362c-.032.235-.045.589-.135,1.032a15.4,15.4,0,0,1-1.16,3.646,22.866,22.866,0,0,1-3.015,4.808,49.061,49.061,0,0,1-4.755,5.066,49.186,49.186,0,0,0-4.873,4.9,14.013,14.013,0,0,0-1.623,2.515,10.453,10.453,0,0,0-.829,2.466,7.708,7.708,0,0,0,.136,3.74A13.174,13.174,0,0,0,334.307,204.353Z" transform="translate(-333.317 -174.531)" fill="#455a64"/></g></g><g transform="translate(46.564 21.101)"><path d="M423.811,148.382c0,5.216,2.406,10,4.571,11.754,3.061,2.487,7.553,3.688,10.513,4.516a11.69,11.69,0,0,1,8.464,9.423c.539,4.444-2.368,9.2-6.7,10.313,2.725,2.783,1.914,7.567-.329,10.75-4.251,6.034-12.734,8.352-19.769,6.122s-12.427-8.466-14.526-15.541" transform="translate(-406.032 -148.382)" fill="#263238"/><g transform="translate(14.802 14.61)"><path d="M445.963,211.029a4.648,4.648,0,0,0,1.658-.73,4.853,4.853,0,0,0,1.389-1.591,5.779,5.779,0,0,0,.743-2.685,6.573,6.573,0,0,0-.872-3.253,10.538,10.538,0,0,0-2.535-2.973c-2.136-1.8-5.043-2.926-7.853-4.541a15.374,15.374,0,0,1-3.73-2.929,8.939,8.939,0,0,1-1.3-1.859,8.188,8.188,0,0,1-.73-2.051,13.946,13.946,0,0,1-.183-3.992c.094-1.247.253-2.4.363-3.448a15.344,15.344,0,0,0-.078-4.969l-.2-.755c-.064-.217-.152-.39-.2-.536a3.053,3.053,0,0,1-.162-.448,3,3,0,0,1,.214.426c.061.143.157.314.231.531l.233.757a14.816,14.816,0,0,1,.169,5.013c-.1,1.057-.245,2.208-.328,3.445a13.857,13.857,0,0,0,.2,3.92,8.112,8.112,0,0,0,1.987,3.784,15.231,15.231,0,0,0,3.667,2.87c2.779,1.6,5.7,2.738,7.877,4.585a10.715,10.715,0,0,1,2.573,3.059,6.735,6.735,0,0,1,.866,3.37,5.9,5.9,0,0,1-.805,2.757,4.873,4.873,0,0,1-1.462,1.6,4.054,4.054,0,0,1-1.248.569A2.979,2.979,0,0,1,445.963,211.029Z" transform="translate(-432.26 -174.269)" fill="#455a64"/></g><g transform="translate(15.833 7.102)"><path d="M456.919,187.831a2.792,2.792,0,0,0,.527-1.449,3.5,3.5,0,0,0-.4-1.759,4.406,4.406,0,0,0-1.6-1.766,7.8,7.8,0,0,0-2.773-.936c-1.05-.183-2.2-.249-3.4-.436a18.252,18.252,0,0,1-7.3-2.887,17.94,17.94,0,0,1-5.394-5.705,18.15,18.15,0,0,1-2.215-6.027,17.336,17.336,0,0,1-.231-4.326c.04-.511.087-.905.135-1.171a2.256,2.256,0,0,1,.078-.4c.033,0-.064.562-.1,1.58a18.555,18.555,0,0,0,2.558,10.216,17.9,17.9,0,0,0,5.329,5.6,18.218,18.218,0,0,0,7.184,2.865c1.183.191,2.333.267,3.4.462a7.928,7.928,0,0,1,2.838,1,4.529,4.529,0,0,1,1.635,1.866,3.563,3.563,0,0,1,.371,1.835,2.517,2.517,0,0,1-.372,1.124,3,3,0,0,1-.19.243C456.947,187.809,456.923,187.835,456.919,187.831Z" transform="translate(-434.086 -160.966)" fill="#455a64"/></g></g><g transform="translate(14.537 2.437)"><g transform="translate(0.531 4.993)"><path d="M359.586,198.969c.743-7.793,1.382-16.012,1.382-16.012S351.095,180.3,350.3,167c-.754-12.684,4.142-41.322,4.142-41.322h0a37.816,37.816,0,0,1,40.916,13.713h0l-7.077,63.2c-.821,7.337-7.784,12.474-15.633,11.534h0C364.725,213.178,358.878,206.394,359.586,198.969Z" transform="translate(-350.225 -124.159)" fill="#b78876"/><g transform="translate(3.161 20.802)"><g transform="translate(2.544 2.248)"><path d="M360.347,166.365a1.687,1.687,0,0,0,1.453,1.854,1.614,1.614,0,0,0,1.88-1.344,1.688,1.688,0,0,0-1.451-1.855A1.616,1.616,0,0,0,360.347,166.365Z" transform="translate(-360.333 -165)" fill="#263238"/></g><path d="M355.846,162.481c.186.239,1.551-.577,3.359-.394,1.807.156,3.042,1.217,3.26,1.014.106-.088-.067-.5-.6-.981a4.631,4.631,0,0,0-2.583-1.084,4.446,4.446,0,0,0-2.7.588C355.981,162,355.753,162.373,355.846,162.481Z" transform="translate(-355.826 -161.017)" fill="#263238"/></g><g transform="translate(21.953 23.314)"><g transform="translate(2.221 1.875)"><path d="M393.073,170.156a1.688,1.688,0,0,0,1.453,1.854,1.614,1.614,0,0,0,1.88-1.344,1.689,1.689,0,0,0-1.451-1.855A1.615,1.615,0,0,0,393.073,170.156Z" transform="translate(-393.059 -168.791)" fill="#263238"/></g><path d="M389.144,166.933c.187.24,1.554-.576,3.359-.394,1.807.156,3.042,1.217,3.26,1.015.106-.089-.066-.5-.6-.982a4.629,4.629,0,0,0-2.583-1.083,4.445,4.445,0,0,0-2.7.587C389.28,166.447,389.052,166.825,389.144,166.933Z" transform="translate(-389.124 -165.468)" fill="#263238"/></g><g transform="translate(9.612 22.558)"><path d="M371.74,179.106a12.047,12.047,0,0,0-2.883-.818c-.457-.093-.884-.227-.931-.55a2.363,2.363,0,0,1,.443-1.338q.815-1.611,1.711-3.379c2.387-4.817,4.164-8.8,3.969-8.89s-2.288,3.733-4.676,8.55q-.866,1.783-1.655,3.406a2.687,2.687,0,0,0-.418,1.788,1.165,1.165,0,0,0,.692.749,3.163,3.163,0,0,0,.773.186A11.812,11.812,0,0,0,371.74,179.106Z" transform="translate(-367.257 -164.129)" fill="#263238"/></g><g transform="translate(10.615 55.846)"><path d="M369.162,226.064a33.478,33.478,0,0,0,18-2.953s-5.14,8.577-18.126,6.062Z" transform="translate(-369.034 -223.111)" fill="#aa6550"/></g><g transform="translate(14.212 40.974)"><path d="M375.626,197.752a3.27,3.27,0,0,1,3.038-.922,2.988,2.988,0,0,1,1.945,1.3,1.893,1.893,0,0,1-.069,2.168,2.2,2.2,0,0,1-2.428.366,6.88,6.88,0,0,1-2.175-1.606,2.012,2.012,0,0,1-.463-.585.608.608,0,0,1,.069-.673" transform="translate(-375.406 -196.76)" fill="#aa6550"/></g><g transform="translate(13.058 39.308)"><path d="M379.6,193.809c-.292-.046-.489,1.915-2.3,3.142s-3.883.806-3.926,1.078c-.04.12.428.427,1.309.537a4.905,4.905,0,0,0,3.265-.789,4.275,4.275,0,0,0,1.807-2.647C379.9,194.318,379.731,193.811,379.6,193.809Z" transform="translate(-373.363 -193.809)" fill="#263238"/></g><g transform="translate(37.216 29.166)"><path d="M417.858,175.878a7.847,7.847,0,0,1,4.189.685,5.477,5.477,0,0,1,2.81,3.1,5.723,5.723,0,0,1-.376,4.189,9.689,9.689,0,0,1-2.732,3.287,6.565,6.565,0,0,1-2.708,1.437,3.135,3.135,0,0,1-2.872-.739" transform="translate(-416.168 -175.837)" fill="#b78876"/></g><g transform="translate(38.815 31.205)"><path d="M419.03,186.017c-.165.036.36.943,1.674.724a2.769,2.769,0,0,0,1.719-1.225,6.263,6.263,0,0,0,.926-2.255,3.676,3.676,0,0,0-.349-2.524,2.446,2.446,0,0,0-1.733-1.268c-1.314-.159-1.812.713-1.665.755.1.117.652-.3,1.494-.011a2.373,2.373,0,0,1,1.193,2.848c-.3,1.426-.982,2.69-1.781,2.943C419.67,186.332,419.13,185.91,419.03,186.017Z" transform="translate(-419.001 -179.45)" fill="#aa6550"/></g></g><path d="M360.365,127.429a16.042,16.042,0,0,1-10.807,9.1,39.056,39.056,0,0,1,.059-9.709,15.355,15.355,0,0,1,4.168-8.614,9.648,9.648,0,0,1,8.932-2.628" transform="translate(-349.283 -115.311)" fill="#263238"/></g><g transform="translate(25.642)"><path d="M369.84,119.607a12.88,12.88,0,0,0,13.315,17.568,5.535,5.535,0,0,1,2.565.049,4.559,4.559,0,0,1,1.94,1.909c2.088,3.119,4.293,6.362,7.582,8.168s8,1.629,10.2-1.412a11.246,11.246,0,0,0,1.633-5.167c.834-6.08,1.176-12.606-1.721-18.016a20.6,20.6,0,0,0-10.117-8.821,39.428,39.428,0,0,0-13.314-2.812,17.79,17.79,0,0,0-7.836.837c-2.453,1-4.571,3.229-4.71,5.875" transform="translate(-368.961 -110.993)" fill="#263238"/></g><g transform="translate(28.676 2.786)"><path d="M408.835,144.591a2.944,2.944,0,0,1-.16-.446c-.089-.3-.24-.728-.442-1.281a23.743,23.743,0,0,0-2.226-4.437,23.145,23.145,0,0,0-4.894-5.461,31.885,31.885,0,0,0-7.837-4.413c-2.961-1.24-5.855-2.263-8.388-3.448a29.318,29.318,0,0,1-6.325-3.863,16.54,16.54,0,0,1-3.355-3.7,11.544,11.544,0,0,1-.672-1.183,3.06,3.06,0,0,1-.2-.43,3.028,3.028,0,0,1,.248.4c.145.274.388.66.713,1.15a17.227,17.227,0,0,0,3.389,3.607A29.927,29.927,0,0,0,385,124.872c2.523,1.165,5.416,2.18,8.388,3.424a31.6,31.6,0,0,1,7.891,4.47,22.9,22.9,0,0,1,4.9,5.555,22.285,22.285,0,0,1,2.161,4.506c.187.56.322,1,.394,1.3A3.07,3.07,0,0,1,408.835,144.591Z" transform="translate(-374.337 -115.93)" fill="#455a64"/></g><g transform="translate(28.676 3.119)"><path d="M404.763,144.128a2.526,2.526,0,0,1-.222-.371,11.577,11.577,0,0,0-.672-1.036,13.812,13.812,0,0,0-3.25-3.137,31.662,31.662,0,0,0-5.959-3.128c-1.168-.5-2.4-1.022-3.658-1.619s-2.53-1.267-3.795-2.025a33.252,33.252,0,0,1-6.573-5.069,25.345,25.345,0,0,1-4.1-5.394,20.912,20.912,0,0,1-1.806-4.2c-.147-.52-.256-.924-.309-1.2a2.444,2.444,0,0,1-.077-.427,2.531,2.531,0,0,1,.132.413c.071.274.2.673.358,1.185a22.407,22.407,0,0,0,1.874,4.133,25.828,25.828,0,0,0,4.114,5.31,33.775,33.775,0,0,0,6.534,5.01c1.256.752,2.525,1.418,3.769,2.018s2.476,1.118,3.643,1.63a30.815,30.815,0,0,1,5.972,3.2,13.3,13.3,0,0,1,3.223,3.234,9.1,9.1,0,0,1,.633,1.072A2.477,2.477,0,0,1,404.763,144.128Z" transform="translate(-374.337 -116.52)" fill="#455a64"/></g><g transform="translate(13.839 2.501)"><path d="M349.066,141.776a1.435,1.435,0,0,1-.127-.3c-.072-.2-.186-.5-.309-.887a15.527,15.527,0,0,1-.565-3.408,16.343,16.343,0,0,1,3.381-10.693,14.989,14.989,0,0,1,2.269-2.343,29.006,29.006,0,0,1,2.463-1.764,25.932,25.932,0,0,0,4.075-3.03,9.071,9.071,0,0,0,2-2.746c.327-.739.4-1.188.431-1.18a1.439,1.439,0,0,1-.05.325,5.976,5.976,0,0,1-.282.9,8.718,8.718,0,0,1-1.956,2.843,24.86,24.86,0,0,1-4.071,3.1,29.586,29.586,0,0,0-2.431,1.76,14.918,14.918,0,0,0-2.223,2.3,16.034,16.034,0,0,0-2.774,5.5,16.344,16.344,0,0,0-.63,5.012,17.055,17.055,0,0,0,.474,3.387c.1.366.19.664.257.9A1.428,1.428,0,0,1,349.066,141.776Z" transform="translate(-348.048 -115.424)" fill="#455a64"/></g><g transform="translate(27.971 2.558)"><g transform="translate(9.665 35.549)"><g transform="translate(1.18)"><path d="M400.689,195.376A12.581,12.581,0,0,1,392.3,192.3l.359-.4a11.888,11.888,0,0,0,19.015-13.19l.5-.2a12.866,12.866,0,0,1-4.481,14.758A12.314,12.314,0,0,1,400.689,195.376Z" transform="translate(-392.304 -178.515)" fill="#e8505b"/></g><g transform="translate(0 11.964)"><path d="M395.415,202.313a2.6,2.6,0,1,1-2.6-2.6A2.6,2.6,0,0,1,395.415,202.313Z" transform="translate(-390.214 -199.713)" fill="#e8505b"/></g></g><g transform="translate(22.53 27.19)"><circle cx="8.709" cy="8.709" r="8.709" transform="translate(0 17.288) rotate(-83.008)" fill="#e8505b"/></g><path d="M403.912,151.209a11.164,11.164,0,0,1,.051-2.209c.028-.716.062-1.58.1-2.579.01-1.006.043-2.149,0-3.412,0-.632-.043-1.292-.081-1.979s-.1-1.4-.172-2.137-.2-1.492-.294-2.273l-.22-1.177c-.069-.4-.154-.8-.259-1.2a23.028,23.028,0,0,0-4.559-9.6,21.181,21.181,0,0,0-8.682-6.084,38.125,38.125,0,0,0-8.547-2.149c-2.5-.349-4.55-.454-5.964-.554a11.365,11.365,0,0,1-2.2-.181,10.935,10.935,0,0,1,2.209-.146,53.37,53.37,0,0,1,6.03.292,36.175,36.175,0,0,1,8.755,2.017,21.49,21.49,0,0,1,9.046,6.267,23.239,23.239,0,0,1,4.667,9.967c.1.413.184.824.249,1.233s.138.809.206,1.205c.087.8.216,1.568.257,2.32s.118,1.475.126,2.172.046,1.366.028,2c0,1.277-.073,2.429-.128,3.44-.084,1.009-.164,1.877-.245,2.584A11.151,11.151,0,0,1,403.912,151.209Z" transform="translate(-373.088 -115.526)" fill="#e8505b"/><g transform="translate(26.478 30.9)" opacity="0.4"><path d="M431.992,176.272A5.994,5.994,0,1,1,426,170.278,5.994,5.994,0,0,1,431.992,176.272Z" transform="translate(-420.004 -170.278)"/></g><g transform="translate(28.008 30.85)"><path d="M425.207,170.642a1.194,1.194,0,0,1,.268-.139,4.031,4.031,0,0,1,.831-.246,4.729,4.729,0,0,1,3.109.532,4.2,4.2,0,0,1,1.6,1.532,4.634,4.634,0,0,1,.641,2.458,4.532,4.532,0,0,1-6.415,4.012,4.428,4.428,0,0,1-2-1.97,4.642,4.642,0,0,1-.511-2.49,4.709,4.709,0,0,1,.739-2.087,4.357,4.357,0,0,1,2.483-1.933,2.8,2.8,0,0,1,.862-.1,1.214,1.214,0,0,1,.3.043,4.269,4.269,0,0,0-1.132.16,4.342,4.342,0,0,0-2.344,1.934,4.546,4.546,0,0,0-.677,2,4.434,4.434,0,0,0,.509,2.352,4.189,4.189,0,0,0,1.886,1.842,4.216,4.216,0,0,0,6.04-3.769,4.432,4.432,0,0,0-.583-2.335,4.032,4.032,0,0,0-1.495-1.478,4.738,4.738,0,0,0-2.995-.6A8.425,8.425,0,0,0,425.207,170.642Z" transform="translate(-422.715 -170.188)" fill="#263238"/></g><g transform="translate(32.14 39.953)"><path d="M430.316,189.164a4.818,4.818,0,0,1-.117-2.846,5.119,5.119,0,0,1,.124,1.42A5.062,5.062,0,0,1,430.316,189.164Z" transform="translate(-430.036 -186.318)" fill="#263238"/></g><g transform="translate(34.725 39.107)"><path d="M435.619,187.346a6.638,6.638,0,0,1-.984-2.526,6.635,6.635,0,0,1,.984,2.526Z" transform="translate(-434.618 -184.819)" fill="#263238"/></g><g transform="translate(36.303 37.523)"><path d="M439.064,183.518c-.052.057-.463-.232-.917-.645s-.781-.8-.729-.852.462.231.917.645S439.116,183.46,439.064,183.518Z" transform="translate(-437.412 -182.013)" fill="#263238"/></g><g transform="translate(36.875 34.906)"><path d="M439.664,177.858c-.027.073-.324.032-.665-.092s-.6-.282-.571-.355.324-.032.665.092S439.69,177.786,439.664,177.858Z" transform="translate(-438.427 -177.376)" fill="#263238"/></g><g transform="translate(28.488 38.906)"><path d="M423.583,187.011a4.645,4.645,0,0,1,1.3-2.545,18.959,18.959,0,0,1-1.3,2.545Z" transform="translate(-423.566 -184.463)" fill="#263238"/></g><g transform="translate(26.712 36.709)"><path d="M420.425,182.261c-.054-.055.287-.477.762-.943s.9-.8.958-.743-.287.477-.762.943S420.479,182.316,420.425,182.261Z" transform="translate(-420.419 -180.569)" fill="#263238"/></g><g transform="translate(26.957 34.198)"><path d="M422.012,176.172c.02.075-.223.2-.543.289s-.595.093-.615.019.223-.2.543-.289S421.992,176.1,422.012,176.172Z" transform="translate(-420.853 -176.121)" fill="#263238"/></g></g></g><g transform="translate(114.419 52.66)"><g transform="translate(15.554)"><path d="M495.256,236.089a10.35,10.35,0,0,0-2.74-5.829,16.069,16.069,0,0,0-2.758-2.372,16.792,16.792,0,0,0-4.089-1.965c-1.362-.295-1.693-2.065-.553-2.569s4.911.217,8.537,2.883,1.792-4.089,1.168-6.561-2.194-10.2-1.582-10.978c.9-1.134,2.315-.363,2.881,2.119.573,2.513,2.789,9.821,4.086,9.462,1.277-.353-2.072-12.9-2.072-12.9s-1.152-2.577.331-3.041c2.675-.836,5.249,12.739,5.461,14.036.147.9,1.572.563,1.361-.4-.217-.989-3.633-12.447-.919-13.324,2.084-.673,2.222,11.15,4.256,13.168s-1.026-8.977.993-9.54c.751-.209,1.344-.261,2.186,6.283.452,3.517.159,8.365,1.531,15.076" transform="translate(-484.425 -204.3)" fill="#b78876"/></g><g transform="translate(0 21.78)"><g transform="translate(0 0.339)"><path d="M476.486,278.4l12.337,17.7L482.9,250.448l17.637-6.955s22.258,85.329-7.595,86.53c0,0-20.657-.566-36.075-36.328Z" transform="translate(-456.865 -243.493)" fill="#b78876"/></g><g transform="translate(30.348)"><path d="M519.7,242.895c.032.046-.387.323-.928.931a6.231,6.231,0,0,0-1.446,2.845l-.069.334-.246-.245a7.548,7.548,0,0,0-.911-.8,7.794,7.794,0,0,0-3.75-1.454c-1.043-.112-1.7,0-1.709-.063a3.811,3.811,0,0,1,1.73-.2,7.251,7.251,0,0,1,4.909,2.267l-.314.088a5.877,5.877,0,0,1,1.634-2.933A2.861,2.861,0,0,1,519.7,242.895Z" transform="translate(-510.638 -242.892)" fill="#aa6550"/></g></g></g><g transform="translate(0 74.44)"><g transform="translate(0 2.686)"><path d="M379.305,317.127,364.376,298.19,360.5,317.559a40.123,40.123,0,0,0,2.325,23.363l1.927,4.607H295.623l1.728-6.154c.975-7.54-.33-15.412-.1-26.211l-1.921-12.174L284.87,345.528H254.128S271,276.4,281.573,262.721c13.327-17.245,36.61-14.97,36.61-14.97l14.266,22.36,13.931-20.161s23.941-5.089,42.631,27.091l10,17.142h0l-4.644-35.288,21.644-5s7.817,34.672,7.3,53.236c-.459,16.582-7.516,25.282-17.3,26.137C390.645,334.616,379.305,317.127,379.305,317.127Z" transform="translate(-254.128 -247.651)" fill="#ffa648"/></g><g transform="translate(58.634)"><path d="M363.442,245.677l.244-2.785s10.567,2.348,14.109,20.8c0,0,3.555-17.027,14.935-18.742l1.919,4.9-6.988,18.192-12.273,3.588-11.939-3.588-5.43-10.783Z" transform="translate(-358.02 -242.892)" fill="#ffa648"/></g><g transform="translate(34.603 10.122)"><path d="M315.448,260.827a3.127,3.127,0,0,1,.054.478q.036.507.1,1.373c.077,1.193.2,2.917.372,5.046.34,4.258.925,10.133,1.845,16.585s2.011,12.257,2.878,16.44c.432,2.092.8,3.782,1.057,4.948l.289,1.345a3.044,3.044,0,0,1,.082.473,3.113,3.113,0,0,1-.137-.46q-.125-.493-.34-1.334c-.293-1.159-.687-2.844-1.145-4.932-.917-4.175-2.035-9.98-2.961-16.441s-1.475-12.344-1.765-16.61c-.146-2.133-.24-3.86-.284-5.055q-.03-.868-.047-1.376A3.125,3.125,0,0,1,315.448,260.827Z" transform="translate(-315.44 -260.827)" fill="#263238"/></g><g transform="translate(78.335 4.326)"><path d="M409.6,250.558a1.248,1.248,0,0,1-.151.266l-.475.734-1.761,2.688c-1.478,2.274-3.475,5.446-5.548,9.026l-.239.413-.134.231-.113-.242a8.257,8.257,0,0,0-1.519-2.442,2.752,2.752,0,0,0-2.352-.88,3.218,3.218,0,0,0-1.94,1.273,5.924,5.924,0,0,0-.968,1.861c-.4,1.238-.632,2.283-.926,2.959a6.209,6.209,0,0,1-.37.761,1.223,1.223,0,0,1-.168.242c-.022-.012.194-.356.438-1.041.261-.681.46-1.717.841-2.982a6.035,6.035,0,0,1,.973-1.94,3.433,3.433,0,0,1,2.08-1.384,3.006,3.006,0,0,1,2.584.937,8.422,8.422,0,0,1,1.581,2.518l-.248-.01.24-.413c2.077-3.586,4.1-6.746,5.626-8.994.76-1.125,1.391-2.025,1.836-2.641l.519-.7A1.244,1.244,0,0,1,409.6,250.558Z" transform="translate(-392.928 -250.558)" fill="#263238"/></g><g transform="translate(71.231 13.352)"><path d="M394.051,267.972a.967.967,0,0,1-.115.238l-.373.654-1.418,2.379-2.133,3.509-1.268,2.067-.681,1.1a.978.978,0,0,1-.268.27.516.516,0,0,1-.43.059,1.087,1.087,0,0,1-.537-.513c-1.985-2.983-3.462-5.863-4.62-7.891-.571-1.019-1.041-1.84-1.372-2.4a7.686,7.686,0,0,1-.494-.888.939.939,0,0,1,.164.207c.1.141.245.349.423.624.359.547.856,1.353,1.45,2.361,1.2,2.005,2.708,4.872,4.68,7.833.124.194.236.357.388.4.137.05.271-.055.388-.222l.675-1.08,1.282-2.059,2.185-3.478,1.493-2.332.418-.626A.936.936,0,0,1,394.051,267.972Z" transform="translate(-380.341 -266.549)" fill="#263238"/></g><g transform="translate(110.423 16.41)"><path d="M462.575,271.969a2.152,2.152,0,0,1-.16.369c-.128.261-.3.6-.508,1.032-.452.891-1.084,2.19-1.84,3.806s-1.617,3.559-2.521,5.738-1.821,4.606-2.711,7.178-1.638,5.058-2.28,7.328-1.148,4.335-1.542,6.075-.7,3.153-.891,4.132l-.234,1.126a2.283,2.283,0,0,1-.1.389,2.159,2.159,0,0,1,.045-.4q.069-.429.183-1.136c.159-.987.431-2.407.8-4.155s.871-3.819,1.487-6.1,1.38-4.768,2.264-7.35,1.831-5,2.737-7.186,1.8-4.118,2.581-5.724,1.44-2.9,1.922-3.771l.555-1.008A2.15,2.15,0,0,1,462.575,271.969Z" transform="translate(-449.784 -271.969)" fill="#263238"/></g><g transform="translate(51.166 74.52)"><path d="M385.216,386.956a2.517,2.517,0,0,1-.432-.015l-1.234-.1c-.536-.042-1.191-.1-1.949-.2s-1.624-.179-2.574-.327c-1.905-.26-4.162-.652-6.652-1.168-2.486-.534-5.2-1.2-8.019-2.032s-5.453-1.768-7.828-2.68c-2.367-.928-4.473-1.833-6.21-2.656-.876-.4-1.65-.795-2.334-1.133s-1.268-.643-1.739-.9l-1.086-.593a2.5,2.5,0,0,1-.37-.223,2.448,2.448,0,0,1,.4.174l1.11.546c.479.242,1.067.535,1.759.856s1.468.711,2.348,1.094c1.745.8,3.853,1.682,6.22,2.6,2.374.9,5.01,1.81,7.815,2.652s5.515,1.5,7.992,2.049c2.481.528,4.729.94,6.627,1.224.946.161,1.809.262,2.565.367s1.407.185,1.941.244l1.228.15A2.514,2.514,0,0,1,385.216,386.956Z" transform="translate(-344.788 -374.934)" fill="#263238"/></g><g transform="translate(59.841 87.748)"><path d="M388.855,398.376a1.153,1.153,0,0,1-.284.073l-.825.156c-.717.133-1.76.3-3.051.475-2.583.358-6.172.722-10.15.862s-7.586.022-10.187-.155c-1.3-.087-2.352-.179-3.076-.262l-.834-.1a.148.148,0,1,1,.006-.056l.838.046c.726.049,1.778.111,3.078.173,2.6.126,6.2.209,10.167.073s7.55-.472,10.135-.779c1.292-.152,2.338-.286,3.059-.386l.832-.1A1.154,1.154,0,0,1,388.855,398.376Z" transform="translate(-360.159 -398.371)" fill="#263238"/></g><g transform="translate(112.998 17.829)"><path d="M454.349,313.367a2.231,2.231,0,0,1,.081-.406l.286-1.15c.261-1.026.625-2.462,1.073-4.223.906-3.565,2.111-8.5,3.591-13.924.747-2.708,1.51-5.275,2.25-7.595s1.472-4.388,2.138-6.105c.317-.865.642-1.632.917-2.309s.524-1.256.738-1.725q.307-.674.491-1.079a2.332,2.332,0,0,1,.188-.369,2.277,2.277,0,0,1-.137.391l-.443,1.1c-.2.475-.436,1.057-.693,1.741s-.572,1.453-.878,2.321c-.641,1.723-1.34,3.8-2.077,6.114s-1.479,4.885-2.225,7.591c-1.479,5.413-2.713,10.345-3.669,13.9-.476,1.778-.87,3.214-1.16,4.2q-.21.709-.337,1.136A2.356,2.356,0,0,1,454.349,313.367Z" transform="translate(-454.347 -274.483)" fill="#263238"/></g><g transform="translate(31.286 13.352)"><path d="M319.118,308.986a2.711,2.711,0,0,1-.294-.34c-.179-.234-.47-.56-.788-1.022a29.744,29.744,0,0,1-2.465-4.053,38.923,38.923,0,0,1-2.587-6.544,57.45,57.45,0,0,1-1.8-8.425c-.823-6.065-.958-11.6-1.207-15.591-.112-2-.217-3.611-.3-4.726q-.059-.806-.094-1.285a2.718,2.718,0,0,1-.015-.449,2.7,2.7,0,0,1,.071.444c.036.292.092.724.146,1.28.117,1.113.253,2.727.39,4.723.3,3.988.466,9.523,1.286,15.565a59.23,59.23,0,0,0,1.769,8.391,40.3,40.3,0,0,0,2.517,6.529,32.772,32.772,0,0,0,2.377,4.079c.3.469.578.805.743,1.05A2.643,2.643,0,0,1,319.118,308.986Z" transform="translate(-309.564 -266.55)" fill="#263238"/></g><g transform="translate(35.049 43.337)"><path d="M319.4,319.7c.016.082-.8.26-1.668.775s-1.428,1.131-1.492,1.077a3.919,3.919,0,0,1,3.16-1.852Z" transform="translate(-316.23 -319.68)" fill="#263238"/></g><g transform="translate(33.758 36.076)"><path d="M317.874,306.851a14.593,14.593,0,0,0-2.107.759,14.753,14.753,0,0,0-1.82,1.307,4.469,4.469,0,0,1,3.926-2.065Z" transform="translate(-313.943 -306.814)" fill="#263238"/></g><g transform="translate(32.964 29.431)"><path d="M315.676,295.1a6.54,6.54,0,0,0-3.133,1.555,3.212,3.212,0,0,1,3.133-1.555Z" transform="translate(-312.536 -295.04)" fill="#263238"/></g><g transform="translate(32.345 22.613)"><path d="M314.427,282.994c.011.082-.706.218-1.52.57s-1.411.767-1.463.7a3.914,3.914,0,0,1,2.983-1.273Z" transform="translate(-311.44 -282.959)" fill="#263238"/></g><g transform="translate(31.926 17.082)"><path d="M313.659,273.193c.011.082-.716.213-1.524.6s-1.377.851-1.434.79a3.644,3.644,0,0,1,2.957-1.387Z" transform="translate(-310.698 -273.159)" fill="#263238"/></g><g transform="translate(112.05 47.131)"><path d="M455.069,327.532c-.067.047-.435-.448-1.108-.712a7.562,7.562,0,0,0-1.291-.264,1.5,1.5,0,0,1,1.4,0C454.832,326.867,455.14,327.509,455.069,327.532Z" transform="translate(-452.669 -326.403)" fill="#263238"/></g><g transform="translate(113.556 40.578)"><path d="M458.331,316.821a3.632,3.632,0,0,0-2.994-1.934c-.005-.033.209-.107.572-.095a2.743,2.743,0,0,1,2.274,1.469C458.342,316.586,458.363,316.812,458.331,316.821Z" transform="translate(-455.337 -314.791)" fill="#263238"/></g><g transform="translate(114.977 34.95)"><path d="M461,306.267a3.794,3.794,0,0,0-3.147-1.248c-.01-.032.178-.132.516-.18a2.71,2.71,0,0,1,2.378.943C460.961,306.049,461.03,306.25,461,306.267Z" transform="translate(-457.853 -304.819)" fill="#263238"/></g><g transform="translate(117.686 29.097)"><path d="M464.946,295.781c-.072.037-.366-.516-1.018-.849a5.777,5.777,0,0,0-1.274-.361c-.007-.034.144-.1.409-.119a2.018,2.018,0,0,1,1.751.925C464.95,295.6,464.977,295.767,464.946,295.781Z" transform="translate(-462.654 -294.449)" fill="#263238"/></g><g transform="translate(119.515 23.525)"><path d="M468.527,286a2.816,2.816,0,0,0-2.632-1.218c-.011-.031.148-.135.448-.185a2.092,2.092,0,0,1,2.036.942C468.535,285.8,468.559,285.989,468.527,286Z" transform="translate(-465.895 -284.576)" fill="#263238"/></g><g transform="translate(70.584 17.116)"><path d="M395.28,273.22a1.1,1.1,0,0,1-.121.261l-.4.721c-.351.623-.869,1.518-1.523,2.616s-1.444,2.4-2.349,3.826c-.454.713-.936,1.458-1.453,2.221a25.015,25.015,0,0,1-1.708,2.3,2.4,2.4,0,0,1-.579.518.383.383,0,0,1-.247.049.766.766,0,0,1-.216-.068,1.889,1.889,0,0,1-.321-.217,8.052,8.052,0,0,1-.988-1.03c-.591-.713-1.113-1.434-1.6-2.126-.971-1.387-1.795-2.668-2.477-3.749s-1.213-1.969-1.574-2.586l-.407-.716a.145.145,0,1,1,.049-.029l.451.687,1.648,2.536c.7,1.067,1.541,2.334,2.52,3.707.491.685,1.015,1.4,1.6,2.1a7.961,7.961,0,0,0,.952.989c.169.136.384.287.488.2a2.314,2.314,0,0,0,.492-.453,25.893,25.893,0,0,0,1.69-2.265c.518-.756,1-1.5,1.462-2.205.916-1.418,1.722-2.707,2.4-3.79l1.6-2.569.442-.695A1.094,1.094,0,0,1,395.28,273.22Z" transform="translate(-379.195 -273.22)" fill="#263238"/></g><g transform="translate(74.565 22.661)"><path d="M386.329,285.529c-.033,0-.1-.19-.075-.515a2.265,2.265,0,0,1,1.5-1.9c.311-.1.515-.079.518-.047a2.965,2.965,0,0,0-1.941,2.458Z" transform="translate(-386.249 -283.044)" fill="#263238"/></g><g transform="translate(78.08 25.145)"><path d="M392.75,291.9a9.782,9.782,0,0,1-.031-4.451,108.411,108.411,0,0,1,.031,4.451Z" transform="translate(-392.477 -287.446)" fill="#263238"/></g><g transform="translate(80.51 22.163)"><path d="M398.835,283.925c-.078.022-.254-.6-.84-1.08a5.672,5.672,0,0,0-1.212-.635c0-.034.168-.071.437-.029a2.085,2.085,0,0,1,1.566,1.309C398.876,283.747,398.869,283.918,398.835,283.925Z" transform="translate(-396.783 -282.162)" fill="#263238"/></g><g transform="translate(83.501 17.36)"><path d="M403.894,275.618a5.652,5.652,0,0,0-.7-1.164c-.5-.555-1.132-.694-1.115-.773.005-.034.174-.051.434.024a2.062,2.062,0,0,1,1.383,1.479C403.956,275.448,403.928,275.615,403.894,275.618Z" transform="translate(-402.082 -273.652)" fill="#263238"/></g><g transform="translate(71.703 17.616)"><path d="M381.314,277.423c-.032.007-.121-.212-.135-.59a2.949,2.949,0,0,1,1.334-2.5c.322-.2.554-.247.566-.217a3.894,3.894,0,0,0-1.765,3.31Z" transform="translate(-381.177 -274.105)" fill="#263238"/></g><g transform="translate(63.911 2.742)" opacity="0.4"><path d="M367.371,247.752c1.209,4.638,3.228,12.192,5.413,18.1a1.914,1.914,0,0,0,.417.75c.555.528,1.509.2,2.032-.356a13.656,13.656,0,0,0,1.191-1.819,2.349,2.349,0,0,1,1.73-1.184,2.04,2.04,0,0,1,1.536.771,8.5,8.5,0,0,1,.941,1.5c.156.278.356.576.667.641a.4.4,0,0,0,.477-.56l-1.933-5.01s-.886-3.676-3.959-3.1c-3.435.639-1.878,6.28-1.878,6.28S367.319,247.555,367.371,247.752Z" transform="translate(-367.37 -247.75)"/></g><g transform="translate(64.054 2.785)"><path d="M381.979,265.839a1.806,1.806,0,0,1-.165-.328c-.1-.22-.239-.545-.414-.967l-1.424-3.593c-.153-.378-.313-.773-.493-1.178a3.648,3.648,0,0,0-.7-1.142,3.361,3.361,0,0,0-2.676-1,2.588,2.588,0,0,0-1.41.632,3.537,3.537,0,0,0-.762,1.46,4.147,4.147,0,0,0-.117,1.716,13.933,13.933,0,0,0,.318,1.8l.159.643-.268.08c-.792-2.275-1.7-4.38-2.532-6.287s-1.595-3.615-2.193-5.066-1.038-2.641-1.3-3.475c-.141-.414-.227-.743-.289-.965a1.656,1.656,0,0,1-.079-.342,1.687,1.687,0,0,1,.132.326c.079.216.182.538.338.946.3.821.76,2,1.382,3.434s1.4,3.137,2.247,5.039,1.765,4.01,2.564,6.3l-.268.08c-.05-.205-.1-.427-.16-.649a14.028,14.028,0,0,1-.322-1.833,4.392,4.392,0,0,1,.133-1.829,3.772,3.772,0,0,1,.837-1.566,2.83,2.83,0,0,1,1.567-.7,3.587,3.587,0,0,1,2.872,1.093,3.858,3.858,0,0,1,.733,1.215c.177.412.332.811.48,1.193L381.5,264.5l.364.986A1.792,1.792,0,0,1,381.979,265.839Z" transform="translate(-367.624 -247.827)" fill="#263238"/></g><g transform="translate(78.628 4.882)" opacity="0.4"><path d="M393.5,267.32c-.117.08-.032.287.107.318A.494.494,0,0,0,394,267.5a8.535,8.535,0,0,0,1.627-2.169,2.852,2.852,0,0,1,2.156-1.482A2.8,2.8,0,0,1,400,265.493a10.577,10.577,0,0,0,1.49,2.469,67.8,67.8,0,0,0,8.188-16.419,9.79,9.79,0,0,0-2.585,3.188l-5.5,9.169a7.137,7.137,0,0,0-1.549-2.444,3.019,3.019,0,0,0-2.665-.853,3.967,3.967,0,0,0-2.334,2.185,13.091,13.091,0,0,0-1.469,4.567" transform="translate(-393.448 -251.543)"/></g><g transform="translate(144.628 48.775)"><path d="M516.52,346.413a3.571,3.571,0,0,1-.366-.617c-.221-.4-.523-1-.88-1.743a64.018,64.018,0,0,1-4.341-12.121c-.2-.8-.341-1.453-.427-1.906a3.464,3.464,0,0,1-.108-.709,3.55,3.55,0,0,1,.214.684l.512,1.881c.439,1.585,1.093,3.763,1.938,6.126s1.725,4.459,2.392,5.962l.8,1.778A3.516,3.516,0,0,1,516.52,346.413Z" transform="translate(-510.393 -329.316)" fill="#263238"/></g><g transform="translate(143.648 48.307)"><path d="M510.4,344.99a2.956,2.956,0,0,1-.226-.617c-.131-.4-.295-.992-.474-1.726a37.576,37.576,0,0,1-.926-11.737c.062-.753.131-1.361.2-1.779a2.967,2.967,0,0,1,.127-.645,3,3,0,0,1-.019.657c-.033.42-.072,1.028-.108,1.779a45.333,45.333,0,0,0,.922,11.681c.154.736.288,1.331.386,1.741A3,3,0,0,1,510.4,344.99Z" transform="translate(-508.657 -328.486)" fill="#263238"/></g><g transform="translate(140.779 15.405)"><path d="M525.429,270.189a2.031,2.031,0,0,1,.432.165l.085.037-.09.032a76.035,76.035,0,0,1-10.772,2.756c-3.15.58-6.031.917-8.122,1.084-1.045.085-1.892.137-2.478.156a5.554,5.554,0,0,1-.911,0,5.68,5.68,0,0,1,.9-.113l2.467-.244c2.081-.217,4.95-.584,8.09-1.163,5.235-.951,9.541-2.222,10.8-2.552l-.005.069A1.983,1.983,0,0,1,525.429,270.189Z" transform="translate(-503.573 -270.187)" fill="#263238"/></g><g transform="translate(157.127 12.657)"><path d="M533.187,265.621c-.007-.008.056-.093.23-.142a.894.894,0,0,1,.723.16,1.035,1.035,0,0,1,.466,1,.833.833,0,0,1-.414.567,1.153,1.153,0,0,1-.722.133,1.191,1.191,0,0,1-.666-.309.891.891,0,0,1-.265-.647,1.127,1.127,0,0,1,.6-.927,1.021,1.021,0,0,1,.729-.116c.173.045.242.121.235.131a1.2,1.2,0,0,0-.862.155.949.949,0,0,0-.447.758.738.738,0,0,0,.708.679.723.723,0,0,0,.848-.476.924.924,0,0,0-.919-1C533.282,265.6,533.2,265.644,533.187,265.621Z" transform="translate(-532.54 -265.318)" fill="#263238"/></g><g transform="translate(35.924 24.869)"><path d="M355.767,286.958a2.224,2.224,0,0,1-.308.269c-.213.163-.507.432-.932.715a20.97,20.97,0,0,1-3.754,2.136,22.852,22.852,0,0,1-6.161,1.752,23.586,23.586,0,0,1-3.788.2,23.283,23.283,0,0,1-4.043-.5c-2.73-.616-5.192-1.623-7.508-2.244a20.31,20.31,0,0,0-3.329-.656,13.7,13.7,0,0,0-2.947.029A9.026,9.026,0,0,0,319,290.068a14.481,14.481,0,0,0-1.222.989,5.422,5.422,0,0,1,1.16-1.078,8.865,8.865,0,0,1,4.03-1.514,13.633,13.633,0,0,1,2.995-.064,20.074,20.074,0,0,1,3.374.638c2.338.613,4.8,1.612,7.5,2.22a23.418,23.418,0,0,0,3.991.5,23.848,23.848,0,0,0,3.745-.185,23.291,23.291,0,0,0,6.116-1.678,22.814,22.814,0,0,0,3.771-2.044c.432-.269.735-.523.959-.67A2.2,2.2,0,0,1,355.767,286.958Z" transform="translate(-317.781 -286.957)" fill="#fafafa"/></g><g transform="translate(39.673 43.625)"><path d="M394.523,324.677a.971.971,0,0,1-.171-.078l-.488-.254c-.215-.109-.493-.22-.814-.365-.334-.115-.708-.277-1.152-.391a17.783,17.783,0,0,0-7.688-.279,44.586,44.586,0,0,0-5.229,1.187c-1.863.509-3.848,1.1-5.986,1.534a21.94,21.94,0,0,1-6.819.417,32.642,32.642,0,0,1-7.142-1.681c-2.383-.8-4.664-1.7-6.9-2.445a34.973,34.973,0,0,0-6.591-1.617,30.858,30.858,0,0,0-11.422.621,33.663,33.663,0,0,0-4.207,1.358c-.6.261-1.158.49-1.66.733s-.962.465-1.363.689l-1.065.6-.761.47-.47.287a.929.929,0,0,1-.165.09.95.95,0,0,1,.15-.114l.455-.31c.2-.133.448-.306.748-.493l1.055-.62c.4-.232.861-.452,1.357-.713s1.062-.489,1.659-.757a32.974,32.974,0,0,1,4.219-1.405,30.738,30.738,0,0,1,11.5-.685,34.977,34.977,0,0,1,6.643,1.612c2.251.747,4.533,1.641,6.907,2.44a32.577,32.577,0,0,0,7.081,1.673,21.806,21.806,0,0,0,6.74-.4c2.125-.426,4.108-1.006,5.976-1.506a44,44,0,0,1,5.261-1.159,17.55,17.55,0,0,1,7.748.371c.445.122.821.294,1.152.418.32.155.6.274.808.392l.476.279A.913.913,0,0,1,394.523,324.677Z" transform="translate(-324.425 -320.19)" fill="#fafafa"/></g><g transform="translate(81.334 21.102)"><path d="M398.242,283.65a12.667,12.667,0,0,0,1.443.316,10.393,10.393,0,0,0,3.98-.318,48.065,48.065,0,0,0,5.606-2.1,18.594,18.594,0,0,1,3.416-1.019,16.237,16.237,0,0,1,3.824-.22,22.254,22.254,0,0,1,7.161,1.719,38.687,38.687,0,0,1,5.341,2.769c1.461.893,2.606,1.67,3.4,2.208l.9.629a1.948,1.948,0,0,1,.3.236,1.994,1.994,0,0,1-.335-.189l-.932-.586c-.808-.509-1.969-1.261-3.438-2.129a40.629,40.629,0,0,0-5.337-2.7,22.377,22.377,0,0,0-7.079-1.678,16.175,16.175,0,0,0-3.759.211,18.663,18.663,0,0,0-3.373.989,45.093,45.093,0,0,1-5.652,2.048,10.067,10.067,0,0,1-4.044.234A4.911,4.911,0,0,1,398.242,283.65Z" transform="translate(-398.242 -280.282)" fill="#fafafa"/></g><g transform="translate(93.507 8.542)"><path d="M440.623,259.8a4.771,4.771,0,0,1-.8.244c-.26.072-.58.154-.957.227s-.8.176-1.28.244a29.859,29.859,0,0,1-3.373.363,30.711,30.711,0,0,1-8.263-.7,29.832,29.832,0,0,1-3.263-.928c-.46-.147-.862-.318-1.22-.456s-.66-.27-.9-.385a4.772,4.772,0,0,1-.749-.376,4.883,4.883,0,0,1,.791.275c.249.1.556.218.918.34s.766.28,1.227.414c.912.3,2.017.594,3.255.864a33.063,33.063,0,0,0,8.2.7c1.266-.057,2.4-.163,3.355-.3.477-.054.9-.141,1.279-.2s.7-.124.962-.18A4.858,4.858,0,0,1,440.623,259.8Z" transform="translate(-419.812 -258.027)" fill="#fafafa"/></g><g transform="translate(34.838 4.947)"><path d="M315.858,260.651a1.455,1.455,0,0,1,.246-.218c.168-.135.414-.334.74-.58.648-.5,1.6-1.2,2.815-2.01a39.432,39.432,0,0,1,10.217-5.044,24.058,24.058,0,0,1,11.324-.79,17.593,17.593,0,0,1,3.33.953c.384.141.665.292.862.379a1.515,1.515,0,0,1,.29.154c-.011.024-.426-.156-1.19-.431a19.644,19.644,0,0,0-3.326-.86,24.648,24.648,0,0,0-11.208.863,41.541,41.541,0,0,0-10.19,4.942c-1.223.791-2.192,1.465-2.859,1.933l-.771.537A1.477,1.477,0,0,1,315.858,260.651Z" transform="translate(-315.858 -251.658)" fill="#fafafa"/></g><g transform="translate(43.638 69.373)"><path d="M393.683,369.567a.753.753,0,0,1-.159.044l-.473.1a5.119,5.119,0,0,1-.778.117l-.5.054-.572.015a20.847,20.847,0,0,1-6.7-1.234c-1.378-.43-2.866-.955-4.486-1.435a27.257,27.257,0,0,0-5.277-1.024,45.778,45.778,0,0,0-12.286.881c-4.321.778-8.406,1.759-12.2,2.211a38.134,38.134,0,0,1-10.121.066,21.07,21.07,0,0,1-6.526-1.971c-.358-.188-.679-.349-.95-.5l-.664-.422-.4-.264a.709.709,0,0,1-.132-.1.722.722,0,0,1,.148.074l.419.24.674.4.957.474a21.649,21.649,0,0,0,6.506,1.874,38.626,38.626,0,0,0,10.062-.126c3.776-.463,7.852-1.45,12.185-2.23a45.432,45.432,0,0,1,12.36-.862,27.217,27.217,0,0,1,5.319,1.058c1.625.492,3.11,1.029,4.48,1.469a21.45,21.45,0,0,0,6.643,1.314l.568,0,.5-.041a5.468,5.468,0,0,0,.776-.09l.476-.074A.692.692,0,0,1,393.683,369.567Z" transform="translate(-331.449 -365.814)" fill="#fafafa"/></g><g transform="translate(56.148 77.015)" opacity="0.3"><path d="M353.616,379.353c2.558,6.381,7.508,10.915,14.319,11.852s13.7-.622,20.336-2.427c-12.062-1.687-22.731-3.359-34.655-9.425" transform="translate(-353.616 -379.353)"/></g><g transform="translate(43.622 88.201)"><path d="M395.4,405.538a.793.793,0,0,1-.167-.06l-.477-.2-1.826-.81c-1.586-.7-3.86-1.769-6.7-3a29.348,29.348,0,0,0-4.78-1.617,15.328,15.328,0,0,0-5.735-.267,20.686,20.686,0,0,0-3.046.692,30.9,30.9,0,0,0-3.056,1.156c-2.039.888-4.065,2-6.149,3.113a48.95,48.95,0,0,1-6.275,2.921,19.476,19.476,0,0,1-6.317,1.286,14.2,14.2,0,0,1-5.719-1.121,37.68,37.68,0,0,1-4.53-2.3c-1.347-.768-2.561-1.469-3.666-2.005a19.57,19.57,0,0,0-2.913-1.187,10.607,10.607,0,0,0-1.108-.3,6.192,6.192,0,0,0-.826-.16l-.512-.081a.914.914,0,0,1-.174-.037.815.815,0,0,1,.177.008l.518.054a5.653,5.653,0,0,1,.835.134,10.058,10.058,0,0,1,1.122.275,18.859,18.859,0,0,1,2.95,1.15c1.119.526,2.342,1.218,3.695,1.974a38.334,38.334,0,0,0,4.519,2.261,14.011,14.011,0,0,0,5.627,1.079,19.289,19.289,0,0,0,6.228-1.286,49.3,49.3,0,0,0,6.237-2.909c2.084-1.117,4.117-2.227,6.172-3.118a31.16,31.16,0,0,1,3.087-1.16,20.811,20.811,0,0,1,3.089-.691,15.5,15.5,0,0,1,5.823.3,29.085,29.085,0,0,1,4.805,1.661c2.839,1.258,5.095,2.353,6.669,3.082l1.8.858.466.229A.943.943,0,0,1,395.4,405.538Z" transform="translate(-331.421 -399.175)" fill="#fafafa"/></g></g></g></g><path d="M40.582,12.354a.986.986,0,0,0-.373-.82,4.631,4.631,0,0,0-1.309-.608,12.559,12.559,0,0,1-1.531-.608,2.9,2.9,0,0,1-1.935-2.611,2.342,2.342,0,0,1,.482-1.459,3.117,3.117,0,0,1,1.364-.984,5.307,5.307,0,0,1,1.982-.352,4.642,4.642,0,0,1,1.924.383,3.047,3.047,0,0,1,1.323,1.09A2.847,2.847,0,0,1,42.981,8H40.589a1.2,1.2,0,0,0-.373-.943,1.452,1.452,0,0,0-1.008-.335,1.638,1.638,0,0,0-1.015.284A.835.835,0,0,0,38.23,8.42a5.172,5.172,0,0,0,1.442.643,8.836,8.836,0,0,1,1.7.714,2.849,2.849,0,0,1,1.613,2.563A2.43,2.43,0,0,1,42,14.392a4.378,4.378,0,0,1-2.7.745,5.357,5.357,0,0,1-2.191-.434,3.3,3.3,0,0,1-1.477-1.189,3.1,3.1,0,0,1-.5-1.74H37.54a1.526,1.526,0,0,0,.414,1.179,1.955,1.955,0,0,0,1.343.379,1.544,1.544,0,0,0,.94-.256A.846.846,0,0,0,40.582,12.354Zm7.1,2.782a3.8,3.8,0,0,1-2.755-1.015,3.506,3.506,0,0,1-1.053-2.642v-.191a4.542,4.542,0,0,1,.42-2,3.076,3.076,0,0,1,1.227-1.343,3.7,3.7,0,0,1,1.914-.475,3.2,3.2,0,0,1,2.461.967,3.8,3.8,0,0,1,.9,2.7v.9h-4.58a1.66,1.66,0,0,0,.54.978,1.607,1.607,0,0,0,1.08.355,2.07,2.07,0,0,0,1.709-.766L50.6,13.838a2.943,2.943,0,0,1-1.22.947A4.123,4.123,0,0,1,47.684,15.137Zm-.26-5.893q-1.012,0-1.2,1.34h2.324v-.178a1.141,1.141,0,0,0-.28-.858A1.115,1.115,0,0,0,47.425,9.244Zm8.777.444-.759-.055a1.363,1.363,0,0,0-1.395.684V15h-2.3V7.6h2.16l.075.95A1.784,1.784,0,0,1,55.6,7.467a2.247,2.247,0,0,1,.643.082Zm3.9,2.57L61.274,7.6H63.7L61.288,15H58.936L56.523,7.6h2.434ZM66.818,15H64.508V7.6h2.311ZM64.371,5.7a1.028,1.028,0,0,1,.355-.807,1.511,1.511,0,0,1,1.846,0,1.028,1.028,0,0,1,.355.807,1.028,1.028,0,0,1-.355.807,1.511,1.511,0,0,1-1.846,0A1.028,1.028,0,0,1,64.371,5.7Zm6.993,7.663a1.025,1.025,0,0,0,.752-.263.965.965,0,0,0,.26-.735h2.16a2.557,2.557,0,0,1-.872,2,3.242,3.242,0,0,1-2.246.779,3.282,3.282,0,0,1-2.543-1.012,3.986,3.986,0,0,1-.93-2.8v-.1a4.505,4.505,0,0,1,.414-1.979,3.011,3.011,0,0,1,1.193-1.319A3.557,3.557,0,0,1,71.4,7.467a3.2,3.2,0,0,1,2.29.8,2.837,2.837,0,0,1,.848,2.167h-2.16a1.265,1.265,0,0,0-.28-.882.967.967,0,0,0-.752-.308q-.9,0-1.046,1.142a8.056,8.056,0,0,0-.048,1,3.164,3.164,0,0,0,.267,1.545A.923.923,0,0,0,71.364,13.359ZM77.94,15H75.63V7.6H77.94ZM75.493,5.7a1.028,1.028,0,0,1,.355-.807,1.511,1.511,0,0,1,1.846,0,1.028,1.028,0,0,1,.355.807,1.028,1.028,0,0,1-.355.807,1.511,1.511,0,0,1-1.846,0A1.028,1.028,0,0,1,75.493,5.7Zm3.575,5.537A4.366,4.366,0,0,1,79.5,9.261a3.08,3.08,0,0,1,1.237-1.33,3.726,3.726,0,0,1,1.894-.465A3.4,3.4,0,0,1,85.248,8.5a3.948,3.948,0,0,1,.957,2.8v.082a3.83,3.83,0,0,1-.96,2.745,3.41,3.41,0,0,1-2.6,1.015,3.449,3.449,0,0,1-2.536-.947,3.7,3.7,0,0,1-1.032-2.567Zm2.3.144a2.752,2.752,0,0,0,.321,1.5,1.07,1.07,0,0,0,.95.479q1.23,0,1.258-1.894v-.232q0-1.989-1.271-1.989-1.155,0-1.251,1.716ZM94.873,15a2.6,2.6,0,0,1-.219-.663,2.142,2.142,0,0,1-1.777.8A2.624,2.624,0,0,1,91.1,14.5a2.013,2.013,0,0,1-.731-1.589,2.069,2.069,0,0,1,.889-1.818,4.527,4.527,0,0,1,2.584-.615h.711v-.39q0-1.019-.882-1.019a.719.719,0,0,0-.82.807h-2.3a2.068,2.068,0,0,1,.913-1.743,3.832,3.832,0,0,1,2.328-.67,3.363,3.363,0,0,1,2.235.69,2.4,2.4,0,0,1,.841,1.894v3.274a3.353,3.353,0,0,0,.314,1.559V15ZM93.43,13.5a1.285,1.285,0,0,0,.714-.185,1.157,1.157,0,0,0,.407-.417V11.712h-.67q-1.2,0-1.2,1.08a.659.659,0,0,0,.212.509A.767.767,0,0,0,93.43,13.5Zm7.137,1.5H98.257V4.5h2.311Zm13.063-3.37a3.635,3.635,0,0,1-.561,1.835,3.383,3.383,0,0,1-1.439,1.234,4.9,4.9,0,0,1-2.116.438,3.908,3.908,0,0,1-3.09-1.278,5.278,5.278,0,0,1-1.128-3.609V9.757a6.025,6.025,0,0,1,.509-2.56,3.859,3.859,0,0,1,1.466-1.7,4.091,4.091,0,0,1,2.215-.6,4.29,4.29,0,0,1,2.912.954,3.768,3.768,0,0,1,1.251,2.628h-2.393A1.783,1.783,0,0,0,110.8,7.18a1.884,1.884,0,0,0-1.312-.4,1.433,1.433,0,0,0-1.312.67,4.306,4.306,0,0,0-.437,2.14v.7a4.764,4.764,0,0,0,.4,2.276,1.463,1.463,0,0,0,1.377.684,1.842,1.842,0,0,0,1.265-.39,1.654,1.654,0,0,0,.465-1.237ZM117.09,15h-2.311V4.5h2.311Zm3.849,0h-2.311V7.6h2.311Zm-2.447-9.3a1.028,1.028,0,0,1,.355-.807,1.511,1.511,0,0,1,1.846,0,1.028,1.028,0,0,1,.355.807,1.028,1.028,0,0,1-.355.807,1.511,1.511,0,0,1-1.846,0A1.028,1.028,0,0,1,118.491,5.7Zm7.444,9.44a3.8,3.8,0,0,1-2.755-1.015,3.506,3.506,0,0,1-1.053-2.642v-.191a4.542,4.542,0,0,1,.42-2,3.076,3.076,0,0,1,1.227-1.343,3.7,3.7,0,0,1,1.914-.475,3.2,3.2,0,0,1,2.461.967,3.8,3.8,0,0,1,.9,2.7v.9h-4.58a1.66,1.66,0,0,0,.54.978,1.607,1.607,0,0,0,1.08.355,2.07,2.07,0,0,0,1.709-.766l1.053,1.244a2.943,2.943,0,0,1-1.22.947A4.124,4.124,0,0,1,125.935,15.137Zm-.26-5.893q-1.012,0-1.2,1.34H126.8v-.178a1.141,1.141,0,0,0-.28-.858A1.115,1.115,0,0,0,125.676,9.244ZM132.095,7.6l.075.868a2.508,2.508,0,0,1,2.112-1,2.11,2.11,0,0,1,1.726.69,3.287,3.287,0,0,1,.591,2.078V15h-2.311V10.331a1.248,1.248,0,0,0-.226-.824,1.044,1.044,0,0,0-.82-.263,1.1,1.1,0,0,0-1,.533V15h-2.3V7.6Zm8.463-1.839V7.6h1.217V9.2h-1.217v3.384a.864.864,0,0,0,.15.581.807.807,0,0,0,.595.164,3.38,3.38,0,0,0,.574-.041v1.647a4.252,4.252,0,0,1-1.3.2,2.413,2.413,0,0,1-1.757-.561,2.3,2.3,0,0,1-.567-1.7V9.2h-.943V7.6h.943V5.765Zm5.7,9.372a3.8,3.8,0,0,1-2.755-1.015,3.505,3.505,0,0,1-1.053-2.642v-.191a4.542,4.542,0,0,1,.42-2A3.076,3.076,0,0,1,144.1,7.942a3.7,3.7,0,0,1,1.914-.475,3.2,3.2,0,0,1,2.461.967,3.8,3.8,0,0,1,.9,2.7v.9H144.8a1.66,1.66,0,0,0,.54.978,1.607,1.607,0,0,0,1.08.355,2.07,2.07,0,0,0,1.709-.766l1.053,1.244a2.943,2.943,0,0,1-1.22.947A4.123,4.123,0,0,1,146.259,15.137ZM146,9.244q-1.012,0-1.2,1.34h2.324v-.178a1.141,1.141,0,0,0-.28-.858A1.115,1.115,0,0,0,146,9.244Z" transform="translate(4449.913 -9310.538)" fill="#12263f"/><path d="M5590-9441v35.642h49.046" transform="translate(-1147.655 54.958)" fill="none" stroke="#cbc232" stroke-width="3"/><path d="M6136.914-9441v35.642H6085" transform="translate(-1459.941 22.136)" fill="none" stroke="#21c9b8" stroke-width="3"/><rect width="129.562" height="46.396" rx="23.198" transform="translate(4355.943 -9414.617)" fill="#cbc232"/><rect width="88.132" height="50.703" rx="25.351" transform="translate(4630.723 -9456.969)" fill="#21c9b8"/><path d="M11.311,11.685a3.522,3.522,0,0,1-1.186,2.529,4.165,4.165,0,0,1-2.82.923,3.745,3.745,0,0,1-3.011-1.289,5.284,5.284,0,0,1-1.1-3.538V9.7A5.966,5.966,0,0,1,3.7,7.173,3.791,3.791,0,0,1,5.148,5.495,4.05,4.05,0,0,1,7.332,4.91a4.058,4.058,0,0,1,2.775.923,3.785,3.785,0,0,1,1.217,2.591H9.273a2.079,2.079,0,0,0-.537-1.4,1.987,1.987,0,0,0-1.4-.434A1.742,1.742,0,0,0,5.8,7.327a4.118,4.118,0,0,0-.523,2.28v.752a4.408,4.408,0,0,0,.489,2.358,1.71,1.71,0,0,0,1.542.745,2.025,2.025,0,0,0,1.418-.434,1.961,1.961,0,0,0,.537-1.343Zm.909-.451a4.387,4.387,0,0,1,.424-1.962,3.1,3.1,0,0,1,1.22-1.333,3.56,3.56,0,0,1,1.849-.472,3.368,3.368,0,0,1,2.444.916,3.676,3.676,0,0,1,1.056,2.488l.014.506a3.866,3.866,0,0,1-.95,2.731,3.3,3.3,0,0,1-2.55,1.029,3.319,3.319,0,0,1-2.553-1.025,3.934,3.934,0,0,1-.954-2.789Zm1.976.144a2.757,2.757,0,0,0,.4,1.61,1.426,1.426,0,0,0,2.256.007,3.017,3.017,0,0,0,.4-1.76,2.73,2.73,0,0,0-.4-1.6,1.312,1.312,0,0,0-1.135-.567,1.29,1.29,0,0,0-1.121.564A3.068,3.068,0,0,0,14.2,11.377ZM22.3,7.6l.062.827a2.6,2.6,0,0,1,2.126-.964,1.973,1.973,0,0,1,1.962,1.128,2.54,2.54,0,0,1,2.222-1.128,2.206,2.206,0,0,1,1.791.7,3.221,3.221,0,0,1,.588,2.109V15H29.063V10.283a1.408,1.408,0,0,0-.246-.919,1.091,1.091,0,0,0-.868-.291,1.233,1.233,0,0,0-1.23.848L26.726,15H24.75V10.29a1.391,1.391,0,0,0-.253-.93,1.1,1.1,0,0,0-.861-.287,1.28,1.28,0,0,0-1.217.7V15H20.443V7.6Zm13.672,7.533a3.631,3.631,0,0,1-2.649-1A3.548,3.548,0,0,1,32.3,11.479v-.191A4.468,4.468,0,0,1,32.728,9.3a3.161,3.161,0,0,1,1.22-1.354,3.425,3.425,0,0,1,1.8-.475,3.07,3.07,0,0,1,2.389.957,3.889,3.889,0,0,1,.872,2.714v.807H34.3a1.835,1.835,0,0,0,.578,1.162,1.746,1.746,0,0,0,1.22.438,2.132,2.132,0,0,0,1.784-.827l.971,1.087a2.966,2.966,0,0,1-1.2.981A3.947,3.947,0,0,1,35.968,15.137Zm-.226-6.07a1.237,1.237,0,0,0-.954.4A2.048,2.048,0,0,0,34.32,10.6h2.748V10.44a1.46,1.46,0,0,0-.355-1.015A1.277,1.277,0,0,0,35.742,9.066Zm8.545.39a5.367,5.367,0,0,0-.711-.055,1.447,1.447,0,0,0-1.47.759V15H40.131V7.6H42l.055.882A1.831,1.831,0,0,1,43.7,7.467a2.07,2.07,0,0,1,.615.089Zm3.9,4.088a1.3,1.3,0,0,0,.889-.3,1.054,1.054,0,0,0,.355-.8H51.28a2.534,2.534,0,0,1-.41,1.377,2.706,2.706,0,0,1-1.1.971,3.455,3.455,0,0,1-1.548.345,3.211,3.211,0,0,1-2.5-1.008,3.99,3.99,0,0,1-.916-2.786v-.13a3.944,3.944,0,0,1,.909-2.728,3.174,3.174,0,0,1,2.5-1.019,3.111,3.111,0,0,1,2.225.79,2.8,2.8,0,0,1,.851,2.1H49.428a1.346,1.346,0,0,0-.355-.933,1.324,1.324,0,0,0-1.945.144,2.908,2.908,0,0,0-.352,1.63V11.4a2.945,2.945,0,0,0,.349,1.641A1.205,1.205,0,0,0,48.184,13.544ZM54.493,15H52.511V7.6h1.982Zm-2.1-9.311a.973.973,0,0,1,.3-.731,1.281,1.281,0,0,1,1.617,0,.967.967,0,0,1,.3.731.97.97,0,0,1-.3.738,1.267,1.267,0,0,1-1.606,0A.97.97,0,0,1,52.395,5.689ZM60.406,15a2.194,2.194,0,0,1-.2-.663,2.39,2.39,0,0,1-1.866.8,2.626,2.626,0,0,1-1.8-.629,2.023,2.023,0,0,1-.714-1.586,2.09,2.09,0,0,1,.872-1.8,4.3,4.3,0,0,1,2.519-.636h.909v-.424a1.219,1.219,0,0,0-.263-.82,1.035,1.035,0,0,0-.831-.308,1.177,1.177,0,0,0-.783.239.813.813,0,0,0-.284.656H55.99a1.984,1.984,0,0,1,.4-1.189,2.621,2.621,0,0,1,1.121-.858,4.086,4.086,0,0,1,1.627-.311,3.228,3.228,0,0,1,2.17.687,2.4,2.4,0,0,1,.8,1.931v3.206a3.536,3.536,0,0,0,.294,1.593V15Zm-1.634-1.374a1.7,1.7,0,0,0,.807-.195,1.28,1.28,0,0,0,.547-.523V11.637h-.738q-1.483,0-1.579,1.025l-.007.116a.791.791,0,0,0,.26.608A1.009,1.009,0,0,0,58.772,13.626ZM65.711,15H63.729V4.5h1.982Zm3.712,0H67.44V7.6h1.982Zm-2.1-9.311a.973.973,0,0,1,.3-.731,1.281,1.281,0,0,1,1.617,0,.967.967,0,0,1,.3.731.97.97,0,0,1-.3.738,1.267,1.267,0,0,1-1.606,0A.97.97,0,0,1,67.324,5.689Zm6,7.718h3.616V15H70.8V13.8L74.276,9.2H70.9V7.6h5.927V8.772ZM82.459,15a2.194,2.194,0,0,1-.2-.663,2.39,2.39,0,0,1-1.866.8,2.626,2.626,0,0,1-1.8-.629,2.023,2.023,0,0,1-.714-1.586,2.09,2.09,0,0,1,.872-1.8,4.3,4.3,0,0,1,2.519-.636h.909v-.424a1.219,1.219,0,0,0-.263-.82,1.035,1.035,0,0,0-.831-.308,1.177,1.177,0,0,0-.783.239.813.813,0,0,0-.284.656H78.043a1.985,1.985,0,0,1,.4-1.189,2.621,2.621,0,0,1,1.121-.858,4.086,4.086,0,0,1,1.627-.311,3.228,3.228,0,0,1,2.17.687,2.4,2.4,0,0,1,.8,1.931v3.206a3.536,3.536,0,0,0,.294,1.593V15Zm-1.634-1.374a1.7,1.7,0,0,0,.807-.195,1.28,1.28,0,0,0,.547-.523V11.637H81.44q-1.483,0-1.579,1.025l-.007.116a.791.791,0,0,0,.26.608A1.009,1.009,0,0,0,80.825,13.626Zm7.93-.082a1.3,1.3,0,0,0,.889-.3,1.054,1.054,0,0,0,.355-.8h1.853a2.534,2.534,0,0,1-.41,1.377,2.706,2.706,0,0,1-1.1.971,3.455,3.455,0,0,1-1.548.345,3.211,3.211,0,0,1-2.5-1.008,3.99,3.99,0,0,1-.916-2.786v-.13a3.944,3.944,0,0,1,.909-2.728,3.174,3.174,0,0,1,2.5-1.019A3.111,3.111,0,0,1,91,8.256a2.8,2.8,0,0,1,.851,2.1H90a1.346,1.346,0,0,0-.355-.933,1.324,1.324,0,0,0-1.945.144,2.908,2.908,0,0,0-.352,1.63V11.4a2.945,2.945,0,0,0,.349,1.641A1.205,1.205,0,0,0,88.755,13.544ZM95.064,15H93.082V7.6h1.982Zm-2.1-9.311a.973.973,0,0,1,.3-.731,1.281,1.281,0,0,1,1.617,0,.967.967,0,0,1,.3.731.97.97,0,0,1-.3.738,1.267,1.267,0,0,1-1.606,0A.97.97,0,0,1,92.966,5.689Zm3.418,5.544a4.387,4.387,0,0,1,.424-1.962,3.1,3.1,0,0,1,1.22-1.333,3.56,3.56,0,0,1,1.849-.472,3.368,3.368,0,0,1,2.444.916,3.676,3.676,0,0,1,1.056,2.488l.014.506a3.866,3.866,0,0,1-.95,2.731,3.683,3.683,0,0,1-5.1,0,3.934,3.934,0,0,1-.954-2.789Zm1.976.144a2.757,2.757,0,0,0,.4,1.61,1.426,1.426,0,0,0,2.256.007,3.017,3.017,0,0,0,.4-1.76,2.73,2.73,0,0,0-.4-1.6,1.312,1.312,0,0,0-1.135-.567,1.29,1.29,0,0,0-1.121.564A3.068,3.068,0,0,0,98.359,11.377ZM100.267,4.5h2.153l-1.894,2.119H98.92Zm6.159,3.1.062.854a2.582,2.582,0,0,1,2.126-.991,2.146,2.146,0,0,1,1.75.69,3.221,3.221,0,0,1,.588,2.064V15h-1.976V10.27a1.282,1.282,0,0,0-.273-.913,1.224,1.224,0,0,0-.909-.284,1.359,1.359,0,0,0-1.251.711V15h-1.976V7.6ZM15.894,29.247a4.457,4.457,0,0,1,.776-2.755,2.517,2.517,0,0,1,2.123-1.025,2.265,2.265,0,0,1,1.784.807V22.5h1.982V33H20.775l-.1-.786a2.325,2.325,0,0,1-1.9.923,2.511,2.511,0,0,1-2.1-1.029A4.6,4.6,0,0,1,15.894,29.247Zm1.976.144a2.912,2.912,0,0,0,.362,1.593,1.181,1.181,0,0,0,1.053.554,1.322,1.322,0,0,0,1.292-.772V27.846a1.3,1.3,0,0,0-1.278-.772Q17.87,27.073,17.87,29.391Zm9.625,3.746a3.631,3.631,0,0,1-2.649-1,3.548,3.548,0,0,1-1.022-2.659v-.191a4.468,4.468,0,0,1,.431-1.993,3.161,3.161,0,0,1,1.22-1.354,3.425,3.425,0,0,1,1.8-.475,3.07,3.07,0,0,1,2.389.957,3.889,3.889,0,0,1,.872,2.714v.807h-4.71a1.835,1.835,0,0,0,.578,1.162,1.746,1.746,0,0,0,1.22.438,2.132,2.132,0,0,0,1.784-.827l.971,1.087a2.966,2.966,0,0,1-1.2.981A3.947,3.947,0,0,1,27.495,33.137Zm-.226-6.07a1.237,1.237,0,0,0-.954.4,2.048,2.048,0,0,0-.468,1.135H28.6V28.44a1.46,1.46,0,0,0-.355-1.015A1.277,1.277,0,0,0,27.269,27.066Zm10.056,2.427V33H35.274V23.047h3.883a4.492,4.492,0,0,1,1.972.41,3.022,3.022,0,0,1,1.309,1.166,3.25,3.25,0,0,1,.458,1.719,2.858,2.858,0,0,1-1,2.307,4.171,4.171,0,0,1-2.772.844Zm0-1.661h1.832a1.8,1.8,0,0,0,1.241-.383,1.392,1.392,0,0,0,.427-1.094,1.642,1.642,0,0,0-.431-1.183,1.609,1.609,0,0,0-1.189-.465h-1.88Zm11.006-.376a5.367,5.367,0,0,0-.711-.055,1.447,1.447,0,0,0-1.47.759V33H44.174V25.6h1.866l.055.882a1.831,1.831,0,0,1,1.647-1.019,2.07,2.07,0,0,1,.615.089Zm.4,1.777a4.387,4.387,0,0,1,.424-1.962,3.1,3.1,0,0,1,1.22-1.333,3.56,3.56,0,0,1,1.849-.472,3.368,3.368,0,0,1,2.444.916,3.676,3.676,0,0,1,1.056,2.488l.014.506a3.866,3.866,0,0,1-.95,2.731,3.683,3.683,0,0,1-5.1,0,3.934,3.934,0,0,1-.954-2.789Zm1.976.144a2.757,2.757,0,0,0,.4,1.61,1.426,1.426,0,0,0,2.256.007,3.017,3.017,0,0,0,.4-1.76,2.73,2.73,0,0,0-.4-1.6,1.312,1.312,0,0,0-1.135-.567,1.29,1.29,0,0,0-1.121.564A3.068,3.068,0,0,0,50.7,29.377Zm5.94-.13a4.457,4.457,0,0,1,.776-2.755,2.517,2.517,0,0,1,2.123-1.025,2.265,2.265,0,0,1,1.784.807V22.5h1.982V33H61.524l-.1-.786a2.325,2.325,0,0,1-1.9.923,2.511,2.511,0,0,1-2.1-1.029A4.6,4.6,0,0,1,56.643,29.247Zm1.976.144a2.912,2.912,0,0,0,.362,1.593,1.181,1.181,0,0,0,1.053.554,1.322,1.322,0,0,0,1.292-.772V27.846a1.3,1.3,0,0,0-1.278-.772Q58.619,27.073,58.619,29.391Zm10.65,2.857a2.477,2.477,0,0,1-2.023.889,2.337,2.337,0,0,1-1.815-.684,2.918,2.918,0,0,1-.639-2V25.6h1.976v4.778q0,1.155,1.053,1.155a1.427,1.427,0,0,0,1.381-.7V25.6h1.982V33H69.324Zm6.48-.7a1.3,1.3,0,0,0,.889-.3,1.054,1.054,0,0,0,.355-.8h1.853a2.534,2.534,0,0,1-.41,1.377,2.706,2.706,0,0,1-1.1.971,3.455,3.455,0,0,1-1.548.345,3.211,3.211,0,0,1-2.5-1.008,3.99,3.99,0,0,1-.916-2.786v-.13a3.944,3.944,0,0,1,.909-2.728,3.174,3.174,0,0,1,2.5-1.019,3.111,3.111,0,0,1,2.225.79,2.8,2.8,0,0,1,.851,2.1H76.994a1.346,1.346,0,0,0-.355-.933,1.324,1.324,0,0,0-1.945.144,2.908,2.908,0,0,0-.352,1.63V29.4a2.945,2.945,0,0,0,.349,1.641A1.205,1.205,0,0,0,75.75,31.544Zm6.59-7.759V25.6H83.6v1.449H82.339v3.691a.881.881,0,0,0,.157.588.79.79,0,0,0,.6.178,3.151,3.151,0,0,0,.581-.048v1.5a4.067,4.067,0,0,1-1.2.178,1.886,1.886,0,0,1-2.119-2.1V27.053h-1.08V25.6h1.08V23.785Zm1.853,5.448a4.387,4.387,0,0,1,.424-1.962,3.1,3.1,0,0,1,1.22-1.333,3.56,3.56,0,0,1,1.849-.472,3.368,3.368,0,0,1,2.444.916,3.676,3.676,0,0,1,1.056,2.488l.014.506a3.866,3.866,0,0,1-.95,2.731,3.683,3.683,0,0,1-5.1,0,3.934,3.934,0,0,1-.954-2.789Zm1.976.144a2.757,2.757,0,0,0,.4,1.61,1.426,1.426,0,0,0,2.256.007,3.017,3.017,0,0,0,.4-1.76,2.73,2.73,0,0,0-.4-1.6,1.312,1.312,0,0,0-1.135-.567,1.29,1.29,0,0,0-1.121.564A3.068,3.068,0,0,0,86.167,29.377Zm10.254,1.579a.637.637,0,0,0-.359-.571,4.077,4.077,0,0,0-1.152-.373q-2.639-.554-2.639-2.242a2.032,2.032,0,0,1,.817-1.644,3.3,3.3,0,0,1,2.136-.66,3.547,3.547,0,0,1,2.252.663,2.09,2.09,0,0,1,.844,1.723H96.346a.956.956,0,0,0-.273-.7,1.157,1.157,0,0,0-.854-.277,1.182,1.182,0,0,0-.772.226.712.712,0,0,0-.273.574.609.609,0,0,0,.311.53,3.2,3.2,0,0,0,1.049.349,8.571,8.571,0,0,1,1.244.332,2.044,2.044,0,0,1,1.565,1.989,1.929,1.929,0,0,1-.868,1.637,3.745,3.745,0,0,1-2.242.625,3.912,3.912,0,0,1-1.651-.332A2.77,2.77,0,0,1,92.45,31.9a2.113,2.113,0,0,1-.41-1.248h1.873a1.031,1.031,0,0,0,.39.807,1.546,1.546,0,0,0,.971.28,1.43,1.43,0,0,0,.858-.215A.67.67,0,0,0,96.421,30.956Z" transform="translate(4360.037 -9406.055)" fill="#12263f"/><path d="M16.639,12.532,18.9,5.047h2.283L17.713,15h-2.14L12.121,5.047H14.4Zm8.75,2.6a3.631,3.631,0,0,1-2.649-1,3.548,3.548,0,0,1-1.022-2.659v-.191A4.468,4.468,0,0,1,22.149,9.3a3.161,3.161,0,0,1,1.22-1.354,3.425,3.425,0,0,1,1.8-.475,3.07,3.07,0,0,1,2.389.957,3.889,3.889,0,0,1,.872,2.714v.807h-4.71a1.835,1.835,0,0,0,.578,1.162,1.746,1.746,0,0,0,1.22.438,2.132,2.132,0,0,0,1.784-.827l.971,1.087a2.966,2.966,0,0,1-1.2.981A3.947,3.947,0,0,1,25.389,15.137Zm-.226-6.07a1.237,1.237,0,0,0-.954.4,2.048,2.048,0,0,0-.468,1.135H26.49V10.44a1.46,1.46,0,0,0-.355-1.015A1.277,1.277,0,0,0,25.164,9.066ZM31.371,7.6l.062.854a2.582,2.582,0,0,1,2.126-.991,2.146,2.146,0,0,1,1.75.69,3.221,3.221,0,0,1,.588,2.064V15H33.921V10.27a1.282,1.282,0,0,0-.273-.913,1.224,1.224,0,0,0-.909-.284,1.359,1.359,0,0,0-1.251.711V15H29.511V7.6Zm8.388-1.818V7.6h1.265V9.053H39.758v3.691a.881.881,0,0,0,.157.588.79.79,0,0,0,.6.178,3.15,3.15,0,0,0,.581-.048v1.5a4.067,4.067,0,0,1-1.2.178,1.886,1.886,0,0,1-2.119-2.1V9.053H36.7V7.6h1.08V5.785ZM46.41,15a2.194,2.194,0,0,1-.2-.663,2.39,2.39,0,0,1-1.866.8,2.626,2.626,0,0,1-1.8-.629,2.023,2.023,0,0,1-.714-1.586,2.09,2.09,0,0,1,.872-1.8,4.3,4.3,0,0,1,2.519-.636h.909v-.424a1.219,1.219,0,0,0-.263-.82,1.035,1.035,0,0,0-.831-.308,1.177,1.177,0,0,0-.783.239.813.813,0,0,0-.284.656H41.994a1.984,1.984,0,0,1,.4-1.189,2.621,2.621,0,0,1,1.121-.858,4.086,4.086,0,0,1,1.627-.311,3.228,3.228,0,0,1,2.17.687,2.4,2.4,0,0,1,.8,1.931v3.206a3.536,3.536,0,0,0,.294,1.593V15Zm-1.634-1.374a1.7,1.7,0,0,0,.807-.195,1.28,1.28,0,0,0,.547-.523V11.637h-.738q-1.483,0-1.579,1.025l-.007.116a.791.791,0,0,0,.26.608A1.009,1.009,0,0,0,44.776,13.626Zm8.032-2.379a4.457,4.457,0,0,1,.776-2.755,2.517,2.517,0,0,1,2.123-1.025,2.265,2.265,0,0,1,1.784.807V4.5h1.982V15H57.689l-.1-.786a2.325,2.325,0,0,1-1.9.923,2.511,2.511,0,0,1-2.1-1.029A4.6,4.6,0,0,1,52.808,11.247Zm1.976.144a2.912,2.912,0,0,0,.362,1.593,1.181,1.181,0,0,0,1.053.554,1.322,1.322,0,0,0,1.292-.772V9.846a1.3,1.3,0,0,0-1.278-.772Q54.784,9.073,54.784,11.391Zm9.625,3.746a3.631,3.631,0,0,1-2.649-1,3.548,3.548,0,0,1-1.022-2.659v-.191A4.468,4.468,0,0,1,61.169,9.3a3.161,3.161,0,0,1,1.22-1.354,3.425,3.425,0,0,1,1.8-.475,3.07,3.07,0,0,1,2.389.957,3.889,3.889,0,0,1,.872,2.714v.807h-4.71a1.835,1.835,0,0,0,.578,1.162,1.746,1.746,0,0,0,1.22.438,2.132,2.132,0,0,0,1.784-.827l.971,1.087a2.966,2.966,0,0,1-1.2.981A3.947,3.947,0,0,1,64.409,15.137Zm-.226-6.07a1.237,1.237,0,0,0-.954.4,2.048,2.048,0,0,0-.468,1.135h2.748V10.44a1.46,1.46,0,0,0-.355-1.015A1.277,1.277,0,0,0,64.183,9.066ZM16.834,30.389a1.052,1.052,0,0,0-.41-.892,5.38,5.38,0,0,0-1.477-.656,10.467,10.467,0,0,1-1.688-.68,2.759,2.759,0,0,1-1.7-2.468,2.4,2.4,0,0,1,.455-1.439,2.965,2.965,0,0,1,1.306-.988,4.914,4.914,0,0,1,1.911-.355,4.473,4.473,0,0,1,1.9.386,3.026,3.026,0,0,1,1.3,1.09,2.853,2.853,0,0,1,.461,1.6H16.841a1.342,1.342,0,0,0-.431-1.063,1.77,1.77,0,0,0-1.21-.379,1.891,1.891,0,0,0-1.169.318,1,1,0,0,0-.417.837.96.96,0,0,0,.489.813,5.522,5.522,0,0,0,1.439.615,6.217,6.217,0,0,1,2.55,1.306,2.6,2.6,0,0,1,.8,1.941,2.4,2.4,0,0,1-.978,2.027,4.279,4.279,0,0,1-2.632.735,5.082,5.082,0,0,1-2.092-.42,3.31,3.31,0,0,1-1.439-1.152,2.95,2.95,0,0,1-.5-1.7h2.058q0,1.647,1.969,1.647a1.915,1.915,0,0,0,1.142-.3A.967.967,0,0,0,16.834,30.389Zm6.72,2.748a3.631,3.631,0,0,1-2.649-1,3.548,3.548,0,0,1-1.022-2.659v-.191a4.468,4.468,0,0,1,.431-1.993,3.161,3.161,0,0,1,1.22-1.354,3.425,3.425,0,0,1,1.8-.475,3.07,3.07,0,0,1,2.389.957,3.889,3.889,0,0,1,.872,2.714v.807h-4.71a1.835,1.835,0,0,0,.578,1.162,1.746,1.746,0,0,0,1.22.438,2.132,2.132,0,0,0,1.784-.827l.971,1.087a2.966,2.966,0,0,1-1.2.981A3.947,3.947,0,0,1,23.554,33.137Zm-.226-6.07a1.237,1.237,0,0,0-.954.4,2.048,2.048,0,0,0-.468,1.135h2.748V28.44a1.46,1.46,0,0,0-.355-1.015A1.277,1.277,0,0,0,23.328,27.066Zm8.545.39a5.367,5.367,0,0,0-.711-.055,1.447,1.447,0,0,0-1.47.759V33H27.717V25.6h1.866l.055.882a1.831,1.831,0,0,1,1.647-1.019,2.07,2.07,0,0,1,.615.089Zm3.842,3.131L37.089,25.6h2.064l-2.5,7.4H34.772l-2.5-7.4h2.064ZM42.107,33H40.124V25.6h1.982Zm-2.1-9.311a.973.973,0,0,1,.3-.731,1.281,1.281,0,0,1,1.617,0,1.044,1.044,0,0,1,0,1.47,1.267,1.267,0,0,1-1.606,0A.97.97,0,0,1,40.008,23.689Zm6.8,7.854a1.3,1.3,0,0,0,.889-.3,1.054,1.054,0,0,0,.355-.8h1.853a2.534,2.534,0,0,1-.41,1.377,2.706,2.706,0,0,1-1.1.971,3.455,3.455,0,0,1-1.548.345,3.211,3.211,0,0,1-2.5-1.008,3.99,3.99,0,0,1-.916-2.786v-.13a3.944,3.944,0,0,1,.909-2.728,3.174,3.174,0,0,1,2.5-1.019,3.111,3.111,0,0,1,2.225.79,2.8,2.8,0,0,1,.851,2.1H48.054a1.346,1.346,0,0,0-.355-.933,1.324,1.324,0,0,0-1.945.144A2.908,2.908,0,0,0,45.4,29.2V29.4a2.945,2.945,0,0,0,.349,1.641A1.205,1.205,0,0,0,46.81,31.544ZM53.119,33H51.137V25.6h1.982Zm-2.1-9.311a.973.973,0,0,1,.3-.731,1.281,1.281,0,0,1,1.617,0,1.044,1.044,0,0,1,0,1.47,1.267,1.267,0,0,1-1.606,0A.97.97,0,0,1,51.021,23.689Zm3.418,5.544a4.387,4.387,0,0,1,.424-1.962,3.1,3.1,0,0,1,1.22-1.333,3.56,3.56,0,0,1,1.849-.472,3.368,3.368,0,0,1,2.444.916,3.676,3.676,0,0,1,1.056,2.488l.014.506a3.866,3.866,0,0,1-.95,2.731,3.683,3.683,0,0,1-5.1,0,3.934,3.934,0,0,1-.954-2.789Zm1.976.144a2.757,2.757,0,0,0,.4,1.61,1.426,1.426,0,0,0,2.256.007,3.017,3.017,0,0,0,.4-1.76,2.73,2.73,0,0,0-.4-1.6,1.312,1.312,0,0,0-1.135-.567,1.29,1.29,0,0,0-1.121.564A3.068,3.068,0,0,0,56.414,29.377Zm10.254,1.579a.637.637,0,0,0-.359-.571,4.077,4.077,0,0,0-1.152-.373q-2.639-.554-2.639-2.242a2.032,2.032,0,0,1,.817-1.644,3.3,3.3,0,0,1,2.136-.66,3.547,3.547,0,0,1,2.252.663,2.09,2.09,0,0,1,.844,1.723H66.593a.956.956,0,0,0-.273-.7,1.157,1.157,0,0,0-.854-.277,1.182,1.182,0,0,0-.772.226.712.712,0,0,0-.273.574.609.609,0,0,0,.311.53,3.2,3.2,0,0,0,1.049.349,8.571,8.571,0,0,1,1.244.332,2.044,2.044,0,0,1,1.565,1.989,1.929,1.929,0,0,1-.868,1.637,3.745,3.745,0,0,1-2.242.625,3.912,3.912,0,0,1-1.651-.332A2.77,2.77,0,0,1,62.7,31.9a2.113,2.113,0,0,1-.41-1.248h1.873a1.031,1.031,0,0,0,.39.807,1.546,1.546,0,0,0,.971.28,1.43,1.43,0,0,0,.858-.215A.67.67,0,0,0,66.668,30.956Z" transform="translate(4634.789 -9449.117)" fill="#12263f"/><path d="M10.993,12.949H7.4L6.713,15H4.533L8.238,5.047h1.9L13.864,15H11.683ZM7.951,11.288h2.488L9.188,7.563Zm8.962-5.5V7.6h1.265V9.053H16.913v3.691a.881.881,0,0,0,.157.588.79.79,0,0,0,.6.178,3.15,3.15,0,0,0,.581-.048v1.5a4.067,4.067,0,0,1-1.2.178,1.886,1.886,0,0,1-2.119-2.1V9.053h-1.08V7.6h1.08V5.785Zm5.77,9.352a3.631,3.631,0,0,1-2.649-1,3.548,3.548,0,0,1-1.022-2.659v-.191A4.468,4.468,0,0,1,19.442,9.3a3.161,3.161,0,0,1,1.22-1.354,3.425,3.425,0,0,1,1.8-.475,3.07,3.07,0,0,1,2.389.957,3.889,3.889,0,0,1,.872,2.714v.807h-4.71a1.835,1.835,0,0,0,.578,1.162,1.746,1.746,0,0,0,1.22.438,2.132,2.132,0,0,0,1.784-.827l.971,1.087a2.966,2.966,0,0,1-1.2.981A3.947,3.947,0,0,1,22.682,15.137Zm-.226-6.07a1.237,1.237,0,0,0-.954.4,2.048,2.048,0,0,0-.468,1.135h2.748V10.44a1.46,1.46,0,0,0-.355-1.015A1.277,1.277,0,0,0,22.457,9.066ZM28.664,7.6l.062.854a2.582,2.582,0,0,1,2.126-.991,2.146,2.146,0,0,1,1.75.69,3.221,3.221,0,0,1,.588,2.064V15H31.213V10.27a1.282,1.282,0,0,0-.273-.913,1.224,1.224,0,0,0-.909-.284,1.359,1.359,0,0,0-1.251.711V15H26.8V7.6Zm9.1,5.94a1.3,1.3,0,0,0,.889-.3,1.054,1.054,0,0,0,.355-.8h1.853a2.534,2.534,0,0,1-.41,1.377,2.706,2.706,0,0,1-1.1.971,3.455,3.455,0,0,1-1.548.345,3.211,3.211,0,0,1-2.5-1.008,3.99,3.99,0,0,1-.916-2.786v-.13a3.944,3.944,0,0,1,.909-2.728,3.174,3.174,0,0,1,2.5-1.019,3.111,3.111,0,0,1,2.225.79,2.8,2.8,0,0,1,.851,2.1H39.006a1.346,1.346,0,0,0-.355-.933,1.324,1.324,0,0,0-1.945.144,2.908,2.908,0,0,0-.352,1.63V11.4a2.945,2.945,0,0,0,.349,1.641A1.205,1.205,0,0,0,37.762,13.544ZM44.072,15H42.089V7.6h1.982Zm-2.1-9.311a.973.973,0,0,1,.3-.731,1.281,1.281,0,0,1,1.617,0,.967.967,0,0,1,.3.731.97.97,0,0,1-.3.738,1.267,1.267,0,0,1-1.606,0A.97.97,0,0,1,41.973,5.689Zm3.418,5.544a4.387,4.387,0,0,1,.424-1.962,3.1,3.1,0,0,1,1.22-1.333,3.56,3.56,0,0,1,1.849-.472,3.368,3.368,0,0,1,2.444.916,3.676,3.676,0,0,1,1.056,2.488l.014.506a3.866,3.866,0,0,1-.95,2.731,3.683,3.683,0,0,1-5.1,0,3.934,3.934,0,0,1-.954-2.789Zm1.976.144a2.757,2.757,0,0,0,.4,1.61,1.426,1.426,0,0,0,2.256.007,3.017,3.017,0,0,0,.4-1.76,2.73,2.73,0,0,0-.4-1.6,1.312,1.312,0,0,0-1.135-.567,1.29,1.29,0,0,0-1.121.564A3.068,3.068,0,0,0,47.367,11.377ZM49.274,4.5h2.153L49.534,6.619H47.927Zm6.159,3.1.062.854a2.582,2.582,0,0,1,2.126-.991,2.146,2.146,0,0,1,1.75.69,3.221,3.221,0,0,1,.588,2.064V15H57.983V10.27a1.282,1.282,0,0,0-.273-.913,1.224,1.224,0,0,0-.909-.284,1.359,1.359,0,0,0-1.251.711V15H53.574V7.6ZM69.228,15a2.194,2.194,0,0,1-.2-.663,2.39,2.39,0,0,1-1.866.8,2.626,2.626,0,0,1-1.8-.629,2.023,2.023,0,0,1-.714-1.586,2.09,2.09,0,0,1,.872-1.8,4.3,4.3,0,0,1,2.519-.636h.909v-.424a1.219,1.219,0,0,0-.263-.82,1.035,1.035,0,0,0-.831-.308,1.177,1.177,0,0,0-.783.239.813.813,0,0,0-.284.656H64.812a1.985,1.985,0,0,1,.4-1.189,2.621,2.621,0,0,1,1.121-.858,4.086,4.086,0,0,1,1.627-.311,3.228,3.228,0,0,1,2.17.687,2.4,2.4,0,0,1,.8,1.931v3.206a3.536,3.536,0,0,0,.294,1.593V15Zm-1.634-1.374a1.7,1.7,0,0,0,.807-.195,1.28,1.28,0,0,0,.547-.523V11.637H68.21q-1.483,0-1.579,1.025l-.007.116a.791.791,0,0,0,.26.608A1.009,1.009,0,0,0,67.594,13.626ZM74.533,15H72.55V4.5h1.982ZM26.5,29.685a3.522,3.522,0,0,1-1.186,2.529,4.165,4.165,0,0,1-2.82.923,3.745,3.745,0,0,1-3.011-1.289,5.284,5.284,0,0,1-1.1-3.538V27.7a5.966,5.966,0,0,1,.506-2.529,3.791,3.791,0,0,1,1.446-1.678,4.05,4.05,0,0,1,2.184-.584,4.058,4.058,0,0,1,2.775.923,3.785,3.785,0,0,1,1.217,2.591H24.463a2.079,2.079,0,0,0-.537-1.4,1.987,1.987,0,0,0-1.4-.434,1.742,1.742,0,0,0-1.535.735,4.118,4.118,0,0,0-.523,2.28v.752a4.408,4.408,0,0,0,.489,2.358,1.71,1.71,0,0,0,1.542.745,2.025,2.025,0,0,0,1.418-.434,1.961,1.961,0,0,0,.537-1.343ZM29.8,33H27.819V22.5H29.8Zm3.712,0H31.531V25.6h1.982Zm-2.1-9.311a.973.973,0,0,1,.3-.731,1.281,1.281,0,0,1,1.617,0,1.044,1.044,0,0,1,0,1.47,1.267,1.267,0,0,1-1.606,0A.97.97,0,0,1,31.415,23.689Zm7.13,9.447a3.631,3.631,0,0,1-2.649-1,3.548,3.548,0,0,1-1.022-2.659v-.191A4.468,4.468,0,0,1,35.3,27.3a3.161,3.161,0,0,1,1.22-1.354,3.425,3.425,0,0,1,1.8-.475,3.07,3.07,0,0,1,2.389.957,3.889,3.889,0,0,1,.872,2.714v.807h-4.71a1.835,1.835,0,0,0,.578,1.162,1.746,1.746,0,0,0,1.22.438,2.132,2.132,0,0,0,1.784-.827L41.43,31.8a2.966,2.966,0,0,1-1.2.981A3.947,3.947,0,0,1,38.545,33.137Zm-.226-6.07a1.237,1.237,0,0,0-.954.4A2.048,2.048,0,0,0,36.9,28.6h2.748V28.44a1.46,1.46,0,0,0-.355-1.015A1.277,1.277,0,0,0,38.319,27.066ZM44.526,25.6l.062.854a2.582,2.582,0,0,1,2.126-.991,2.146,2.146,0,0,1,1.75.69,3.221,3.221,0,0,1,.588,2.064V33H47.076V28.27a1.282,1.282,0,0,0-.273-.913,1.224,1.224,0,0,0-.909-.284,1.359,1.359,0,0,0-1.251.711V33H42.667V25.6Zm8.388-1.818V25.6h1.265v1.449H52.914v3.691a.881.881,0,0,0,.157.588.79.79,0,0,0,.6.178,3.151,3.151,0,0,0,.581-.048v1.5a4.067,4.067,0,0,1-1.2.178,1.886,1.886,0,0,1-2.119-2.1V27.053h-1.08V25.6h1.08V23.785Zm5.77,9.352a3.631,3.631,0,0,1-2.649-1,3.548,3.548,0,0,1-1.022-2.659v-.191a4.468,4.468,0,0,1,.431-1.993,3.161,3.161,0,0,1,1.22-1.354,3.425,3.425,0,0,1,1.8-.475,3.07,3.07,0,0,1,2.389.957,3.889,3.889,0,0,1,.872,2.714v.807h-4.71a1.835,1.835,0,0,0,.578,1.162,1.746,1.746,0,0,0,1.22.438,2.132,2.132,0,0,0,1.784-.827l.971,1.087a2.966,2.966,0,0,1-1.2.981A3.947,3.947,0,0,1,58.684,33.137Zm-.226-6.07a1.237,1.237,0,0,0-.954.4,2.048,2.048,0,0,0-.468,1.135h2.748V28.44a1.46,1.46,0,0,0-.355-1.015A1.277,1.277,0,0,0,58.458,27.066Z" transform="translate(4420.724 -9518.532)" fill="#12263f"/></g></g></svg>