<svg xmlns="http://www.w3.org/2000/svg" xmlns:xlink="http://www.w3.org/1999/xlink" width="1028.324" height="474.3" viewBox="0 0 1028.324 474.3"><defs><clipPath id="a"><path d="M14.8,0h998.72c8.175,0,14.8,7.1,14.8,15.863V407.437c0,8.761-6.627,15.863-14.8,15.863H14.8C6.627,423.3,0,416.2,0,407.437V15.863C0,7.1,6.627,0,14.8,0Z" transform="translate(-14498.084 -13325.311)" fill="#cbc232"/></clipPath><clipPath id="b"><path d="M385.125,0c212.7,0,385.125,165.141,385.125,368.852S597.824,737.7,385.125,737.7,0,572.564,0,368.852,172.427,0,385.125,0Z" transform="translate(0 0)" fill="#21c9b8"/></clipPath><clipPath id="c"><rect width="562.639" height="562.639" fill="#dee4f0"/></clipPath><clipPath id="d"><rect width="174.606" height="178.181" fill="#fff" stroke="#fff" stroke-width="1"/></clipPath></defs><g transform="translate(-289 -2062.001)"><g transform="translate(0 -23)"><g transform="translate(14787.084 15445.312)" opacity="0.61" clip-path="url(#a)"><path d="M0,0H1958.007V759.1H0Z" transform="translate(-14597.666 -13375.295)" fill="#f3f9ff"/><path d="M360.082,0C558.95,0,720.165,161.214,720.165,360.082S558.95,720.165,360.082,720.165,0,558.95,0,360.082,161.214,0,360.082,0Z" transform="translate(-13212.232 -13358.536)" fill="#dbe3fb" opacity="0.14"/><path d="M360.082,0C558.95,0,720.165,161.214,720.165,360.082S558.95,720.165,360.082,720.165,0,558.95,0,360.082,161.214,0,360.082,0Z" transform="translate(-14051.47 -12938.252)" fill="#dbe3fb" opacity="0.14"/><path d="M360.082,0C558.95,0,720.165,161.214,720.165,360.082S558.95,720.165,360.082,720.165,0,558.95,0,360.082,161.214,0,360.082,0Z" transform="translate(-13226.376 -13522.811)" fill="#dbe3fb" opacity="0"/><rect width="9.879" height="2.634" transform="translate(-13072.669 -12917.637)" fill="#dbe3fb"/><ellipse cx="359.603" cy="344.409" rx="359.603" ry="344.409" transform="translate(-14113.548 -14019.15)" fill="#94a6dd" opacity="0.13"/><path d="M368.357,0C571.8,0,736.715,157.951,736.715,352.793S571.8,705.586,368.357,705.586,0,547.635,0,352.793,164.919,0,368.357,0Z" transform="translate(-13635.472 -13212.226)" fill="#fff" opacity="0.25"/><path d="M480.474,0C745.832,0,960.947,215.115,960.947,480.474S745.832,960.947,480.474,960.947,0,745.832,0,480.474,215.115,0,480.474,0Z" transform="translate(-14850.658 -12864.773)" fill="#a5b9f6" opacity="0.23" style="mix-blend-mode:multiply;isolation:isolate"/><path d="M480.474,0C745.832,0,960.947,215.115,960.947,480.474S745.832,960.947,480.474,960.947,0,745.832,0,480.474,215.115,0,480.474,0Z" transform="translate(-15286.294 -14003.284)" fill="#a5b9f6" opacity="0.23" style="mix-blend-mode:multiply;isolation:isolate"/><path d="M480.474,0C745.832,0,960.947,215.115,960.947,480.474S745.832,960.947,480.474,960.947,0,745.832,0,480.474,215.115,0,480.474,0Z" transform="translate(-14458.665 -13913.207)" fill="#f6f8fe" opacity="0.51" style="mix-blend-mode:lighten;isolation:isolate"/><g transform="translate(-14540.83 -13774.651)"><g clip-path="url(#c)"><path d="M562.639,281.315c0-9.08-.471-18.045-1.316-26.911H430.7L553.15,208.781a279.921,279.921,0,0,0-18.783-50.452L387.777,212.934l110.589-110.6a283.049,283.049,0,0,0-38.073-38.064L367.91,156.666l54.3-118.806a279.884,279.884,0,0,0-48.958-22.411L308.244,157.679V1.307C299.377.471,290.4,0,281.315,0s-18.054.471-26.92,1.307V131.951L208.781,9.5A278.013,278.013,0,0,0,158.32,28.281l54.605,146.58L102.336,64.272a284.092,284.092,0,0,0-38.073,38.064l92.393,92.393-118.8-54.3a280.182,280.182,0,0,0-22.411,48.958L157.679,254.4H1.307C.471,263.27,0,272.235,0,281.315c0,9.1.471,18.062,1.307,26.929H131.951L9.489,353.858a278.764,278.764,0,0,0,18.783,50.47l146.58-54.614L64.263,460.294a283.114,283.114,0,0,0,38.073,38.073l92.393-92.393-54.3,118.8a280.127,280.127,0,0,0,48.949,22.42l65.019-142.232V561.331c8.867.836,17.84,1.307,26.92,1.307s18.062-.471,26.929-1.307V430.688L353.858,553.15a279.994,279.994,0,0,0,50.461-18.774L349.7,387.786l110.589,110.58a282.078,282.078,0,0,0,38.073-38.073L405.973,367.9l118.8,54.321a281.115,281.115,0,0,0,22.42-48.958L404.959,308.244H561.323c.845-8.867,1.316-17.831,1.316-26.929" fill="#dee4f0" opacity="0.12"/></g></g><path d="M655.464,327.727c0-10.578-.549-21.022-1.533-31.351H501.754l142.655-53.15a326.106,326.106,0,0,0-21.882-58.776L451.754,248.064,580.588,119.22a329.75,329.75,0,0,0-44.354-44.343L428.608,182.512,491.87,44.105A326.062,326.062,0,0,0,434.835,18L359.1,183.694V1.523C348.769.549,338.315,0,327.727,0s-21.032.549-31.362,1.523v152.2L243.226,11.065A323.88,323.88,0,0,0,184.44,32.947L248.054,203.71,119.22,74.876A330.96,330.96,0,0,0,74.866,119.22L182.5,226.856l-138.4-63.262A326.407,326.407,0,0,0,18,220.629l165.7,75.746H1.523C.549,306.705,0,317.149,0,327.727c0,10.6.549,21.042,1.523,31.372h152.2L11.055,412.238a324.755,324.755,0,0,0,21.882,58.8L203.7,407.41,74.866,536.234a329.827,329.827,0,0,0,44.354,44.354L226.856,472.951l-63.262,138.4a326.34,326.34,0,0,0,57.025,26.119l75.746-165.7V653.941c10.329.974,20.783,1.523,31.362,1.523s21.042-.549,31.372-1.523v-152.2l53.14,142.666a326.189,326.189,0,0,0,58.786-21.871L407.4,451.764,536.234,580.588a328.626,328.626,0,0,0,44.354-44.354L472.951,428.6l138.4,63.283a327.493,327.493,0,0,0,26.119-57.035L471.77,359.1H653.93c.984-10.329,1.533-20.773,1.533-31.372" transform="translate(-14325.346 -12916.318)" fill="none" stroke="#fff" stroke-width="1"/><rect width="9.879" height="2.634" transform="translate(-13031.422 -12848.507)" fill="#e9dcbf"/><g transform="translate(-13536.814 -13190.194)" style="isolation:isolate"><g transform="translate(0 0)" clip-path="url(#d)" style="isolation:isolate"><path d="M20.577,0h0A3.429,3.429,0,0,0,17.21,3,16.778,16.778,0,0,1,2.978,17.158,3.434,3.434,0,0,0,3,23.968,16.647,16.647,0,0,1,17.232,38.124a3.389,3.389,0,0,0,6.732.06,16.915,16.915,0,0,1,14.281-14.3,3.277,3.277,0,0,0,2.9-3.225v-.081a3.4,3.4,0,0,0-2.976-3.345A16.916,16.916,0,0,1,23.939,2.967,3.414,3.414,0,0,0,20.577,0" transform="translate(0 0)" fill="#fff" stroke="#fff" stroke-width="1"/><path d="M42.12,0h0a3.429,3.429,0,0,0-3.368,3,16.778,16.778,0,0,1-14.232,14.16,3.434,3.434,0,0,0,.023,6.81A16.647,16.647,0,0,1,38.775,38.124a3.389,3.389,0,0,0,6.732.06,16.915,16.915,0,0,1,14.281-14.3,3.277,3.277,0,0,0,2.9-3.225v-.081a3.4,3.4,0,0,0-2.976-3.345A16.912,16.912,0,0,1,45.484,2.967,3.418,3.418,0,0,0,42.12,0" transform="translate(22.943 0)" fill="#fff" stroke="#fff" stroke-width="1"/><path d="M63.663,0h0A3.429,3.429,0,0,0,60.3,3a16.778,16.778,0,0,1-14.232,14.16,3.434,3.434,0,0,0,.023,6.81A16.647,16.647,0,0,1,60.318,38.124a3.389,3.389,0,0,0,6.732.06,16.915,16.915,0,0,1,14.281-14.3,3.277,3.277,0,0,0,2.9-3.225v-.081a3.4,3.4,0,0,0-2.976-3.345A16.916,16.916,0,0,1,67.025,2.967,3.414,3.414,0,0,0,63.663,0" transform="translate(45.886 0)" fill="#fff" stroke="#fff" stroke-width="1"/><path d="M85.208,0h0A3.429,3.429,0,0,0,81.84,3a16.778,16.778,0,0,1-14.232,14.16,3.434,3.434,0,0,0,.023,6.81A16.647,16.647,0,0,1,81.862,38.124a3.389,3.389,0,0,0,6.732.06,16.915,16.915,0,0,1,14.281-14.3,3.277,3.277,0,0,0,2.9-3.225v-.081a3.4,3.4,0,0,0-2.976-3.345A16.916,16.916,0,0,1,88.569,2.967,3.414,3.414,0,0,0,85.208,0" transform="translate(68.829 0)" fill="#fff" stroke="#fff" stroke-width="1"/><path d="M20.577,22.12h0a3.431,3.431,0,0,0-3.368,3A16.78,16.78,0,0,1,2.978,39.28,3.434,3.434,0,0,0,3,46.09,16.647,16.647,0,0,1,17.232,60.246a3.389,3.389,0,0,0,6.732.058,16.915,16.915,0,0,1,14.281-14.3,3.278,3.278,0,0,0,2.9-3.225V42.7a3.4,3.4,0,0,0-2.976-3.345A16.914,16.914,0,0,1,23.939,25.087a3.414,3.414,0,0,0-3.362-2.967" transform="translate(0 23.557)" fill="#fff" stroke="#fff" stroke-width="1"/><path d="M42.12,22.12h0a3.431,3.431,0,0,0-3.368,3A16.78,16.78,0,0,1,24.521,39.28a3.434,3.434,0,0,0,.023,6.81A16.647,16.647,0,0,1,38.775,60.246a3.389,3.389,0,0,0,6.732.058,16.915,16.915,0,0,1,14.281-14.3,3.278,3.278,0,0,0,2.9-3.225V42.7a3.4,3.4,0,0,0-2.976-3.345,16.91,16.91,0,0,1-14.23-14.265A3.418,3.418,0,0,0,42.12,22.12" transform="translate(22.943 23.557)" fill="#fff" stroke="#fff" stroke-width="1"/><path d="M63.663,22.12h0a3.431,3.431,0,0,0-3.368,3A16.78,16.78,0,0,1,46.064,39.28a3.434,3.434,0,0,0,.023,6.81A16.647,16.647,0,0,1,60.318,60.246a3.389,3.389,0,0,0,6.732.058,16.915,16.915,0,0,1,14.281-14.3,3.278,3.278,0,0,0,2.9-3.225V42.7a3.4,3.4,0,0,0-2.976-3.345A16.914,16.914,0,0,1,67.025,25.087a3.414,3.414,0,0,0-3.362-2.967" transform="translate(45.886 23.557)" fill="#fff" stroke="#fff" stroke-width="1"/><path d="M85.208,22.12h0a3.431,3.431,0,0,0-3.368,3A16.78,16.78,0,0,1,67.608,39.28a3.434,3.434,0,0,0,.023,6.81A16.647,16.647,0,0,1,81.862,60.246a3.389,3.389,0,0,0,6.732.058,16.915,16.915,0,0,1,14.281-14.3,3.278,3.278,0,0,0,2.9-3.225V42.7a3.4,3.4,0,0,0-2.976-3.345A16.914,16.914,0,0,1,88.569,25.087a3.414,3.414,0,0,0-3.362-2.967" transform="translate(68.829 23.557)" fill="#fff" stroke="#fff" stroke-width="1"/><path d="M20.577,44.241h0a3.429,3.429,0,0,0-3.368,3A16.773,16.773,0,0,1,2.978,61.4,3.435,3.435,0,0,0,3,68.209,16.647,16.647,0,0,1,17.232,82.365a3.389,3.389,0,0,0,6.732.06,16.915,16.915,0,0,1,14.281-14.3,3.278,3.278,0,0,0,2.9-3.225v-.081a3.4,3.4,0,0,0-2.976-3.345A16.916,16.916,0,0,1,23.939,47.208a3.414,3.414,0,0,0-3.362-2.967" transform="translate(0 47.115)" fill="#fff" stroke="#fff" stroke-width="1"/><path d="M42.12,44.241h0a3.429,3.429,0,0,0-3.368,3A16.773,16.773,0,0,1,24.521,61.4a3.435,3.435,0,0,0,.023,6.812A16.647,16.647,0,0,1,38.775,82.365a3.389,3.389,0,0,0,6.732.06,16.915,16.915,0,0,1,14.281-14.3,3.278,3.278,0,0,0,2.9-3.225v-.081a3.4,3.4,0,0,0-2.976-3.345,16.912,16.912,0,0,1-14.23-14.265,3.418,3.418,0,0,0-3.364-2.967" transform="translate(22.943 47.115)" fill="#fff" stroke="#fff" stroke-width="1"/><path d="M63.663,44.241h0a3.429,3.429,0,0,0-3.368,3A16.773,16.773,0,0,1,46.064,61.4a3.435,3.435,0,0,0,.023,6.812A16.647,16.647,0,0,1,60.318,82.365a3.389,3.389,0,0,0,6.732.06,16.915,16.915,0,0,1,14.281-14.3,3.278,3.278,0,0,0,2.9-3.225v-.081a3.4,3.4,0,0,0-2.976-3.345A16.916,16.916,0,0,1,67.025,47.208a3.414,3.414,0,0,0-3.362-2.967" transform="translate(45.886 47.115)" fill="#fff" stroke="#fff" stroke-width="1"/><path d="M85.208,44.241h0a3.429,3.429,0,0,0-3.368,3A16.773,16.773,0,0,1,67.608,61.4a3.435,3.435,0,0,0,.023,6.812A16.647,16.647,0,0,1,81.862,82.365a3.389,3.389,0,0,0,6.732.06,16.915,16.915,0,0,1,14.281-14.3,3.278,3.278,0,0,0,2.9-3.225v-.081a3.4,3.4,0,0,0-2.976-3.345A16.916,16.916,0,0,1,88.569,47.208a3.414,3.414,0,0,0-3.362-2.967" transform="translate(68.829 47.115)" fill="#fff" stroke="#fff" stroke-width="1"/><path d="M20.577,66.361h0a3.429,3.429,0,0,0-3.368,3A16.778,16.778,0,0,1,2.978,83.519,3.434,3.434,0,0,0,3,90.329a16.647,16.647,0,0,1,14.232,14.155,3.389,3.389,0,0,0,6.732.06,16.915,16.915,0,0,1,14.281-14.3,3.277,3.277,0,0,0,2.9-3.225v-.081a3.4,3.4,0,0,0-2.976-3.345A16.916,16.916,0,0,1,23.939,69.328a3.414,3.414,0,0,0-3.362-2.967" transform="translate(0 70.672)" fill="#fff" stroke="#fff" stroke-width="1"/><path d="M42.12,66.361h0a3.429,3.429,0,0,0-3.368,3,16.778,16.778,0,0,1-14.232,14.16,3.434,3.434,0,0,0,.023,6.81,16.647,16.647,0,0,1,14.232,14.155,3.389,3.389,0,0,0,6.732.06,16.915,16.915,0,0,1,14.281-14.3,3.277,3.277,0,0,0,2.9-3.225v-.081a3.4,3.4,0,0,0-2.976-3.345,16.912,16.912,0,0,1-14.23-14.265,3.418,3.418,0,0,0-3.364-2.967" transform="translate(22.943 70.672)" fill="#fff" stroke="#fff" stroke-width="1"/><path d="M63.663,66.361h0a3.429,3.429,0,0,0-3.368,3,16.778,16.778,0,0,1-14.232,14.16,3.434,3.434,0,0,0,.023,6.81,16.647,16.647,0,0,1,14.232,14.155,3.389,3.389,0,0,0,6.732.06,16.915,16.915,0,0,1,14.281-14.3,3.277,3.277,0,0,0,2.9-3.225v-.081a3.4,3.4,0,0,0-2.976-3.345A16.916,16.916,0,0,1,67.025,69.328a3.414,3.414,0,0,0-3.362-2.967" transform="translate(45.886 70.672)" fill="#fff" stroke="#fff" stroke-width="1"/><path d="M85.208,66.361h0a3.429,3.429,0,0,0-3.368,3,16.778,16.778,0,0,1-14.232,14.16,3.434,3.434,0,0,0,.023,6.81,16.647,16.647,0,0,1,14.232,14.155,3.389,3.389,0,0,0,6.732.06,16.915,16.915,0,0,1,14.281-14.3,3.277,3.277,0,0,0,2.9-3.225v-.081a3.4,3.4,0,0,0-2.976-3.345A16.916,16.916,0,0,1,88.569,69.328a3.414,3.414,0,0,0-3.362-2.967" transform="translate(68.829 70.672)" fill="#fff" stroke="#fff" stroke-width="1"/></g></g></g><rect width="400" height="43" rx="21.5" transform="translate(608.162 2516.301)" fill="#a5b9f6"/><g transform="translate(444.902 2078.893)"><g transform="translate(451.26 100.299)"><g transform="translate(0)"><path d="M463.328,87.408h49.144a3.874,3.874,0,0,1,3.874,3.874v32.564a3.874,3.874,0,0,1-3.874,3.874h-25.88l-12.3,12.3v-12.3H463.328a2.873,2.873,0,0,1-2.873-2.873V90.281A2.873,2.873,0,0,1,463.328,87.408Z" transform="translate(-460.455 -87.408)" fill="#ffe4b3"/><g transform="translate(13.394 17.947)"><path d="M484.951,115.372a2.892,2.892,0,1,1-2.892-2.892A2.892,2.892,0,0,1,484.951,115.372Z" transform="translate(-479.167 -112.48)" fill="#fafafa"/></g><g transform="translate(24.832 17.947)"><path d="M500.929,115.372a2.892,2.892,0,1,1-2.892-2.892A2.892,2.892,0,0,1,500.929,115.372Z" transform="translate(-495.145 -112.48)" fill="#fafafa"/></g><g transform="translate(36.269 17.947)"><path d="M516.907,115.372a2.892,2.892,0,1,1-2.892-2.892A2.892,2.892,0,0,1,516.907,115.372Z" transform="translate(-511.123 -112.48)" fill="#fafafa"/></g></g></g><g transform="translate(157.26 174.737)"><g transform="translate(15.147)"><rect width="374.738" height="247.811" rx="14.567" fill="#455a64"/></g><g transform="translate(0 229.482)"><path d="M0,0H406a0,0,0,0,1,0,0V3.886a17.8,17.8,0,0,1-17.8,17.8H17.8A17.8,17.8,0,0,1,0,3.886V0A0,0,0,0,1,0,0Z" fill="#455a64"/></g><g transform="translate(25.73 9.846)"><rect width="353.572" height="209.272" fill="#f5f5f5"/></g><g transform="translate(166.098 229.239)"><path d="M338.114,432.341c-.006,0,.126-.007.39-.011l1.188-.013,4.618-.026,17.131-.07,57.281-.123h.423l-.214.366c-.721,1.234-1.494,2.56-2.273,3.895-.816,1.4-1.628,2.787-2.4,4.118l-.071.12h-.14l-70.892-.133h-.062l-.031-.051-3.712-6.037c-.4-.66-.713-1.168-.934-1.529-.207-.341-.3-.506-.3-.506s.127.185.353.531l.991,1.533,3.788,5.892-.093-.051,70.892-.133-.208.12,2.4-4.119,2.274-3.9.209.365-57.047-.123-17.212-.069-4.688-.027-1.229-.012C338.267,432.35,338.114,432.341,338.114,432.341Z" transform="translate(-338.114 -432.098)" fill="#263238"/></g><g transform="translate(38.883 22.161)"><g transform="translate(111.454 19.389)"><path d="M325.727,234.961a12.084,12.084,0,0,1,2.246-2.293l-.534-2.929,4.53-1.932,1.744,2.412a12.072,12.072,0,0,1,3.211-.035l1.692-2.448,4.569,1.836-.471,2.937a12.064,12.064,0,0,1,2.293,2.247l2.928-.535,1.933,4.529-2.413,1.745a12.025,12.025,0,0,1,.036,3.21l2.448,1.692-1.836,4.57-2.938-.472a12.087,12.087,0,0,1-2.246,2.293l.534,2.928-4.53,1.933-1.744-2.412a12.068,12.068,0,0,1-3.21.035l-1.693,2.448-4.569-1.836.472-2.937a12.041,12.041,0,0,1-2.294-2.247l-2.928.535-1.933-4.529,2.413-1.745a12.1,12.1,0,0,1-.036-3.21l-2.448-1.692,1.836-4.57,2.938.472Zm4.9,5.09a5.282,5.282,0,1,0,6.871-2.932A5.283,5.283,0,0,0,330.628,240.051Z" transform="translate(-320.953 -227.736)" fill="#e0e0e0" fill-rule="evenodd"/></g><g transform="translate(84.037 100.657)"><path d="M304.934,337.16a34.936,34.936,0,0,1,6.509-6.646l-1.549-8.485,13.125-5.6,5.054,6.988a34.938,34.938,0,0,1,9.3-.1l4.9-7.092,13.241,5.32-1.368,8.511a34.973,34.973,0,0,1,6.646,6.511l8.484-1.548,5.6,13.124-6.988,5.054a34.976,34.976,0,0,1,.1,9.3l7.092,4.9-5.319,13.241-8.512-1.368a34.945,34.945,0,0,1-6.511,6.646l1.549,8.485L343.168,400l-5.054-6.989a34.976,34.976,0,0,1-9.3.1l-4.9,7.092-13.241-5.32,1.368-8.511a34.918,34.918,0,0,1-6.646-6.511l-8.484,1.549-5.6-13.124,6.988-5.055a35.015,35.015,0,0,1-.1-9.3l-7.092-4.9,5.319-13.24,8.514,1.367Zm14.2,14.747a15.307,15.307,0,1,0,19.91-8.5A15.306,15.306,0,0,0,319.132,351.907Z" transform="translate(-291.101 -316.223)" fill="#f5f5f5" fill-rule="evenodd"/></g><g transform="translate(23.745 127.46)"><g transform="translate(0.151 0.228)"><path d="M233.269,357.238a19.328,19.328,0,0,1,3.6-3.676l-.857-4.695,7.261-3.1,2.8,3.866a19.327,19.327,0,0,1,5.146-.056l2.713-3.923,7.324,2.944-.756,4.709a19.28,19.28,0,0,1,3.676,3.6l4.694-.857,3.1,7.26-3.867,2.8a19.3,19.3,0,0,1,.056,5.147l3.924,2.712-2.944,7.325-4.709-.757a19.341,19.341,0,0,1-3.6,3.677l.857,4.694-7.261,3.1-2.8-3.867a19.328,19.328,0,0,1-5.146.057l-2.712,3.923-7.325-2.944.756-4.709a19.334,19.334,0,0,1-3.676-3.6l-4.694.857-3.1-7.26,3.867-2.8a19.367,19.367,0,0,1-.056-5.146l-3.924-2.712,2.944-7.325,4.71.757Zm7.855,8.159a8.469,8.469,0,1,0,11.015-4.7A8.469,8.469,0,0,0,241.124,365.4Z" transform="translate(-225.616 -345.655)" fill="none"/></g><g transform="translate(14.936 14.47)"><path d="M242.438,366.662a6.386,6.386,0,0,1,.94-1.875,8.426,8.426,0,0,1,4.627-3.29,8.54,8.54,0,0,1,3.981-.177,8.665,8.665,0,0,1,4.1,2.028,8.677,8.677,0,0,1,2.633,4.31,8.641,8.641,0,0,1-3.836,9.551A8.683,8.683,0,0,1,250,378.5a8.667,8.667,0,0,1-4.364-1.374,8.539,8.539,0,0,1-2.752-2.882,8.436,8.436,0,0,1-1.065-5.577,6.4,6.4,0,0,1,.619-2c.057.018-.264.707-.432,2.03a8.447,8.447,0,0,0,1.173,5.375,8.267,8.267,0,0,0,6.836,3.985,8.264,8.264,0,0,0,4.619-1.247,8.206,8.206,0,0,0,3.627-9.028,8.279,8.279,0,0,0-2.471-4.1,8.273,8.273,0,0,0-7.692-1.853,8.446,8.446,0,0,0-4.566,3.069C242.736,365.968,242.492,366.688,242.438,366.662Z" transform="translate(-241.715 -361.163)" fill="#263238"/></g><path d="M233.256,357.218a1.757,1.757,0,0,1-.3-.03l-.9-.124-3.53-.526.084-.047-2.9,7.342-.044-.147,3.934,2.7.071.048-.01.086a19.3,19.3,0,0,0,.073,5.105l.014.1-.078.057-3.858,2.808.057-.208c.982,2.284,2.022,4.708,3.115,7.254l-.21-.114,4.692-.865.119-.022.075.1a19.239,19.239,0,0,0,3.644,3.557l.1.076-.02.125-.749,4.711-.132-.235,7.328,2.934-.27.081c.844-1.222,1.771-2.566,2.708-3.926l.08-.115.139.017a19.183,19.183,0,0,0,5.083-.06l.141-.02.084.116,2.8,3.865-.287-.08,7.26-3.1-.142.265c-.271-1.482-.564-3.082-.859-4.694l-.026-.144.116-.09a19.2,19.2,0,0,0,3.553-3.628l0,0,.089-.118.144.023,4.709.757-.264.15,2.945-7.325.086.287-3.923-2.714-.118-.082.017-.143a19.093,19.093,0,0,0-.052-5.083l-.02-.141.115-.084,3.868-2.794-.077.278-3.09-7.264.245.132-4.695.851-.13.023-.081-.1a19.159,19.159,0,0,0-3.63-3.567l-.1-.076.02-.126c.263-1.614.516-3.179.764-4.707l.125.219-7.32-2.959.222-.066-2.721,3.916-.061.087-.1-.013a19.272,19.272,0,0,0-5.1.041l-.1.014-.056-.078-2.783-3.876.172.048-7.274,3.067.063-.119c.331,1.877.6,3.417.827,4.7l.008.047-.038.029a20.058,20.058,0,0,0-2.821,2.644l-.62.73a1.989,1.989,0,0,1-.208.241,2.44,2.44,0,0,1,.176-.265c.126-.171.316-.428.591-.758a18.746,18.746,0,0,1,2.786-2.716l-.028.076c-.242-1.28-.534-2.816-.888-4.688l-.016-.085.081-.035,7.247-3.13.1-.045.068.093,2.809,3.856-.152-.064a19.531,19.531,0,0,1,5.19-.072l-.163.074,2.7-3.93.084-.122.139.055,7.331,2.929.15.06-.025.16c-.243,1.529-.492,3.094-.749,4.71l-.082-.2a19.537,19.537,0,0,1,3.722,3.636l-.21-.08,4.692-.863.176-.032.07.164q1.515,3.54,3.106,7.257l.073.17-.15.109-3.865,2.8.095-.224a19.562,19.562,0,0,1,.061,5.208l-.1-.225,3.924,2.711.158.108-.071.179q-1.451,3.611-2.942,7.325l-.072.18-.192-.03-4.709-.757.232-.094,0,0a19.617,19.617,0,0,1-3.644,3.718l.089-.234c.294,1.612.586,3.212.856,4.694l.035.19-.177.075-7.262,3.1-.175.074-.111-.154-2.794-3.868.224.095a19.645,19.645,0,0,1-5.208.053l.218-.1-2.716,3.921-.1.149-.167-.068-7.322-2.952-.161-.065.028-.17c.265-1.639.527-3.248.763-4.708l.082.2a19.591,19.591,0,0,1-3.709-3.646l.194.073-4.7.848-.151.028-.06-.141-3.081-7.267-.054-.128.112-.081,3.874-2.786-.064.152a19.5,19.5,0,0,1-.039-5.186l.06.135-3.912-2.728-.081-.057.037-.091c1.216-2.977,2.221-5.437,2.986-7.308l.023-.059.061.011,3.487.6.9.163A2.236,2.236,0,0,1,233.256,357.218Z" transform="translate(-225.452 -345.407)" fill="#263238"/></g><path d="M213.213,248.976a48.187,48.187,0,0,1,5.991-11.341l-5.383-10.606,15.144-12.562,9.427,7.25a48.165,48.165,0,0,1,12.254-3.792l3.691-11.3,19.592,1.826,1.539,11.786a48.187,48.187,0,0,1,11.343,5.993l10.6-5.383,12.562,15.145-7.25,9.428a48.183,48.183,0,0,1,3.791,12.253l11.3,3.691L316,280.955l-11.787,1.539a48.2,48.2,0,0,1-5.993,11.342l5.383,10.606L288.455,317l-9.428-7.251a48.2,48.2,0,0,1-12.253,3.791l-3.692,11.3-19.592-1.826-1.539-11.787a48.249,48.249,0,0,1-11.342-5.992L220,310.625,207.441,295.48l7.25-9.428A48.192,48.192,0,0,1,210.9,273.8l-11.3-3.691,1.826-19.592,11.789-1.54Zm24.564,13.91a21.108,21.108,0,1,0,22.975-19.058A21.107,21.107,0,0,0,237.776,262.886Z" transform="translate(-199.598 -206.624)" fill="#e0e0e0" fill-rule="evenodd"/></g><g transform="translate(15.147 229.254)"><g transform="translate(0 0.228)"><line x2="374.738" fill="#263238"/></g><g transform="translate(0)"><path d="M548.491,432.343c0,.126-83.894.228-187.36.228-103.5,0-187.378-.1-187.378-.228s83.877-.228,187.378-.228C464.6,432.115,548.491,432.217,548.491,432.343Z" transform="translate(-173.753 -432.115)" fill="#263238"/></g></g></g><g transform="translate(246.225 109.069)"><g transform="translate(63.736)"><g transform="translate(0 13.594)"><path d="M359.158,125.794c-5.779,2.536-9.142,8.763-10.4,14.947s-.847,12.575-1.394,18.861-2.271,12.859-6.86,17.192c-4.276,4.037-10.575,5.68-14.218,10.3a12.953,12.953,0,0,0,7.384,20.674c-2.881,4.564-1.439,10.936,2.247,14.878s9.1,5.821,14.439,6.633c9.386,1.429,19.4-.15,27.325-5.373s13.477-14.3,13.457-23.791" transform="translate(-323.526 -125.794)" fill="#263238"/><g transform="translate(8.992 44.761)"><path d="M334.928,223.062a7.567,7.567,0,0,1-1.018-2.046,12.316,12.316,0,0,1-.369-6.2,17.049,17.049,0,0,1,1.325-4.117,22.792,22.792,0,0,1,2.653-4.189,76.656,76.656,0,0,1,7.945-8.04,83.328,83.328,0,0,0,7.725-8.176,38.2,38.2,0,0,0,4.942-7.7,26.98,26.98,0,0,0,2.007-5.832c.173-.711.222-1.279.3-1.657a2.918,2.918,0,0,1,.126-.578,2.808,2.808,0,0,1-.035.589c-.051.383-.073.959-.22,1.68a25.068,25.068,0,0,1-1.888,5.933,37.209,37.209,0,0,1-4.907,7.825,79.833,79.833,0,0,1-7.739,8.245,80.044,80.044,0,0,0-7.93,7.969,22.807,22.807,0,0,0-2.641,4.092,17.01,17.01,0,0,0-1.349,4.013,12.543,12.543,0,0,0,.221,6.085A21.41,21.41,0,0,0,334.928,223.062Z" transform="translate(-333.317 -174.531)" fill="#455a64"/></g></g><g transform="translate(75.775 34.339)"><path d="M434.965,148.382c0,8.488,3.916,16.267,7.438,19.127,4.981,4.047,12.291,6,17.107,7.348,7.016,1.961,12.9,8.1,13.773,15.335s-3.853,14.964-10.907,16.782c4.434,4.529,3.114,12.313-.535,17.494-6.917,9.819-20.722,13.592-32.17,9.962s-20.222-13.776-23.639-25.29" transform="translate(-406.032 -148.382)" fill="#263238"/><g transform="translate(24.088 23.775)"><path d="M454.559,234.089a7.562,7.562,0,0,0,2.7-1.187,7.9,7.9,0,0,0,2.26-2.589,9.4,9.4,0,0,0,1.209-4.369,10.7,10.7,0,0,0-1.419-5.294,17.148,17.148,0,0,0-4.125-4.837c-3.476-2.931-8.206-4.761-12.779-7.39a25.018,25.018,0,0,1-6.07-4.766,14.545,14.545,0,0,1-2.122-3.025,13.325,13.325,0,0,1-1.187-3.338,22.7,22.7,0,0,1-.3-6.5c.153-2.03.412-3.9.591-5.611a24.971,24.971,0,0,0-.128-8.086l-.333-1.229c-.1-.354-.247-.635-.332-.872a4.969,4.969,0,0,1-.264-.728,4.887,4.887,0,0,1,.348.692c.1.233.256.512.376.864l.378,1.232a24.111,24.111,0,0,1,.276,8.158c-.159,1.719-.4,3.593-.535,5.607a22.55,22.55,0,0,0,.33,6.378,13.2,13.2,0,0,0,3.233,6.158,24.786,24.786,0,0,0,5.967,4.67c4.522,2.6,9.283,4.456,12.818,7.461a17.438,17.438,0,0,1,4.187,4.979,10.961,10.961,0,0,1,1.41,5.485,9.592,9.592,0,0,1-1.311,4.486,7.931,7.931,0,0,1-2.379,2.606,6.6,6.6,0,0,1-2.031.927A4.845,4.845,0,0,1,454.559,234.089Z" transform="translate(-432.259 -174.269)" fill="#455a64"/></g><g transform="translate(25.765 11.557)"><path d="M471.242,204.684a4.544,4.544,0,0,0,.857-2.358,5.7,5.7,0,0,0-.656-2.862,7.17,7.17,0,0,0-2.6-2.875,12.694,12.694,0,0,0-4.513-1.524c-1.709-.3-3.574-.405-5.53-.709a29.7,29.7,0,0,1-11.88-4.7,29.194,29.194,0,0,1-8.777-9.284,29.537,29.537,0,0,1-3.6-9.808,28.21,28.21,0,0,1-.376-7.04c.064-.832.141-1.473.22-1.906a3.667,3.667,0,0,1,.128-.656c.053.006-.1.915-.171,2.572a30.2,30.2,0,0,0,4.163,16.624,29.13,29.13,0,0,0,8.672,9.12,29.647,29.647,0,0,0,11.69,4.662c1.925.311,3.8.434,5.529.751a12.9,12.9,0,0,1,4.619,1.622,7.37,7.37,0,0,1,2.661,3.036,5.8,5.8,0,0,1,.6,2.986,4.1,4.1,0,0,1-.605,1.829,4.878,4.878,0,0,1-.31.4C471.288,204.648,471.249,204.69,471.242,204.684Z" transform="translate(-434.086 -160.966)" fill="#455a64"/></g></g><g transform="translate(23.656 3.966)"><g transform="translate(0.865 8.126)"><path d="M365.458,245.9c1.209-12.682,2.249-26.056,2.249-26.056s-16.067-4.319-17.353-25.963c-1.227-20.641,6.74-67.243,6.74-67.243h0c24.452-7.274,51.673,1.85,66.584,22.315h0L412.162,251.8c-1.336,11.939-12.668,20.3-25.44,18.77h0C373.821,269.021,364.306,257.982,365.458,245.9Z" transform="translate(-350.225 -124.159)" fill="#b78876"/><g transform="translate(5.144 33.851)"><g transform="translate(4.139 3.658)"><path d="M360.356,167.221a2.746,2.746,0,0,0,2.364,3.017,2.627,2.627,0,0,0,3.06-2.187,2.747,2.747,0,0,0-2.361-3.018A2.629,2.629,0,0,0,360.356,167.221Z" transform="translate(-360.333 -165)" fill="#263238"/></g><path d="M355.859,163.4c.3.389,2.525-.939,5.465-.641,2.941.254,4.95,1.98,5.3,1.65.173-.143-.109-.82-.982-1.6a7.537,7.537,0,0,0-4.2-1.763,7.234,7.234,0,0,0-4.394.956C356.078,162.609,355.708,163.224,355.859,163.4Z" transform="translate(-355.826 -161.017)" fill="#263238"/></g><g transform="translate(35.725 37.939)"><g transform="translate(3.614 3.052)"><path d="M393.082,171.013a2.747,2.747,0,0,0,2.364,3.017,2.626,2.626,0,0,0,3.059-2.187,2.748,2.748,0,0,0-2.361-3.019A2.629,2.629,0,0,0,393.082,171.013Z" transform="translate(-393.059 -168.791)" fill="#263238"/></g><path d="M389.156,167.851c.3.39,2.528-.938,5.466-.641,2.941.254,4.95,1.98,5.306,1.651.172-.144-.107-.82-.983-1.6a7.533,7.533,0,0,0-4.2-1.762,7.233,7.233,0,0,0-4.395.955C389.378,167.061,389.006,167.676,389.156,167.851Z" transform="translate(-389.124 -165.468)" fill="#263238"/></g><g transform="translate(15.642 36.709)"><path d="M374.553,188.5c.03-.165-1.767-.661-4.692-1.332-.743-.152-1.439-.37-1.515-.9a3.845,3.845,0,0,1,.721-2.177q1.327-2.622,2.784-5.5c3.885-7.839,6.776-14.313,6.459-14.467s-3.723,6.074-7.609,13.913q-1.409,2.9-2.694,5.543a4.372,4.372,0,0,0-.68,2.91,1.9,1.9,0,0,0,1.127,1.22,5.146,5.146,0,0,0,1.258.3C372.677,188.472,374.525,188.668,374.553,188.5Z" transform="translate(-367.257 -164.129)" fill="#263238"/></g><g transform="translate(17.274 90.879)"><path d="M369.242,227.916a54.479,54.479,0,0,0,29.289-4.805s-8.365,13.958-29.5,9.865Z" transform="translate(-369.034 -223.111)" fill="#aa6550"/></g><g transform="translate(23.127 66.678)"><path d="M375.764,198.375a5.322,5.322,0,0,1,4.944-1.5,4.863,4.863,0,0,1,3.165,2.121,3.08,3.08,0,0,1-.112,3.529,3.573,3.573,0,0,1-3.951.6,11.2,11.2,0,0,1-3.539-2.613,3.274,3.274,0,0,1-.754-.952.989.989,0,0,1,.112-1.095" transform="translate(-375.406 -196.76)" fill="#aa6550"/></g><g transform="translate(21.25 63.967)"><path d="M383.506,193.81c-.476-.075-.8,3.117-3.751,5.114s-6.32,1.311-6.388,1.755c-.064.2.7.694,2.13.874a7.983,7.983,0,0,0,5.314-1.284,6.957,6.957,0,0,0,2.941-4.308C384,194.638,383.726,193.813,383.506,193.81Z" transform="translate(-373.363 -193.809)" fill="#263238"/></g><g transform="translate(60.563 47.462)"><path d="M418.918,175.9a12.769,12.769,0,0,1,6.816,1.114,8.914,8.914,0,0,1,4.573,5.05,9.313,9.313,0,0,1-.612,6.817,15.767,15.767,0,0,1-4.446,5.349,10.683,10.683,0,0,1-4.407,2.338,5.1,5.1,0,0,1-4.674-1.2" transform="translate(-416.168 -175.837)" fill="#b78876"/></g><g transform="translate(63.164 50.78)"><path d="M419.049,190.137c-.269.059.586,1.535,2.725,1.178a4.507,4.507,0,0,0,2.8-1.994,10.19,10.19,0,0,0,1.506-3.67,5.982,5.982,0,0,0-.568-4.107,3.981,3.981,0,0,0-2.82-2.063c-2.138-.259-2.948,1.161-2.71,1.228.155.19,1.061-.493,2.432-.017,1.32.379,2.458,2.36,1.942,4.635-.486,2.32-1.6,4.377-2.9,4.79C420.089,190.65,419.21,189.962,419.049,190.137Z" transform="translate(-419.001 -179.45)" fill="#aa6550"/></g></g><path d="M367.317,135.03a26.106,26.106,0,0,1-17.586,14.809,63.554,63.554,0,0,1,.1-15.8c.861-5.21,2.983-10.351,6.782-14.018s9.435-5.642,14.536-4.276" transform="translate(-349.283 -115.311)" fill="#263238"/></g><g transform="translate(41.728)"><path d="M370.392,125.011A20.96,20.96,0,0,0,392.059,153.6a9.007,9.007,0,0,1,4.173.08,7.419,7.419,0,0,1,3.157,3.106c3.4,5.076,6.985,10.352,12.339,13.292s13.018,2.651,16.6-2.3c1.741-2.407,2.254-5.465,2.657-8.408,1.357-9.894,1.913-20.514-2.8-29.318-3.5-6.541-9.657-11.4-16.464-14.354s-14.261-4.123-21.666-4.576c-4.3-.264-8.76-.269-12.751,1.362s-7.438,5.255-7.664,9.561" transform="translate(-368.961 -110.993)" fill="#263238"/></g><g transform="translate(46.665 4.534)"><path d="M430.476,162.571a4.8,4.8,0,0,1-.261-.726c-.145-.483-.391-1.185-.719-2.084a38.64,38.64,0,0,0-3.623-7.22,37.664,37.664,0,0,0-7.964-8.887,51.886,51.886,0,0,0-12.754-7.181c-4.818-2.018-9.529-3.682-13.65-5.611a47.711,47.711,0,0,1-10.293-6.286,26.915,26.915,0,0,1-5.459-6.021,18.789,18.789,0,0,1-1.093-1.926,4.984,4.984,0,0,1-.322-.7,4.924,4.924,0,0,1,.4.657c.235.446.631,1.075,1.16,1.871a28.033,28.033,0,0,0,5.515,5.87,48.7,48.7,0,0,0,10.265,6.154c4.106,1.9,8.814,3.548,13.65,5.572a51.429,51.429,0,0,1,12.841,7.275,37.268,37.268,0,0,1,7.972,9.04,36.264,36.264,0,0,1,3.517,7.333c.3.912.523,1.625.641,2.118A5,5,0,0,1,430.476,162.571Z" transform="translate(-374.337 -115.93)" fill="#455a64"/></g><g transform="translate(46.665 5.076)"><path d="M423.85,161.447a4.1,4.1,0,0,1-.362-.6,18.838,18.838,0,0,0-1.094-1.686,22.477,22.477,0,0,0-5.288-5.1,51.524,51.524,0,0,0-9.7-5.091c-1.9-.821-3.911-1.663-5.953-2.635s-4.117-2.062-6.175-3.3a54.113,54.113,0,0,1-10.7-8.248,41.245,41.245,0,0,1-6.679-8.777,34.03,34.03,0,0,1-2.939-6.832c-.24-.846-.416-1.5-.5-1.959a3.971,3.971,0,0,1-.125-.694,4.126,4.126,0,0,1,.214.672c.115.446.319,1.095.583,1.928a36.464,36.464,0,0,0,3.05,6.726,42.03,42.03,0,0,0,6.7,8.641,54.964,54.964,0,0,0,10.632,8.154c2.044,1.224,4.109,2.307,6.134,3.283s4.029,1.819,5.928,2.652a50.145,50.145,0,0,1,9.718,5.215,21.636,21.636,0,0,1,5.245,5.263,14.8,14.8,0,0,1,1.03,1.745A4.031,4.031,0,0,1,423.85,161.447Z" transform="translate(-374.337 -116.52)" fill="#455a64"/></g><g transform="translate(22.521 4.069)"><path d="M349.7,158.307a2.332,2.332,0,0,1-.207-.49c-.118-.328-.3-.811-.5-1.444a25.265,25.265,0,0,1-.92-5.545,26.6,26.6,0,0,1,5.5-17.4,24.394,24.394,0,0,1,3.693-3.813,47.209,47.209,0,0,1,4.008-2.87,42.2,42.2,0,0,0,6.631-4.93,14.762,14.762,0,0,0,3.247-4.469c.533-1.2.654-1.933.7-1.92a2.34,2.34,0,0,1-.081.528,9.731,9.731,0,0,1-.458,1.462,14.187,14.187,0,0,1-3.182,4.627,40.452,40.452,0,0,1-6.625,5.052,48.152,48.152,0,0,0-3.956,2.865,24.279,24.279,0,0,0-3.618,3.749,26.093,26.093,0,0,0-4.514,8.953,26.6,26.6,0,0,0-1.026,8.156,27.749,27.749,0,0,0,.771,5.511c.171.6.31,1.08.418,1.461A2.326,2.326,0,0,1,349.7,158.307Z" transform="translate(-348.048 -115.424)" fill="#455a64"/></g><g transform="translate(45.518 4.163)"><g transform="translate(15.729 57.85)"><g transform="translate(1.919)"><path d="M405.949,205.953a20.473,20.473,0,0,1-13.645-5l.584-.649a19.346,19.346,0,0,0,30.943-21.464l.813-.32a20.938,20.938,0,0,1-7.291,24.016A20.039,20.039,0,0,1,405.949,205.953Z" transform="translate(-392.304 -178.515)" fill="#e8505b"/></g><g transform="translate(0 19.468)"><path d="M398.677,203.944a4.232,4.232,0,1,1-4.231-4.231A4.232,4.232,0,0,1,398.677,203.944Z" transform="translate(-390.214 -199.713)" fill="#e8505b"/></g></g><g transform="translate(36.664 44.248)"><circle cx="14.172" cy="14.172" r="14.172" transform="translate(0 28.132) rotate(-83.008)" fill="#e8505b"/></g><path d="M423.249,173.594a18.171,18.171,0,0,1,.083-3.595c.046-1.165.1-2.571.164-4.2.017-1.637.07-3.5.006-5.553,0-1.029-.071-2.1-.132-3.221-.039-1.12-.169-2.278-.28-3.478-.091-1.2-.32-2.428-.478-3.7q-.176-.945-.357-1.915c-.112-.649-.25-1.3-.422-1.953a37.474,37.474,0,0,0-7.419-15.627,34.467,34.467,0,0,0-14.128-9.9,62.041,62.041,0,0,0-13.909-3.5c-4.07-.568-7.4-.739-9.7-.9a18.494,18.494,0,0,1-3.583-.294,17.8,17.8,0,0,1,3.595-.237,86.851,86.851,0,0,1,9.812.475,58.867,58.867,0,0,1,14.246,3.282,34.971,34.971,0,0,1,14.721,10.2,37.817,37.817,0,0,1,7.6,16.219c.168.671.3,1.341.4,2.006s.225,1.317.335,1.962c.141,1.3.351,2.552.419,3.776.088,1.221.193,2.4.2,3.535.035,1.135.075,2.223.045,3.262,0,2.078-.118,3.953-.208,5.6-.136,1.642-.266,3.054-.4,4.2A18.144,18.144,0,0,1,423.249,173.594Z" transform="translate(-373.088 -115.526)" fill="#e8505b"/><g transform="translate(43.088 50.285)" opacity="0.4"><path d="M439.513,180.032a9.754,9.754,0,1,1-9.754-9.754A9.755,9.755,0,0,1,439.513,180.032Z" transform="translate(-420.004 -170.278)"/></g><g transform="translate(45.578 50.202)"><path d="M426.771,170.927a1.937,1.937,0,0,1,.435-.227,6.556,6.556,0,0,1,1.353-.4,7.7,7.7,0,0,1,5.06.866,6.828,6.828,0,0,1,2.6,2.493,7.54,7.54,0,0,1,1.043,4,7.374,7.374,0,0,1-10.44,6.529,7.206,7.206,0,0,1-3.251-3.206,7.554,7.554,0,0,1-.832-4.052,7.663,7.663,0,0,1,1.2-3.4,7.09,7.09,0,0,1,4.04-3.146,4.562,4.562,0,0,1,1.4-.16,1.976,1.976,0,0,1,.488.07,6.947,6.947,0,0,0-1.842.26,7.066,7.066,0,0,0-3.815,3.146,7.4,7.4,0,0,0-1.1,3.256,7.216,7.216,0,0,0,.828,3.828,6.817,6.817,0,0,0,3.069,3,6.861,6.861,0,0,0,9.83-6.134,7.211,7.211,0,0,0-.949-3.8,6.56,6.56,0,0,0-2.433-2.405,7.711,7.711,0,0,0-4.873-.97A13.712,13.712,0,0,0,426.771,170.927Z" transform="translate(-422.715 -170.188)" fill="#263238"/></g><g transform="translate(52.302 65.016)"><path d="M430.492,190.949a7.841,7.841,0,0,1-.191-4.631,8.332,8.332,0,0,1,.2,2.311A8.238,8.238,0,0,1,430.492,190.949Z" transform="translate(-430.036 -186.318)" fill="#263238"/></g><g transform="translate(56.509 63.64)"><path d="M436.247,188.932a10.8,10.8,0,0,1-1.6-4.111,10.8,10.8,0,0,1,1.6,4.111Z" transform="translate(-434.618 -184.819)" fill="#263238"/></g><g transform="translate(59.076 61.063)"><path d="M440.1,184.462c-.084.093-.753-.377-1.492-1.05s-1.271-1.294-1.187-1.387.752.377,1.492,1.05S440.185,184.368,440.1,184.462Z" transform="translate(-437.412 -182.013)" fill="#263238"/></g><g transform="translate(60.008 56.803)"><path d="M440.441,178.161c-.043.118-.528.051-1.083-.15s-.972-.459-.929-.578.527-.051,1.083.15S440.483,178.043,440.441,178.161Z" transform="translate(-438.427 -177.376)" fill="#263238"/></g><g transform="translate(46.36 63.313)"><path d="M423.594,188.61a7.558,7.558,0,0,1,2.123-4.142,30.851,30.851,0,0,1-2.123,4.142Z" transform="translate(-423.566 -184.463)" fill="#263238"/></g><g transform="translate(43.469 59.737)"><path d="M420.428,183.322c-.087-.089.467-.776,1.24-1.534s1.47-1.3,1.559-1.21-.467.776-1.24,1.535S420.516,183.412,420.428,183.322Z" transform="translate(-420.419 -180.569)" fill="#263238"/></g><g transform="translate(43.868 55.651)"><path d="M422.739,176.2c.033.121-.363.332-.884.47s-.968.152-1,.03.364-.332.884-.47S422.707,176.082,422.739,176.2Z" transform="translate(-420.853 -176.121)" fill="#263238"/></g></g></g><g transform="translate(186.196 85.695)"><g transform="translate(25.312)"><path d="M502.05,256.031c-.916-5.19-2.944-8.009-4.459-9.485a26.149,26.149,0,0,0-4.488-3.86,27.325,27.325,0,0,0-6.654-3.2c-2.216-.479-2.755-3.36-.9-4.181s7.991.353,13.892,4.692,2.917-6.654,1.9-10.677-3.571-16.6-2.575-17.865c1.461-1.846,3.767-.591,4.688,3.448.932,4.089,4.539,15.981,6.648,15.4,2.078-.574-3.372-20.995-3.372-20.995s-1.875-4.194.539-4.948c4.353-1.361,8.541,20.73,8.887,22.841.24,1.469,2.558.917,2.214-.647-.353-1.61-5.913-20.256-1.5-21.683,3.391-1.1,3.616,18.144,6.926,21.429s-1.67-14.609,1.616-15.524c1.221-.34,2.187-.424,3.557,10.224.736,5.723.258,13.613,2.491,24.534" transform="translate(-484.425 -204.3)" fill="#b78876"/></g><g transform="translate(0 35.443)"><g transform="translate(0 0.552)"><path d="M488.794,300.3l20.076,28.811-9.641-74.3,28.7-11.318S564.151,382.351,515.571,384.3c0,0-33.615-.921-58.706-59.117Z" transform="translate(-456.865 -243.493)" fill="#b78876"/></g><g transform="translate(49.386)"><path d="M525.38,242.9c.051.074-.629.525-1.511,1.514a10.14,10.14,0,0,0-2.353,4.63l-.113.543-.4-.4a12.287,12.287,0,0,0-1.483-1.3,12.684,12.684,0,0,0-6.1-2.367c-1.7-.183-2.766,0-2.781-.1a6.2,6.2,0,0,1,2.815-.332,11.8,11.8,0,0,1,7.988,3.688l-.512.143a9.564,9.564,0,0,1,2.66-4.773A4.656,4.656,0,0,1,525.38,242.9Z" transform="translate(-510.638 -242.892)" fill="#aa6550"/></g></g></g><g transform="translate(0 121.138)"><g transform="translate(0 4.371)"><path d="M457.832,360.711l-24.295-30.817-6.313,31.519a65.292,65.292,0,0,0,3.784,38.019l3.135,7.5H321.653l2.812-10.014c1.587-12.27-.537-25.081-.167-42.654l-3.126-19.811-17.016,72.479H254.128s27.461-112.5,44.662-134.754c21.687-28.064,59.576-24.362,59.576-24.362L381.582,284.2l22.67-32.808s38.96-8.281,69.374,44.087l16.275,27.9h0l-7.557-57.426,35.222-8.132s12.721,56.422,11.884,86.632c-.747,26.984-12.23,41.141-28.147,42.533C476.284,389.171,457.832,360.711,457.832,360.711Z" transform="translate(-254.128 -247.651)" fill="#ffa648"/></g><g transform="translate(95.416)"><path d="M366.843,247.424l.4-4.532s17.2,3.822,22.96,33.844c0,0,5.785-27.708,24.3-30.5l3.124,7.982-11.372,29.605-19.972,5.838-19.429-5.838-8.836-17.547Z" transform="translate(-358.02 -242.892)" fill="#ffa648"/></g><g transform="translate(56.31 16.472)"><path d="M315.453,260.827a5.092,5.092,0,0,1,.087.778q.059.825.162,2.234c.125,1.941.327,4.746.606,8.212.554,6.929,1.505,16.489,3,26.989s3.272,19.946,4.683,26.753c.7,3.4,1.3,6.154,1.72,8.052l.47,2.189a4.95,4.95,0,0,1,.134.771,5.075,5.075,0,0,1-.223-.749q-.2-.8-.554-2.17c-.478-1.886-1.118-4.628-1.863-8.026-1.492-6.794-3.311-16.241-4.819-26.755s-2.4-20.088-2.873-27.03c-.238-3.471-.391-6.282-.462-8.225q-.048-1.412-.076-2.239A5.085,5.085,0,0,1,315.453,260.827Z" transform="translate(-315.44 -260.827)" fill="#263238"/></g><g transform="translate(127.476 7.04)"><path d="M420.051,250.558a2.032,2.032,0,0,1-.245.434l-.773,1.194-2.865,4.373c-2.4,3.7-5.655,8.862-9.029,14.688-.134.23-.266.459-.389.671l-.219.377-.185-.393a13.435,13.435,0,0,0-2.471-3.974,4.479,4.479,0,0,0-3.828-1.432,5.236,5.236,0,0,0-3.158,2.071,9.641,9.641,0,0,0-1.576,3.028c-.649,2.014-1.028,3.715-1.507,4.815a10.1,10.1,0,0,1-.6,1.239,1.993,1.993,0,0,1-.274.394c-.036-.02.315-.579.713-1.694.424-1.108.749-2.794,1.368-4.853a9.822,9.822,0,0,1,1.583-3.158,5.587,5.587,0,0,1,3.384-2.253,4.892,4.892,0,0,1,4.2,1.525,13.7,13.7,0,0,1,2.573,4.1l-.4-.017c.124-.212.256-.442.39-.672,3.38-5.836,6.679-10.978,9.155-14.637,1.237-1.83,2.264-3.3,2.988-4.3l.844-1.145A2.023,2.023,0,0,1,420.051,250.558Z" transform="translate(-392.928 -250.558)" fill="#263238"/></g><g transform="translate(115.915 21.727)"><path d="M402.651,268.864a1.571,1.571,0,0,1-.186.388c-.164.289-.366.64-.607,1.064l-2.308,3.871-3.472,5.71-2.064,3.364-1.108,1.785a1.591,1.591,0,0,1-.435.439.84.84,0,0,1-.7.1,1.769,1.769,0,0,1-.874-.835c-3.231-4.854-5.634-9.541-7.518-12.841-.929-1.659-1.694-2.994-2.233-3.911a12.507,12.507,0,0,1-.8-1.445,1.529,1.529,0,0,1,.267.336c.161.23.4.568.688,1.016.585.89,1.393,2.2,2.36,3.843,1.958,3.263,4.407,7.928,7.615,12.747.2.315.384.581.631.656.222.081.442-.089.632-.362l1.1-1.758,2.086-3.35,3.555-5.659,2.43-3.795c.272-.406.5-.742.681-1.019A1.524,1.524,0,0,1,402.651,268.864Z" transform="translate(-380.341 -266.549)" fill="#263238"/></g><g transform="translate(179.693 26.704)"><path d="M470.6,271.969a3.51,3.51,0,0,1-.261.6c-.208.424-.484.982-.827,1.68-.735,1.449-1.763,3.563-2.995,6.194s-2.632,5.792-4.1,9.337c-1.45,3.554-2.963,7.5-4.411,11.681s-2.666,8.231-3.71,11.926c-1.022,3.7-1.869,7.054-2.51,9.887s-1.137,5.13-1.45,6.725q-.237,1.141-.38,1.832a3.7,3.7,0,0,1-.163.634,3.512,3.512,0,0,1,.073-.65q.113-.7.3-1.849c.259-1.605.7-3.917,1.31-6.761s1.418-6.214,2.42-9.929c1.024-3.708,2.246-7.76,3.684-11.961s2.98-8.142,4.454-11.694c1.494-3.544,2.923-6.7,4.2-9.315s2.344-4.711,3.127-6.137l.9-1.64A3.5,3.5,0,0,1,470.6,271.969Z" transform="translate(-449.784 -271.969)" fill="#263238"/></g><g transform="translate(83.263 121.268)"><path d="M410.577,394.5a4.1,4.1,0,0,1-.7-.025l-2.009-.158c-.872-.069-1.938-.166-3.171-.32s-2.642-.291-4.189-.533c-3.1-.422-6.773-1.061-10.825-1.9-4.046-.869-8.467-1.956-13.049-3.307-4.576-1.372-8.875-2.877-12.738-4.361-3.853-1.511-7.278-2.983-10.106-4.323-1.426-.643-2.685-1.293-3.8-1.843s-2.063-1.046-2.831-1.465l-1.768-.964a4.075,4.075,0,0,1-.6-.364,3.987,3.987,0,0,1,.645.283l1.807.888c.78.394,1.736.871,2.862,1.393s2.389,1.156,3.822,1.78c2.84,1.3,6.27,2.738,10.122,4.224,3.863,1.458,8.154,2.946,12.718,4.316,4.569,1.347,8.975,2.444,13.006,3.334,4.037.86,7.7,1.53,10.785,1.992,1.54.262,2.944.426,4.173.6s2.29.3,3.158.4l2,.243A4.089,4.089,0,0,1,410.577,394.5Z" transform="translate(-344.788 -374.934)" fill="#263238"/></g><g transform="translate(97.38 142.794)"><path d="M406.857,398.378a1.879,1.879,0,0,1-.463.119l-1.342.254c-1.167.216-2.864.483-4.965.772-4.2.582-10.044,1.175-16.518,1.4s-12.344.036-16.578-.253c-2.117-.142-3.827-.291-5.006-.426l-1.357-.161a.24.24,0,1,1,.009-.091l1.363.075c1.182.08,2.894.18,5.009.281,4.231.206,10.084.34,16.544.119s12.287-.768,16.493-1.267c2.1-.248,3.8-.466,4.978-.628l1.355-.17A1.876,1.876,0,0,1,406.857,398.378Z" transform="translate(-360.159 -398.371)" fill="#263238"/></g><g transform="translate(183.883 29.013)"><path d="M454.35,337.761a3.629,3.629,0,0,1,.132-.66q.175-.705.466-1.872c.424-1.67,1.018-4.006,1.747-6.872,1.475-5.8,3.435-13.84,5.843-22.658,1.215-4.407,2.457-8.584,3.661-12.359,1.224-3.769,2.4-7.141,3.479-9.935.516-1.407,1.045-2.655,1.492-3.758s.852-2.044,1.2-2.807q.5-1.1.8-1.756a3.8,3.8,0,0,1,.307-.6,3.7,3.7,0,0,1-.222.636l-.72,1.788c-.322.772-.709,1.72-1.127,2.832s-.931,2.365-1.428,3.777c-1.042,2.8-2.18,6.18-3.381,9.949-1.18,3.776-2.407,7.95-3.621,12.354-2.406,8.809-4.415,16.835-5.971,22.618-.775,2.893-1.416,5.23-1.887,6.838q-.342,1.154-.548,1.849A3.826,3.826,0,0,1,454.35,337.761Z" transform="translate(-454.347 -274.483)" fill="#263238"/></g><g transform="translate(50.913 21.728)"><path d="M325.111,335.606a4.405,4.405,0,0,1-.478-.554c-.292-.38-.764-.912-1.282-1.662a48.408,48.408,0,0,1-4.012-6.6,63.341,63.341,0,0,1-4.21-10.649,93.485,93.485,0,0,1-2.927-13.711c-1.34-9.87-1.559-18.882-1.964-25.372-.182-3.249-.353-5.876-.49-7.691q-.1-1.311-.152-2.09a4.431,4.431,0,0,1-.025-.731,4.383,4.383,0,0,1,.116.723c.058.476.15,1.177.238,2.083.191,1.811.411,4.438.635,7.686.487,6.49.758,15.5,2.093,25.329a96.379,96.379,0,0,0,2.878,13.655,65.571,65.571,0,0,0,4.1,10.624,53.328,53.328,0,0,0,3.868,6.638c.494.763.941,1.311,1.21,1.708A4.306,4.306,0,0,1,325.111,335.606Z" transform="translate(-309.564 -266.55)" fill="#263238"/></g><g transform="translate(57.035 70.523)"><path d="M321.381,319.719c.027.134-1.3.423-2.715,1.261-1.423.822-2.324,1.841-2.428,1.752a6.377,6.377,0,0,1,5.143-3.013Z" transform="translate(-316.23 -319.68)" fill="#263238"/></g><g transform="translate(54.935 58.707)"><path d="M320.34,306.874a23.743,23.743,0,0,0-3.428,1.234,24.009,24.009,0,0,0-2.961,2.126,7.272,7.272,0,0,1,6.389-3.36Z" transform="translate(-313.943 -306.814)" fill="#263238"/></g><g transform="translate(53.643 47.893)"><path d="M317.645,295.13a24.929,24.929,0,0,0-2.722.918,24.706,24.706,0,0,0-2.377,1.613,5.228,5.228,0,0,1,5.1-2.531Z" transform="translate(-312.536 -295.04)" fill="#263238"/></g><g transform="translate(52.636 36.798)"><path d="M316.3,283.015c.017.133-1.149.355-2.473.928s-2.3,1.248-2.381,1.143a6.37,6.37,0,0,1,4.855-2.071Z" transform="translate(-311.44 -282.959)" fill="#263238"/></g><g transform="translate(51.955 27.797)"><path d="M315.517,273.215c.017.133-1.165.346-2.48.972s-2.241,1.385-2.333,1.286a5.93,5.93,0,0,1,4.813-2.257Z" transform="translate(-310.698 -273.159)" fill="#263238"/></g><g transform="translate(182.342 76.697)"><path d="M456.574,328.24c-.109.077-.707-.728-1.8-1.159a12.3,12.3,0,0,0-2.1-.429,2.436,2.436,0,0,1,2.271.007C456.189,327.158,456.691,328.2,456.574,328.24Z" transform="translate(-452.669 -326.403)" fill="#263238"/></g><g transform="translate(184.792 66.033)"><path d="M460.209,318.095a5.91,5.91,0,0,0-4.872-3.147c-.008-.053.341-.174.93-.154a4.464,4.464,0,0,1,3.7,2.391C460.227,317.712,460.261,318.08,460.209,318.095Z" transform="translate(-455.337 -314.791)" fill="#263238"/></g><g transform="translate(187.104 56.875)"><path d="M462.975,307.176a6.174,6.174,0,0,0-5.121-2.031c-.016-.051.29-.215.839-.292a4.41,4.41,0,0,1,3.87,1.535C462.911,306.82,463.023,307.148,462.975,307.176Z" transform="translate(-457.853 -304.819)" fill="#263238"/></g><g transform="translate(191.512 47.35)"><path d="M466.384,296.616c-.118.061-.6-.839-1.656-1.382a9.4,9.4,0,0,0-2.074-.588c-.011-.056.234-.17.665-.194a3.284,3.284,0,0,1,2.849,1.505C466.391,296.327,466.435,296.593,466.384,296.616Z" transform="translate(-462.654 -294.449)" fill="#263238"/></g><g transform="translate(194.489 38.283)"><path d="M470.178,286.894a4.583,4.583,0,0,0-4.283-1.982c-.018-.051.242-.219.728-.3a3.4,3.4,0,0,1,3.313,1.533C470.19,286.568,470.23,286.876,470.178,286.894Z" transform="translate(-465.895 -284.576)" fill="#263238"/></g><g transform="translate(114.863 27.853)"><path d="M405.371,273.22a1.789,1.789,0,0,1-.2.425l-.646,1.174c-.571,1.014-1.413,2.471-2.478,4.258s-2.35,3.9-3.823,6.227c-.738,1.161-1.524,2.373-2.365,3.614a40.71,40.71,0,0,1-2.779,3.737,3.913,3.913,0,0,1-.942.843.624.624,0,0,1-.4.08,1.248,1.248,0,0,1-.351-.111,3.074,3.074,0,0,1-.522-.354,13.1,13.1,0,0,1-1.607-1.676c-.962-1.161-1.811-2.333-2.6-3.46-1.581-2.257-2.921-4.341-4.03-6.1s-1.974-3.2-2.561-4.208c-.266-.469-.486-.853-.663-1.165a.236.236,0,1,1,.079-.048l.735,1.119L382.9,281.7c1.142,1.736,2.508,3.8,4.1,6.033.8,1.115,1.651,2.277,2.6,3.416a12.961,12.961,0,0,0,1.549,1.609c.276.221.625.467.794.329a3.767,3.767,0,0,0,.8-.737,42.138,42.138,0,0,0,2.75-3.686c.843-1.231,1.634-2.436,2.38-3.588,1.491-2.307,2.8-4.4,3.9-6.168,1.071-1.723,1.951-3.137,2.6-4.181l.719-1.131A1.783,1.783,0,0,1,405.371,273.22Z" transform="translate(-379.195 -273.22)" fill="#263238"/></g><g transform="translate(121.341 36.876)"><path d="M386.379,287.088c-.053.007-.162-.309-.122-.839a3.686,3.686,0,0,1,2.437-3.086c.506-.162.839-.129.843-.076a4.824,4.824,0,0,0-3.158,4Z" transform="translate(-386.249 -283.044)" fill="#263238"/></g><g transform="translate(127.061 40.919)"><path d="M392.921,294.689a15.918,15.918,0,0,1-.051-7.243,24.807,24.807,0,0,1,.062,3.621A24.8,24.8,0,0,1,392.921,294.689Z" transform="translate(-392.477 -287.446)" fill="#263238"/></g><g transform="translate(131.016 36.066)"><path d="M400.122,285.031c-.128.036-.413-.979-1.368-1.757a9.233,9.233,0,0,0-1.972-1.034c0-.056.273-.116.712-.047a3.394,3.394,0,0,1,2.548,2.13C400.188,284.742,400.177,285.02,400.122,285.031Z" transform="translate(-396.783 -282.162)" fill="#263238"/></g><g transform="translate(135.883 28.25)"><path d="M405.03,276.852a9.2,9.2,0,0,0-1.133-1.895c-.821-.9-1.842-1.129-1.814-1.258.008-.055.283-.083.706.039a3.356,3.356,0,0,1,2.25,2.406C405.131,276.574,405.086,276.847,405.03,276.852Z" transform="translate(-402.082 -273.652)" fill="#263238"/></g><g transform="translate(116.683 28.666)"><path d="M381.4,279.505c-.051.011-.2-.345-.22-.961a4.8,4.8,0,0,1,2.171-4.073c.524-.325.9-.4.921-.353a6.338,6.338,0,0,0-2.872,5.386Z" transform="translate(-381.177 -274.105)" fill="#263238"/></g><g transform="translate(104.003 4.462)" opacity="0.4"><path d="M367.371,247.753c1.968,7.547,5.252,19.84,8.809,29.46a3.115,3.115,0,0,0,.678,1.221c.9.859,2.455.332,3.306-.579a22.217,22.217,0,0,0,1.938-2.96,3.823,3.823,0,0,1,2.816-1.927,3.319,3.319,0,0,1,2.5,1.255,13.832,13.832,0,0,1,1.531,2.446c.253.452.579.938,1.086,1.042a.655.655,0,0,0,.776-.912l-3.146-8.154s-1.442-5.983-6.443-5.052c-5.59,1.041-3.056,10.22-3.056,10.22S367.287,247.433,367.371,247.753Z" transform="translate(-367.37 -247.75)"/></g><g transform="translate(104.236 4.532)"><path d="M390.984,277.139a2.94,2.94,0,0,1-.269-.534c-.162-.357-.389-.887-.673-1.574l-2.318-5.848c-.249-.614-.51-1.258-.8-1.917a5.937,5.937,0,0,0-1.144-1.858,5.469,5.469,0,0,0-4.354-1.623,4.211,4.211,0,0,0-2.294,1.029,5.756,5.756,0,0,0-1.241,2.376,6.749,6.749,0,0,0-.19,2.792,22.677,22.677,0,0,0,.518,2.922l.258,1.047-.435.13c-1.289-3.7-2.769-7.128-4.121-10.231s-2.6-5.883-3.569-8.244-1.689-4.3-2.122-5.655c-.229-.674-.37-1.21-.471-1.57a2.7,2.7,0,0,1-.129-.557,2.742,2.742,0,0,1,.214.53c.129.352.3.876.55,1.539.481,1.335,1.236,3.249,2.248,5.589s2.274,5.105,3.657,8.2,2.872,6.525,4.172,10.25l-.436.13c-.082-.334-.171-.694-.261-1.056a22.829,22.829,0,0,1-.524-2.983,7.148,7.148,0,0,1,.217-2.977,6.137,6.137,0,0,1,1.362-2.548,4.606,4.606,0,0,1,2.55-1.132,5.837,5.837,0,0,1,4.673,1.779,6.277,6.277,0,0,1,1.193,1.977c.288.67.541,1.32.781,1.941l2.184,5.9.592,1.6A2.917,2.917,0,0,1,390.984,277.139Z" transform="translate(-367.624 -247.827)" fill="#263238"/></g><g transform="translate(127.953 7.945)" opacity="0.4"><path d="M393.537,277.217c-.19.13-.051.467.174.517a.8.8,0,0,0,.63-.225,13.888,13.888,0,0,0,2.647-3.53c.824-1.229,2.031-2.405,3.509-2.412,1.571-.007,2.831,1.31,3.607,2.676s1.306,2.914,2.425,4.018a110.338,110.338,0,0,0,13.324-26.718,15.933,15.933,0,0,0-4.207,5.187L406.7,271.651a11.615,11.615,0,0,0-2.521-3.978,4.913,4.913,0,0,0-4.337-1.389c-1.741.409-2.947,1.983-3.8,3.556a21.3,21.3,0,0,0-2.39,7.433" transform="translate(-393.448 -251.543)"/></g><g transform="translate(235.356 79.373)"><path d="M520.364,357.138a5.811,5.811,0,0,1-.6-1c-.36-.658-.851-1.627-1.433-2.837a104.187,104.187,0,0,1-7.064-19.725c-.319-1.3-.555-2.364-.694-3.1a5.634,5.634,0,0,1-.176-1.154,5.775,5.775,0,0,1,.349,1.113l.833,3.061c.715,2.58,1.778,6.123,3.153,9.969s2.807,7.255,3.893,9.7l1.3,2.894A5.718,5.718,0,0,1,520.364,357.138Z" transform="translate(-510.393 -329.316)" fill="#263238"/></g><g transform="translate(233.762 78.61)"><path d="M511.491,355.344a4.815,4.815,0,0,1-.368-1c-.213-.654-.479-1.614-.771-2.808a61.15,61.15,0,0,1-1.507-19.1c.1-1.226.214-2.215.321-2.895a4.833,4.833,0,0,1,.207-1.05,4.872,4.872,0,0,1-.03,1.069c-.053.683-.117,1.673-.176,2.9a73.77,73.77,0,0,0,1.5,19.009c.25,1.2.468,2.166.628,2.832A4.873,4.873,0,0,1,511.491,355.344Z" transform="translate(-508.657 -328.486)" fill="#263238"/></g><g transform="translate(229.093 25.068)"><path d="M539.139,270.19a3.3,3.3,0,0,1,.7.269l.138.06-.146.052a123.735,123.735,0,0,1-17.53,4.485c-5.126.944-9.815,1.491-13.217,1.764-1.7.139-3.078.222-4.033.253a9.05,9.05,0,0,1-1.482.007,9.238,9.238,0,0,1,1.47-.185l4.014-.4c3.387-.354,8.055-.951,13.165-1.892,8.519-1.548,15.527-3.616,17.576-4.152l-.008.113A3.232,3.232,0,0,1,539.139,270.19Z" transform="translate(-503.573 -270.187)" fill="#263238"/></g><g transform="translate(255.696 20.597)"><path d="M533.592,265.81c-.012-.014.091-.151.375-.231a1.455,1.455,0,0,1,1.177.261,1.685,1.685,0,0,1,.759,1.635,1.356,1.356,0,0,1-.673.923,1.876,1.876,0,0,1-1.175.216,1.938,1.938,0,0,1-1.084-.5,1.451,1.451,0,0,1-.431-1.053,1.835,1.835,0,0,1,.981-1.509,1.661,1.661,0,0,1,1.187-.189c.281.073.393.2.383.213a1.954,1.954,0,0,0-1.4.252,1.545,1.545,0,0,0-.727,1.233,1.2,1.2,0,0,0,1.153,1.1,1.176,1.176,0,0,0,1.379-.775,1.5,1.5,0,0,0-1.5-1.634C533.748,265.771,533.614,265.849,533.592,265.81Z" transform="translate(-532.54 -265.318)" fill="#263238"/></g><g transform="translate(58.46 40.47)"><path d="M379.6,286.958a3.613,3.613,0,0,1-.5.438c-.347.264-.826.7-1.516,1.164a34.129,34.129,0,0,1-6.109,3.475,37.188,37.188,0,0,1-10.025,2.852,38.386,38.386,0,0,1-6.164.332,37.889,37.889,0,0,1-6.579-.815c-4.442-1-8.449-2.641-12.218-3.652a33.053,33.053,0,0,0-5.417-1.068,22.3,22.3,0,0,0-4.8.048,14.689,14.689,0,0,0-6.5,2.289,23.573,23.573,0,0,0-1.989,1.609,8.823,8.823,0,0,1,1.888-1.754,14.427,14.427,0,0,1,6.557-2.463,22.184,22.184,0,0,1,4.873-.1,32.662,32.662,0,0,1,5.491,1.039c3.8,1,7.818,2.623,12.207,3.612a38.1,38.1,0,0,0,6.495.814,38.814,38.814,0,0,0,6.095-.3,37.9,37.9,0,0,0,9.953-2.731,37.128,37.128,0,0,0,6.137-3.326c.7-.437,1.2-.85,1.56-1.091A3.581,3.581,0,0,1,379.6,286.958Z" transform="translate(-317.781 -286.957)" fill="#fafafa"/></g><g transform="translate(64.561 70.992)"><path d="M438.5,327.492a1.584,1.584,0,0,1-.278-.128l-.794-.413c-.35-.177-.8-.358-1.324-.594-.543-.187-1.153-.451-1.875-.636a28.937,28.937,0,0,0-12.511-.455,72.555,72.555,0,0,0-8.509,1.932c-3.032.827-6.262,1.787-9.742,2.5a35.7,35.7,0,0,1-11.1.678,53.119,53.119,0,0,1-11.622-2.735c-3.878-1.305-7.59-2.764-11.235-3.979a56.915,56.915,0,0,0-10.725-2.631A50.216,50.216,0,0,0,340.2,322.04a54.783,54.783,0,0,0-6.847,2.21c-.971.424-1.885.8-2.7,1.193-.81.411-1.566.757-2.218,1.12l-1.733.969-1.238.764c-.32.2-.572.35-.765.467a1.509,1.509,0,0,1-.269.147,1.547,1.547,0,0,1,.243-.185l.741-.505c.329-.217.728-.5,1.218-.8l1.717-1.008c.647-.377,1.4-.736,2.209-1.161.816-.409,1.728-.8,2.7-1.233a53.66,53.66,0,0,1,6.865-2.287,50.021,50.021,0,0,1,18.721-1.115,56.919,56.919,0,0,1,10.81,2.624c3.663,1.215,7.377,2.67,11.24,3.97a53.01,53.01,0,0,0,11.523,2.723,35.487,35.487,0,0,0,10.969-.645c3.458-.692,6.685-1.637,9.725-2.45a71.6,71.6,0,0,1,8.561-1.886,28.561,28.561,0,0,1,12.609.6c.725.2,1.335.478,1.875.681.521.252.97.446,1.315.638l.775.454A1.479,1.479,0,0,1,438.5,327.492Z" transform="translate(-324.425 -320.19)" fill="#fafafa"/></g><g transform="translate(132.356 34.339)"><path d="M398.242,285.763a20.615,20.615,0,0,0,2.347.514,16.912,16.912,0,0,0,6.478-.518,78.208,78.208,0,0,0,9.124-3.412,30.262,30.262,0,0,1,5.559-1.658,26.426,26.426,0,0,1,6.222-.358,36.215,36.215,0,0,1,11.653,2.8,62.947,62.947,0,0,1,8.691,4.507c2.377,1.453,4.241,2.718,5.528,3.593l1.469,1.024a3.173,3.173,0,0,1,.5.384,3.246,3.246,0,0,1-.546-.307l-1.517-.953c-1.315-.828-3.2-2.052-5.595-3.465a66.111,66.111,0,0,0-8.685-4.394,36.415,36.415,0,0,0-11.52-2.731,26.317,26.317,0,0,0-6.117.343,30.372,30.372,0,0,0-5.488,1.61,73.378,73.378,0,0,1-9.2,3.333,16.382,16.382,0,0,1-6.581.381A7.992,7.992,0,0,1,398.242,285.763Z" transform="translate(-398.242 -280.282)" fill="#fafafa"/></g><g transform="translate(152.166 13.901)"><path d="M453.678,260.91a7.764,7.764,0,0,1-1.305.4c-.423.118-.944.25-1.557.369s-1.3.287-2.083.4a48.594,48.594,0,0,1-5.488.591,49.979,49.979,0,0,1-13.446-1.143,48.556,48.556,0,0,1-5.31-1.51c-.749-.24-1.4-.517-1.986-.742s-1.075-.44-1.471-.627a7.775,7.775,0,0,1-1.22-.612,7.936,7.936,0,0,1,1.288.448c.406.162.9.355,1.493.553s1.247.456,2,.674c1.484.485,3.281.966,5.3,1.406a53.807,53.807,0,0,0,13.339,1.134c2.061-.093,3.913-.265,5.459-.491.776-.088,1.469-.229,2.082-.328s1.138-.2,1.566-.293A7.9,7.9,0,0,1,453.678,260.91Z" transform="translate(-419.812 -258.028)" fill="#fafafa"/></g><g transform="translate(56.693 8.051)"><path d="M315.858,266.293a2.364,2.364,0,0,1,.4-.354c.273-.22.674-.544,1.2-.943,1.055-.807,2.606-1.945,4.581-3.271a64.17,64.17,0,0,1,16.626-8.209,39.149,39.149,0,0,1,18.428-1.286,28.634,28.634,0,0,1,5.42,1.55c.625.229,1.083.476,1.4.616a2.459,2.459,0,0,1,.472.251c-.017.039-.693-.253-1.937-.7a31.967,31.967,0,0,0-5.413-1.4,40.11,40.11,0,0,0-18.239,1.4,67.6,67.6,0,0,0-16.583,8.043c-1.99,1.288-3.567,2.383-4.653,3.146l-1.255.873A2.4,2.4,0,0,1,315.858,266.293Z" transform="translate(-315.858 -251.658)" fill="#fafafa"/></g><g transform="translate(71.012 112.893)"><path d="M432.724,371.921a1.225,1.225,0,0,1-.258.072l-.77.166a8.334,8.334,0,0,1-1.266.191l-.814.087-.931.025a33.925,33.925,0,0,1-10.909-2.008c-2.242-.7-4.665-1.554-7.3-2.336a44.359,44.359,0,0,0-8.587-1.666c-6.157-.589-12.975.152-19.994,1.434-7.032,1.266-13.679,2.863-19.857,3.6a62.056,62.056,0,0,1-16.471.107,34.287,34.287,0,0,1-10.62-3.208c-.582-.306-1.1-.568-1.546-.814l-1.08-.687-.658-.43a1.152,1.152,0,0,1-.215-.159,1.175,1.175,0,0,1,.241.12l.681.39,1.1.647,1.557.771a35.23,35.23,0,0,0,10.587,3.049,62.856,62.856,0,0,0,16.373-.2c6.145-.754,12.778-2.359,19.828-3.63,7.035-1.284,13.9-2.021,20.114-1.4a44.3,44.3,0,0,1,8.655,1.722c2.645.8,5.061,1.674,7.29,2.391a34.9,34.9,0,0,0,10.811,2.138l.924,0,.809-.066a8.9,8.9,0,0,0,1.263-.147l.775-.121A1.132,1.132,0,0,1,432.724,371.921Z" transform="translate(-331.449 -365.814)" fill="#fafafa"/></g><g transform="translate(91.371 125.327)" opacity="0.3"><path d="M353.616,379.353c4.163,10.384,12.219,17.762,23.3,19.288s22.3-1.013,33.093-3.95c-19.629-2.745-36.99-5.465-56.394-15.337" transform="translate(-353.616 -379.353)"/></g><g transform="translate(70.987 143.532)"><path d="M435.533,409.529a1.29,1.29,0,0,1-.272-.1l-.777-.332-2.971-1.318c-2.582-1.135-6.282-2.878-10.905-4.881a47.76,47.76,0,0,0-7.778-2.632,24.942,24.942,0,0,0-9.333-.434,33.668,33.668,0,0,0-4.958,1.126,50.274,50.274,0,0,0-4.972,1.881c-3.317,1.446-6.614,3.247-10.007,5.066a79.66,79.66,0,0,1-10.212,4.753,31.693,31.693,0,0,1-10.28,2.093,23.111,23.111,0,0,1-9.306-1.825,61.313,61.313,0,0,1-7.371-3.75c-2.192-1.249-4.167-2.391-5.966-3.263a31.843,31.843,0,0,0-4.74-1.931,17.268,17.268,0,0,0-1.8-.485,10.086,10.086,0,0,0-1.344-.26l-.834-.132a1.483,1.483,0,0,1-.283-.061,1.331,1.331,0,0,1,.287.014l.842.088a9.2,9.2,0,0,1,1.359.219,16.367,16.367,0,0,1,1.826.448,30.688,30.688,0,0,1,4.8,1.871c1.82.856,3.811,1.982,6.013,3.213a62.394,62.394,0,0,0,7.355,3.679,22.8,22.8,0,0,0,9.158,1.756,31.39,31.39,0,0,0,10.135-2.093,80.219,80.219,0,0,0,10.149-4.733c3.391-1.818,6.7-3.624,10.044-5.074a50.709,50.709,0,0,1,5.023-1.888,33.874,33.874,0,0,1,5.027-1.125,25.214,25.214,0,0,1,9.476.482,47.326,47.326,0,0,1,7.819,2.7c4.621,2.047,8.291,3.83,10.853,5.015l2.935,1.4.758.373A1.533,1.533,0,0,1,435.533,409.529Z" transform="translate(-331.421 -399.175)" fill="#fafafa"/></g></g></g></g><path d="M76.294,17.221a1.408,1.408,0,0,0-.532-1.172,6.615,6.615,0,0,0-1.87-.869,17.941,17.941,0,0,1-2.187-.869q-2.764-1.357-2.764-3.73A3.345,3.345,0,0,1,69.629,8.5a4.453,4.453,0,0,1,1.948-1.406,7.582,7.582,0,0,1,2.832-.5,6.632,6.632,0,0,1,2.749.547,4.352,4.352,0,0,1,1.89,1.558A4.068,4.068,0,0,1,79.722,11H76.3a1.719,1.719,0,0,0-.532-1.348,2.075,2.075,0,0,0-1.44-.479,2.339,2.339,0,0,0-1.45.405,1.193,1.193,0,0,0,.054,2.021A7.389,7.389,0,0,0,75,12.519a12.623,12.623,0,0,1,2.422,1.021,4.07,4.07,0,0,1,2.3,3.662,3.472,3.472,0,0,1-1.406,2.93A6.255,6.255,0,0,1,74.458,21.2a7.653,7.653,0,0,1-3.13-.62,4.719,4.719,0,0,1-2.109-1.7,4.427,4.427,0,0,1-.708-2.485h3.438a2.181,2.181,0,0,0,.591,1.685,2.793,2.793,0,0,0,1.919.542,2.206,2.206,0,0,0,1.343-.366A1.209,1.209,0,0,0,76.294,17.221ZM86.44,21.2a5.432,5.432,0,0,1-3.936-1.45A5.008,5.008,0,0,1,81,15.971V15.7a6.489,6.489,0,0,1,.6-2.861,4.395,4.395,0,0,1,1.753-1.919,5.292,5.292,0,0,1,2.734-.679A4.574,4.574,0,0,1,89.6,11.62a5.43,5.43,0,0,1,1.289,3.853v1.279H84.351a2.372,2.372,0,0,0,.771,1.4,2.3,2.3,0,0,0,1.543.508,2.958,2.958,0,0,0,2.441-1.094l1.5,1.777a4.2,4.2,0,0,1-1.743,1.353A5.891,5.891,0,0,1,86.44,21.2Zm-.371-8.418q-1.445,0-1.719,1.914h3.32v-.254a1.63,1.63,0,0,0-.4-1.226A1.593,1.593,0,0,0,86.069,12.777Zm12.539.635-1.084-.078a1.947,1.947,0,0,0-1.992.977V21H92.241V10.434h3.086l.107,1.357a2.548,2.548,0,0,1,2.314-1.553,3.209,3.209,0,0,1,.918.117Zm5.576,3.672,1.67-6.65h3.467L105.874,21h-3.359L99.067,10.434h3.477ZM113.774,21h-3.3V10.434h3.3Zm-3.5-13.291a1.469,1.469,0,0,1,.508-1.152,2.159,2.159,0,0,1,2.637,0,1.469,1.469,0,0,1,.508,1.152,1.469,1.469,0,0,1-.508,1.152,2.159,2.159,0,0,1-2.637,0A1.469,1.469,0,0,1,110.278,7.709Zm9.99,10.947a1.464,1.464,0,0,0,1.074-.376,1.379,1.379,0,0,0,.371-1.05H124.8a3.653,3.653,0,0,1-1.245,2.852,4.631,4.631,0,0,1-3.208,1.113,4.689,4.689,0,0,1-3.633-1.445,5.7,5.7,0,0,1-1.328-4v-.137a6.436,6.436,0,0,1,.591-2.827,4.3,4.3,0,0,1,1.7-1.885,5.081,5.081,0,0,1,2.637-.659,4.573,4.573,0,0,1,3.271,1.143,4.053,4.053,0,0,1,1.211,3.1h-3.086a1.806,1.806,0,0,0-.4-1.26,1.382,1.382,0,0,0-1.074-.439q-1.279,0-1.494,1.631a11.508,11.508,0,0,0-.068,1.426,4.52,4.52,0,0,0,.381,2.207A1.319,1.319,0,0,0,120.269,18.656ZM129.663,21h-3.3V10.434h3.3Zm-3.5-13.291a1.469,1.469,0,0,1,.508-1.152,2.159,2.159,0,0,1,2.637,0,1.469,1.469,0,0,1,.508,1.152,1.469,1.469,0,0,1-.508,1.152,2.159,2.159,0,0,1-2.637,0A1.469,1.469,0,0,1,126.167,7.709Zm5.107,7.91a6.236,6.236,0,0,1,.615-2.817,4.4,4.4,0,0,1,1.768-1.9,5.323,5.323,0,0,1,2.705-.664,4.858,4.858,0,0,1,3.74,1.47,5.64,5.64,0,0,1,1.367,4v.117a5.472,5.472,0,0,1-1.372,3.921,4.871,4.871,0,0,1-3.716,1.45,4.927,4.927,0,0,1-3.623-1.353,5.29,5.29,0,0,1-1.475-3.667Zm3.291.205a3.932,3.932,0,0,0,.459,2.148,1.529,1.529,0,0,0,1.357.684q1.758,0,1.8-2.705v-.332q0-2.842-1.816-2.842-1.65,0-1.787,2.451ZM153.853,21a3.716,3.716,0,0,1-.312-.947A3.06,3.06,0,0,1,151,21.2a3.749,3.749,0,0,1-2.539-.9,2.875,2.875,0,0,1-1.045-2.271,2.955,2.955,0,0,1,1.27-2.6,6.468,6.468,0,0,1,3.691-.879h1.016v-.557q0-1.455-1.26-1.455a1.027,1.027,0,0,0-1.172,1.152h-3.291a2.955,2.955,0,0,1,1.3-2.49,5.474,5.474,0,0,1,3.325-.957,4.8,4.8,0,0,1,3.193.986,3.429,3.429,0,0,1,1.2,2.705v4.678a4.79,4.79,0,0,0,.449,2.227V21Zm-2.061-2.148a1.836,1.836,0,0,0,1.021-.264,1.653,1.653,0,0,0,.581-.6V16.3h-.957q-1.719,0-1.719,1.543a.942.942,0,0,0,.3.728A1.1,1.1,0,0,0,151.792,18.852ZM161.987,21h-3.3V6h3.3Zm18.662-4.814a5.193,5.193,0,0,1-.8,2.622,4.833,4.833,0,0,1-2.056,1.763,7,7,0,0,1-3.022.625,5.584,5.584,0,0,1-4.414-1.826,7.54,7.54,0,0,1-1.611-5.156v-.7a8.607,8.607,0,0,1,.728-3.657,5.513,5.513,0,0,1,2.095-2.422,5.844,5.844,0,0,1,3.164-.854,6.129,6.129,0,0,1,4.16,1.362,5.383,5.383,0,0,1,1.787,3.755h-3.418a2.547,2.547,0,0,0-.654-1.865,2.691,2.691,0,0,0-1.875-.566,2.048,2.048,0,0,0-1.875.957,6.151,6.151,0,0,0-.625,3.057v1.006a6.806,6.806,0,0,0,.571,3.252,2.091,2.091,0,0,0,1.968.977,2.632,2.632,0,0,0,1.807-.557,2.363,2.363,0,0,0,.664-1.768ZM185.591,21h-3.3V6h3.3Zm5.5,0h-3.3V10.434h3.3Zm-3.5-13.291a1.469,1.469,0,0,1,.508-1.152,2.159,2.159,0,0,1,2.637,0,1.469,1.469,0,0,1,.508,1.152,1.469,1.469,0,0,1-.508,1.152,2.159,2.159,0,0,1-2.637,0A1.469,1.469,0,0,1,187.593,7.709ZM198.228,21.2a5.432,5.432,0,0,1-3.936-1.45,5.008,5.008,0,0,1-1.5-3.774V15.7a6.489,6.489,0,0,1,.6-2.861,4.395,4.395,0,0,1,1.753-1.919,5.292,5.292,0,0,1,2.734-.679,4.574,4.574,0,0,1,3.516,1.382,5.43,5.43,0,0,1,1.289,3.853v1.279h-6.543a2.372,2.372,0,0,0,.771,1.4,2.3,2.3,0,0,0,1.543.508,2.958,2.958,0,0,0,2.441-1.094l1.5,1.777a4.2,4.2,0,0,1-1.743,1.353A5.891,5.891,0,0,1,198.228,21.2Zm-.371-8.418q-1.445,0-1.719,1.914h3.32v-.254a1.63,1.63,0,0,0-.4-1.226A1.593,1.593,0,0,0,197.856,12.777Zm9.17-2.344.107,1.24a3.583,3.583,0,0,1,3.018-1.436,3.015,3.015,0,0,1,2.466.986,4.7,4.7,0,0,1,.845,2.969V21h-3.3V14.33a1.783,1.783,0,0,0-.322-1.177,1.491,1.491,0,0,0-1.172-.376,1.569,1.569,0,0,0-1.436.762V21H203.94V10.434Zm12.09-2.627v2.627h1.738v2.285h-1.738v4.834a1.234,1.234,0,0,0,.215.83,1.152,1.152,0,0,0,.85.234,4.828,4.828,0,0,0,.82-.059v2.354a6.074,6.074,0,0,1-1.855.283,3.448,3.448,0,0,1-2.51-.8,3.282,3.282,0,0,1-.811-2.432V12.719h-1.348V10.434h1.348V7.807ZM227.261,21.2a5.432,5.432,0,0,1-3.936-1.45,5.008,5.008,0,0,1-1.5-3.774V15.7a6.489,6.489,0,0,1,.6-2.861,4.395,4.395,0,0,1,1.753-1.919,5.292,5.292,0,0,1,2.734-.679,4.574,4.574,0,0,1,3.516,1.382,5.43,5.43,0,0,1,1.289,3.853v1.279h-6.543a2.372,2.372,0,0,0,.771,1.4,2.3,2.3,0,0,0,1.543.508,2.958,2.958,0,0,0,2.441-1.094l1.5,1.777a4.2,4.2,0,0,1-1.743,1.353A5.891,5.891,0,0,1,227.261,21.2Zm-.371-8.418q-1.445,0-1.719,1.914h3.32v-.254a1.63,1.63,0,0,0-.4-1.226A1.593,1.593,0,0,0,226.89,12.777Z" transform="translate(658.162 2526.301)" fill="#12263f"/><path d="M5590-9441v58h95" transform="translate(-5076.838 11768.301)" fill="none" stroke="#cbc232" stroke-width="3"/><path d="M6190-9441v58H6085" transform="translate(-5076.838 11768.301)" fill="none" stroke="#21c9b8" stroke-width="3"/><path d="M5885-9602v40" transform="translate(-5076.838 11752.333)" fill="none" stroke="#e9dcbf" stroke-width="3"/><rect width="186" height="76" rx="38" transform="translate(418.51 2261.001)" fill="#cbc232"/><rect width="186" height="76" rx="38" transform="translate(720.51 2085.001)" fill="#e9dcbf"/><rect width="186" height="76" rx="38" transform="translate(1020.51 2260.001)" fill="#21c9b8"/><path d="M18.613,13.211A4.025,4.025,0,0,1,17.258,16.1a4.76,4.76,0,0,1-3.223,1.055,4.28,4.28,0,0,1-3.441-1.473A6.038,6.038,0,0,1,9.34,11.641v-.7a6.819,6.819,0,0,1,.578-2.891A4.332,4.332,0,0,1,11.57,6.137a4.629,4.629,0,0,1,2.5-.668,4.637,4.637,0,0,1,3.172,1.055,4.326,4.326,0,0,1,1.391,2.961H16.285a2.376,2.376,0,0,0-.613-1.6,2.271,2.271,0,0,0-1.605-.5,1.991,1.991,0,0,0-1.754.84,4.707,4.707,0,0,0-.6,2.605V11.7a5.038,5.038,0,0,0,.559,2.7,1.954,1.954,0,0,0,1.762.852,2.314,2.314,0,0,0,1.621-.5,2.241,2.241,0,0,0,.613-1.535Zm1.039-.516a5.013,5.013,0,0,1,.484-2.242A3.546,3.546,0,0,1,21.531,8.93a4.069,4.069,0,0,1,2.113-.539,3.849,3.849,0,0,1,2.793,1.047,4.2,4.2,0,0,1,1.207,2.844l.016.578a4.418,4.418,0,0,1-1.086,3.121,3.775,3.775,0,0,1-2.914,1.176,3.793,3.793,0,0,1-2.918-1.172,4.5,4.5,0,0,1-1.09-3.187Zm2.258.164a3.151,3.151,0,0,0,.453,1.84,1.629,1.629,0,0,0,2.578.008A3.448,3.448,0,0,0,25.4,12.7a3.12,3.12,0,0,0-.461-1.828,1.5,1.5,0,0,0-1.3-.648,1.475,1.475,0,0,0-1.281.645A3.506,3.506,0,0,0,21.91,12.859Zm9.258-4.312.07.945a2.971,2.971,0,0,1,2.43-1.1A2.255,2.255,0,0,1,35.91,9.68a2.9,2.9,0,0,1,2.539-1.289,2.521,2.521,0,0,1,2.047.8,3.681,3.681,0,0,1,.672,2.41V17H38.9V11.609a1.61,1.61,0,0,0-.281-1.051,1.246,1.246,0,0,0-.992-.332,1.409,1.409,0,0,0-1.406.969L36.23,17H33.973V11.617a1.59,1.59,0,0,0-.289-1.062,1.259,1.259,0,0,0-.984-.328,1.463,1.463,0,0,0-1.391.8V17H29.051V8.547Zm15.625,8.609a4.15,4.15,0,0,1-3.027-1.141A4.054,4.054,0,0,1,42.6,12.977v-.219a5.106,5.106,0,0,1,.492-2.277,3.612,3.612,0,0,1,1.395-1.547,3.914,3.914,0,0,1,2.059-.543,3.508,3.508,0,0,1,2.73,1.094,4.444,4.444,0,0,1,1,3.1v.922H44.887a2.1,2.1,0,0,0,.66,1.328,2,2,0,0,0,1.395.5,2.437,2.437,0,0,0,2.039-.945l1.109,1.242a3.389,3.389,0,0,1-1.375,1.121A4.511,4.511,0,0,1,46.793,17.156Zm-.258-6.937a1.414,1.414,0,0,0-1.09.453,2.341,2.341,0,0,0-.535,1.3h3.141v-.18a1.669,1.669,0,0,0-.406-1.16A1.459,1.459,0,0,0,46.535,10.219Zm9.766.445a6.134,6.134,0,0,0-.812-.062,1.654,1.654,0,0,0-1.68.867V17H51.551V8.547h2.133l.063,1.008a2.092,2.092,0,0,1,1.883-1.164,2.366,2.366,0,0,1,.7.1Zm4.453,4.672a1.481,1.481,0,0,0,1.016-.344,1.2,1.2,0,0,0,.406-.914h2.117a2.9,2.9,0,0,1-.469,1.574,3.093,3.093,0,0,1-1.262,1.109,3.949,3.949,0,0,1-1.77.395A3.67,3.67,0,0,1,57.934,16a4.56,4.56,0,0,1-1.047-3.184v-.148a4.508,4.508,0,0,1,1.039-3.117,3.627,3.627,0,0,1,2.852-1.164,3.555,3.555,0,0,1,2.543.9,3.2,3.2,0,0,1,.973,2.4H62.176a1.539,1.539,0,0,0-.406-1.066,1.513,1.513,0,0,0-2.223.164,3.324,3.324,0,0,0-.4,1.863v.234a3.366,3.366,0,0,0,.4,1.875A1.378,1.378,0,0,0,60.754,15.336ZM67.965,17H65.7V8.547h2.266Zm-2.4-10.641a1.112,1.112,0,0,1,.34-.836,1.465,1.465,0,0,1,1.848,0,1.105,1.105,0,0,1,.344.836,1.108,1.108,0,0,1-.348.844,1.448,1.448,0,0,1-1.836,0A1.108,1.108,0,0,1,65.566,6.359ZM74.723,17a2.507,2.507,0,0,1-.227-.758,2.732,2.732,0,0,1-2.133.914,3,3,0,0,1-2.059-.719,2.312,2.312,0,0,1-.816-1.812,2.389,2.389,0,0,1,1-2.062,4.915,4.915,0,0,1,2.879-.727H74.4v-.484a1.393,1.393,0,0,0-.3-.937,1.183,1.183,0,0,0-.949-.352,1.345,1.345,0,0,0-.895.273.929.929,0,0,0-.324.75H69.676a2.268,2.268,0,0,1,.453-1.359,3,3,0,0,1,1.281-.98,4.669,4.669,0,0,1,1.859-.355,3.689,3.689,0,0,1,2.48.785,2.747,2.747,0,0,1,.918,2.207v3.664A4.041,4.041,0,0,0,77,16.867V17Zm-1.867-1.57a1.945,1.945,0,0,0,.922-.223,1.462,1.462,0,0,0,.625-.6V13.156h-.844q-1.7,0-1.8,1.172l-.008.133a.9.9,0,0,0,.3.7A1.153,1.153,0,0,0,72.855,15.43ZM80.785,17H78.52V5h2.266Zm4.242,0H82.762V8.547h2.266Zm-2.4-10.641a1.112,1.112,0,0,1,.34-.836,1.465,1.465,0,0,1,1.848,0,1.105,1.105,0,0,1,.344.836,1.108,1.108,0,0,1-.348.844,1.448,1.448,0,0,1-1.836,0A1.108,1.108,0,0,1,82.629,6.359Zm6.852,8.82h4.133V17H86.6V15.625l3.977-5.25H86.715V8.547h6.773V9.883ZM99.926,17a2.507,2.507,0,0,1-.227-.758,2.732,2.732,0,0,1-2.133.914,3,3,0,0,1-2.059-.719,2.312,2.312,0,0,1-.816-1.812,2.389,2.389,0,0,1,1-2.062,4.915,4.915,0,0,1,2.879-.727h1.039v-.484a1.393,1.393,0,0,0-.3-.937,1.183,1.183,0,0,0-.949-.352,1.345,1.345,0,0,0-.895.273.929.929,0,0,0-.324.75H94.879a2.268,2.268,0,0,1,.453-1.359,3,3,0,0,1,1.281-.98,4.669,4.669,0,0,1,1.859-.355,3.689,3.689,0,0,1,2.48.785,2.747,2.747,0,0,1,.918,2.207v3.664a4.041,4.041,0,0,0,.336,1.82V17Zm-1.867-1.57a1.945,1.945,0,0,0,.922-.223,1.462,1.462,0,0,0,.625-.6V13.156h-.844q-1.7,0-1.8,1.172l-.008.133a.9.9,0,0,0,.3.7A1.153,1.153,0,0,0,98.059,15.43Zm9.063-.094a1.481,1.481,0,0,0,1.016-.344,1.2,1.2,0,0,0,.406-.914h2.117a2.9,2.9,0,0,1-.469,1.574,3.093,3.093,0,0,1-1.262,1.109,3.949,3.949,0,0,1-1.77.395A3.67,3.67,0,0,1,104.3,16a4.56,4.56,0,0,1-1.047-3.184v-.148a4.508,4.508,0,0,1,1.039-3.117,3.627,3.627,0,0,1,2.852-1.164,3.555,3.555,0,0,1,2.543.9,3.2,3.2,0,0,1,.973,2.4h-2.117a1.539,1.539,0,0,0-.406-1.066,1.513,1.513,0,0,0-2.223.164,3.324,3.324,0,0,0-.4,1.863v.234a3.366,3.366,0,0,0,.4,1.875A1.378,1.378,0,0,0,107.121,15.336ZM114.332,17h-2.266V8.547h2.266Zm-2.4-10.641a1.112,1.112,0,0,1,.34-.836,1.465,1.465,0,0,1,1.848,0,1.105,1.105,0,0,1,.344.836,1.108,1.108,0,0,1-.348.844,1.448,1.448,0,0,1-1.836,0A1.108,1.108,0,0,1,111.934,6.359ZM115.84,12.7a5.013,5.013,0,0,1,.484-2.242,3.546,3.546,0,0,1,1.395-1.523,4.069,4.069,0,0,1,2.113-.539,3.849,3.849,0,0,1,2.793,1.047,4.2,4.2,0,0,1,1.207,2.844l.016.578a4.418,4.418,0,0,1-1.086,3.121,4.209,4.209,0,0,1-5.832,0,4.5,4.5,0,0,1-1.09-3.187Zm2.258.164a3.151,3.151,0,0,0,.453,1.84,1.629,1.629,0,0,0,2.578.008,3.448,3.448,0,0,0,.461-2.012,3.12,3.12,0,0,0-.461-1.828,1.5,1.5,0,0,0-1.3-.648,1.475,1.475,0,0,0-1.281.645A3.506,3.506,0,0,0,118.1,12.859ZM120.277,5h2.461l-2.164,2.422h-1.836Zm7.039,3.547.07.977a2.951,2.951,0,0,1,2.43-1.133,2.453,2.453,0,0,1,2,.789,3.682,3.682,0,0,1,.672,2.359V17H130.23V11.594a1.465,1.465,0,0,0-.312-1.043,1.4,1.4,0,0,0-1.039-.324,1.553,1.553,0,0,0-1.43.813V17h-2.258V8.547ZM23.852,32.711a5.094,5.094,0,0,1,.887-3.148,2.877,2.877,0,0,1,2.426-1.172,2.589,2.589,0,0,1,2.039.922V25h2.266V37H29.43l-.109-.9a2.657,2.657,0,0,1-2.172,1.055,2.869,2.869,0,0,1-2.395-1.176A5.258,5.258,0,0,1,23.852,32.711Zm2.258.164a3.328,3.328,0,0,0,.414,1.82,1.349,1.349,0,0,0,1.2.633,1.511,1.511,0,0,0,1.477-.883V31.109a1.489,1.489,0,0,0-1.461-.883Q26.109,30.227,26.109,32.875Zm11,4.281a4.15,4.15,0,0,1-3.027-1.141,4.054,4.054,0,0,1-1.168-3.039v-.219a5.106,5.106,0,0,1,.492-2.277A3.612,3.612,0,0,1,34.8,28.934a3.914,3.914,0,0,1,2.059-.543,3.508,3.508,0,0,1,2.73,1.094,4.444,4.444,0,0,1,1,3.1v.922H35.2a2.1,2.1,0,0,0,.66,1.328,2,2,0,0,0,1.395.5,2.437,2.437,0,0,0,2.039-.945l1.109,1.242a3.389,3.389,0,0,1-1.375,1.121A4.511,4.511,0,0,1,37.109,37.156Zm-.258-6.937a1.414,1.414,0,0,0-1.09.453,2.341,2.341,0,0,0-.535,1.3h3.141v-.18a1.669,1.669,0,0,0-.406-1.16A1.459,1.459,0,0,0,36.852,30.219Zm11.492,2.773V37H46V25.625h4.438a5.134,5.134,0,0,1,2.254.469,3.454,3.454,0,0,1,1.5,1.332,3.714,3.714,0,0,1,.523,1.965,3.266,3.266,0,0,1-1.145,2.637,4.767,4.767,0,0,1-3.168.965Zm0-1.9h2.094a2.059,2.059,0,0,0,1.418-.437,1.591,1.591,0,0,0,.488-1.25,1.876,1.876,0,0,0-.492-1.352,1.839,1.839,0,0,0-1.359-.531H48.344Zm12.578-.43a6.134,6.134,0,0,0-.812-.062,1.654,1.654,0,0,0-1.68.867V37H56.172V28.547H58.3l.063,1.008a2.092,2.092,0,0,1,1.883-1.164,2.366,2.366,0,0,1,.7.1Zm.453,2.031a5.013,5.013,0,0,1,.484-2.242,3.546,3.546,0,0,1,1.395-1.523,4.069,4.069,0,0,1,2.113-.539,3.849,3.849,0,0,1,2.793,1.047,4.2,4.2,0,0,1,1.207,2.844l.016.578A4.418,4.418,0,0,1,68.3,35.98a4.209,4.209,0,0,1-5.832,0,4.5,4.5,0,0,1-1.09-3.187Zm2.258.164a3.151,3.151,0,0,0,.453,1.84,1.629,1.629,0,0,0,2.578.008,3.448,3.448,0,0,0,.461-2.012,3.12,3.12,0,0,0-.461-1.828,1.5,1.5,0,0,0-1.3-.648,1.475,1.475,0,0,0-1.281.645A3.506,3.506,0,0,0,63.633,32.859Zm6.789-.148a5.094,5.094,0,0,1,.887-3.148,2.877,2.877,0,0,1,2.426-1.172,2.589,2.589,0,0,1,2.039.922V25h2.266V37H76l-.109-.9a2.657,2.657,0,0,1-2.172,1.055,2.869,2.869,0,0,1-2.395-1.176A5.258,5.258,0,0,1,70.422,32.711Zm2.258.164a3.328,3.328,0,0,0,.414,1.82,1.349,1.349,0,0,0,1.2.633,1.511,1.511,0,0,0,1.477-.883V31.109a1.489,1.489,0,0,0-1.461-.883Q72.68,30.227,72.68,32.875Zm12.172,3.266a2.831,2.831,0,0,1-2.312,1.016,2.67,2.67,0,0,1-2.074-.781,3.335,3.335,0,0,1-.73-2.289V28.547h2.258v5.461q0,1.32,1.2,1.32a1.631,1.631,0,0,0,1.578-.8V28.547h2.266V37H84.914Zm7.406-.8a1.481,1.481,0,0,0,1.016-.344,1.2,1.2,0,0,0,.406-.914H95.8a2.9,2.9,0,0,1-.469,1.574,3.093,3.093,0,0,1-1.262,1.109,3.949,3.949,0,0,1-1.77.395A3.67,3.67,0,0,1,89.438,36a4.56,4.56,0,0,1-1.047-3.184v-.148a4.508,4.508,0,0,1,1.039-3.117,3.627,3.627,0,0,1,2.852-1.164,3.555,3.555,0,0,1,2.543.9,3.2,3.2,0,0,1,.973,2.4H93.68a1.539,1.539,0,0,0-.406-1.066,1.513,1.513,0,0,0-2.223.164,3.324,3.324,0,0,0-.4,1.863v.234a3.366,3.366,0,0,0,.4,1.875A1.378,1.378,0,0,0,92.258,35.336Zm7.531-8.867v2.078h1.445V30.2H99.789v4.219a1.007,1.007,0,0,0,.18.672.9.9,0,0,0,.688.2,3.6,3.6,0,0,0,.664-.055v1.711a4.648,4.648,0,0,1-1.367.2,2.156,2.156,0,0,1-2.422-2.4V30.2H96.3V28.547h1.234V26.469Zm2.117,6.227a5.013,5.013,0,0,1,.484-2.242,3.546,3.546,0,0,1,1.395-1.523,4.069,4.069,0,0,1,2.113-.539,3.849,3.849,0,0,1,2.793,1.047,4.2,4.2,0,0,1,1.207,2.844l.016.578a4.418,4.418,0,0,1-1.086,3.121,4.209,4.209,0,0,1-5.832,0,4.5,4.5,0,0,1-1.09-3.187Zm2.258.164a3.151,3.151,0,0,0,.453,1.84,1.629,1.629,0,0,0,2.578.008,3.448,3.448,0,0,0,.461-2.012,3.12,3.12,0,0,0-.461-1.828,1.5,1.5,0,0,0-1.3-.648,1.475,1.475,0,0,0-1.281.645A3.506,3.506,0,0,0,104.164,32.859Zm11.719,1.8a.727.727,0,0,0-.41-.652,4.659,4.659,0,0,0-1.316-.426q-3.016-.633-3.016-2.562a2.323,2.323,0,0,1,.934-1.879,3.766,3.766,0,0,1,2.441-.754,4.053,4.053,0,0,1,2.574.758,2.388,2.388,0,0,1,.965,1.969H115.8a1.092,1.092,0,0,0-.312-.8,1.322,1.322,0,0,0-.977-.316,1.351,1.351,0,0,0-.883.258.814.814,0,0,0-.312.656.7.7,0,0,0,.355.605,3.657,3.657,0,0,0,1.2.4,9.8,9.8,0,0,1,1.422.379,2.336,2.336,0,0,1,1.789,2.273,2.2,2.2,0,0,1-.992,1.871,4.28,4.28,0,0,1-2.562.715,4.47,4.47,0,0,1-1.887-.379,3.166,3.166,0,0,1-1.293-1.039,2.414,2.414,0,0,1-.469-1.426h2.141a1.179,1.179,0,0,0,.445.922,1.766,1.766,0,0,0,1.109.32,1.635,1.635,0,0,0,.98-.246A.766.766,0,0,0,115.883,34.664Z" transform="translate(442.162 2279.301)" fill="#12263f"/><path d="M38.367,14.18l2.578-8.555h2.609L39.594,17H37.148L33.2,5.625h2.6Zm10,2.977a4.15,4.15,0,0,1-3.027-1.141,4.054,4.054,0,0,1-1.168-3.039v-.219a5.106,5.106,0,0,1,.492-2.277,3.612,3.612,0,0,1,1.395-1.547,3.914,3.914,0,0,1,2.059-.543,3.508,3.508,0,0,1,2.73,1.094,4.444,4.444,0,0,1,1,3.1v.922H46.461a2.1,2.1,0,0,0,.66,1.328,2,2,0,0,0,1.395.5,2.437,2.437,0,0,0,2.039-.945l1.109,1.242a3.389,3.389,0,0,1-1.375,1.121A4.511,4.511,0,0,1,48.367,17.156Zm-.258-6.937a1.414,1.414,0,0,0-1.09.453,2.341,2.341,0,0,0-.535,1.3h3.141v-.18a1.669,1.669,0,0,0-.406-1.16A1.459,1.459,0,0,0,48.109,10.219ZM55.2,8.547l.07.977A2.951,2.951,0,0,1,57.7,8.391a2.453,2.453,0,0,1,2,.789,3.682,3.682,0,0,1,.672,2.359V17H58.117V11.594a1.465,1.465,0,0,0-.312-1.043,1.4,1.4,0,0,0-1.039-.324,1.553,1.553,0,0,0-1.43.813V17H53.078V8.547Zm9.586-2.078V8.547h1.445V10.2H64.789v4.219a1.007,1.007,0,0,0,.18.672.9.9,0,0,0,.688.2,3.6,3.6,0,0,0,.664-.055v1.711a4.648,4.648,0,0,1-1.367.2,2.156,2.156,0,0,1-2.422-2.4V10.2H61.3V8.547h1.234V6.469ZM72.391,17a2.507,2.507,0,0,1-.227-.758,2.732,2.732,0,0,1-2.133.914,3,3,0,0,1-2.059-.719,2.312,2.312,0,0,1-.816-1.812,2.389,2.389,0,0,1,1-2.062,4.915,4.915,0,0,1,2.879-.727H72.07v-.484a1.393,1.393,0,0,0-.3-.937,1.183,1.183,0,0,0-.949-.352,1.345,1.345,0,0,0-.895.273.929.929,0,0,0-.324.75H67.344A2.268,2.268,0,0,1,67.8,9.727a3,3,0,0,1,1.281-.98,4.669,4.669,0,0,1,1.859-.355,3.689,3.689,0,0,1,2.48.785,2.747,2.747,0,0,1,.918,2.207v3.664a4.041,4.041,0,0,0,.336,1.82V17Zm-1.867-1.57a1.945,1.945,0,0,0,.922-.223,1.462,1.462,0,0,0,.625-.6V13.156h-.844q-1.7,0-1.8,1.172l-.008.133a.9.9,0,0,0,.3.7A1.153,1.153,0,0,0,70.523,15.43Zm9.18-2.719a5.094,5.094,0,0,1,.887-3.148,2.877,2.877,0,0,1,2.426-1.172,2.589,2.589,0,0,1,2.039.922V5H87.32V17H85.281l-.109-.9A2.657,2.657,0,0,1,83,17.156a2.869,2.869,0,0,1-2.395-1.176A5.258,5.258,0,0,1,79.7,12.711Zm2.258.164a3.328,3.328,0,0,0,.414,1.82,1.349,1.349,0,0,0,1.2.633,1.511,1.511,0,0,0,1.477-.883V11.109a1.489,1.489,0,0,0-1.461-.883Q81.961,10.227,81.961,12.875Zm11,4.281a4.15,4.15,0,0,1-3.027-1.141,4.054,4.054,0,0,1-1.168-3.039v-.219a5.106,5.106,0,0,1,.492-2.277,3.612,3.612,0,0,1,1.395-1.547,3.914,3.914,0,0,1,2.059-.543,3.508,3.508,0,0,1,2.73,1.094,4.444,4.444,0,0,1,1,3.1v.922H91.055a2.1,2.1,0,0,0,.66,1.328,2,2,0,0,0,1.395.5,2.437,2.437,0,0,0,2.039-.945l1.109,1.242a3.389,3.389,0,0,1-1.375,1.121A4.511,4.511,0,0,1,92.961,17.156ZM92.7,10.219a1.414,1.414,0,0,0-1.09.453,2.341,2.341,0,0,0-.535,1.3h3.141v-.18a1.669,1.669,0,0,0-.406-1.16A1.459,1.459,0,0,0,92.7,10.219ZM38.59,34.016A1.2,1.2,0,0,0,38.121,33a6.148,6.148,0,0,0-1.687-.75,11.963,11.963,0,0,1-1.93-.777,3.153,3.153,0,0,1-1.937-2.82A2.747,2.747,0,0,1,33.086,27a3.389,3.389,0,0,1,1.492-1.129,5.616,5.616,0,0,1,2.184-.406,5.112,5.112,0,0,1,2.172.441,3.458,3.458,0,0,1,1.48,1.246,3.261,3.261,0,0,1,.527,1.828H38.6a1.534,1.534,0,0,0-.492-1.215,2.023,2.023,0,0,0-1.383-.434,2.162,2.162,0,0,0-1.336.363,1.146,1.146,0,0,0-.477.957,1.1,1.1,0,0,0,.559.93,6.311,6.311,0,0,0,1.645.7,7.106,7.106,0,0,1,2.914,1.492A2.972,2.972,0,0,1,40.941,34a2.737,2.737,0,0,1-1.117,2.316,4.891,4.891,0,0,1-3.008.84,5.808,5.808,0,0,1-2.391-.48,3.783,3.783,0,0,1-1.645-1.316,3.371,3.371,0,0,1-.566-1.937h2.352q0,1.883,2.25,1.883a2.189,2.189,0,0,0,1.3-.34A1.106,1.106,0,0,0,38.59,34.016Zm7.68,3.141a4.15,4.15,0,0,1-3.027-1.141,4.054,4.054,0,0,1-1.168-3.039v-.219a5.106,5.106,0,0,1,.492-2.277,3.612,3.612,0,0,1,1.395-1.547,3.914,3.914,0,0,1,2.059-.543,3.508,3.508,0,0,1,2.73,1.094,4.444,4.444,0,0,1,1,3.1v.922H44.363a2.1,2.1,0,0,0,.66,1.328,2,2,0,0,0,1.395.5,2.437,2.437,0,0,0,2.039-.945l1.109,1.242a3.389,3.389,0,0,1-1.375,1.121A4.511,4.511,0,0,1,46.27,37.156Zm-.258-6.937a1.414,1.414,0,0,0-1.09.453,2.341,2.341,0,0,0-.535,1.3h3.141v-.18a1.669,1.669,0,0,0-.406-1.16A1.459,1.459,0,0,0,46.012,30.219Zm9.766.445a6.134,6.134,0,0,0-.812-.062,1.654,1.654,0,0,0-1.68.867V37H51.027V28.547H53.16l.063,1.008a2.092,2.092,0,0,1,1.883-1.164,2.366,2.366,0,0,1,.7.1Zm4.391,3.578,1.57-5.7H64.1L61.246,37H59.09l-2.852-8.453H58.6ZM67.473,37H65.207V28.547h2.266Zm-2.4-10.641a1.112,1.112,0,0,1,.34-.836,1.465,1.465,0,0,1,1.848,0,1.193,1.193,0,0,1,0,1.68,1.448,1.448,0,0,1-1.836,0A1.108,1.108,0,0,1,65.074,26.359Zm7.773,8.977a1.481,1.481,0,0,0,1.016-.344,1.2,1.2,0,0,0,.406-.914h2.117a2.9,2.9,0,0,1-.469,1.574,3.093,3.093,0,0,1-1.262,1.109,3.949,3.949,0,0,1-1.77.395A3.67,3.67,0,0,1,70.027,36,4.56,4.56,0,0,1,68.98,32.82v-.148a4.508,4.508,0,0,1,1.039-3.117,3.627,3.627,0,0,1,2.852-1.164,3.555,3.555,0,0,1,2.543.9,3.2,3.2,0,0,1,.973,2.4H74.27a1.539,1.539,0,0,0-.406-1.066,1.513,1.513,0,0,0-2.223.164,3.324,3.324,0,0,0-.4,1.863v.234a3.366,3.366,0,0,0,.4,1.875A1.378,1.378,0,0,0,72.848,35.336ZM80.059,37H77.793V28.547h2.266Zm-2.4-10.641a1.112,1.112,0,0,1,.34-.836,1.465,1.465,0,0,1,1.848,0,1.193,1.193,0,0,1,0,1.68,1.448,1.448,0,0,1-1.836,0A1.108,1.108,0,0,1,77.66,26.359ZM81.566,32.7a5.013,5.013,0,0,1,.484-2.242,3.546,3.546,0,0,1,1.395-1.523,4.069,4.069,0,0,1,2.113-.539,3.849,3.849,0,0,1,2.793,1.047,4.2,4.2,0,0,1,1.207,2.844l.016.578a4.418,4.418,0,0,1-1.086,3.121,4.209,4.209,0,0,1-5.832,0,4.5,4.5,0,0,1-1.09-3.187Zm2.258.164a3.151,3.151,0,0,0,.453,1.84,1.629,1.629,0,0,0,2.578.008,3.448,3.448,0,0,0,.461-2.012,3.12,3.12,0,0,0-.461-1.828,1.5,1.5,0,0,0-1.3-.648,1.475,1.475,0,0,0-1.281.645A3.506,3.506,0,0,0,83.824,32.859Zm11.719,1.8a.727.727,0,0,0-.41-.652,4.659,4.659,0,0,0-1.316-.426Q90.8,32.953,90.8,31.023a2.323,2.323,0,0,1,.934-1.879,3.766,3.766,0,0,1,2.441-.754,4.053,4.053,0,0,1,2.574.758,2.388,2.388,0,0,1,.965,1.969H95.457a1.092,1.092,0,0,0-.312-.8A1.322,1.322,0,0,0,94.168,30a1.351,1.351,0,0,0-.883.258.814.814,0,0,0-.312.656.7.7,0,0,0,.355.605,3.657,3.657,0,0,0,1.2.4,9.8,9.8,0,0,1,1.422.379,2.336,2.336,0,0,1,1.789,2.273,2.2,2.2,0,0,1-.992,1.871,4.28,4.28,0,0,1-2.562.715,4.47,4.47,0,0,1-1.887-.379A3.166,3.166,0,0,1,91,35.738a2.414,2.414,0,0,1-.469-1.426h2.141a1.179,1.179,0,0,0,.445.922,1.766,1.766,0,0,0,1.109.32,1.635,1.635,0,0,0,.98-.246A.766.766,0,0,0,95.543,34.664Z" transform="translate(1053.162 2279.501)" fill="#12263f"/><path d="M31.914,14.656H27.8L27.023,17H24.531L28.766,5.625h2.172L35.2,17H32.7Zm-3.477-1.9h2.844L29.852,8.5ZM38.68,6.469V8.547h1.445V10.2H38.68v4.219a1.007,1.007,0,0,0,.18.672.9.9,0,0,0,.688.2,3.6,3.6,0,0,0,.664-.055v1.711a4.648,4.648,0,0,1-1.367.2,2.156,2.156,0,0,1-2.422-2.4V10.2H35.188V8.547h1.234V6.469Zm6.594,10.688a4.15,4.15,0,0,1-3.027-1.141,4.054,4.054,0,0,1-1.168-3.039v-.219a5.106,5.106,0,0,1,.492-2.277,3.612,3.612,0,0,1,1.395-1.547,3.914,3.914,0,0,1,2.059-.543,3.508,3.508,0,0,1,2.73,1.094,4.444,4.444,0,0,1,1,3.1v.922H43.367a2.1,2.1,0,0,0,.66,1.328,2,2,0,0,0,1.395.5,2.437,2.437,0,0,0,2.039-.945l1.109,1.242A3.389,3.389,0,0,1,47.2,16.754,4.511,4.511,0,0,1,45.273,17.156Zm-.258-6.937a1.414,1.414,0,0,0-1.09.453,2.341,2.341,0,0,0-.535,1.3h3.141v-.18a1.669,1.669,0,0,0-.406-1.16A1.459,1.459,0,0,0,45.016,10.219Zm7.094-1.672.07.977a2.951,2.951,0,0,1,2.43-1.133,2.453,2.453,0,0,1,2,.789,3.682,3.682,0,0,1,.672,2.359V17H55.023V11.594a1.465,1.465,0,0,0-.312-1.043,1.4,1.4,0,0,0-1.039-.324,1.553,1.553,0,0,0-1.43.813V17H49.984V8.547Zm10.4,6.789a1.481,1.481,0,0,0,1.016-.344,1.2,1.2,0,0,0,.406-.914h2.117a2.9,2.9,0,0,1-.469,1.574,3.093,3.093,0,0,1-1.262,1.109,3.949,3.949,0,0,1-1.77.395A3.67,3.67,0,0,1,59.688,16a4.56,4.56,0,0,1-1.047-3.184v-.148A4.508,4.508,0,0,1,59.68,9.555a3.627,3.627,0,0,1,2.852-1.164,3.555,3.555,0,0,1,2.543.9,3.2,3.2,0,0,1,.973,2.4H63.93a1.539,1.539,0,0,0-.406-1.066,1.513,1.513,0,0,0-2.223.164,3.324,3.324,0,0,0-.4,1.863v.234a3.366,3.366,0,0,0,.4,1.875A1.378,1.378,0,0,0,62.508,15.336ZM69.719,17H67.453V8.547h2.266ZM67.32,6.359a1.112,1.112,0,0,1,.34-.836,1.465,1.465,0,0,1,1.848,0,1.105,1.105,0,0,1,.344.836A1.108,1.108,0,0,1,69.5,7.2a1.448,1.448,0,0,1-1.836,0A1.108,1.108,0,0,1,67.32,6.359ZM71.227,12.7a5.013,5.013,0,0,1,.484-2.242A3.546,3.546,0,0,1,73.105,8.93a4.069,4.069,0,0,1,2.113-.539,3.849,3.849,0,0,1,2.793,1.047,4.2,4.2,0,0,1,1.207,2.844l.016.578a4.418,4.418,0,0,1-1.086,3.121,4.209,4.209,0,0,1-5.832,0,4.5,4.5,0,0,1-1.09-3.187Zm2.258.164a3.151,3.151,0,0,0,.453,1.84,1.629,1.629,0,0,0,2.578.008,3.448,3.448,0,0,0,.461-2.012,3.12,3.12,0,0,0-.461-1.828,1.5,1.5,0,0,0-1.3-.648,1.475,1.475,0,0,0-1.281.645A3.506,3.506,0,0,0,73.484,12.859ZM75.664,5h2.461L75.961,7.422H74.125ZM82.7,8.547l.07.977A2.951,2.951,0,0,1,85.2,8.391a2.453,2.453,0,0,1,2,.789,3.682,3.682,0,0,1,.672,2.359V17H85.617V11.594a1.465,1.465,0,0,0-.312-1.043,1.4,1.4,0,0,0-1.039-.324,1.553,1.553,0,0,0-1.43.813V17H80.578V8.547ZM98.469,17a2.507,2.507,0,0,1-.227-.758,2.732,2.732,0,0,1-2.133.914,3,3,0,0,1-2.059-.719,2.312,2.312,0,0,1-.816-1.812,2.389,2.389,0,0,1,1-2.062,4.915,4.915,0,0,1,2.879-.727h1.039v-.484a1.393,1.393,0,0,0-.3-.937,1.183,1.183,0,0,0-.949-.352,1.345,1.345,0,0,0-.895.273.929.929,0,0,0-.324.75H93.422a2.268,2.268,0,0,1,.453-1.359,3,3,0,0,1,1.281-.98,4.669,4.669,0,0,1,1.859-.355,3.689,3.689,0,0,1,2.48.785,2.747,2.747,0,0,1,.918,2.207v3.664a4.041,4.041,0,0,0,.336,1.82V17ZM96.6,15.43a1.945,1.945,0,0,0,.922-.223,1.462,1.462,0,0,0,.625-.6V13.156H97.3q-1.7,0-1.8,1.172l-.008.133a.9.9,0,0,0,.3.7A1.153,1.153,0,0,0,96.6,15.43Zm7.93,1.57h-2.266V5h2.266ZM49.637,33.211A4.025,4.025,0,0,1,48.281,36.1a4.76,4.76,0,0,1-3.223,1.055,4.281,4.281,0,0,1-3.441-1.473,6.038,6.038,0,0,1-1.254-4.043v-.7a6.819,6.819,0,0,1,.578-2.891,4.332,4.332,0,0,1,1.652-1.918,5.164,5.164,0,0,1,5.668.387,4.326,4.326,0,0,1,1.391,2.961H47.309a2.376,2.376,0,0,0-.613-1.6,2.271,2.271,0,0,0-1.605-.5,1.991,1.991,0,0,0-1.754.84,4.707,4.707,0,0,0-.6,2.605V31.7a5.038,5.038,0,0,0,.559,2.7,1.954,1.954,0,0,0,1.762.852,2.314,2.314,0,0,0,1.621-.5,2.241,2.241,0,0,0,.613-1.535ZM53.41,37H51.145V25H53.41Zm4.242,0H55.387V28.547h2.266Zm-2.4-10.641a1.112,1.112,0,0,1,.34-.836,1.465,1.465,0,0,1,1.848,0,1.193,1.193,0,0,1,0,1.68,1.448,1.448,0,0,1-1.836,0A1.108,1.108,0,0,1,55.254,26.359Zm8.148,10.8a4.15,4.15,0,0,1-3.027-1.141,4.054,4.054,0,0,1-1.168-3.039v-.219A5.106,5.106,0,0,1,59.7,30.48a3.612,3.612,0,0,1,1.395-1.547,3.914,3.914,0,0,1,2.059-.543,3.508,3.508,0,0,1,2.73,1.094,4.444,4.444,0,0,1,1,3.1v.922H61.5a2.1,2.1,0,0,0,.66,1.328,2,2,0,0,0,1.395.5,2.437,2.437,0,0,0,2.039-.945L66.7,35.633a3.389,3.389,0,0,1-1.375,1.121A4.511,4.511,0,0,1,63.4,37.156Zm-.258-6.937a1.414,1.414,0,0,0-1.09.453,2.341,2.341,0,0,0-.535,1.3H64.66v-.18a1.669,1.669,0,0,0-.406-1.16A1.459,1.459,0,0,0,63.145,30.219Zm7.094-1.672.07.977a2.951,2.951,0,0,1,2.43-1.133,2.453,2.453,0,0,1,2,.789,3.682,3.682,0,0,1,.672,2.359V37H73.152V31.594a1.465,1.465,0,0,0-.312-1.043,1.4,1.4,0,0,0-1.039-.324,1.553,1.553,0,0,0-1.43.813V37H68.113V28.547Zm9.586-2.078v2.078H81.27V30.2H79.824v4.219a1.007,1.007,0,0,0,.18.672.9.9,0,0,0,.688.2,3.6,3.6,0,0,0,.664-.055v1.711a4.648,4.648,0,0,1-1.367.2,2.156,2.156,0,0,1-2.422-2.4V30.2H76.332V28.547h1.234V26.469Zm6.594,10.688a4.15,4.15,0,0,1-3.027-1.141,4.054,4.054,0,0,1-1.168-3.039v-.219a5.106,5.106,0,0,1,.492-2.277,3.612,3.612,0,0,1,1.395-1.547,3.914,3.914,0,0,1,2.059-.543,3.508,3.508,0,0,1,2.73,1.094,4.444,4.444,0,0,1,1,3.1v.922H84.512a2.1,2.1,0,0,0,.66,1.328,2,2,0,0,0,1.395.5,2.437,2.437,0,0,0,2.039-.945l1.109,1.242a3.389,3.389,0,0,1-1.375,1.121A4.511,4.511,0,0,1,86.418,37.156Zm-.258-6.937a1.414,1.414,0,0,0-1.09.453,2.341,2.341,0,0,0-.535,1.3h3.141v-.18a1.669,1.669,0,0,0-.406-1.16A1.459,1.459,0,0,0,86.16,30.219Z" transform="translate(749.162 2104.801)" fill="#12263f"/></g></g></svg>