<svg xmlns="http://www.w3.org/2000/svg" xmlns:xlink="http://www.w3.org/1999/xlink" width="382.348" height="1164.999" viewBox="0 0 382.348 1164.999"><defs><clipPath id="a"><path d="M16.769,0H1148.23C1157.491,0,1165,6.415,1165,14.329v353.69c0,7.913-7.508,14.329-16.769,14.329H16.769C7.508,382.348,0,375.932,0,368.019V14.329C0,6.415,7.508,0,16.769,0Z" transform="translate(-14501.824 -13307.311)" fill="#cbc232"/></clipPath><clipPath id="b"><path d="M363.315,0C563.969,0,726.631,155.789,726.631,347.964S563.969,695.928,363.315,695.928,0,540.139,0,347.964,162.662,0,363.315,0Z" transform="translate(0 0)" fill="#21c9b8"/></clipPath><clipPath id="c"><rect width="530.776" height="530.776" fill="#dee4f0"/></clipPath><clipPath id="d"><rect width="164.718" height="168.09" fill="#fff" stroke="#fff" stroke-width="1"/></clipPath></defs><g transform="translate(3638.174 5239.794)"><g transform="translate(9669.137 -18576.619) rotate(-90)" opacity="0.43" clip-path="url(#a)"><path d="M0,0H2398.132V505.308H0Z" transform="translate(-15143.035 -13371.444)" fill="#f3f9ff"/><path d="M339.691,0C527.3,0,679.381,152.085,679.381,339.691S527.3,679.381,339.691,679.381,0,527.3,0,339.691,152.085,0,339.691,0Z" transform="translate(-13285.051 -13355.636)" fill="#dbe3fb" opacity="0.14"/><path d="M339.691,0C527.3,0,679.381,152.085,679.381,339.691S527.3,679.381,339.691,679.381,0,527.3,0,339.691,152.085,0,339.691,0Z" transform="translate(-14076.762 -12959.152)" fill="#dbe3fb" opacity="0.14"/><path d="M339.691,0C527.3,0,679.381,152.085,679.381,339.691S527.3,679.381,339.691,679.381,0,527.3,0,339.691,152.085,0,339.691,0Z" transform="translate(-13298.395 -13510.606)" fill="#dbe3fb" opacity="0"/><rect width="9.32" height="2.485" transform="translate(-13153.392 -12939.704)" fill="#dbe3fb"/><ellipse cx="339.238" cy="324.904" rx="339.238" ry="324.904" transform="translate(-14135.324 -13978.838)" fill="#94a6dd" opacity="0.13"/><path d="M347.5,0c191.917,0,347.5,149.006,347.5,332.814S539.414,665.628,347.5,665.628,0,516.622,0,332.814,155.58,0,347.5,0Z" transform="translate(-13640.354 -13164.039)" fill="#fff" opacity="0.25"/><path d="M453.264,0C703.595,0,906.528,202.933,906.528,453.264S703.595,906.528,453.264,906.528,0,703.595,0,453.264,202.933,0,453.264,0Z" transform="translate(-15143.035 -13116.137)" fill="#a5b9f6" opacity="0.23" style="mix-blend-mode:multiply;isolation:isolate"/><path d="M453.264,0C703.595,0,906.528,202.933,906.528,453.264S703.595,906.528,453.264,906.528,0,703.595,0,453.264,202.933,0,453.264,0Z" transform="translate(-15241.656 -13963.87)" fill="#a5b9f6" opacity="0.23" style="mix-blend-mode:multiply;isolation:isolate"/><path d="M453.264,0C703.595,0,906.528,202.933,906.528,453.264S703.595,906.528,453.264,906.528,0,703.595,0,453.264,202.933,0,453.264,0Z" transform="translate(-14460.897 -13878.895)" fill="#f6f8fe" opacity="0.51" style="mix-blend-mode:lighten;isolation:isolate"/><g transform="translate(-14538.409 -13748.186)"><g clip-path="url(#c)"><path d="M530.776,265.384c0-8.566-.445-17.023-1.242-25.387H406.306l115.518-43.039a264.075,264.075,0,0,0-17.719-47.595L365.817,200.875,470.144,96.541a267.021,267.021,0,0,0-35.916-35.908l-87.152,87.161L398.3,35.715a264.035,264.035,0,0,0-46.185-21.142L290.788,148.75V1.233C282.423.445,273.958,0,265.384,0s-17.031.445-25.4,1.233V124.478L196.957,8.96a262.269,262.269,0,0,0-47.6,17.719l51.513,138.279L96.541,60.633A268,268,0,0,0,60.624,96.541L147.785,183.7,35.715,132.474a264.315,264.315,0,0,0-21.142,46.185L148.75,240H1.233C.445,248.361,0,256.818,0,265.384c0,8.583.445,17.04,1.233,25.4H124.478L8.952,333.819a262.977,262.977,0,0,0,17.719,47.612L164.95,329.909,60.624,434.227a267.083,267.083,0,0,0,35.916,35.916L183.7,382.983l-51.228,112.07A264.266,264.266,0,0,0,178.651,516.2l61.337-134.177V529.543c8.365.789,16.83,1.233,25.4,1.233s17.04-.445,25.4-1.233V406.3l43.031,115.527a264.14,264.14,0,0,0,47.6-17.711L329.9,365.826,434.227,470.144a266.109,266.109,0,0,0,35.916-35.916l-87.161-87.161,112.07,51.244A265.2,265.2,0,0,0,516.2,352.125L382.026,290.788H529.534c.8-8.365,1.242-16.821,1.242-25.4" fill="#dee4f0" opacity="0.12"/></g></g><path d="M618.344,309.167c0-9.979-.518-19.831-1.447-29.576H473.339l134.577-50.14A307.632,307.632,0,0,0,587.273,174l-161.1,60.012L547.708,112.468a311.075,311.075,0,0,0-41.842-41.832L404.335,172.177,464.015,41.607a307.6,307.6,0,0,0-53.805-24.63L338.763,173.291V1.437C329.018.518,319.156,0,309.167,0s-19.841.518-29.586,1.437V145.015L229.452,10.438a305.538,305.538,0,0,0-55.457,20.642l60.012,161.093L112.468,70.636a312.219,312.219,0,0,0-41.842,41.832L172.167,214.009,41.607,154.33a307.922,307.922,0,0,0-24.63,53.805l156.314,71.457H1.437C.518,289.336,0,299.188,0,309.167c0,10,.518,19.851,1.437,29.6H145.015L10.429,388.893a306.364,306.364,0,0,0,20.642,55.467l161.093-60.021L70.626,505.867a311.149,311.149,0,0,0,41.842,41.842L214.009,446.168,154.33,576.727a307.863,307.863,0,0,0,53.8,24.64l71.457-156.314V616.908c9.745.919,19.606,1.437,29.586,1.437s19.851-.518,29.6-1.437V473.329l50.13,134.586a307.711,307.711,0,0,0,55.457-20.633l-60.021-161.1L505.867,547.708a310.013,310.013,0,0,0,41.842-41.842L446.168,404.326l130.559,59.7a308.948,308.948,0,0,0,24.64-53.805L445.053,338.763H616.9c.929-9.745,1.447-19.6,1.447-29.6" transform="translate(-14335.129 -12938.46)" fill="none" stroke="#fff" stroke-width="1"/><rect width="9.32" height="2.485" transform="translate(-13114.48 -12874.489)" fill="#e9dcbf"/><g transform="translate(-13397.381 -13286.881)" style="isolation:isolate"><g transform="translate(0 0)" clip-path="url(#d)" style="isolation:isolate"><path d="M19.412,0h0a3.235,3.235,0,0,0-3.177,2.829A15.828,15.828,0,0,1,2.809,16.186a3.24,3.24,0,0,0,.021,6.425A15.7,15.7,0,0,1,16.256,35.965a3.2,3.2,0,0,0,6.351.056A15.957,15.957,0,0,1,36.08,22.531a3.091,3.091,0,0,0,2.737-3.043v-.076a3.2,3.2,0,0,0-2.807-3.156A15.958,15.958,0,0,1,22.584,2.8,3.221,3.221,0,0,0,19.412,0" transform="translate(0 0)" fill="#fff" stroke="#fff" stroke-width="1"/><path d="M40.955,0h0a3.235,3.235,0,0,0-3.177,2.829A15.828,15.828,0,0,1,24.352,16.186a3.24,3.24,0,0,0,.021,6.425A15.7,15.7,0,0,1,37.8,35.965a3.2,3.2,0,0,0,6.351.056,15.957,15.957,0,0,1,13.473-13.49,3.091,3.091,0,0,0,2.737-3.043v-.076a3.2,3.2,0,0,0-2.807-3.156A15.954,15.954,0,0,1,44.129,2.8,3.224,3.224,0,0,0,40.955,0" transform="translate(20.424 0)" fill="#fff" stroke="#fff" stroke-width="1"/><path d="M62.5,0h0a3.235,3.235,0,0,0-3.177,2.829A15.828,15.828,0,0,1,45.9,16.186a3.24,3.24,0,0,0,.021,6.425A15.7,15.7,0,0,1,59.342,35.965a3.2,3.2,0,0,0,6.351.056,15.957,15.957,0,0,1,13.473-13.49A3.091,3.091,0,0,0,81.9,19.488v-.076A3.2,3.2,0,0,0,79.1,16.256,15.958,15.958,0,0,1,65.67,2.8,3.221,3.221,0,0,0,62.5,0" transform="translate(40.847 0)" fill="#fff" stroke="#fff" stroke-width="1"/><path d="M84.042,0h0a3.235,3.235,0,0,0-3.177,2.829A15.828,15.828,0,0,1,67.439,16.186a3.24,3.24,0,0,0,.021,6.425A15.7,15.7,0,0,1,80.886,35.965a3.2,3.2,0,0,0,6.351.056,15.957,15.957,0,0,1,13.473-13.49,3.091,3.091,0,0,0,2.737-3.043v-.076a3.2,3.2,0,0,0-2.807-3.156A15.958,15.958,0,0,1,87.214,2.8,3.221,3.221,0,0,0,84.042,0" transform="translate(61.271 0)" fill="#fff" stroke="#fff" stroke-width="1"/><path d="M19.412,22.12h0a3.237,3.237,0,0,0-3.177,2.83A15.83,15.83,0,0,1,2.809,38.308a3.24,3.24,0,0,0,.021,6.425A15.7,15.7,0,0,1,16.256,58.087a3.2,3.2,0,0,0,6.351.055A15.957,15.957,0,0,1,36.08,44.653a3.092,3.092,0,0,0,2.737-3.043v-.078a3.205,3.205,0,0,0-2.807-3.156A15.956,15.956,0,0,1,22.584,24.919a3.221,3.221,0,0,0-3.171-2.8" transform="translate(0 20.97)" fill="#fff" stroke="#fff" stroke-width="1"/><path d="M40.955,22.12h0a3.237,3.237,0,0,0-3.177,2.83A15.83,15.83,0,0,1,24.352,38.308a3.24,3.24,0,0,0,.021,6.425A15.7,15.7,0,0,1,37.8,58.087a3.2,3.2,0,0,0,6.351.055A15.957,15.957,0,0,1,57.623,44.653,3.092,3.092,0,0,0,60.36,41.61v-.078a3.205,3.205,0,0,0-2.807-3.156A15.952,15.952,0,0,1,44.129,24.919a3.224,3.224,0,0,0-3.173-2.8" transform="translate(20.424 20.97)" fill="#fff" stroke="#fff" stroke-width="1"/><path d="M62.5,22.12h0a3.237,3.237,0,0,0-3.177,2.83A15.83,15.83,0,0,1,45.9,38.308a3.24,3.24,0,0,0,.021,6.425A15.7,15.7,0,0,1,59.342,58.087a3.2,3.2,0,0,0,6.351.055A15.957,15.957,0,0,1,79.166,44.653,3.092,3.092,0,0,0,81.9,41.61v-.078A3.205,3.205,0,0,0,79.1,38.376,15.956,15.956,0,0,1,65.67,24.919a3.221,3.221,0,0,0-3.171-2.8" transform="translate(40.847 20.97)" fill="#fff" stroke="#fff" stroke-width="1"/><path d="M84.042,22.12h0a3.237,3.237,0,0,0-3.177,2.83A15.83,15.83,0,0,1,67.439,38.308a3.24,3.24,0,0,0,.021,6.425A15.7,15.7,0,0,1,80.886,58.087a3.2,3.2,0,0,0,6.351.055A15.957,15.957,0,0,1,100.71,44.653a3.092,3.092,0,0,0,2.737-3.043v-.078a3.205,3.205,0,0,0-2.807-3.156A15.956,15.956,0,0,1,87.214,24.919a3.221,3.221,0,0,0-3.171-2.8" transform="translate(61.271 20.97)" fill="#fff" stroke="#fff" stroke-width="1"/><path d="M19.412,44.241h0a3.235,3.235,0,0,0-3.177,2.829A15.823,15.823,0,0,1,2.809,60.425a3.241,3.241,0,0,0,.021,6.427A15.7,15.7,0,0,1,16.256,80.206a3.2,3.2,0,0,0,6.351.056A15.957,15.957,0,0,1,36.08,66.772a3.092,3.092,0,0,0,2.737-3.043v-.076A3.2,3.2,0,0,0,36.009,60.5,15.958,15.958,0,0,1,22.584,47.04a3.221,3.221,0,0,0-3.171-2.8" transform="translate(0 41.942)" fill="#fff" stroke="#fff" stroke-width="1"/><path d="M40.955,44.241h0a3.235,3.235,0,0,0-3.177,2.829A15.823,15.823,0,0,1,24.352,60.425a3.241,3.241,0,0,0,.021,6.427A15.7,15.7,0,0,1,37.8,80.206a3.2,3.2,0,0,0,6.351.056,15.957,15.957,0,0,1,13.473-13.49,3.092,3.092,0,0,0,2.737-3.043v-.076A3.2,3.2,0,0,0,57.552,60.5,15.954,15.954,0,0,1,44.129,47.04a3.224,3.224,0,0,0-3.173-2.8" transform="translate(20.424 41.942)" fill="#fff" stroke="#fff" stroke-width="1"/><path d="M62.5,44.241h0a3.235,3.235,0,0,0-3.177,2.829A15.823,15.823,0,0,1,45.9,60.425a3.241,3.241,0,0,0,.021,6.427A15.7,15.7,0,0,1,59.342,80.206a3.2,3.2,0,0,0,6.351.056,15.957,15.957,0,0,1,13.473-13.49A3.092,3.092,0,0,0,81.9,63.729v-.076A3.2,3.2,0,0,0,79.1,60.5,15.958,15.958,0,0,1,65.67,47.04a3.221,3.221,0,0,0-3.171-2.8" transform="translate(40.847 41.942)" fill="#fff" stroke="#fff" stroke-width="1"/><path d="M84.042,44.241h0a3.235,3.235,0,0,0-3.177,2.829A15.823,15.823,0,0,1,67.439,60.425a3.241,3.241,0,0,0,.021,6.427A15.7,15.7,0,0,1,80.886,80.206a3.2,3.2,0,0,0,6.351.056,15.957,15.957,0,0,1,13.473-13.49,3.092,3.092,0,0,0,2.737-3.043v-.076a3.2,3.2,0,0,0-2.807-3.156A15.958,15.958,0,0,1,87.214,47.04a3.221,3.221,0,0,0-3.171-2.8" transform="translate(61.271 41.942)" fill="#fff" stroke="#fff" stroke-width="1"/><path d="M19.412,66.361h0a3.235,3.235,0,0,0-3.177,2.829A15.828,15.828,0,0,1,2.809,82.547a3.24,3.24,0,0,0,.021,6.425,15.7,15.7,0,0,1,13.426,13.354,3.2,3.2,0,0,0,6.351.056A15.957,15.957,0,0,1,36.08,88.892a3.091,3.091,0,0,0,2.737-3.043v-.076a3.2,3.2,0,0,0-2.807-3.156A15.958,15.958,0,0,1,22.584,69.16a3.221,3.221,0,0,0-3.171-2.8" transform="translate(0 62.912)" fill="#fff" stroke="#fff" stroke-width="1"/><path d="M40.955,66.361h0a3.235,3.235,0,0,0-3.177,2.829A15.827,15.827,0,0,1,24.352,82.547a3.24,3.24,0,0,0,.021,6.425A15.7,15.7,0,0,1,37.8,102.326a3.2,3.2,0,0,0,6.351.056,15.957,15.957,0,0,1,13.473-13.49,3.091,3.091,0,0,0,2.737-3.043v-.076a3.2,3.2,0,0,0-2.807-3.156A15.954,15.954,0,0,1,44.129,69.16a3.224,3.224,0,0,0-3.173-2.8" transform="translate(20.424 62.912)" fill="#fff" stroke="#fff" stroke-width="1"/><path d="M62.5,66.361h0a3.235,3.235,0,0,0-3.177,2.829A15.827,15.827,0,0,1,45.9,82.547a3.24,3.24,0,0,0,.021,6.425,15.7,15.7,0,0,1,13.426,13.354,3.2,3.2,0,0,0,6.351.056,15.957,15.957,0,0,1,13.473-13.49A3.091,3.091,0,0,0,81.9,85.849v-.076A3.2,3.2,0,0,0,79.1,82.617,15.958,15.958,0,0,1,65.67,69.16a3.221,3.221,0,0,0-3.171-2.8" transform="translate(40.847 62.912)" fill="#fff" stroke="#fff" stroke-width="1"/><path d="M84.042,66.361h0a3.235,3.235,0,0,0-3.177,2.829A15.827,15.827,0,0,1,67.439,82.547a3.24,3.24,0,0,0,.021,6.425,15.7,15.7,0,0,1,13.426,13.354,3.2,3.2,0,0,0,6.351.056,15.957,15.957,0,0,1,13.473-13.49,3.091,3.091,0,0,0,2.737-3.043v-.076a3.2,3.2,0,0,0-2.807-3.156A15.958,15.958,0,0,1,87.214,69.16a3.221,3.221,0,0,0-3.171-2.8" transform="translate(61.271 62.912)" fill="#fff" stroke="#fff" stroke-width="1"/></g></g></g><line x1="0.5" y1="836" transform="translate(-3596.743 -5143.5)" fill="none" stroke="#373660" stroke-width="2"/><rect width="188" height="49" rx="24.5" transform="translate(-3532 -5203.305)" fill="#cbc232"/><text transform="translate(-3439 -5172.305)" fill="#12263f" font-size="18" font-family="Roboto-Black, Roboto" font-weight="800"><tspan x="-70.049" y="0">Clientes actuales</tspan></text><g transform="translate(795.771 41)"><line y1="100.5" x2="0.152" transform="translate(-4343.5 -5087)" fill="none" stroke="#a5b9f6" stroke-width="2"/><line x1="35.848" y1="0.25" transform="translate(-4343.348 -5049.5)" fill="none" stroke="#a5b9f6" stroke-width="2"/><line x1="35.848" y1="0.25" transform="translate(-4343.348 -4986.5)" fill="none" stroke="#a5b9f6" stroke-width="2"/><rect width="129" height="49" rx="24.5" transform="translate(-4325 -5077)" fill="#dbe3fb"/><rect width="129" height="49" rx="24.5" transform="translate(-4325 -5014)" fill="#dbe3fb"/><g transform="translate(-4647.771 -11580.826)"><text transform="translate(375.348 6448.826)" fill="#12263f" font-size="16" font-family="Roboto-Black, Roboto" font-weight="800"><tspan x="0" y="0">Según su</tspan><tspan x="0" y="20">vigencia</tspan></text><g transform="translate(306.974 6425.326)"><path d="M15.836,9.921a.85.85,0,0,0,.85-.85V7.956a.85.85,0,1,0-1.7,0V9.072A.85.85,0,0,0,15.836,9.921Z" transform="translate(18.654 10.068)" fill="#a5b9f6"/><path d="M12.807,9.921a.85.85,0,0,0,.85-.85V7.956a.85.85,0,1,0-1.7,0V9.072A.85.85,0,0,0,12.807,9.921Z" transform="translate(14.362 10.068)" fill="#a5b9f6"/><path d="M15.567,13.31a2.984,2.984,0,0,0,2.981-2.981.85.85,0,0,0-1.7,0,1.281,1.281,0,1,1-2.562,0,.85.85,0,0,0-1.7,0A2.984,2.984,0,0,0,15.567,13.31Z" transform="translate(15.254 13.43)" fill="#a5b9f6"/><path d="M50.176,45.562a.85.85,0,0,0,.85-.85V42.077a5.6,5.6,0,0,0-3.876-5.333l-10.507-3.31v-3.38A9.162,9.162,0,0,0,40.2,22.285c1.949.15,4.073-1.006,4.073-3.217V17.294a3.2,3.2,0,0,0-.872-2.2c.011-.055.017-2.424.017-2.424a.85.85,0,1,0-1.7,0v1.4H29.821a2.552,2.552,0,0,1-2.549-2.549V4.248A2.552,2.552,0,0,1,29.821,1.7h5.768a6.134,6.134,0,0,1,6.127,6.127V8.968a.85.85,0,1,0,1.7,0V7.826A7.835,7.835,0,0,0,35.589,0H29.821a4.254,4.254,0,0,0-4.184,3.519H24.212a5.955,5.955,0,0,0-5.948,5.948s0,5.551.012,5.6a3.206,3.206,0,0,0-.9,2.232v1.774c0,2.177,2.114,3.384,4.074,3.217A9.033,9.033,0,0,0,25,30.054v3.414l-7.644,2.857a4.252,4.252,0,0,0-1.877,1.387L10.557,44.1V41.259a2.543,2.543,0,0,0-.88-1.924V35.816a2.609,2.609,0,1,0-5.218,0V38.71a2.345,2.345,0,0,0-2.639,2.549v7.159A2.553,2.553,0,0,0,3.579,50.84v2.916A4.291,4.291,0,0,0,11.4,56.151l4.5-5.435V57.15a.85.85,0,0,0,.85.85H50.176a.85.85,0,0,0,.85-.85V48.416a.85.85,0,0,0-1.7,0V56.3H43.988V45.027a.85.85,0,1,0-1.7,0v.688H17.6v-.877a.85.85,0,1,0-1.7,0v3.213L10.062,55.1c-1.391,1.679-4.783,1.73-4.783-1.343v-2.79h2.7v.91a.85.85,0,1,0,1.7,0V50.341a2.544,2.544,0,0,0,.88-1.925v-1.53l6.269-8.137a2.554,2.554,0,0,1,1.127-.833l7.76-2.9,4.6,3.462a.889.889,0,0,0,1.076-.041L35.953,35l10.677,3.364a3.9,3.9,0,0,1,2.7,3.715v2.635a.85.85,0,0,0,.85.85Zm-7.888,1.852v5.372H27.7a.85.85,0,0,0,0,1.7H42.289V56.3H17.6V54.486H24a.85.85,0,0,0,0-1.7H17.6V47.414Zm-36.13-11.6a.91.91,0,1,1,1.82,0V38.71H6.158ZM3.519,41.259a.851.851,0,0,1,.85-.85H8.008a.851.851,0,0,1,.85.85v.97H6.188a.85.85,0,1,0,0,1.7H8.858v1.82H6.188a.85.85,0,1,0,0,1.7H8.858v.97c0,.567-.344.811-.849.849H4.369a.851.851,0,0,1-.85-.85ZM42.57,19.068a1.519,1.519,0,0,1-1.518,1.518H40.2v-4.81h.856a1.519,1.519,0,0,1,1.518,1.518Zm-22.607-9.6a4.253,4.253,0,0,1,4.248-4.248h1.361v6.309h0a2.552,2.552,0,0,1-2.549,2.549h-3.06Zm.626,11.119a1.519,1.519,0,0,1-1.518-1.518V17.294a1.519,1.519,0,0,1,1.518-1.518h.857v4.81H20.59Zm2.556,2.447V15.773a4.244,4.244,0,0,0,3.277-1.7,4.245,4.245,0,0,0,3.4,1.7H38.5v7.256c0,9.337-15.351,9.326-15.351,0Zm11.8,8v2.6l-4.121,3.106L26.7,33.63v-2.6c2.026,1.216,6.067,1.14,8.243,0Z" transform="translate(0 0)" fill="#a5b9f6"/><path d="M4.92,12.962a.85.85,0,0,0,1.2,0L9.641,9.443a.85.85,0,0,0-1.2-1.2L5.521,11.159,4.362,10a.85.85,0,1,0-1.2,1.2Z" transform="translate(1.547 11.322)" fill="#a5b9f6"/><path d="M4.368,21.647h7.158A2.552,2.552,0,0,0,14.076,19.1v-.97h2.669c.9-.007,1.294-.692.6-1.447L14.076,13.37V8.341a2.552,2.552,0,0,0-2.549-2.549H4.368A2.552,2.552,0,0,0,1.819,8.341V19.1a2.552,2.552,0,0,0,2.549,2.549ZM3.519,8.341a.851.851,0,0,1,.85-.85h7.158a.851.851,0,0,1,.85.85v5.379a.849.849,0,0,0,.245.6l2.088,2.112H13.226a.85.85,0,0,0-.85.85V19.1a.851.851,0,0,1-.85.85H4.368a.851.851,0,0,1-.85-.85Z" transform="translate(0 8.205)" fill="#a5b9f6"/></g><g transform="translate(285 6414.826)" fill="none" stroke="#a5b9f6" stroke-width="2"><rect width="192" height="79" rx="25" stroke="none"/><rect x="1" y="1" width="190" height="77" rx="24" fill="none"/></g></g><text transform="translate(-4266 -5047)" fill="#12263f" font-size="16" font-family="Roboto-Black, Roboto" font-weight="800"><tspan x="-27.215" y="0">Activos</tspan></text><text transform="translate(-4266 -4984)" fill="#12263f" font-size="16" font-family="Roboto-Black, Roboto" font-weight="800"><tspan x="-32.938" y="0">Inactivos</tspan></text></g><g transform="translate(291.771 537.412)"><line y1="156.5" x2="0.305" transform="translate(-3823.5 -5087)" fill="none" stroke="#a5b9f6" stroke-width="2"/><line x1="35.848" y1="0.25" transform="translate(-3823.195 -5049.5)" fill="none" stroke="#a5b9f6" stroke-width="2"/><line x1="35.848" y1="0.25" transform="translate(-3823.195 -4986.5)" fill="none" stroke="#a5b9f6" stroke-width="2"/><line x1="35.848" y1="0.25" transform="translate(-3823.348 -4930.5)" fill="none" stroke="#a5b9f6" stroke-width="2"/><rect width="189.5" height="49" rx="24.5" transform="translate(-3804.848 -5077)" fill="#dbe3fb"/><rect width="189.5" height="49" rx="24.5" transform="translate(-3804.848 -5014)" fill="#dbe3fb"/><rect width="189.5" height="49" rx="24.5" transform="translate(-3805.271 -4955)" fill="#dbe3fb"/><g transform="translate(-4143.771 -11580.826)"><text transform="translate(389.348 6449.826)" fill="#12263f" font-size="16" font-family="Roboto-Black, Roboto" font-weight="800"><tspan x="0" y="0">Según su</tspan><tspan x="0" y="20">frecuencia de compra</tspan></text><g transform="translate(306.974 6425.326)"><path d="M15.836,9.921a.85.85,0,0,0,.85-.85V7.956a.85.85,0,1,0-1.7,0V9.072A.85.85,0,0,0,15.836,9.921Z" transform="translate(18.654 10.068)" fill="#a5b9f6"/><path d="M12.807,9.921a.85.85,0,0,0,.85-.85V7.956a.85.85,0,1,0-1.7,0V9.072A.85.85,0,0,0,12.807,9.921Z" transform="translate(14.362 10.068)" fill="#a5b9f6"/><path d="M15.567,13.31a2.984,2.984,0,0,0,2.981-2.981.85.85,0,0,0-1.7,0,1.281,1.281,0,1,1-2.562,0,.85.85,0,0,0-1.7,0A2.984,2.984,0,0,0,15.567,13.31Z" transform="translate(15.254 13.43)" fill="#a5b9f6"/><path d="M50.176,45.562a.85.85,0,0,0,.85-.85V42.077a5.6,5.6,0,0,0-3.876-5.333l-10.507-3.31v-3.38A9.162,9.162,0,0,0,40.2,22.285c1.949.15,4.073-1.006,4.073-3.217V17.294a3.2,3.2,0,0,0-.872-2.2c.011-.055.017-2.424.017-2.424a.85.85,0,1,0-1.7,0v1.4H29.821a2.552,2.552,0,0,1-2.549-2.549V4.248A2.552,2.552,0,0,1,29.821,1.7h5.768a6.134,6.134,0,0,1,6.127,6.127V8.968a.85.85,0,1,0,1.7,0V7.826A7.835,7.835,0,0,0,35.589,0H29.821a4.254,4.254,0,0,0-4.184,3.519H24.212a5.955,5.955,0,0,0-5.948,5.948s0,5.551.012,5.6a3.206,3.206,0,0,0-.9,2.232v1.774c0,2.177,2.114,3.384,4.074,3.217A9.033,9.033,0,0,0,25,30.054v3.414l-7.644,2.857a4.252,4.252,0,0,0-1.877,1.387L10.557,44.1V41.259a2.543,2.543,0,0,0-.88-1.924V35.816a2.609,2.609,0,1,0-5.218,0V38.71a2.345,2.345,0,0,0-2.639,2.549v7.159A2.553,2.553,0,0,0,3.579,50.84v2.916A4.291,4.291,0,0,0,11.4,56.151l4.5-5.435V57.15a.85.85,0,0,0,.85.85H50.176a.85.85,0,0,0,.85-.85V48.416a.85.85,0,0,0-1.7,0V56.3H43.988V45.027a.85.85,0,1,0-1.7,0v.688H17.6v-.877a.85.85,0,1,0-1.7,0v3.213L10.062,55.1c-1.391,1.679-4.783,1.73-4.783-1.343v-2.79h2.7v.91a.85.85,0,1,0,1.7,0V50.341a2.544,2.544,0,0,0,.88-1.925v-1.53l6.269-8.137a2.554,2.554,0,0,1,1.127-.833l7.76-2.9,4.6,3.462a.889.889,0,0,0,1.076-.041L35.953,35l10.677,3.364a3.9,3.9,0,0,1,2.7,3.715v2.635a.85.85,0,0,0,.85.85Zm-7.888,1.852v5.372H27.7a.85.85,0,0,0,0,1.7H42.289V56.3H17.6V54.486H24a.85.85,0,0,0,0-1.7H17.6V47.414Zm-36.13-11.6a.91.91,0,1,1,1.82,0V38.71H6.158ZM3.519,41.259a.851.851,0,0,1,.85-.85H8.008a.851.851,0,0,1,.85.85v.97H6.188a.85.85,0,1,0,0,1.7H8.858v1.82H6.188a.85.85,0,1,0,0,1.7H8.858v.97c0,.567-.344.811-.849.849H4.369a.851.851,0,0,1-.85-.85ZM42.57,19.068a1.519,1.519,0,0,1-1.518,1.518H40.2v-4.81h.856a1.519,1.519,0,0,1,1.518,1.518Zm-22.607-9.6a4.253,4.253,0,0,1,4.248-4.248h1.361v6.309h0a2.552,2.552,0,0,1-2.549,2.549h-3.06Zm.626,11.119a1.519,1.519,0,0,1-1.518-1.518V17.294a1.519,1.519,0,0,1,1.518-1.518h.857v4.81H20.59Zm2.556,2.447V15.773a4.244,4.244,0,0,0,3.277-1.7,4.245,4.245,0,0,0,3.4,1.7H38.5v7.256c0,9.337-15.351,9.326-15.351,0Zm11.8,8v2.6l-4.121,3.106L26.7,33.63v-2.6c2.026,1.216,6.067,1.14,8.243,0Z" transform="translate(0 0)" fill="#a5b9f6"/><path d="M4.92,12.962a.85.85,0,0,0,1.2,0L9.641,9.443a.85.85,0,0,0-1.2-1.2L5.521,11.159,4.362,10a.85.85,0,1,0-1.2,1.2Z" transform="translate(1.547 11.322)" fill="#a5b9f6"/><path d="M4.368,21.647h7.158A2.552,2.552,0,0,0,14.076,19.1v-.97h2.669c.9-.007,1.294-.692.6-1.447L14.076,13.37V8.341a2.552,2.552,0,0,0-2.549-2.549H4.368A2.552,2.552,0,0,0,1.819,8.341V19.1a2.552,2.552,0,0,0,2.549,2.549ZM3.519,8.341a.851.851,0,0,1,.85-.85h7.158a.851.851,0,0,1,.85.85v5.379a.849.849,0,0,0,.245.6l2.088,2.112H13.226a.85.85,0,0,0-.85.85V19.1a.851.851,0,0,1-.85.85H4.368a.851.851,0,0,1-.85-.85Z" transform="translate(0 8.205)" fill="#a5b9f6"/></g><g transform="translate(285 6414.826)" fill="none" stroke="#a5b9f6" stroke-width="2"><rect width="273" height="79" rx="25" stroke="none"/><rect x="1" y="1" width="271" height="77" rx="24" fill="none"/></g></g><text transform="translate(-3713.848 -5047)" fill="#12263f" font-size="16" font-family="Roboto-Black, Roboto" font-weight="800"><tspan x="-65.211" y="0">Compra frecuente</tspan></text><text transform="translate(-3722.271 -4984)" fill="#12263f" font-size="16" font-family="Roboto-Black, Roboto" font-weight="800"><tspan x="-59.457" y="0">Compra habitual</tspan></text><text transform="translate(-3716.271 -4925)" fill="#12263f" font-size="16" font-family="Roboto-Black, Roboto" font-weight="800"><tspan x="-64.93" y="0">Compra ocasional</tspan></text></g><g transform="translate(583.771 259.706)"><line y1="156.5" x2="0.305" transform="translate(-4129.424 -5087)" fill="none" stroke="#d2c6ac" stroke-width="2"/><line x1="35.848" y1="0.25" transform="translate(-4129.119 -5049.5)" fill="none" stroke="#d2c6ac" stroke-width="2"/><line x1="35.848" y1="0.25" transform="translate(-4129.119 -4986.5)" fill="none" stroke="#d2c6ac" stroke-width="2"/><line x1="35.848" y1="0.25" transform="translate(-4129.271 -4930.5)" fill="none" stroke="#d2c6ac" stroke-width="2"/><rect width="142.333" height="49" rx="24.5" transform="translate(-4110.771 -5077)" fill="#f6f1e5"/><rect width="189.5" height="49" rx="24.5" transform="translate(-4110.771 -5014)" fill="#f6f1e5"/><rect width="233.424" height="49" rx="24.5" transform="translate(-4111.195 -4955)" fill="#f6f1e5"/><g transform="translate(-4435.771 -11580.826)"><text transform="translate(389.348 6449.826)" fill="#12263f" font-size="16" font-family="Roboto-Black, Roboto" font-weight="800"><tspan x="0" y="0">Según su</tspan><tspan x="0" y="20">volumen de compra</tspan></text><g transform="translate(306.974 6425.326)"><path d="M15.836,9.921a.85.85,0,0,0,.85-.85V7.956a.85.85,0,1,0-1.7,0V9.072A.85.85,0,0,0,15.836,9.921Z" transform="translate(18.654 10.068)" fill="#d2c6ac"/><path d="M12.807,9.921a.85.85,0,0,0,.85-.85V7.956a.85.85,0,1,0-1.7,0V9.072A.85.85,0,0,0,12.807,9.921Z" transform="translate(14.362 10.068)" fill="#d2c6ac"/><path d="M15.567,13.31a2.984,2.984,0,0,0,2.981-2.981.85.85,0,0,0-1.7,0,1.281,1.281,0,1,1-2.562,0,.85.85,0,0,0-1.7,0A2.984,2.984,0,0,0,15.567,13.31Z" transform="translate(15.254 13.43)" fill="#d2c6ac"/><path d="M50.176,45.562a.85.85,0,0,0,.85-.85V42.077a5.6,5.6,0,0,0-3.876-5.333l-10.507-3.31v-3.38A9.162,9.162,0,0,0,40.2,22.285c1.949.15,4.073-1.006,4.073-3.217V17.294a3.2,3.2,0,0,0-.872-2.2c.011-.055.017-2.424.017-2.424a.85.85,0,1,0-1.7,0v1.4H29.821a2.552,2.552,0,0,1-2.549-2.549V4.248A2.552,2.552,0,0,1,29.821,1.7h5.768a6.134,6.134,0,0,1,6.127,6.127V8.968a.85.85,0,1,0,1.7,0V7.826A7.835,7.835,0,0,0,35.589,0H29.821a4.254,4.254,0,0,0-4.184,3.519H24.212a5.955,5.955,0,0,0-5.948,5.948s0,5.551.012,5.6a3.206,3.206,0,0,0-.9,2.232v1.774c0,2.177,2.114,3.384,4.074,3.217A9.033,9.033,0,0,0,25,30.054v3.414l-7.644,2.857a4.252,4.252,0,0,0-1.877,1.387L10.557,44.1V41.259a2.543,2.543,0,0,0-.88-1.924V35.816a2.609,2.609,0,1,0-5.218,0V38.71a2.345,2.345,0,0,0-2.639,2.549v7.159A2.553,2.553,0,0,0,3.579,50.84v2.916A4.291,4.291,0,0,0,11.4,56.151l4.5-5.435V57.15a.85.85,0,0,0,.85.85H50.176a.85.85,0,0,0,.85-.85V48.416a.85.85,0,0,0-1.7,0V56.3H43.988V45.027a.85.85,0,1,0-1.7,0v.688H17.6v-.877a.85.85,0,1,0-1.7,0v3.213L10.062,55.1c-1.391,1.679-4.783,1.73-4.783-1.343v-2.79h2.7v.91a.85.85,0,1,0,1.7,0V50.341a2.544,2.544,0,0,0,.88-1.925v-1.53l6.269-8.137a2.554,2.554,0,0,1,1.127-.833l7.76-2.9,4.6,3.462a.889.889,0,0,0,1.076-.041L35.953,35l10.677,3.364a3.9,3.9,0,0,1,2.7,3.715v2.635a.85.85,0,0,0,.85.85Zm-7.888,1.852v5.372H27.7a.85.85,0,0,0,0,1.7H42.289V56.3H17.6V54.486H24a.85.85,0,0,0,0-1.7H17.6V47.414Zm-36.13-11.6a.91.91,0,1,1,1.82,0V38.71H6.158ZM3.519,41.259a.851.851,0,0,1,.85-.85H8.008a.851.851,0,0,1,.85.85v.97H6.188a.85.85,0,1,0,0,1.7H8.858v1.82H6.188a.85.85,0,1,0,0,1.7H8.858v.97c0,.567-.344.811-.849.849H4.369a.851.851,0,0,1-.85-.85ZM42.57,19.068a1.519,1.519,0,0,1-1.518,1.518H40.2v-4.81h.856a1.519,1.519,0,0,1,1.518,1.518Zm-22.607-9.6a4.253,4.253,0,0,1,4.248-4.248h1.361v6.309h0a2.552,2.552,0,0,1-2.549,2.549h-3.06Zm.626,11.119a1.519,1.519,0,0,1-1.518-1.518V17.294a1.519,1.519,0,0,1,1.518-1.518h.857v4.81H20.59Zm2.556,2.447V15.773a4.244,4.244,0,0,0,3.277-1.7,4.245,4.245,0,0,0,3.4,1.7H38.5v7.256c0,9.337-15.351,9.326-15.351,0Zm11.8,8v2.6l-4.121,3.106L26.7,33.63v-2.6c2.026,1.216,6.067,1.14,8.243,0Z" transform="translate(0 0)" fill="#d2c6ac"/><path d="M4.92,12.962a.85.85,0,0,0,1.2,0L9.641,9.443a.85.85,0,0,0-1.2-1.2L5.521,11.159,4.362,10a.85.85,0,1,0-1.2,1.2Z" transform="translate(1.547 11.322)" fill="#d2c6ac"/><path d="M4.368,21.647h7.158A2.552,2.552,0,0,0,14.076,19.1v-.97h2.669c.9-.007,1.294-.692.6-1.447L14.076,13.37V8.341a2.552,2.552,0,0,0-2.549-2.549H4.368A2.552,2.552,0,0,0,1.819,8.341V19.1a2.552,2.552,0,0,0,2.549,2.549ZM3.519,8.341a.851.851,0,0,1,.85-.85h7.158a.851.851,0,0,1,.85.85v5.379a.849.849,0,0,0,.245.6l2.088,2.112H13.226a.85.85,0,0,0-.85.85V19.1a.851.851,0,0,1-.85.85H4.368a.851.851,0,0,1-.85-.85Z" transform="translate(0 8.205)" fill="#d2c6ac"/></g><g transform="translate(285 6414.826)" fill="none" stroke="#d2c6ac" stroke-width="2"><rect width="273" height="79" rx="25" stroke="none"/><rect x="1" y="1" width="271" height="77" rx="24" fill="none"/></g></g><text transform="translate(-4035.438 -5047)" fill="#12263f" font-size="16" font-family="Roboto-Black, Roboto" font-weight="800"><tspan x="-47.797" y="0">Alto volumen</tspan></text><text transform="translate(-3996.257 -4925)" fill="#12263f" font-size="16" font-family="Roboto-Black, Roboto" font-weight="800"><tspan x="-93.227" y="0">Bajo volumen de compras</tspan></text><text transform="translate(-4020.528 -4984)" fill="#12263f" font-size="16" font-family="Roboto-Black, Roboto" font-weight="800"><tspan x="-64.613" y="0">Compra promedio</tspan></text></g><g transform="translate(7.924 815.118)"><line y1="156.5" x2="0.305" transform="translate(-3531.348 -5087)" fill="none" stroke="#ff7e5d" stroke-width="2"/><line x1="35.848" y1="0.25" transform="translate(-3531.043 -5049.5)" fill="none" stroke="#ff7e5d" stroke-width="2"/><line x1="35.848" y1="0.25" transform="translate(-3531.043 -4986.5)" fill="none" stroke="#ff7e5d" stroke-width="2"/><line x1="35.848" y1="0.25" transform="translate(-3531.195 -4930.5)" fill="none" stroke="#ff7e5d" stroke-width="2"/><rect width="127.348" height="49" rx="24.5" transform="translate(-3512.695 -5077)" fill="#fff2ee"/><rect width="117.5" height="49" rx="24.5" transform="translate(-3512.695 -5014)" fill="#fff2ee"/><rect width="155.5" height="49" rx="24.5" transform="translate(-3513.119 -4955)" fill="#fff2ee"/><g transform="translate(-3859.924 -11580.826)"><text transform="translate(389.348 6449.826)" fill="#12263f" font-size="16" font-family="Roboto-Black, Roboto" font-weight="800"><tspan x="0" y="0">Según su</tspan><tspan x="0" y="20">nivel desatisfacción</tspan></text><g transform="translate(306.974 6425.326)"><path d="M15.836,9.921a.85.85,0,0,0,.85-.85V7.956a.85.85,0,1,0-1.7,0V9.072A.85.85,0,0,0,15.836,9.921Z" transform="translate(18.654 10.068)" fill="#ff7e5d"/><path d="M12.807,9.921a.85.85,0,0,0,.85-.85V7.956a.85.85,0,1,0-1.7,0V9.072A.85.85,0,0,0,12.807,9.921Z" transform="translate(14.362 10.068)" fill="#ff7e5d"/><path d="M15.567,13.31a2.984,2.984,0,0,0,2.981-2.981.85.85,0,0,0-1.7,0,1.281,1.281,0,1,1-2.562,0,.85.85,0,0,0-1.7,0A2.984,2.984,0,0,0,15.567,13.31Z" transform="translate(15.254 13.43)" fill="#ff7e5d"/><path d="M50.176,45.562a.85.85,0,0,0,.85-.85V42.077a5.6,5.6,0,0,0-3.876-5.333l-10.507-3.31v-3.38A9.162,9.162,0,0,0,40.2,22.285c1.949.15,4.073-1.006,4.073-3.217V17.294a3.2,3.2,0,0,0-.872-2.2c.011-.055.017-2.424.017-2.424a.85.85,0,1,0-1.7,0v1.4H29.821a2.552,2.552,0,0,1-2.549-2.549V4.248A2.552,2.552,0,0,1,29.821,1.7h5.768a6.134,6.134,0,0,1,6.127,6.127V8.968a.85.85,0,1,0,1.7,0V7.826A7.835,7.835,0,0,0,35.589,0H29.821a4.254,4.254,0,0,0-4.184,3.519H24.212a5.955,5.955,0,0,0-5.948,5.948s0,5.551.012,5.6a3.206,3.206,0,0,0-.9,2.232v1.774c0,2.177,2.114,3.384,4.074,3.217A9.033,9.033,0,0,0,25,30.054v3.414l-7.644,2.857a4.252,4.252,0,0,0-1.877,1.387L10.557,44.1V41.259a2.543,2.543,0,0,0-.88-1.924V35.816a2.609,2.609,0,1,0-5.218,0V38.71a2.345,2.345,0,0,0-2.639,2.549v7.159A2.553,2.553,0,0,0,3.579,50.84v2.916A4.291,4.291,0,0,0,11.4,56.151l4.5-5.435V57.15a.85.85,0,0,0,.85.85H50.176a.85.85,0,0,0,.85-.85V48.416a.85.85,0,0,0-1.7,0V56.3H43.988V45.027a.85.85,0,1,0-1.7,0v.688H17.6v-.877a.85.85,0,1,0-1.7,0v3.213L10.062,55.1c-1.391,1.679-4.783,1.73-4.783-1.343v-2.79h2.7v.91a.85.85,0,1,0,1.7,0V50.341a2.544,2.544,0,0,0,.88-1.925v-1.53l6.269-8.137a2.554,2.554,0,0,1,1.127-.833l7.76-2.9,4.6,3.462a.889.889,0,0,0,1.076-.041L35.953,35l10.677,3.364a3.9,3.9,0,0,1,2.7,3.715v2.635a.85.85,0,0,0,.85.85Zm-7.888,1.852v5.372H27.7a.85.85,0,0,0,0,1.7H42.289V56.3H17.6V54.486H24a.85.85,0,0,0,0-1.7H17.6V47.414Zm-36.13-11.6a.91.91,0,1,1,1.82,0V38.71H6.158ZM3.519,41.259a.851.851,0,0,1,.85-.85H8.008a.851.851,0,0,1,.85.85v.97H6.188a.85.85,0,1,0,0,1.7H8.858v1.82H6.188a.85.85,0,1,0,0,1.7H8.858v.97c0,.567-.344.811-.849.849H4.369a.851.851,0,0,1-.85-.85ZM42.57,19.068a1.519,1.519,0,0,1-1.518,1.518H40.2v-4.81h.856a1.519,1.519,0,0,1,1.518,1.518Zm-22.607-9.6a4.253,4.253,0,0,1,4.248-4.248h1.361v6.309h0a2.552,2.552,0,0,1-2.549,2.549h-3.06Zm.626,11.119a1.519,1.519,0,0,1-1.518-1.518V17.294a1.519,1.519,0,0,1,1.518-1.518h.857v4.81H20.59Zm2.556,2.447V15.773a4.244,4.244,0,0,0,3.277-1.7,4.245,4.245,0,0,0,3.4,1.7H38.5v7.256c0,9.337-15.351,9.326-15.351,0Zm11.8,8v2.6l-4.121,3.106L26.7,33.63v-2.6c2.026,1.216,6.067,1.14,8.243,0Z" transform="translate(0 0)" fill="#ff7e5d"/><path d="M4.92,12.962a.85.85,0,0,0,1.2,0L9.641,9.443a.85.85,0,0,0-1.2-1.2L5.521,11.159,4.362,10a.85.85,0,1,0-1.2,1.2Z" transform="translate(1.547 11.322)" fill="#ff7e5d"/><path d="M4.368,21.647h7.158A2.552,2.552,0,0,0,14.076,19.1v-.97h2.669c.9-.007,1.294-.692.6-1.447L14.076,13.37V8.341a2.552,2.552,0,0,0-2.549-2.549H4.368A2.552,2.552,0,0,0,1.819,8.341V19.1a2.552,2.552,0,0,0,2.549,2.549ZM3.519,8.341a.851.851,0,0,1,.85-.85h7.158a.851.851,0,0,1,.85.85v5.379a.849.849,0,0,0,.245.6l2.088,2.112H13.226a.85.85,0,0,0-.85.85V19.1a.851.851,0,0,1-.85.85H4.368a.851.851,0,0,1-.85-.85Z" transform="translate(0 8.205)" fill="#ff7e5d"/></g><g transform="translate(285 6414.826)" fill="none" stroke="#ff7e5d" stroke-width="2"><rect width="273" height="79" rx="25" stroke="none"/><rect x="1" y="1" width="271" height="77" rx="24" fill="none"/></g></g><text transform="translate(-3450.348 -5047)" fill="#12263f" font-size="16" font-family="Roboto-Black, Roboto" font-weight="800"><tspan x="-42.813" y="0">Satisfechos</tspan></text><text transform="translate(-3436.348 -4924.75)" fill="#12263f" font-size="16" font-family="Roboto-Black, Roboto" font-weight="800"><tspan x="-50.973" y="0">Insatisfacción</tspan></text><text transform="translate(-3452.945 -4984)" fill="#12263f" font-size="16" font-family="Roboto-Black, Roboto" font-weight="800"><tspan x="-35.043" y="0">Neutrales</tspan></text></g><circle cx="48" cy="48" r="48" transform="translate(-3613.743 -5226.899)" fill="#fff"/><g transform="translate(-3595.51 -5207.999)"><path d="M30.151,15.954a1.122,1.122,0,0,0,1.011-.011c.906-.472,3.864-2.2,3.9-4.571a2.855,2.855,0,0,0-4.409-2.4,2.827,2.827,0,0,0-1.549-.46,2.938,2.938,0,0,0-2.864,2.83c-.05,2.463,2.982,4.153,3.913,4.612Zm-1.057-5.737H29.1a1.138,1.138,0,0,1,.783.314h0a1.12,1.12,0,0,0,1.528,0,1.151,1.151,0,0,1,1.942.815c-.016,1.124-1.608,2.313-2.717,2.94-1.121-.6-2.719-1.765-2.7-2.91a1.21,1.21,0,0,1,1.151-1.16Z" transform="translate(15.589 5.248)" fill="#cbc232"/><path d="M8.2,15.954a1.122,1.122,0,0,0,1.011-.011c.906-.472,3.864-2.2,3.9-4.571A2.855,2.855,0,0,0,8.7,8.972a2.828,2.828,0,0,0-1.569-.46,2.9,2.9,0,0,0-2.844,2.83c-.05,2.463,2.982,4.153,3.913,4.612ZM7.147,10.217h.008a1.138,1.138,0,0,1,.783.314h0a1.12,1.12,0,0,0,1.528,0,1.151,1.151,0,0,1,1.942.815c-.016,1.124-1.608,2.313-2.717,2.94-1.12-.6-2.719-1.765-2.7-2.91a1.21,1.21,0,0,1,1.151-1.16Z" transform="translate(2.056 5.248)" fill="#cbc232"/><path d="M4.539,23.833H7.282a.365.365,0,0,1,.259.107L9.4,25.793a1.467,1.467,0,0,0,2.058.007l1.893-1.862a.364.364,0,0,1,.257-.105h2.71a3.051,3.051,0,0,0,3.047-3.047v-3.2a3.883,3.883,0,0,0,1.324.232h3.676a.977.977,0,0,1,.733.331l1.858,2.111a1.707,1.707,0,0,0,1.274.579h.007a1.707,1.707,0,0,0,1.272-.568l1.9-2.127a.977.977,0,0,1,.728-.325h3.635a3.886,3.886,0,0,0,1.2-.19v3.155a3.051,3.051,0,0,0,3.047,3.047h2.743a.365.365,0,0,1,.259.107l1.857,1.853a1.467,1.467,0,0,0,2.058.007l1.893-1.862a.365.365,0,0,1,.257-.105H51.8a3.051,3.051,0,0,0,3.047-3.047V12.875A3.051,3.051,0,0,0,51.8,9.827H39.671V3.9a3.905,3.905,0,0,0-3.9-3.9H28.825a.853.853,0,1,0,0,1.705h6.945a2.2,2.2,0,0,1,2.2,2.2V13.92a2.2,2.2,0,0,1-2.2,2.2H32.136a2.685,2.685,0,0,0-2,.893l-1.9,2.127-1.858-2.111a2.682,2.682,0,0,0-2.013-.91H20.686a2.2,2.2,0,0,1-2.2-2.2V3.9a2.2,2.2,0,0,1,2.2-2.2h4.161a.853.853,0,0,0,0-1.705H20.686a3.905,3.905,0,0,0-3.9,3.9V9.828H4.539a3.051,3.051,0,0,0-3.047,3.047v7.911A3.051,3.051,0,0,0,4.539,23.833ZM51.8,11.533a1.344,1.344,0,0,1,1.342,1.342v7.911A1.344,1.344,0,0,1,51.8,22.128h-2.71a2.059,2.059,0,0,0-1.453.595l-1.721,1.693-1.686-1.683a2.058,2.058,0,0,0-1.463-.605H40.019a1.344,1.344,0,0,1-1.342-1.342V16.518a3.885,3.885,0,0,0,.994-2.6V11.533H51.8ZM3.2,12.875a1.344,1.344,0,0,1,1.342-1.342H16.786V13.92a3.882,3.882,0,0,0,.872,2.455v4.411a1.344,1.344,0,0,1-1.342,1.342h-2.71a2.06,2.06,0,0,0-1.453.595l-1.721,1.693L8.745,22.733a2.058,2.058,0,0,0-1.463-.605H4.539A1.344,1.344,0,0,1,3.2,20.786V12.875Z" transform="translate(0.331)" fill="#cbc232"/><path d="M14.126,6.46c-.071,3.511,4.383,5.983,5.749,6.657a1.264,1.264,0,0,0,1.14-.012c1.333-.695,5.686-3.225,5.735-6.615a3.925,3.925,0,0,0-6.31-3.118,3.9,3.9,0,0,0-2.4-.808,3.985,3.985,0,0,0-3.911,3.9Zm3.923-2.191h.016a2.2,2.2,0,0,1,1.513.606h0a1.261,1.261,0,0,0,1.721,0,2.222,2.222,0,0,1,3.746,1.591c-.027,1.887-2.46,3.856-4.618,5.022-2.19-1.122-4.635-3.059-4.6-4.992A2.3,2.3,0,0,1,18.049,4.269Z" transform="translate(8.121 1.58)" fill="#cbc232"/><path d="M55.55,43.314V30.9a9.272,9.272,0,0,0-13.5-8.249.852.852,0,1,0,.779,1.517,7.479,7.479,0,0,1,3.451-.831A7.572,7.572,0,0,1,53.845,30.9V41.81c-.023-.01-.045-.022-.069-.031h0l-4.294-1.769V38.343a10.087,10.087,0,0,0,2.9-6.682c0-3.112-1.386-5.558-3.707-6.542a.854.854,0,0,0-.661,0,.887.887,0,0,0-.505.6A6.15,6.15,0,0,1,42.8,30.409l-1.951.418a.989.989,0,0,0-.672,1,10.111,10.111,0,0,0,2.9,6.522v1.656l-3.392,1.4a4.245,4.245,0,0,0-.971-.877V30.9a7.516,7.516,0,0,1,1.366-4.337.852.852,0,0,0-1.4-.979A9.212,9.212,0,0,0,37.012,30.9v8.845l-4.665-1.922V34.58c2.136-1.73,3.4-4.843,3.637-7.9a6.957,6.957,0,0,0,2.131-3.723,3.163,3.163,0,0,0-.415-2.6,3.125,3.125,0,0,0-1.284-1.1,3.269,3.269,0,0,0,.038-.869,3.238,3.238,0,0,0-4.615-2.632A3.752,3.752,0,0,0,26.7,14.192a3.24,3.24,0,0,0-5.082,1.544,4.263,4.263,0,0,0-2.562,6.8A10.767,10.767,0,0,0,19.2,24.74a4.056,4.056,0,0,0,1.99,2.794,13.968,13.968,0,0,0,.326,1.651.9.9,0,0,0,1.041.609.852.852,0,0,0,.609-1.041,12.273,12.273,0,0,1-.327-1.771c-.038-.33.085-.475.833-.839a3.444,3.444,0,0,0,1.553-1.186,4.988,4.988,0,0,0,4.519-2.206,3.813,3.813,0,0,0,2.372.626,3.954,3.954,0,0,0,1.521,1.678c.508.35.664.459.667,1.1-.177,3.984-2.381,8.1-5.772,8.1a4.809,4.809,0,0,1-3.858-2.19.853.853,0,1,0-1.38,1,7.955,7.955,0,0,0,1.428,1.523v3.23l-5.65,2.328a4.262,4.262,0,0,0-1.7,1.276l-3.43-1.413V37.388a9.928,9.928,0,0,0,2.768-4.336.852.852,0,0,0,.6-.383c.886-1.384,2.589-5.583-.141-8.347a4.229,4.229,0,0,0-3.827-1.076,2.7,2.7,0,0,0-.179-.328c-1.151-1.8-4.127-2.051-6.775-.574a.853.853,0,1,0,.831,1.489c1.986-1.107,3.934-.892,4.508,0a1.86,1.86,0,0,1,.042,1.565,4.577,4.577,0,0,1-2.791,2.7A10.01,10.01,0,0,0,5.121,30.62a7.763,7.763,0,0,1-.065-4.191.853.853,0,0,0-1.633-.492,9.342,9.342,0,0,0,.753,6.8.852.852,0,0,0,.617.386,9.955,9.955,0,0,0,2.745,4.256v2.628C7.46,40.044,3.279,41.76,3.2,41.8A3.684,3.684,0,0,0,.955,45.2v2.687a1.993,1.993,0,0,0,1.99,1.99H54.074a1.993,1.993,0,0,0,1.99-1.99V45.2a3.691,3.691,0,0,0-.515-1.883ZM33.488,22.171A.852.852,0,0,0,32.4,21.59a1.934,1.934,0,0,1-2.2-.756.852.852,0,0,0-1.516.213,3.233,3.233,0,0,1-3.078,2.229,5.8,5.8,0,0,1-.749-.1.853.853,0,0,0-.992.654c-.074.334-.327.485-.93.773a3.473,3.473,0,0,0-1.428,1.043,2.332,2.332,0,0,1-.632-1.222,9.524,9.524,0,0,1-.1-2.121.853.853,0,0,0-.224-.646,2.556,2.556,0,0,1,1.8-4.292.853.853,0,0,0,.824-.773,1.532,1.532,0,0,1,2.748-.781.853.853,0,0,0,1.24.125,2.045,2.045,0,0,1,3.379,1.306.853.853,0,0,0,1.5.449,1.521,1.521,0,0,1,1.322-.55,1.534,1.534,0,0,1,1.206,2.265.852.852,0,0,0,.658,1.258,1.431,1.431,0,0,1,1.05.627,1.459,1.459,0,0,1,.191,1.2,8.045,8.045,0,0,1-.865,2.1,3.307,3.307,0,0,0-1-.942,2.279,2.279,0,0,1-1.12-1.479Zm9.67,9.906a7.862,7.862,0,0,0,5.694-4.894,5.526,5.526,0,0,1,1.828,4.478c0,3.059-2.662,6.6-4.4,6.6-1.61,0-4.014-3.013-4.358-5.918ZM27.022,48.169a16.751,16.751,0,0,0-3.174-8.145l1.529-.63a4.761,4.761,0,0,0,3.158,1.2h0a4.762,4.762,0,0,0,3.16-1.2l1.5.62A16.76,16.76,0,0,0,30,48.169Zm7.812-7.481,2.513,1.035a2.553,2.553,0,0,1,1.585,2.368v4.078H31.719A15.031,15.031,0,0,1,34.834,40.688Zm-6.3-4.728a5.856,5.856,0,0,0,2.107-.385v2.475a3.059,3.059,0,0,1-2.106.84h0a3.058,3.058,0,0,1-2.105-.839V35.576a5.894,5.894,0,0,0,2.1.383Zm-12.1,12.21H14.948l1.487-1.726Zm.01-4.35L12.7,48.169H8.818L4.909,42.937,8.2,41.583a3.957,3.957,0,0,0,2.542.925h0a3.956,3.956,0,0,0,2.543-.925l3.31,1.364A4.271,4.271,0,0,0,16.444,43.819Zm-.493-18.3c1.484,1.5,1.017,3.782.431,5.21a14.431,14.431,0,0,0-2.335-1.888,4.111,4.111,0,0,1-1.4-1.464,5.561,5.561,0,0,0,.735-1.43,4.431,4.431,0,0,0,.218-1.011,2.586,2.586,0,0,1,2.354.583Zm-9.723,6.41A8.281,8.281,0,0,1,9.557,29.7a6.712,6.712,0,0,0,1.873-1.045,5.942,5.942,0,0,0,1.7,1.622,12.8,12.8,0,0,1,2.1,1.715c-.658,2.8-2.95,5.129-4.495,5.129s-3.871-2.37-4.51-5.192Zm4.51,6.9a3.838,3.838,0,0,0,1.5-.329v1.735a2.253,2.253,0,0,1-1.5.568h0a2.252,2.252,0,0,1-1.5-.569V38.5A3.817,3.817,0,0,0,10.738,38.828ZM2.661,47.884V45.2a1.984,1.984,0,0,1,.686-1.5l3.343,4.476H2.946a.286.286,0,0,1-.285-.285Zm15.479-3.792a2.553,2.553,0,0,1,1.585-2.368L22.216,40.7A15.026,15.026,0,0,1,25.3,48.169H18.14V44.091Zm22.5,4.078V44.091a4.284,4.284,0,0,0-.163-1.164l2.612-1.076a12.024,12.024,0,0,0,1.427,6.318Zm4.147-7.59v-.984a3.206,3.206,0,0,0,2.993,0s0,.9,0,.989c0,2.558,0,5.2-1.5,7.144-1.5-1.942-1.5-4.585-1.5-7.146a.01.01,0,0,0,0,0Zm9.575,7.305a.286.286,0,0,1-.285.285H48.048a12.026,12.026,0,0,0,1.428-6.318l3.65,1.5h0A1.986,1.986,0,0,1,54.36,45.2Z" transform="translate(0 8.324)" fill="#cbc232"/></g><path d="M-3615-5093h28.743" transform="translate(18.257)" fill="none" stroke="#12263f" stroke-width="2"/><path d="M-3615-5093h28.743" transform="translate(19.257 223)" fill="none" stroke="#12263f" stroke-width="2"/><path d="M-3615-5093h28.743" transform="translate(18.257 501)" fill="none" stroke="#12263f" stroke-width="2"/><path d="M-3615-5093h28.743" transform="translate(19.257 786)" fill="none" stroke="#12263f" stroke-width="2"/></g></svg>