<svg xmlns="http://www.w3.org/2000/svg" width="57.792" height="51.548" viewBox="0 0 57.792 51.548"><g transform="translate(0 -27.659)"><path d="M234.392,263.537l-3.659-3.659L234.616,256h18.478a.985.985,0,0,0,.847-1.489l-8.614-14.484,5.341,1.367,1.277-4.993,8.478,14.255a8.444,8.444,0,0,1,.083,8.574,8.434,8.434,0,0,1-7.412,4.312Z" transform="translate(-204.689 -185.177)" fill="#70d9e6"/><path d="M376.336,255.005a8.112,8.112,0,0,1-.06.987H367.8a.984.984,0,0,0,.846-1.489l-8.614-14.484,5.342,1.367,1.277-4.993,8.477,14.255A8.526,8.526,0,0,1,376.336,255.005Z" transform="translate(-319.39 -185.174)" fill="#1fb2cc"/><path d="M429.681,396.669l.011.019a.984.984,0,0,1-.846,1.489h8.48a8.11,8.11,0,0,0,.06-.987c0-.174-.006-.347-.017-.521h-7.688Z" transform="translate(-380.441 -327.359)" fill="#189ab0"/><path d="M16.055,272.389A8.527,8.527,0,0,1,8.726,259.5l7.011-11.787,5.241-1.342,1.3,5.092-7.072,11.892a.985.985,0,0,0,.847,1.488H32.1l-3.883,3.883,3.659,3.659H16.055Z" transform="translate(-6.665 -194.029)" fill="#1ca56f"/><path d="M16.051,264.844H7.567A8.454,8.454,0,0,1,8.721,259.5l7.011-11.787,5.241-1.342,1.3,5.092L15.2,263.355a.985.985,0,0,0,.847,1.489Z" transform="translate(-6.661 -194.025)" fill="#7cc9a7"/><path d="M15.2,397.682a.947.947,0,0,1,.009-.993l.011-.019H7.536a8.343,8.343,0,0,0,.041,1.508H16.06A.941.941,0,0,1,15.2,397.682Z" transform="translate(-6.67 -327.36)" fill="#5bbd93"/><path d="M105.962,55.139l-5.231,1.337,10.2-17.148a8.527,8.527,0,0,1,14.657,0l8.739,14.694-1.275,4.982L127.7,57.637l-8.6-14.453a.985.985,0,0,0-1.694,0L107.268,60.241Z" transform="translate(-89.361 -6.654)" fill="#fcb44d"/><path d="M123.074,36.637l-3.93,6.609-.037-.062a.985.985,0,0,0-1.694,0L107.269,60.24l-1.305-5.1-5.231,1.337,10.2-17.148a8.547,8.547,0,0,1,12.143-2.692Z" transform="translate(-89.363 -6.654)" fill="#fca62f"/><path d="M121.748,35.9l-4.335,7.289L107.269,60.241l-1.305-5.1-5.231,1.337,10.2-17.148a8.458,8.458,0,0,1,7.329-4.169,8.549,8.549,0,0,1,3.487.734Z" transform="translate(-89.363 -6.655)" fill="#fb9927"/><g transform="translate(0 27.659)"><path d="M94.287,50.642,98.7,49.515l1.1,4.282a.846.846,0,0,0,.7.628.856.856,0,0,0,.121.009.847.847,0,0,0,.727-.414l10.144-17.056a.139.139,0,0,1,.239,0l4.491,7.552a.847.847,0,1,0,1.455-.866L113.179,36.1a1.815,1.815,0,0,0-.757-.709l2.994-5.034a7.67,7.67,0,0,1,2.791,2.753L126.765,47.5l-.978,3.822L121.6,50.249l-1.964-3.3a.847.847,0,0,0-1.455.866l2.143,3.6a.847.847,0,0,0,.518.387l5.351,1.368a.847.847,0,0,0,1.03-.61l1.275-4.982a.847.847,0,0,0-.092-.642l-8.739-14.695a9.373,9.373,0,0,0-16.113,0L93.35,49.389a.847.847,0,0,0,.937,1.253ZM105,33.107a7.617,7.617,0,0,1,6.6-3.755,7.765,7.765,0,0,1,2.241.328L100.929,51.4l-.8-3.126a.847.847,0,0,0-1.03-.61l-3.247.83Z" transform="translate(-82.708 -27.659)"/><path d="M254.5,243.566l-8.478-14.254a.847.847,0,0,0-1.548.223l-1.067,4.173-4.521-1.157a.847.847,0,0,0-.938,1.253l8.614,14.484a.106.106,0,0,1,0,.139c-.037.065-.053.071-.121.071h-8.372a.847.847,0,1,0,0,1.693h15.836a7.835,7.835,0,0,1-.788,1.965,7.6,7.6,0,0,1-6.676,3.884H228.089l-2.812-2.812,3.037-3.037h5.918a.847.847,0,1,0,0-1.693h-6.269a.847.847,0,0,0-.6.248l-3.883,3.883a.847.847,0,0,0,0,1.2l3.659,3.659a.847.847,0,0,0,.6.248h18.7a9.271,9.271,0,0,0,8.148-4.74,9.29,9.29,0,0,0-.092-9.425Zm-6.225,4.93a1.806,1.806,0,0,0-.257-1.075L240.449,234.7l3.356.859a.846.846,0,0,0,1.03-.61l.772-3.017,7.435,12.5a7.687,7.687,0,0,1,1.092,3.924c0,.047,0,.094,0,.141h-5.859Z" transform="translate(-198.036 -206.183)"/><path d="M22.752,262.074l3.285-3.285a.847.847,0,0,0-.6-1.445H9.39c-.067,0-.084-.006-.119-.066s-.033-.09,0-.143l1.18-1.984A.847.847,0,0,0,9,254.286l-1.18,1.984a1.8,1.8,0,0,0-.257,1.075H1.7a7.65,7.65,0,0,1,1.091-4.065L9.62,241.794l4.082-1.045,1.006,3.931-3.751,6.307a.847.847,0,0,0,1.455.866l3.93-6.609a.847.847,0,0,0,.092-.643l-1.3-5.092a.846.846,0,0,0-1.03-.61L8.861,240.24a.847.847,0,0,0-.518.387l-7.01,11.787A9.374,9.374,0,0,0,9.39,266.58H25.213a.847.847,0,0,0,.6-1.445ZM9.39,264.886A7.6,7.6,0,0,1,2.714,261a7.817,7.817,0,0,1-.79-1.966h21.47l-2.438,2.438a.847.847,0,0,0,0,1.2l2.214,2.214Z" transform="translate(0 -215.032)"/></g></g></svg>