<svg xmlns="http://www.w3.org/2000/svg" xmlns:xlink="http://www.w3.org/1999/xlink" width="1136.348" height="290.062" viewBox="0 0 1136.348 290.062"><defs><clipPath id="a"><path d="M16.357,0H1119.991c9.033,0,16.356,4.867,16.356,10.87V279.191c0,6-7.323,10.87-16.356,10.87H16.357C7.323,290.062,0,285.195,0,279.191V10.87C0,4.867,7.323,0,16.357,0Z" transform="translate(-14498.084 -13390.984)" fill="#cbc232"/></clipPath><clipPath id="b"><path d="M242.984,0c134.2,0,242.984,104.191,242.984,232.717S377.18,465.433,242.984,465.433,0,361.242,0,232.717,108.787,0,242.984,0Z" fill="#21c9b8"/></clipPath><clipPath id="c"><rect width="354.98" height="354.98" fill="none"/></clipPath><clipPath id="d"><rect width="110.163" height="112.418" fill="#fff" stroke="#fff" stroke-width="1"/></clipPath></defs><g transform="translate(14498.084 13390.984)" clip-path="url(#a)"><path d="M0,0H1235.347V478.934H0Z" transform="translate(-14560.912 -13389.669)" fill="#dbe3fb" opacity="0.53"/><path d="M227.183,0c125.47,0,227.183,101.713,227.183,227.183S352.653,454.367,227.183,454.367,0,352.653,0,227.183,101.713,0,227.183,0Z" transform="translate(-13686.813 -13379.097)" fill="#dbe3fb" opacity="0.14"/><path d="M227.183,0c125.47,0,227.183,101.713,227.183,227.183S352.653,454.367,227.183,454.367,0,352.653,0,227.183,101.713,0,227.183,0Z" transform="translate(-14224.451 -13208.121)" fill="#dbe3fb" opacity="0.14"/><path d="M227.183,0c125.47,0,227.183,101.713,227.183,227.183S352.653,454.367,227.183,454.367,0,352.653,0,227.183,101.713,0,227.183,0Z" transform="translate(-13695.737 -13482.74)" fill="#dbe3fb" opacity="0"/><rect width="6.233" height="1.662" transform="translate(-13598.76 -13100.923)" fill="#dbe3fb"/><path d="M232.4,0c128.353,0,232.4,99.654,232.4,222.584S360.758,445.169,232.4,445.169,0,345.514,0,222.584,104.051,0,232.4,0Z" transform="translate(-13828.048 -13151.913)" fill="#e4eafc"/><path d="M303.141,0c167.42,0,303.141,135.721,303.141,303.141S470.561,606.282,303.141,606.282,0,470.561,0,303.141,135.721,0,303.141,0Z" transform="translate(-14720.53 -13067.571)" fill="#a5b9f6" opacity="0.23" style="mix-blend-mode:multiply;isolation:isolate"/><path d="M303.141,0c167.42,0,303.141,135.721,303.141,303.141S470.561,606.282,303.141,606.282,0,470.561,0,303.141,135.721,0,303.141,0Z" transform="translate(-14995.382 -13785.881)" fill="#a5b9f6" opacity="0.23" style="mix-blend-mode:multiply;isolation:isolate"/><path d="M303.141,0c167.42,0,303.141,135.721,303.141,303.141S470.561,606.282,303.141,606.282,0,470.561,0,303.141,135.721,0,303.141,0Z" transform="translate(-14473.214 -13729.05)" fill="#f6f8fe" opacity="0.51" style="mix-blend-mode:lighten;isolation:isolate"/><g transform="translate(-14525.053 -13641.632)"><g clip-path="url(#c)"><path d="M354.98,177.487c0-5.729-.3-11.385-.83-16.979H271.736l77.258-28.784a176.607,176.607,0,0,0-11.85-31.831l-92.486,34.452L314.43,64.566a178.581,178.581,0,0,0-24.021-24.015L232.122,98.844l34.261-74.957a176.585,176.585,0,0,0-30.889-14.14L194.478,99.483V.825C188.883.3,183.222,0,177.487,0S166.1.3,160.5.825V83.251L131.724,5.993a175.4,175.4,0,0,0-31.837,11.85l34.452,92.481L64.566,40.551A179.239,179.239,0,0,0,40.545,64.566l58.293,58.293L23.886,88.6a176.773,176.773,0,0,0-14.14,30.889l89.737,41.022H.825C.3,166.1,0,171.759,0,177.487s.3,11.4.825,16.99H83.251L5.987,223.256A175.878,175.878,0,0,0,17.837,255.1l92.481-34.457L40.545,290.409A178.623,178.623,0,0,0,64.566,314.43l58.293-58.293L88.6,331.089a176.743,176.743,0,0,0,30.883,14.145L160.5,255.5v98.658c5.594.527,11.256.825,16.985.825s11.4-.3,16.99-.825V271.73l28.779,77.264a176.65,176.65,0,0,0,31.837-11.845l-34.457-92.486,69.773,69.767a177.97,177.97,0,0,0,24.021-24.021l-58.293-58.293,74.952,34.272A177.366,177.366,0,0,0,345.234,235.5L255.5,194.478H354.15c.533-5.594.83-11.25.83-16.99" fill="#a5b9f6" opacity="0.12"/></g></g><path d="M413.546,206.77c0-6.674-.346-13.263-.967-19.78H316.567l90-33.533a205.742,205.742,0,0,0-13.806-37.083L285.021,156.509,366.3,75.218a208.043,208.043,0,0,0-27.984-27.977l-67.9,67.91,39.913-87.324a205.718,205.718,0,0,0-35.985-16.473L226.563,115.9V.961C220.046.346,213.45,0,206.77,0S193.5.346,186.983.961V96.985l-33.527-90a204.342,204.342,0,0,0-37.089,13.806L156.5,128.525,75.218,47.241A208.81,208.81,0,0,0,47.234,75.218l67.91,67.91L27.827,103.215A205.937,205.937,0,0,0,11.354,139.2L115.9,186.989H.961C.346,193.507,0,200.1,0,206.77s.346,13.276.961,19.793H96.985L6.975,260.09a204.9,204.9,0,0,0,13.806,37.1l107.738-40.142L47.234,338.321A208.091,208.091,0,0,0,75.218,366.3l67.91-67.91-39.913,87.318a205.9,205.9,0,0,0,35.978,16.479l47.79-104.542V412.585c6.517.614,13.113.961,19.787.961s13.276-.346,19.793-.961V316.56l33.527,90.011a205.8,205.8,0,0,0,37.089-13.8L257.037,285.027,338.321,366.3A207.33,207.33,0,0,0,366.3,338.321l-67.91-67.91,87.318,39.926a206.626,206.626,0,0,0,16.479-35.985L297.65,226.563H412.578c.621-6.517.967-13.106.967-19.793" transform="translate(-14274.511 -13010.826)" fill="none" stroke="#fff" stroke-width="1"/><rect width="6.233" height="1.662" transform="translate(-13572.737 -13057.309)" fill="#e9dcbf"/><g transform="translate(-13505.976 -13453.33)" style="isolation:isolate"><g transform="translate(0 0)" clip-path="url(#d)" style="isolation:isolate"><path d="M12.983,0h0a2.164,2.164,0,0,0-2.125,1.892,10.585,10.585,0,0,1-8.979,8.934,2.167,2.167,0,0,0,.014,4.3,10.5,10.5,0,0,1,8.979,8.931,2.138,2.138,0,0,0,4.247.038,10.672,10.672,0,0,1,9.01-9.022,2.067,2.067,0,0,0,1.83-2.035v-.051a2.143,2.143,0,0,0-1.877-2.111,10.673,10.673,0,0,1-8.979-9A2.154,2.154,0,0,0,12.983,0" transform="translate(0 0)" fill="#fff" stroke="#fff" stroke-width="1"/><path d="M34.526,0h0A2.164,2.164,0,0,0,32.4,1.892a10.585,10.585,0,0,1-8.979,8.934,2.167,2.167,0,0,0,.014,4.3,10.5,10.5,0,0,1,8.979,8.931,2.138,2.138,0,0,0,4.247.038,10.672,10.672,0,0,1,9.01-9.022,2.067,2.067,0,0,0,1.83-2.035v-.051a2.143,2.143,0,0,0-1.877-2.111,10.67,10.67,0,0,1-8.978-9A2.156,2.156,0,0,0,34.526,0" transform="translate(6.524 0)" fill="#fff" stroke="#fff" stroke-width="1"/><path d="M56.069,0h0a2.164,2.164,0,0,0-2.125,1.892,10.585,10.585,0,0,1-8.979,8.934,2.167,2.167,0,0,0,.014,4.3,10.5,10.5,0,0,1,8.979,8.931,2.138,2.138,0,0,0,4.247.038,10.672,10.672,0,0,1,9.01-9.022,2.067,2.067,0,0,0,1.83-2.035v-.051a2.143,2.143,0,0,0-1.877-2.111,10.673,10.673,0,0,1-8.979-9A2.154,2.154,0,0,0,56.069,0" transform="translate(13.048 0)" fill="#fff" stroke="#fff" stroke-width="1"/><path d="M77.613,0h0a2.164,2.164,0,0,0-2.125,1.892,10.585,10.585,0,0,1-8.979,8.934,2.167,2.167,0,0,0,.014,4.3A10.5,10.5,0,0,1,75.5,24.053a2.138,2.138,0,0,0,4.247.038,10.672,10.672,0,0,1,9.01-9.022,2.067,2.067,0,0,0,1.83-2.035v-.051a2.143,2.143,0,0,0-1.877-2.111,10.673,10.673,0,0,1-8.979-9A2.154,2.154,0,0,0,77.613,0" transform="translate(19.572 0)" fill="#fff" stroke="#fff" stroke-width="1"/><path d="M12.983,22.12h0a2.165,2.165,0,0,0-2.125,1.893,10.587,10.587,0,0,1-8.979,8.934,2.167,2.167,0,0,0,.014,4.3,10.5,10.5,0,0,1,8.979,8.931,2.138,2.138,0,0,0,4.247.036,10.672,10.672,0,0,1,9.01-9.021,2.068,2.068,0,0,0,1.83-2.035V35.1a2.144,2.144,0,0,0-1.877-2.111,10.671,10.671,0,0,1-8.979-9,2.154,2.154,0,0,0-2.121-1.872" transform="translate(0 6.698)" fill="#fff" stroke="#fff" stroke-width="1"/><path d="M34.526,22.12h0A2.165,2.165,0,0,0,32.4,24.013a10.587,10.587,0,0,1-8.979,8.934,2.167,2.167,0,0,0,.014,4.3,10.5,10.5,0,0,1,8.979,8.931,2.138,2.138,0,0,0,4.247.036,10.672,10.672,0,0,1,9.01-9.021,2.068,2.068,0,0,0,1.83-2.035V35.1a2.144,2.144,0,0,0-1.877-2.111,10.669,10.669,0,0,1-8.978-9,2.156,2.156,0,0,0-2.122-1.872" transform="translate(6.524 6.698)" fill="#fff" stroke="#fff" stroke-width="1"/><path d="M56.069,22.12h0a2.165,2.165,0,0,0-2.125,1.893,10.587,10.587,0,0,1-8.979,8.934,2.167,2.167,0,0,0,.014,4.3,10.5,10.5,0,0,1,8.979,8.931,2.138,2.138,0,0,0,4.247.036,10.672,10.672,0,0,1,9.01-9.021,2.068,2.068,0,0,0,1.83-2.035V35.1a2.144,2.144,0,0,0-1.877-2.111,10.671,10.671,0,0,1-8.979-9,2.154,2.154,0,0,0-2.121-1.872" transform="translate(13.048 6.698)" fill="#fff" stroke="#fff" stroke-width="1"/><path d="M77.613,22.12h0a2.165,2.165,0,0,0-2.125,1.893,10.587,10.587,0,0,1-8.979,8.934,2.167,2.167,0,0,0,.014,4.3A10.5,10.5,0,0,1,75.5,46.174a2.138,2.138,0,0,0,4.247.036,10.672,10.672,0,0,1,9.01-9.021,2.068,2.068,0,0,0,1.83-2.035V35.1a2.144,2.144,0,0,0-1.877-2.111,10.671,10.671,0,0,1-8.979-9,2.154,2.154,0,0,0-2.121-1.872" transform="translate(19.572 6.698)" fill="#fff" stroke="#fff" stroke-width="1"/><path d="M12.983,44.241h0a2.164,2.164,0,0,0-2.125,1.892,10.583,10.583,0,0,1-8.979,8.932,2.167,2.167,0,0,0,.014,4.3,10.5,10.5,0,0,1,8.979,8.931,2.138,2.138,0,0,0,4.247.038,10.672,10.672,0,0,1,9.01-9.022,2.068,2.068,0,0,0,1.83-2.035v-.051a2.143,2.143,0,0,0-1.877-2.111,10.673,10.673,0,0,1-8.979-9,2.154,2.154,0,0,0-2.121-1.872" transform="translate(0 13.398)" fill="#fff" stroke="#fff" stroke-width="1"/><path d="M34.526,44.241h0A2.164,2.164,0,0,0,32.4,46.133a10.583,10.583,0,0,1-8.979,8.932,2.167,2.167,0,0,0,.014,4.3,10.5,10.5,0,0,1,8.979,8.931,2.138,2.138,0,0,0,4.247.038,10.672,10.672,0,0,1,9.01-9.022,2.068,2.068,0,0,0,1.83-2.035v-.051a2.143,2.143,0,0,0-1.877-2.111,10.67,10.67,0,0,1-8.978-9,2.156,2.156,0,0,0-2.122-1.872" transform="translate(6.524 13.398)" fill="#fff" stroke="#fff" stroke-width="1"/><path d="M56.069,44.241h0a2.164,2.164,0,0,0-2.125,1.892,10.583,10.583,0,0,1-8.979,8.932,2.167,2.167,0,0,0,.014,4.3,10.5,10.5,0,0,1,8.979,8.931,2.138,2.138,0,0,0,4.247.038,10.672,10.672,0,0,1,9.01-9.022,2.068,2.068,0,0,0,1.83-2.035v-.051a2.143,2.143,0,0,0-1.877-2.111,10.673,10.673,0,0,1-8.979-9,2.154,2.154,0,0,0-2.121-1.872" transform="translate(13.048 13.398)" fill="#fff" stroke="#fff" stroke-width="1"/><path d="M77.613,44.241h0a2.164,2.164,0,0,0-2.125,1.892,10.583,10.583,0,0,1-8.979,8.932,2.167,2.167,0,0,0,.014,4.3A10.5,10.5,0,0,1,75.5,68.294a2.138,2.138,0,0,0,4.247.038,10.672,10.672,0,0,1,9.01-9.022,2.068,2.068,0,0,0,1.83-2.035v-.051a2.143,2.143,0,0,0-1.877-2.111,10.673,10.673,0,0,1-8.979-9,2.154,2.154,0,0,0-2.121-1.872" transform="translate(19.572 13.398)" fill="#fff" stroke="#fff" stroke-width="1"/><path d="M12.983,66.361h0a2.164,2.164,0,0,0-2.125,1.892,10.585,10.585,0,0,1-8.979,8.934,2.167,2.167,0,0,0,.014,4.3,10.5,10.5,0,0,1,8.979,8.931,2.138,2.138,0,0,0,4.247.038,10.672,10.672,0,0,1,9.01-9.022,2.067,2.067,0,0,0,1.83-2.035v-.051a2.143,2.143,0,0,0-1.877-2.111,10.673,10.673,0,0,1-8.979-9,2.154,2.154,0,0,0-2.121-1.872" transform="translate(0 20.096)" fill="#fff" stroke="#fff" stroke-width="1"/><path d="M34.526,66.361h0A2.164,2.164,0,0,0,32.4,68.253a10.585,10.585,0,0,1-8.979,8.934,2.167,2.167,0,0,0,.014,4.3,10.5,10.5,0,0,1,8.979,8.931,2.138,2.138,0,0,0,4.247.038,10.672,10.672,0,0,1,9.01-9.022,2.067,2.067,0,0,0,1.83-2.035v-.051a2.143,2.143,0,0,0-1.877-2.111,10.67,10.67,0,0,1-8.978-9,2.156,2.156,0,0,0-2.122-1.872" transform="translate(6.524 20.096)" fill="#fff" stroke="#fff" stroke-width="1"/><path d="M56.069,66.361h0a2.164,2.164,0,0,0-2.125,1.892,10.585,10.585,0,0,1-8.979,8.934,2.167,2.167,0,0,0,.014,4.3,10.5,10.5,0,0,1,8.979,8.931,2.138,2.138,0,0,0,4.247.038,10.672,10.672,0,0,1,9.01-9.022,2.067,2.067,0,0,0,1.83-2.035v-.051a2.143,2.143,0,0,0-1.877-2.111,10.673,10.673,0,0,1-8.979-9,2.154,2.154,0,0,0-2.121-1.872" transform="translate(13.048 20.096)" fill="#fff" stroke="#fff" stroke-width="1"/><path d="M77.613,66.361h0a2.164,2.164,0,0,0-2.125,1.892,10.585,10.585,0,0,1-8.979,8.934,2.167,2.167,0,0,0,.014,4.3A10.5,10.5,0,0,1,75.5,90.414a2.138,2.138,0,0,0,4.247.038,10.672,10.672,0,0,1,9.01-9.022,2.067,2.067,0,0,0,1.83-2.035v-.051a2.143,2.143,0,0,0-1.877-2.111,10.673,10.673,0,0,1-8.979-9,2.154,2.154,0,0,0-2.121-1.872" transform="translate(19.572 20.096)" fill="#fff" stroke="#fff" stroke-width="1"/></g></g></g></svg>