<svg xmlns="http://www.w3.org/2000/svg" xmlns:xlink="http://www.w3.org/1999/xlink" width="103" height="103" viewBox="0 0 103 103"><defs><filter id="a" x="0" y="0" width="103" height="103" filterUnits="userSpaceOnUse"><feOffset dy="3" input="SourceAlpha"/><feGaussianBlur stdDeviation="3" result="b"/><feFlood flood-opacity="0.161"/><feComposite operator="in" in2="b"/><feComposite in="SourceGraphic"/></filter></defs><g transform="translate(-806.348 -4199.826)"><g transform="matrix(1, 0, 0, 1, 806.35, 4199.83)" filter="url(#a)"><circle cx="42.5" cy="42.5" r="42.5" transform="translate(9 6)" fill="#fff"/></g><g transform="translate(835 4221.708)"><path d="M36.953,39.154h3.633V42.39H36.953Z" transform="translate(-5.241 -4.828)" fill="#cbc4e5"/><path d="M14.6,10.78v5.734h9.424V6.579a.568.568,0,0,0-.568-.568H9.6a.568.568,0,0,0-.568.568v3.633h5a.568.568,0,0,1,.568.568Z" transform="translate(-1.282 -0.127)" fill="#f6a96c"/><g transform="translate(14.928 5.884)"><path d="M22.275,6.011H17.4V8.849a.307.307,0,0,0,.307.307h4.267a.307.307,0,0,0,.307-.307Z" transform="translate(-17.395 -6.011)" fill="#fff"/></g><g transform="translate(7.754 5.884)"><path d="M12.222,10.212V6.579a.568.568,0,0,1,.568-.568H9.6a.568.568,0,0,0-.568.568v3.633Z" transform="translate(-9.036 -6.011)" fill="#ea9b58"/></g><path d="M15.519,17.546H21.2V14.424a1.135,1.135,0,0,0-1.135-1.135H15.519Z" transform="translate(-2.201 -1.159)" fill="#fd5426"/><g transform="translate(6.458 40.401)"><path d="M12.943,47.613l-1.652,2.856a.341.341,0,0,1-.59,0L9.049,47.613a3.47,3.47,0,1,0,3.894,0Z" transform="translate(-7.526 -46.428)" fill="#cbc4e5"/><path d="M9.669,50.48a3.444,3.444,0,0,1,.267-1.334l-.887-1.533a3.465,3.465,0,0,0,3.018,6.161A3.465,3.465,0,0,1,9.669,50.48Z" transform="translate(-7.526 -46.428)" fill="#b5adcf"/><path d="M8.5,46.233l2.338,4.041a.341.341,0,0,0,.59,0l2.338-4.041Z" transform="translate(-7.664 -46.233)" fill="#08a9f1"/><path d="M37.572,47.613,35.92,50.469a.341.341,0,0,1-.59,0l-1.652-2.856a3.47,3.47,0,1,0,3.894,0Z" transform="translate(-11.019 -46.428)" fill="#cbc4e5"/><path d="M34.224,50.48a3.444,3.444,0,0,1,.3-1.406l-.845-1.46a3.466,3.466,0,0,0,2.982,6.173A3.466,3.466,0,0,1,34.224,50.48Z" transform="translate(-11.019 -46.428)" fill="#b5adcf"/><path d="M33.131,46.233l2.338,4.041a.341.341,0,0,0,.59,0L38.4,46.233Z" transform="translate(-11.158 -46.233)" fill="#08a9f1"/></g><g transform="translate(3.781 37.562)"><path d="M37.122,45.763H5.825a1.419,1.419,0,0,1,0-2.838h31.3a.568.568,0,0,1,.568.568v1.7a.568.568,0,0,1-.568.568Z" transform="translate(-4.405 -42.925)" fill="#fd5426"/></g><g transform="translate(3.781 37.562)"><path d="M37.122,45.763H5.825a1.419,1.419,0,0,1,0-2.838h31.3a.568.568,0,0,1,.568.568v1.7a.568.568,0,0,1-.568.568Z" transform="translate(-4.405 -42.925)" fill="#fd5426"/></g><g transform="translate(3.781 37.562)"><path d="M9.725,44.344a1.419,1.419,0,0,1,1.419-1.419H5.825a1.419,1.419,0,0,0,0,2.839h5.319A1.419,1.419,0,0,1,9.725,44.344Z" transform="translate(-4.405 -42.925)" fill="#ef4424"/></g><path d="M14.205,17.208V11.474a.568.568,0,0,0-.568-.568H6.825a.568.568,0,0,0-.568.568v5.734Z" transform="translate(-0.888 -0.821)" fill="#08a9f1"/><path d="M9.476,17.208V11.474a.568.568,0,0,1,.568-.568H6.825a.568.568,0,0,0-.568.568v5.734Z" transform="translate(-0.888 -0.821)" fill="#0290cf"/><path d="M39.873,17.08V11.137A1.135,1.135,0,0,0,38.738,10H33.061a1.135,1.135,0,0,0-1.135,1.135V17.08Z" transform="translate(-4.528 -0.693)" fill="#ffee9a"/><path d="M35.1,15.714V11.137A1.135,1.135,0,0,1,36.234,10H33.061a1.135,1.135,0,0,0-1.135,1.135v1.922A5.073,5.073,0,0,1,35.1,15.714Z" transform="translate(-4.528 -0.693)" fill="#fcdd66"/><path d="M34.485,17.554a5.06,5.06,0,0,0-9.976,0Z" transform="translate(-3.476 -1.167)" fill="#57be92"/><path d="M27.725,17.554a5.067,5.067,0,0,1,3.38-3.949,5.063,5.063,0,0,0-6.6,3.949Z" transform="translate(-3.476 -1.167)" fill="#22b27f"/><g transform="translate(0.767 16.387)"><path d="M36.121,36.189H5.822a.568.568,0,0,1-.55-.425L.912,18.96a.568.568,0,0,1,.55-.71H40.467L37.237,35.265A1.135,1.135,0,0,1,36.121,36.189Z" transform="translate(-0.894 -18.25)" fill="#c8effe"/></g><g transform="translate(0.767 16.387)"><path d="M9.516,35.764,5.155,18.96a.568.568,0,0,1,.55-.71H1.462a.568.568,0,0,0-.55.71l4.361,16.8a.568.568,0,0,0,.55.425h4.243A.567.567,0,0,1,9.516,35.764Z" transform="translate(-0.894 -18.25)" fill="#99e6fc"/></g><g transform="translate(44.087 9.21)"><g transform="translate(0 0)"><path d="M58.3,12.725H51.374v-1.7A1.135,1.135,0,0,1,52.51,9.887H58.3a.568.568,0,0,1,.568.568v1.7A.568.568,0,0,1,58.3,12.725Z" transform="translate(-51.374 -9.887)" fill="#fd5426"/></g><path d="M55.73,9.887H52.51a1.135,1.135,0,0,0-1.135,1.135v1.7h3.221v-1.7A1.135,1.135,0,0,1,55.73,9.887Z" transform="translate(-51.374 -9.887)" fill="#ef4424"/></g><g transform="translate(0 5.118)"><path d="M10.462,13.046H8.928a.767.767,0,1,0,0,1.534h1.534a.767.767,0,1,0,0-1.534Z" transform="translate(-1.158 -6.242)"/><circle cx="0.767" cy="0.767" r="0.767" transform="translate(32.309 5.832)"/><circle cx="0.767" cy="0.767" r="0.767" transform="translate(32.309 8.082)"/><path d="M51.013,8.443H45.223a1.9,1.9,0,0,0-1.9,1.9v.936h-.746a2.472,2.472,0,0,0-2.426,2.009l-.442,2.329H36.112V10.444a1.9,1.9,0,0,0-1.9-1.9H28.533a1.9,1.9,0,0,0-1.9,1.9v1a5.714,5.714,0,0,0-3.122.543v-.73a.767.767,0,0,0-1.534,0v1.8a5.825,5.825,0,0,0-1.552,2.562h-.661V13.265a1.9,1.9,0,0,0-1.9-1.9H14.085v-.709A1.336,1.336,0,0,0,12.75,9.319H8.521V6.651h5.64V8.722A1.075,1.075,0,0,0,15.234,9.8H19.5a1.075,1.075,0,0,0,1.074-1.074V6.651h1.4V7.678a.767.767,0,1,0,1.534,0V6.452a1.336,1.336,0,0,0-1.335-1.335H8.322A1.336,1.336,0,0,0,6.988,6.452V9.319H5.938A1.336,1.336,0,0,0,4.6,10.653V15.62H1.335A1.335,1.335,0,0,0,.043,17.29l4.36,16.8a1.335,1.335,0,0,0,1.292,1H30.945v1.7H27.4a.767.767,0,0,0,0,1.534h8.9v1.3H5.2a.652.652,0,0,1,0-1.3H23.823a.767.767,0,0,0,0-1.534H5.2a2.186,2.186,0,0,0,0,4.372H6.854l.138.239a4.237,4.237,0,1,0,5.873,0L13,41.168H27.989l.138.239a4.237,4.237,0,1,0,5.873,0l.138-.239H36.5a1.336,1.336,0,0,0,1.335-1.335v-1.7A1.336,1.336,0,0,0,36.5,36.8h-.385V35.088a1.9,1.9,0,0,0,1.752-1.542l3.792-19.969a.937.937,0,0,1,.92-.762h8.439a1.336,1.336,0,0,0,1.335-1.335v-1.7a1.336,1.336,0,0,0-1.335-1.335ZM15.694,6.651h3.346V8.262H15.694ZM11.231,41.168l-1.3,2.252-1.3-2.252Zm1.4,3.284A2.7,2.7,0,1,1,7.8,42.8L8.97,44.826a1.107,1.107,0,0,0,1.917,0L12.061,42.8a2.677,2.677,0,0,1,.571,1.655Zm19.735-3.284-1.3,2.252-1.3-2.252Zm1.4,3.284A2.7,2.7,0,1,1,28.932,42.8l1.173,2.028a1.107,1.107,0,0,0,1.917,0L33.2,42.8A2.677,2.677,0,0,1,33.767,44.452Zm-8.673-22.87h6.455l-.522,3.008H24.959Zm.069-1.534.13-2.895h7.026l-.5,2.895Zm3-9.6a.369.369,0,0,1,.369-.369h5.677a.369.369,0,0,1,.369.369V15.62H31.616a5.877,5.877,0,0,0-3.452-3.795V10.444Zm-2.143,2.5A4.324,4.324,0,0,1,30,15.62H22.045A4.324,4.324,0,0,1,26.021,12.944Zm-15.592,7.1H9.282l-.621-2.895h7l.171,2.895H14.008a.767.767,0,1,0,0,1.534h1.915L16.1,24.59H10.256l-.645-3.008h.818a.767.767,0,1,0,0-1.534ZM17.86,12.9a.369.369,0,0,1,.368.368V15.62H14.085V12.9H17.86ZM6.137,10.852h6.414V15.62H6.137Zm-3.793,9.2-.751-2.9h5.5l.621,2.895H2.344Zm.4,1.533h5.3l.645,3.008H3.522ZM4.7,29.132,3.92,26.123h5.1l.645,3.008ZM5.85,33.56,5.1,30.665H9.99l.621,2.894Zm4.735-7.436h5.606l.178,3.008H11.23Zm1.594,7.436-.621-2.894h4.9l.171,2.894Zm10.843,0H18.166L18,30.665h5.157Zm.2-4.428H17.9l-.178-3.008h5.628Zm.2-4.542H17.636l-.178-3.008h6.1Zm.2-4.542H17.368L17.2,17.154h6.56ZM29.469,33.56H24.557l.13-2.894h5.285Zm.769-4.428H24.756l.135-3.008h5.87Zm2.24,7.664v-1.7h2.1v1.7Zm3.878-3.536a.369.369,0,0,1-.362.3H31.026l.5-2.894h5.321Zm.784-4.128H31.795l.522-3.008h5.395ZM38,24.59h-5.42l.522-3.008h5.468Zm.862-4.542H33.372l.5-2.895h5.541Zm11.949-8.766h-5.96v-.936a.369.369,0,0,1,.369-.369h5.591Z" transform="translate(0 -5.118)"/></g></g></g></svg>