<svg xmlns="http://www.w3.org/2000/svg" xmlns:xlink="http://www.w3.org/1999/xlink" width="103" height="103" viewBox="0 0 103 103"><defs><filter id="a" x="0" y="0" width="103" height="103" filterUnits="userSpaceOnUse"><feOffset dy="3" input="SourceAlpha"/><feGaussianBlur stdDeviation="3" result="b"/><feFlood flood-opacity="0.161"/><feComposite operator="in" in2="b"/><feComposite in="SourceGraphic"/></filter></defs><g transform="translate(-1121.348 -4199.826)"><g transform="matrix(1, 0, 0, 1, 1121.35, 4199.83)" filter="url(#a)"><circle cx="42.5" cy="42.5" r="42.5" transform="translate(9 6)" fill="#fff"/></g><g transform="translate(1148.364 4223.842)"><path d="M1.968,1.968H32.29V41.387H1.968Z" transform="translate(-0.226 -0.226)" fill="#c7e2fb"/><path d="M1.968,33.8c.127,0,.252.01.379.01A26.345,26.345,0,0,0,28.5,7.274a27.062,27.062,0,0,0-.524-5.306H1.968Z" transform="translate(-0.226 -0.226)" fill="#ebf7fe"/><path d="M35.419,27.548H50.581V39.677H35.419Z" transform="translate(-7.903 -6.097)" fill="#c18e5c"/><path d="M35.419,27.548v9.766a13.9,13.9,0,0,0,1.516.089,13.642,13.642,0,0,0,13.1-9.855Z" transform="translate(-7.903 -6.097)" fill="#cda57d"/><path d="M39.355,43.29H56.032V56.935H39.355Z" transform="translate(-8.806 -9.71)" fill="#c18e5c"/><path d="M39.355,54.618a17.922,17.922,0,0,0,15.1-11.328h-15.1Z" transform="translate(-8.806 -9.71)" fill="#cda57d"/><g transform="translate(4.774 4.774)"><path d="M5.9,5.9h6.065v6.065H5.9Z" transform="translate(-5.903 -5.903)" fill="#4472b0"/><path d="M5.9,17.71h6.065v6.065H5.9Z" transform="translate(-5.903 -8.613)" fill="#4472b0"/><path d="M5.9,29.516h6.065v6.065H5.9Z" transform="translate(-5.903 -11.323)" fill="#4472b0"/><path d="M5.9,41.323h6.065v6.065H5.9Z" transform="translate(-5.903 -14.032)" fill="#4472b0"/></g><path d="M47.226,43.29h4.548v4.548H47.226Z" transform="translate(-10.613 -9.71)" fill="#fff"/><path d="M17.71,43.29H34.387V56.935H17.71Z" transform="translate(-3.839 -9.71)" fill="#c18e5c"/><path d="M17.71,54.618a17.922,17.922,0,0,0,15.1-11.328H17.71Z" transform="translate(-3.839 -9.71)" fill="#cda57d"/><path d="M25.581,43.29h4.548v4.548H25.581Z" transform="translate(-5.645 -9.71)" fill="#fff"/><path d="M43.29,27.548h3.032V32.1H43.29Z" transform="translate(-9.71 -6.097)" fill="#fff"/><g transform="translate(0.984 0.984)"><path d="M5.677,24.306h6.065a.758.758,0,0,0,.758-.758V17.484a.758.758,0,0,0-.758-.758H5.677a.758.758,0,0,0-.758.758v6.065A.758.758,0,0,0,5.677,24.306Zm.758-6.065h4.548V22.79H6.435Z" transform="translate(-1.887 -4.597)"/><path d="M11.742,40.339H5.677a.758.758,0,0,0-.758.758v6.065a.758.758,0,0,0,.758.758h6.065a.758.758,0,0,0,.758-.758V41.1A.758.758,0,0,0,11.742,40.339ZM10.984,46.4H6.435V41.855h4.548Z" transform="translate(-1.887 -10.016)"/><path d="M16.726,6.887H33.4V8.4H16.726Z" transform="translate(-4.597 -2.339)"/><path d="M16.726,10.823H33.4v1.516H16.726Z" transform="translate(-4.597 -3.242)"/><path d="M16.726,18.694H33.4V20.21H16.726Z" transform="translate(-4.597 -5.048)"/><path d="M16.726,22.629H33.4v1.516H16.726Z" transform="translate(-4.597 -5.952)"/><path d="M11.428,4.534H5.677a.758.758,0,0,0-.758.758v6.065a.758.758,0,0,0,.758.758h6.065a.758.758,0,0,0,.758-.758V5.606l1.294-1.294L12.722,3.24ZM9.912,6.05,6.435,9.527V6.05ZM10.984,10.6H7.507l3.476-3.476Z" transform="translate(-1.887 -1.502)"/><path d="M12.722,26.853l-1.294,1.294H5.677a.758.758,0,0,0-.758.758v6.065a.758.758,0,0,0,.758.758h6.065a.758.758,0,0,0,.758-.758V29.219l1.294-1.294Zm-2.81,2.81L6.435,33.139V29.663Zm1.072,4.548H7.507l3.476-3.476Z" transform="translate(-1.887 -6.921)"/><path d="M47.226,47.984a.758.758,0,0,0,.758-.758V33.581a.758.758,0,0,0-.758-.758h-3.79V21.452a.758.758,0,0,0-.758-.758H32.823V1.742a.758.758,0,0,0-.758-.758H1.742a.758.758,0,0,0-.758.758V41.161a.758.758,0,0,0,.758.758H13.113v5.306a.758.758,0,0,0,.758.758ZM37.371,34.339H40.4v3.032H37.371Zm-9.1-1.516V22.21h4.548V26a.758.758,0,0,0,.758.758h3.032A.758.758,0,0,0,37.371,26V22.21h4.548V32.823ZM34.339,22.21h1.516v3.032H34.339ZM13.113,33.581V40.4H2.5V2.5H31.306V20.694h-3.79a.758.758,0,0,0-.758.758v2.274H13.113v1.516H26.758v1.516H13.113v1.516H26.758v4.548H13.871A.758.758,0,0,0,13.113,33.581Zm7.581.758h3.032v3.032H20.694Zm-6.065,0h4.548v3.79a.758.758,0,0,0,.758.758h4.548a.758.758,0,0,0,.758-.758v-3.79H29.79V46.468H14.629ZM46.468,46.468H31.306V34.339h4.548v3.79a.758.758,0,0,0,.758.758h4.548a.758.758,0,0,0,.758-.758v-3.79h4.548Z" transform="translate(-0.984 -0.984)"/><path d="M54.113,56.081h3.032V57.6H54.113Z" transform="translate(-13.177 -13.629)"/><path d="M48.21,38.371h3.032v1.516H48.21Z" transform="translate(-11.823 -9.564)"/><path d="M54.113,52.145h3.032v1.516H54.113Z" transform="translate(-13.177 -12.726)"/><path d="M32.468,56.081H35.5V57.6H32.468Z" transform="translate(-8.21 -13.629)"/><path d="M32.468,52.145H35.5v1.516H32.468Z" transform="translate(-8.21 -12.726)"/></g></g></g></svg>