<svg xmlns="http://www.w3.org/2000/svg" width="124" height="124" viewBox="0 0 124 124"><g transform="translate(-734.015 -1188.826)"><circle cx="62" cy="62" r="62" transform="translate(734.015 1188.826)" fill="#fff"/><g transform="translate(760.381 1215.207)"><g transform="translate(607.919 1211.919)"><path d="M-555.4-1207.7h-34.5a4.268,4.268,0,0,0-4.3,4.3h0v43.4a2.006,2.006,0,0,0,2,2,1.889,1.889,0,0,0,1.8-1.1,5.357,5.357,0,0,0,.5-1.1v-38.9h34.6v20.7a2.263,2.263,0,0,1,2.3-2.3,1.99,1.99,0,0,1,1.6.7l.4.4v-23.8a4.354,4.354,0,0,0-4.4-4.3Z" fill="#969faa"/><path d="M-552.1-1153.7l-5.1-.7a8.412,8.412,0,0,1-4.3-1.9l-2.2-1.8a8.572,8.572,0,0,0-4.6-1.9l-1.1-.1a2.112,2.112,0,0,1-2.1-2.1,2.431,2.431,0,0,1,.9-1.8l.4-.3c.1-.1.2-.1.3-.2h-12l.5,6.9c0,.5.1,1,.1,1.4a18.354,18.354,0,0,1-.6,4.7h33.4Z" fill="#969faa"/><path d="M-555.4-1199.1h-34.5v38.8a37.342,37.342,0,0,0,2-5.6l.8-3.2a2.58,2.58,0,0,1,2.5-1.9,2.506,2.506,0,0,1,2.5,2.3l.3,4.2h26.5l-.1-34.6Z" fill="#69d6f4"/><path d="M-568.3-1171v2.2h-4.3v-4.3h2.2Z" fill="#ff826e"/><path d="M-581.3-1173.2h4.3v4.3h-4.3Z" fill="#ff826e"/><path d="M-585.6-1194.8h13v13h-13Z" fill="#d3a06c"/><path d="M-581.3-1194.8h4.3v4.3h-4.3Z" fill="#b27946"/><path d="M-568.3-1160.1v4.3h-8.6v-4.3h7.7A1.379,1.379,0,0,1-568.3-1160.1Z" fill="#e6e9ed"/><path d="M-535.9-1162.4v18.4l-12.6-7.6-3.6-2.2,11.9-11.9Z" fill="#b4dd7f"/><path d="M-596.4-1147.2h13v4.3h-13Z" fill="#b4dd7f"/><path d="M-554.7-1176.8a2.234,2.234,0,0,1,0-3.2,2.234,2.234,0,0,1,3.2,0l.4.4,7.4,7.4a8.124,8.124,0,0,1,1.9,2.9l1.5,3.8-11.9,11.9-5.1-.7a8.412,8.412,0,0,1-4.3-1.9l-2.2-1.8a8.572,8.572,0,0,0-4.6-1.9v-.1h-1.1a2.112,2.112,0,0,1-2.1-2.1,2.431,2.431,0,0,1,.9-1.8l.4-.3c.1-.1.2-.1.3-.2a7.542,7.542,0,0,1,9.2,1.1l-7.6-7.6-2.2-2.2-4.3-4.3-.4-.4a2.234,2.234,0,0,1,0-3.2,2.234,2.234,0,0,1,3.2,0l8.6,8.6a2.234,2.234,0,0,1,0-3.2,2.234,2.234,0,0,1,3.2,0,2.234,2.234,0,0,1,0-3.2,2.234,2.234,0,0,1,3.2,0Z" fill="#f0d0b4"/><path d="M-581.3-1157.7c0,.5.1,1,.1,1.4a18.354,18.354,0,0,1-.6,4.7,20.161,20.161,0,0,1-.7,2.3l-.8,2.1h-13v-.2l-1.4-3.5a16.011,16.011,0,0,1-1.1-3.9l-1.7-10.1a10.768,10.768,0,0,1,3-9.5l3.3-3.3v17.6a2.006,2.006,0,0,0,2,2,1.889,1.889,0,0,0,1.8-1.1,5.357,5.357,0,0,0,.5-1.1h0a37.342,37.342,0,0,0,2-5.6l.8-3.2a2.553,2.553,0,0,1,2.4-1.9,2.506,2.506,0,0,1,2.5,2.3l.3,4.2Z" fill="#f0d0b4"/><circle cx="1.1" cy="1.1" r="1.1" transform="translate(-582.4 -1204.5)"/><path d="M-578-1204.5h15.1v2.2H-578Z"/><path d="M-569.4-1195.9h10.8v2.2h-10.8Z"/><path d="M-560.8-1191.5h2.2v2.2h-2.2Z"/><path d="M-569.4-1191.5h6.5v2.2h-6.5Z"/><path d="M-569.4-1187.2h10.8v2.2h-10.8Z"/><path d="M-569.4-1182.9h10.8v2.2h-10.8Z"/><path d="M-534.8-1142.1v-20.8l-4.5-3.4-1.4-3.5a10.045,10.045,0,0,0-2.2-3.3l-7.1-7.1v-23.3a5.378,5.378,0,0,0-5.4-5.4h-34.5a5.378,5.378,0,0,0-5.4,5.4v25.3l-3,3a12.115,12.115,0,0,0-3.5,8.5,13.547,13.547,0,0,0,.2,2l1.7,10.1a19.086,19.086,0,0,0,1.1,4.1l1.3,3.3v5.4h15.1v-5.2l.7-1.9a9.826,9.826,0,0,0,.5-1.6h32.3Zm-2.2-3.8-13.4-8,10.2-10.2,3.1,2.4v15.8h.1Zm-5.7-23,1.2,3.1-11,11-4.6-.7a7.729,7.729,0,0,1-3.8-1.7l-2.2-1.8a9.122,9.122,0,0,0-4.2-2v-.2h-2.2a1,1,0,0,1-1-1,1.193,1.193,0,0,1,.5-.9l.4-.3a6.355,6.355,0,0,1,8.1.8l1,1,1.5-1.5-1-1-14.5-14.5a1.151,1.151,0,0,1,0-1.7,1.151,1.151,0,0,1,1.7,0l8.6,8.6,4.7,4.7,1.5-1.5-4.7-4.7a1.151,1.151,0,0,1,0-1.7,1.268,1.268,0,0,1,.9-.4,1.222,1.222,0,0,1,.9.4l4.7,4.7,1.5-1.5-4.7-4.7a1.151,1.151,0,0,1,0-1.7,1.151,1.151,0,0,1,1.7,0l2.2,2.2,2.6,2.6,1.5-1.5-2.6-2.6a1.151,1.151,0,0,1,0-1.7,1.151,1.151,0,0,1,1.7,0l7.8,7.8a4.946,4.946,0,0,1,1.8,2.4Zm-26.7,9.8h0v2.2h-6.5v-2.2Zm-11.6-8.7h5.1v-6.5h-6.5v3a3.721,3.721,0,0,0-5.1.3,3.606,3.606,0,0,0-.8,1.5l-.6,2.5v-31.2h32.4v18a3.339,3.339,0,0,0-4.7.6,3.41,3.41,0,0,0-.7,1.9,3.384,3.384,0,0,0-3,2l-6.4-6.4a1.382,1.382,0,0,0-.4-.3v-13.7h-15.1v15.1h10a3.33,3.33,0,0,0-.1,2.2h-9.9v2.2h11.4l2.2,2.2h-.6v6.5h6.5v-.6l1.7,1.7h-.5a8.389,8.389,0,0,0-4.1,1.1h-10.7Zm.8-2.1v-2.2h2.2v2.2Zm0-23.8h2.2v2.2h-2.2Zm4.3,4.3v-4.3h2.2v10.8h-10.8v-10.8h2.2v4.3Zm4.3,17.3h.6l1.5,1.5v.6h-2.2Zm-21.6-31.3a3.222,3.222,0,0,1,3.2-3.2h34.6a3.222,3.222,0,0,1,3.2,3.2v21.8a3.331,3.331,0,0,0-2.2.1v-18.6h-36.7v39.7c-.1.3-.3.6-.4.9a.87.87,0,0,1-1.2.4,1.02,1.02,0,0,1-.5-.8v-43.5Zm8.7,59.4h-10.8v-2.2h10.8Zm.9-5.7-.6,1.4h-11.4l-1.2-3a16.149,16.149,0,0,1-1-3.6l-1.7-10.1a8.6,8.6,0,0,1-.1-1.6,9.445,9.445,0,0,1,2.9-6.9l1.5-1.5v15a3.116,3.116,0,0,0,3.1,3.1,3.286,3.286,0,0,0,2.8-1.7,33.76,33.76,0,0,0,2.6-6.9l.8-3.2a1.491,1.491,0,0,1,1.8-1.1,1.63,1.63,0,0,1,1.1,1.3l.8,11c0,.4.1.9.1,1.4a29.673,29.673,0,0,1-1.5,6.4Zm3.1-2.9a21.861,21.861,0,0,0,.3-3.6,7.57,7.57,0,0,0-.1-1.5l-.4-5.7h8.3a4.254,4.254,0,0,0-.2,1.1,2.958,2.958,0,0,0,.2,1H-578v6.5h10.8v-4a9.2,9.2,0,0,1,2.8,1.4l2.2,1.8a9.949,9.949,0,0,0,4.9,2.2l4.9.7h.1Z"/></g></g></g></svg>