<svg xmlns="http://www.w3.org/2000/svg" xmlns:xlink="http://www.w3.org/1999/xlink" width="1070" height="698" viewBox="0 0 1070 698"><defs><clipPath id="a"><path d="M15.4,0H1054.6c8.506,0,15.4,11.711,15.4,26.158V671.842c0,14.447-6.9,26.158-15.4,26.158H15.4C6.9,698,0,686.289,0,671.842V26.158C0,11.711,6.9,0,15.4,0Z" transform="translate(-14401.736 -13318.23)" fill="#cbc232"/></clipPath><clipPath id="b"><path d="M459.908,0c254,0,459.908,197.207,459.908,440.475S713.908,880.95,459.908,880.95,0,683.743,0,440.475,205.908,0,459.908,0Z" transform="translate(0 0)" fill="#21c9b8"/></clipPath><clipPath id="c"><rect width="671.89" height="671.89" fill="#dee4f0"/></clipPath><clipPath id="d"><rect width="208.511" height="212.779" fill="#fff" stroke="#fff" stroke-width="1"/></clipPath></defs><g transform="translate(3238 8280)"><rect width="476" height="204" rx="13" transform="translate(-3210 -8251)" fill="#fff"/><g transform="translate(-2126 -4422.126) rotate(180)"><path d="M-5638.348-8076h304.613" transform="translate(6219.348 11687.826)" fill="none" stroke="#a5b9f6" stroke-width="2"/><circle cx="6.5" cy="6.5" r="6.5" transform="translate(881.156 3603.787) rotate(16)" fill="#a5b9f6"/></g><g transform="translate(-3210 -8055.367)" fill="#a5b9f6" stroke="#a5b9f6" stroke-width="1"><rect width="181" height="38" rx="19" stroke="none"/><rect x="0.5" y="0.5" width="180" height="37" rx="18.5" fill="none"/></g><rect width="476" height="137" rx="13" transform="translate(-2695.124 -8252.178)" fill="#fff"/><g transform="translate(-5009.622 -10780.594) rotate(-31)"><path d="M-5638.348-8076h258.671" transform="translate(6219.348 11687.826)" fill="none" stroke="#ff7e5d" stroke-width="2"/><circle cx="6.5" cy="6.5" r="6.5" transform="translate(835.214 3603.787) rotate(16)" fill="#ff7e5d"/></g><rect width="356" height="154" rx="13" transform="translate(-2550.491 -8047)" fill="#fff"/><g transform="translate(-1198.138 -11343.754) rotate(32)"><path d="M-5638.348-8076H-5483.7" transform="translate(6235.083 11687.826)" fill="none" stroke="#e9dcbf" stroke-width="2"/><circle cx="6.5" cy="6.5" r="6.5" transform="translate(746.923 3603.787) rotate(16)" fill="#e9dcbf"/></g><rect width="333" height="205" rx="13" transform="translate(-3210 -7977)" fill="#fff"/><g transform="matrix(-0.809, 0.588, -0.588, -0.809, -169.564, -5311.359)"><path d="M-5638.348-8076H-5466" transform="translate(6219.348 11687.826)" fill="none" stroke="#cbc232" stroke-width="2"/><circle cx="6.5" cy="6.5" r="6.5" transform="translate(748.891 3603.787) rotate(16)" fill="#cbc232"/></g><rect width="377" height="172" rx="13" transform="translate(-2572 -7814)" fill="#fff"/><g transform="translate(11163.736 5038.23)" opacity="0.61" clip-path="url(#a)"><path d="M0,0H2338.206V906.5H0Z" transform="translate(-14617.002 -13388.495)" fill="#f3f9ff"/><path d="M430,0C667.485,0,860,192.518,860,430S667.485,860,430,860,0,667.485,0,430,192.518,0,430,0Z" transform="translate(-12962.55 -13368.483)" fill="#dbe3fb" opacity="0.14"/><path d="M430,0C667.485,0,860,192.518,860,430S667.485,860,430,860,0,667.485,0,430,192.518,0,430,0Z" transform="translate(-13964.748 -12866.59)" fill="#dbe3fb" opacity="0.14"/><path d="M430,0C667.485,0,860,192.518,860,430S667.485,860,430,860,0,667.485,0,430,192.518,0,430,0Z" transform="translate(-12979.44 -13564.655)" fill="#dbe3fb" opacity="0"/><rect width="11.798" height="3.146" transform="translate(-12795.887 -12841.971)" fill="#dbe3fb"/><ellipse cx="429.43" cy="411.285" rx="429.43" ry="411.285" transform="translate(-14038.88 -14157.373)" fill="#94a6dd" opacity="0.13"/><path d="M439.884,0C682.825,0,879.767,188.621,879.767,421.3s-196.943,421.3-439.884,421.3S0,653.973,0,421.3,196.943,0,439.884,0Z" transform="translate(-13467.973 -13193.763)" fill="#fff" opacity="0.25"/><path d="M573.771,0c316.885,0,573.771,256.886,573.771,573.771s-256.886,573.771-573.771,573.771S0,890.655,0,573.771,256.886,0,573.771,0Z" transform="translate(-14919.12 -12778.843)" fill="#a5b9f6" opacity="0.23" style="mix-blend-mode:multiply;isolation:isolate"/><path d="M573.771,0c316.885,0,573.771,256.886,573.771,573.771s-256.886,573.771-573.771,573.771S0,890.655,0,573.771,256.886,0,573.771,0Z" transform="translate(-15439.346 -14138.426)" fill="#a5b9f6" opacity="0.23" style="mix-blend-mode:multiply;isolation:isolate"/><path d="M573.771,0c316.885,0,573.771,256.886,573.771,573.771s-256.886,573.771-573.771,573.771S0,890.655,0,573.771,256.886,0,573.771,0Z" transform="translate(-14451.011 -14030.858)" fill="#f6f8fe" opacity="0.51" style="mix-blend-mode:lighten;isolation:isolate"/><g transform="translate(-14549.13 -13865.398)"><g clip-path="url(#c)"><path d="M671.89,335.94c0-10.843-.563-21.548-1.572-32.137H514.328l146.23-54.482a334.279,334.279,0,0,0-22.43-60.249L463.075,254.281,595.138,122.207a338.012,338.012,0,0,0-45.465-45.455L439.349,187.086,504.2,45.21a334.232,334.232,0,0,0-58.464-26.763L368.1,188.3V1.561C357.509.563,346.794,0,335.94,0s-21.559.563-32.147,1.561V157.573L249.321,11.342a332,332,0,0,0-60.259,22.43L254.27,208.815,122.207,76.753a339.255,339.255,0,0,0-45.465,45.455L187.076,232.541,45.21,167.694a334.587,334.587,0,0,0-26.763,58.464L188.3,303.8H1.561C.563,314.391,0,325.1,0,335.94,0,346.8.563,357.509,1.561,368.1H157.573L11.332,422.569a332.893,332.893,0,0,0,22.43,60.27L208.8,417.62,76.742,549.672a338.09,338.09,0,0,0,45.465,45.465L232.541,484.8,167.694,626.669a334.522,334.522,0,0,0,58.454,26.774l77.645-169.85V670.329c10.588,1,21.3,1.561,32.147,1.561s21.57-.563,32.158-1.561V514.318l54.471,146.241a334.362,334.362,0,0,0,60.259-22.419L417.609,463.085,549.672,595.138a336.856,336.856,0,0,0,45.465-45.465L484.8,439.339l141.865,64.868a335.7,335.7,0,0,0,26.774-58.464L483.593,368.1H670.318c1.009-10.588,1.572-21.294,1.572-32.158" fill="#dee4f0" opacity="0.12"/></g></g><path d="M782.74,391.364c0-12.632-.656-25.1-1.831-37.439H599.183l170.355-63.47a389.419,389.419,0,0,0-26.13-70.189L539.474,296.232,693.324,142.369a393.777,393.777,0,0,0-52.966-52.954L511.834,217.952,587.379,52.669a389.375,389.375,0,0,0-68.11-31.178L428.827,219.363V1.819C416.492.656,404.008,0,391.364,0s-25.116.656-37.451,1.819v181.75L290.454,13.214a386.769,386.769,0,0,0-70.2,26.13L296.22,243.266,142.369,89.415A395.225,395.225,0,0,0,89.4,142.369L217.94,270.906,52.669,195.36a389.787,389.787,0,0,0-31.178,68.11l197.872,90.455H1.819C.656,366.26,0,378.731,0,391.364c0,12.657.656,25.128,1.819,37.464h181.75L13.2,492.285A387.816,387.816,0,0,0,39.332,562.5L243.254,486.52,89.4,640.358a393.87,393.87,0,0,0,52.966,52.966L270.906,564.787,195.36,730.058a389.712,389.712,0,0,0,68.1,31.191l90.455-197.872V780.921c12.335,1.163,24.819,1.819,37.451,1.819s25.128-.656,37.464-1.819V599.17l63.458,170.368a389.523,389.523,0,0,0,70.2-26.118L486.507,539.486,640.358,693.324a392.433,392.433,0,0,0,52.966-52.966L564.787,511.821l165.27,75.571a391.087,391.087,0,0,0,31.191-68.11L563.377,428.827H780.908c1.175-12.335,1.831-24.807,1.831-37.464" transform="translate(-14291.805 -12840.396)" fill="none" stroke="#fff" stroke-width="1"/><rect width="11.798" height="3.146" transform="translate(-12746.631 -12759.418)" fill="#e9dcbf"/><g transform="translate(-13350.158 -13167.454)" style="isolation:isolate"><g transform="translate(0 0)" clip-path="url(#d)" style="isolation:isolate"><path d="M24.573,0h0a4.1,4.1,0,0,0-4.022,3.581,20.036,20.036,0,0,1-17,16.909,4.1,4.1,0,0,0,.027,8.133,19.879,19.879,0,0,1,17,16.9,4.047,4.047,0,0,0,8.039.072A20.2,20.2,0,0,1,45.672,28.521a3.913,3.913,0,0,0,3.465-3.852v-.1a4.055,4.055,0,0,0-3.553-3.995,20.2,20.2,0,0,1-17-17.035A4.077,4.077,0,0,0,24.573,0" transform="translate(0 0)" fill="#fff" stroke="#fff" stroke-width="1"/><path d="M46.116,0h0a4.1,4.1,0,0,0-4.022,3.581,20.036,20.036,0,0,1-17,16.909,4.1,4.1,0,0,0,.027,8.133,19.879,19.879,0,0,1,17,16.9,4.047,4.047,0,0,0,8.039.072A20.2,20.2,0,0,1,67.215,28.521a3.913,3.913,0,0,0,3.465-3.852v-.1a4.055,4.055,0,0,0-3.553-3.995A20.2,20.2,0,0,1,50.133,3.544,4.081,4.081,0,0,0,46.116,0" transform="translate(31.581 0)" fill="#fff" stroke="#fff" stroke-width="1"/><path d="M67.659,0h0a4.1,4.1,0,0,0-4.022,3.581,20.036,20.036,0,0,1-17,16.909,4.1,4.1,0,0,0,.027,8.133,19.879,19.879,0,0,1,17,16.9A4.047,4.047,0,0,0,71.7,45.6,20.2,20.2,0,0,1,88.758,28.521a3.913,3.913,0,0,0,3.465-3.852v-.1a4.055,4.055,0,0,0-3.553-3.995,20.2,20.2,0,0,1-17-17.035A4.077,4.077,0,0,0,67.659,0" transform="translate(63.162 0)" fill="#fff" stroke="#fff" stroke-width="1"/><path d="M89.2,0h0a4.1,4.1,0,0,0-4.022,3.581,20.035,20.035,0,0,1-17,16.909,4.1,4.1,0,0,0,.027,8.133,19.879,19.879,0,0,1,17,16.9,4.047,4.047,0,0,0,8.039.072A20.2,20.2,0,0,1,110.3,28.521a3.913,3.913,0,0,0,3.465-3.852v-.1a4.055,4.055,0,0,0-3.553-3.995,20.2,20.2,0,0,1-17-17.035A4.077,4.077,0,0,0,89.2,0" transform="translate(94.744 0)" fill="#fff" stroke="#fff" stroke-width="1"/><path d="M24.573,22.12h0A4.1,4.1,0,0,0,20.551,25.7a20.038,20.038,0,0,1-17,16.909,4.1,4.1,0,0,0,.027,8.133,19.879,19.879,0,0,1,17,16.9,4.047,4.047,0,0,0,8.039.069A20.2,20.2,0,0,1,45.672,50.644a3.915,3.915,0,0,0,3.465-3.852v-.1A4.057,4.057,0,0,0,45.583,42.7a20.2,20.2,0,0,1-17-17.035,4.077,4.077,0,0,0-4.015-3.544" transform="translate(0 32.426)" fill="#fff" stroke="#fff" stroke-width="1"/><path d="M46.116,22.12h0A4.1,4.1,0,0,0,42.094,25.7a20.038,20.038,0,0,1-17,16.909,4.1,4.1,0,0,0,.027,8.133,19.879,19.879,0,0,1,17,16.9,4.047,4.047,0,0,0,8.039.069A20.2,20.2,0,0,1,67.215,50.644a3.915,3.915,0,0,0,3.465-3.852v-.1A4.057,4.057,0,0,0,67.126,42.7,20.193,20.193,0,0,1,50.133,25.664a4.081,4.081,0,0,0-4.017-3.544" transform="translate(31.581 32.426)" fill="#fff" stroke="#fff" stroke-width="1"/><path d="M67.659,22.12h0A4.1,4.1,0,0,0,63.637,25.7a20.038,20.038,0,0,1-17,16.909,4.1,4.1,0,0,0,.027,8.133,19.879,19.879,0,0,1,17,16.9,4.047,4.047,0,0,0,8.039.069A20.2,20.2,0,0,1,88.758,50.644a3.915,3.915,0,0,0,3.465-3.852v-.1A4.057,4.057,0,0,0,88.669,42.7a20.2,20.2,0,0,1-17-17.035,4.077,4.077,0,0,0-4.015-3.544" transform="translate(63.162 32.426)" fill="#fff" stroke="#fff" stroke-width="1"/><path d="M89.2,22.12h0A4.1,4.1,0,0,0,85.181,25.7a20.038,20.038,0,0,1-17,16.909,4.1,4.1,0,0,0,.027,8.133,19.879,19.879,0,0,1,17,16.9,4.047,4.047,0,0,0,8.039.069A20.2,20.2,0,0,1,110.3,50.644a3.915,3.915,0,0,0,3.465-3.852v-.1a4.057,4.057,0,0,0-3.553-3.995,20.2,20.2,0,0,1-17-17.035A4.077,4.077,0,0,0,89.2,22.12" transform="translate(94.744 32.426)" fill="#fff" stroke="#fff" stroke-width="1"/><path d="M24.573,44.241h0a4.1,4.1,0,0,0-4.022,3.581,20.03,20.03,0,0,1-17,16.907,4.1,4.1,0,0,0,.027,8.135,19.879,19.879,0,0,1,17,16.9,4.047,4.047,0,0,0,8.039.072A20.2,20.2,0,0,1,45.672,72.762a3.915,3.915,0,0,0,3.465-3.852v-.1a4.055,4.055,0,0,0-3.553-3.995,20.2,20.2,0,0,1-17-17.035,4.077,4.077,0,0,0-4.015-3.544" transform="translate(0 64.854)" fill="#fff" stroke="#fff" stroke-width="1"/><path d="M46.116,44.241h0a4.1,4.1,0,0,0-4.022,3.581,20.03,20.03,0,0,1-17,16.907,4.1,4.1,0,0,0,.027,8.135,19.879,19.879,0,0,1,17,16.9,4.047,4.047,0,0,0,8.039.072A20.2,20.2,0,0,1,67.215,72.762a3.915,3.915,0,0,0,3.465-3.852v-.1a4.055,4.055,0,0,0-3.553-3.995A20.2,20.2,0,0,1,50.133,47.785a4.081,4.081,0,0,0-4.017-3.544" transform="translate(31.581 64.854)" fill="#fff" stroke="#fff" stroke-width="1"/><path d="M67.659,44.241h0a4.1,4.1,0,0,0-4.022,3.581,20.03,20.03,0,0,1-17,16.907,4.1,4.1,0,0,0,.027,8.135,19.879,19.879,0,0,1,17,16.9,4.047,4.047,0,0,0,8.039.072A20.2,20.2,0,0,1,88.758,72.762a3.915,3.915,0,0,0,3.465-3.852v-.1a4.055,4.055,0,0,0-3.553-3.995,20.2,20.2,0,0,1-17-17.035,4.077,4.077,0,0,0-4.015-3.544" transform="translate(63.162 64.854)" fill="#fff" stroke="#fff" stroke-width="1"/><path d="M89.2,44.241h0a4.1,4.1,0,0,0-4.022,3.581,20.03,20.03,0,0,1-17,16.907,4.1,4.1,0,0,0,.027,8.135,19.879,19.879,0,0,1,17,16.9,4.047,4.047,0,0,0,8.039.072A20.2,20.2,0,0,1,110.3,72.762a3.915,3.915,0,0,0,3.465-3.852v-.1a4.055,4.055,0,0,0-3.553-3.995,20.2,20.2,0,0,1-17-17.035A4.077,4.077,0,0,0,89.2,44.241" transform="translate(94.744 64.854)" fill="#fff" stroke="#fff" stroke-width="1"/><path d="M24.573,66.361h0a4.1,4.1,0,0,0-4.022,3.581,20.035,20.035,0,0,1-17,16.909,4.1,4.1,0,0,0,.027,8.133,19.879,19.879,0,0,1,17,16.9,4.047,4.047,0,0,0,8.039.071A20.2,20.2,0,0,1,45.672,94.882a3.913,3.913,0,0,0,3.465-3.852v-.1a4.055,4.055,0,0,0-3.553-3.995,20.2,20.2,0,0,1-17-17.035,4.077,4.077,0,0,0-4.015-3.544" transform="translate(0 97.281)" fill="#fff" stroke="#fff" stroke-width="1"/><path d="M46.116,66.361h0a4.1,4.1,0,0,0-4.022,3.581,20.035,20.035,0,0,1-17,16.909,4.1,4.1,0,0,0,.027,8.133,19.879,19.879,0,0,1,17,16.9,4.047,4.047,0,0,0,8.039.071A20.2,20.2,0,0,1,67.215,94.882a3.913,3.913,0,0,0,3.465-3.852v-.1a4.055,4.055,0,0,0-3.553-3.995A20.2,20.2,0,0,1,50.133,69.9a4.081,4.081,0,0,0-4.017-3.544" transform="translate(31.581 97.281)" fill="#fff" stroke="#fff" stroke-width="1"/><path d="M67.659,66.361h0a4.1,4.1,0,0,0-4.022,3.581,20.035,20.035,0,0,1-17,16.909,4.1,4.1,0,0,0,.027,8.133,19.879,19.879,0,0,1,17,16.9,4.047,4.047,0,0,0,8.039.071A20.2,20.2,0,0,1,88.758,94.882a3.913,3.913,0,0,0,3.465-3.852v-.1a4.055,4.055,0,0,0-3.553-3.995,20.2,20.2,0,0,1-17-17.035,4.077,4.077,0,0,0-4.015-3.544" transform="translate(63.162 97.281)" fill="#fff" stroke="#fff" stroke-width="1"/><path d="M89.2,66.361h0a4.1,4.1,0,0,0-4.022,3.581,20.035,20.035,0,0,1-17,16.909,4.1,4.1,0,0,0,.027,8.133,19.879,19.879,0,0,1,17,16.9,4.047,4.047,0,0,0,8.039.071A20.2,20.2,0,0,1,110.3,94.882a3.913,3.913,0,0,0,3.465-3.852v-.1a4.055,4.055,0,0,0-3.553-3.995,20.2,20.2,0,0,1-17-17.035A4.077,4.077,0,0,0,89.2,66.361" transform="translate(94.744 97.281)" fill="#fff" stroke="#fff" stroke-width="1"/></g></g></g><text transform="translate(-3185.348 -8229.5)" fill="#12263f" font-size="14" font-family="Roboto-Regular, Roboto"><tspan x="0" y="15">Este es el último grupo de necesidades y están relacionadas con la </tspan><tspan x="0" y="39">satisfacción personal, tener todas las necesidades cubiertas, y el </tspan><tspan x="0" y="63" font-family="Roboto-Bold, Roboto" font-weight="700">“sentirse pleno”</tspan><tspan y="63">, puede parecer un poco subjetivo ya que cada </tspan><tspan x="0" y="87">persona evalúa cuando se siente totalmente satisfecho, algunos lo </tspan><tspan x="0" y="111">asocian con temas económicos, otros con temas familiares, otros con </tspan><tspan x="0" y="135">temas espirituales, por lo que la unidad de medida varía en cada caso.</tspan><tspan y="135" font-family="Roboto-Bold, Roboto" font-weight="700"> </tspan><tspan x="0" y="159" font-family="Roboto-Bold, Roboto" font-weight="700">Ejemplo: moralidad, metas cumplidas.</tspan></text><text transform="translate(-3117.848 -8030.367)" fill="#12263f" font-size="18" font-family="Roboto-Black, Roboto" font-weight="800"><tspan x="-67.302" y="0">Autorrealización</tspan></text><text transform="translate(-2675.624 -8233.397)" fill="#12263f" font-size="16" font-family="Roboto-Regular, Roboto"><tspan x="0" y="17">Hace relación a la estima, a sentirse reconocido y valorado </tspan><tspan x="0" y="41">en términos sociales, es decir, se enfoca a que la persona se </tspan><tspan x="0" y="65">sienta valiosa como participante de una sociedad. </tspan><tspan y="65" font-family="Roboto-Bold, Roboto" font-weight="700">Ejemplo: </tspan><tspan x="0" y="89" font-family="Roboto-Bold, Roboto" font-weight="700">ascensos en la empresa, logros, grados.</tspan></text><g transform="translate(54.988 -62.227)"><rect width="180" height="38" rx="19" transform="translate(-2473.612 -8071.951)" fill="#ff7e5d"/><text transform="translate(-2387.264 -8046.952)" fill="#12263f" font-size="18" font-family="Roboto-Black, Roboto" font-weight="800"><tspan x="-65.993" y="0">Reconocimiento</tspan></text></g><text transform="translate(-2523.491 -8027.999)" fill="#12263f" font-size="16" font-family="Roboto-Regular, Roboto"><tspan x="0" y="17">Esta tercera necesidad está relacionada </tspan><tspan x="0" y="41">directamente con la relevancia para el </tspan><tspan x="0" y="65">individuo de pertenencia a un grupo, de </tspan><tspan x="0" y="89" font-family="Roboto-Bold, Roboto" font-weight="700">“encajar” </tspan><tspan y="89">dentro de su entorno. </tspan><tspan y="89" font-family="Roboto-Bold, Roboto" font-weight="700">Ejemplo: </tspan><tspan x="0" y="113" font-family="Roboto-Bold, Roboto" font-weight="700">familia, amistades.</tspan></text><g transform="translate(9.509 23.133)"><rect width="187.754" height="38" rx="19" transform="matrix(1, 0.017, -0.017, 1, -2466.337, -7927.912)" fill="#e9dcbf"/><text transform="translate(-2372.991 -7900.767)" fill="#12263f" font-size="18" font-family="Roboto-Black, Roboto" font-weight="800"><tspan x="-73.626" y="0">Afiliación y afecto</tspan></text></g><text transform="translate(-3185 -7953)" fill="#12263f" font-size="16" font-family="Roboto-Regular, Roboto"><tspan x="0" y="17">Este grupo de necesidades impacta la </tspan><tspan x="0" y="41">interacción de la persona con la </tspan><tspan x="0" y="65">sociedad y están asociadas a </tspan><tspan x="0" y="89">necesidades básicas de protección y </tspan><tspan x="0" y="113" xml:space="preserve">seguridad.  </tspan><tspan y="113" font-family="Roboto-Bold, Roboto" font-weight="700">Ejemplo: empleo, salud, </tspan><tspan x="0" y="137" font-family="Roboto-Bold, Roboto" font-weight="700">propiedad privada.</tspan></text><g transform="translate(-666.826 -25)"><rect width="238.348" height="38" rx="19" transform="translate(-2492.348 -7774.992)" fill="#cbc232"/><text transform="translate(-2373 -7749.992)" fill="#12263f" font-size="18" font-family="Roboto-Black, Roboto" font-weight="800"><tspan x="-107.284" y="0">Necesidades de seguridad</tspan></text></g><text transform="translate(-2550 -7794)" fill="#12263f" font-size="16" font-family="Roboto-Regular, Roboto"><tspan x="0" y="17">Son aquellas necesidades individuales que </tspan><tspan x="0" y="41">deben ser satisfechas porque se consideran </tspan><tspan x="0" y="65">básicas, es decir, que las personas necesitan </tspan><tspan x="0" y="89">para subsistir garantizando calidad de vida. </tspan><tspan x="0" y="113" font-family="Roboto-Bold, Roboto" font-weight="700">Ejemplos: la vivienda, los alimentos, la salud.</tspan></text><g transform="translate(40.703 -23.016)"><rect width="238.348" height="38" rx="19" transform="translate(-2617 -7637.984)" fill="#21c9b8"/><text transform="translate(-2494 -7612.984)" fill="#12263f" font-size="18" font-family="Roboto-Black, Roboto" font-weight="800"><tspan x="-103.307" y="0">Necesidades Fisiológicas</tspan></text></g><g transform="translate(-1388.351 -11147.971) rotate(30)"><path d="M-5638.348-8076H-5503" transform="translate(6219.348 11687.826)" fill="none" stroke="#21c9b8" stroke-width="2"/><circle cx="6.5" cy="6.5" r="6.5" transform="translate(711.891 3603.787) rotate(16)" fill="#21c9b8"/></g><g transform="translate(-2877 -8079.666)"><path d="M0,223.552,186.6,365.564,371.986,223.55,185.386,81.537Z" transform="translate(0 17.89)" fill="#636363" opacity="0.15" style="mix-blend-mode:multiply;isolation:isolate"/><path d="M359.88,191.019,188.053,322.647,15.1,191.021,186.929,59.393Z" transform="translate(-1.486 13.717)" fill="#21c9b8"/><path d="M344,177.412,189.939,295.432,34.868,177.414,188.932,59.393Z" transform="translate(-3.431 13.717)" fill="#636363" opacity="0.15" style="mix-blend-mode:multiply;isolation:isolate"/><path d="M378.689,170.144l-.6,26.639L206.264,328.411l.6-26.639Z" transform="translate(-20.296 34.592)" fill="#4dd5c7"/><path d="M187.987,301.772l-.6,26.639L14.437,196.785l.6-26.639Z" transform="translate(-1.421 34.592)" fill="#3b958c"/><path d="M337.368,151.895,190.673,264.27,43.019,151.9,189.714,39.521Z" transform="translate(-4.233 9.971)" fill="#cbc232"/><path d="M318.6,135.81,192.9,232.1,66.385,135.811l125.7-96.29Z" transform="translate(-6.532 9.971)" fill="#636363" opacity="0.15" style="mix-blend-mode:multiply;isolation:isolate"/><path d="M353.426,134.073l-.51,22.742L206.221,269.19l.51-22.742Z" transform="translate(-20.291 27.793)" fill="#e1d740"/><path d="M190.618,246.448l-.51,22.742L42.453,156.817l.511-22.743Z" transform="translate(-4.177 27.793)" fill="#b7af2d"/><path d="M313.618,115.08,193.439,207.143,72.474,115.082,192.653,23.019Z" transform="translate(-7.131 6.861)" fill="#e9dcbf"/><path d="M291.467,96.1l-95.4,73.078L100.052,96.1l95.4-73.078Z" transform="translate(-9.845 6.861)" fill="#636363" opacity="0.15" style="mix-blend-mode:multiply;isolation:isolate"/><path d="M326.773,100.48l-.418,18.632L206.177,211.174l.418-18.632Z" transform="translate(-20.287 21.461)" fill="#f6e1b2"/><path d="M193.393,192.543l-.418,18.632L72.01,119.113l.418-18.632Z" transform="translate(-7.086 21.461)" fill="#d2c6ac"/><path d="M286.249,80.053l-89.624,68.656-90.21-68.655L196.039,11.4Z" transform="translate(-10.471 4.67)" fill="#ff7e5d"/><path d="M266.529,63.151l-67.56,51.755-68-51.754L198.527,11.4Z" transform="translate(-12.887 4.67)" fill="#636363" opacity="0.15" style="mix-blend-mode:multiply;isolation:isolate"/><path d="M296.06,69.164l-.312,13.895-89.624,68.656.312-13.895Z" transform="translate(-20.282 15.558)" fill="#f3a38e"/><path d="M196.591,137.82l-.312,13.895L106.069,83.06l.312-13.895Z" transform="translate(-10.437 15.558)" fill="#df6546"/><path d="M259.015,49.628,199.8,94.993,140.191,49.629,199.409,4.265Z" transform="translate(-13.794 3.326)" fill="#a5b9f6"/><path d="M265.5,42.434l-.206,9.181L206.073,96.978l.206-9.18Z" transform="translate(-20.277 10.52)" fill="#dbe3fb"/><path d="M199.774,87.8l-.206,9.181L139.962,51.615l.206-9.181Z" transform="translate(-13.772 10.52)" fill="#94a6dd"/></g></g></svg>