<svg xmlns="http://www.w3.org/2000/svg" width="335.352" height="270.584" viewBox="0 0 335.352 270.584"><g transform="translate(-545.752 -127.603)"><g transform="translate(545.752 127.603)"><g transform="translate(36.774)"><g transform="translate(45.622 222.649)"><path fill="#455a64" d="m14.386 0-.415 14.841s14.946 5.406 15.137 8.157l-28.805.229L.003.075Z"/><path fill="#e0e0e0" d="M5.053 13.664a1.176 1.176 0 0 0-.8 1.349 1.13 1.13 0 0 0 1.33.807 1.24 1.24 0 0 0 .842-1.433 1.173 1.173 0 0 0-1.477-.686"/><path fill="#fff" d="m.299 23.227.06-2.335 27.6.654s1.287.548 1.149 1.452Z" opacity=".6"/><path fill="#263238" d="M14.437 14.691c0 .142-.706.21-1.395.668-.7.44-1.053 1.053-1.183 1-.129-.026.073-.869.917-1.408s1.691-.388 1.661-.26m3.03 1.228c.034.135-.574.379-1.047.978-.49.584-.606 1.229-.747 1.224-.132.023-.236-.8.366-1.533s1.424-.806 1.428-.669m1.746 3.6c-.128.031-.329-.671.026-1.444s1.011-1.086 1.071-.969c.08.115-.344.532-.625 1.171-.297.633-.333 1.226-.472 1.242m-5.056-8.222c-.057.129-.7-.06-1.5 0-.8.044-1.412.315-1.486.2-.082-.1.518-.627 1.455-.685s1.599.374 1.531.485"/><path d="m14.386 0-.415 14.841s14.946 5.406 15.137 8.157l-28.805.229L.003.075Z" opacity=".3"/></g><g transform="translate(27.585 222.853)"><path fill="#455a64" d="m14.386 0-.415 14.842s14.945 5.406 15.136 8.157l-28.805.228L.002.076Z"/><path fill="#e0e0e0" d="M5.054 13.663a1.176 1.176 0 0 0-.8 1.349 1.13 1.13 0 0 0 1.33.808 1.24 1.24 0 0 0 .842-1.433A1.174 1.174 0 0 0 4.95 13.7"/><path fill="#fff" d="m.302 23.227.06-2.335 27.6.654s1.287.548 1.149 1.453Z" opacity=".6"/><path fill="#263238" d="M14.438 14.692c0 .141-.706.21-1.395.668-.7.44-1.053 1.052-1.183 1-.129-.027.073-.869.917-1.409s1.69-.388 1.661-.259m3.029 1.225c.034.136-.574.38-1.047.979-.49.584-.606 1.229-.747 1.224-.132.023-.236-.8.367-1.533s1.423-.804 1.427-.67m1.746 3.602c-.128.031-.329-.67.026-1.444s1.011-1.085 1.071-.968c.08.115-.343.532-.625 1.17-.297.634-.332 1.227-.472 1.242m-5.056-8.221c-.057.129-.7-.06-1.5 0-.8.044-1.412.316-1.486.2-.082-.1.518-.627 1.455-.684s1.599.373 1.531.484"/></g><g transform="translate(16.895 92.902)"><path fill="#263238" d="M47.094 5.928s4.7 18.65 4.806 28-1.428 36.717-1.428 36.717c-.158 2.62-5.321 70.011-5.321 70.011l-17.9.2.356-64.75-.653-48.445.751-24.455Z"/><path fill="#263238" d="M8.998 0c-.866.571-3.572 9.392-5.5 20.449s-4.774 7.628-2.857 22.4c2.169 16.711 5.041 27 5.145 36.163s2.46 24.215 2.209 35.066.752 26.986.752 26.986l18.507-.209 1.278-72.226-.833-66.226Z"/><path fill="#455a64" d="M28.34 140.882c-.11 0-.474-24.246-.812-54.15s-.523-54.159-.413-54.16.474 24.24.812 54.156.523 54.152.413 54.154M5.782 14.227c.034-.07.8.373 2.158.669a10.07 10.07 0 0 0 5.322-.35 8.67 8.67 0 0 0 4.273-3.13 5.6 5.6 0 0 0 .813-2.064 3.12 3.12 0 0 1-.575 2.216 8.4 8.4 0 0 1-4.38 3.351 9.6 9.6 0 0 1-5.518.248 8 8 0 0 1-1.575-.6c-.348-.197-.533-.316-.518-.34m34.369-.814a9.16 9.16 0 0 0 3.277 4.009 4.73 4.73 0 0 1-3.277-4.009"/><path fill="#455a64" d="M27.128 33.858c-.047-.112 1.333-.7 2.751-1.845s2.309-2.345 2.408-2.274a8.43 8.43 0 0 1-5.159 4.12Zm2.58-6.907a1.1 1.1 0 0 0 .79-.216 1.4 1.4 0 0 0 .486-.819 9 9 0 0 0 .132-1.342c.128-2.03.331-4.831.581-7.923s.5-5.891.7-7.914q.151-1.417.257-2.394a3.8 3.8 0 0 1 .148-.874 3.8 3.8 0 0 1 .006.886l-.13 2.4c-.128 2.03-.332 4.831-.581 7.923s-.5 5.889-.7 7.913a8 8 0 0 1-.2 1.378 1.52 1.52 0 0 1-.611.887c-.537.344-.912.101-.878.095M28.504 6.884a1.44 1.44 0 0 0-.987.475 1.34 1.34 0 0 0-.359 1.063 1.09 1.09 0 0 0 .9.9 1.141 1.141 0 0 0 1.141-1.7c-.318-.634-.841-.7-.815-.766 0-.021.128-.043.342.025a1.4 1.4 0 0 1 .72.6 1.47 1.47 0 0 1 .094 1.412 1.54 1.54 0 0 1-1.529.817 1.435 1.435 0 0 1-1.213-1.235 1.57 1.57 0 0 1 .518-1.314 1.24 1.24 0 0 1 .861-.383c.226.012.338.086.327.106"/></g><g transform="translate(0 63.499)"><path fill="#c78976" d="M18.75 0s-2.131 17.588-2.808 21.18-2.965 7.2-3.085 12.4.308 27.239.308 27.239l4.869.119s4.888-28.644 7.141-33.549 2.872-13.581 2.872-13.581l-1.348-11.27Z"/><path fill="#c78976" d="m13.165 60.82-2.188 8.481 1.579 7.316 8.921 1.4s.512-.754-.469-1.641S15.98 74.9 15.98 74.9l.243-7.75-.072-6.36Z"/><path fill="#455a64" d="M.001 84.977a1.2 1.2 0 0 1 .056-.265l.207-.763.835-2.912 3.13-10.63.037-.125.13.02 21.4 3.3.2.031-.041.2-1.421 7.152-6 30.618c-.751 3.921-1.345 7.1-1.733 9.293a96 96 0 0 0-.421 2.534c-.047.29-.063.512-.086.661a1 1 0 0 1-.007.226 14.5 14.5 0 0 1 .361-3.446c.341-2.208.894-5.392 1.609-9.319 1.432-7.857 3.517-18.689 5.887-30.644l1.427-7.152.162.233-21.389-3.392.167-.1-3.258 10.592-.912 2.889q-.151.465-.248.75a1.3 1.3 0 0 1-.092.249"/><path fill="#455a64" d="m8.612 69.534-2.064-.265a1.17 1.17 0 0 0-.659.042 1.08 1.08 0 0 0-.478.718 5.7 5.7 0 0 0-.181 2.334 1.18 1.18 0 0 0 .273.7c.35.346.934.194 1.385 0s.995-.406 1.4-.133a2.4 2.4 0 0 1 .442.492 1.79 1.79 0 0 0 1.666.59c.747-.142 1.424-.766 2.166-.6.922.207 1.3 1.512 2.231 1.655.912.139 1.672-.943 2.585-.818 1.135.156 1.553 2.023 2.694 1.926a2.8 2.8 0 0 0 1.139-.589c.369-.226.916-.326 1.183.015.216.276.186.771.521.873s.578-.334.661-.68q.395-1.627.687-3.277a.7.7 0 0 0-.008-.392c-.087-.2-.333-.269-.548-.314l-3.3-.676Z"/><path fill="#c78976" d="M18.015 60.362c0 .473.833 3.334.536 5.477s-1.071 6.429-1.071 6.429 0 2.382-.3 2.5-1.666.357-2.023-.535.178-5.239 0-5.417a44 44 0 0 1-.655-4.4l.238-3.628Z"/></g><g transform="translate(12.481 43.889)"><path fill="#c78976" d="m29.026 0-9.127 1.873 6.884 17.5 9.883 3.079 7.445-1.623 6.523-9.46 1.183-4.63L48.655.762Z"/><path fill="#455a64" d="M54.252 3.235s7.768 1.588 9.3 7.646 3.543 16.927 3.543 16.927l-13.557 5.181Z"/><path fill="#455a64" d="m47.976 1.946 8 1.8-1.3 26.8s-.881 19.049-1.31 20.617.018 3.41-1.678 4.14-38.255-2.977-39.122-4.247 1.05-7.685 1.441-10.815-.35-18.467-.218-19.321 4.042-19.512 4.042-19.512l5.115-.058s1.6 15.612 11.978 16.347S47.976 1.946 47.976 1.946"/><path fill="#455a64" d="M0 26.928S8.561 4.797 11.452 3.059a13.3 13.3 0 0 1 6.382-1.652l-3.13 30.7Z"/><path fill="#263238" d="M14.824 20.18c.047.015-.279.885-.548 2.349a17.63 17.63 0 0 0 1.7 11.269c.69 1.318 1.258 2.053 1.218 2.082a3.4 3.4 0 0 1-.411-.5 12.5 12.5 0 0 1-.956-1.5 16.65 16.65 0 0 1-1.72-11.381 12.5 12.5 0 0 1 .47-1.713 3.3 3.3 0 0 1 .247-.606m37.89 19.948a3 3 0 0 1 .06-.6c.049-.387.155-.942.3-1.623.3-1.364.859-3.21 1.527-5.224a48 48 0 0 0 1.483-5.215c.14-.679.239-1.232.289-1.617a3 3 0 0 1 .112-.6 3 3 0 0 1-.019.606 16 16 0 0 1-.216 1.639 38.5 38.5 0 0 1-1.422 5.257c-.668 2.016-1.252 3.843-1.59 5.19-.169.672-.3 1.219-.376 1.6a3 3 0 0 1-.148.587m5.18-22.819a5.7 5.7 0 0 1 .2-1.226c.161-.75.425-1.776.783-2.891s.744-2.1 1.049-2.806a5.7 5.7 0 0 1 .554-1.112 7.3 7.3 0 0 1-.4 1.174c-.264.717-.621 1.708-.978 2.817s-.644 2.121-.847 2.858a7 7 0 0 1-.361 1.186M13.952 3.405a1.8 1.8 0 0 1 .1.454c.053.294.117.721.186 1.252.138 1.059.286 2.528.374 4.157s.1 3.106.073 4.173c-.012.535-.03.966-.05 1.265a1.8 1.8 0 0 1-.056.462 14 14 0 0 1-.063-1.727c-.019-1.066-.056-2.537-.142-4.161s-.208-3.09-.3-4.151a14 14 0 0 1-.122-1.724"/><path fill="#bf654e" d="M35.686 10.561a10.2 10.2 0 0 1 4.615-.168 20 20 0 0 1-4.615.168m-8.084-.482a11.5 11.5 0 0 1 4.973.738 26 26 0 0 1-4.973-.738"/></g><g transform="translate(10.254 72.257)"><g transform="translate(.798 58.177)"><path fill="#e0e0e0" d="M52.314 4.195 3.73 114.995l-3.47-1.686L50.019.115Z"/><path fill="#263238" d="M52.314 4.198s-.2-.318-.582-.985L49.975.141h.091c-5.51 12.744-25.311 57.946-48.918 111.646l-.705 1.6-.1-.259 3.47 1.686-.269.1 34.485-78.47 10.42-23.609 2.845-6.4.748-1.664c.171-.375.268-.567.268-.567s-.071.191-.229.565-.4.939-.71 1.662l-2.772 6.4-10.3 23.635-34.4 78.607-.083.19-.187-.09-3.469-1.685-.173-.084.077-.175.705-1.605C24.375 57.924 44.292 12.774 49.958.098L50 .004l.049.09 1.721 3.114c.381.669.544.99.544.99"/></g><path fill="#c78976" d="M59.022 44.328s1.453 9.827.868 10.729a1.99 1.99 0 0 1-1.781.766s-.552 4.033-1.89 4.347a1.76 1.76 0 0 1-1.948-.837s.484 3.24-1.159 2.96a3.63 3.63 0 0 1-2.405-1.613l-.027-2.386s-1.329 1.208-1.789.02-.1-8.8-.1-8.8l3.937-7.949Z"/><path fill="#c78976" d="M68.101 0s1.23 19.3.269 23.813-9.348 20.516-9.348 20.516l-6.3-2.762s3.934-10.909 4.749-16.71 1.714-21.451 1.714-21.451Z"/><path fill="#455a64" d="M5.44 173.617c.258-1.271.925-4.251.925-4.251l-3.858-1.69-2.424 3.732a.512.512 0 0 0 .216.748l4.539 1.815a.45.45 0 0 0 .602-.354"/></g><g transform="translate(29.43)"><path fill="#263238" d="M4.928 11.039c-.063-1.567 1.373-2.794 2.825-3.384s3.072-.825 4.362-1.715a21 21 0 0 0 2.867-3 9.65 9.65 0 0 1 16.279 4.244c.585 2.225.233 4.868-1.51 6.371-2.022 1.744-5.053 1.4-7.675.89s-5.589-1-7.756.56a11.2 11.2 0 0 0-2.834 3.861 6.84 6.84 0 0 1-3.3 3.381c-1.517.542-3.595-.34-3.672-1.949"/><path fill="#263238" d="M36.187 20.016c-.512-1.2-1.383-2.216-1.89-3.415a28.5 28.5 0 0 1-1.021-4.762 11.12 11.12 0 0 0-16.713-6.935L4.888 11.598c.258 1.967-1.434 3.293-2.27 4.321a4.03 4.03 0 0 0-1.273 2.908c-.021 1.548.975 2.407.822 3.947-.1.977-1.35 2.665-1.7 3.583a8.5 8.5 0 0 0 .078 4.523 10.9 10.9 0 0 0 2.974 4.753 21.23 21.23 0 0 0 10.938 4.945 40 40 0 0 0 11.383-.667 11 11 0 0 0 8.59-6.643 29.8 29.8 0 0 0 2.377-7.454 9.26 9.26 0 0 0-.62-5.798"/><path fill="#c78976" d="M32.809 16.97c-.343-4.468-3.38-9.915-7.83-9.384l-13.867 3.705a2.623 2.623 0 0 0-2.31 2.691l1.9 32.793a4.4 4.4 0 0 0 .4 1.611c1.059 2.266 4.556 8.014 11.982 5.586 1.817-.594 2.627-2.6 2.965-4.654 0-.244.1-.459.1-.692a22 22 0 0 0 0-4.608c-.005-2.71-.021-3.82-.018-3.8 0 0 5.7-1.026 6.784-8.5.539-3.709.275-9.783-.106-14.748"/><g transform="translate(16.115 19.385)"><path fill="#263238" d="M14.774 3.01a.957.957 0 0 1-.909.978.915.915 0 0 1-1-.849.956.956 0 0 1 .908-.977.915.915 0 0 1 1.001.848m-9.85.111a.956.956 0 0 1-.909.977.914.914 0 0 1-1-.848.955.955 0 0 1 .907-.978.915.915 0 0 1 1.002.849m.2-1.88C4.97 1.304 4.23.794 3.066.598s-2.1.012-2.2-.1C.812.449.982.317 1.391.216a4.5 4.5 0 0 1 1.787-.03 4.1 4.1 0 0 1 1.614.619c.318.232.406.408.332.436M15.24.438c-.125.108-.988-.143-2.156.036s-1.985.67-2.121.6c-.066-.031.053-.209.41-.434A4.5 4.5 0 0 1 13.06.051a4.1 4.1 0 0 1 1.727.08c.376.118.515.258.453.307M8.816 8.677a6.8 6.8 0 0 1 1.667-.324c.262-.031.51-.086.552-.266a1.34 1.34 0 0 0-.186-.776l-.8-1.99A34.5 34.5 0 0 1 8.233.112a34 34 0 0 1 2.231 5.051q.4 1.048.772 2a1.52 1.52 0 0 1 .15 1.03.66.66 0 0 1-.427.389 1.8 1.8 0 0 1-.445.068 6.7 6.7 0 0 1-1.698.027"/><path fill="#bf654e" d="M10.02 20.838A18.97 18.97 0 0 1 0 18.31s2.58 5.127 10.032 4.328Zm-1.274-9.679a1.86 1.86 0 0 0-1.672-.666 1.7 1.7 0 0 0-1.161.643 1.07 1.07 0 0 0-.065 1.227 1.24 1.24 0 0 0 1.353.323 3.9 3.9 0 0 0 1.3-.8 1.1 1.1 0 0 0 .29-.308.34.34 0 0 0-.007-.383"/><path fill="#263238" d="M6.126 9.426c.168-.012.184 1.1 1.151 1.884s2.154.641 2.164.8c.017.07-.262.22-.764.241a2.78 2.78 0 0 1-1.806-.6 2.42 2.42 0 0 1-.894-1.581c-.048-.471.072-.749.149-.744"/></g><path fill="#263238" d="M22.375 17.454c-.1.281-1.127.162-2.332.324-1.209.138-2.177.5-2.341.255-.073-.119.093-.385.483-.661a4.1 4.1 0 0 1 3.559-.441c.446.173.672.39.631.523m8.74-.276c-.178.236-.89 0-1.743 0-.852-.03-1.571.178-1.741-.063-.074-.118.036-.353.349-.579a2.52 2.52 0 0 1 2.807.049c.304.238.406.477.328.593"/><path fill="#263238" d="m29.703 6.296-1.837-1.978c-3.3 1.53-7.007 1.826-10.571 2.543s-7.264 2.029-9.448 4.934c-1.991 2.651-2.37 6.156-2.446 9.471-.087 3.821.133 7.644.427 11.455a7.8 7.8 0 0 0 .552 2.738 2.69 2.69 0 0 0 2.116 1.64c1.473.1 2.563-1.441 2.816-2.9s0-2.977.37-4.407c.251-.976.783-1.869.972-2.86.35-1.822-.494-3.746 0-5.533.638-2.311 3.182-3.462 5.468-4.184s4.862-1.513 5.982-3.634l.3 2.78a9.06 9.06 0 0 0 5.299-10.065"/><path fill="#455a64" d="M26.239 12.671a13.14 13.14 0 0 0 2.174-9.329 4.3 4.3 0 0 1 .32 1.423 10.6 10.6 0 0 1-1.578 6.771 4.4 4.4 0 0 1-.916 1.135M6.393 27.784a1.7 1.7 0 0 1-.171-.352c-.1-.236-.235-.589-.383-1.053a12.8 12.8 0 0 1-.586-4.077 10.03 10.03 0 0 1 1.92-5.764 8.5 8.5 0 0 1 2.725-2.4 10.9 10.9 0 0 1 3.729-1.128c1.319-.194 2.609-.275 3.834-.467a12.4 12.4 0 0 0 3.4-.985 12.6 12.6 0 0 0 4.673-3.715 12.5 12.5 0 0 0 1.961-3.555l.206-.607.122-.455a2 2 0 0 1 .119-.372 1.8 1.8 0 0 1-.057.386l-.093.465-.18.623a11.9 11.9 0 0 1-1.9 3.651 12.38 12.38 0 0 1-8.209 4.871c-1.242.2-2.534.281-3.835.473a10.7 10.7 0 0 0-3.628 1.087 8.3 8.3 0 0 0-2.639 2.307 9.9 9.9 0 0 0-1.929 5.6 13.4 13.4 0 0 0 .48 4.035c.129.465.244.823.324 1.066a2 2 0 0 1 .117.366M5.071 12.912a7 7 0 0 0-.542.752 20 20 0 0 1-1.717 1.845 9 9 0 0 0-1.088 1.411 4.6 4.6 0 0 0-.571 1.989 5.5 5.5 0 0 0 .343 2.255 3.23 3.23 0 0 1 .384 2.159c-.244.7-.88 1.271-1.219 2a6.4 6.4 0 0 0-.622 2.189 9.1 9.1 0 0 0 .472 3.769 17 17 0 0 0 .988 2.348 3.8 3.8 0 0 0 .467.807c.076-.031-.553-1.215-1.18-3.239a9.3 9.3 0 0 1-.376-3.644 6.2 6.2 0 0 1 .605-2.051 23 23 0 0 0 1.249-2.054 2.2 2.2 0 0 0 .01-1.306 12 12 0 0 0-.406-1.122 5.2 5.2 0 0 1-.342-2.1 4.3 4.3 0 0 1 .492-1.847 9.3 9.3 0 0 1 1.008-1.382 15 15 0 0 0 1.632-1.947 2.9 2.9 0 0 0 .413-.832m9.173-3.432a11.17 11.17 0 0 1-5.966-.695 5.93 5.93 0 0 0 5.966.695m2.295-2.723a19 19 0 0 1-4.071 1.189 14.1 14.1 0 0 1-4.2-.4 2.9 2.9 0 0 0 1.165.53 7.9 7.9 0 0 0 3.083.275 8.8 8.8 0 0 0 2.963-.884 3.1 3.1 0 0 0 1.06-.71"/><g transform="translate(26.239 18.541)"><path fill="#263238" d="M.014 3.646A3.506 3.506 0 1 0 3.48.101 3.5 3.5 0 0 0 .014 3.646"/><path fill="#455a64" d="M.015 3.646a2.6 2.6 0 0 1 .054-.868 3.5 3.5 0 0 1 1.246-2 3.58 3.58 0 0 1 3.4-.581 3.606 3.606 0 0 1 .077 6.792 3.58 3.58 0 0 1-3.41-.5A3.5 3.5 0 0 1 .091 4.518a2.6 2.6 0 0 1-.074-.867c.028 0 .016.312.164.843a3.5 3.5 0 0 0 1.3 1.86A3.4 3.4 0 1 0 1.419.915 3.5 3.5 0 0 0 .16 2.805c-.136.528-.118.843-.145.841"/></g><g transform="translate(15.812 18.659)"><path fill="#263238" d="M.014 3.646A3.506 3.506 0 1 0 3.48.101 3.507 3.507 0 0 0 .014 3.646"/><path fill="#455a64" d="M.015 3.646a2.6 2.6 0 0 1 .055-.868 3.5 3.5 0 0 1 1.246-2 3.58 3.58 0 0 1 3.4-.581 3.606 3.606 0 0 1 .077 6.792 3.58 3.58 0 0 1-3.41-.5A3.5 3.5 0 0 1 .092 4.518a2.6 2.6 0 0 1-.074-.867c.028 0 .017.312.164.843a3.5 3.5 0 0 0 1.3 1.86A3.4 3.4 0 1 0 1.421.915a3.5 3.5 0 0 0-1.26 1.89c-.137.533-.119.843-.146.841"/></g><path fill="#263238" d="M22.321 20.305c-.032-.039.149-.262.544-.5a3.43 3.43 0 0 1 3.442.009c.394.239.573.463.542.5a4.82 4.82 0 0 0-4.527-.012Z"/><path fill="#455a64" d="M20.464 23.582a10 10 0 0 1-2.143-2.222 10 10 0 0 1 2.143 2.222m-.079.796c-.043.048-.431-.233-.816-.675s-.613-.864-.559-.9.363.313.739.743.682.779.636.832m10.066-.927a10 10 0 0 1-2.142-2.222 10 10 0 0 1 2.142 2.222m-.078.796c-.043.048-.431-.233-.816-.675s-.613-.864-.559-.9.363.313.739.743.682.782.636.832"/><path fill="#263238" d="M26.023 40.338a4.84 4.84 0 0 1 3.494 2.27 5.5 5.5 0 0 0 1.122 1.656 6.4 6.4 0 0 0 1.331.62 4.89 4.89 0 0 1 2.554 3.371 11 11 0 0 1-.03 4.35 30 30 0 0 1-1.226 4.852 5.1 5.1 0 0 1-1.071 1.987 3.32 3.32 0 0 1-2.864.829 5.33 5.33 0 0 1-2.7-1.423 4 4 0 0 1-1.133-1.615 5.3 5.3 0 0 1-.091-2.173c.49-4.9 1.213-9.836.566-14.714"/><path fill="#bf654e" d="M18.153 28.558c-.047-.018-.028-.238.14-.547a2.32 2.32 0 0 1 2.334-1.152c.347.055.534.173.519.222a6.3 6.3 0 0 0-1.687.354c-.848.414-1.204 1.173-1.306 1.123"/></g><path fill="#bf654e" d="M40.026 39.654a22.4 22.4 0 0 1 .23 4.211 22.4 22.4 0 0 1-.167 4.214 22.4 22.4 0 0 1-.23-4.211 22.5 22.5 0 0 1 .167-4.214"/></g><g transform="translate(0 148.195)"><path fill="#ff725e" d="M21.043 66.991c-3.541-.89-6.222-3.988-7.438-7.43a25 25 0 0 1-.808-10.833 3.7 3.7 0 0 0-.161-2.007 2.37 2.37 0 0 0-2.81-.987 5.35 5.35 0 0 0-2.494 1.991 15.426 15.426 0 0 0 13.391 24.823"/><path fill="#ff725e" d="M47.858 32.832s8.3 14.369 10.392 20.148 4.768 21.661 4.768 21.661 12.456 3.208 4.739 16.6c-2.853 4.949-2.6 7.247-5.794 7.392-2.492.114-22.547-.039-22.547-.039l.361 1.965s-1.678 5.678-5.077 4.077-7.4-6.041-7.4-6.041l-5.839-.08-13.917.08-4.069-.08c0-.037.008-.073.012-.111a5.76 5.76 0 0 1 4.042-4.8l2.984-.906s-3.876-16.287-.518-20.181 8.821-3.638 8.821-3.638l-2.509-16.755a26.3 26.3 0 0 1 1.161-11.677l1.882-5.6Z"/><path fill="#263238" d="M19.037 69.439a25.57 25.57 0 0 1 11.564 15 .052.052 0 0 0 .1-.028 26.43 26.43 0 0 0-8.073-12.62 24 24 0 0 0-3.538-2.444.052.052 0 0 0-.052.09Z"/><g transform="translate(9.304 35.422)"><path fill="#ff725e" d="M9.853 0s-2.7 7.229-2.931 10.843c-.376 6 2.593 22.606 2.593 22.606s-1.017 16.283-1.9 18.7-.512 4.64-4.53 5.463C1.999 57.835.108 61.348.108 63.09h11.237s3.04-3.436 3.188-6.653 5.49-20.675 5.49-20.675"/><path fill="#263238" d="M20.023 35.759s-.008.045-.032.132l-.109.385-.435 1.5-1.638 5.663c-.702 2.43-1.53 5.4-2.372 8.81a58 58 0 0 0-.591 2.65l-.125.691c-.042.232-.056.467-.085.7l-.073.727c-.043.242-.086.487-.145.728a14.5 14.5 0 0 1-3 5.407l-.027.032h-.045l-11.237.008H0v-.1a7.9 7.9 0 0 1 .962-3.108 10 10 0 0 1 .867-1.424 5 5 0 0 1 .562-.64 1.6 1.6 0 0 1 .768-.435 5 5 0 0 0 2.9-1.511 8.8 8.8 0 0 0 1.23-3.171c.058-.21.13-.415.2-.621s.114-.406.171-.609c.083-.417.173-.833.229-1.255.132-.841.235-1.682.331-2.518.193-1.672.344-3.326.487-4.952.282-3.254.51-6.4.707-9.4v.024C8.561 28.554 7.88 23.98 7.4 19.878c-.239-2.05-.429-3.983-.519-5.784a19.7 19.7 0 0 1 .207-4.961c.286-1.481.651-2.782.984-3.911s.652-2.082.915-2.855.479-1.363.627-1.762l.171-.449c.04-.1.064-.151.064-.151s-.014.054-.048.156l-.156.455-.6 1.771c-.252.776-.558 1.732-.885 2.861s-.679 2.431-.955 3.906a19.8 19.8 0 0 0-.181 4.931c.1 1.795.294 3.724.54 5.772.492 4.1 1.184 8.666 2.043 13.578v.023c-.192 3-.416 6.149-.7 9.4a176 176 0 0 1-.484 4.959c-.1.838-.2 1.681-.331 2.527-.057.424-.148.846-.233 1.271-.059.21-.113.427-.178.632s-.138.4-.2.61c-.166.555-.3 1.122-.474 1.68a4.7 4.7 0 0 1-.8 1.565 4 4 0 0 1-1.388 1.053 7.5 7.5 0 0 1-1.63.53 1.36 1.36 0 0 0-.669.383 5 5 0 0 0-.536.612 10 10 0 0 0-.85 1.392 7.7 7.7 0 0 0-.942 3.012l-.1-.1 11.237.008-.071.032a14.4 14.4 0 0 0 2.973-5.324c.058-.236.1-.474.144-.71l.074-.714c.031-.24.048-.482.089-.716s.086-.466.129-.7c.181-.918.392-1.8.6-2.655.855-3.414 1.711-6.368 2.415-8.8s1.289-4.346 1.689-5.65l.464-1.487.123-.38c.047-.087.065-.129.065-.129"/></g><path fill="#263238" d="M49.007 42.935s.041.089.109.266l.3.789c.259.7.636 1.727 1.12 3.046.959 2.65 2.349 6.484 3.959 11.26.4 1.194.814 2.448 1.219 3.764q.307.985.588 2.023a18 18 0 0 1 .376 2.161c.355 2.948.526 6.11.716 9.436s.347 6.819.589 10.434c.127 1.806.261 3.646.513 5.5.067.461.141.923.246 1.377a5 5 0 0 0 .2.663 1.2 1.2 0 0 0 .148.289c.03.035.064.076.091.083a1 1 0 0 0 .154.058 4.5 4.5 0 0 1 1.312.627 4 4 0 0 1 .563.477 3.7 3.7 0 0 1 .438.6 4.15 4.15 0 0 1 .426 2.871l-.016.082h-.088l-12.564.018h-.1v-.1a15.2 15.2 0 0 1 .477-3.108c.238-1 .51-1.979.806-2.935v.045c-.757-4.948-1.476-9.525-2.149-13.6-.34-2.037-.657-3.954-1.014-5.717-.048-.218-.084-.441-.142-.65l-.082-.315a2 2 0 0 0-.129-.288 7 7 0 0 0-.7-1.037c-.5-.654-1.027-1.248-1.521-1.813-2.007-2.238-3.682-3.933-4.819-5.1l-1.309-1.33-.336-.343q-.111-.117-.11-.119.002-.003.122.108l.347.332 1.331 1.307c1.152 1.154 2.841 2.836 4.863 5.066.5.564 1.026 1.154 1.536 1.812a7.3 7.3 0 0 1 .723 1.058 2 2 0 0 1 .138.305l.086.322c.06.216.1.435.147.656.365 1.767.688 3.682 1.036 5.719.686 4.077 1.415 8.652 2.18 13.6v.023l-.007.022c-.293.95-.563 1.926-.8 2.922a15 15 0 0 0-.468 3.059l-.1-.1 12.563-.025-.1.082a3.94 3.94 0 0 0-.4-2.713 3.5 3.5 0 0 0-.409-.56 3.6 3.6 0 0 0-.53-.448 4.3 4.3 0 0 0-1.252-.6 2 2 0 0 1-.179-.067.46.46 0 0 1-.172-.148 1.4 1.4 0 0 1-.177-.34 5 5 0 0 1-.205-.694 17 17 0 0 1-.249-1.4c-.253-1.861-.386-3.7-.512-5.511-.24-3.619-.4-7.112-.577-10.437s-.35-6.487-.7-9.424a18 18 0 0 0-.366-2.14 58 58 0 0 0-.581-2.018c-.4-1.314-.809-2.569-1.2-3.765-1.59-4.779-2.958-8.621-3.893-11.279l-1.082-3.059-.279-.8a3 3 0 0 1-.105-.279m-10.976 37.97a1.4 1.4 0 0 1-.229-.175l-.631-.535a35 35 0 0 1-2.17-2.135 75 75 0 0 1-6.293-7.818 74 74 0 0 1-5.274-8.54 34 34 0 0 1-1.278-2.763l-.286-.776a1.4 1.4 0 0 1-.086-.275 1.5 1.5 0 0 1 .126.26l.323.76c.29.655.731 1.594 1.334 2.725a83 83 0 0 0 5.315 8.486 84 84 0 0 0 6.229 7.838c.861.95 1.6 1.681 2.115 2.176l.6.565a1.5 1.5 0 0 1 .205.207"/><path fill="#ff725e" d="M31.121 79.311a36.6 36.6 0 0 1 1.506 7.483 1.057 1.057 0 0 0 1.031 1.03 1.037 1.037 0 0 0 1.03-1.03 39.2 39.2 0 0 0-1.58-8.03 1.03 1.03 0 0 0-1.987.548Z"/><path fill="#263238" d="M49.399 82.269c0 .024-.423 0-1.183.037a10 10 0 0 0-1.37.158 5.6 5.6 0 0 0-1.7.613 22.3 22.3 0 0 0-3.65 3.049 40 40 0 0 1-4.226 4.075 6.7 6.7 0 0 1-2.814 1.194c-.983.16-1.936.139-2.828.211a5.9 5.9 0 0 0-2.426.609 4.6 4.6 0 0 0-1.613 1.45 5.06 5.06 0 0 0-.932 2.994 8 8 0 0 0 .154 1.166 3.4 3.4 0 0 1-.237-1.162 5.04 5.04 0 0 1 .891-3.085 4.76 4.76 0 0 1 1.654-1.52 6 6 0 0 1 2.494-.65c.9-.078 1.854-.063 2.809-.222a6.5 6.5 0 0 0 2.726-1.162 42 42 0 0 0 4.213-4.042 21.5 21.5 0 0 1 3.713-3.039 5.6 5.6 0 0 1 1.754-.6 9 9 0 0 1 1.389-.124 9 9 0 0 1 .88.018 1.7 1.7 0 0 1 .302.032M34.054 94.825a1.1 1.1 0 0 1 .382-.027 4.8 4.8 0 0 1 1.029.122 5.515 5.515 0 0 1 4.3 4.807 4.8 4.8 0 0 1 .007 1.036 1.2 1.2 0 0 1-.073.373c-.041 0 .043-.541-.085-1.389a5.65 5.65 0 0 0-4.188-4.68c-.83-.225-1.374-.2-1.372-.242m4.067 5.432a2.3 2.3 0 0 1-.306.938 4.38 4.38 0 0 1-3.9 2.4 2.3 2.3 0 0 1-.975-.149c.006-.037.376.034.97 0a4.63 4.63 0 0 0 3.769-2.326c.3-.512.407-.875.442-.863m-3.555-2.661c.006.034-.33.1-.83.309a4.88 4.88 0 0 0-2.776 3c-.171.515-.21.855-.246.851a2.1 2.1 0 0 1 .1-.894 4.49 4.49 0 0 1 2.867-3.094 2.1 2.1 0 0 1 .885-.172m23.467 1.297a5.6 5.6 0 0 1 .087-.838 4.5 4.5 0 0 0-.176-1.964 2.56 2.56 0 0 0-1.273-1.425 4 4 0 0 0-.793-.216 1.22 1.22 0 0 1 .853.076 2.54 2.54 0 0 1 1.415 1.492 4.04 4.04 0 0 1 .125 2.059 2.4 2.4 0 0 1-.238.816m-40.688-4.725c0 .037-.382-.01-.977.079a4.34 4.34 0 0 0-3.471 2.781c-.216.562-.253.941-.29.936a2.25 2.25 0 0 1 .147-.987 4.15 4.15 0 0 1 3.6-2.881 2.2 2.2 0 0 1 .991.072m51.304-3.756c-.018-.015.2-.26.51-.753a9.3 9.3 0 0 0 1.024-2.236 11 11 0 0 0 .454-3.607 11.3 11.3 0 0 0-1.03-4.316 8.4 8.4 0 0 0-2.814-3.388 8.7 8.7 0 0 0-3.316-1.445 5.5 5.5 0 0 0-2.435.047 5 5 0 0 0-.633.219 1 1 0 0 1-.223.08 1 1 0 0 1 .2-.119 3.7 3.7 0 0 1 .628-.261 5.4 5.4 0 0 1 2.485-.116 8.7 8.7 0 0 1 3.4 1.433 8 8 0 0 1 1.63 1.471 9.4 9.4 0 0 1 1.265 1.988 11.3 11.3 0 0 1 1.034 4.4 10.9 10.9 0 0 1-.507 3.66 8.7 8.7 0 0 1-1.1 2.236 6 6 0 0 1-.416.536 1 1 0 0 1-.156.171M18.79 69.333a8.33 8.33 0 0 0-5.676.721 8.6 8.6 0 0 0-2.86 2.311 5.8 5.8 0 0 0-.932 1.656 9.7 9.7 0 0 0-.426 1.735 20 20 0 0 0-.179 3.042c.007.871.035 1.577.045 2.065q-.002.334.006.562a.7.7 0 0 1-.012.2.7.7 0 0 1-.031-.2l-.047-.56a47 47 0 0 1-.113-2.066 18.5 18.5 0 0 1 .135-3.074 9.7 9.7 0 0 1 .425-1.778 5.9 5.9 0 0 1 .962-1.717 8.7 8.7 0 0 1 5.9-3.2 6.9 6.9 0 0 1 2.074.1 4 4 0 0 1 .546.142.7.7 0 0 1 .183.061M1.793 60.414a1.8 1.8 0 0 1-.106-.45 11 11 0 0 1-.15-1.25 15.14 15.14 0 0 1 1.7-8.049 11 11 0 0 1 .643-1.082 2 2 0 0 1 .278-.369c.032.021-.324.571-.786 1.52a16.8 16.8 0 0 0-1.685 7.971c.04 1.055.147 1.703.106 1.709m-1.322.641a2 2 0 0 1-.122-.448c-.067-.291-.14-.718-.207-1.248a19.1 19.1 0 0 1 .8-8.256c.168-.507.321-.912.443-1.185a2 2 0 0 1 .205-.416c.034.013-.206.627-.5 1.646a21.9 21.9 0 0 0-.793 8.2c.092 1.052.21 1.701.174 1.707"/><path d="M27.35 77.396a15.5 15.5 0 0 1 3.567 6.633 2.63 2.63 0 0 1 .021 1.659c-.474 1.109-2 1.161-3.046 1.763a5.8 5.8 0 0 0-1.92 2.293l-5.108 8.884c1.578-.13 2.163.036 3.742-.094l2.538.055a4.7 4.7 0 0 1-.527-1.793 5.42 5.42 0 0 1 2.709-4.748c2.017-1 4.336-.165 6.383-1.1a15 15 0 0 0 4.4-3.54c1.6-1.587 3.183-3.689 5.231-4.624a11.3 11.3 0 0 1 3.141-.464c-1.054-1.238-2.983-1.175-4.552-.751s-3.176 1.105-4.762.749a7.6 7.6 0 0 1-3.375-2.225c-2.526-2.415-5.14-4.965-6.266-8.274l-2.109 5.447m34.547 21.361c.816-2-1.044-4.368-1.794-6.4-.76-2.055-.6-4.315-.591-6.507a42.4 42.4 0 0 0-2.208-13.583c-.163 6 .522 12.383.88 18.379.077 1.274-.022 2.746.912 3.614.477.443.763.249 1.3.622s1.587 1.219 1.5 3.87" opacity=".3"/><path fill="#263238" d="M37.698 39.447a6.1 6.1 0 0 1-3.485-3.168 10.8 10.8 0 0 0 3.485 3.168m1.547-.846a6.4 6.4 0 0 1-3.29-2.323c.047-.044.672.615 1.581 1.252s1.734 1.011 1.709 1.071m2.034-.072a5.4 5.4 0 0 1-3.173-2.15c.048-.043.631.6 1.509 1.189s1.686.9 1.664.961M27.263 56.225a5.98 5.98 0 0 1-3.1-3.561 10.4 10.4 0 0 0 3.1 3.561m1.52.021a6.27 6.27 0 0 1-2.55-3.081c.057-.029.482.767 1.188 1.613s1.402 1.418 1.362 1.468m2.653.516a9.6 9.6 0 0 1-1.461-1.41 9.8 9.8 0 0 1-1.3-1.557 9.6 9.6 0 0 1 1.461 1.411 9.8 9.8 0 0 1 1.3 1.556"/><g transform="translate(10.453)"><path fill="#ff725e" d="M37.638 34.199c.161-8.82.576-19.124-.452-22.456S29.267 1.929 25.359.475s-10.285.734-12.189 2.489L.906.274s-2.274 5.6.773 9.987 11.742 4.149 11.742 4.149.884 4.826-2.827 5.331-8.675.026-9.066 4.083l7.659.522-.478 11.076 14.897 3.093 13.536-4.222"/><path fill="#263238" d="M26.569 5.798a1.5 1.5 0 0 0-.07.37l-.129 1.065c-.1.98-.24 2.308-.409 3.924l-.558 5.824a32 32 0 0 0-.2 3.466 9.6 9.6 0 0 0 .693 3.692 5.04 5.04 0 0 0 2.663 2.645 5.9 5.9 0 0 0 3.5.234 6.3 6.3 0 0 0 2.815-1.469 7.2 7.2 0 0 0 1.617-2.237 9.15 9.15 0 0 0 .839-3.868 8 8 0 0 0-.064-1.076 1.4 1.4 0 0 0-.07-.37c-.034 0 .029.516-.008 1.441a9.5 9.5 0 0 1-.93 3.759 7 7 0 0 1-1.587 2.127 6 6 0 0 1-2.684 1.363 5.57 5.57 0 0 1-3.289-.237 4.7 4.7 0 0 1-2.464-2.463 9.3 9.3 0 0 1-.669-3.549 33 33 0 0 1 .177-3.43l.48-5.83.292-3.935.06-1.072a1.4 1.4 0 0 0-.005-.374M4.561 1.128a2.54 2.54 0 0 1-.629 1.795 3.53 3.53 0 0 1-1.559.932 3.34 3.34 0 0 1-2.334.125 9.5 9.5 0 0 1 .392-2.9A1.1 1.1 0 0 1 .918.349a1.1 1.1 0 0 1 .5-.06 7.85 7.85 0 0 1 3.143.842"/><path d="M37.212 20.216c-.281 2.186-.832 4.587-2.287 6.243a6.2 6.2 0 0 1-5.914 2.14c-2.629-.643-4.306-3.393-4.571-6.086s.578-5.358 1.41-7.933a18.3 18.3 0 0 0-.122 7.353c.621 2.39 2.5 4.634 4.96 4.875a5.4 5.4 0 0 0 4.53-1.988 7.85 7.85 0 0 0 1.994-4.6" opacity=".3"/><path fill="#263238" d="M.018 4.946a1.9 1.9 0 0 0 .01.638 11 11 0 0 0 .314 1.71 11.5 11.5 0 0 0 .932 2.414 7.4 7.4 0 0 0 2.018 2.463 10 10 0 0 0 2.831 1.441 15.5 15.5 0 0 0 2.5.621 14 14 0 0 0 1.726.181 2 2 0 0 0 .638-.024c0-.06-.9-.116-2.316-.412a18 18 0 0 1-2.439-.683 10.4 10.4 0 0 1-2.721-1.415 7.3 7.3 0 0 1-1.944-2.332 12.6 12.6 0 0 1-.979-2.325C.164 5.841.082 4.938.018 4.946M17.839 6.41a1.125 1.125 0 1 1-.077-.026m4.301 1.244c.138.049.359-.132.522-.524a2.86 2.86 0 0 0-.719-3.027c-.322-.277-.6-.339-.7-.233-.205.234.232.953.439 1.894.236.933.169 1.773.458 1.89m11.231 12.05c.017.019.181-.078.39-.3a2.87 2.87 0 0 0 .71-2.223c-.039-.3-.117-.48-.142-.473a4.13 4.13 0 0 1-.959 3Zm-.731-.301a2.98 2.98 0 0 0 .681-2.368c-.064 0-.1.552-.291 1.2s-.444 1.135-.39 1.168m-1.614 1.058a6 6 0 0 0 1.365-3.2c-.062-.014-.265.74-.643 1.619s-.775 1.547-.722 1.581"/></g><path fill="#455a64" d="M19.205 36.486c.2 2.007 1.824 3.584 3.563 4.6a14.85 14.85 0 0 0 11.422 1.45 29.4 29.4 0 0 0 5.016-2.13c3.481-1.74 7.2-3.719 8.872-7.234a6.4 6.4 0 0 0 1.13 2.5 8 8 0 0 1 1.239 1.779c.491 1.283-.179 2.72-1.031 3.8-2.945 3.728-7.82 5.192-12.255 6.894a8.6 8.6 0 0 0-2.525 1.329 7.1 7.1 0 0 0-2 3.368 11.4 11.4 0 0 0-.054 7.3 7.38 7.38 0 0 0 5.278 4.77 13.4 13.4 0 0 0 2.817-.112l3.433 3.622c-3.316 1.82-7.191 1.835-10.972 1.962a8.4 8.4 0 0 1-3.135-.29c-1.749-.626-2.866-2.3-3.857-3.871a30.9 30.9 0 0 1-4.362-10.948c-.449-2.272-.382-5.486-2.756-6.832a5.5 5.5 0 0 1-2.561-3.467 4.9 4.9 0 0 1 .134-2.181 31 31 0 0 1 2.512-7.028m40.83 21.373a13.9 13.9 0 0 0-2.7-6.48 15.75 15.75 0 0 1-3.426 6.1l2.012 5.64c1.313-1.548 2.5-2.747 3.816-4.3a1.3 1.3 0 0 0 .291-.46 1.3 1.3 0 0 0 .007-.5"/><path fill="#455a64" d="M48.586 35.999q2.769 6.466 5.536 12.933a39 39 0 0 0 1.712 3.646c.917 1.648 2.092 3.208 2.5 5.049a.8.8 0 0 0 .3.568.63.63 0 0 0 .576-.055 2.32 2.32 0 0 0 1.118-1.751 5.6 5.6 0 0 0-.216-2.133 39 39 0 0 0-2.486-6.451l-2.788-6.126a24.5 24.5 0 0 0-2.529-4.639 19 19 0 0 1-2.51-3.475c-.217-.491-.6-1.136-1.1-.942a.85.85 0 0 0-.408.448 3.55 3.55 0 0 0 .33 3.64"/></g></g><g transform="translate(784.528 127.603)"><g transform="translate(0 111.783)"><path fill="#ffbe9d" d="M1.687 5.079c.5-.322 11.144-5.075 11.144-5.075l2.8 6.047-6.747 4.844s1.793-1.222 2.781.062a1.1 1.1 0 0 1-.431 1.838l-5.547 2.9a1.57 1.57 0 0 1-1.78-.223l-3.9-3.5Z"/><g transform="translate(3.618 5.381)"><path fill="#ffbe9d" d="M2.13.536.26 6.376c-.073.23-.137.513.029.689a.6.6 0 0 0 .651.05 3.27 3.27 0 0 0 1.364-1.12c.361-.474.653-1 1-1.478a2.04 2.04 0 0 1 .749-.7 3 3 0 0 1 1.089-.164A5.3 5.3 0 0 0 8.067 2.6 4.46 4.46 0 0 0 9.732 0"/><path fill="#eb996e" d="M9.74 0a1.7 1.7 0 0 1-.154.764 4.4 4.4 0 0 1-1.2 1.762 5.25 5.25 0 0 1-2.889 1.283c-.607.085-1.237-.025-1.642.376a3.6 3.6 0 0 0-.576.724l-.562.83a3.97 3.97 0 0 1-1.444 1.437 1.8 1.8 0 0 1-.5.184.69.69 0 0 1-.6-.142.66.66 0 0 1-.168-.586 3 3 0 0 1 .125-.46l.99-2.95c.287-.838.526-1.514.7-1.978a3 3 0 0 1 .308-.708 3 3 0 0 1-.161.756 85 85 0 0 1-.58 2.017L.479 6.285c-.1.272-.163.573-.047.656.1.106.407.034.659-.111A3.7 3.7 0 0 0 2.398 5.5l.562-.825a3.8 3.8 0 0 1 .639-.784 1.62 1.62 0 0 1 .96-.391c.327-.029.615-.021.9-.055a5.1 5.1 0 0 0 2.746-1.131A4.7 4.7 0 0 0 9.443.706c.205-.444.265-.713.297-.706"/><g transform="translate(1.789 4.776)"><path fill="#ffbe9d" d="M0 1.958A15.2 15.2 0 0 0 3.5.625 4.1 4.1 0 0 1 4.821.197a1.51 1.51 0 0 1 1.274.428c.309.348.536 1.383.2 1.7L.125 5.616"/><path fill="#eb996e" d="M.121 5.618a11 11 0 0 1 1.723-1.071 202 202 0 0 1 4.354-2.395l-.043.03a.7.7 0 0 0 .1-.488 2.1 2.1 0 0 0-.164-.691.88.88 0 0 0-.415-.46A1.7 1.7 0 0 0 4.416.46c-.832.259-1.582.677-2.23.923a5.4 5.4 0 0 1-2.187.575c-.01-.057.83-.231 2.074-.833A24 24 0 0 1 4.318.108a2.05 2.05 0 0 1 1.545.093 1.3 1.3 0 0 1 .591.643 2.5 2.5 0 0 1 .2.829 1.02 1.02 0 0 1-.227.8l-.015.016-.028.015c-1.734.92-3.287 1.722-4.413 2.282a11 11 0 0 1-1.85.832"/></g></g></g><g transform="translate(10.901)"><path fill="#ff725e" d="m46.708 236.641 4.2 14.8s-13.631 9.241-13.121 12.052l28.987-7.116-5.6-23.328Z"/><path fill="#e0e0e0" d="M59.566 247.983a1.22 1.22 0 0 1 1.151 1.15 1.173 1.173 0 0 1-1.13 1.151 1.286 1.286 0 0 1-1.212-1.225 1.215 1.215 0 0 1 1.307-1.066"/><path fill="#263238" d="m66.776 256.376-.656-2.329-27.548 7.694s-1.153.878-.783 1.752Zm-16.372-4.968c.039.141.763.031 1.571.315.815.263 1.325.788 1.441.7.124-.06-.3-.854-1.28-1.18s-1.795.042-1.732.165m-2.732 2.005c0 .145.673.235 1.3.716.642.462.922 1.079 1.061 1.039.139-.011.034-.864-.759-1.447s-1.632-.444-1.602-.308m-.832 4.061c.135 0 .159-.757-.395-1.443s-1.291-.832-1.322-.7c-.052.136.48.447.926 1.017s.646 1.147.791 1.126m2.981-9.544c.091.114.692-.24 1.506-.383.81-.158 1.5-.043 1.543-.182.057-.122-.68-.5-1.636-.317s-1.51.787-1.413.882"/><path fill="#ff725e" d="m56.85 240.478.6 15.372s-15.423 5.777-15.587 8.629l29.848-.1.041-23.991Z"/><path fill="#e0e0e0" d="M66.678 254.526a1.22 1.22 0 0 1 .848 1.388 1.17 1.17 0 0 1-1.369.852 1.285 1.285 0 0 1-.89-1.475 1.215 1.215 0 0 1 1.522-.728"/><path fill="#263238" d="m71.712 264.378-.09-2.418-28.584 1s-1.327.583-1.174 1.519Zm-14.743-8.679c0 .146.734.21 1.453.676.731.448 1.1 1.078 1.236 1.02.135-.029-.086-.9-.965-1.449s-1.755-.38-1.724-.247m-3.125 1.307c-.033.141.6.387 1.1 1 .515.6.643 1.267.787 1.26.138.022.236-.832-.4-1.584s-1.484-.816-1.487-.676m-1.766 3.752c.133.031.334-.7-.044-1.495s-1.06-1.112-1.122-.991c-.082.12.363.547.662 1.206.316.652.359 1.266.504 1.28m5.143-8.577c.061.132.729-.07 1.553-.018.825.037 1.467.311 1.543.186.084-.106-.544-.643-1.516-.692s-1.651.41-1.58.524"/><path fill="#263238" d="M57.455 251.451a6.5 6.5 0 0 1 .083 1.2c.025.767.046 1.867.062 3.2v.1l-.094.037c-1.535.608-3.41 1.356-5.406 2.219a91 91 0 0 0-6.532 3.106l-1.926 1.049a3.6 3.6 0 0 1-.721.364 3.6 3.6 0 0 1 .65-.481 37 37 0 0 1 1.877-1.15 66 66 0 0 1 6.513-3.212c2-.865 3.892-1.594 5.443-2.165l-.093.135c.015-1.332.037-2.432.061-3.2a6.5 6.5 0 0 1 .083-1.202"/><path fill="#263238" d="m75.794 127.452-.044 9.941-3.472 47.331s1.931 22.977 3.121 35.947c1.033 11.264-.823 30.864-.823 30.864l-19-.083-6.51-65.423-4.039-40.8-7.26-18.596Z"/><path fill="#263238" d="m29.34 126.335-.227 66.871 19 49.539.87 2.982 11.362-2.694-7.92-117.066Z"/><path fill="#455a64" d="M45.077 145.714a1.5 1.5 0 0 0-.008.275c0 .2.008.465.012.806l.082 3.1c.065 2.69.24 6.578.493 11.383.53 9.6 1.542 22.863 3.145 37.453 1.577 14.6 3.331 27.774 4.614 37.307l1.548 11.285.438 3.066q.078.502.122.8a1.6 1.6 0 0 0 .054.27 2 2 0 0 0-.018-.275l-.088-.8-.371-3.075-1.437-11.3c-1.219-9.541-2.934-22.719-4.511-37.312-1.6-14.586-2.652-27.832-3.247-37.43-.284-4.8-.5-8.685-.605-11.373l-.148-3.094q-.031-.51-.047-.8a1.6 1.6 0 0 0-.028-.286"/><g transform="translate(31.703 5.119)"><path fill="#ffbe9d" d="m26.558 36.28-4.791 10.091-7.089 8.373-5.064-5.857-.549-6.283-.46-5.269s-7.079-.379-7.87-7.338C.353 26.637.13 19.653.001 13.33A13.05 13.05 0 0 1 11.735.078l.672-.068c7.292-.31 11.629 5.711 11.737 13.008l2.411 23.26"/><path fill="#eb996e" d="M8.597 37.332a16.3 16.3 0 0 0 8.823-3.5s-1.64 5.232-8.656 5.308Z"/><g transform="translate(1.683 10.469)"><path fill="#263238" d="M1.717 7.068a1 1 0 0 0 1.061.907.957.957 0 0 0 .935-1 1 1 0 0 0-1.06-.907.96.96 0 0 0-.936 1M.021 5.762c.136.117.834-.517 1.9-.623 1.068-.121 1.909.35 2.013.208.051-.064-.1-.285-.465-.5a2.75 2.75 0 0 0-1.628-.327 2.64 2.64 0 0 0-1.5.657c-.3.287-.387.533-.32.585m12.001.349a1 1 0 0 0 1.061.907.957.957 0 0 0 .935-1 1 1 0 0 0-1.06-.908.957.957 0 0 0-.936 1.001m-1.364-1.73c.123.131.887-.424 1.962-.412 1.075 0 1.86.555 1.978.425.058-.058-.065-.294-.408-.547a2.75 2.75 0 0 0-1.582-.5 2.64 2.64 0 0 0-1.563.491c-.33.249-.445.484-.387.543m-3.033 9.204a7.2 7.2 0 0 0-1.771-.138c-.276 0-.54-.028-.605-.21a1.4 1.4 0 0 1 .1-.829l.6-2.163a36 36 0 0 0 1.265-5.63 36 36 0 0 0-1.715 5.514q-.298 1.137-.563 2.173a1.6 1.6 0 0 0-.034 1.087.7.7 0 0 0 .49.354 1.8 1.8 0 0 0 .471.018 7 7 0 0 0 1.762-.176m3.229.423c-.175.008-.06 1.17-.971 2.1s-2.162.923-2.154 1.086c-.009.074.3.2.823.159a2.9 2.9 0 0 0 1.8-.841 2.54 2.54 0 0 0 .74-1.75c-.004-.494-.163-.769-.238-.754"/><path fill="#e0e0e0" d="M10.434.842c.111.291 1.183.134 2.448.265 1.268.106 2.292.458 2.455.193.073-.127-.109-.4-.526-.676a4.28 4.28 0 0 0-3.735-.348c-.461.195-.69.429-.642.566M.242 2.978c.213.224.925-.1 1.811-.2.882-.132 1.655 0 1.8-.275.063-.131-.08-.363-.431-.559a2.64 2.64 0 0 0-2.911.386c-.286.279-.364.538-.269.648"/></g></g><path fill="#eb996e" d="M51.766 20.73c.088.028-.237.768-1.094 1.154a1.69 1.69 0 0 1-1.589.073 11 11 0 0 0 1.447-.383c.748-.329 1.152-.896 1.236-.844m.247 2.359c-.032.091-.566-.022-1.223-.109s-1.2-.125-1.208-.222.557-.212 1.254-.116 1.21.362 1.177.447m-18.672.957c-.011.093-.231.142-.49.11s-.46-.135-.448-.228.231-.142.49-.11.459.135.448.228m.057.7c.027.09-.075.2-.227.246s-.3.01-.325-.08.075-.2.227-.246.298-.009.325.08m12.571 5.384c-.036.031-.166-.057-.351-.21a3.3 3.3 0 0 0-.734-.495 1.22 1.22 0 0 0-.807-.056c-.2.059-.313.164-.354.134s.01-.2.253-.353a1.17 1.17 0 0 1 1.042-.038 2 2 0 0 1 .774.642c.15.203.21.345.177.376m7.446 9.009c-.012-.024.057-.071.111-.188a.7.7 0 0 0 0-.526c-.074-.225-.275-.448-.435-.8a1 1 0 0 1-.077-.628 2.5 2.5 0 0 1 .28-.55.27.27 0 0 0-.023-.349 4 4 0 0 0-.405-.311.82.82 0 0 1-.318-.483 1 1 0 0 1 .018-.485 1.5 1.5 0 0 1 .324-.568c.1-.112.164-.164.184-.151.059.029-.169.31-.272.771a.63.63 0 0 0 .255.665 3 3 0 0 1 .462.337.61.61 0 0 1 .08.728 3 3 0 0 0-.26.477.73.73 0 0 0 .044.431 7 7 0 0 1 .374.846.76.76 0 0 1-.123.668c-.111.129-.213.134-.219.116m1.697-.833c.009-.022.068-.028.08-.118.032-.1-.08-.139-.211-.4a1.25 1.25 0 0 1 .106-.8.56.56 0 0 0-.192-.654 3.3 3.3 0 0 1-.665-.683.77.77 0 0 1 .047-.85.73.73 0 0 1 .465-.311c.133-.019.2.013.2.033.008.051-.288.065-.463.4a.53.53 0 0 0 .019.563 4.2 4.2 0 0 0 .632.6 1.03 1.03 0 0 1 .3.471.87.87 0 0 1-.045.524c-.11.282-.219.484-.176.633a1.4 1.4 0 0 0 .109.244.3.3 0 0 1 0 .277c-.093.155-.232.091-.206.071"/><path fill="#ffbe9d" d="M55.802 23.357c.113-.064 4.644-1.9 4.974 2.879s-4.537 4.124-4.554 3.987-.42-6.866-.42-6.866"/><path fill="#eb996e" d="M57.557 28.312c.02-.017.087.053.233.107a.83.83 0 0 0 .623-.03 2.07 2.07 0 0 0 .826-1.914 2.8 2.8 0 0 0-.316-1.176.96.96 0 0 0-.67-.6.424.424 0 0 0-.475.262c-.055.138-.018.231-.043.241s-.109-.073-.083-.273a.53.53 0 0 1 .168-.312.63.63 0 0 1 .452-.154 1.17 1.17 0 0 1 .92.681 2.84 2.84 0 0 1 .381 1.312 2.17 2.17 0 0 1-1.073 2.148.9.9 0 0 1-.77-.074c-.157-.103-.189-.208-.173-.218"/><path fill="#e0e0e0" d="M30.11 10.397a2.44 2.44 0 0 1 1.631-2.13 2.179 2.179 0 0 1 3.135-2.87 2.24 2.24 0 0 1 2.834-2.3 1.887 1.887 0 0 1 3.415-1.374 3.256 3.256 0 0 1 5-.921 4.156 4.156 0 0 1 5.246 1.71 3.955 3.955 0 0 1 3.735 2.35 2.89 2.89 0 0 1 2.583 4.282 2.14 2.14 0 0 1 .78 3.316 2.1 2.1 0 0 1 .327 3.785c.71.015 1.085.913.944 1.61a21 21 0 0 1-.8 1.968c-.174.558-.18 1.157-.32 1.724a3.8 3.8 0 0 1-2.019 2.473l.139.131c.187.6-.622 1.1-1.221.92a3.1 3.1 0 0 1-1.37-1.238 6.9 6.9 0 0 1-1.19-1.781 1.66 1.66 0 0 1 .465-1.939 2.5 2.5 0 0 1-1.709-1.811 7.4 7.4 0 0 1-.112-2.6l.29-3.846a4.78 4.78 0 0 1-4.384-2.283 2.74 2.74 0 0 1-4.053-.568 3.57 3.57 0 0 1-4.1 2.632c.289.967-1.388 2.062-2.331 2.421a3.52 3.52 0 0 1-2.229-.2s-1.568 1.156-2.518.884c-.933-.266-2.257-1.292-1.763-2.3a4.45 4.45 0 0 1-.405-2.045"/><path fill="#fafafa" d="M58.71 12.42a1.75 1.75 0 0 1-.409.663.92.92 0 0 1-.766.22.97.97 0 0 1-.736-.637l-.086-.28-.2.218a1.245 1.245 0 0 1-2.157-.85v-.284l-.247.134a1.255 1.255 0 0 1-1.6-.364 3.3 3.3 0 0 1-.313-.673c-.025-.009-.113.317.145.783a1.4 1.4 0 0 0 .715.607 1.53 1.53 0 0 0 1.21-.06l-.243-.15a1.565 1.565 0 0 0 2.739 1.083l-.286-.062a1.25 1.25 0 0 0 1.015.816 1.12 1.12 0 0 0 .952-.352c.393-.443.292-.831.267-.812m1.183 4.49c-.027-.025-.157.151-.49.252a1.15 1.15 0 0 1-1.249-.387l-.111-.156-.117.154a1.28 1.28 0 0 1-1.18.464 1.24 1.24 0 0 1-1-1.022l-.046-.312-.248.2a1 1 0 0 1-.207.122.88.88 0 0 1-1-.224.92.92 0 0 1-.135-.944l.147-.314-.331.086A1.5 1.5 0 0 1 52.19 14a3.4 3.4 0 0 1-.194-.821 1.1 1.1 0 0 0 .016.894 1.65 1.65 0 0 0 .648.828 1.77 1.77 0 0 0 1.343.242l-.184-.228a1.24 1.24 0 0 0 .155 1.309 1.22 1.22 0 0 0 1.4.334 1.2 1.2 0 0 0 .3-.179l-.293-.112a1.533 1.533 0 0 0 2.766.672h-.228a1.22 1.22 0 0 0 .831.47 1.3 1.3 0 0 0 .7-.095c.371-.166.461-.399.443-.404M38.319 2.903a1.8 1.8 0 0 1 .506-.363 1 1 0 0 1 .7-.031 1.03 1.03 0 0 1 .649.63l.092.265.119-.259a1.75 1.75 0 0 1 1.384-.974 1.7 1.7 0 0 1 1.695 1.037l.122.3.173-.28a2.13 2.13 0 0 1 1.567-.959 2.08 2.08 0 0 1 2.164 1.514l.053.19.183-.066a2.046 2.046 0 0 1 2.38.832 2.09 2.09 0 0 1-.11 2.26l-.164.215.267.019A2.26 2.26 0 0 1 51.621 8a2.2 2.2 0 0 1 .526 1.222 3.4 3.4 0 0 1-.132 1.18c.011.005.079-.086.157-.282a2.2 2.2 0 0 0 .141-.911 2.33 2.33 0 0 0-.512-1.359 2.48 2.48 0 0 0-1.678-.907l.1.234a2.319 2.319 0 0 0-2.625-3.604l.236.123a2.43 2.43 0 0 0-2.55-1.774 2.45 2.45 0 0 0-1.812 1.137l.3.024a1.947 1.947 0 0 0-3.593-.03l.21.007a1.21 1.21 0 0 0-.812-.722 1.1 1.1 0 0 0-.8.09 1.06 1.06 0 0 0-.38.321c-.068.093-.085.149-.078.154"/><path fill="#455a64" d="M46.198 141.838c.008 0 .016.064-.065.136a.4.4 0 0 1-.435.02.8.8 0 0 1-.314-.6l-.119-.829c-.17-1.227-.381-2.925-.591-4.8s-.383-3.581-.489-4.816a11.4 11.4 0 0 1-.1-2.007 11 11 0 0 1 .348 1.979c.17 1.227.38 2.925.591 4.8s.382 3.581.489 4.816c.075.6.015 1.168.258 1.343a.33.33 0 0 0 .323.038c.071-.037.09-.087.104-.08m2.022-12.028c0-.021.1-.055.289-.024a1.16 1.16 0 0 1 .679.415 1.18 1.18 0 0 1 .216 1.18 1.37 1.37 0 0 1-1.193.862 1.3 1.3 0 0 1-1.222-.813 1.2 1.2 0 0 1 .107-1.194 1 1 0 0 1 .687-.415c.2-.015.292.046.286.064a1.1 1.1 0 0 0-.766.49.96.96 0 0 0-.018.92.99.99 0 0 0 .91.6 1.08 1.08 0 0 0 .907-.63.95.95 0 0 0-.113-.91c-.337-.493-.785-.489-.769-.545m-11.657 1.151c-.09.03-.366-.575-.494-1.378a2.5 2.5 0 0 1 .038-1.464 12.5 12.5 0 0 1 .456 2.841Z"/><path fill="#455a64" d="M38.656 130.966a6.655 6.655 0 1 1-.116-1.528 3.4 3.4 0 0 1 .116 1.528m21.066 0c-.095.021-.273-.418-.4-.981s-.147-1.037-.052-1.057.272.418.4.982.147 1.035.052 1.056m2.068.722a6.33 6.33 0 0 1-.56-3.86 9 9 0 0 1 .324 1.924 8.8 8.8 0 0 1 .236 1.936m14.276 7.042a1.7 1.7 0 0 1-.571.225 5.3 5.3 0 0 1-1.669.168 7.53 7.53 0 0 1-4.918-2.346 11.4 11.4 0 0 1-2.608-4.822 14 14 0 0 1-.357-1.625 2 2 0 0 1-.05-.609c.058-.012.218.841.646 2.161a12.2 12.2 0 0 0 2.624 4.651 7.66 7.66 0 0 0 4.681 2.341 9.4 9.4 0 0 0 2.222-.144"/><path fill="#455a64" d="m40.489 47.189-2.9 3.014s-9.173 5.257-9.277 6.061c-.216 1.646-2 21.056-2 21.056l1.186 42.311-1.186 28.848s6.262 2.484 7.092-1.965c.474-2.544 3.585-9.4 4.636-19.218.786-7.35-.918-10.179-1-14.136l-1.151-33.658Z"/><path fill="#455a64" d="M28.242 55.885c-1.148.7-3.533 2.688-4.254 7.4-.662 4.317-2.985 19.2-4.372 28.075-.672 4.3-.142 6.688-6.891 10.652L0 109.524l4.368 10.657 16.93-6.555c3.847-1.432 6.365-4.632 6.444-8.128l1.126-49.937a4 4 0 0 0-.626.324m33.509-10.757s12.344 2.742 14.433 3.917-5.159 48.56-5.159 48.56 8 26.473 11.446 46.68c0 0-22.061 11.349-30.987 7.236s-9.794-9.461-12.073-17.1-4.249-28.417-3.679-38.014 9.881-31.305 11.591-35.81 11.32-20.907 11.32-20.907Z"/><path fill="#263238" d="M36.647 97.146a.6.6 0 0 1 .063-.149l.214-.419.854-1.6 3.2-5.845 4.779-8.649 2.832-5.1 3.361-5.286 9.055-14.173.029.187-2.945-2.467-.136-.114.151-.092 3.6-2.18-.048.086.047-4.585.026-1.215a2.3 2.3 0 0 1 .028-.418 2.4 2.4 0 0 1 .028.418l.027 1.215.047 4.585v.057l-.049.03-3.571 2.223.015-.206 2.966 2.443.1.08-.068.107-9.005 14.2-3.365 5.28-2.849 5.09-4.84 8.609-3.29 5.79-.91 1.567-.244.4a.6.6 0 0 1-.102.131"/><path d="M68.876 92.042c-2.092-5.653-2.827-12.2-4.386-18.026-.392 5.323-1.1 11.592-1.047 16.93.034 3.44.191 7 1.719 10.084s4.794 5.562 8.2 5.108c-.873-4.86-2.774-9.464-4.486-14.096" opacity=".3"/><path fill="#455a64" d="M83.133 60.943a17.77 17.77 0 0 0-6.949-11.9C64.915 46.972 64.84 63.692 64.84 63.692l-.533 9.068 1.016 22.971a4.75 4.75 0 0 0 4.628 3.331l13.391.1a2.237 2.237 0 0 0 2.24-2.122c.334-7.224-1.336-28.868-2.449-36.097"/><path fill="#e0e0e0" d="m58.764 41.58-.832-3.111-14.184 11.733-3.013-4.55-1.043 4.208s-3.8 26.862-4.065 30.809c-.255 3.866.5 15.062.5 15.062L49.2 67.486l9.44-23.824Z"/><path fill="#263238" d="M35.679 95.733a2.5 2.5 0 0 1-.18-.454l-.448-1.322c-.379-1.151-.917-2.82-1.549-4.893a158 158 0 0 1-1-3.4 52 52 0 0 1-.5-1.915 8.2 8.2 0 0 1-.211-2.11c.018-2.878.261-6.018.522-9.316.376-4.537.8-8.769 1.183-12.344l.008-.065.052-.037 1.8-1.284-.034.182-.879-1.39-.034-.054.022-.057c1.67-4.445 2.859-7.162 3.026-7.068a.5.5 0 0 1-.072.115c-.038.08-.1.2-.171.357-.145.317-.336.8-.581 1.414a230 230 0 0 0-1.968 5.269l-.012-.11.9 1.379.07.106-.1.076-1.784 1.3.06-.1a767 767 0 0 0-1.133 12.341c-.261 3.292-.513 6.436-.548 9.287a13 13 0 0 0 .672 3.952c.331 1.228.657 2.368.959 3.408.6 2.052 1.093 3.724 1.444 4.923l.387 1.34a3 3 0 0 1 .099.47m19.185 29.352c.011 0 .1.136.273.379l.728 1.052 2.593 3.8-.131-.05 15.095-4.144.13-.035-.1.247-2.593-4.638.2.074a59.5 59.5 0 0 1-11.5 2.877c-1.461.21-2.633.324-3.439.384-.4.034-.689.037-.907.046s-.331.011-.34.007a2 2 0 0 1 .3-.047l.937-.118c.8-.095 1.966-.242 3.418-.48a64 64 0 0 0 11.423-2.98l.131-.047.069.122 2.6 4.633.107.19-.211.057-.129.035-15.121 4.047-.085.022-.047-.072-2.522-3.957-.661-1.053a4 4 0 0 1-.218-.351m3.724-82.163a4.5 4.5 0 0 1-.509.739 77 77 0 0 1-1.506 1.922 132 132 0 0 1-5.255 6.1 143 143 0 0 1-3.526 3.718l-.123.125-.106-.138-2.776-3.578-.764-1.026a1.7 1.7 0 0 1-.246-.384c.013-.011.125.1.321.326l.832.974 2.874 3.5-.229-.013c1.048-1.1 2.244-2.372 3.492-3.737a247 247 0 0 0 5.321-6.028l1.588-1.851a4.6 4.6 0 0 1 .612-.649m-19.255 8.772a28 28 0 0 1 1.488 3.811l-.3-.034.465-.744a109 109 0 0 1 1.914-2.945 6.2 6.2 0 0 1 .877-1.166 6.2 6.2 0 0 1-.673 1.294c-.453.777-1.1 1.838-1.829 3l-.47.741-.188.3-.112-.332a28 28 0 0 1-1.172-3.925M28.307 65.67a3 3 0 0 1 .011.517l-.036 1.481-.137 5.443c-.1 4.6-.171 10.947-.207 17.963s-.076 13.341-.1 17.97l-.085 5.446-.045 1.48a3 3 0 0 1-.039.516 3 3 0 0 1-.029-.517l-.019-1.48-.024-5.446c-.011-4.6-.031-10.952 0-17.971s.142-13.372.307-17.969c.076-2.3.168-4.158.245-5.442l.1-1.478a3 3 0 0 1 .058-.513m9.464 60.963a7.4 7.4 0 0 1-.134-1.149l-.284-3.135c-.248-2.646-.709-6.288-1.1-10.332a69 69 0 0 1-.278-10.4c.086-1.33.184-2.4.293-3.141a7.4 7.4 0 0 1 .188-1.141 7.5 7.5 0 0 1-.057 1.155c-.068.74-.129 1.813-.184 3.138a80 80 0 0 0 .376 10.358c.388 4.034.812 7.688 1 10.343.095 1.327.158 2.4.177 3.147a8 8 0 0 1 .003 1.157m38.488-27.489a10.3 10.3 0 0 1-.454-1.978 6 6 0 0 1-.314-2.019 4.9 4.9 0 0 1 .7 1.934 3.7 3.7 0 0 1 .068 2.063"/><path fill="#263238" d="M85.592 96.682c.01 0 .047.074.069.233a1.7 1.7 0 0 1-.057.7 2.6 2.6 0 0 1-.536.973 2.8 2.8 0 0 1-.519.471 2.1 2.1 0 0 1-.745.294 26 26 0 0 1-3.74.123h-4.553c-1.617-.02-3.15.013-4.563-.052a11 11 0 0 1-2-.26 6.2 6.2 0 0 1-1.633-.685 4.25 4.25 0 0 1-1.722-1.856 2.3 2.3 0 0 1-.272-.888c.034-.011.128.307.409.817a4.34 4.34 0 0 0 1.726 1.684 6 6 0 0 0 1.567.606 11.4 11.4 0 0 0 1.942.216c1.385.044 2.931 0 4.545.02l4.553.031a30 30 0 0 0 3.684-.032 1.9 1.9 0 0 0 1.155-.639 2.5 2.5 0 0 0 .553-.87 3 3 0 0 0 .137-.886M64.563 65.978c.061.009-.1 1.159-.125 3.029s.091 4.461.17 7.324.134 5.456.151 7.333c.009.939.009 1.7 0 2.224a.411.411 0 1 1-.155.005 97 97 0 0 1-.127-2.22c-.09-1.876-.186-4.468-.269-7.333s-.158-5.457-.053-7.343a21 21 0 0 1 .222-2.222 3 3 0 0 1 .186-.797m8.461-15.705c.011.073-.847.137-2.092.662a10.3 10.3 0 0 0-4.085 3.2 14.5 14.5 0 0 0-2.314 4.708c-.384 1.3-.519 2.141-.583 2.131a7.5 7.5 0 0 1 .311-2.2 13.1 13.1 0 0 1 2.271-4.877 9.74 9.74 0 0 1 4.3-3.223 7 7 0 0 1 1.593-.389 1.6 1.6 0 0 1 .599-.012"/><path d="M78.322 85.306a31 31 0 0 1-2.138 2.614c-1.89 1.759-3.739 3.726-5.63 5.484a14.7 14.7 0 0 1-2.471 1.988 8.66 8.66 0 0 0 5.484-.857 16.1 16.1 0 0 0 4.676-3.645 8 8 0 0 0 2.346-4.647 32 32 0 0 0 .472-4.9 26.7 26.7 0 0 1-2.739 3.963" opacity=".3"/><path fill="#263238" d="M73.291 90.898a11.7 11.7 0 0 1 1.38-1.6c.881-.956 2.11-2.266 3.359-3.8a30 30 0 0 0 2.866-4.156c.633-1.128.949-1.869 1.011-1.845a7.4 7.4 0 0 1-.761 1.977 23 23 0 0 1-2.805 4.275 45 45 0 0 1-3.467 3.742 10.6 10.6 0 0 1-1.583 1.407m4.869 6.11c.106-.011.233.57.044 1.259s-.586 1.128-.672 1.066.124-.55.288-1.17.231-1.15.34-1.155m-3.395 2.305c-.044.1-.484-.014-.86-.4s-.48-.828-.382-.869.341.262.666.591.625.576.576.678m-38.778-4.47a2 2 0 0 1 .019-.448l.132-1.274.558-4.677 1.992-15.409c.211-1.5.424-2.972.7-4.384l.947-4.022c.611-2.561 1.249-4.839 1.747-6.764l1.234-4.547.354-1.231a2 2 0 0 1 .15-.422 2 2 0 0 1-.072.442l-.282 1.25-1.106 4.577c-.463 1.932-1.074 4.224-1.663 6.782l-.921 4.013c-.272 1.4-.482 2.861-.692 4.362l-2.108 15.391-.684 4.659-.206 1.265a2 2 0 0 1-.099.437"/><path d="m55.223 125.506.134.454c0-.09-.011-.178-.011-.268Z"/><path d="M71.276 141.508a8.41 8.41 0 0 1-11.2-2.707 15.7 15.7 0 0 1-1.423-3q-1.865-4.844-3.3-9.839a28 28 0 0 0 .737 5.318l.79 3.817a22.4 22.4 0 0 0 1.755 5.784 7.56 7.56 0 0 0 4.376 3.954c2.5.725 5.146-.35 7.424-1.605a2.34 2.34 0 0 0 .873-.689.83.83 0 0 0-.032-1.033" opacity=".3"/><path fill="#263238" d="M39.007 22.957c-.041 0-.031-.37-.205-.994a4.14 4.14 0 0 0-1.519-2.192 3.977 3.977 0 1 0 0 6.371 4.14 4.14 0 0 0 1.519-2.192c.174-.624.165-1 .205-.994q.02.002.026.267a3.2 3.2 0 0 1-.081.765 4.13 4.13 0 0 1-1.5 2.378 4.29 4.29 0 0 1-6.094-.842 4.3 4.3 0 0 1 0-5.136 4.29 4.29 0 0 1 6.093-.842 4.13 4.13 0 0 1 1.5 2.378 3.2 3.2 0 0 1 .081.765q-.004.267-.025.268m11.684-1.231c-.04 0-.031-.37-.2-.994a4.14 4.14 0 0 0-1.519-2.192 3.977 3.977 0 1 0 0 6.371 4.14 4.14 0 0 0 1.519-2.192c.174-.624.165-1 .2-.994q.021.002.027.267a3 3 0 0 1-.081.765 4.13 4.13 0 0 1-1.5 2.378 4.29 4.29 0 0 1-6.094-.842 4.3 4.3 0 0 1 0-5.135 4.29 4.29 0 0 1 6.093-.842 4.13 4.13 0 0 1 1.5 2.378 3 3 0 0 1 .081.765q-.003.266-.026.267"/><path fill="#263238" d="M42.254 21.996c-.031.112-.809-.057-1.721.183-.917.22-1.523.738-1.6.653-.088-.058.467-.783 1.506-1.04a2.04 2.04 0 0 1 1.815.204m14.941.869a73 73 0 0 1-6.6-.871 17.4 17.4 0 0 1 6.6.871"/></g></g><g transform="translate(653.661 177.121)"><g transform="translate(105.947 10.777)"><path fill="#263238" d="M24.386 21.452a19.7 19.7 0 0 0-2.206 9.43 11.5 11.5 0 0 0 4.136 8.536 2.46 2.46 0 0 0 1.711.655c.622-.075 1.177-.775.888-1.331a8.1 8.1 0 0 0 2.146 2.445 1.47 1.47 0 0 0 .989.39 1.1 1.1 0 0 0 .861-1.136 3.2 3.2 0 0 0-.5-1.463 3.6 3.6 0 0 1 1.744.7c.564.3 1.389.384 1.724-.157.3-.484-.012-1.1-.318-1.58-1.395-2.19-2.8-4.5-3.037-7.087-.166-1.842.282-3.725-.1-5.535a6.3 6.3 0 0 0-4.4-4.676 3.49 3.49 0 0 0-3.594.793"/><g fill="#263238" transform="translate(0 4.127)"><path d="M10.639 31.791c-1.249-1.7-3.634-2.265-4.63-4.128-1.754-3.28-1.524-6.314-1.4-10.031.086-2.545-.162-6.158 1.4-8.17 1.1-1.415 1.88-2.28 2.863-3.778 1.08-1.646 2.2-3.6 1.154-5.266"/><path d="M11.146 31.835a3.64 3.64 0 0 0-4.34-.711L10.027.013c-1.41-.189-4.72 1.709-5.657 2.779a13 13 0 0 0-2.033 3.729c-2.216 5.4-3.439 10.821-.985 15.731l-.135 2.3a12.13 12.13 0 0 0 3.688 9.3l.039.038.358.357a3.54 3.54 0 0 1 .988 3.042l-.007.046a3.4 3.4 0 0 0-.083.974.93.93 0 0 0 .527.772c.495.189 1.014-.26 1.235-.742a6 6 0 0 1 .638-1.447 17 17 0 0 1 .806 1.767c.323.563 1.079 1 1.607.628a1.5 1.5 0 0 0 .448-.674 9.6 9.6 0 0 0 .848-3.473 4.67 4.67 0 0 0-1.163-3.305"/></g><path fill="#f2c5b1" d="m27.975 17.586-1 27.014a8.04 8.04 0 0 1-8.73 7.714 7.79 7.79 0 0 1-7.092-8.263 93 93 0 0 0 .029-4.65s-6.767-1.52-7.012-8.345c-.118-3.3-.039-8.84.313-15A12.72 12.72 0 0 1 16.889 4.072l.659-.015c7.109.247 10.872 6.427 10.427 13.529"/><path fill="#d89c84" d="M11.151 39.435a15.9 15.9 0 0 0 8.841-2.738s-1.988 4.962-8.815 4.507Z"/><path fill="#263238" d="M7.583 21.135a.975.975 0 0 0 .963.962.933.933 0 0 0 .984-.9.975.975 0 0 0-.962-.962.933.933 0 0 0-.985.9m-1.17-2.523c.1.1.874.048 1.87.376s1.653.843 1.779.812c.06-.012-.024-.171-.309-.4a4.5 4.5 0 0 0-1.4-.732 4 4 0 0 0-1.511-.217c-.342.025-.477.112-.429.161m10.874 2.523a.976.976 0 0 0 .963.962.933.933 0 0 0 .985-.9.977.977 0 0 0-.962-.962.934.934 0 0 0-.986.9m-.801-.969c.154.022.823-.508 1.931-.868s2.027-.362 2.121-.466c.047-.047-.128-.121-.533-.128a5.5 5.5 0 0 0-1.73.294 5 5 0 0 0-1.5.771c-.294.235-.364.388-.289.397m-3.769 7.029a7 7 0 0 0-1.711-.267c-.268-.021-.523-.069-.573-.251a1.37 1.37 0 0 1 .161-.8l.744-2.059a35 35 0 0 0 1.654-5.377 35 35 0 0 0-2.083 5.232l-.711 2.069a1.55 1.55 0 0 0-.114 1.055.67.67 0 0 0 .449.381 1.8 1.8 0 0 0 .457.053 6.8 6.8 0 0 0 1.727-.036m3.106.653c-.171-.006-.147 1.133-1.1 1.964s-2.171.734-2.176.894c-.015.071.275.214.788.216a2.84 2.84 0 0 0 1.818-.682 2.47 2.47 0 0 0 .851-1.645c.035-.476-.103-.755-.181-.747m.64-11.877c.111.282 1.154.123 2.389.243 1.236.095 2.238.431 2.394.172.07-.124-.109-.389-.517-.656a4.17 4.17 0 0 0-3.645-.315c-.448.192-.668.418-.621.556m-10.122.355c.19.234.907-.03 1.776-.062.867-.063 1.609.122 1.773-.131.071-.123-.05-.359-.377-.577a2.57 2.57 0 0 0-2.859.155c-.301.253-.401.503-.313.615"/><path fill="#263238" d="M38.013 27.153c-.213-1.3-.342-2.62-.48-3.934-.24-2.286-5.081-10.527-5.081-10.527a28.9 28.9 0 0 0-5.965-8.856 12.95 12.95 0 0 0-9.608-3.8 8.65 8.65 0 0 0-7.753 6.295l.594-.887c-.132 1.243 1.191 2.187 2.414 2.284a34 34 0 0 0 3.655-.375 7.35 7.35 0 0 1 6.018 3.417 15.4 15.4 0 0 1 2.272 6.865c.3 2.42.328 4.872.686 7.284.383 2.583 1.844 3.474 3.784 5.182a38 38 0 0 1 5.055 5.432 3.35 3.35 0 0 0 2.681 1.148c.77-.171.985-1.317 1.092-2.111.1-.888-.451-1.748-.487-2.948a2.5 2.5 0 0 0 1.3-1.987 8.4 8.4 0 0 0-.177-2.482"/><g transform="translate(26.824 23.916)"><path fill="#f2c5b1" d="M.109.252c.116-.054 4.658-1.5 4.618 3.173S.006 7.093-.001 6.959.109.252.109.252"/><path fill="#d89c84" d="M1.443 5.2c.021-.015.081.058.218.122a.82.82 0 0 0 .607.018 2.01 2.01 0 0 0 .947-1.8 2.7 2.7 0 0 0-.218-1.167.94.94 0 0 0-.607-.63.41.41 0 0 0-.482.219c-.064.13-.034.223-.06.231s-.1-.079-.06-.272a.52.52 0 0 1 .187-.291.62.62 0 0 1 .451-.115 1.14 1.14 0 0 1 .844.731 2.76 2.76 0 0 1 .271 1.3 2.11 2.11 0 0 1-1.2 2.007.87.87 0 0 1-.744-.13c-.148-.109-.171-.214-.154-.223"/></g><path fill="#455a64" d="M35.434 33.102s.036-.025.093-.086a3 3 0 0 0 .243-.281 4.9 4.9 0 0 0 .709-1.24 6.82 6.82 0 0 0-.124-5.162 10.3 10.3 0 0 0-1.988-3.041 35 35 0 0 0-3.107-2.751 10.6 10.6 0 0 1-1.526-1.587 7.1 7.1 0 0 1-1.053-2.014 27 27 0 0 1-.905-4.787 14.5 14.5 0 0 0-1.441-4.727 9.8 9.8 0 0 0-2.992-3.5 7.74 7.74 0 0 0-3.9-1.462 9.2 9.2 0 0 0-3.6.487 14 14 0 0 0-2.716 1.255 6.4 6.4 0 0 0-1.761 1.42 2.75 2.75 0 0 0-.622 1.287 1.5 1.5 0 0 0 0 .5c.02 0 .007-.173.071-.487a2.8 2.8 0 0 1 .656-1.214 6.5 6.5 0 0 1 1.755-1.341 14.3 14.3 0 0 1 2.7-1.192 9 9 0 0 1 3.5-.435A7.5 7.5 0 0 1 23.17 4.18a9.6 9.6 0 0 1 2.88 3.4 14.3 14.3 0 0 1 1.4 4.626 27 27 0 0 0 .926 4.844 7.5 7.5 0 0 0 1.109 2.1 11 11 0 0 0 1.58 1.626 37 37 0 0 1 3.107 2.707 10.2 10.2 0 0 1 1.972 2.942 6.78 6.78 0 0 1 .221 5.022 7 7 0 0 1-.931 1.655"/></g><g transform="translate(57.271)"><g transform="translate(8.588)"><path fill="#f2c5b1" d="M40.386 70.571s-26.1-19.682-28-20.851c-3.358-2.068-6.8-29.091-6.8-29.091l8.282-2.951 6.643 22.7 24.9 15.415Z"/><path fill="#f2c5b1" d="M12.002 20.822a6.66 6.66 0 0 0 2.581-2.948c.484-1.643 1.021-11.51 1.021-11.51s-1.284-.334-2.049 1.529a41 41 0 0 0-1.28 4.513l-1.78-7.516c-.4-1.685-1.1-4.214-2.01-4.244s-.2 3.248-.181 4.684.093 3.472.093 3.472c.046.1-1.724-6.614-2.684-8.278-.7-1.213-2.109-.138-1.6 1.384 0 0-1.171-1.292-1.476.063s1.493 7.848 1.025 7.9S1.435 4.723.587 4.494c-.48-.129-.807.543-.424 1.884s3.362 11.43 4.1 12.707a3.5 3.5 0 0 0 1.475 1.559Z"/><path fill="#d89c84" d="M6.167 14.835a2.56 2.56 0 0 1 1.164.206 7 7 0 0 1 2.482 1.443l-.3.082.04-.115a8.2 8.2 0 0 1 1.436-2.574c.487-.58.865-.86.9-.826a15 15 0 0 0-1.977 3.521l-.038.109-.093.273-.21-.191a11.7 11.7 0 0 0-3.404-1.928M4.054 1.664a27.4 27.4 0 0 1 1.437 4.071 16 16 0 0 1 .9 4.229c-.1.018-.556-1.85-1.261-4.12a23 23 0 0 1-1.076-4.18"/></g><path fill="#ff725e" d="M61.745 57.894 31.463 41.208a1.95 1.95 0 0 0-.689-1.683.826.826 0 0 0-1.27.229L19.217 45.06a1.857 1.857 0 0 0-.663 2.728c1.841 2.585 5.3 7.284 7.213 8.872 1.893 1.572 26.175 17.7 26.175 17.7Z"/><path fill="#263238" d="M4.536 17.022c-.021.008-.1-.151-.237-.448a11 11 0 0 1-.47-1.3 15.8 15.8 0 0 1 0-9 11 11 0 0 1 .469-1.3c.132-.3.216-.457.237-.449.052.021-.2.692-.48 1.808a18.2 18.2 0 0 0 0 8.877c.279 1.121.533 1.791.481 1.812M.48 12.478a1.5 1.5 0 0 1-.151-.487 12 12 0 0 1-.227-1.367 16.9 16.9 0 0 1 1.457-8.939 12 12 0 0 1 .65-1.224c.173-.278.277-.425.3-.414.048.027-.294.661-.731 1.731a19.75 19.75 0 0 0-1.439 8.825c.072 1.152.195 1.865.141 1.875m27.442 3.015a14 14 0 0 1-.162-1.789 31 31 0 0 0-1.854-8.394 14 14 0 0 1-.607-1.69 7.4 7.4 0 0 1 .825 1.6 23.8 23.8 0 0 1 1.87 8.467 7.4 7.4 0 0 1-.072 1.806m3.934 1.413c-.057 0-.012-.872-.087-2.268a24.3 24.3 0 0 0-2.959-10.4c-.67-1.226-1.166-1.941-1.119-1.974a2.2 2.2 0 0 1 .4.467 15 15 0 0 1 .926 1.39 21.3 21.3 0 0 1 2.99 10.51 15 15 0 0 1-.056 1.669 2.2 2.2 0 0 1-.095.606"/></g><path fill="#455a64" d="m131.344 89.217-8.528 40.657 17.273-.2 7.314-36.073 15.323-.173a2.284 2.284 0 0 0 2.258-2.31 2.285 2.285 0 0 0-2.31-2.258Z"/><g transform="translate(0 187.923)"><path fill="#ff725e" d="m17.871 0-2.163 14.1S.654 16.635.001 19.2l27.18 5.176 4.272-21.824Z"/><path d="m17.871 0-2.163 14.1S.654 16.635.001 19.2l27.18 5.176 4.272-21.824Z" opacity=".3"/><path fill="#263238" d="M24.337 14.518a1.13 1.13 0 0 1 .526 1.413 1.087 1.087 0 0 1-1.4.534 1.19 1.19 0 0 1-.549-1.5 1.13 1.13 0 0 1 1.514-.394m2.753 9.801.415-2.116-26.259-4.234s-1.31.3-1.336 1.174ZM15.294 13.873c-.021.134.631.32 1.2.871.586.536.813 1.175.946 1.146.127 0 .08-.834-.623-1.489s-1.533-.655-1.523-.528m-3.076.637c-.054.122.477.457.821 1.1.363.637.361 1.266.495 1.285.12.044.36-.715-.083-1.512s-1.206-.999-1.233-.873m-2.269 3.104c.115.051.426-.576.223-1.368s-.768-1.2-.845-1.1c-.1.095.233.562.389 1.214.172.649.105 1.217.233 1.254m6.194-6.896c.032.132.676.065 1.417.259s1.28.542 1.371.441c.095-.082-.381-.682-1.257-.9s-1.576.082-1.531.2"/></g><g transform="translate(9.175 188.701)"><path fill="#ff725e" d="m17.871 0-2.163 14.1S.654 16.635.001 19.2l27.18 5.177 4.272-21.824Z"/><path fill="#263238" d="M24.337 14.518a1.13 1.13 0 0 1 .526 1.413 1.086 1.086 0 0 1-1.4.534 1.19 1.19 0 0 1-.549-1.5 1.127 1.127 0 0 1 1.514-.395m2.752 9.802.415-2.116-26.259-4.235s-1.31.3-1.336 1.174ZM15.291 13.874c-.021.134.632.321 1.2.871s.813 1.175.946 1.146c.127 0 .08-.834-.624-1.489s-1.522-.656-1.522-.528m-3.074.636c-.054.122.477.457.821 1.1.363.637.361 1.266.495 1.285.12.045.36-.715-.083-1.512s-1.206-.999-1.233-.873m-2.268 3.104c.115.051.426-.577.223-1.369s-.768-1.2-.845-1.1c-.1.095.233.562.389 1.214.172.65.103 1.217.233 1.255m6.194-6.897c.032.132.676.064 1.417.258s1.28.542 1.371.441c.095-.082-.381-.682-1.257-.9s-1.576.086-1.531.201"/></g><g transform="translate(15.225 115.493)"><path fill="#263238" d="M75.636.017S26.215.825 21.782.625C12.404.203 8.746 6.533 7.464 15.511 7.072 18.262 0 78.55 0 78.55l17.112 3.536 11.615-54.805s45.676 1.636 49.994 2.371c5.257.9 12.507 3.693 16.461.623s6.356-18.82 6.356-18.82Z"/><path fill="#263238" d="M79.465.001S35.179.725 30.746.525C21.369.102 17.71 6.432 16.429 15.411c-.393 2.75-7.464 64.862-7.464 64.862l16.687 3.716L37.69 27.181s45.677 1.636 49.994 2.371c5.257.894 12.507 3.693 16.461.623s6.356-18.82 6.356-18.82Z"/><path fill="#455a64" d="M34.172.554a1.4 1.4 0 0 1-.236.008l-.691-.01c-.606.014-1.5.018-2.648.14a28.4 28.4 0 0 0-4.127.715 19 19 0 0 0-2.486.8 10.4 10.4 0 0 0-2.551 1.386 5.1 5.1 0 0 0-1.086 1.092 11 11 0 0 0-.828 1.409A17.5 17.5 0 0 0 18.3 9.352a62 62 0 0 0-1.324 7.608c-.745 5.4-1.5 11.355-2.258 17.605-1.508 12.506-2.811 23.837-3.884 32.021-.529 4.094-.988 7.4-1.32 9.687-.17 1.126-.3 2.007-.4 2.628l-.112.682a1.3 1.3 0 0 1-.049.23 1 1 0 0 1 .015-.235l.079-.687.335-2.636c.289-2.31.7-5.618 1.214-9.7l3.788-32.032c.758-6.252 1.522-12.2 2.284-17.608a61 61 0 0 1 1.362-7.639 17.7 17.7 0 0 1 1.255-3.3 11 11 0 0 1 .856-1.435 5.4 5.4 0 0 1 1.144-1.137 10.6 10.6 0 0 1 2.615-1.4 19 19 0 0 1 2.518-.782 27.6 27.6 0 0 1 4.161-.664 18 18 0 0 1 3.593-.004"/></g><g transform="translate(94.5 53.231)"><path fill="#ff725e" d="M17.667 5.487 38.501.005s8.15 5.03 8.945 6 3.681 4.675 3.6 11.615c-.053 4.334-3.794 19.978-3.794 19.978L33.367 61.975l-4.282 12.012-20.748.052L.192 62.261s-1.026-2.441 1.678-6.2 6.943-10.116 6.943-10.116 1.25-7.62 2.592-10.43 1.034-3.985 1.034-3.985-1.32-7.768.013-11.413 5.215-14.63 5.215-14.63"/><path fill="#ff725e" d="M39.898 3.254c5.018-.577 8.16 2.561 11.146 6.636 5.888 8.033 11.44 23.138 12.02 24.813.819 2.369 1.675 2.893 1.955 4.065a27.2 27.2 0 0 1 .073 8.01 3.09 3.09 0 0 1-3.214 2.759l-12.064.141a2.5 2.5 0 0 1-2.525-2.575l.184-6.276s-6.885-5.647-8.515-9.594-7.532-7.6-7.532-7.6-4.669-7.213-1.4-13.164c1.03-1.873 8.047-7.005 9.872-7.215"/><path fill="#263238" d="M34.444 25.56a3.4 3.4 0 0 1 .525.557l1.336 1.594a422 422 0 0 1 4.309 5.338 65 65 0 0 0 4.367 5.261 16.3 16.3 0 0 0 2.212 1.75 2.5 2.5 0 0 1-.7-.325 9.7 9.7 0 0 1-1.678-1.253 50 50 0 0 1-4.466-5.225 443 443 0 0 1-4.233-5.4l-1.253-1.66a3.4 3.4 0 0 1-.419-.637"/><path d="M46.124 39.547a6.11 6.11 0 0 1-6.355-.214 10.04 10.04 0 0 1-3.924-5.282 30 30 0 0 1-1.263-6.571c-.024-.2-.03-.446.135-.565.232-.166.819.031 1 .249 3.663 4.321 6.113 8.483 10.4 12.383" opacity=".3"/><path fill="#263238" d="M56.287 37.015c-.008.058-.585-.024-1.51.031a9.5 9.5 0 0 0-6.366 3c-.63.679-.934 1.177-.984 1.145a4 4 0 0 1 .808-1.3 8.63 8.63 0 0 1 6.535-3.081 4 4 0 0 1 1.517.205m-6.01-5.911a13.7 13.7 0 0 0-2.779 9.517 4.5 4.5 0 0 1-.248-1.489 11 11 0 0 1 2.017-6.906 4.5 4.5 0 0 1 1.01-1.122M8.813 45.946a2 2 0 0 1 .041-.411 63 63 0 0 1 1.057-5.415 52 52 0 0 1 1.925-6.145 8.4 8.4 0 0 0 .552-3.661c-.049-1.3-.262-2.652-.331-4.06a39 39 0 0 1 2.038-14.131 36 36 0 0 1 1.638-4.021c.214-.466.412-.812.536-1.052a2 2 0 0 1 .21-.354 2 2 0 0 1-.151.384c-.1.249-.283.6-.479 1.076a43 43 0 0 0-1.532 4.042 40.4 40.4 0 0 0-1.929 14.041c.068 1.382.278 2.734.324 4.064a8.6 8.6 0 0 1-.591 3.781 55 55 0 0 0-1.984 6.095c-.461 1.767-.761 3.217-.974 4.218l-.245 1.153a2 2 0 0 1-.105.396"/></g><path fill="#263238" d="M142.407 101.462a2.4 2.4 0 0 1 .531-.391c.355-.231.882-.547 1.557-.894a14.8 14.8 0 0 1 5.676-1.68 9.6 9.6 0 0 1 5.732 1.385 6.8 6.8 0 0 1 1.387 1.157 2.1 2.1 0 0 1 .4.529 13 13 0 0 0-1.906-1.486 9.9 9.9 0 0 0-5.588-1.254 16 16 0 0 0-5.595 1.559c-1.361.635-2.167 1.123-2.194 1.075"/><g transform="translate(19.341 124.211)"><path fill="#455a64" d="m120.894 0-.858 32.285-72.4.221a7.07 7.07 0 0 1-7.09-6.99 7.07 7.07 0 0 1 6.839-7.145l6.263-.2-.339-13.75A3.6 3.6 0 0 1 56.872.727Z"/><g transform="translate(0 4.068)"><path fill="#455a64" d="m94.312 62.05-4.233.048-.481-42.621 4.233-.049z"/><path fill="#455a64" d="m94.31 61.873-60.147.662-.04-3.555 60.149-.662z"/><path fill="#e0e0e0" d="M88.634 86.353a40.3 40.3 0 1 1 .468 0zm.025-79.873h-.46a39.5 39.5 0 1 0 .46 0"/><path fill="#e0e0e0" d="M68.499 46.673c10.99-.132 19.894-.246 19.894-.253s-8.906.093-19.894.224-19.888.245-19.888.253 8.907-.092 19.888-.224m.308 3.287c10.822-1.912 19.591-3.466 19.59-3.474s-8.772 1.535-19.6 3.446-19.585 3.465-19.584 3.472 8.779-1.535 19.594-3.444m.839 3.191c10.361-3.663 18.756-6.637 18.754-6.644s-8.4 2.955-18.763 6.618-18.751 6.635-18.748 6.643 8.403-2.956 18.757-6.617m1.352 3.01c9.62-5.313 17.413-9.624 17.41-9.63s-7.8 4.293-17.423 9.606-17.408 9.621-17.4 9.627 7.8-4.294 17.413-9.603m1.825 2.747c8.626-6.809 15.613-12.331 15.609-12.337s-7 5.507-15.625 12.316-15.609 12.328-15.6 12.334 6.996-5.508 15.616-12.313m2.247 2.412c7.408-8.118 13.407-14.7 13.4-14.7s-6.013 6.569-13.422 14.686-13.4 14.7-13.4 14.7 6.014-6.574 13.422-14.686m2.605 2.017c5.992-9.212 10.843-16.68 10.837-16.684s-4.867 7.457-10.86 16.67-10.84 16.676-10.834 16.68 4.872-7.46 10.857-16.666m2.904 1.565c4.407-10.067 7.974-18.227 7.967-18.23s-3.584 8.153-7.991 18.22-7.972 18.223-7.965 18.225 3.584-8.155 7.989-18.215m3.119 1.071c2.694-10.654 4.872-19.29 4.866-19.292s-2.2 8.631-4.892 19.285S78.8 85.25 78.808 85.252s2.197-8.633 4.89-19.279m3.253.543c.916-10.952 1.652-19.827 1.644-19.828s-.755 8.873-1.672 19.826-1.651 19.821-1.644 19.822.756-8.877 1.672-19.82m3.299.007c-.859-10.956-1.562-19.834-1.57-19.833s.682 8.88 1.541 19.835 1.562 19.829 1.571 19.828-.683-8.882-1.542-19.83m3.259-.526c-2.638-10.668-4.781-19.312-4.789-19.311s2.124 8.649 4.762 19.318 4.78 19.307 4.787 19.305-2.121-8.651-4.76-19.312m3.127-1.054c-4.355-10.09-7.89-18.264-7.9-18.261s3.517 8.182 7.872 18.272 7.888 18.259 7.9 18.256-3.519-8.184-7.872-18.267m2.91-1.552c-5.947-9.241-10.772-16.727-10.778-16.723s4.808 7.5 10.755 16.738 10.769 16.723 10.775 16.718-4.808-7.498-10.752-16.733m2.619-2.004c-7.369-8.152-13.347-14.755-13.352-14.75s5.963 6.615 13.332 14.767 13.344 14.751 13.349 14.746-5.964-6.617-13.329-14.763m2.258-2.403c-8.594-6.85-15.562-12.4-15.567-12.391s6.956 5.562 15.55 12.412 15.557 12.393 15.561 12.387-6.961-5.563-15.544-12.408m1.837-2.736c-9.593-5.361-17.371-9.7-17.374-9.694s7.768 4.356 17.361 9.717 17.365 9.7 17.369 9.691-7.769-4.357-17.356-9.714m1.367-3C97.285 49.531 88.902 46.523 88.9 46.53s8.376 3.025 18.718 6.743 18.719 6.723 18.722 6.716-8.378-3.026-18.713-6.741m.856-3.186c-10.812-1.968-19.575-3.558-19.576-3.55s8.76 1.609 19.572 3.577 19.569 3.557 19.57 3.55-8.758-1.609-19.566-3.577m.324-3.283c-10.988-.185-19.893-.328-19.894-.321s8.9.164 19.893.348 19.887.329 19.887.321-8.904-.163-19.886-.348m-.211-3.293c-10.874 1.591-19.685 2.887-19.684 2.895s8.815-1.276 19.688-2.867 19.679-2.886 19.679-2.894-8.817 1.275-19.683 2.866m-.746-3.216c-10.465 3.354-18.944 6.078-18.942 6.085s8.486-2.7 18.95-6.059 18.94-6.076 18.937-6.083-8.486 2.706-18.945 6.057m-1.258-3.048c-9.772 5.027-17.69 9.105-17.686 9.112s7.926-4.061 17.7-9.088 17.684-9.1 17.681-9.11-7.933 4.064-17.695 9.086m-1.747-2.799c-8.822 6.553-15.967 11.869-15.963 11.875s7.157-5.3 15.979-11.853 15.963-11.865 15.958-11.871-7.158 5.301-15.974 11.849m-2.176-2.477c-7.643 7.9-13.832 14.3-13.826 14.306s6.2-6.39 13.845-14.288 13.827-14.3 13.822-14.3-6.2 6.39-13.841 14.282m-2.545-2.093c-6.26 9.033-11.329 16.355-11.323 16.359s5.084-7.312 11.345-16.344 11.325-16.351 11.319-16.355-5.087 7.314-11.341 16.34m-2.857-1.65c-4.7 9.932-8.509 17.984-8.5 17.987s3.824-8.043 8.527-17.976 8.507-17.979 8.5-17.982-3.826 8.046-8.527 17.971m-3.085-1.161c-3.01 10.57-5.442 19.137-5.435 19.139s2.452-8.562 5.461-19.132 5.441-19.131 5.434-19.133-2.452 8.564-5.46 19.126m-3.234-.639c-1.236 10.92-2.232 19.77-2.225 19.771s1.015-8.848 2.252-19.768S93.207 6.642 93.2 6.641s-1.018 8.85-2.252 19.762m-3.3-.103c.541 10.976.985 19.871.993 19.871s-.424-8.9-.964-19.872-.985-19.866-.992-19.865.424 8.897.963 19.866m-3.272.43c2.321 10.742 4.208 19.445 4.215 19.444s-1.867-8.708-4.188-19.45-4.207-19.44-4.215-19.438 1.869 8.71 4.188 19.444m-3.157.96c4.055 10.215 7.346 18.49 7.353 18.487s-3.274-8.282-7.328-18.5S73.9 9.193 73.893 9.196s3.273 8.287 7.326 18.494m-2.956 1.465c5.673 9.412 10.276 17.036 10.283 17.032S83.96 38.553 78.287 29.14 68.01 12.109 68.01 12.113s4.584 7.636 10.253 17.042m-2.676 1.928c7.128 8.364 12.91 15.138 12.916 15.134s-5.767-6.787-12.9-15.151-12.906-15.134-12.912-15.129 5.773 6.788 12.896 15.146m-2.329 2.335c8.389 7.1 15.193 12.846 15.2 12.84s-6.79-5.762-15.18-12.861S58.09 20.555 58.085 20.561s6.792 5.764 15.173 12.857M71.344 36.1c9.431 5.641 17.078 10.207 17.081 10.2s-7.636-4.583-17.068-10.224-17.074-10.2-17.077-10.2 7.639 4.587 17.064 10.224m-1.455 2.958c10.227 4.022 18.517 7.276 18.52 7.269s-8.283-3.272-18.51-7.294-18.512-7.274-18.514-7.267 8.283 3.273 18.504 7.292m-.95 3.158c10.749 2.287 19.461 4.135 19.463 4.128s-8.708-1.867-19.458-4.155-19.455-4.133-19.457-4.127 8.712 1.868 19.452 4.154m-.42 3.273c10.979.5 19.875.906 19.876.9s-8.9-.422-19.874-.925-19.869-.905-19.87-.9 8.898.423 19.868.925"/><path fill="#455a64" d="M85.421 46.467a2.918 2.918 0 1 0 2.885-2.951 2.92 2.92 0 0 0-2.885 2.951"/><path fill="#263238" d="M24.581 81.546a11.369 11.369 0 1 0 11.24-11.5 11.37 11.37 0 0 0-11.24 11.5m2.544-.028a8.825 8.825 0 1 1 8.924 8.724 8.825 8.825 0 0 1-8.924-8.725Z"/><path fill="#455a64" d="m34.369 80.324 2.728-.031-.685-60.607 9.582-.108-.031-2.728-12.311.139Z"/><path fill="#455a64" d="M21.705 85.903c0-.343-.4-50.1-.251-59.522a5.74 5.74 0 0 1 1.968-4.534c3.713-3.183 11.345-2.168 11.422-2.157l.378-2.7c-.362-.051-8.918-1.2-13.571 2.782a8.43 8.43 0 0 0-2.925 6.568c-.15 9.452.248 59.24.25 59.584Z"/><path fill="#455a64" d="m21.901 86.355-21.87.247L0 83.936l21.87-.246z"/><path fill="#263238" d="M42.558 46.616A46.095 46.095 0 1 0 88.128.003a46.095 46.095 0 0 0-45.57 46.613m3.256-.037c-.272-24.144 18.684-43.934 42.342-44.2s43.056 19.089 43.329 43.232-18.684 43.934-42.342 44.2-43.056-19.089-43.329-43.232"/></g></g><path fill="#f2c5b1" d="M157.178 102.405a34 34 0 0 0-1.148 3.828c-.813 3.062-19 30.067-19 30.067s-1.313 3.916-3 4.953-8.3 3.316-8.3 3.316l-2.5-1.668s-1.9 1.209-3.1.035a4.2 4.2 0 0 1-1.33-2.19s-.878 1.876-1.738.867a3.22 3.22 0 0 1-.869-1.856l1.8-5.956 2.193-1.043a11.2 11.2 0 0 1-5.092-.282s-2.005-.858-2.122-1.583l.57-.917a13.6 13.6 0 0 0 3.994.285c1.412-.27 6.513-1.561 6.513-1.561l5.6.881 12.429-25.382.848-3.058c5.25-2.533 10.224-3.716 14.231-.161Z"/><path fill="#263238" d="M141.946 59.928c-.024.018-.187-.164-.58-.375a9.4 9.4 0 0 0-1.727-.731 2.9 2.9 0 0 0-1.223-.185c-.464.059-.955.139-1.467.255a15.4 15.4 0 0 0-3.215 1.12 16 16 0 0 0-4.937 3.7c-1.055 1.195-1.553 2.062-1.614 2.024a2.4 2.4 0 0 1 .3-.634 13 13 0 0 1 1.1-1.574 14.8 14.8 0 0 1 4.978-3.873 14.6 14.6 0 0 1 3.31-1.119 14 14 0 0 1 1.51-.224 3.1 3.1 0 0 1 1.346.246c1.545.548 2.301 1.305 2.219 1.37"/><path fill="#ff725e" d="M115.802 57.758s.248-4.422.785-5.1 16.757-4.023 17.07-2.916a15.5 15.5 0 0 1 0 3.9s-15.745 4.375-17.855 4.116"/><path fill="#263238" d="M133.183 53.461a2.4 2.4 0 0 1-.631.3c-.416.166-1.024.389-1.785.642a53 53 0 0 1-6.052 1.6 39 39 0 0 1-6.212.835 7 7 0 0 1-1.9-.22 1.7 1.7 0 0 1-.652-.262 11.5 11.5 0 0 0 2.546.2 53 53 0 0 0 6.14-.945 83 83 0 0 0 6.049-1.476 22 22 0 0 1 2.497-.674"/><path fill="#263238" d="M124.534 55.743c-.119-.01-.07-1.125-.4-2.434s-.887-2.274-.787-2.338a5.38 5.38 0 0 1 1.192 4.771Zm4.281-1.392c-.116-.02.013-.984-.259-2.118-.256-1.137-.8-1.944-.7-2.014a3.9 3.9 0 0 1 .963 4.131Zm-8.607 2.129c-.024.041-.3-.057-.613-.4a2.97 2.97 0 0 1-.677-1.626 5.3 5.3 0 0 1 .126-1.729c.1-.427.2-.68.252-.672s.055.283.028.712a9.4 9.4 0 0 0-.009 1.643 3.6 3.6 0 0 0 .506 1.5c.218.349.422.523.387.572m28.539 41.764a15.45 15.45 0 0 0-2.812-7 8.64 8.64 0 0 1 2.812 7m6.2-.299a8.47 8.47 0 0 0-.614-6.7c.037-.028.329.255.654.823a6.2 6.2 0 0 1 .454 4.951c-.217.611-.453.943-.494.926M80.559 52.104a10.6 10.6 0 0 0 1.74-.933 13.4 13.4 0 0 0 3.071-3.627c1.01-1.594 2.025-3 2.635-4.048a4.5 4.5 0 0 0 .552-1.867c.021 0 .09.185.088.544a3.6 3.6 0 0 1-.389 1.45 20 20 0 0 1-1.114 1.89l-1.437 2.248a11.9 11.9 0 0 1-3.245 3.641 4.8 4.8 0 0 1-1.357.625 1.3 1.3 0 0 1-.544.077"/><path fill="#263238" d="M83.722 49.75a2.03 2.03 0 0 1-1.243-.092 5.4 5.4 0 0 1-2.487-1.691 10.2 10.2 0 0 1-1.536-2.565 3.6 3.6 0 0 1-.393-1.169 4.1 4.1 0 0 1 .644 1.049 14.3 14.3 0 0 0 1.586 2.43 6 6 0 0 0 2.276 1.685c.684.268 1.157.285 1.153.353m3.483-4.45a4.75 4.75 0 0 1-3.923-3.117c.1-.058.672.951 1.765 1.806 1.075.871 2.187 1.196 2.158 1.311"/></g></g></svg>