<svg xmlns="http://www.w3.org/2000/svg" xmlns:xlink="http://www.w3.org/1999/xlink" width="382.348" height="351.088" viewBox="0 0 382.348 351.088"><defs><clipPath id="a"><path d="M5.054,0H346.035c2.791,0,5.054,6.415,5.054,14.329v353.69c0,7.913-2.263,14.329-5.054,14.329H5.054C2.263,382.348,0,375.932,0,368.019V14.329C0,6.415,2.263,0,5.054,0Z" transform="translate(-13687.913 -13307.311)" fill="#cbc232"/></clipPath><clipPath id="b"><path d="M363.315,0C563.969,0,726.631,155.789,726.631,347.964S563.969,695.928,363.315,695.928,0,540.139,0,347.964,162.662,0,363.315,0Z" transform="translate(0 0)" fill="#21c9b8"/></clipPath><clipPath id="c"><rect width="530.776" height="530.776" fill="#dee4f0"/></clipPath><clipPath id="d"><rect width="164.718" height="168.09" fill="#fff" stroke="#fff" stroke-width="1"/></clipPath></defs><g transform="translate(-2023.304 4223.816)"><g transform="translate(15330.614 -17560.641) rotate(-90)" opacity="0.61" clip-path="url(#a)"><path d="M0,0H2398.132V505.308H0Z" transform="translate(-15143.035 -13371.444)" fill="#f3f9ff"/><path d="M339.691,0C527.3,0,679.381,152.085,679.381,339.691S527.3,679.381,339.691,679.381,0,527.3,0,339.691,152.085,0,339.691,0Z" transform="translate(-13285.051 -13355.636)" fill="#dbe3fb" opacity="0.14"/><path d="M339.691,0C527.3,0,679.381,152.085,679.381,339.691S527.3,679.381,339.691,679.381,0,527.3,0,339.691,152.085,0,339.691,0Z" transform="translate(-14076.762 -12959.152)" fill="#dbe3fb" opacity="0.14"/><path d="M339.691,0C527.3,0,679.381,152.085,679.381,339.691S527.3,679.381,339.691,679.381,0,527.3,0,339.691,152.085,0,339.691,0Z" transform="translate(-13298.395 -13510.606)" fill="#dbe3fb" opacity="0"/><rect width="9.32" height="2.485" transform="translate(-13153.392 -12939.704)" fill="#dbe3fb"/><ellipse cx="339.238" cy="324.904" rx="339.238" ry="324.904" transform="translate(-14135.324 -13978.838)" fill="#94a6dd" opacity="0.13"/><path d="M347.5,0c191.917,0,347.5,149.006,347.5,332.814S539.414,665.628,347.5,665.628,0,516.622,0,332.814,155.58,0,347.5,0Z" transform="translate(-13640.354 -13164.039)" fill="#fff" opacity="0.25"/><path d="M453.264,0C703.595,0,906.528,202.933,906.528,453.264S703.595,906.528,453.264,906.528,0,703.595,0,453.264,202.933,0,453.264,0Z" transform="translate(-15143.035 -13116.137)" fill="#a5b9f6" opacity="0.23" style="mix-blend-mode:multiply;isolation:isolate"/><path d="M453.264,0C703.595,0,906.528,202.933,906.528,453.264S703.595,906.528,453.264,906.528,0,703.595,0,453.264,202.933,0,453.264,0Z" transform="translate(-15241.656 -13963.87)" fill="#a5b9f6" opacity="0.23" style="mix-blend-mode:multiply;isolation:isolate"/><path d="M453.264,0C703.595,0,906.528,202.933,906.528,453.264S703.595,906.528,453.264,906.528,0,703.595,0,453.264,202.933,0,453.264,0Z" transform="translate(-14460.897 -13878.895)" fill="#f6f8fe" opacity="0.51" style="mix-blend-mode:lighten;isolation:isolate"/><g transform="translate(-14538.409 -13748.186)"><g clip-path="url(#c)"><path d="M530.776,265.384c0-8.566-.445-17.023-1.242-25.387H406.306l115.518-43.039a264.075,264.075,0,0,0-17.719-47.595L365.817,200.875,470.144,96.541a267.021,267.021,0,0,0-35.916-35.908l-87.152,87.161L398.3,35.715a264.035,264.035,0,0,0-46.185-21.142L290.788,148.75V1.233C282.423.445,273.958,0,265.384,0s-17.031.445-25.4,1.233V124.478L196.957,8.96a262.269,262.269,0,0,0-47.6,17.719l51.513,138.279L96.541,60.633A268,268,0,0,0,60.624,96.541L147.785,183.7,35.715,132.474a264.315,264.315,0,0,0-21.142,46.185L148.75,240H1.233C.445,248.361,0,256.818,0,265.384c0,8.583.445,17.04,1.233,25.4H124.478L8.952,333.819a262.977,262.977,0,0,0,17.719,47.612L164.95,329.909,60.624,434.227a267.083,267.083,0,0,0,35.916,35.916L183.7,382.983l-51.228,112.07A264.266,264.266,0,0,0,178.651,516.2l61.337-134.177V529.543c8.365.789,16.83,1.233,25.4,1.233s17.04-.445,25.4-1.233V406.3l43.031,115.527a264.14,264.14,0,0,0,47.6-17.711L329.9,365.826,434.227,470.144a266.109,266.109,0,0,0,35.916-35.916l-87.161-87.161,112.07,51.244A265.2,265.2,0,0,0,516.2,352.125L382.026,290.788H529.534c.8-8.365,1.242-16.821,1.242-25.4" fill="#dee4f0" opacity="0.12"/></g></g><path d="M618.344,309.167c0-9.979-.518-19.831-1.447-29.576H473.339l134.577-50.14A307.632,307.632,0,0,0,587.273,174l-161.1,60.012L547.708,112.468a311.075,311.075,0,0,0-41.842-41.832L404.335,172.177,464.015,41.607a307.6,307.6,0,0,0-53.805-24.63L338.763,173.291V1.437C329.018.518,319.156,0,309.167,0s-19.841.518-29.586,1.437V145.015L229.452,10.438a305.538,305.538,0,0,0-55.457,20.642l60.012,161.093L112.468,70.636a312.219,312.219,0,0,0-41.842,41.832L172.167,214.009,41.607,154.33a307.922,307.922,0,0,0-24.63,53.805l156.314,71.457H1.437C.518,289.336,0,299.188,0,309.167c0,10,.518,19.851,1.437,29.6H145.015L10.429,388.893a306.364,306.364,0,0,0,20.642,55.467l161.093-60.021L70.626,505.867a311.149,311.149,0,0,0,41.842,41.842L214.009,446.168,154.33,576.727a307.863,307.863,0,0,0,53.8,24.64l71.457-156.314V616.908c9.745.919,19.606,1.437,29.586,1.437s19.851-.518,29.6-1.437V473.329l50.13,134.586a307.711,307.711,0,0,0,55.457-20.633l-60.021-161.1L505.867,547.708a310.013,310.013,0,0,0,41.842-41.842L446.168,404.326l130.559,59.7a308.948,308.948,0,0,0,24.64-53.805L445.053,338.763H616.9c.929-9.745,1.447-19.6,1.447-29.6" transform="translate(-14335.129 -12938.46)" fill="none" stroke="#fff" stroke-width="1"/><rect width="9.32" height="2.485" transform="translate(-13114.48 -12874.489)" fill="#e9dcbf"/><g transform="translate(-13397.381 -13286.881)" style="isolation:isolate"><g transform="translate(0 0)" clip-path="url(#d)" style="isolation:isolate"><path d="M19.412,0h0a3.235,3.235,0,0,0-3.177,2.829A15.828,15.828,0,0,1,2.809,16.186a3.24,3.24,0,0,0,.021,6.425A15.7,15.7,0,0,1,16.256,35.965a3.2,3.2,0,0,0,6.351.056A15.957,15.957,0,0,1,36.08,22.531a3.091,3.091,0,0,0,2.737-3.043v-.076a3.2,3.2,0,0,0-2.807-3.156A15.958,15.958,0,0,1,22.584,2.8,3.221,3.221,0,0,0,19.412,0" transform="translate(0 0)" fill="#fff" stroke="#fff" stroke-width="1"/><path d="M40.955,0h0a3.235,3.235,0,0,0-3.177,2.829A15.828,15.828,0,0,1,24.352,16.186a3.24,3.24,0,0,0,.021,6.425A15.7,15.7,0,0,1,37.8,35.965a3.2,3.2,0,0,0,6.351.056,15.957,15.957,0,0,1,13.473-13.49,3.091,3.091,0,0,0,2.737-3.043v-.076a3.2,3.2,0,0,0-2.807-3.156A15.954,15.954,0,0,1,44.129,2.8,3.224,3.224,0,0,0,40.955,0" transform="translate(20.424 0)" fill="#fff" stroke="#fff" stroke-width="1"/><path d="M62.5,0h0a3.235,3.235,0,0,0-3.177,2.829A15.828,15.828,0,0,1,45.9,16.186a3.24,3.24,0,0,0,.021,6.425A15.7,15.7,0,0,1,59.342,35.965a3.2,3.2,0,0,0,6.351.056,15.957,15.957,0,0,1,13.473-13.49A3.091,3.091,0,0,0,81.9,19.488v-.076A3.2,3.2,0,0,0,79.1,16.256,15.958,15.958,0,0,1,65.67,2.8,3.221,3.221,0,0,0,62.5,0" transform="translate(40.847 0)" fill="#fff" stroke="#fff" stroke-width="1"/><path d="M84.042,0h0a3.235,3.235,0,0,0-3.177,2.829A15.828,15.828,0,0,1,67.439,16.186a3.24,3.24,0,0,0,.021,6.425A15.7,15.7,0,0,1,80.886,35.965a3.2,3.2,0,0,0,6.351.056,15.957,15.957,0,0,1,13.473-13.49,3.091,3.091,0,0,0,2.737-3.043v-.076a3.2,3.2,0,0,0-2.807-3.156A15.958,15.958,0,0,1,87.214,2.8,3.221,3.221,0,0,0,84.042,0" transform="translate(61.271 0)" fill="#fff" stroke="#fff" stroke-width="1"/><path d="M19.412,22.12h0a3.237,3.237,0,0,0-3.177,2.83A15.83,15.83,0,0,1,2.809,38.308a3.24,3.24,0,0,0,.021,6.425A15.7,15.7,0,0,1,16.256,58.087a3.2,3.2,0,0,0,6.351.055A15.957,15.957,0,0,1,36.08,44.653a3.092,3.092,0,0,0,2.737-3.043v-.078a3.205,3.205,0,0,0-2.807-3.156A15.956,15.956,0,0,1,22.584,24.919a3.221,3.221,0,0,0-3.171-2.8" transform="translate(0 20.97)" fill="#fff" stroke="#fff" stroke-width="1"/><path d="M40.955,22.12h0a3.237,3.237,0,0,0-3.177,2.83A15.83,15.83,0,0,1,24.352,38.308a3.24,3.24,0,0,0,.021,6.425A15.7,15.7,0,0,1,37.8,58.087a3.2,3.2,0,0,0,6.351.055A15.957,15.957,0,0,1,57.623,44.653,3.092,3.092,0,0,0,60.36,41.61v-.078a3.205,3.205,0,0,0-2.807-3.156A15.952,15.952,0,0,1,44.129,24.919a3.224,3.224,0,0,0-3.173-2.8" transform="translate(20.424 20.97)" fill="#fff" stroke="#fff" stroke-width="1"/><path d="M62.5,22.12h0a3.237,3.237,0,0,0-3.177,2.83A15.83,15.83,0,0,1,45.9,38.308a3.24,3.24,0,0,0,.021,6.425A15.7,15.7,0,0,1,59.342,58.087a3.2,3.2,0,0,0,6.351.055A15.957,15.957,0,0,1,79.166,44.653,3.092,3.092,0,0,0,81.9,41.61v-.078A3.205,3.205,0,0,0,79.1,38.376,15.956,15.956,0,0,1,65.67,24.919a3.221,3.221,0,0,0-3.171-2.8" transform="translate(40.847 20.97)" fill="#fff" stroke="#fff" stroke-width="1"/><path d="M84.042,22.12h0a3.237,3.237,0,0,0-3.177,2.83A15.83,15.83,0,0,1,67.439,38.308a3.24,3.24,0,0,0,.021,6.425A15.7,15.7,0,0,1,80.886,58.087a3.2,3.2,0,0,0,6.351.055A15.957,15.957,0,0,1,100.71,44.653a3.092,3.092,0,0,0,2.737-3.043v-.078a3.205,3.205,0,0,0-2.807-3.156A15.956,15.956,0,0,1,87.214,24.919a3.221,3.221,0,0,0-3.171-2.8" transform="translate(61.271 20.97)" fill="#fff" stroke="#fff" stroke-width="1"/><path d="M19.412,44.241h0a3.235,3.235,0,0,0-3.177,2.829A15.823,15.823,0,0,1,2.809,60.425a3.241,3.241,0,0,0,.021,6.427A15.7,15.7,0,0,1,16.256,80.206a3.2,3.2,0,0,0,6.351.056A15.957,15.957,0,0,1,36.08,66.772a3.092,3.092,0,0,0,2.737-3.043v-.076A3.2,3.2,0,0,0,36.009,60.5,15.958,15.958,0,0,1,22.584,47.04a3.221,3.221,0,0,0-3.171-2.8" transform="translate(0 41.942)" fill="#fff" stroke="#fff" stroke-width="1"/><path d="M40.955,44.241h0a3.235,3.235,0,0,0-3.177,2.829A15.823,15.823,0,0,1,24.352,60.425a3.241,3.241,0,0,0,.021,6.427A15.7,15.7,0,0,1,37.8,80.206a3.2,3.2,0,0,0,6.351.056,15.957,15.957,0,0,1,13.473-13.49,3.092,3.092,0,0,0,2.737-3.043v-.076A3.2,3.2,0,0,0,57.552,60.5,15.954,15.954,0,0,1,44.129,47.04a3.224,3.224,0,0,0-3.173-2.8" transform="translate(20.424 41.942)" fill="#fff" stroke="#fff" stroke-width="1"/><path d="M62.5,44.241h0a3.235,3.235,0,0,0-3.177,2.829A15.823,15.823,0,0,1,45.9,60.425a3.241,3.241,0,0,0,.021,6.427A15.7,15.7,0,0,1,59.342,80.206a3.2,3.2,0,0,0,6.351.056,15.957,15.957,0,0,1,13.473-13.49A3.092,3.092,0,0,0,81.9,63.729v-.076A3.2,3.2,0,0,0,79.1,60.5,15.958,15.958,0,0,1,65.67,47.04a3.221,3.221,0,0,0-3.171-2.8" transform="translate(40.847 41.942)" fill="#fff" stroke="#fff" stroke-width="1"/><path d="M84.042,44.241h0a3.235,3.235,0,0,0-3.177,2.829A15.823,15.823,0,0,1,67.439,60.425a3.241,3.241,0,0,0,.021,6.427A15.7,15.7,0,0,1,80.886,80.206a3.2,3.2,0,0,0,6.351.056,15.957,15.957,0,0,1,13.473-13.49,3.092,3.092,0,0,0,2.737-3.043v-.076a3.2,3.2,0,0,0-2.807-3.156A15.958,15.958,0,0,1,87.214,47.04a3.221,3.221,0,0,0-3.171-2.8" transform="translate(61.271 41.942)" fill="#fff" stroke="#fff" stroke-width="1"/><path d="M19.412,66.361h0a3.235,3.235,0,0,0-3.177,2.829A15.828,15.828,0,0,1,2.809,82.547a3.24,3.24,0,0,0,.021,6.425,15.7,15.7,0,0,1,13.426,13.354,3.2,3.2,0,0,0,6.351.056A15.957,15.957,0,0,1,36.08,88.892a3.091,3.091,0,0,0,2.737-3.043v-.076a3.2,3.2,0,0,0-2.807-3.156A15.958,15.958,0,0,1,22.584,69.16a3.221,3.221,0,0,0-3.171-2.8" transform="translate(0 62.912)" fill="#fff" stroke="#fff" stroke-width="1"/><path d="M40.955,66.361h0a3.235,3.235,0,0,0-3.177,2.829A15.827,15.827,0,0,1,24.352,82.547a3.24,3.24,0,0,0,.021,6.425A15.7,15.7,0,0,1,37.8,102.326a3.2,3.2,0,0,0,6.351.056,15.957,15.957,0,0,1,13.473-13.49,3.091,3.091,0,0,0,2.737-3.043v-.076a3.2,3.2,0,0,0-2.807-3.156A15.954,15.954,0,0,1,44.129,69.16a3.224,3.224,0,0,0-3.173-2.8" transform="translate(20.424 62.912)" fill="#fff" stroke="#fff" stroke-width="1"/><path d="M62.5,66.361h0a3.235,3.235,0,0,0-3.177,2.829A15.827,15.827,0,0,1,45.9,82.547a3.24,3.24,0,0,0,.021,6.425,15.7,15.7,0,0,1,13.426,13.354,3.2,3.2,0,0,0,6.351.056,15.957,15.957,0,0,1,13.473-13.49A3.091,3.091,0,0,0,81.9,85.849v-.076A3.2,3.2,0,0,0,79.1,82.617,15.958,15.958,0,0,1,65.67,69.16a3.221,3.221,0,0,0-3.171-2.8" transform="translate(40.847 62.912)" fill="#fff" stroke="#fff" stroke-width="1"/><path d="M84.042,66.361h0a3.235,3.235,0,0,0-3.177,2.829A15.827,15.827,0,0,1,67.439,82.547a3.24,3.24,0,0,0,.021,6.425,15.7,15.7,0,0,1,13.426,13.354,3.2,3.2,0,0,0,6.351.056,15.957,15.957,0,0,1,13.473-13.49,3.091,3.091,0,0,0,2.737-3.043v-.076a3.2,3.2,0,0,0-2.807-3.156A15.958,15.958,0,0,1,87.214,69.16a3.221,3.221,0,0,0-3.171-2.8" transform="translate(61.271 62.912)" fill="#fff" stroke="#fff" stroke-width="1"/></g></g></g><g transform="translate(1422.652 -11897.5)"><path d="M135,0,270,262.308H0Z" transform="translate(660 7708.103)" fill="#faf9ea"/><rect width="109.936" height="37.798" rx="18.899" transform="translate(740.032 7700.702)" fill="#cbc232"/><rect width="119.348" height="42" rx="21" transform="translate(617.652 7946.757)" fill="#21c9b8"/><rect width="103" height="44" rx="22" transform="translate(853.5 7951.336)" fill="#a5b9f6"/><text transform="translate(630.873 7973.757)" fill="#12263f" font-size="18" font-family="Roboto-Black, Roboto" font-weight="800"><tspan x="0" y="0">Empleados</tspan></text><text transform="translate(871.769 7979.336)" fill="#12263f" font-size="18" font-family="Roboto-Black, Roboto" font-weight="800"><tspan x="0" y="0">Clientes</tspan></text><text transform="translate(754 7725.601)" fill="#12263f" font-size="18" font-family="Roboto-Black, Roboto" font-weight="800"><tspan x="0" y="0">Compañía</tspan></text><path d="M-5085,11750.189h4.512v-40.037H-5085l11.56-10.152,11.56,10.152h-3.947v40.037h3.947l-11.56,10.15Z" transform="matrix(0.883, 0.469, -0.469, 0.883, 10711.435, -132.881)" fill="#eae7ad"/><path d="M-5085,11750.189h4.512v-40.037H-5085l11.56-10.152,11.56,10.152h-3.947v40.037h3.947l-11.56,10.15Z" transform="matrix(0.891, -0.454, 0.454, 0.891, 58.207, -4915.694)" fill="#eae7ad"/><path d="M-5085,11750.189h4.512v-40.037H-5085l11.56-10.152,11.56,10.152h-3.947v40.037h3.947l-11.56,10.15Z" transform="translate(-10930.67 2894.879) rotate(-90)" fill="#eae7ad"/><g transform="translate(756.152 7842.409)"><g transform="translate(1.27 1.27)"><path d="M5.281,1.582H34.829a3.7,3.7,0,0,1,3.7,3.7V29.7a3.7,3.7,0,0,1-3.7,3.7H27.581V38.87l-7.009-5.476H5.281a3.7,3.7,0,0,1-3.7-3.7V5.281a3.7,3.7,0,0,1,3.7-3.7Z" transform="translate(-1.582 -1.582)" fill="#f4fbff"/><g transform="translate(30.964 3.253)"><path d="M42.55,20.622a6.827,6.827,0,0,0-2.395,5.193v5.473a6.8,6.8,0,0,0,.649,2.9h1.634a3.7,3.7,0,0,0,3.7-3.7V6.081a3.727,3.727,0,0,0-.029-.446A17.018,17.018,0,0,0,42.55,16.065Z" transform="translate(-40.155 -5.635)" fill="#dfeaef"/></g></g><g transform="translate(27.269 1.27)"><g transform="translate(10.1 32.157)"><path d="M46.553,41.641H84.508v23.6H46.553Z" transform="translate(-46.553 -41.641)" fill="#934d36"/></g><g transform="translate(0 49.604)"><path d="M69.035,63.376l14.2,3.788a11.973,11.973,0,0,1,8.888,11.569v19.2H33.97v-19.2a11.974,11.974,0,0,1,8.888-11.569l14.2-3.788Z" transform="translate(-33.97 -63.376)" fill="#d3effb"/></g><g transform="translate(29.078 49.604)"><path d="M70.194,69.875l3.073,6.337a2.371,2.371,0,0,0,4.35-.195l4.217-11.135-5.653-1.508Z" transform="translate(-70.194 -63.376)" fill="#f4fbff"/></g><g transform="translate(17.438 49.604)"><path d="M67.334,69.875l-3.073,6.337a2.371,2.371,0,0,1-4.35-.195L55.694,64.883l5.653-1.508Z" transform="translate(-55.694 -63.376)" fill="#f4fbff"/></g><g transform="translate(50.002 53.615)"><path d="M96.26,68.373a11.957,11.957,0,0,1,2.851,7.753V98.913h5.3v-19.2A11.972,11.972,0,0,0,96.26,68.373Z" transform="translate(-96.26 -68.373)" fill="#b1e4f9"/></g><g transform="translate(23.091 42.249)"><path d="M62.736,62.081V54.213H74.71v7.868a5.987,5.987,0,1,1-11.973,0Z" transform="translate(-62.736 -54.213)" fill="#fcd0a3"/></g><g transform="translate(23.091 42.249)"><path d="M62.736,58.107a17.1,17.1,0,0,0,11.973,0V54.213H62.737v3.894Z" transform="translate(-62.736 -54.213)" fill="#ffb983"/></g><g transform="translate(15.394 15.907)"><path d="M53.148,21.4V35.611a13.684,13.684,0,0,0,27.368,0V21.4Z" transform="translate(-53.148 -21.399)" fill="#fcd0a3"/></g><g transform="translate(37.422 15.907)"><path d="M85.928,35.611V21.4h-3.25V39.188a13.616,13.616,0,0,1-2.09,7.266A13.658,13.658,0,0,0,85.928,35.611Z" transform="translate(-80.588 -21.399)" fill="#ffb983"/></g><g transform="translate(10.947)"><path d="M47.608,18.687a17.1,17.1,0,0,1,17.1-17.1h4.96A5.131,5.131,0,0,1,74.8,6.713h2.224a6.842,6.842,0,0,1,6.842,6.842v14.2H79.422L74.8,18.858,72.361,21.3a6.842,6.842,0,0,1-4.838,2H62.336a13.684,13.684,0,0,0-8.793,3.2l-1.488,1.248H47.608V18.687Z" transform="translate(-47.608 -1.582)" fill="#aa593d"/></g><g transform="translate(42.049 5.34)"><path d="M86.353,8.235a6.811,6.811,0,0,1,.713,3.041V28.893l-.087,0,.087.168,4.447-.171V14.868a6.844,6.844,0,0,0-5.16-6.633Z" transform="translate(-86.353 -8.235)" fill="#934d36"/></g><g transform="translate(42.762 20.013)"><path d="M90.662,38.828H87.241V26.513h3.421a3.421,3.421,0,0,1,3.421,3.421v5.473a3.421,3.421,0,0,1-3.421,3.421Z" transform="translate(-87.241 -26.513)" fill="#e28086"/></g><g transform="translate(8.552 20.013)"><path d="M48.045,38.828h3.421V26.513H48.045a3.421,3.421,0,0,0-3.421,3.421v5.473a3.421,3.421,0,0,0,3.421,3.421Z" transform="translate(-44.624 -26.513)" fill="#e28086"/></g></g><g transform="translate(1.27 52.926)"><path d="M40.923,91.59H1.582V69.353A3.421,3.421,0,0,1,5,65.933H37.5a3.421,3.421,0,0,1,3.421,3.421Z" transform="translate(-1.582 -65.933)" fill="#a0aab7"/><g transform="translate(16.25 9.408)"><circle cx="3.421" cy="3.421" r="3.421" fill="#f4fbff"/></g><g transform="translate(0 25.657)"><path d="M1.582,97.895H44.344v3.421a3.421,3.421,0,0,1-3.421,3.421H5a3.421,3.421,0,0,1-3.421-3.421Z" transform="translate(-1.582 -97.895)" fill="#808b95"/></g><g transform="translate(35.92 25.657)"><path d="M49.75,97.895v3.421a3.421,3.421,0,0,1-3.421,3.421H49.75a3.421,3.421,0,0,0,3.421-3.421V97.895Z" transform="translate(-46.329 -97.895)" fill="#5e6b75"/></g></g><g transform="translate(9.564 6.913)"><circle cx="10.263" cy="10.263" r="10.263" fill="#f6e266"/></g><g transform="translate(0 0)"><path d="M85.425,70.373A1.27,1.27,0,0,0,86.7,69.1V66.23a13.259,13.259,0,0,0-9.831-12.8l-.269-.072V33.656a4.68,4.68,0,0,0,1.548-3.479V24.7a4.693,4.693,0,0,0-2.395-4.088V13.243a8.121,8.121,0,0,0-8.112-8.112h-1.08A6.412,6.412,0,0,0,60.281,0h-4.96A18.384,18.384,0,0,0,39.486,9.064V4.97A4.975,4.975,0,0,0,34.516,0H12.911a1.27,1.27,0,1,0,0,2.54H34.517a2.433,2.433,0,0,1,2.43,2.43V20.615A4.693,4.693,0,0,0,34.552,24.7v5.473a4.67,4.67,0,0,0,.285,1.612,2.486,2.486,0,0,1-.321.022H27.269A1.27,1.27,0,0,0,26,33.081v2.873l-4.958-3.874a1.27,1.27,0,0,0-.782-.269H4.97a2.432,2.432,0,0,1-2.43-2.428V4.97A2.433,2.433,0,0,1,4.97,2.54H6.979a1.27,1.27,0,1,0,0-2.54H4.97A4.975,4.975,0,0,0,0,4.97V29.383a4.974,4.974,0,0,0,4.97,4.968H19.822l6.665,5.208a1.27,1.27,0,0,0,2.052-1V34.351h5.977a4.966,4.966,0,0,0,1.583-.259V51.656H4.691A4.7,4.7,0,0,0,0,56.347v9.222a1.27,1.27,0,1,0,2.54,0V56.347A2.153,2.153,0,0,1,4.691,54.2h32.5a2.153,2.153,0,0,1,2.151,2.151V77.313H2.54V71.5A1.27,1.27,0,1,0,0,71.5V82A4.7,4.7,0,0,0,4.691,86.7H85.425a1.27,1.27,0,0,0,1.27-1.27V75.036a1.27,1.27,0,0,0-2.54,0v9.119H75.406V78.584a1.27,1.27,0,0,0-2.54,0v5.572H44.777A4.66,4.66,0,0,0,45.3,82V78.584a1.27,1.27,0,0,0-1.27-1.27H41.881V56.347a4.664,4.664,0,0,0-.361-1.8l2.406-.641,3.811,10.063a3.592,3.592,0,0,0,3.242,2.348c.058,0,.115,0,.172,0a3.588,3.588,0,0,0,3.266-2.052l1.93-3.98,1.93,3.98a3.587,3.587,0,0,0,3.266,2.053c.057,0,.115,0,.172,0a3.591,3.591,0,0,0,3.242-2.348L68.768,53.9l7.442,1.984A10.717,10.717,0,0,1,84.155,66.23V69.1a1.27,1.27,0,0,0,1.27,1.27ZM42.762,82a2.153,2.153,0,0,1-2.151,2.151H4.691A2.153,2.153,0,0,1,2.54,82V79.853H42.762ZM74.055,52.685,63.6,49.9V44.461a15.065,15.065,0,0,0,4.983-4.49A2.983,2.983,0,0,0,71.3,37V34.868h2.151a4.693,4.693,0,0,0,.6-.04ZM56.347,56.1a4.722,4.722,0,0,1-4.717-4.717V45.581a14.963,14.963,0,0,0,9.433,0v5.806A4.722,4.722,0,0,1,56.347,56.1ZM49.091,49.9l-9.376,2.5a4.674,4.674,0,0,0-1.075-.51V34.828a4.724,4.724,0,0,0,.6.04H41.8a15.01,15.01,0,0,0,7.288,9.593Zm-12-25.194a2.153,2.153,0,0,1,2.151-2.151h2.151v9.775H39.242a2.153,2.153,0,0,1-2.151-2.151ZM65.085,20.67l3.676,7.08v3.64a12.335,12.335,0,0,1-1.583,6.055H58.545a2.54,2.54,0,1,0,0,2.54h6.747A12.4,12.4,0,0,1,43.934,31.39V28.032l1.034-.867a12.434,12.434,0,0,1,7.977-2.9h5.187a8.06,8.06,0,0,0,5.736-2.376Zm8.367,1.883A2.153,2.153,0,0,1,75.6,24.7v5.473a2.153,2.153,0,0,1-2.151,2.151H71.3V22.552Zm-.244-9.309v6.77H70.031a1.27,1.27,0,0,0-1.27,1.27v.956l-2.078-4V7.671h.954a5.578,5.578,0,0,1,5.572,5.572ZM55.321,2.54h4.96A3.866,3.866,0,0,1,64.143,6.4V18.02l-2.071,2.071a5.536,5.536,0,0,1-3.94,1.632H52.945a14.979,14.979,0,0,0-9.011,3.023V21.283a1.27,1.27,0,0,0-1.27-1.27H39.486V18.375A15.853,15.853,0,0,1,55.321,2.54ZM52.132,63.157a1.1,1.1,0,0,1-2.02-.09l-3.719-9.821,2.784-.742a7.277,7.277,0,0,0,5.267,5.885Zm10.451-.09a1.1,1.1,0,0,1-2.02.09l-2.312-4.768A7.277,7.277,0,0,0,63.518,52.5l2.784.742Z" transform="translate(0 0)"/><path d="M29.625,80.761a4.691,4.691,0,1,0-4.691,4.691A4.7,4.7,0,0,0,29.625,80.761Zm-6.842,0a2.151,2.151,0,1,1,2.151,2.151A2.153,2.153,0,0,1,22.783,80.761Z" transform="translate(-3.993 -15.006)"/><path d="M28.386,26.259a1.27,1.27,0,0,0-1.8-1.794,4.536,4.536,0,0,1-6.423,0,1.27,1.27,0,0,0-1.8,1.794,7.076,7.076,0,0,0,10.018,0Z" transform="translate(-3.55 -4.752)"/><path d="M33.4,18.563A11.533,11.533,0,1,0,21.865,30.1,11.546,11.546,0,0,0,33.4,18.563Zm-20.526,0a8.993,8.993,0,1,1,8.993,8.993,9,9,0,0,1-8.993-8.993Z" transform="translate(-2.038 -1.387)"/><circle cx="1.711" cy="1.711" r="1.711" transform="translate(14.18 12.9)"/><circle cx="1.711" cy="1.711" r="1.711" transform="translate(22.052 12.9)"/></g></g></g></g></svg>